<svg xmlns="http://www.w3.org/2000/svg" xmlns:xlink="http://www.w3.org/1999/xlink" version="1.1" x="0px" y="0px" viewBox="0 0 128 160" style="enable-background:new 0 0 128 128;" xml:space="preserve"><g><path d="M6.363,36.576L6.28,36.493v-0.169h0.083l0.086-0.255l-0.086-0.168c0.49-0.094,0.941-0.291,1.355-0.592h0.168   c0.15-0.219,0.291-0.444,0.422-0.676c-0.059-0.661,0.147-1.307,0.593-1.773v-0.255h0.083l0.253-0.169   c0.108-0.253,0.313-0.426,0.595-0.507l0.166-0.255l0.424-0.252v-0.084l-0.17-0.34c0.044-0.448,0.313-0.735,0.763-0.843l0.083-0.172   v-0.336c-0.106-0.064-0.22-0.093-0.339-0.084c0.253-0.171,0.507-0.34,0.763-0.508c0.063-0.137,0.09-0.277,0.083-0.423   c-0.112-0.141-0.227-0.282-0.339-0.423v-0.084c0.112-0.057,0.226-0.113,0.339-0.168v-0.085l0.252-0.087l0.085,0.087   c0.159-0.085,0.329-0.113,0.508-0.087l0.255-0.252l0.252,0.084c0.104-0.029,0.189-0.085,0.255-0.168v-0.255l0.337-0.084l0.083-0.34   l0.088-0.083h0.251l0.169-0.085h0.17l0.085-0.252c0.242-0.112,0.468-0.253,0.676-0.423c0.101-0.226,0.279-0.402,0.507-0.508   c0.17,0,0.338,0,0.507,0l0.086-0.339L16,24.831l0.083-0.168c0-0.058,0-0.114,0-0.171h0.086c0.112-0.058,0.226-0.114,0.338-0.169   h0.508l0.168-0.084c0.134-0.351,0.311-0.704,0.507-1.015c0.033-0.343,0.005-0.684-0.085-1.014l0.085-0.085v-0.168h-0.255   l-0.083-0.171c0.169,0,0.338,0,0.507,0c0.175-0.064,0.315-0.177,0.422-0.336h0.168l0.424-0.255h0.084   c0.139,0.12,0.252,0.261,0.34,0.423c0,0.254,0,0.508,0,0.762c0.148,0.246,0.348,0.441,0.591,0.592v0.421   c0.177,0.166,0.379,0.311,0.592,0.423l0.167,0.339l0.341,0.252l0.083,0.171l-0.083,0.421l0.083,0.255l0.339,0.252v0.171   c-0.236,0.189-0.436,0.417-0.591,0.676l0.083,0.168v0.252l-0.083,0.172c0.115,0.295,0.172,0.613,0.169,0.93   c0.055,0.057,0.111,0.113,0.168,0.168h0.083l0.171,0.085h0.168c0.03,0.103,0.086,0.187,0.169,0.252   c-0.007,0.289,0.05,0.571,0.168,0.847l0.424,0.339c0.232,0.028,0.459,0.084,0.678,0.168c-0.006,0.222,0.088,0.444,0.251,0.592   h0.341l0.083,0.084v0.084c0.42,0.067,0.844,0.096,1.269,0.084l0.083,0.087c0.133-0.076,0.274-0.105,0.424-0.087   c0.153,0.132,0.324,0.246,0.507,0.339l0.169,0.253c0.203-0.008,0.4,0.022,0.59,0.086v0.085l0.507,0.423l0.256-0.255h0.083   l0.085-0.084h0.169l0.255-0.255h0.084l0.083,0.171c0.19-0.12,0.357-0.26,0.509-0.424v-0.252l0.252-0.507c0.113,0,0.226,0,0.339,0   V29.9l0.085-0.084l0.253-0.084c0.065-0.082,0.15-0.139,0.254-0.168l0.339,0.084l0.252-0.084c-0.01-0.119,0.019-0.232,0.085-0.339   l-0.169-0.508h0.084v-0.084c0.065-0.082,0.15-0.139,0.255-0.168c0.084,0,0.168,0,0.252,0c0.225-0.087,0.368-0.261,0.424-0.507   l0.168-0.085h0.339l0.337,0.253c0.177,0.019,0.344-0.009,0.507-0.085c0.132-0.135,0.238-0.268,0.339-0.423   c0.146-0.007,0.287,0.021,0.424,0.085l0.252-0.085c0.225-0.253,0.451-0.506,0.676-0.76h0.17c0.308,0.146,0.511,0.41,0.592,0.76   c0.162,0.151,0.373,0.243,0.591,0.255l0.253-0.17h0.084c0.186,0.135,0.383,0.247,0.594,0.338c0.057,0,0.112,0,0.169,0l0.168-0.083   h0.083c0.081-0.214,0.197-0.419,0.341-0.592h0.252c0.248-0.301,0.396-0.705,0.424-1.099c0.082-0.087,0.166-0.173,0.253-0.255   c0.006-0.173-0.023-0.342-0.087-0.508c0.022-0.182,0.08-0.352,0.172-0.507h0.169c0.169,0.085,0.339,0.169,0.507,0.255   c0.196,0,0.395,0,0.591,0c-0.006-0.173,0.022-0.342,0.085-0.507l0.168-0.169l0.086-0.255c0.221-0.205,0.443-0.4,0.675-0.591   c0-0.253,0-0.507,0-0.76c0.297-0.245,0.55-0.527,0.761-0.847c0.067-0.278,0.096-0.56,0.083-0.843l-0.083-0.172   c0.063-0.13,0.148-0.242,0.256-0.336c0.252,0,0.506,0,0.759,0c-0.019-0.148,0.01-0.29,0.085-0.423l0.253-0.169l0.086-0.339   l-0.086-0.168c-0.174-0.067-0.314-0.18-0.422-0.339l0.169-0.339v-0.085l-0.085-0.083H42.45c0-0.085,0-0.169,0-0.253h0.169v-0.171   l0.255-0.084l0.083-0.168v-0.169l0.169-0.17v-0.085c-0.177-0.145-0.333-0.275-0.507-0.423c-0.085,0-0.168,0-0.252,0l-0.087-0.168   l-0.505-0.169c-0.068-0.081-0.153-0.138-0.256-0.17c-0.144-0.301-0.197-0.604-0.167-0.928l-0.34-0.592l-0.252-0.084l0.083-0.171   v-0.084h0.085l-0.168-0.084c-0.007-0.289-0.034-0.565-0.083-0.847c0.112-0.391,0.338-0.672,0.675-0.844   c0.058-0.208,0.169-0.377,0.335-0.507c0.743-0.167,1.39-0.506,1.945-1.015c0.141-0.223,0.31-0.419,0.508-0.592   c0.139-0.028,0.284-0.057,0.423-0.084c0.229-0.331,0.546-0.566,0.928-0.675l0.172,0.083h0.083c0.396,0.397,0.781,0.871,1.1,1.352   c0.111,0,0.224,0,0.335,0l0.172,0.255l0.169,0.084h0.083l0.085,0.337c0.058,0,0.113,0,0.171,0l0.083-0.168h0.337l0.17-0.085   c0.084,0,0.17,0,0.254,0c0.029,0.104,0.085,0.188,0.168,0.253l0.254-0.168l0.168-0.424h0.169l0.17,0.171v-0.171h0.085l0.084-0.084   l0.085,0.084h0.083v0.087h0.087l0.169,0.084v0.084c0.112,0,0.225,0,0.337,0v0.252c0.292-0.021,0.572-0.076,0.846-0.168   c0.139,0.048,0.251,0.132,0.338,0.253v0.087l0.086,0.083c-0.136,0.311-0.103,0.639,0.083,0.929v0.086l0.254,0.169h0.253   l0.169,0.084l0.255,0.339c0.057,0,0.112,0,0.169,0l0.168-0.171h0.083l0.086,0.171v0.253l0.17,0.255v0.252   c0.229,0.009,0.453-0.02,0.676-0.084l0.083-0.085V14.52c0.198-0.097,0.371-0.242,0.507-0.42c0-0.113,0-0.227,0-0.339l0.085,0.084   l0.256,0.084v0.084c0.198-0.028,0.392-0.056,0.59-0.084l0.169-0.084l0.083,0.084c0.146-0.201,0.284-0.395,0.424-0.592l0.256,0.085   l0.251-0.085l0.339,0.085l0.337-0.085l0.085-0.168l-0.085-0.168c0.064-0.085,0.149-0.143,0.256-0.171l0.251,0.084   c0.115-0.085,0.227-0.167,0.341-0.252v-0.34c0.239-0.185,0.502-0.359,0.759-0.507h0.083v-0.336l0.424-0.255l0.084-0.169   c0.191-0.06,0.387-0.088,0.592-0.084c0.144-0.146,0.317-0.262,0.507-0.339h0.085l0.171,0.084h0.168l0.169-0.084   c0.525,0.092,1.013-0.021,1.436-0.336c0.112,0,0.225,0,0.337,0l0.172-0.085l0.336,0.168l0.34-0.255l0.167,0.255   c0.085,0,0.17,0,0.255,0l0.169,0.169h0.085c0.081-0.066,0.139-0.15,0.17-0.252l0.252-0.085l0.168-0.17h0.084l0.172,0.083h0.168   l0.169-0.759l0.254-0.255V8.858l0.253-0.252h0.083c0.149-0.165,0.317-0.306,0.508-0.424c-0.023-0.345,0.005-0.683,0.087-1.014   h0.592L67.803,7V6.83c0.195-0.061,0.393-0.089,0.593-0.085V6.577h0.167l0.085-0.168c0.141,0,0.282,0,0.424,0l0.083,0.168   l0.255-0.084V6.154l0.169-0.084l0.083-0.34h0.085l0.084-0.168V5.395l0.087-0.084V5.224H70l0.085-0.252h0.169   c0.189-0.178,0.359-0.375,0.507-0.592l0.083,0.084c0.15-0.335,0.292-0.673,0.424-1.015l0.169-0.168V3.197c0.084,0,0.169,0,0.253,0   l0.337,0.252h0.256l0.251,0.171h0.086c0.139-0.049,0.251-0.134,0.338-0.255h0.256V3.281l0.083-0.084   c0.119-0.009,0.231,0.019,0.337,0.084l0.083-0.084l0.087,0.084l0.086-0.084l0.083,0.084l0.085-0.084l0.083,0.084l0.593-0.084   l-0.085,0.168v0.084l-0.084,0.084V3.62c0.029,0.104,0.085,0.188,0.169,0.253v0.084c0.082,0.066,0.14,0.151,0.17,0.255h0.252v0.084   l0.085-0.084c0.169,0,0.338,0,0.507,0l0.084,0.336l-0.084,0.34l0.169,0.084l0.253-0.169h0.086l0.168-0.087l0.256,0.087v0.169   c0.174,0.013,0.343-0.015,0.507-0.084v0.168l0.168,0.168h0.084c0,0.113,0,0.227,0,0.339l0.168,0.168v0.172l0.256,0.083v0.337h0.166   v0.423c0.086,0.169,0.171,0.338,0.256,0.508c0,0.056,0,0.112,0,0.168l0.085,0.087V7.76l0.083,0.084l-0.083,0.171L78.535,8.1   l0.084,0.168h0.17v0.084l0.168-0.084l0.169,0.084h0.085V8.52h0.085c0.149,0.069,0.291,0.154,0.422,0.255c0.113,0,0.226,0,0.339,0   l0.083,0.168l0.169,0.085l-0.083,0.17c0,0.085,0,0.168,0,0.253L80.14,9.618v0.087l-0.168,0.252l0.085,0.168v0.172h0.083v0.168   l-0.083,0.084l-0.255,0.084c0,0.058,0,0.113,0,0.171l-0.169,0.084l-0.252-0.084v0.084h-0.085l-0.085,0.084l0.254,0.337   l-0.084,0.086l0.084,0.169l-0.169,0.168l0.085,0.171c0,0.084,0,0.168,0,0.252h-0.085l-0.17,0.085v0.255   c-0.056,0.112-0.111,0.225-0.169,0.336l0.339-0.168h0.337c0.336,0.286,0.741,0.458,1.183,0.507c0.214-0.142,0.436-0.195,0.68-0.168   c0.082-0.087,0.165-0.172,0.251-0.255h0.084l0.085-0.339l0.083-0.085c0.224-0.114,0.455-0.114,0.68,0l0.083,0.085   c0.166-0.329,0.366-0.644,0.592-0.928h0.169l0.253,0.252c0.106,0.064,0.219,0.093,0.337,0.084l0.339-0.336   c-0.03-0.297,0.025-0.577,0.169-0.847l0.172-0.168c0.026-0.409,0.109-0.804,0.252-1.183l-0.086-0.34   c0.047-0.319,0.131-0.629,0.254-0.928c0.113-0.112,0.227-0.225,0.339-0.339c0.084,0,0.167,0,0.252,0l0.087,0.084h0.085   c0.14,0.177,0.309,0.318,0.507,0.423l0.083,0.169c0.142,0,0.283,0,0.424,0c0.344-0.118,0.62-0.313,0.844-0.592   c0.282,0,0.564,0,0.847,0c0.132-0.075,0.271-0.132,0.42-0.168c0.182-0.24,0.379-0.466,0.592-0.678l0.087-0.253l0.169-0.084   l0.251-0.507c-0.05-0.305-0.162-0.587-0.337-0.847c0-0.112,0-0.224,0-0.336l0.086-0.085c0.301-0.112,0.611-0.197,0.929-0.255   l0.168,0.085h0.169l0.507-0.337C91.97,4.36,92.225,4.388,92.48,4.38c0.085-0.084,0.169-0.169,0.252-0.255   c-0.055-0.437-0.167-0.859-0.339-1.267l0.087-0.253c0.522,0.013,1.028-0.072,1.52-0.255V2.267c0.055-0.058,0.112-0.113,0.17-0.168   l0.337-0.084l0.083-0.087c0.286-0.046,0.541-0.158,0.763-0.337V1.423l0.085-0.087c0.111,0,0.224,0,0.335,0l0.087-0.252   c0.19-0.05,0.393-0.078,0.593-0.084c0.112,0.112,0.225,0.225,0.337,0.336c0.226,0,0.452,0,0.677,0   c0.081,0.068,0.137,0.153,0.169,0.255c-0.015,0.149,0.013,0.287,0.083,0.424c0.17,0.053,0.286,0.168,0.341,0.336l-0.087,0.085   c0,0.169,0,0.338,0,0.507c0.054,0.136,0.14,0.248,0.253,0.339h0.086V3.197l0.255,0.084l0.252-0.084   c0.056-0.057,0.112-0.113,0.168-0.171l0.171,0.171v0.084c0.503,0.121,1.015,0.235,1.52,0.339c0.131,0.165,0.3,0.277,0.507,0.337   l0.17,0.339c0.104,0.029,0.188,0.086,0.254,0.168c0.368-0.031,0.752-0.12,1.098-0.252c0.283,0.01,0.57,0.038,0.848,0.084   c0.272,0.204,0.523,0.428,0.759,0.676l0.251,0.084l0.173,0.168c0.121,0.295,0.179,0.613,0.168,0.931   c0.083,0.169,0.168,0.339,0.254,0.507l0.337,0.169l0.168-0.085h0.087l0.169-0.336V5.647c0.14-0.298,0.309-0.579,0.507-0.845   l0.252-0.087l0.507,0.087c0.19,0.115,0.36,0.255,0.507,0.421c-0.019,0.183-0.074,0.352-0.166,0.507   c-0.159,0.093-0.3,0.206-0.424,0.34v0.084l-0.086,0.084v0.084c0.298,0.584,0.806,1.003,1.437,1.186   c0.198-0.198,0.396-0.396,0.594-0.594h0.084l0.168-0.084h0.256V7l0.251,0.253c0.065,0.106,0.095,0.22,0.085,0.339   c-0.095,0.104-0.207,0.188-0.336,0.252l-0.087,0.171l0.087,0.168h0.168l-0.255,0.253l0.087,0.339   c0.248,0.225,0.422,0.516,0.505,0.844l-0.085,0.171c0.25,0.458,0.447,0.937,0.592,1.436l0.339,0.339l0.083,0.252l0.085,0.087v0.168   l-0.085,0.084v0.168l0.085,0.085h0.256l0.252,0.255l0.168-0.085l0.256,0.085l0.083-0.085c0.167,0.028,0.341,0.057,0.507,0.085   v0.084l0.084,0.084h0.085l0.17,0.171c0.084,0,0.169,0,0.254,0c0.11,0.114,0.224,0.227,0.338,0.336   c-0.035,0.15-0.093,0.292-0.172,0.424v0.084c-0.055,0.056-0.111,0.112-0.166,0.168l0.083,0.087v0.084l-0.083,0.084v0.084   l-0.085-0.084l-0.084,0.084c0,0.113,0,0.227,0,0.34l0.084,0.168c0.206,0.127,0.403,0.269,0.592,0.423l-0.085,0.084   c-0.057,0-0.112,0-0.169,0c-0.123,0.085-0.207,0.197-0.253,0.337l-0.169,0.086c0,0.281,0,0.563,0,0.845l0.169,0.338h0.083v0.085   l0.255,0.252c0.106,0.066,0.219,0.096,0.337,0.087l0.084,0.084c-0.056,0.113-0.111,0.225-0.169,0.337l0.085,0.084v0.086   l-0.168,0.169v0.252l-0.169,0.255v0.084l0.169,0.085c0.05,0.243,0.163,0.439,0.339,0.591h0.083l0.169-0.084h0.168v0.168   c0.178-0.021,0.344,0.006,0.507,0.084l0.085-0.084l0.595,0.339l0.083,0.169c0,0.168,0,0.338,0,0.507   c0.137,0.376,0.334,0.714,0.592,1.015c-0.008,0.227-0.038,0.456-0.085,0.676l0.169,0.084c0.229,0.551,0.342,1.114,0.337,1.689   l0.087,0.087l-0.341,0.168h-0.252c-0.097,0.104-0.21,0.188-0.339,0.253h-0.083l-0.085,0.086v0.085c-0.057,0-0.113,0-0.17,0v0.084   l-0.085,0.084v0.084h0.085l-0.254,0.084l0.085,0.171l-0.085,0.084c0.29,0.325,0.482,0.756,0.509,1.183l-0.085,0.168v0.168v-0.083   l-0.083,0.083v0.087h-0.172v0.085l0.085,0.084v0.084l0.087,0.084c-0.004,0.511,0.052,1.018,0.168,1.521   c-0.772,0.261-1.545,0.575-2.282,0.931h-0.338c0-0.141,0-0.282,0-0.423l-0.169-0.169h-0.085l-0.087-0.17   c-0.118-0.009-0.229,0.02-0.335,0.084c-0.057-0.056-0.113-0.112-0.169-0.169l-0.172,0.169l-0.166-0.084l-0.085,0.17h-0.171   l-0.168-0.086c-0.084,0-0.168,0-0.252,0l-0.085-0.169c-0.107,0.065-0.221,0.093-0.339,0.085l-0.085,0.17   c0.044,0.326-0.013,0.642-0.17,0.928h-0.084l-0.085,0.087l0.085,0.168l-0.085,0.169h0.085l0.084,0.255   c-0.082,0.065-0.138,0.149-0.169,0.252v0.169l0.169,0.255v0.252l0.17,0.084v0.087l0.085-0.087h0.083v0.171l0.256,0.084v0.084   l-0.087,0.168c0.084,0.066,0.141,0.151,0.172,0.255l0.335,0.169c0.031,0.104,0.088,0.189,0.172,0.255h0.084v-0.171   c0.104,0.028,0.188,0.086,0.251,0.171v0.084l0.085,0.168h-0.085v0.084l0.085,0.085h0.087v0.084h0.084v0.086h0.085   c0.019,0.148-0.011,0.288-0.085,0.421h-0.084v0.087l0.084,0.168l0.168,0.084h0.084v0.085l-0.084,0.17l0.084,0.085l-0.084,0.083   c0.172,0.114,0.335,0.224,0.508,0.337l0.085-0.084l0.253,0.255l0.085-0.084l0.169,0.084c0.056,0,0.112,0,0.168,0l-0.085,0.084   c0,0.085,0,0.168,0,0.253l-0.083,0.084h-0.085l0.085,0.171h-0.085v0.084h0.085v0.084l-0.085,0.084l0.085,0.084l-0.085,0.087v0.084   l-0.169,0.084v0.169l0.169,0.255h-0.084v0.083l0.169,0.085h-0.169V37l0.084,0.084L113.691,37c-0.009,0.119,0.019,0.231,0.083,0.339   l0.085,0.084v0.084l-0.085,0.084v0.085h0.169v0.17l0.087-0.086h0.083v0.086h-0.083c0.055,0.057,0.111,0.113,0.168,0.169v0.084   h0.084v-0.168h0.085v-0.085h0.17l0.083,0.085h0.085c0,0.084,0,0.168,0,0.252l0.084,0.084l0.085-0.084v0.084l0.083-0.168h0.085   l0.171,0.084c-0.085,0-0.171,0-0.256,0l0.172,0.084v0.087l0.252-0.087c0,0.058,0,0.113,0,0.171c-0.056,0-0.112,0-0.168,0   c0,0.056,0,0.112,0,0.168l0.083,0.085h0.085l0.084,0.168h0.085l0.17,0.087h0.085l0.083,0.084l-0.083,0.084v0.168l0.167,0.084   l0.085-0.084l0.083,0.084h0.172l0.084,0.087l0.083-0.087l0.168,0.171h0.256v0.168c0.056,0,0.112,0,0.168,0l0.169-0.084h0.087   l-0.087,0.253h0.17l0.169,0.084c0-0.057,0-0.112,0-0.169l0.168-0.168l-0.083-0.168c0.055,0,0.111,0,0.166,0v-0.171l0.087,0.084   l0.086-0.084h0.083c0.03,0.104,0.086,0.188,0.168,0.255c0.058,0,0.113,0,0.171,0l0.168-0.084c0.057,0,0.112,0,0.169,0l-0.084,0.168   l0.084,0.084h0.085l-0.085-0.084c0.056,0,0.112,0,0.168,0l0.087,0.084c0.17,0,0.338,0,0.507,0v-0.168l0.169-0.171   c0.196,0,0.394,0,0.59,0c0.386-0.216,0.731-0.503,1.017-0.844h0.083l0.085-0.168c0.085,0,0.17,0,0.254,0h-0.087l0.087,0.084   c-1.978,4.116-4.246,8.142-6.763,11.998v0.087l-0.083,0.168h-0.085c-0.505,0.701-0.952,1.429-1.352,2.197   c-0.197,0.1-0.371,0.245-0.507,0.423c0,0.112,0,0.225,0,0.337h-0.17l-0.085,0.171l-0.167,0.084   c-0.787,0.92-1.538,1.837-2.282,2.788h-0.17c-0.274,0.35-0.549,0.68-0.844,1.015c-0.142,0-0.283,0-0.424,0   c-0.364,0.147-0.68,0.376-0.931,0.676c-0.133,0.074-0.273,0.102-0.421,0.084l-0.17-0.084v0.084   c-0.335-0.075-0.673-0.132-1.015-0.168c0.138-0.273,0.249-0.555,0.339-0.847l-0.085-0.168l-0.676,0.168L106,57.79l-0.169,0.252   v0.084h-0.083c-0.158,0.234-0.328,0.461-0.507,0.679h-0.085l-0.339,0.252h-0.169c-0.131,0.136-0.237,0.27-0.338,0.423h-0.084   c-0.106,0.095-0.191,0.206-0.255,0.337v0.086c-0.148,0.037-0.288,0.093-0.42,0.169h0.083c-0.282,0.141-0.564,0.281-0.846,0.423   l-0.085,0.168c-0.19,0.04-0.359,0.124-0.508,0.253v0.087h-0.168l-0.17,0.084c-0.479,0.727-0.526,1.566-0.084,2.281l0.339-0.255   c0.081,0.067,0.137,0.152,0.169,0.255l-0.086,0.084h0.086c0,0.113,0,0.226,0,0.339c0.081,0.066,0.138,0.15,0.17,0.252l-0.087,0.085   l0.087,0.084l-0.17,0.255l-0.169-0.084v0.168c0.057,0,0.112,0,0.169,0l-0.086,0.084v0.084l-0.251,0.171   c-0.029,0.253-0.059,0.508-0.087,0.76l0.087,0.084h0.168c0,0.057,0,0.112,0,0.168l0.169,0.087l-0.086,0.084v0.253h0.169   l0.087-0.085c0,0.113,0,0.227,0,0.34c-0.068,0.173-0.182,0.314-0.339,0.423v-0.087l-0.085-0.168h-0.17l-0.169,0.168h-0.252   l0.084,0.087v0.168c-0.111,0.113-0.225,0.226-0.339,0.337c-0.182,0.739,0.004,1.446,0.507,2.029v0.083l0.169,0.085   c-0.086,1.559-0.348,3.188-0.759,4.733l0.083,0.252v-0.084l0.085,0.084c0,0.112,0,0.226,0,0.339l-0.085,0.084v0.085l-0.169,0.339   c-0.032,0.685-0.18,1.396-0.422,2.028c-0.23,1.051-0.343,2.118-0.337,3.212l0.169,0.337l0.168,0.084h0.084l0.087-0.169v0.169   h-0.087v0.255l-0.084,0.084h0.084v-0.084h0.087c0.203,2.084,0.342,4.146,0.42,6.253l-0.083,0.084l0.083,0.084   c0.08,0.71,0.226,1.43,0.424,2.112l0.083,0.086c0.018,1.023,0.13,2.041,0.339,3.042h0.085c0.119,0.217,0.176,0.442,0.169,0.676   c0.162,0.274,0.341,0.573,0.507,0.847v0.084l-0.085,0.084v0.085l0.168,0.083v0.085c-0.493,0.924-0.896,1.934-1.183,2.959   l-0.083,0.084c-0.035,0.261-0.009,0.518,0.083,0.76l-0.083,0.084l-0.085,0.255l-0.084,0.084l-0.085,0.253l-0.17,0.086l-0.252,0.336   v0.085h-0.085c-0.063,0.137-0.09,0.278-0.083,0.423l0.168-0.252l-0.168,0.424l0.083,0.336l0.085,0.084h0.083v0.084l-0.083,0.171   v0.336c-0.281,0.134-0.488,0.374-0.592,0.679v0.252l-0.084,0.085v0.083l0.084-0.083c0,0.085,0,0.169,0,0.254l-0.084,0.085v0.168   L100,103.677c-0.013,0.483-0.07,0.972-0.169,1.438l0.086,0.083l-0.169,0.169c0,0.197,0,0.394,0,0.591h-0.085   c-0.086,0.064-0.143,0.148-0.17,0.255v0.168l-0.084,0.085h-0.085c-0.109,0.48-0.11,0.947,0,1.438   c0.084,0.164,0.197,0.304,0.339,0.421l-0.17,0.086l-0.337,0.508v0.504l-0.256,0.424v0.507l0.085,0.084   c-0.084,0.064-0.14,0.149-0.168,0.255v0.337l-0.083,0.17l-0.169,0.085c-0.277,1.831-0.217,3.735,0.169,5.577l-0.086,0.085   c-0.009,0.228,0.02,0.453,0.086,0.675l0.59,0.846h0.085c-0.211,0.213-0.437,0.41-0.675,0.593l0.083,0.252l-0.252,0.17   c-0.278,0.327-0.576,0.683-0.848,1.015v0.168l0.085,0.085c-0.2,0.214-0.454,0.354-0.761,0.423h-0.17l-0.083-0.084   c-0.139,0.047-0.251,0.131-0.337,0.252c-1.079,0.386-1.847,1.23-2.197,2.365l-0.085-0.084c-0.085,0-0.17,0-0.255,0v-0.084h-0.084   l0.084,0.168l0.168-0.084L94,123.704l0.083,0.172l0.087-0.087c-0.408,0.52-0.747,1.084-1.014,1.692v0.168l-0.256,0.507   c0.007,0.146-0.021,0.286-0.083,0.424l0.083,0.084L92.732,127c0-0.084,0-0.168,0-0.252c-2.293-1.508-4.609-3.004-6.931-4.479   v-0.339c-0.189-0.076-0.362-0.193-0.504-0.339v-0.085l0.676-0.336l0.42-0.591v-0.085l-0.085-0.171l-0.167-0.083l-0.085,0.083   l0.085-0.168c-0.049-0.139-0.134-0.252-0.253-0.339l0.085-0.169l-0.085-0.168l0.085-0.17l-0.172-0.252c-0.085,0-0.168,0-0.252,0   l-0.084-0.169l-0.255,0.084l-0.085-0.084l-0.083-0.255h-0.086l-0.083-0.084v-0.253c-0.112-0.087-0.224-0.17-0.339-0.255   l0.084-0.168l-0.169-0.084c-0.028-0.105-0.084-0.19-0.168-0.256c0.018,0.148-0.012,0.29-0.086,0.424   c-0.067-0.151-0.152-0.292-0.253-0.424H83.86l-0.169,0.169l-0.087-0.169l-0.168-0.083c0-0.084,0-0.169,0-0.253h0.085l-0.085-0.171   l0.085-0.083h-0.254l-0.168,0.168l-0.254-0.168c-0.039-0.252-0.151-0.445-0.341-0.593l0.087-0.167v-0.255h-0.17v-0.168h-0.083   l-0.169-0.256c0-0.056,0-0.112,0-0.168l-0.424-0.084c-0.086-0.121-0.199-0.206-0.338-0.253l-0.254,0.085   c-0.095-0.108-0.207-0.193-0.339-0.256l0.339-0.168c0-0.113,0-0.226,0-0.339l-0.083-0.084l0.168-0.169l-0.168-0.084v-0.17h0.168   v-0.169h0.083l0.173-0.251l0.335-0.086l-0.252-0.17v-0.168l-0.083-0.085v-0.171h0.083l0.085-0.083l-0.085-0.253l0.168-0.168v-0.172   l-0.251-0.083l-0.087-0.424c0.204-0.233,0.29-0.529,0.255-0.844h-0.168c0-0.085,0-0.169,0-0.255l0.251-0.507   c-0.011-0.175,0.016-0.341,0.084-0.508h0.085c0.273-0.284,0.471-0.628,0.59-1.012v-0.254l0.173-0.086h0.251v0.086l0.085,0.083   c0.085,0,0.17,0,0.254,0l0.169,0.085h0.085l0.083-0.085c0.118,0.009,0.231-0.02,0.339-0.083l0.085-0.086l0.254,0.169v0.085h0.085   l0.168,0.17l0.084-0.084h0.085l0.17-0.171l0.083,0.171h0.169l0.085-0.171v-0.252l0.087-0.084v-0.084h0.168v-0.087l0.084-0.084   l-0.084-0.085v-0.167l-0.085-0.085v-0.17l-0.17-0.085l-0.168,0.085l-0.086-0.085h-0.338c-0.113-0.056-0.226-0.111-0.337-0.169   l0.168-0.083l0.169-0.424l0.172-0.083v-0.256l0.083-0.168c-0.056-0.057-0.113-0.113-0.17-0.169v-0.17   c0.143-0.303,0.253-0.608,0.339-0.928v-0.085l0.168-0.338h0.17l0.085-0.085l0.084,0.085V104.1l0.083-0.084h0.085l0.256,0.169h0.168   V104.1l0.083,0.085c0.135,0.073,0.275,0.102,0.424,0.084c0-0.084,0-0.169,0-0.253h-0.085v-0.255H86.48l-0.087-0.084h0.087v-0.168   h0.083c0.234-0.177,0.404-0.401,0.508-0.676h0.085c0.084-0.198,0.167-0.396,0.252-0.594l0.083,0.17l-0.083,0.169h0.083l0.087,0.168   l0.168-0.083l0.085-0.169v-0.168H88c0.065-0.106,0.094-0.22,0.085-0.339c0.076-0.285,0.219-0.549,0.422-0.761v-0.086l0.171-0.084   v-0.169l0.083-0.083h0.085v0.083h0.083l0.085,0.085h0.084l0.087-0.336c0.103-0.031,0.187-0.088,0.252-0.172h0.253l-0.085-0.252   c-0.083-0.065-0.14-0.15-0.168-0.256l0.253-0.336v-0.086l0.17-0.085v-0.083l0.169-0.085l0.083-0.339l-0.083-0.169h-0.083   l-0.086-0.168h0.086l0.083,0.085h0.083v-0.085l0.256-0.168v-0.171l-0.084-0.083v-0.169h-0.172v-0.171l-0.083-0.168l-0.169-0.085   v-0.168l-0.255-0.255h-0.168v-0.084l0.168-0.252h0.085h-0.085l-0.083-0.087c-0.142,0-0.283,0-0.424,0v0.171h-0.252v-0.171h-0.168   v0.087H88.59v-0.087h-0.083l-0.085-0.168h-0.083v0.084h-0.085v-0.084H88.17l0.084-0.084c-0.057,0-0.112,0-0.169,0L88,96.409h0.085   L88,96.326h-0.169v-0.085h0.084l-0.084-0.087v-0.083l-0.085-0.085l-0.083,0.085v-0.085h0.083v-0.168v0.084l0.085-0.255h-0.085   l-0.083,0.171h-0.085l-0.087-0.084l0.087-0.171v-0.085l-0.17,0.085v0.084c-0.057,0-0.112,0-0.169,0l-0.083-0.084l-0.169,0.084H86.9   v-0.169l-0.083,0.085c-0.057,0-0.112,0-0.169,0v0.084h-0.085v-0.084l-0.083,0.084l-0.087-0.084l0.17-0.085v-0.336H86.48   l-0.256-0.171l-0.083,0.085v-0.085h-0.085v-0.168h-0.083V94.72h-0.085v-0.171h-0.087v-0.084l-0.084-0.169h-0.085l-0.167,0.085   c-0.056,0-0.112,0-0.168,0l-0.087,0.084l-0.085-0.084l-0.169,0.084c-0.14,0-0.281,0-0.422,0l-0.085,0.084l-0.083-0.084h-0.085   l-0.086-0.084c-0.103,0.029-0.188,0.085-0.253,0.168l-0.083-0.084h-0.169l-0.087-0.084v0.084l-0.168-0.169v0.085l-0.084-0.085   l-0.085-0.339l-0.254-0.251h-0.085l-0.083-0.086c-0.062,0.132-0.146,0.244-0.254,0.337c-0.059-0.054-0.114-0.11-0.17-0.168   l-0.168,0.085l-0.084,0.17v0.169h-0.255l-0.169,0.083h-0.168l-0.083-0.167l0.083-0.172l-0.339-0.083v-0.085l-0.168-0.083   l0.083-0.086v-0.083l-0.083-0.087h-0.084l-0.172-0.252h-0.083l-0.085,0.168h-0.084l-0.168-0.336l-0.256-0.085v-0.086l-0.168-0.253   h-0.083v-0.083h-0.087l-0.169,0.083h-0.168l-0.084,0.168l0.084,0.171h-0.084l-0.085,0.085l-0.253,0.083l-0.169-0.083l-0.085-0.171   l0.085-0.169l-0.085-0.167l-0.339-0.173v-0.083h-0.168c0,0.113,0,0.226,0,0.339h-0.084l-0.087,0.168l-0.085-0.084l-0.083,0.084   c-0.193,0.073-0.388,0.101-0.591,0.085l-0.085-0.422c-0.169,0-0.338,0-0.507,0l-0.169-0.17v0.17   c-0.055,0.059-0.111,0.114-0.17,0.169v0.253h-0.085l-0.252,0.254h-0.339l-0.253,0.169l-0.254-0.084l-0.254,0.252   c-0.136,0.065-0.276,0.094-0.422,0.087l-0.085,0.252l-0.083,0.085c-0.206-0.13-0.443-0.219-0.68-0.254l-0.251-0.17h-0.252   c-0.133,0.078-0.273,0.134-0.424,0.17l-0.17-0.17h-0.086l-0.168,0.087c-0.113,0-0.226,0-0.339,0   c-0.034-1.075-0.148-2.155-0.337-3.212c-1.818-1.69-3.66-3.39-5.492-5.069h-0.084l-0.085,0.084   c-0.182,0.02-0.352,0.075-0.507,0.167h-0.171l-0.083,0.256c-0.104,0.029-0.188,0.086-0.253,0.168h-0.171l-0.083,0.084h-0.169v0.168   l-0.255,0.085L64,86.1h-0.168l-0.087-0.085c-0.382,0.051-0.756,0.165-1.098,0.339c-0.057,0-0.112,0-0.169,0V86.1h-0.085   l-0.083-0.253c-0.176-0.142-0.336-0.276-0.508-0.423v-0.168h-0.168l-0.087-0.172h-0.083v0.172l-0.169,0.084l-0.085-0.084   l-0.168,0.084l-0.171-0.084c-0.162,0.086-0.303,0.198-0.424,0.337l-0.166-0.169l-0.085,0.083l-0.084-0.167l-0.34-0.084   c-0.082-0.067-0.137-0.152-0.167-0.256h-0.085l-0.256,0.256c-0.062-0.132-0.146-0.244-0.251-0.339L58.759,85   c-0.167-0.153-0.363-0.236-0.591-0.252c0.069-0.163,0.098-0.333,0.084-0.507h-0.42c-0.113-0.229-0.282-0.397-0.508-0.507   c-0.085,0-0.17,0-0.255,0v-0.169c-0.106-0.066-0.219-0.096-0.337-0.087c-0.108-0.226-0.284-0.401-0.507-0.507   c-0.122,0.086-0.207,0.199-0.256,0.339c-0.117-0.142-0.258-0.255-0.422-0.339h0.087h-0.087l-0.085-0.168v0.083l-0.167-0.168   l-0.085,0.085c-0.065-0.085-0.15-0.141-0.255-0.169l0.087-0.084h-0.087v-0.084h-0.169h0.085l-0.168,0.084v-0.084   c-0.2-0.074-0.35-0.224-0.424-0.423l-0.422-0.085c-0.187-0.182-0.385-0.351-0.593-0.507v-0.084h-0.168l-0.083-0.171l-0.169-0.084   v-0.085h0.083l-0.083-0.083l-0.087,0.083h-0.083c-0.058-0.055-0.113-0.11-0.169-0.167v0.084h-0.085l-0.083-0.256v0.087   l-0.085-0.087h-0.085c0.009-0.118-0.021-0.23-0.086-0.337L52,80.27h-0.168l-0.256-0.171l-0.083,0.084l-0.254-0.084l-0.083,0.084   L50.9,80.015v-0.084h-0.083l-0.168,0.084h-0.087l-0.086-0.169l-0.083,0.169h-0.085l-0.083,0.084l-0.084-0.168   c-0.104-0.028-0.189-0.085-0.255-0.168v0.083h-0.085l-0.169-0.17H49.38l-0.337-0.169v0.085l-0.171-0.085h-0.085l-0.083,0.085   c-0.313-0.014-0.622,0.015-0.931,0.084v0.087l-0.084,0.083h-0.168l-0.085-0.083l-0.171,0.083h-0.085   c-0.082,0.085-0.166,0.17-0.252,0.253c-0.085,0-0.17,0-0.255,0c-0.209,0.092-0.406,0.204-0.591,0.34l-0.085-0.086l-0.083,0.086   h-0.083l-0.086,0.083v0.085h-0.17l-0.085,0.083l0.085,0.172l-0.085,0.084h-0.169l-0.083,0.083l0.169,0.169v0.085   c-0.085,0-0.168,0-0.252,0l-0.085,0.086H44.9v0.168l-0.085-0.084l-0.083,0.169h-0.085l-0.084-0.169v-0.17h0.084   c-0.137-0.154-0.306-0.267-0.507-0.337l-0.084-0.169h-0.17l-0.169,0.085h-0.085c-0.179-0.108-0.376-0.165-0.59-0.172   c-0.058-0.055-0.113-0.111-0.169-0.168c-0.057,0-0.113,0-0.17,0v-0.083h-0.169l-0.085,0.083h-0.17v-0.083l0.087-0.086V80.27   c-0.057-0.057-0.114-0.114-0.172-0.171H41.86l-0.085-0.084c-0.058,0-0.113,0-0.171,0l-0.085-0.084   c-0.313-0.032-0.629-0.089-0.929-0.168l-0.085-0.087h-0.084v-0.169h-0.085v0.085l-0.083-0.085l0.083-0.084h-0.083l0.083-0.084   h-0.083h0.168l-0.168-0.083l0.168-0.086V79h-0.085v-0.252l-0.083,0.084c0.043-0.656,0.247-1.297,0.59-1.858   c0.098-0.278,0.182-0.56,0.254-0.846l0.17-0.169v-0.084l0.252-0.339l-0.083-0.084h-0.169l-0.087-0.171l-0.083,0.086v-0.086h-0.085   l0.085-0.084h-0.085l-0.169-0.085l-0.083,0.169v-0.084l-0.083,0.084l-0.087-0.084h0.087v-0.085l-0.172,0.085l-0.084-0.085v0.085   l-0.085-0.085h-0.168v-0.167v0.083l-0.086-0.083h-0.085v0.083l-0.083-0.083v0.083l-0.085-0.083h-0.084v0.083l-0.085-0.083   l-0.083,0.083l-0.087-0.168h-0.083v0.168V74.86h-0.085l-0.084-0.171h-0.085l-0.083,0.087v-0.087L38.9,74.605h0.084   c-0.112,0-0.225,0-0.337,0v0.084h-0.169l-0.087,0.171l-0.083-0.084v0.084l-0.083-0.084h-0.085v-0.087l-0.084,0.087   c-0.057,0-0.115,0-0.172,0c0-0.058,0-0.113,0-0.171h-0.083v0.084h-0.085v-0.084l-0.084,0.084H37.55l-0.085-0.084v-0.168h-0.084   l-0.087,0.252l-0.168,0.087l-0.085-0.087h0.085v-0.168l-0.337-0.084v0.168h-0.087l-0.168-0.168h-0.252v-0.084h-0.087v-0.169   l-0.084-0.087c0,0.058,0,0.114,0,0.172h-0.253c0,0.057,0,0.111,0,0.168l-0.083-0.084l-0.087,0.084h0.087v0.084l-0.087-0.168   c-0.169,0-0.337,0-0.506,0l-0.085,0.084l-0.254-0.168l-0.251,0.084v0.084h-0.171l0.084,0.084h-0.084l-0.085,0.084h-0.083   l-0.085,0.084l-0.084-0.084v0.084l-0.087,0.087v-0.087c-0.056,0-0.112,0-0.168,0l-0.084,0.087l-0.255,0.084   c-0.136,0.129-0.268,0.235-0.42,0.337l-0.085-0.085v0.085h-0.087c-0.057,0.057-0.112,0.113-0.169,0.17h-0.083l-0.083-0.086   l-0.086,0.086v-0.086l-0.083,0.086c-0.113,0-0.228,0-0.341,0v0.169l-0.166-0.084v0.084h-0.087v0.084c-0.057,0-0.112,0-0.169,0   v0.084V75.62c-0.086,0.084-0.17,0.169-0.253,0.255c-0.058,0-0.113,0-0.171,0l-0.083,0.084h-0.085l-0.083,0.252l-0.086-0.083   l-0.083,0.083h0.083l-0.083,0.084l-0.087-0.084h-0.083l-0.085,0.171l0.085,0.085l-0.085,0.083l-0.084-0.083v0.168l-0.168-0.168   v0.083h-0.085v0.168H30.11v0.169c-0.056,0-0.111,0-0.167,0v-0.083l-0.085,0.17l-0.083-0.087v0.171l-0.173,0.084H29.52v0.084   l-0.083,0.085l-0.085-0.085v0.085c-0.086,0-0.171,0-0.256,0l-0.083,0.083h-0.085v0.085c-0.085,0-0.168,0-0.252,0l0.085,0.086   l-0.085,0.085l-0.256-0.085v0.085l0.173,0.084l-0.087,0.084H28.42l0.086,0.083l-0.086,0.086h0.086l0.087,0.087   c-0.086,0-0.171,0-0.256,0l-0.085,0.083c0,0.084,0,0.168,0,0.253l-0.083-0.085c0,0.057,0,0.112,0,0.169h0.083l0.085-0.084v0.171   c-0.084,0-0.167,0-0.252,0l-0.172,0.252v-0.084v0.084h-0.168l-0.084,0.084h-0.168V79h-0.087v0.083   c-0.106,0.067-0.219,0.097-0.337,0.087v0.086h-0.083l-0.084,0.083l-0.087-0.083l-0.168,0.167l0.083,0.084h-0.168   c0,0.057,0,0.112,0,0.169l-0.169-0.084v0.084l-0.507,0.17v0.169l-0.083,0.084v-0.084c-0.148,0.257-0.324,0.521-0.508,0.762   c-0.346,0.048-0.708-0.008-1.014-0.17l0.083-0.085l-0.168,0.085v0.083c-0.058,0-0.113,0-0.171,0v0.087l-0.251-0.087l-0.086,0.172   l-0.17,0.084v0.168l-0.168,0.169l-0.086-0.085c-0.082,0.065-0.137,0.151-0.166,0.255l-0.085-0.084l-0.087,0.168l-0.169,0.085v0.083   l0.085,0.085c-0.084,0-0.169,0-0.253,0v0.083h-0.084l-0.087-0.083l0.087,0.17l-0.087,0.169l-0.083-0.084l-0.085,0.168H22   c0,0.057,0,0.111,0,0.168h-0.087l-0.083-0.084v0.084l-0.085,0.087c0,0.056,0,0.112,0,0.168h-0.084   c-0.143,0.173-0.313,0.314-0.507,0.424h-0.085v-0.087h-0.083l-0.086,0.17l-0.17,0.085h0.087l-0.087,0.084v0.084h-0.085v-0.084   h-0.083l-0.252,0.168l-0.172-0.168l-0.167,0.084h-0.085l-0.169-0.168c-0.057,0-0.112,0-0.17,0l-0.085,0.084h-0.167v0.084   l-0.255,0.255v0.085l-0.085-0.085v0.168h-0.084v0.084h-0.085l-0.083,0.255c-0.064,0.085-0.149,0.142-0.256,0.168v-0.083   l-0.083-0.085L18.28,84.41v-0.086h-0.083l-0.085,0.169l0.085,0.084c-0.066,0.152-0.151,0.294-0.256,0.423v0.084   c-0.056,0-0.112,0-0.168,0v0.085c-0.084,0-0.168,0-0.252,0v0.087l-0.087-0.087c0,0.057,0,0.113,0,0.171h-0.083v0.084h-0.086v0.083   v-0.083l-0.083,0.083c-0.141,0-0.282,0-0.424,0l-0.168-0.083l-0.169,0.083l-0.17-0.083l-0.083,0.083h-0.086v0.086H16v0.17h-0.085   l-0.087,0.084H15.66v0.084h-0.084l-0.083,0.084L14.9,85.676l-0.423,0.087l-0.169,0.168v0.252h-0.17l0.087,0.085l-0.087,0.255   c-0.196,0-0.395,0-0.591,0c0,0.056,0,0.111,0,0.167l-0.085,0.086v0.17c-0.084,0.084-0.168,0.168-0.252,0.253l0.084,0.084   l-0.339,0.083l-0.084-0.167v-0.085l-0.085,0.085l-0.083-0.169v-0.254l-0.255-0.169v-0.168h0.255l0.083-0.085h0.169v-0.086h0.17   l0.169-0.085V86.1l0.085-0.085v-0.168l-0.085-0.084v-0.087l0.085-0.169l0.168-0.083v-0.168l0.171-0.087V85   c0.169-0.169,0.337-0.338,0.507-0.507c0-0.17,0-0.338,0-0.507l0.083-0.085c0-0.197,0-0.394,0-0.591l-0.254-0.084l-0.085-0.168   h-0.168l0.085-0.34l-0.256-0.252h-0.168c-0.009-0.12,0.02-0.232,0.085-0.339l-0.168-0.256h-0.085v-0.083   c0.111-0.057,0.224-0.113,0.336-0.168v-0.085c0.059-0.055,0.115-0.111,0.171-0.168c0-0.282,0-0.564,0-0.847h0.085   c0-0.113,0-0.226,0-0.339h-0.085c-0.085-0.083-0.17-0.167-0.254-0.252l0.083-0.085c0-0.057,0-0.113,0-0.17h0.171v-0.084v0.084   h0.085l0.168-0.084v-0.169l-0.085-0.084l0.169-0.169v-0.087l-0.252-0.251l0.168-0.084l0.084-0.255l-0.084-0.084H13.97h0.085v-0.085   L13.97,78.24h0.085l-0.085-0.167l0.169,0.083l0.087-0.083c-0.113-0.113-0.227-0.227-0.339-0.34l0.083-0.084h-0.083l0.083-0.085   c0-0.057,0-0.113,0-0.171c-0.084-0.084-0.167-0.167-0.251-0.252c0.029-0.104,0.086-0.188,0.168-0.255v-0.169l-0.085-0.083V76.55   h-0.083v-0.083l0.083-0.085l0.168,0.253l0.256,0.083l0.083-0.083h0.085l0.169-0.168h0.17l0.085-0.085v-0.254   c0.056-0.057,0.11-0.113,0.167-0.169v-0.084l0.085-0.171l-0.085-0.084h-0.167l-0.172-0.084c-0.029-0.104-0.085-0.188-0.168-0.255   l-0.084-0.505l-0.168-0.087H13.97l0.085-0.168l-0.085-0.084h-0.168l-0.083,0.084h-0.088v-0.084l-0.083-0.168H13.38l-0.254-0.172   l0.169-0.336l-0.169-0.171c-0.112,0.059-0.226,0.115-0.339,0.171h-0.083v-0.171h-0.255l0.087-0.252l-0.087-0.168l-0.169-0.087   l-0.252,0.087c-0.215-0.007-0.413-0.063-0.594-0.171c0-0.112,0-0.225,0-0.337h-0.169l-0.251-0.171h-0.256l-0.168-0.084l0.168-0.168   l0.084,0.084h0.087l0.168-0.252l-0.083-0.171c-0.058,0-0.115,0-0.172,0l0.255-0.168c0.041-0.172,0.125-0.313,0.252-0.424   l-0.169-0.168l0.085-0.253c-0.201-0.159-0.443-0.31-0.675-0.423c0.091-0.187,0.117-0.384,0.083-0.591l0.341-0.592   c0-0.058,0-0.114,0-0.171l-0.172-0.168h-0.252V68.86l0.083-0.169l-0.252-0.17l0.085-0.085l0.591-0.168l0.083-0.084l-0.166-0.339   l-0.256,0.084l-0.168-0.084v-0.084l0.339-0.255h0.085v-0.084c-0.114-0.085-0.227-0.168-0.341-0.253   c0.116-0.211,0.258-0.41,0.424-0.591h0.083l0.085-0.171c0.28-0.094,0.505-0.264,0.676-0.508c-0.113-0.111-0.226-0.223-0.337-0.336   l-0.339,0.084l-0.085-0.084l-0.083,0.084c-0.081-0.065-0.138-0.149-0.168-0.252l0.085-0.172l-0.085-0.168   c0.122-0.085,0.206-0.198,0.251-0.339V64.55h-0.083v-0.084l0.252-0.084v-0.085c-0.102-0.131-0.186-0.271-0.252-0.423l-0.168,0.084   c0-0.056,0-0.111,0-0.168l0.251-0.171l0.085-0.168c0.339-0.111,0.678-0.224,1.015-0.339c0.066-0.083,0.151-0.14,0.256-0.168   l0.168-0.337c0.204-0.101,0.4-0.214,0.591-0.339c0.063-0.137,0.092-0.278,0.085-0.424c-0.065-0.082-0.15-0.139-0.254-0.168   c-0.204,0.067-0.401,0.152-0.59,0.253h-0.171c-0.265,0.305-0.617,0.483-1.016,0.507l-0.169-0.084   c-0.149,0.207-0.346,0.348-0.59,0.423c-0.057,0-0.112,0-0.169,0c-0.073-0.134-0.101-0.274-0.083-0.423h-0.087l-0.254-0.168   l0.169-0.255c0-0.112,0-0.225,0-0.337H9.832v-0.084l0.083-0.087c0.073-0.133,0.101-0.272,0.083-0.42l0.169-0.087   c0-0.085,0-0.168,0-0.253h-0.083l-0.086-0.084l0.169-0.084l-0.083-0.171l0.168-0.084v-0.252l-0.085-0.085h-0.083   c-0.057-0.112-0.112-0.226-0.169-0.339c0.202-0.208,0.367-0.428,0.507-0.676c0-0.057,0-0.113,0-0.17l0.085-0.085v-0.168   l0.252-0.084l0.084-0.084c0.057,0,0.114,0,0.172,0l0.166,0.084h0.085l0.084-0.084h0.085c0.084-0.104,0.196-0.161,0.339-0.171   l0.083-0.084h0.172c0.086-0.121,0.198-0.205,0.337-0.252l0.171-0.34v-0.168c-0.113-0.056-0.227-0.111-0.339-0.168   c-0.233,0.19-0.486,0.274-0.763,0.252l-0.254,0.169c-0.223-0.061-0.447-0.089-0.674-0.085l-0.085,0.169l-0.255,0.086   c0.067-0.193,0.096-0.39,0.085-0.591c0.058-0.112,0.115-0.226,0.17-0.339l-0.17-0.253c0.164-0.084,0.305-0.197,0.422-0.339   c-0.053-0.136-0.137-0.249-0.252-0.339c0-0.112,0-0.225,0-0.337l0.085-0.086v-0.169l-0.085-0.168l0.169-0.084v-0.339   c-0.064-0.083-0.148-0.14-0.252-0.169V54.41h-0.087l0.17-0.255c0.139-0.048,0.251-0.132,0.337-0.253l-0.085-0.171   c-0.055,0-0.111,0-0.167,0v-0.084l-0.168-0.084l0.168-0.423l-0.085-0.169c0.058-0.055,0.113-0.111,0.169-0.168l0.083-0.255   l0.085-0.084c0.381-0.13,0.776-0.188,1.183-0.169l0.087-0.255l-0.087-0.168l0.087-0.168l-0.087-0.171   c-0.289,0.094-0.57,0.206-0.844,0.339l-0.339-0.084v-0.423l0.084-0.168v-0.085c-0.046-0.14-0.13-0.253-0.252-0.339   c-0.084,0-0.168,0-0.252,0l-0.087,0.084l-0.085-0.084V50.69l0.085-0.084v-0.171l0.087-0.084l-0.087-0.168l-0.254-0.168H9.915   l-0.17-0.084L9.66,49.761l-0.084,0.083l-0.085-0.083l0.085-0.085c0-0.056,0-0.111,0-0.168l0.339-0.084v-0.087   c-0.228-0.038-0.456-0.095-0.678-0.168c0.03-0.104,0.087-0.188,0.171-0.252l-0.171-0.256H9.152l0.171-0.084l0.085-0.252   l-0.085-0.087V48.07l-0.254-0.084l0.083-0.084c0-0.057,0-0.112,0-0.168l-0.083-0.087l0.168-0.085   c0.05-0.162,0.078-0.333,0.086-0.507l0.085-0.168L9.323,46.72l-0.171-0.085v-0.086L9.069,46.38l0.168-0.084l-0.085-0.084v-0.084   l-0.168-0.171v-0.168l0.168-0.084h0.085v-0.168c0.241-0.164,0.439-0.36,0.595-0.595c0.565-0.107,1.137-0.221,1.689-0.336   l0.252-0.255v-0.169l-0.084-0.168c-0.085,0-0.17,0-0.255,0l-0.169,0.168l-0.336,0.085c-0.188-0.106-0.385-0.191-0.591-0.253   l-0.341,0.168H9.832c-0.087-0.082-0.172-0.166-0.256-0.252l-0.168,0.084L9.237,43.76l0.086-0.168l-0.086-0.168l0.086-0.084   l0.168,0.084l0.085-0.084c0-0.058,0-0.114,0-0.172l0.169-0.083l0.087-0.169l-0.087-0.084v-0.084l0.17-0.087v-0.084   c-0.141-0.046-0.253-0.131-0.339-0.252l-0.253,0.084l-0.086-0.084c0.191-0.101,0.39-0.186,0.595-0.255l0.252-0.421l0.168-0.087   c0.019-0.147-0.011-0.288-0.085-0.42c-0.081-0.067-0.137-0.153-0.169-0.255v-0.169l0.169-0.084l0.172,0.084l0.168-0.084   c0.085,0,0.168,0,0.252,0c0.259,0.186,0.542,0.326,0.846,0.421l0.169-0.085l0.255,0.085c0.27-0.107,0.551-0.163,0.844-0.168   c0-0.085,0-0.169,0-0.253l-0.085-0.084c-0.119,0.009-0.231-0.02-0.338-0.087l-0.084-0.084l-0.168,0.084h-0.256l-0.085-0.168   c-0.103,0.03-0.187,0.086-0.252,0.168c-0.113-0.056-0.226-0.111-0.339-0.168l-0.085-0.168v-0.085l-0.166-0.17h-0.172l-0.169-0.085   c-0.233-0.027-0.478-0.12-0.676-0.252L9.576,39.62l-0.168-0.084c-0.113,0-0.226,0-0.339,0L8.901,39.62H8.815   c-0.082-0.066-0.139-0.151-0.17-0.255c-0.217-0.084-0.442-0.112-0.676-0.084l-0.083-0.168l-0.254-0.084   c-0.059-0.055-0.115-0.112-0.17-0.171c-0.101-0.242-0.128-0.501-0.083-0.76l-0.254-0.168c0-0.142,0-0.282,0-0.424l-0.17-0.084   c-0.119,0.01-0.231-0.019-0.337-0.084C6.432,37.127,6.342,36.858,6.363,36.576L6.363,36.576z"/></g><text x="0" y="143" fill="#000000" font-size="5px" font-weight="bold" font-family="'Helvetica Neue', Helvetica, Arial-Unicode, Arial, Sans-serif">Created by Rflor</text><text x="0" y="148" fill="#000000" font-size="5px" font-weight="bold" font-family="'Helvetica Neue', Helvetica, Arial-Unicode, Arial, Sans-serif">from the Noun Project</text></svg>