<?xml version="1.0" encoding="utf-8"?>
<!-- Generator: Adobe Illustrator 17.0.0, SVG Export Plug-In . SVG Version: 6.00 Build 0)  -->
<!DOCTYPE svg PUBLIC "-//W3C//DTD SVG 1.1//EN" "http://www.w3.org/Graphics/SVG/1.1/DTD/svg11.dtd">
<svg version="1.1" id="Layer_1" xmlns="http://www.w3.org/2000/svg" xmlns:xlink="http://www.w3.org/1999/xlink" x="0px" y="0px"
	 width="342.9899902px" height="342.9899902px" viewBox="0 0 342.9899902 342.9899902"
	 enable-background="new 0 0 342.9899902 342.9899902" xml:space="preserve">
<g>
	<g>
		<path d="M130.4606628,0.5482657c1.3387604,1.0289841,1.7381897,2.2125149,1.5339966,4.0183258
			c-0.1482849,1.3114567,0.4719849,3.2480516,1.4504547,4.0399852c2.2432709,1.8156557,1.7427063,3.3081341,0.5226593,5.3722296
			c-4.0327148,6.822629-3.3825531,12.8888807,1.5219269,18.6134491c2.0575409,2.4015961,4.4217834,2.9796715,7.3234863,2.2952271
			c2.8349152-0.6686935,5.6544647-1.4411469,8.5225372-1.9154358c1.574295-0.260334,3.325943-0.3281975,4.8385162,0.0911407
			c3.8274536,1.0611,6.8832703,0.0502701,9.2410126-2.9667358c1.4349518-1.8361797,3.065094-2.2708549,5.2683105-1.8579273
			c2.8619843,0.5363941,5.31427,1.4359932,7.8728333,3.1631145c4.3210754,2.9169121,9.5699921,2.49823,14.5229492,1.1392403
			c0.8976135-0.2462845,1.5176697-1.4971886,2.2703094-2.2800312c2.2302094-2.3196583,5.4781952-3.9231434,5.4870453-7.8117599
			c0.0003204-0.1385269,0.2005768-0.305582,0.3435516-0.4103813c1.74263-1.2773285,2.7287445-4.4972191,5.3107605-3.365984
			c1.2543335,0.5495472,1.7760162,3.2165699,2.2423401,5.0248089c0.9077301,3.5197964,1.3195343,7.1796627,2.3996582,10.6368923
			c0.4370575,1.3989334,1.921875,2.6636581,3.2299957,3.5430832c1.3127899,0.8825836,2.9992828,1.2092743,4.2234039,1.6677475
			c-1.1584778,2.5082741-2.0964203,4.9459991-3.396759,7.1720123c-0.5944366,1.0175972-1.8438568,1.7092171-2.8976898,2.3920174
			c-4.5612488,2.9552536-8.6641083,6.3637886-11.397522,11.1708031c-0.3897552,0.6853981-0.6660309,1.4353256-1.3048553,2.8344154
			c1.6852875-0.3306274,2.83461-0.373127,3.822113-0.7947006c1.328186-0.567028,2.6467438-1.2829552,3.7695465-2.1840363
			c6.6488647-5.335907,13.6398773-3.8499756,20.6583252-1.0733528c2.3385468,0.9251595,2.5027771,2.2060127,0.4779968,3.7574539
			c-3.4926758,2.6762123-7.1238708,5.1716881-10.9125671,7.8981743c0.4102325,0.586853,1.1155853,1.5959091,2.0193481,2.8887939
			c1.0041199-0.6744614,1.9937439-1.1412506,2.7309875-1.8651047c7.1446686-7.01474,15.3860016-6.9065247,23.8052216-3.2123642
			c4.9593658,2.1760635,9.5751495,5.1730347,14.1970978,8.0399704c0.7021484,0.4355392,0.9634705,2.2309723,0.791748,3.294548
			c-0.3892212,2.4103546-1.1756592,4.7565613-1.9788208,7.8053513c2.3606873-0.8268661,4.2653809-1.4896164,6.1670227-2.1609421
			c4.9176025-1.7360153,9.3724976-1.791832,13.778717,1.9035721c3.5697021,2.9938202,8.0930481,3.9462433,12.8843079,3.0477219
			c4.6248779-0.8673477,8.9621582-0.5363007,11.8802185,3.9238205c0.0990295,0.1513824,0.2067566,0.3518448,0.3560181,0.4077225
			c6.8204041,2.5525284,9.2210999,9.2400742,13.1756287,14.3858414c2.7857056,3.6248322,5.9680176,5.8798981,10.4176941,6.751976
			c6.8935852,1.3510208,9.0120544,3.8144989,9.913208,10.7073517c0.3777161,2.8890457,0.7111206,5.804985,1.3946228,8.6288376
			c1.7357788,7.171524-0.8435669,12.7807617-5.8177795,17.7476044c-2.2357788,2.2324677-4.3576965,4.6309052-6.2002563,7.1921692
			c-2.3180237,3.2222137-5.5664673,4.6676178-9.1953735,5.3552551c-3.0284424,0.5738983-5.0583191,2.1999207-5.9666138,4.9743958
			c-2.2275391,6.8043518-6.6757813,11.3356628-13.3595581,13.7533417c-2.5691528,0.9293213-3.4620667,3.0023041-3.8488159,5.4903259
			c-1.2591553,8.1004791-2.3794861,16.2290955-3.9240112,24.2756958c-0.710083,3.6995239-2.1784058,7.272995-3.5218201,10.8207092
			c-0.4610901,1.2177429-1.4024353,2.431076-2.4479675,3.2144928c-2.4508972,1.836441-3.392334,4.222702-3.1904602,7.1331024
			c0.1885071,2.7176971-0.7028503,4.8809814-2.5285645,6.9340363c-3.2973328,3.707901-5.7884521,8.1150055-10.4563904,10.5687103
			c-1.370636,0.7204895-2.1286621,2.646759-3.1103821,4.0600281c-4.6834106,6.742157-11.0292511,10.7337952-19.2664337,11.3046875
			c-1.7216949,0.1192932-3.5826721-0.5247803-5.2490692-1.1594543c-2.2490082-0.8565369-4.3751221-1.0250854-6.0915527,0.7590637
			c-3.3372803,3.4689331-7.791748,3.6142578-11.9947968,4.9665833c-5.6142578,1.806427-10.7730865,5.3381348-15.7229309,8.7209473
			c-1.594986,1.0900574-2.4703979,2.4675598-4.1796265,1.4347534c-3.9807129,6.6827698-3.9541779,14.2337341-5.0925293,21.5205688
			c-0.615448,3.9394836-2.4714508,7.0614624-5.2640533,9.9224243c-2.6922607,2.7581177-5.0287628,5.9102783-7.2210541,9.0960999
			c-2.0690155,3.0067139-2.240036,3.2015991-5.6322784,2.0048218c-0.5699921-0.2011108-1.6304321,0.0384216-2.038269,0.4735718
			c-4.14505,4.4229736-8.9352112,8.3514709-10.7261353,14.572937c-0.44664,1.5516663-1.3384094,3.8920593-3.8380432,1.6816101
			c-0.2281036-0.2017212-0.7449036-0.2923279-1.0295258-0.1818237c-3.3472443,1.2996826-5.1801453,0.1674194-6.208786-3.2625122
			c-0.3695526-1.2322998-1.9156799-2.1265869-2.9602814-3.1385803c-2.4807739-2.4033508-5.0887146-4.6861877-7.4386597-7.210083
			c-1.5520172-1.6669312-2.9399719-2.5947266-5.1594391-1.2234192c-1.0984039,0.6786499-2.4127808,0.4786682-2.2825623-1.104126
			c0.2617493-3.1811829-1.6121368-5.2903442-3.2657013-7.5650635c-2.2727509-3.1265564-2.2847748-3.5351868,0.30896-6.5268555
			c5.8905792-6.7942505,12.2267456-13.0242615,20.9292297-16.1968384c2.671936-0.9740601,4.1392517-2.8012695,4.1618652-5.7629089
			c0.0096436-1.2615051,0.3582916-2.5218811,0.5688171-3.7800903c0.5219421-3.1195068-0.1424255-5.8254395-2.8450012-7.7256165
			c-1.4877472-1.0460205-1.8222046-2.217804-1.2485657-3.9833069c0.7285004-2.2420654,1.212616-4.578064,1.6247101-6.9049377
			c0.5718384-3.2288818-1.0538635-4.8572388-4.3237762-4.5130005c-4.56633,0.4807129-5.0260468,0.025238-4.6979828-4.7099609
			c0.0816803-1.1789246,0.3592987-2.3631439,0.2919617-3.5302277c-0.2845306-4.9320374-3.6483917-8.3700867-8.6835327-8.9794159
			c-2.0765228-0.2512817-4.1562042-0.4780121-6.236496-0.6963806c-1.9374084-0.2033691-3.14505-1.3065186-3.0441284-3.2010956
			c0.3340302-6.2714386,0.5485535-12.5731506,1.3910217-18.7842865c0.4691772-3.4589844,2.029541-6.7836914,3.2123413-10.1285248
			c1.3721008-3.880188,0.18396-7.7719269-3.2553101-9.6871643c-2.3920746-1.3321075-3.117981-3.1495972-2.1956635-5.6840515
			c0.0935211-0.2570038,0.1779327-0.5172729,0.2675476-0.7756958c1.3418579-3.8694763,0.9749146-4.1669006-3.2212143-4.5419312
			c-2.7614288-0.2467957-5.626091-0.7493744-8.1620331-1.8117523c-5.1213226-2.1455688-5.4837112-4.6177216-3.881012-9.9251251
			c0.9166336-3.0355072,1.0589828-7.0528107-0.2187881-9.8076935c-1.4924088-3.2176361-5.4075165-4.7563782-9.1992111-4.7761841
			c-2.310173-0.012085-4.1289444-0.1242065-4.9910889-2.6526642c-0.2088776-0.6125946-0.9380569-1.4713287-1.453125-1.4891205
			c-4.2053375-0.1453094-6.502182-3.7534943-9.917244-5.2830811c-0.8991318-0.4027252-1.8249283-0.9020844-2.7767715-1.0058594
			c-6.8868484-0.7507782-12.4457016-7.4536743-11.7800674-14.3748322c0.2337646-2.4306335,0.550415-4.8563385,0.923378-7.2697449
			c0.4259109-2.756073-0.9635468-3.9581299-3.7040253-3.894455c-4.9210129,0.1143951-8.4992142,2.4556274-12.4894409,5.1453857
			c-3.5306473,2.3799591-7.661026,5.0584106-12.665863,4.6740723c-3.5294495-0.2710114-7.1051102,0.1087036-10.660141,0.1088409
			c-3.890274,0.0001221-5.4351349-1.6827393-5.2075882-5.6125488c0.1367683-2.3620758,0.3752499-4.7182617,0.5578461-7.0778656
			c0.0051575-0.0666122-0.1055698-0.1421967-0.413599-0.530159c-2.8092346,1.0794067-5.7562637,2.1587753-8.66012,3.343956
			c-2.4030323,0.9807587-4.2396183,1.2303925-5.3457623-1.9212494c-0.3851452-1.097374-2.2666149-1.6076126-3.3177528-2.5499191
			c-1.141737-1.0235291-2.4180431-2.0796967-3.1006842-3.3985443c-2.0984745-4.0541992-3.8796654-8.2712326-5.9055219-12.3649216
			c-1.279583-2.5856857-0.9453707-5.4621887,1.8970771-7.4921112c2.3276424-1.6622772,3.2155619-3.831871,3.8644037-6.2997818
			c1.4169931-5.3896484,3.8392124-9.8451462,9.180028-12.54216c1.6512508-0.833847,2.9685898-1.5841217,4.8263988-1.442421
			c0.9624996,0.0734177,1.9533215-0.376236,2.9427967-0.4757767c2.7510109-0.276741,5.5235958-0.7885895,8.2578564-0.6439667
			c2.3047104,0.1218872,3.3779488-0.5866318,3.8852234-2.7399979c1.103466-4.6842651,2.750988-9.2910233,3.3241653-14.0324554
			c0.409317-3.3859863,1.5892029-6.2541924,3.037735-9.169323c1.0808029-2.1750908,0.6034622-4.2571259-0.6039963-6.2218857
			c-1.1880455-1.9331818-2.5665474-3.7626839-3.6099663-5.7685127c-2.0073662-3.8588676-0.8766785-5.8644867,3.3830299-6.3338394
			c0.453022-0.0499153,0.9799957,0.0425491,1.3456192-0.1601715c0.7299881-0.4047394,1.8062515-0.8787155,1.9328003-1.4908638
			c0.137825-0.6667137-0.4900398-1.6662979-1.058342-2.2568398c-0.6061325-0.6298485-1.6721725-0.8168526-2.279068-1.4462967
			c-0.5612144-0.5820541-1.1839905-1.576767-1.0475616-2.2388954c0.1671448-0.8111687,1.0456886-2.0405769,1.7030182-2.097847
			c6.0404053-0.5262756,12.1010704-1.0702057,18.1519928-1.0300198c1.3280258,0.0088196,2.8239975,2.1806297,3.8994522,3.6138687
			c0.7839203,1.0447311,0.8635712,2.5882778,1.5041733,3.7762661c1.4081955,2.6114731,3.3336792,3.3765945,6.1666412,2.7718468
			c0.6977158-0.1489449,1.5420151-0.3035469,2.1522751-0.0517006c2.8293533,1.1676788,5.0111084-0.0292206,7.367218-1.4636574
			c4.3487396-2.647562,8.8573151-5.033741,13.3129578-7.5041847c3.1048431-1.7214966,3.2751541-3.9955521,0.1929474-5.9994564
			c-3.1639557-2.0570583-4.4686432-4.9549389-4.4741974-8.5392809c-0.0050964-3.2899017,1.8403549-4.4900856,4.7420654-3.0982285
			c1.716011,0.8231182,3.3784485,1.7924042,4.958786,2.8540297c1.5271454,1.0258894,2.7056808,0.9421768,3.6052399-0.6944027
			c1.1795197-2.145937,2.8990173-3.0138187,5.3816376-2.9072819c1.8922272,0.0812016,3.9356155,0.0159788,5.6774368-0.6229219
			c2.2132263-0.81181,4.3231049-2.0901213,6.2243423-3.5070338c1.4183044-1.0569978,2.4350586-2.6528139,3.6306381-4.0086856
			C129.3664093,0.5482657,129.9135284,0.5482657,130.4606628,0.5482657z"/>
	</g>
</g>
</svg>
