<svg xmlns="http://www.w3.org/2000/svg" xmlns:xlink="http://www.w3.org/1999/xlink" version="1.1" x="0px" y="0px" viewBox="0 0 128 160" style="enable-background:new 0 0 128 128;" xml:space="preserve"><g><path d="M1.152,78.069l-0.075-0.154l0.15-0.229L1,77.458V77.38l0.077-0.076c0.156-0.526,0.359-1.031,0.611-1.529l0.154-0.076   c0.171,0.056,0.35,0.082,0.534,0.076c0-0.128,0-0.255,0-0.383c-0.116-0.252-0.268-0.481-0.459-0.688v-0.152   c0.077-0.112,0.18-0.188,0.308-0.23c0.36,0.167,0.766,0.303,1.146,0.383l0.152-0.152v-0.075c-0.153-0.251-0.362-0.458-0.611-0.614   l0.075-0.152v-0.076l0.152-0.152c0.016-0.206,0.093-0.386,0.231-0.537v-0.228l0.077-0.152v-0.076   c0.115-0.21,0.268-0.39,0.459-0.537h0.228c0.132-0.134,0.233-0.286,0.307-0.457c0-0.077,0-0.153,0-0.23l0.077-0.152l0.611-0.154   l0.075-0.152l-0.075-0.228L5.204,70.5c0.332,0,0.663,0,0.995,0c0.118-0.151,0.271-0.253,0.459-0.307v-0.075h0.079   c0.118-0.274,0.271-0.53,0.456-0.766v-0.305l-0.076-0.077l0.076-0.229c-0.121-0.165-0.171-0.344-0.152-0.535   c0.152-0.076,0.306-0.152,0.458-0.229h0.077c0.256-0.271,0.418-0.624,0.459-0.994l0.075-0.078c0.121-0.066,0.249-0.092,0.383-0.076   c0.203-0.785,0.714-1.402,1.454-1.682c0.2,0.065,0.403,0.091,0.611,0.076l0.382-0.228l0.919,0.151   c0.278-0.235,0.479-0.514,0.611-0.841c0.178,0,0.356,0,0.534,0l0.077,0.152c0.251,0.068,0.506,0.095,0.765,0.078l0.228-0.155h0.077   c0.052,0.05,0.104,0.102,0.154,0.155h0.152l0.153,0.152c0.209,0.019,0.407,0.043,0.612,0.076c0.053-0.102,0.104-0.204,0.153-0.306   l0.152-0.077l0.152,0.077h0.079c0.177-0.104,0.354-0.205,0.534-0.305c0.076,0,0.153,0,0.229,0l0.229,0.153h0.077l0.075-0.153   l-0.231-0.231l0.079-0.075v-0.077c0.268-0.104,0.548-0.155,0.841-0.151l0.154,0.076l0.075-0.076h0.077v-0.076l0.076-0.076   l-0.076-0.307l0.076-0.076h0.077l0.154-0.076c0.096,0.059,0.197,0.084,0.305,0.076l0.075,0.076   c-0.03,0.236-0.005,0.468,0.077,0.688c0.363,0.218,0.592,0.524,0.69,0.917h0.075l0.152,0.075l0.231-0.075l0.075-0.076l0.077-0.23   c0.21-0.149,0.337-0.354,0.382-0.611c0.107-0.008,0.209,0.017,0.305,0.075l0.079-0.075l0.076-0.229   c0.051-0.05,0.102-0.101,0.152-0.152c0.108,0.008,0.209-0.018,0.306-0.078c0.079-0.372,0.289-0.661,0.611-0.84   c0-0.052,0-0.103,0-0.154l-0.229-0.153v-0.075l0.077-0.077l0.229,0.077l0.306-0.077c0.112-0.119,0.238-0.221,0.38-0.306h0.231   v0.076l-0.076,0.076v0.079h0.151l0.077,0.075h0.152v0.077l0.306-0.152l0.076-0.155v-0.152l0.231-0.152   c0.096,0.059,0.197,0.084,0.305,0.076l0.079-0.152h0.075v-0.23h0.077c0.171-0.112,0.312-0.228,0.459-0.382h0.228l0.077,0.154h0.306   l0.076,0.152l0.383,0.076l0.075,0.076l0.077,0.383h0.152l0.154-0.229L26.46,61.4l0.153,0.079l0.229-0.154l0.229,0.076l0.231-0.076   l0.151,0.076l0.152-0.076c0.153,0,0.306,0,0.459,0c0-0.051,0-0.102,0-0.152l0.077-0.076c0.177,0.055,0.355,0.081,0.538,0.076   l0.075-0.076h0.229l0.075,0.076v0.152l0.077,0.076h0.229l0.152,0.155l0.231-0.155h0.075l0.077,0.079l-0.077,0.152l0.077,0.076   l0.382-0.229l0.152,0.077l0.152-0.077c0.052,0,0.104,0,0.156,0v0.152c0.153,0,0.306,0,0.459,0l0.152-0.076l0.075,0.076   c0.051,0,0.102,0,0.152,0l0.075,0.152c0.077,0,0.154,0,0.231,0v-0.076l-0.153-0.076v-0.076c0.17-0.108,0.323-0.236,0.459-0.383   c0.051,0,0.102,0,0.152,0l0.077,0.152h0.306v0.154l0.076,0.077c0.24,0.006,0.458,0.03,0.688,0.076v0.152l0.152,0.152v0.154   c0.261,0.139,0.549,0.218,0.84,0.229c0.076-0.059,0.127-0.135,0.156-0.229h0.076c0.075,0.059,0.126,0.135,0.152,0.229   c0.102,0.052,0.204,0.103,0.306,0.153v0.078l0.077,0.077h0.075l0.228-0.155c0,0.127,0,0.254,0,0.382c0.051,0,0.104,0,0.155,0v0.231   l0.076,0.076c0.06-0.074,0.135-0.124,0.228-0.152h0.077l0.079-0.23l0.075-0.077l0.305,0.152l0.079-0.075l0.075,0.075h0.077   l0.075-0.075v-0.077l-0.075-0.075l0.075-0.077v-0.078l0.077-0.076c0.059,0.075,0.135,0.127,0.229,0.154h0.077v-0.078l-0.077-0.076   l0.077-0.153v-0.152c0.095-0.025,0.171-0.077,0.228-0.154l0.077,0.079h0.076l-0.076,0.075l0.076,0.077H37.7l0.075,0.075   c0.094-0.026,0.17-0.077,0.229-0.152h0.154v-0.075l-0.079-0.079c0.029-0.093,0.081-0.169,0.154-0.229h0.077l-0.077-0.152h0.305   v0.152c0.052,0,0.104,0,0.156,0l0.15-0.152v-0.077c0.051,0,0.102,0,0.152,0l0.156-0.383h0.076l0.077,0.076v0.076l0.151-0.076h0.077   v-0.076l0.154-0.155l-0.154-0.075c-0.027-0.094-0.078-0.17-0.152-0.229c0.059-0.076,0.134-0.127,0.228-0.155l-0.075-0.153   l0.154-0.075v0.075l0.077,0.077c0-0.076,0-0.152,0-0.229l0.152-0.152c0.05,0,0.101,0,0.151,0l-0.151-0.078h0.151   c0.076-0.058,0.128-0.135,0.155-0.229h0.076l0.152-0.152h0.077c0,0.127,0,0.254,0,0.381l0.075,0.078c0-0.052,0-0.103,0-0.155   l0.154-0.075v-0.153l0.152-0.076l0.077,0.076l0.075-0.076h0.079l-0.079-0.076l0.079-0.079v-0.075l0.152,0.075v-0.075h0.075   l0.152-0.152h0.077l0.077,0.075h0.077v-0.075l-0.077-0.077l0.077-0.154h0.152v0.079l0.076-0.079h0.155v-0.076H41.98l0.155-0.076   v-0.152l0.076,0.077l0.075-0.077h0.152v-0.076l0.152-0.079v-0.076h-0.075v-0.152l0.154,0.076c0.086-0.095,0.188-0.171,0.305-0.228   h0.076l0.156,0.075l-0.077-0.152c0.051,0,0.102,0,0.152,0l0.077-0.078v-0.152l-0.077-0.152h-0.075h0.075l-0.075-0.077l0.075-0.075   c-0.058-0.078-0.134-0.129-0.231-0.155v-0.076h-0.076c0-0.076,0-0.151,0-0.228h0.076v-0.156l-0.228-0.152v-0.152h-0.075v-0.078   l-0.077-0.077h0.077l-0.077-0.075l0.077-0.077h-0.077l0.077-0.075l-0.077-0.076h-0.079l-0.075-0.076h0.075l-0.075-0.079   l0.075-0.152l-0.075-0.076c0-0.051,0-0.102,0-0.152c-0.027-0.094-0.078-0.171-0.152-0.231c0.076-0.076,0.151-0.151,0.228-0.228   h0.079l-0.154-0.076h0.075l0.079-0.079l-0.079-0.076v-0.075l0.156-0.077v-0.075l0.075-0.077v-0.075l-0.075-0.079v-0.076   c0.133-0.101,0.237-0.229,0.303-0.383v-0.152l0.079-0.076h0.077v-0.076h0.152l0.15-0.152c0-0.052,0-0.103,0-0.154h-0.075   c0-0.076,0-0.152,0-0.229h0.152c0-0.128,0-0.255,0-0.383c-0.214-0.305-0.414-0.604-0.611-0.917l-0.152-0.077l-0.231,0.077   c-0.133-0.034-0.26-0.084-0.38-0.152h-0.154c-0.163,0.097-0.341,0.147-0.536,0.152l-0.075,0.075c-0.051,0-0.102,0-0.152,0   l-0.077-0.304l-0.154,0.229l-0.075-0.077H40.91c0-0.153,0-0.306,0-0.458c-0.074-0.059-0.125-0.135-0.152-0.228   c-0.097-0.061-0.198-0.087-0.306-0.079l0.077-0.152h0.154c0-0.076,0-0.151,0-0.228h-0.079v-0.077l-0.075-0.078h0.154v-0.077h-0.079   v-0.076l-0.075-0.076h0.075c0-0.051,0-0.102,0-0.152l0.079,0.077l0.075-0.077v-0.23l-0.075-0.076l0.228-0.152h-0.075v-0.154v0.079   l0.152,0.076v0.076h0.075v0.076l0.231-0.076l0.075,0.152l0.077-0.076l-0.077-0.076h0.152v0.076l0.077-0.076l-0.152-0.152h0.075   v-0.079h0.077l0.077-0.076l0.153,0.076v-0.076l-0.076-0.152l0.076-0.076v-0.075l-0.076-0.077h-0.077v-0.079l0.229-0.075v-0.076   l-0.077-0.076h0.152c0-0.051,0-0.102,0-0.152h0.155l0.076,0.076l0.075-0.076l-0.075-0.079h0.075l-0.075-0.153l0.075-0.075   c0.076,0,0.153,0,0.229,0c0-0.051,0-0.102,0-0.152l0.075-0.076v0.076h0.079v-0.076c-0.052-0.051-0.103-0.103-0.154-0.155   c0.077,0,0.154,0,0.231,0l-0.156-0.075l0.079-0.077l-0.079-0.076h0.231l0.076-0.076l-0.076-0.079l0.076-0.076v0.076l0.152-0.076   l0.079,0.155l0.077-0.079l-0.077-0.076l0.152-0.075l0.152,0.075l-0.075-0.152l0.075-0.075v-0.077h0.075l-0.075-0.075l0.075-0.155   l0.077,0.155v-0.231l0.079,0.076v-0.076l0.075,0.076h0.077v-0.229v0.077l0.076-0.077l0.075,0.077h0.077h-0.077v-0.077h0.077V46.57   l0.231,0.076l-0.077-0.076l0.077-0.079l0.075,0.079l0.077-0.079h-0.077v-0.076h0.077l0.075-0.076v0.076l0.076-0.076h-0.076v-0.228   h0.076v0.075l0.155,0.077l-0.077-0.077h0.077v-0.075l0.076-0.077v0.077v-0.077l0.077,0.077v-0.077h0.076l-0.076-0.078   c0.051,0,0.102,0,0.152,0l-0.077-0.076l0.152-0.076v-0.077l-0.152,0.077v-0.077h0.077v-0.075h-0.152l0.228-0.077l0.079-0.079   c-0.061-0.073-0.138-0.124-0.231-0.151v-0.076l-0.076,0.076l-0.077-0.076l0.077-0.076l-0.152-0.076l0.076-0.076l-0.076-0.079   l-0.077,0.079v-0.079l-0.079-0.077l0.231-0.076l-0.076-0.076h-0.077l-0.079-0.152h-0.076l-0.152,0.076l0.077-0.154h-0.077   l-0.075-0.077h0.075l0.077-0.075h-0.077v-0.077h-0.075l-0.077-0.151h0.152c0.008-0.107-0.017-0.21-0.075-0.307l0.152-0.152   l-0.229,0.076v-0.076l0.077-0.076l-0.152-0.079c0-0.127,0-0.253,0-0.38h-0.156v-0.155h0.077h-0.077l-0.075-0.076   c0.025-0.094,0.076-0.17,0.152-0.228l-0.077-0.077h0.077c0-0.077,0-0.153,0-0.23l-0.152-0.076c-0.051,0-0.102,0-0.153,0   l0.077-0.076V41.98l-0.077,0.079l-0.075-0.079l0.152-0.076l-0.077-0.076h-0.075h0.075l-0.075-0.152   c-0.052,0.05-0.104,0.101-0.156,0.152l-0.075-0.076v-0.151h-0.075c0-0.052,0-0.104,0-0.156l-0.077,0.079V41.37h-0.075l-0.077,0.075   V41.37l-0.079-0.152l-0.076,0.076l0.076-0.152l-0.076-0.077v0.077l-0.152,0.152l-0.075-0.076l0.075-0.076l-0.075-0.077h0.075   h-0.075v-0.079h-0.156v-0.075l-0.152,0.075v0.079h-0.075c0-0.077,0-0.153,0-0.23h-0.152v0.076l-0.076-0.076v-0.076   c-0.077,0-0.154,0-0.231,0l0.076-0.076h-0.076l0.076-0.076h-0.076l0.076-0.079l-0.076-0.075l-0.077,0.075l-0.076-0.075v0.075   l-0.077-0.075l0.077-0.077h-0.154v-0.152c-0.028-0.092-0.079-0.169-0.152-0.23c0-0.152,0-0.305,0-0.457   c0.073-0.062,0.124-0.139,0.152-0.231l0.154-0.076l0.076-0.231l-0.076-0.305c0.081-0.105,0.182-0.182,0.305-0.23   c0.117-0.17,0.219-0.349,0.307-0.535h0.075l0.077-0.228l0.075-0.077V37.47l0.079-0.076l-0.079-0.076l0.079-0.152l0.152-0.075   v-0.079h0.076l0.077-0.229l-0.077-0.23h0.077c-0.051-0.051-0.102-0.102-0.152-0.152h0.076l-0.076-0.152h-0.075l0.075-0.076v-0.076   l-0.075-0.079h-0.077l0.077-0.075l-0.077-0.077l0.077-0.075h-0.077v-0.077l-0.079-0.076l0.156-0.076v-0.079h0.075l-0.075-0.076   l0.075-0.075c0-0.076,0-0.152,0-0.229l0.076,0.076v-0.076h0.077v0.076l0.076-0.076v-0.079h0.079v-0.076l-0.079-0.076l0.079-0.077   c0-0.077,0-0.153,0-0.23H43.05l0.079-0.076H43.05l0.156-0.076V34.26v0.075V34.26c0.051,0,0.102,0,0.152,0v-0.077l0.075,0.077   v-0.077v0.077h0.231l0.075,0.075l0.153-0.075c0.077,0,0.154,0,0.231,0v-0.077c0.051-0.051,0.102-0.103,0.152-0.154v-0.076h0.075   v-0.076c0.051,0,0.102,0,0.152,0c0-0.051,0-0.102,0-0.153l0.076,0.077h0.079l0.077-0.077h-0.077h0.077l-0.077-0.075h0.077h-0.077   v-0.077h0.077h-0.077l0.077-0.154l0.076,0.075v-0.075h0.077v-0.076h0.076l0.077-0.076h-0.077h0.077l0.076,0.076l-0.076,0.151   l0.154-0.075c0.076,0.077,0.152,0.154,0.228,0.231l0.077-0.077l0.075,0.077c0.114-0.118,0.242-0.22,0.384-0.307   c0.907-0.199,1.859-0.411,2.752-0.611v-0.076l0.077-0.076v-0.155l-0.231-0.382l0.079-0.076l-0.079-0.076l0.154-0.305   c-0.131-0.189-0.183-0.393-0.154-0.614c-0.185-0.137-0.312-0.315-0.38-0.535l0.075-0.383l-0.075-0.152l0.075-0.152v-0.076   l-0.306-0.075v-0.079h-0.075l-0.153-0.152c-0.21-0.042-0.389-0.145-0.536-0.307c0.039-0.496,0.088-0.96,0.152-1.451   c0.162-0.318,0.424-0.531,0.764-0.614l0.154-0.152v-0.075l-0.231-0.077l0.156-0.154h0.152l0.075-0.305l-0.383-0.458h-0.228v-0.535   c-0.051,0-0.102,0-0.152,0c-0.078,0.075-0.155,0.152-0.231,0.229l-0.151-0.305l0.075-0.075l-0.075-0.231   c0.209-0.35,0.417-0.714,0.611-1.07l-0.153-0.076v-0.155c-0.127-0.042-0.23-0.117-0.308-0.228v-0.152   c0.191-0.201,0.421-0.354,0.688-0.459l0.079-0.155c0.934,0.144,1.811,0.479,2.599,0.994c0.096-0.059,0.197-0.084,0.305-0.076   l0.154-0.076l0.152,0.076c0.077-0.075,0.153-0.151,0.228-0.229h0.079l0.152-0.151h0.077l0.151,0.076l0.079-0.076l-0.079-0.307   l-0.076-0.076v-0.077l-0.152-0.078l0.077-0.229l0.075-0.075c0-0.051,0-0.102,0-0.152c-0.093-0.028-0.168-0.08-0.228-0.155v-0.153   l-0.077-0.151c0.055-0.322,0.156-0.625,0.305-0.918l-0.152-0.23c-0.107,0.008-0.209-0.018-0.306-0.077c0-0.051,0-0.101,0-0.151   l-0.077-0.152v-0.155l0.231-0.153v-0.228c0.107,0.008,0.209-0.018,0.305-0.079c0.051-0.052,0.103-0.103,0.154-0.152l-0.079-0.152   l0.079-0.154l0.152,0.079l0.228-0.079c-0.008,0.108,0.018,0.21,0.079,0.307h0.229l0.152,0.231c0.252,0.085,0.457,0.238,0.611,0.457   h0.077l0.077,0.078c0.107-0.008,0.209,0.017,0.305,0.076v0.152h0.154c0,0.127,0,0.255,0,0.382l0.075,0.076h0.152l-0.075,0.228   L54.29,21.11v0.076l-0.075,0.152h0.075l0.077,0.076h0.152v0.152l0.079,0.079h0.303l0.152-0.079h0.156l0.075,0.23h0.152v-0.076   h0.075l0.308,0.153l0.228-0.228l-0.077-0.231h0.077v0.075l0.154,0.156h0.077l0.075-0.079h0.152l0.079,0.154   c0.076,0,0.152,0,0.228,0l0.077-0.075l0.076-0.307l0.154,0.076c0.093-0.118,0.17-0.246,0.229-0.383h0.075v0.079h0.152l0.231,0.229   l-0.077,0.307h0.152l0.077,0.151l0.229,0.077c0,0.178,0,0.356,0,0.535l-0.075,0.076c0,0.153,0,0.306,0,0.459   c-0.153,0.153-0.306,0.306-0.459,0.458v0.152l-0.154,0.079v0.152l-0.152,0.076l-0.077,0.152v0.079l0.077,0.076v0.151l-0.077,0.077   v0.075l-0.152,0.077h-0.154v0.078h-0.152l-0.076,0.076h-0.231v0.152l0.231,0.152v0.23l0.076,0.152l0.077-0.076v0.076l0.076,0.152   l0.306-0.076l-0.075-0.076c0.076-0.076,0.151-0.152,0.228-0.229v-0.154l0.077-0.077c0-0.051,0-0.101,0-0.151   c0.178,0,0.356,0,0.534,0l0.079-0.23l-0.079-0.077h0.154v-0.228l0.152-0.152l0.384-0.079l0.536,0.306l0.075-0.075h0.076v-0.076   h0.152l0.079-0.076h0.077v-0.154h0.075v-0.077h0.077l0.075-0.076l0.154,0.076l0.152-0.076l0.153,0.076c0.127,0,0.255,0,0.383,0   l0.075-0.076v0.076v-0.076h0.077v-0.076h0.075c0-0.051,0-0.103,0-0.155l0.079,0.079v-0.079c0.076,0,0.152,0,0.228,0v-0.076   c0.051,0,0.102,0,0.152,0v-0.076c0.094-0.117,0.171-0.245,0.231-0.382l-0.077-0.076l0.077-0.152h0.075v0.077l0.077-0.229   l0.075,0.077v0.076c0.096-0.025,0.173-0.076,0.231-0.152l0.076-0.23h0.077v-0.076h0.076V22.18l0.077,0.077V22.18l0.231-0.23v-0.076   h0.15l0.077-0.077c0.052,0,0.103,0,0.154,0l0.152,0.153h0.077l0.151-0.076l0.156,0.152l0.228-0.152h0.076v0.076h0.077v-0.076   l0.079-0.077h-0.079l0.154-0.076l0.077-0.154h0.076v0.079h0.077c0.176-0.099,0.329-0.227,0.458-0.383h0.075   c0-0.051,0-0.102,0-0.152l0.077-0.079v-0.076l0.076,0.076h0.078c0-0.051,0-0.101,0-0.152h0.229l0.076-0.152l0.076,0.076   l0.078-0.152l-0.078-0.154l0.078,0.075h0.075v-0.075c0.076,0,0.153,0,0.229,0l-0.077-0.077v-0.075l0.152-0.076l0.079-0.152   l0.077,0.076c0.026-0.094,0.076-0.171,0.15-0.231l0.077,0.077l0.152-0.152v-0.152l0.154-0.076l0.077-0.155l0.228,0.079v-0.079   c0.052,0,0.103,0,0.153,0v-0.075l0.152-0.077l-0.075,0.077c0.277,0.146,0.604,0.196,0.918,0.154   c0.165-0.219,0.324-0.457,0.459-0.69v0.076l0.075-0.076v-0.152l0.459-0.154v-0.076l0.152,0.076c0-0.051,0-0.102,0-0.152h0.152   l-0.075-0.076l0.152-0.152l0.078,0.076l0.075-0.076h0.075v-0.077c0.107,0.008,0.209-0.018,0.306-0.079v-0.076h0.078v-0.076h0.152   l0.075-0.076h0.152v-0.075v0.075l0.156-0.228c0.076,0,0.151,0,0.228,0v-0.155l-0.077,0.076h-0.075c0-0.051,0-0.102,0-0.152   l0.075,0.076c0-0.076,0-0.152,0-0.229l0.077-0.075c0.077,0,0.154,0,0.23,0l-0.078-0.079h-0.077l0.077-0.077l-0.077-0.075h0.077   l0.078-0.076l-0.155-0.076v-0.076l0.231,0.076l0.076-0.076l-0.076-0.078c0.076,0,0.151,0,0.228,0v-0.077h0.077l0.075-0.076   c0.077,0,0.154,0,0.23,0v-0.077l0.077,0.077l0.075-0.077v-0.076h0.076l0.155-0.076v-0.155l0.075,0.079l0.077-0.154v0.075   c0.05,0,0.101,0,0.15,0v-0.152h0.079v-0.152h0.077v-0.075l0.152,0.152v-0.152l0.075,0.075l0.077-0.075l-0.077-0.076l0.077-0.155   h0.075l0.079,0.076l0.075-0.076H73.1l0.075-0.076l0.077,0.076l0.075-0.228h0.077l0.075-0.076c0.052,0,0.103,0,0.154,0   c0.075-0.078,0.151-0.155,0.229-0.231v0.076v-0.076c0.051,0,0.103,0,0.153,0v-0.076h0.078v-0.075l0.15,0.075v-0.152   c0.103,0,0.206,0,0.309,0l0.075-0.078v0.078l0.077-0.078l0.075,0.078h0.075c0.051-0.052,0.102-0.103,0.152-0.154h0.079v-0.076   l0.077,0.076c0.138-0.091,0.257-0.188,0.38-0.305l0.23-0.075l0.076-0.079c0.051,0,0.102,0,0.152,0v0.079l0.078-0.079v-0.076   l0.075,0.076l0.077-0.076h0.075l0.077-0.076h0.075l-0.075-0.076h0.154V13.77l0.228-0.076l0.229,0.152l0.077-0.076   c0.152,0,0.305,0,0.457,0l0.079,0.152v-0.076h-0.079l0.079-0.076l0.075,0.076c0-0.051,0-0.101,0-0.152h0.229   c0-0.052,0-0.103,0-0.155l0.075,0.079v0.152h0.078v0.076h0.229l0.152,0.152h0.078v-0.152l0.305,0.076v0.152h-0.077l0.077,0.079   l0.152-0.079l0.079-0.229h0.075v0.152l0.077,0.076h0.075l0.075-0.076v0.076h0.077v-0.076h0.075c0,0.052,0,0.103,0,0.155   c0.052,0,0.104,0,0.156,0l0.075-0.079v0.079h0.077l0.075,0.075v-0.075l0.075,0.075l0.079-0.154h0.152v-0.076   c0.102,0,0.203,0,0.305,0h-0.076l0.154,0.076v0.079l0.075-0.079h0.077l0.075,0.154h0.077v0.152v-0.152h0.075l0.079,0.152   l0.075-0.075l0.077,0.075v-0.075h0.075l0.077,0.075v-0.075l0.075,0.075v-0.075h0.077l0.077,0.075v-0.075v0.151h0.152l0.077,0.076   v-0.076l0.075,0.076l0.155-0.076v0.076h-0.078l0.078,0.077l0.076-0.077v0.077l0.075-0.153l0.152,0.076h0.077l-0.077,0.077h0.077   v0.078l0.075-0.078l0.078,0.155h0.152l0.076,0.075l-0.229,0.307v0.076l-0.153,0.152c-0.065,0.259-0.143,0.514-0.229,0.765   c-0.311,0.508-0.495,1.088-0.534,1.681l0.075-0.075v0.228h0.077v0.154l-0.152,0.077l0.152,0.076h-0.152h0.075l-0.075,0.076h0.075   l-0.075,0.076l0.075,0.076v-0.076h0.077v0.152h0.075l0.077,0.079c0.271,0.071,0.557,0.123,0.841,0.152l0.076,0.075   c0.052,0,0.103,0,0.154,0l0.077,0.076h0.303c0.053,0.052,0.104,0.104,0.156,0.155v0.076l-0.079,0.077v0.075h0.154l0.077-0.075   h0.152v0.075c0.052,0,0.103,0,0.154,0c0.05,0.052,0.101,0.103,0.152,0.152c0.193,0.006,0.371,0.057,0.534,0.155h0.076l0.152-0.076   h0.154l0.075,0.152c0.183,0.064,0.335,0.166,0.459,0.305h-0.075v0.154l0.075,0.152h0.077l0.075-0.152l0.077,0.076v-0.152h0.154   l0.077-0.078c0.076,0,0.151,0,0.228,0v-0.077l-0.152-0.153l0.075-0.075H86.4l0.077-0.076L86.4,19.502l0.077-0.075h0.154V19.35   l0.076-0.075h0.076l0.075-0.077l0.077,0.077c0.166-0.122,0.345-0.225,0.534-0.308c0.076,0,0.153,0,0.23,0   c0.077-0.075,0.153-0.151,0.228-0.229h0.077l0.154-0.075l0.077,0.075h0.152l0.075-0.075v-0.079   c0.279-0.063,0.559-0.088,0.842-0.076l0.076-0.076h0.076l0.154,0.076v-0.076l0.305,0.152h0.229l0.152,0.154h0.077v-0.075   c0.059,0.075,0.136,0.126,0.231,0.152l0.075,0.151l0.075-0.076h0.077l0.075-0.152l0.077,0.152h0.078l0.152-0.075h0.076v0.075   l0.23,0.152l0.075-0.076l0.229,0.076l0.075-0.076l0.231,0.155h0.152l0.075,0.076c0.06,0.096,0.085,0.197,0.077,0.305h0.077   l0.077,0.079v-0.079l0.075,0.231h0.077v-0.076c0.05,0.052,0.101,0.102,0.152,0.151h0.075l0.078-0.075l0.076,0.075h-0.076v0.077   l0.153,0.076l0.075,0.155h0.152v0.076c0.188,0.141,0.367,0.294,0.535,0.458l0.382,0.076c0.067,0.18,0.202,0.315,0.384,0.383v0.076   l0.152-0.076h-0.077h0.152v0.076h0.079l-0.079,0.076c0.095,0.025,0.172,0.076,0.231,0.152l0.077-0.076l0.15,0.151v-0.075   l0.077,0.152h0.078h-0.078c0.148,0.076,0.275,0.179,0.382,0.307c0.044-0.126,0.121-0.229,0.23-0.307   c0.202,0.095,0.36,0.254,0.459,0.459c0.107-0.008,0.209,0.018,0.305,0.079v0.152c0.077,0,0.154,0,0.231,0   c0.204,0.099,0.356,0.252,0.458,0.458h0.381c0.012,0.157-0.014,0.311-0.075,0.459c0.205,0.014,0.383,0.089,0.533,0.228l0.231-0.075   c0.096,0.086,0.172,0.188,0.228,0.306l0.231-0.231h0.077c0.026,0.094,0.077,0.17,0.15,0.231l0.308,0.076l0.076,0.152l0.076-0.076   l0.151,0.153c0.108-0.125,0.236-0.227,0.383-0.305l0.154,0.076l0.152-0.076l0.077,0.076l0.152-0.076v-0.155h0.075l0.079,0.155   h0.152v0.152c0.154,0.133,0.3,0.254,0.459,0.383l0.075,0.229h0.077v0.23c0.051,0,0.102,0,0.152,0   c0.31-0.158,0.647-0.262,0.992-0.308l0.079,0.077h0.152l0.305,0.152l0.231-0.077v-0.152h0.152l0.075-0.075h0.154   c0.06-0.075,0.136-0.125,0.229-0.152l0.076-0.231h0.153c0.142-0.083,0.295-0.134,0.459-0.152l0.077-0.076h0.075   c1.658,1.52,3.324,3.058,4.97,4.587c0.17,0.956,0.273,1.934,0.305,2.906c0.103,0,0.204,0,0.307,0l0.152-0.079h0.077l0.153,0.154   c0.137-0.033,0.264-0.083,0.384-0.154h0.228l0.228,0.154c0.214,0.031,0.429,0.112,0.615,0.229l0.075-0.077l0.077-0.228   c0.131,0.006,0.259-0.02,0.381-0.079l0.229-0.228l0.229,0.075l0.229-0.152h0.307l0.228-0.23h0.077v-0.229   c0.054-0.049,0.104-0.1,0.154-0.152v-0.154l0.152,0.154c0.153,0,0.306,0,0.459,0l0.076,0.381c0.184,0.015,0.36-0.01,0.534-0.076   l0.076-0.076l0.076,0.076l0.079-0.152h0.075c0-0.103,0-0.204,0-0.307h0.152v0.076l0.307,0.155l0.077,0.152l-0.077,0.152   l0.077,0.155l0.152,0.075l0.229-0.075l0.076-0.077h0.076l-0.076-0.154l0.076-0.152h0.152l0.152-0.076h0.078v0.076h0.075   l0.153,0.229v0.078l0.23,0.077l0.152,0.304h0.075l0.077-0.151h0.075l0.156,0.228h0.075l0.075,0.079v0.075l-0.075,0.077l0.152,0.075   v0.077l0.307,0.075l-0.076,0.155l0.076,0.151h0.152l0.152-0.075h0.23v-0.152l0.075-0.154l0.153-0.077   c0.05,0.052,0.101,0.103,0.153,0.152c0.097-0.084,0.174-0.186,0.229-0.305l0.075,0.077h0.077l0.229,0.228l0.077,0.306l0.075,0.077   v-0.077l0.152,0.153v-0.076l0.079,0.076h0.152l0.075,0.076c0.059-0.075,0.136-0.125,0.229-0.152l0.077,0.076h0.076l0.076,0.076   l0.077-0.076c0.127,0,0.254,0,0.381,0l0.152-0.076l0.077,0.076l0.079-0.076c0.051,0,0.102,0,0.152,0l0.15-0.077h0.077l0.075,0.153   v0.076h0.079v0.155h0.077v0.076h0.075v0.151h0.077V32.5l0.075-0.077l0.23,0.155h0.076v0.304l-0.154,0.077l0.078,0.076l0.076-0.076   v0.076h0.076v-0.076c0.052,0,0.103,0,0.153,0l0.075-0.077v0.152h0.078l0.152-0.076l0.075,0.076c0.051,0,0.102,0,0.152,0v-0.076   l0.154-0.077v0.077l-0.078,0.154l0.078,0.076h0.077l0.075-0.155h0.077l-0.077,0.231v-0.076v0.152h-0.075v0.076l0.075-0.076   l0.077,0.076v0.075l0.075,0.079h-0.075v0.077h0.152l0.077,0.075h-0.077l0.077,0.077c0.051,0,0.102,0,0.152,0l-0.075,0.076h0.075   v0.076h0.077v-0.076h0.075l0.077,0.152h0.075v0.079h0.079v-0.079h0.152v0.154h0.228v-0.154c0.128,0,0.256,0,0.383,0l0.076,0.079   h0.077h-0.077l-0.152,0.228v0.076h0.152l0.23,0.23v0.152l0.152,0.077l0.075,0.152v0.155h0.156v0.152L127,35.405v0.155l-0.231,0.152   v0.077h-0.075l-0.075-0.077h-0.077l0.077,0.152h0.075l0.075,0.152l-0.075,0.306l-0.152,0.077v0.075l-0.153,0.077v0.078   l-0.229,0.304c0.025,0.095,0.076,0.172,0.152,0.231l0.077,0.229h-0.229c-0.06,0.076-0.135,0.127-0.229,0.155l-0.078,0.304h-0.075   l-0.077-0.076h-0.075v-0.076h-0.077l-0.075,0.076v0.152l-0.154,0.076v0.078c-0.184,0.192-0.313,0.43-0.382,0.688   c0.008,0.107-0.018,0.209-0.077,0.306h-0.152v0.152l-0.077,0.152l-0.152,0.076l-0.078-0.152h-0.076l0.076-0.152l-0.076-0.154   c-0.076,0.18-0.151,0.358-0.228,0.538h-0.077c-0.093,0.248-0.247,0.451-0.458,0.611h-0.076v0.152h-0.078l0.078,0.076h0.076v0.231   h0.076c0,0.076,0,0.152,0,0.229c-0.134,0.016-0.262-0.01-0.383-0.076l-0.075-0.076v0.076h-0.152l-0.231-0.152h-0.077l-0.075,0.076   v0.076l-0.075-0.076l-0.077,0.076h-0.154l-0.152,0.306v0.077c-0.077,0.289-0.177,0.565-0.306,0.839v0.154   c0.051,0.05,0.103,0.101,0.153,0.152l-0.075,0.152v0.231l-0.155,0.075l-0.152,0.384l-0.152,0.075   c0.101,0.052,0.202,0.103,0.305,0.152h0.306l0.077,0.077l0.152-0.077l0.154,0.077v0.154l0.077,0.076v0.152l0.075,0.077   l-0.075,0.076v0.079h-0.152v0.076l-0.079,0.076v0.228l-0.077,0.155h-0.152l-0.075-0.155l-0.153,0.155H121.8l-0.075,0.076   l-0.153-0.154h-0.076v-0.077l-0.229-0.152l-0.077,0.077c-0.097,0.058-0.199,0.083-0.307,0.075l-0.075,0.077h-0.077l-0.152-0.077   c-0.076,0-0.153,0-0.229,0l-0.077-0.075v-0.077h-0.228l-0.155,0.077v0.23c-0.108,0.348-0.287,0.658-0.534,0.915h-0.077   c-0.062,0.151-0.085,0.302-0.075,0.46l-0.229,0.458c0,0.077,0,0.153,0,0.23h0.153c0.031,0.284-0.046,0.552-0.231,0.763l0.078,0.384   l0.229,0.075v0.155l-0.152,0.152l0.077,0.229l-0.077,0.076h-0.076v0.155l0.076,0.076v0.152l0.228,0.154l-0.304,0.077l-0.155,0.228   h-0.075v0.152h-0.152v0.154l0.152,0.076l-0.152,0.152l0.075,0.076c0,0.103,0,0.204,0,0.306l-0.307,0.152   c0.119,0.057,0.222,0.134,0.307,0.231l0.229-0.077c0.126,0.042,0.229,0.12,0.307,0.229l0.383,0.075c0,0.051,0,0.102,0,0.152   l0.152,0.231h0.076v0.152h0.153v0.23l-0.078,0.151c0.171,0.134,0.272,0.308,0.308,0.536l0.229,0.153l0.152-0.153h0.229   l-0.077,0.076l0.077,0.155h-0.077c0,0.076,0,0.152,0,0.229l0.152,0.075l0.079,0.152l0.152-0.152h0.075   c0.091,0.119,0.168,0.247,0.229,0.384c0.067-0.122,0.093-0.249,0.077-0.384c0.076,0.059,0.127,0.136,0.152,0.231l0.152,0.076   l-0.075,0.152c0.104,0.076,0.204,0.151,0.306,0.23v0.229l0.075,0.076h0.077l0.075,0.231l0.077,0.076l0.231-0.076l0.075,0.152   c0.076,0,0.151,0,0.228,0l0.156,0.228l-0.077,0.154l0.077,0.152l-0.077,0.152c0.108,0.079,0.185,0.181,0.229,0.307l-0.077,0.152   l0.077-0.075l0.15,0.075l0.077,0.155v0.076l-0.38,0.535l-0.611,0.304v0.077c0.128,0.132,0.284,0.237,0.455,0.306v0.307   c-0.151-0.077-0.303-0.154-0.455-0.231h-0.079l-0.229-0.152v-0.076l-0.15,0.076l-0.078-0.152H121.8l-0.152-0.155h-0.152   l-0.077,0.077l-0.152-0.077l-0.077,0.077h-0.152V56.43c-0.261,0.026-0.517,0.002-0.766-0.075l-0.075,0.152l-0.229-0.229h-0.229   l-0.152-0.228h-0.077c-0.152,0.101-0.306,0.202-0.458,0.305h-0.231v0.23c-0.101,0-0.202,0-0.303,0c0,0.051,0,0.102,0,0.152   l-0.077,0.152l0.077,0.077l-0.156,0.079v0.151l-0.228,0.076c-0.027,0.094-0.078,0.171-0.152,0.231l-0.154-0.079l-0.076,0.079   l-0.076-0.079l-0.23,0.154l-0.075-0.075v-0.155c-0.102,0-0.203,0-0.306,0l-0.076,0.076l-0.154-0.076c-0.051,0-0.102,0-0.152,0   l0.077-0.229h-0.077v-0.075h-0.075l-0.152,0.075l0.075-0.154l-0.075-0.152h-0.079l-0.075-0.076   c-0.051,0.05-0.102,0.101-0.152,0.152l-0.077-0.076h-0.075c-0.085,0.142-0.188,0.27-0.307,0.383l-0.077-0.076h-0.075l-0.078-0.154   l-0.077,0.154h-0.075l-0.076,0.076l1.452,1.377l0.077,0.534l-0.305,0.077l-0.079-0.077c-0.171-0.074-0.35-0.098-0.535-0.075   l-0.076-0.079h-0.075v-0.152l-0.152-0.076h-0.155v-0.152l-0.075,0.076l-0.076-0.076v0.076h-0.076   c-0.076,0.078-0.153,0.154-0.231,0.229h-0.075l-0.077-0.076h-0.075c0,0.102,0,0.204,0,0.306h-0.075   c-0.062-0.074-0.138-0.125-0.231-0.154l-0.077,0.079l-0.075,0.228h-0.228v-0.152h-0.156l-0.075,0.229h-0.077l0.077-0.152   l-0.229,0.075c0,0.051,0,0.102,0,0.152h-0.153l-0.306,0.155v0.152l-0.075,0.077v0.075l0.075,0.077v0.078h-0.075   c0,0.051,0,0.102,0,0.152l0.075,0.076c-0.25,0.181-0.479,0.384-0.688,0.611v0.306l0.077,0.076c0,0.153,0,0.306,0,0.459h-0.154   c0,0.103,0,0.205,0,0.307h0.231c-0.103,0.049-0.205,0.1-0.307,0.152l-0.152,0.228l0.075,0.076c0.591,0.021,1.178,0.073,1.758,0.155   c-0.032,0.354-0.059,0.713-0.077,1.07h-0.075l-0.077,0.611l0.077,0.075v0.077c-0.051,0.051-0.102,0.102-0.152,0.154h-0.077v0.076   l0.152,0.076l-0.075,0.075l0.152-0.075v0.075h0.075l-0.075,0.077h0.152l0.154,0.154h0.152l0.075,0.076l0.384,0.076l0.075,0.076   c0.077,0.327,0.103,0.659,0.077,0.994l0.153,0.152l-0.078,0.078l0.155,0.076c0,0.051,0,0.102,0,0.152   c-0.078,0.075-0.155,0.152-0.23,0.23l-0.077-0.078c-0.057,0.077-0.133,0.128-0.228,0.153c-0.536,0-1.072,0-1.607,0l-0.152-0.229   v-0.076c-0.075-0.06-0.126-0.135-0.152-0.229l-0.152,0.076c-0.306,0-0.612,0-0.918,0l-0.154,0.229l0.079,0.154l-0.079,0.152h0.079   l-0.079,0.075l0.079,0.077h0.075l0.152,0.23l0.077-0.078c0-0.076,0-0.153,0-0.229l0.15,0.153c0.108,0.008,0.211-0.018,0.309-0.076   c0.075,0.06,0.126,0.137,0.152,0.23v0.076c0.052,0,0.103,0,0.154,0l0.152,0.075c0.025,0.095,0.076,0.171,0.152,0.229v0.154h0.075   l0.078,0.076l0.229,0.076v0.075h0.152v0.077l0.078,0.154h0.075v0.076l0.077,0.076c0.076,0,0.151,0,0.228,0l0.077-0.076   c0,0.051,0,0.102,0,0.152h-0.077l-0.305,0.229h-0.153v0.152l-0.076,0.076l0.154,0.153l-0.078,0.154l0.078,0.075h0.075v0.152h0.229   l0.075,0.152l0.077-0.076h0.079v0.155l0.075-0.079c0,0.077,0,0.154,0,0.231c0.076,0,0.151,0,0.228,0   c0.052,0.051,0.104,0.102,0.156,0.151v0.076h0.075l0.077,0.076v0.155h0.15l-0.075,0.152c0.051,0.051,0.102,0.102,0.152,0.151v0.154   h0.075v0.076h0.078l-0.078,0.076l0.078,0.076v0.152l-0.078,0.078h-0.075v0.152l0.075,0.075l-0.075,0.077h0.075l0.155,0.075v0.231   h-0.155l-0.152,0.076l0.077,0.076h0.153l-0.078,0.075v0.077c0.077,0,0.154,0,0.231,0l0.076,0.078l-0.076,0.152h-0.076l-0.077,0.076   h-0.078c-0.066,0.121-0.092,0.248-0.075,0.383l0.153,0.076l-0.078,0.076v0.076l-0.303,0.23c0,0.076,0,0.151,0,0.228l-0.077,0.076   v0.076l0.077,0.079v0.152l0.15,0.075l-0.075,0.076v0.076l-0.228,0.307v0.077c-0.295,0.026-0.575-0.025-0.843-0.152v0.152   l0.075,0.151l-0.075,0.23c0.051,0.103,0.102,0.205,0.152,0.307v0.076l-0.229,0.076v0.076h-0.229v0.152c-0.051,0-0.102,0-0.152,0   l-0.077,0.076h-0.075l-0.078,0.383l-0.075,0.075c-0.051,0-0.102,0-0.152,0l-0.077,0.155l-0.152,0.076h-0.154l-0.075,0.076   l-0.077,0.229L112.244,77l-0.077,0.075c0,0.076,0,0.152,0,0.229l-0.075,0.154l0.075,0.076l-0.152,0.076v0.152l0.152,0.076   l0.077,0.153h-0.077v0.077l0.152,0.075c-0.068,0.121-0.119,0.249-0.152,0.384h-0.075l0.075,0.152v0.075h-0.075v0.459   c-0.077,0.077-0.154,0.154-0.231,0.231l-0.075-0.079l-0.229,0.079v0.152l-0.154,0.228h-0.076l-0.076-0.075l-0.152,0.075h-0.306   l-0.077,0.077l-0.075,0.306l-0.076,0.076l0.076,0.152v0.078l0.075,0.152l-0.151,0.152v0.23c-0.051,0.052-0.103,0.103-0.155,0.152   c0.008,0.107-0.018,0.21-0.075,0.308l-0.077,0.075v0.152l-0.075,0.152l0.075,0.078l-0.152,0.152h0.077   c-0.077,0.103-0.152,0.203-0.231,0.305c0.009,0.107-0.017,0.209-0.075,0.307l-0.229,0.151l-0.075-0.076l-0.075,0.076v0.079   c-1.301,0-2.602,0-3.901,0v0.076l-0.075,0.075c0,0.128,0,0.256,0,0.384l-0.079,0.076l-0.075,0.229l0.075,0.075l-0.075,0.079h-0.229   v0.076c-0.138,0.088-0.262,0.188-0.382,0.304c-0.051,0-0.102,0-0.152,0l0.075,0.154l-0.152,0.076   c0.009,0.107-0.018,0.209-0.078,0.305h0.155c-0.01,0.165,0.041,0.318,0.152,0.459l0.382,0.075c0,0.23,0,0.46,0,0.69l-0.075,0.152   v0.23l-0.077,0.076c0.065,0.122,0.09,0.249,0.077,0.383h-0.154l-0.077,0.075v0.077l-0.152,0.228v0.155   c-0.05,0.052-0.101,0.102-0.152,0.151v0.077l0.077,0.075c0.127,0,0.255,0,0.382,0l-0.077,0.155l0.077,0.076v-0.076l0.077,0.076   c-0.052,0.051-0.103,0.102-0.154,0.152h-0.077l0.077,0.075l-0.152,0.077c-0.026,0.094-0.077,0.17-0.152,0.23v0.076   c-0.052,0.051-0.103,0.102-0.155,0.152l0.078,0.075l-0.078,0.078h-0.075l0.075,0.077l0.078,0.228h-0.078v-0.076h-0.151   c0,0.103,0,0.205,0,0.308l-0.076,0.075l0.076,0.076l-0.076,0.076h-0.152l-0.076,0.076c-0.102,0-0.203,0-0.306,0l0.075,0.076   l-0.152,0.307l0.152,0.152c-0.119,0.119-0.243,0.218-0.384,0.307l0.077,0.077l-0.152,0.075v0.152l-0.075,0.078l0.075,0.075   l-0.075,0.153v-0.076l-0.077,0.076v0.152l-0.231-0.076l-0.075,0.076c-0.121-0.066-0.249-0.092-0.383-0.076l-0.076,0.076   c-0.144,0.076-0.297,0.103-0.458,0.078l-0.077-0.078c-0.075,0.076-0.151,0.153-0.228,0.23v0.075h-0.077l-0.077-0.075   c-0.126,0.042-0.228,0.118-0.305,0.228v0.077l0.152,0.078v0.076l0.152,0.152h0.077l0.077,0.075c0.051,0,0.102,0,0.152,0   c0.074,0.079,0.151,0.156,0.23,0.231v0.076h-0.155l-0.075-0.076c0,0.076,0,0.151,0,0.228l-0.229,0.23v0.076h-0.154v0.153   l-0.075,0.076v0.075h-0.305c0,0.103,0,0.204,0,0.307h-0.079c-0.049,0.123-0.124,0.225-0.228,0.308v0.075l-0.077,0.077V94.2h-0.075   l0.152,0.307l-0.077,0.077v0.152l0.077,0.075v-0.075l0.075,0.075l-0.075,0.154l0.075,0.076c-0.156,0.13-0.303,0.252-0.459,0.383   v0.304l-0.075,0.153v0.078h0.075l0.077,0.076l-0.152,0.076l0.075,0.075l-0.075,0.077l0.075,0.154l-0.152,0.076v0.076l-0.152,0.076   h0.077l0.152,0.076c-0.052,0.05-0.103,0.101-0.152,0.152h-0.155l-0.075-0.077l-0.076,0.077v0.23l-0.076,0.076   c0,0.051,0,0.102,0,0.152l-0.076,0.153l0.229,0.077v0.075l0.153,0.229c-0.06,0.074-0.136,0.126-0.229,0.154l-0.076,0.228h-0.152   l-0.079,0.076v0.076l-0.075,0.079v0.075l-0.228,0.077v0.075l0.075,0.076c-0.228,0.125-0.408,0.306-0.536,0.535l0.077,0.078h0.075   l-0.152,0.152l0.077,0.076c0.077,0,0.154,0,0.231,0v0.152l0.075,0.077h0.077l0.075-0.077c0.076,0,0.151,0,0.228,0   c0.096,0.025,0.173,0.077,0.231,0.154h-0.076l0.076,0.152l0.076-0.076l0.076,0.076c0,0.128,0,0.255,0,0.383l-0.459,0.152v0.076   c-0.284,0.055-0.558,0.104-0.839,0.151l-0.077,0.156l-0.766,0.228c-0.42,0.211-0.921,0.434-1.376,0.611v0.153l-0.152,0.077   c-0.051,0-0.102,0-0.152,0c-0.224,0.092-0.455,0.168-0.689,0.228l-0.075,0.076c-0.756,0.358-1.5,0.656-2.296,0.919v0.078   l-0.305,0.304c-0.217,0.046-0.42,0.123-0.611,0.23h-0.078l-0.304,0.229c-0.159,0.01-0.322,0.064-0.459,0.152v0.076l0.076,0.078   c-0.096,0.086-0.171,0.188-0.229,0.304l-0.308,0.077v-0.077c-0.186-0.023-0.363,0.002-0.534,0.077v0.154l-0.152,0.076   c-0.091-0.135-0.146-0.298-0.154-0.459l0.229-0.152c0-0.103,0-0.204,0-0.307c-0.076,0-0.153,0-0.229,0l-0.152-0.076v-0.076h-0.077   l-0.306,0.229l-0.076-0.076v-0.076l-0.076,0.076h-0.076l-0.077-0.076h-0.076l-0.077-0.076v-0.076l-0.075-0.078l-0.077,0.078   l-0.075-0.078l-0.077,0.078c-0.135-0.016-0.262,0.01-0.382,0.076c-0.095-0.026-0.172-0.078-0.231-0.154l-0.077,0.078h-0.15   l-0.077-0.078h-0.075l-0.155,0.078v0.076c-0.185,0.118-0.363,0.245-0.534,0.381h-0.152c-0.098,0.118-0.226,0.195-0.384,0.23   c-0.153,0-0.306,0-0.459,0v-0.076l-0.075-0.076h-0.077l-0.075,0.152l-0.384,0.076l-0.075,0.075   c-0.06-0.073-0.136-0.124-0.229-0.151v-0.23l-0.077,0.078h-0.076l-0.076,0.152H84.72c0,0.051,0,0.101,0,0.151h-0.076v-0.151   l-0.077,0.076l-0.153-0.152c-0.051,0-0.102,0-0.152,0v0.076h-0.152v0.151l-0.075,0.077v-0.077l-0.079-0.151h-0.152l-0.075,0.076   c-0.077,0-0.154,0-0.231,0l-0.152,0.231l-0.075-0.079H83.19v-0.077l-0.152-0.075h0.077l-0.077-0.076v-0.076   c-0.052,0-0.103,0-0.154,0l-0.305,0.228c-0.052,0-0.103,0-0.153,0c-0.103,0.051-0.204,0.104-0.305,0.156l-0.154-0.079l-0.077,0.079   h-0.075v0.075l-0.077-0.075v0.151h-0.152l-0.077,0.076c-0.216,0.047-0.42,0.124-0.611,0.231c-0.107-0.009-0.209,0.017-0.305,0.075   v0.077h-0.078l-0.076,0.075h-0.076l-0.076,0.076l-0.152-0.151h-0.23v0.075c-0.124,0.058-0.252,0.083-0.384,0.076v0.152h-0.075   l-0.077,0.078v-0.078l-0.15-0.076c0,0.052,0,0.103,0,0.154l-0.152,0.076l-0.079-0.076c0,0.102,0,0.203,0,0.305   c-0.051,0-0.102,0-0.152,0l-0.077,0.076l-0.075-0.076c-0.026,0.094-0.078,0.171-0.152,0.23c-0.077,0-0.154,0-0.23,0l-0.076,0.152   l-0.152,0.075H77.99v-0.075l-0.152,0.075v0.076c-0.096,0.026-0.171,0.078-0.228,0.155l-0.079-0.079l-0.075,0.079l-0.077-0.307   v0.075l-0.075-0.075c-0.051,0-0.102,0-0.152,0l-0.077,0.075v-0.075l-0.077,0.151h-0.152l-0.077,0.076l-0.075-0.076   c-0.103,0-0.204,0-0.307,0l-0.077-0.076c-0.077,0.076-0.152,0.152-0.228,0.231c-0.052,0-0.104,0-0.155,0v-0.155   c-0.101,0-0.202,0-0.304,0l-0.155-0.076l-0.075,0.076c-0.051,0-0.102,0-0.152,0l-0.075,0.155c0,0.051,0,0.102,0,0.152l-0.077-0.076   l-0.307,0.304l-0.228,0.076v0.079l-0.156,0.076v0.075h-0.152v-0.075l-0.229,0.075l-0.077-0.075l-0.152,0.075l-0.076-0.075   c-0.106-0.009-0.209,0.017-0.306,0.075l-0.077,0.077v0.152l-0.228,0.078v0.076l-0.154,0.152v0.075l-0.077-0.075h-0.152   l-0.152-0.076l-0.154,0.076l-0.228-0.152h-0.077l-0.154,0.152h-0.152l-0.152,0.075h-0.078l-0.075,0.077h-0.077   c-0.075,0.059-0.126,0.136-0.151,0.229v0.076c-0.102,0.052-0.204,0.103-0.308,0.152c-0.076,0-0.151,0-0.228,0l-0.075-0.076h-0.077   c-0.061,0.074-0.138,0.125-0.231,0.152l-0.075,0.23c-0.153,0-0.306,0-0.459,0c-0.116,0.059-0.219,0.135-0.306,0.229   c-0.225-0.072-0.453-0.098-0.688-0.076v-0.076c-0.22,0.076-0.42,0.176-0.611,0.308l-0.154-0.079   c-0.058,0.076-0.133,0.128-0.228,0.154h-0.077c-0.058,0.077-0.135,0.128-0.23,0.152H67.44c-0.078,0.075-0.153,0.152-0.229,0.231   v0.075l0.075,0.077l-0.152,0.151c-0.123,0.057-0.25,0.082-0.381,0.076l-0.152,0.076h-0.079l-0.38,0.23l0.075,0.076l-0.075,0.152   v0.078h-0.077l-0.079,0.076l-0.228-0.076l-0.383,0.076l-0.076,0.075h-0.152l-0.078,0.152h-0.153l-0.228,0.152   c-0.077,0-0.154,0-0.231,0l0.075-0.228c-0.05-0.052-0.1-0.103-0.15-0.152H64.23c-0.052-0.05-0.103-0.102-0.152-0.154h-0.079   l-0.228-0.152h-0.077l0.077,0.076l-0.152,0.383l-0.156-0.077l-0.303,0.229h-0.077l-0.079,0.075   c-0.131-0.006-0.257,0.021-0.38,0.079l-0.079-0.079v-0.075c0.087-0.095,0.189-0.171,0.306-0.229l-0.075-0.151h-0.152v-0.154   l-0.154,0.154h0.075l-0.075,0.076h-0.153l-0.152,0.228c-0.194,0.005-0.373,0.056-0.536,0.152h-0.077l-0.152-0.152l0.076-0.075   v-0.077l0.154-0.151h-0.077l0.077-0.154h0.077l-0.077-0.152v-0.076l-0.154-0.076l-0.228,0.152l-0.231-0.076l-0.075,0.076v0.076   c-0.052,0.051-0.103,0.101-0.152,0.152l0.075,0.078v0.076h0.152l0.079,0.228l0.152,0.077v0.075h0.076l-0.228,0.079l-0.079,0.076   l-0.152-0.076h-0.152v0.076l-0.075,0.076h-0.079v0.075l-0.228,0.077l-0.077,0.075l-0.306,0.079l-0.075,0.305l0.15,0.152   c0.293-0.112,0.602-0.164,0.919-0.152h-0.077l0.152,0.23v0.152h0.079v0.152l-0.079,0.076h-0.075l-0.077,0.153v0.076   c0.052,0.05,0.103,0.102,0.152,0.152h0.079v0.076h-0.154l-0.077-0.076H60.79c-0.027-0.093-0.078-0.169-0.152-0.229l-0.079,0.152   h-0.152c0.056,0.15,0.082,0.304,0.077,0.459c-0.06,0.074-0.136,0.125-0.229,0.152h-0.075l-0.077-0.076v-0.151l-0.154-0.077v0.077   l-0.152-0.077v0.077c-0.077,0-0.154,0-0.231,0l-0.076,0.151h-0.077c0,0.076,0,0.152,0,0.229h-0.076l-0.152,0.079h-0.075   c0-0.077,0-0.154,0-0.231H59.03c0-0.076,0-0.151,0-0.228h-0.152v-0.077l0.075-0.154h-0.075l-0.152,0.076v0.078l-0.152,0.152h-0.154   c-0.125,0.141-0.279,0.242-0.458,0.305v0.079c-0.094,0.026-0.17,0.077-0.229,0.152l-0.229-0.077l-0.229,0.152l-0.306-0.075   l-0.228,0.075l-0.152,0.152h-0.154l-0.152,0.154l-0.152-0.075l0.075-0.079c0.098-0.205,0.095-0.408,0-0.611l-0.075,0.076   l-0.383,0.076l-0.076-0.076c-0.117,0.132-0.27,0.209-0.458,0.23l-0.077,0.152l-0.079-0.075h-0.152v-0.152c-0.076,0-0.152,0-0.228,0   l-0.154,0.228l-0.229-0.075l-0.229,0.075l-0.077,0.076l-0.228-0.076c-0.027-0.095-0.078-0.17-0.154-0.228v-0.079h-0.077v-0.076   h0.154l-0.077-0.229l0.077-0.075l-0.077-0.077v-0.154l0.154-0.305l0.152-0.078v-0.075h0.076v-0.076l0.077-0.076v-0.076h-0.229   l-0.076,0.076l-0.154-0.229h-0.077v-0.078l-0.075,0.078h-0.152l-0.231-0.155v0.077l-0.152-0.077v-0.075h-0.152l-0.075-0.229H52.53   l-0.075-0.076l0.075-0.079l-0.075-0.075v-0.077l0.075-0.075l0.156,0.075v-0.075l0.228-0.076l0.077-0.076l0.154,0.076l0.075-0.076   l0.077,0.076l-0.077,0.076h0.077l0.152-0.076v-0.155c-0.052-0.05-0.103-0.101-0.152-0.152h-0.152l-0.079-0.075v-0.077l0.231-0.075   l-0.231-0.23l0.154-0.152H52.99v-0.152l0.229-0.23v-0.151l-0.075,0.075h-0.079l-0.152-0.075v-0.077h-0.152v-0.154   c-0.127,0-0.254,0-0.382,0l-0.077-0.076l-0.152,0.076v-0.152l-0.382-0.152l0.075-0.075v-0.155l-0.152-0.076h-0.079v-0.076   l0.079-0.076l-0.079-0.075H51.46l-0.075,0.075v-0.075l-0.076-0.077c-0.077,0-0.154,0-0.231,0l-0.152-0.078v0.078l-0.228-0.078   l-0.077-0.076h-0.079v-0.076l-0.228-0.076c-0.008-0.107,0.018-0.209,0.076-0.306l-0.076-0.077l0.076-0.151h-0.152l-0.076-0.152   h-0.079v-0.078h-0.075c0-0.051,0-0.102,0-0.152l-0.077-0.077v-0.075h-0.075v-0.076h-0.077l-0.075-0.079h0.075l0.152-0.151   l-0.075-0.152l0.075-0.076l-0.075-0.076v-0.079c0.074-0.059,0.125-0.135,0.152-0.228l0.075,0.075l-0.075-0.152l0.229-0.153   l-0.076-0.076l0.152-0.381l-0.077-0.078c0.102,0,0.203,0,0.305,0l0.079-0.229l0.305-0.075l0.152-0.152v-0.079h-0.152l-0.077-0.229   c-0.125-0.044-0.228-0.121-0.306-0.23l-0.228,0.079l-0.152-0.079c-0.127,0-0.255,0-0.383,0l-0.075-0.077c0-0.051,0-0.101,0-0.151   h0.075l0.077,0.076l0.152-0.076c0.134,0.017,0.261-0.009,0.382-0.076v-0.076c-0.125-0.044-0.228-0.121-0.307-0.23l0.079-0.152   h0.076v-0.076l0.152,0.076l0.077-0.076v-0.076h0.075l0.079-0.078l0.228,0.154h0.077c0-0.076,0-0.152,0-0.229   c-0.075-0.06-0.126-0.136-0.152-0.229h-0.075c-0.098-0.086-0.175-0.188-0.231-0.308v-0.152l-0.153-0.075l0.076-0.155l-0.152-0.151   l0.077-0.077h0.076c0.077-0.058,0.128-0.135,0.152-0.23l-0.075-0.076v-0.076l-0.153-0.229c-0.051,0-0.102,0-0.152,0l-0.079-0.153   l0.079-0.152l0.152-0.076v-0.076l0.228-0.231l-0.075-0.151h0.075l0.079-0.076h0.152c0-0.153,0-0.306,0-0.459l0.075-0.152   l-0.075-0.154v-0.077l0.075-0.075v-0.152l0.46,0.076l0.151-0.076v-0.23l0.152-0.076h0.079l-0.079-0.152l0.079-0.076h0.152v-0.154   l0.152-0.075V99.17l-0.075-0.075l0.075-0.077v-0.075l0.076-0.155v-0.076l0.079-0.075h0.077v-0.077   c-0.135-0.101-0.239-0.23-0.306-0.383l0.075-0.076v-0.152l0.154-0.154l-0.079-0.076v-0.151l-0.076-0.077c0-0.051,0-0.102,0-0.153   c-0.051,0-0.102,0-0.152,0l-0.152-0.076h-0.154l-0.152-0.076v-0.076l-0.307,0.152v0.076c-0.093-0.027-0.169-0.078-0.229-0.152   l0.077-0.076h-0.077V97.03l-0.075-0.076h-0.075c-0.025-0.097-0.078-0.173-0.156-0.23c0-0.128,0-0.256,0-0.384   c-0.076,0-0.152,0-0.228,0l-0.077,0.155h-0.076c-0.126,0.107-0.228,0.233-0.306,0.381c-0.027-0.094-0.078-0.17-0.152-0.229v0.076   h-0.154c-0.118-0.056-0.219-0.132-0.305-0.229l0.076-0.155c-0.076,0-0.153,0-0.229,0c-0.051,0.052-0.102,0.104-0.152,0.155   c-0.148-0.063-0.302-0.089-0.459-0.076l-0.077,0.076v0.076l-0.075,0.076h-0.152v0.076h-0.079v0.075l-0.228,0.077l-0.077,0.078   h-0.076l-0.077,0.076h-0.154v0.076l-0.077-0.076l-0.076,0.076L47.18,97.03l-0.079,0.076l-0.075-0.076c-0.051,0-0.102,0-0.152,0   l-0.152,0.076V97.03l-0.076,0.076l-0.079-0.076h-0.077l-0.076-0.076h0.076v-0.078l-0.076-0.152h0.076l0.077-0.152l-0.077-0.152   c0.05-0.054,0.102-0.104,0.155-0.154c-0.06-0.074-0.137-0.125-0.231-0.152l-0.077-0.152v-0.078l-0.075-0.153h-0.075l0.075-0.075   l-0.152-0.152c0-0.077,0-0.153,0-0.23l-0.079-0.152v-0.076h-0.075l-0.077-0.154l-0.152,0.078v-0.154l0.077-0.075v-0.077   l0.075-0.075c-0.127,0-0.255,0-0.382,0v0.075c-0.062-0.136-0.138-0.264-0.229-0.383V94.2l-0.075-0.075l0.075-0.231l-0.229-0.229   l0.154-0.076c0-0.051,0-0.102,0-0.152h0.152v-0.078l-0.231-0.075l-0.076-0.076h-0.077l0.077-0.229   c-0.095-0.195-0.172-0.401-0.229-0.612l0.077-0.077c-0.015-0.134,0.009-0.261,0.076-0.382c-0.058-0.076-0.134-0.127-0.228-0.152   l-0.077-0.152h-0.154l-0.075-0.152v-0.154h-0.229c-0.151-0.117-0.254-0.27-0.306-0.459c0.083-0.238,0.185-0.467,0.306-0.688   l-0.154-0.307l0.154-0.076l0.077-0.229h0.075l0.077-0.075l0.075-0.308h0.076l-0.076-0.151l0.154-0.155v-0.075l0.077-0.076   l0.152,0.076h0.382v-0.076c0.076-0.059,0.126-0.135,0.152-0.229v-0.153l0.077-0.152c0-0.051,0-0.102,0-0.152l-0.152-0.076   c0-0.077,0-0.153,0-0.23l-0.152-0.077c0-0.077,0-0.153,0-0.23h-0.079l-0.152-0.304l0.077-0.077l-0.077-0.153v-0.152h-0.076   l-0.077-0.152c-0.167-0.016-0.32-0.067-0.459-0.154h-0.152l-0.231-0.228l-0.228-0.077l-0.075-0.152h-0.156l-0.228-0.154v-0.076   l0.077-0.076v-0.075h-0.077v-0.077l0.077-0.079h-0.077l0.077-0.075h-0.077l0.077-0.076l-0.077-0.076l0.077-0.152h-0.077   c0.017-0.159-0.007-0.312-0.075-0.459l0.152-0.076l-0.077-0.077h0.077c0-0.076,0-0.153,0-0.229h0.075v-0.228l0.075-0.154h0.077   l0.154-0.229h0.077c0.11-0.142,0.161-0.295,0.151-0.46c-0.09-0.118-0.166-0.246-0.228-0.382h-0.075v-0.229l-0.079-0.153   c-0.107,0.008-0.209-0.018-0.305-0.076l-0.152-0.305l-0.307-0.078l-0.152-0.152h-0.154l-0.152-0.228c-0.128,0-0.256,0-0.383,0   l-0.076-0.231l-0.306-0.152c0-0.077,0-0.154,0-0.231l0.154-0.075c0-0.051,0-0.102,0-0.152c-0.113-0.203-0.273-0.388-0.458-0.535   v-0.076c-0.052,0.051-0.103,0.102-0.152,0.152h-0.154l-0.152,0.152h-0.306l-0.153,0.076v0.078h-0.308l-0.151,0.076v0.229   l-0.229,0.23h-0.154l-0.152,0.076c-0.126-0.129-0.254-0.257-0.384-0.383c0-0.051,0-0.102,0-0.152l-0.381-0.307   c-0.159,0.01-0.321,0.065-0.458,0.152c-0.333-0.143-0.683-0.113-0.994,0.078l-0.154-0.078h-0.075   c-0.056,0.119-0.133,0.222-0.229,0.307c0,0.077,0,0.153,0,0.23h0.077l0.075,0.076v0.076l-0.075,0.152c0,0.103,0,0.204,0,0.307   c-0.06,0.158-0.163,0.286-0.307,0.383h-0.077l-0.306-0.154c-0.156-0.171-0.232-0.375-0.228-0.611l-0.308-0.229h-0.076l-0.077,0.076   v0.383c-0.082,0.189-0.184,0.368-0.307,0.535l-0.228-0.078l-0.076,0.23l-0.308,0.152c-0.16,0.023-0.313-0.002-0.458-0.076   l-0.152-0.152l-0.229-0.076l-0.077-0.23c-0.051,0-0.102,0-0.152,0l-0.075-0.076c-0.058-0.225-0.16-0.429-0.307-0.611   c-0.095-0.027-0.171-0.078-0.229-0.155h-0.231L32.5,80.975l0.076,0.076c-0.055,0.149-0.081,0.303-0.076,0.46l0.383,0.38v0.078   l-0.077,0.152H32.73l-0.155,0.076c-0.127,0-0.253,0-0.38,0c-0.079-0.074-0.155-0.15-0.229-0.229   c-0.145-0.076-0.298-0.103-0.46-0.078l-0.15,0.078c-0.21,0.02-0.412-0.006-0.611-0.078c-0.66,0.212-1.312,0.264-1.989,0.154   c-0.19,0.075-0.343,0.202-0.458,0.381c-0.145,0.076-0.297,0.102-0.459,0.077l-0.075-0.077c-0.588-0.136-1.146-0.135-1.76,0   c-0.117,0.058-0.219,0.134-0.305,0.229l-0.079,0.229l0.079,0.155v0.075c-0.182,0.14-0.309,0.316-0.383,0.536   c0,0.103,0,0.204,0,0.307l0.152,0.228l-0.076,0.383c0.133,0.217,0.182,0.442,0.152,0.688c-0.036,0.157-0.112,0.284-0.229,0.383   h-0.154c-0.292-0.133-0.546-0.311-0.764-0.535c0.199-0.906,0.124-1.841-0.228-2.677c-0.166-0.018-0.318-0.068-0.459-0.152h-0.306   c-0.224,0.75-0.667,1.396-1.301,1.836v0.075h-0.077c-0.184-0.107-0.398-0.16-0.611-0.151l-0.306-0.459   c-0.024-0.388-0.195-0.772-0.459-1.071v-0.612l-0.075-0.152c-0.03-0.343,0.021-0.67,0.154-0.994l0.152-0.152h0.228l0.154-0.076   c0-0.103,0-0.204,0-0.307l-0.075-0.076c-0.156,0.005-0.309-0.021-0.459-0.076c-0.563,0.335-1.18,0.406-1.836,0.229   c-0.244-0.18-0.424-0.41-0.534-0.687c-0.175-0.064-0.353-0.115-0.536-0.152l-0.075,0.076c-0.262-0.008-0.523,0.045-0.765,0.151   v0.077c-0.849-0.161-1.738-0.111-2.523,0.152c-0.153,0-0.305,0-0.458,0c-0.243-0.13-0.497-0.231-0.764-0.305l-0.614,0.075   l-0.151-0.075h-0.152c-0.184-0.209-0.388-0.387-0.614-0.536c-0.265-0.023-0.516,0.002-0.764,0.077l-0.075-0.077   c-0.174-0.069-0.353-0.094-0.536-0.075l-0.306,0.152l-0.459-0.152c-0.124,0.057-0.25,0.082-0.382,0.075l-0.152-0.075H8.799v-0.155   L8.57,78.756l-0.46-0.535c-0.21-0.057-0.416-0.133-0.611-0.229c-0.101,0.054-0.203,0.104-0.306,0.152H6.964   c-0.126,0.044-0.228,0.12-0.306,0.229c-0.127,0-0.253,0-0.38,0c-0.075,0.171-0.178,0.323-0.308,0.459   c-0.254,0.121-0.44,0.339-0.534,0.614H5.358l-0.154,0.076c-0.442,0.127-0.921,0.232-1.375,0.304v0.077   c-0.151,0.138-0.329,0.214-0.534,0.229c-0.104,0.101-0.207,0.202-0.308,0.305c-0.153,0-0.305,0-0.458,0v0.154   c-0.147,0.078-0.274,0.179-0.382,0.304c-0.076,0-0.153,0-0.229,0v0.079l-0.382,0.536c-0.06-0.138-0.136-0.266-0.229-0.384   l0.077-0.076c0.136-0.308,0.107-0.629-0.077-0.918c0.181-0.239,0.253-0.488,0.229-0.766c-0.092-0.118-0.168-0.244-0.229-0.38   c0-0.23,0-0.46,0-0.69l-0.154-0.152V78.069L1.152,78.069z"/></g><text x="0" y="143" fill="#000000" font-size="5px" font-weight="bold" font-family="'Helvetica Neue', Helvetica, Arial-Unicode, Arial, Sans-serif">Created by Rflor</text><text x="0" y="148" fill="#000000" font-size="5px" font-weight="bold" font-family="'Helvetica Neue', Helvetica, Arial-Unicode, Arial, Sans-serif">from the Noun Project</text></svg>