<svg xmlns="http://www.w3.org/2000/svg" xmlns:xlink="http://www.w3.org/1999/xlink" version="1.1" x="0px" y="0px" viewBox="0 0 128 160" style="enable-background:new 0 0 128 128;" xml:space="preserve"><g><path d="M1.219,101.643l0.215-0.217c0-0.145,0-0.287,0-0.432l0.443-0.219h0.214v-0.215h0.215l0.219-0.224h0.434l0.225-0.217   l-0.225-0.434l0.438-0.217l-0.214-0.214l0.434-0.225l-0.22-0.219l0.22-0.215h-0.22l0.22-0.434h-0.22v-0.217H3.183l0.214-0.217   c0-0.219,0-0.438,0-0.658l0.22-0.214v-0.217l0.214-0.217v-0.438l0.215-0.219v-0.215H3.83l0.215-0.434L3.83,94.902l0.215-0.225   c0-0.145,0-0.286,0-0.431c0.436,0,0.874,0,1.311,0v-0.22l0.214-0.214l-0.214-0.217c0.405-0.403,0.839-0.765,1.306-1.089   l0.214,0.215c0.22,0,0.438,0,0.658,0l0.434-0.648L8.4,92.508l0.652-0.434V91.85c0.285-0.326,0.646-0.541,1.087-0.647h0.219   l0.653-0.434l0.657,0.434c0.625-0.376,1.203-0.812,1.739-1.308c0.217,0,0.432,0,0.648,0l0.214,0.217l-0.214,0.434h0.214v0.224   h0.225v0.214c0.274-0.165,0.563-0.237,0.867-0.214c0.214-0.301,0.429-0.588,0.657-0.874c0.217,0,0.432,0,0.648,0v0.217   c0.865,0.088,1.642-0.115,2.396-0.648l0.215,0.215l-0.215,0.217h0.215v-0.217l0.652-0.434h0.438v0.219l0.434-0.219l0.434-0.873   h0.438c0-0.145,0-0.289,0-0.434h-0.438l0.215-0.224L21.237,87.5v-0.217l0.215-0.434h0.438l-0.215-0.217l0.648-0.658h0.657   l0.22-0.215h-0.22v-0.217h0.22c0.263-0.079,0.479-0.224,0.647-0.434v-0.44h0.215l0.224-0.214c0-0.145,0-0.289,0-0.434   c-0.294-0.287-0.585-0.578-0.872-0.873l0.215-0.219l-0.215-0.215h-0.214l-0.22-0.219v-0.432h-0.224l-0.215,0.217l-0.219-0.44   c-0.217,0-0.432,0-0.648,0l-0.224,0.224l-0.648-0.44l-0.434,0.217v0.224l-0.219-0.44c-0.147,0-0.292,0-0.438,0l-0.215-0.214   l-0.219,0.214l-0.215-0.434l-0.434,0.22l-0.224-0.22c0,0.145,0,0.289,0,0.434l-0.215-0.214v0.214l0.215,0.44   c-0.145,0-0.289,0-0.434,0V81.41h-0.215l0.215-0.434c-0.145,0-0.289,0-0.434,0l-0.438-0.22h-0.22v0.22l-0.429,0.214v0.22   l0.215,0.214v0.217h-0.215l-0.219-0.217h-0.438c-0.271,0.075-0.485,0.222-0.648,0.44h-0.219l-0.215,0.217   c-0.275-0.072-0.494-0.219-0.657-0.44h-0.22l0.22,0.224l-0.648,0.865h-0.219l-0.215-0.215c-0.219,0-0.438,0-0.657,0l0.214,0.215   h-0.214v-0.215l0.434-0.434c-0.145,0-0.289,0-0.434,0l-0.434-0.44l-0.438,0.224l-0.22-0.44l-0.434,0.872h-0.214   c-0.082-0.266-0.227-0.484-0.438-0.655v0.224l-0.22,0.217l-0.434-0.44l-0.214,0.224l-0.22-0.224H8.839   c-0.07-0.529,0-1.038,0.214-1.522l-0.214-0.217l-0.225,0.217L8.4,80.102l-0.653,0.217v-0.434l0.22-0.215   c-0.082-0.264-0.227-0.482-0.434-0.657h-0.22L7.09,78.796H6.661c0-0.217,0-0.434,0-0.65h-0.22l-0.214-0.214l0.214-0.441   c0.017-0.373-0.054-0.734-0.214-1.084c-0.294-0.287-0.586-0.578-0.872-0.872H4.922l-0.443-0.217H3.616   c0.072-0.269,0.214-0.487,0.429-0.655h0.219l0.215-0.219h0.224l0.434-0.215h0.434l0.438-0.434h0.22l0.647,0.434l0.438-0.217   l0.434,0.217h0.434l0.22,0.215v-0.215l0.438-0.434v-0.217l0.647-0.222v-0.434l0.22-0.22c0.275-0.165,0.566-0.237,0.872-0.214   l0.214,0.214l0.434-0.214l0.22,0.214l0.652-0.214v0.214h0.434v-0.214l0.443-0.217v-0.224l0.648-0.217l0.872-0.865l0.219,0.217   c0-0.145,0-0.289,0-0.434l0.215-0.441c0.145,0,0.289,0,0.434,0l0.214-0.217l0.443,0.217c0.287,0,0.576,0,0.862,0v0.441   c0.147,0,0.297,0,0.443,0c0.212-0.225,0.427-0.443,0.648-0.658l0.219,0.217c0.292,0,0.581,0,0.872,0l0.215,0.217l0.219-0.217h0.434   l0.22-0.431v0.214l0.219-0.214c0.145,0,0.289,0,0.434,0l0.215,0.214v-0.214l0.219,0.872l0.215-0.225l0.224,0.225   c0.163-0.219,0.378-0.366,0.648-0.441v-0.217l0.434-0.214v0.214h0.224l0.434-0.214l0.215-0.434c0.219,0,0.438,0,0.657,0   c0.212-0.171,0.356-0.39,0.434-0.657l0.215,0.217l0.219-0.217c0.145,0,0.289,0,0.434,0c0-0.289,0-0.578,0-0.867l0.225,0.219   l0.434-0.219c0-0.147,0-0.292,0-0.439l0.429,0.217v0.223l0.219-0.223h0.215v-0.434c0.375,0.02,0.739-0.053,1.091-0.217v-0.214   h0.658l0.434,0.431l0.214-0.217h0.22l0.214-0.214h0.225v-0.22c0.272-0.165,0.562-0.237,0.867-0.215   c0.543-0.305,1.124-0.523,1.739-0.656l0.219-0.217h0.434v-0.432l0.22,0.215v-0.215h0.214l0.22-0.224l0.438,0.224   c0.286-0.149,0.575-0.299,0.867-0.443c0.146,0,0.291,0,0.438,0l0.867-0.648c0.146,0,0.291,0,0.438,0v0.217l0.219,0.217h-0.219   l0.434,0.214v0.219h0.219l0.215,0.224l0.434-0.658c0.219,0,0.438,0,0.657,0l0.215-0.217h0.434l0.224,0.431v0.219l0.215-0.219   v-0.431h0.434v-0.217c0.145,0,0.289,0,0.434,0l0.438,0.434l0.219-0.217v0.431h0.215c0-0.145,0-0.287,0-0.431h0.219l0.215-0.434   h0.219l0.22-0.222v0.655c0.266,0.077,0.482,0.221,0.652,0.431l0.215-0.214l1.091-0.217l0.215-0.434h0.219l0.215,0.217v0.217   c0.436,0,0.869,0,1.306,0c0.45-0.1,0.813-0.319,1.091-0.655h0.434c0.487-0.387,0.996-0.749,1.521-1.084v-0.217l0.443-0.224h0.214   l0.22,0.224h0.429l0.219-0.224c0.171,0.217,0.39,0.364,0.658,0.441c0.343-0.191,0.704-0.264,1.086-0.217l0.22-0.224l0.214,0.224   l0.22-0.224l0.214,0.224v0.217l0.22,0.217h0.219l0.22,0.217h0.214l0.22-0.217v0.217l0.214,0.217l0.872-0.65h0.22v0.217l0.434,0.217   c0.217,0,0.436,0,0.652,0c0,0.292,0,0.581,0,0.872l-0.652,0.434c0.023,0.457,0.18,0.921,0.438,1.306l0.434-0.217V64.87   c0.487-0.214,0.993-0.287,1.52-0.219v0.219l0.877-0.219c0.163-0.331,0.378-0.62,0.648-0.865l-0.215-0.222v-0.219   c0.39-0.25,0.852-0.403,1.306-0.431l0.863-0.65H62.8c0.543-0.308,1.121-0.527,1.739-0.658l0.867-0.865v-0.222   c2.267-0.746,4.383-1.595,6.533-2.614l0.214-0.217c0.67-0.17,1.327-0.387,1.964-0.648c0.145,0,0.289,0,0.434,0l0.434-0.219v-0.438   c1.294-0.503,2.721-1.138,3.917-1.739l2.178-0.648l0.219-0.443c0.8-0.135,1.578-0.275,2.388-0.431v-0.217l1.306-0.434   c0-0.364,0-0.725,0-1.089l-0.215-0.217l-0.219,0.217l-0.215-0.434h0.215c-0.166-0.222-0.385-0.369-0.657-0.441   c-0.218,0-0.432,0-0.648,0l-0.215,0.219h-0.219l-0.215-0.219v-0.434c-0.219,0-0.438,0-0.657,0l-0.22-0.214l0.434-0.434h-0.214   l-0.22-0.224c0.364-0.653,0.877-1.166,1.525-1.522l-0.215-0.217v-0.214l0.648-0.219v-0.214L83.9,46.59v-0.217l0.224-0.217h0.434   l0.219-0.648c0.266-0.082,0.482-0.229,0.653-0.441l-0.438-0.65v-0.214l-0.648-0.219l0.215-0.438c0-0.145,0-0.289,0-0.434   l0.219-0.217V42.24l0.215-0.219l0.215,0.219h0.442c0.143-0.147,0.287-0.292,0.434-0.434l-0.434-0.217H85.43l0.434-0.217v-0.217   l0.434-0.217L86.082,40.5l0.215-0.219l-0.215-0.214l0.434-0.217l-0.219-0.217h-0.215v-0.224l0.215-0.434v-0.865   c0.442-0.373,0.86-0.721,1.306-1.089l-0.215-0.217l0.215-0.441l-0.215-0.214v0.214l-0.219-0.214v-0.434l0.219-0.219l-0.434-0.872   h0.215v-0.214l0.219-0.219v-0.214c0.294-0.236,0.509-0.525,0.648-0.875h0.224c0-0.292,0-0.583,0-0.875h0.867v-0.214l0.215-0.217   v-0.434h0.438v-0.217l0.652-0.658c0-0.217,0-0.431,0-0.648l0.215,0.217h0.443v-0.217c-0.227-0.212-0.445-0.432-0.658-0.658   c-0.145,0-0.289,0-0.434,0l-0.219-0.214h-0.22l-0.434-0.434v-0.217l-0.434-0.222v-0.219c0.22-0.313,0.509-0.529,0.867-0.648   l0.22,0.214h0.219v-0.214c0.217-0.219,0.434-0.438,0.648-0.658l0.219,0.224c0.46,0.07,0.896-0.005,1.306-0.224l0.215-0.214   c0.383-0.047,0.746,0.025,1.091,0.214l0.215-0.214l0.657,0.214v-0.434l0.22-0.214v0.214l0.214-0.434l-0.214-0.214l0.214-0.224   v-0.434l0.434-0.214l-0.219-0.219c0.398-0.252,0.753-0.534,1.091-0.872l-0.434-0.434l0.434-0.872l-0.214-0.217   c0.291,0,0.58,0,0.872,0l0.214-0.217h0.434l0.22-0.217l-0.22-0.217l0.22-0.215h0.214l0.438-0.224l0.22,0.438   c0.266,0.075,0.482,0.219,0.647,0.434v0.217l0.438,0.217l0.22-0.217l-0.22,0.44h0.434l0.22-0.224c0.291,0,0.58,0,0.872,0v0.224   h0.434v0.434l0.214-0.219l0.22,0.219c0.037,0.382-0.033,0.737-0.22,1.086l0.22,0.434v0.219l0.438-0.219l0.434,0.219h-0.215   c-0.17,0.275-0.242,0.564-0.219,0.872h0.219l-0.219,0.648l-0.225,0.219h-0.214l0.214,0.655l0.443,0.217v0.867h0.215v0.438h-0.215   v0.434l-0.219,0.214l0.434,0.219l-0.215,0.224h-0.219v0.215l0.219,0.434v0.434h-0.219v-0.219h-0.225v0.434h0.225v0.224h0.219   l-0.443,0.867v0.214c0.292,0,0.581,0,0.872,0v0.224l-0.429,0.219v0.214h0.429v-0.214h0.434l0.22,0.214h0.224v0.217l0.215-0.217   h0.219v0.217l0.429,0.217v0.217c0.22,0,0.438,0,0.658,0l0.647,0.441l0.658-0.224l0.219,0.438l0.434,0.219v0.214l0.215,0.217   l0.214-0.431l0.225,0.431l0.652-0.217l0.434,0.434v-0.434h0.215l0.224,0.217c0.217,0,0.432,0,0.648,0v0.441   c0.401,0.145,0.778,0.368,1.091,0.648h0.434l0.434-0.434h0.225v-0.214l0.214,0.214l0.215-0.214l0.219,0.214   c0.145,0,0.289,0,0.434,0v-0.214l0.215,0.214c0.432,0.07,0.877,0.145,1.306,0.219l0.224,0.214h0.22v0.219l0.214-0.219l0.434,0.65   c0.145,0,0.289,0,0.434,0l0.225,0.224v-0.224c0.145,0,0.289,0,0.434,0l0.214-0.431c0.292,0,0.581,0,0.872,0v0.214h0.22v0.217h0.434   l0.214,0.224c0.147,0,0.292,0,0.438,0v0.217v-0.217h0.22v-0.224v0.224l0.214-0.224l-0.214,0.224c0.289,0,0.578,0,0.867,0   c0.268-0.08,0.484-0.227,0.652-0.441c0.383,0.044,0.746-0.025,1.092-0.214l0.214-0.219l0.22,0.219h0.214l0.22,0.214h0.214   l0.438,0.217l0.434,0.655l0.434-0.214c0.22,0,0.438,0,0.658,0c0.188,0.345,0.261,0.706,0.214,1.089l0.22,0.217h0.214l0.22-0.217   v0.217h0.224v0.217h0.215v0.217h0.219c0.035,0.448-0.037,0.884-0.219,1.306l0.219,0.648h-0.219l-0.438,1.091h-0.22l-0.434,0.214   c-0.466,1.091-1.224,2.073-2.178,2.831c-0.23,0.634-0.301,1.29-0.214,1.963c0.289,0.581,0.578,1.161,0.872,1.739l0.434,0.214h0.434   l0.224,0.219v-0.219c-0.436,4.066,0.032,8.244,1.306,12.189c-0.227,0.431-0.445,0.867-0.657,1.306   c-7.981,3.653-16.011,7.302-23.936,10.874h-0.434c-0.215,0.225-0.434,0.443-0.658,0.658v0.434h0.225l-0.225,0.215l0.225,0.219   l-0.658,0.438h-0.214c-0.788,0.326-1.443,0.841-1.959,1.524c0.047,0.381-0.027,0.742-0.224,1.082h-0.215l-0.214,0.225h-0.434   l-0.434,0.214c-0.294,0.56-0.551,1.007-0.872,1.524h-0.22l-0.214-0.434c-0.979,0.613-1.579,1.635-1.749,2.828   c-0.14,1.348,0.086,2.686,0.657,3.91h0.648v0.219c0.224,0.42,0.516,0.783,0.877,1.09h0.434l0.214-0.217l-0.214-0.217h0.438v-0.217   l0.434,0.217l0.214-0.217v-0.439l0.22,0.225v-0.225l0.214,0.225l-0.214,0.215l0.429,0.217l-0.215,0.217h-0.214l-0.22,0.434v-0.217   h-0.214l0.214,0.431L97.181,87.5l-0.22,0.214h-0.214L96.522,87.5l-0.434,0.214l-0.214,0.44c0,0.217,0,0.434,0,0.65l-0.434-0.217   v0.217l-0.872,0.215l-0.434,0.875c0,0.217,0,0.434,0,0.65l0.214-0.217l-0.214,0.217v0.224l-0.22,0.214h-0.224l-0.215,0.22v-0.22   h-0.219c-0.215,0.22-0.429,0.437-0.648,0.65c-0.195,0.344-0.271,0.707-0.224,1.09l0.224,0.434h0.22v0.217l0.214,0.224   c0.141-0.151,0.285-0.299,0.434-0.44v0.217l-0.219,0.224c0.145,0,0.289,0,0.434,0l-0.215,0.217l-0.219-0.217l-0.215,0.217h0.215   l-0.215,0.214v0.22h0.215c0,0.22,0,0.437,0,0.655l-0.215-0.441l-0.657-0.214l0.224-0.22c-4.558-1.019-9.578-1.48-14.367-1.305   l-0.434,0.219c-1.884-0.361-3.956-0.363-5.87,0l-0.22,0.215v0.44c-3.282,0.118-6.691,0.193-10.007,0.217l-0.434,0.214   c-0.146,0-0.296,0-0.443,0l-0.214,0.22l-0.215-0.22h-0.219l-0.215,0.22v-0.22h0.215l-0.438-0.431   c-0.562-0.222-1.141-0.296-1.739-0.224l-0.22-0.217v-0.215h-0.647l0.434-0.219v-0.434l0.214,0.219h0.22l-0.22,0.215   c0.145,0,0.289,0,0.434,0l0.225-0.215v-0.434h-0.438l-0.22-0.225h-0.214l-0.22,0.225l-0.214-0.441l0.434-0.217v-0.214l-0.434-0.22   l0.214-0.214h0.22l0.214,0.214c0.178-0.515,0.469-0.953,0.877-1.305l-0.219-0.215v-0.219c0.301-0.364,0.662-0.653,1.081-0.873   c-0.266-0.074-0.482-0.219-0.647-0.434l0.434-0.438v-0.217c0.352-0.395,0.788-0.682,1.306-0.865c0-0.219,0-0.438,0-0.658   l-0.215-0.217v-0.217l0.215-0.217l-0.215-0.217l0.215-0.224c-0.145,0-0.289,0-0.434,0v-0.214l-0.215,0.214l-0.224-0.214   c-0.306,0.023-0.595-0.049-0.867-0.22l-0.215,0.22c-0.219,0-0.438,0-0.657,0l0.214,0.438l-0.214-0.224l-0.22,0.224v0.217   c-0.142,0.147-0.286,0.292-0.434,0.434c-0.268-0.074-0.487-0.219-0.652-0.434l-0.434,0.217v0.217   c-0.518-0.027-1.026,0.045-1.525,0.217v0.215l-0.214,0.219c-0.147,0-0.292,0-0.438,0l-0.22,0.225H53.66l0.214,0.215L53.44,86.85   h-0.214h0.214l-0.647,0.434V87.5l-0.225,0.214h0.225l-0.438,0.657v0.217l0.214,0.217l0.225-0.217v0.217   c0.286,0.295,0.575,0.584,0.867,0.873l0.214,0.65l0.22-0.217l-0.22-0.648l-0.214-0.219V89.02h-0.434l-0.22-0.432l0.22-0.217   l0.214,0.217h0.22v-0.217c0.219-0.217,0.438-0.436,0.652-0.657h0.22l0.434,0.44c0.219,0,0.438,0,0.657,0l-0.224-0.217l0.224-0.224   h0.215l0.214-0.214v0.214l0.22-0.214h0.214v0.214c-0.212,0.224-0.426,0.443-0.647,0.657v0.217l0.214,0.432h0.22l-0.22,0.225   l-0.214-0.225l-0.215,0.443l-0.224-0.443h-0.434l-0.22-0.215c-0.361,0.121-0.652,0.341-0.872,0.658l0.22,0.215l0.219-0.215v0.215   l0.22,0.217l-0.22-0.217h-0.219v0.217l0.219,0.217h0.653l-0.434,0.217l0.214,0.217c-0.217,0-0.436,0-0.652,0l0.219,0.224h0.22   l0.434-0.224l0.214,0.224l-0.434,0.434l0.22,0.214l0.434-0.214h0.438v0.214v-0.214v0.214c0.145,0,0.289,0,0.434,0   c-0.145,0-0.289,0-0.434,0l0.214,0.217h0.434v0.441h-0.434v0.215v-0.215l0.22,0.215l-0.22,0.434l0.22,0.219   c-0.145,0-0.289,0-0.434,0v0.215l0.214,0.217l0.22-0.432h0.434h-0.22l0.22,0.215l-0.434,0.217h0.214v0.224h-0.214l-0.648,0.431   v0.22l0.215,0.214c-0.437,0-0.87,0-1.306,0l-0.872,0.441h-0.867l-0.438,0.217v0.217h-0.22c-0.23-0.299-0.521-0.518-0.872-0.658   v-0.217h-0.434l-0.214-0.214c-0.42-0.205-0.854-0.275-1.311-0.22l-0.429,0.22l-0.22-0.22l-0.224,0.22l0.224,0.214l-0.224-0.214   l-0.215,0.214h0.215v0.217l0.657-0.217v0.217l0.215-0.217l-0.215-0.214c0.364,0,0.728,0,1.092,0l0.434,0.214h-0.434h0.214v0.217   l-0.214-0.217l-0.22,0.217c0.434,0,0.867,0,1.301,0v0.225h0.225c0.165,0.215,0.382,0.359,0.647,0.434   c-1.815-0.119-3.686,0.03-5.441,0.432l-0.215,0.219v0.215v-0.215h-0.647c-0.275,0.07-0.495,0.217-0.658,0.438   c-0.469,0.052-0.904,0.196-1.306,0.434c0,0.217,0,0.431,0,0.647v-0.214c-0.217,0-0.436,0-0.652,0h0.219v-0.22   c-0.291-0.145-0.58-0.286-0.872-0.431c-4.388-0.067-8.848,0.454-13.057,1.522l-0.214-0.217v-0.441h-0.22l0.22-0.214h0.214   l0.22-0.22v-0.214h0.214l0.438-0.434l0.653-0.224c0.212,0.224,0.429,0.443,0.652,0.657c0.514,0.072,1.012,0.142,1.525,0.214   l0.214-0.214c0-0.22,0-0.438,0-0.657c-0.4-0.143-0.776-0.366-1.086-0.648c3.008,1.613,6.505,1.692,9.792,0.434   c0.326,0.383,0.763,0.602,1.306,0.655v0.431l0.215-0.431v-0.217h-0.215v0.217c-0.217-0.22-0.434-0.438-0.652-0.655h-0.22   l-0.219-0.434l-0.648-0.217l-0.219-0.217h-0.438v-0.217h-0.434c-0.215-0.219-0.432-0.438-0.648-0.655l-0.438,0.214v0.217   l-0.219-0.217h-0.215l-0.434-0.647l-0.224,0.214v-0.214l-0.22-0.44l-1.081-0.65v-0.215L36.9,92.723l-0.214-0.215v-0.219h-0.22   l-0.429-0.215h-0.219l-0.438,0.215v-0.215l-0.22-0.225l0.22,0.439l-0.434,0.219h-0.434l-0.215-0.219   c0.269-0.075,0.482-0.223,0.648-0.439l-0.22-0.217h-0.652c-0.35,0.139-0.637,0.357-0.867,0.656l0.434,0.219l-0.22,0.434v0.215h0.22   c-0.145,0-0.289,0-0.434,0l-0.438,0.44h-0.22l-0.214-0.224l0.214-0.217l-0.214-0.215h-0.22v0.215v-0.215h0.22v-0.219l0.434-0.215   l0.219,0.215v-0.215h0.22v-0.219c-0.707,0.195-1.432,0.268-2.178,0.219l-0.434,0.215c-0.22,0-0.438,0-0.658,0l-0.214,0.219h-0.22   c-0.266,0.072-0.482,0.217-0.647,0.432v0.224h-0.22l-0.224,0.65l-0.429,0.214l-0.22-0.214l0.434-0.65l-0.214-0.224l0.214-0.217   l-0.214-0.215c-0.406,0.14-0.786,0.366-1.092,0.655v0.217l0.215,0.214l-0.215,0.65H26.46v0.441   c-0.471,0.354-0.979,0.644-1.524,0.867h-0.215v0.215l-0.214-0.215v0.215h-0.22l0.22-0.215h-0.22l-0.438,0.215h0.215v0.224   l-0.215,0.217l-0.219-0.217v0.217h-0.429l0.214-0.44c-0.571-0.01-1.145,0.232-1.524,0.657l-0.215-0.217v-0.217l-0.224,0.217v-0.217   h0.224l0.215-0.657l0.434-0.215v-0.217h-0.215l-0.434-0.434h-0.224v-0.225l-0.215,0.441l-0.219-0.217   c-0.143,0.146-0.287,0.291-0.434,0.434v0.217l-0.215-0.217l-0.219,0.217v0.215h-0.22l-0.219-0.215l0.219-0.434l-0.219-0.217v0.217   h-0.434v0.217v-0.217l-0.215,0.217v0.217h-0.219v0.215l-0.215-0.215l-0.438,0.434v-0.434h-0.219v-0.434   c0.149-0.143,0.294-0.289,0.434-0.441h0.657v-0.431l0.215,0.214l0.219-0.214v-0.22l0.215-0.431h0.219v-0.224l-0.434,0.224   l-0.219-0.224l-0.434,0.224v0.217v-0.217l-0.215-0.224h0.434h-0.219v-0.217c0.146-0.143,0.291-0.287,0.434-0.434h-0.215   c0-0.145,0-0.289,0-0.434l-0.219,0.219l-0.215-0.219h-0.224l-0.215,0.219l-0.219-0.219h-0.215l0.215,0.219h-0.215l0.215,0.215   H17.54l0.219,0.434v-0.215l0.648,0.215c-0.271,0.074-0.485,0.221-0.648,0.44H17.54v0.217h-0.215v0.214l-0.224-0.214l0.224-0.217   l-0.443-0.44l-0.429,0.217l-0.219-0.432v0.215H16.02v0.44l-0.224-0.224v0.224h-0.22v0.431l0.22,0.22h-0.22v0.214l-0.214,0.217   h0.434v0.225h-0.434l-0.215,0.434l0.215,0.217h0.434l-0.434,0.215l-0.434-0.432l-0.215,0.217c0-0.145,0-0.289,0-0.434h-0.219v0.217   l-0.225-0.217h-0.214c-0.124,0.354-0.341,0.644-0.648,0.867l-0.219-0.219c-0.22,0-0.438,0-0.658,0l-0.647,0.434h-0.215   l-0.443,0.224h-0.214v0.217c-0.168,0.212-0.388,0.356-0.653,0.431l0.22-0.431v-0.217h-0.22L9.92,96.642v-0.217v0.217v-0.217   c-0.305-0.023-0.594,0.049-0.867,0.217v-0.217H8.839l-0.225,0.434L8.4,96.642v0.217l-0.22-0.217l-0.434,0.431v0.22H7.533v0.214   l-0.22,0.225l0.22,0.217h-0.22L7.09,98.164v0.648l0.443,0.219v0.225v-0.225l-0.22,0.225H7.09c0,0.145,0,0.286,0,0.431h0.224   L7.09,100.12H6.875v0.217l0.215,0.224l-0.429,0.215v0.219h-0.22c0.145,0,0.289,0,0.434,0l-0.214,0.215h-0.22v0.434   c0.147,0.143,0.292,0.289,0.434,0.438l-0.214,0.22h0.214l-0.214,0.214c0.217,0,0.436,0,0.652,0v-0.214h0.22l0.214-0.22h0.22   l-0.22-0.222h0.22v-0.217l0.214,0.217v-0.217H8.4l0.214-0.648h0.225v0.432h0.647v0.217h0.22l-0.22,0.217v0.441   c-0.145,0-0.289,0-0.434,0v0.214c-0.146,0-0.291,0-0.438,0h0.225v-0.214l0.214,0.214v-0.214h0.22v-0.22h-0.22v-0.222l-0.438,0.441   v-0.22l-0.434-0.222l0.22,0.441l-0.22,0.214l0.22-0.214h0.214l-0.434,0.434H7.967l-0.22,0.214v-0.214l-0.214,0.214h0.214   l-0.434,0.217h0.434l0.22-0.217v0.217h0.214l0.22-0.431c0.529,0.066,1.035-0.006,1.52-0.22c-0.489,0.376-0.778,0.884-0.867,1.524   L8.4,104.471v0.217l0.652,0.225l-0.214-0.225v-0.217h0.214c0.329-0.279,0.548-0.641,0.653-1.082l0.652-0.44v-0.214   c0.437-0.15,0.872-0.295,1.311-0.434v-0.22v0.22c-0.224,0.211-0.443,0.426-0.657,0.647v0.217l-0.22,0.44l0.22,0.215l0.657,0.219   l0.215-0.219v0.219l0.434-0.219l0.657,0.434h-0.224h0.224l0.215,0.217h0.219v0.217l-0.219,0.225l-0.215-0.441   c-0.219,0-0.438,0-0.657,0c-0.075,0.268-0.22,0.487-0.434,0.655l-0.215-0.214c-0.173,0.271-0.247,0.561-0.224,0.867   c-0.24,0.405-0.529,0.767-0.867,1.086h-0.22l-0.219,0.219v-0.65c-0.145,0-0.289,0-0.434,0v-0.217h-0.22l-0.214,0.217v0.217v-0.657   l-0.22-0.214c-0.146,0.146-0.291,0.291-0.438,0.438H8.181l0.22,0.217c-0.271-0.076-0.487-0.221-0.653-0.44c0,0.147,0,0.294,0,0.44   H7.533l-0.443-0.217l-0.648,0.217c0,0.145,0,0.287,0,0.432v-0.215H6.228l-0.22,0.215l0.22,0.219   c-0.145-0.146-0.292-0.291-0.443-0.434H5.569l-0.434-0.434l-0.657-0.224h0.224l-0.224-0.434v-0.214l-0.215-0.434v-0.225   l-0.647-0.217v-0.217l-0.658,0.217l0.225-0.217l-0.225-0.215v-0.219l-0.434-0.215l0.215-0.217c-0.41-0.221-0.847-0.296-1.306-0.224   v-0.65H1.219L1,102.301l0.219-0.22V101.643L1.219,101.643z M103.484,75.101v-0.224h0.22v0.224H103.484L103.484,75.101z    M103.051,75.317l0.22-0.217l0.214,0.217h-0.214l0.214,0.217h-0.434V75.317L103.051,75.317z M55.399,95.986v-0.219V95.986z    M45.173,96.642h0.215H45.173z M26.026,95.553v0.215V95.553z M7.747,98.381v0.217h0.22h-0.22V98.381L7.747,98.381z M33.855,93.156   v-0.215V93.156h0.22v0.217h-0.22h0.22h-0.22V93.156L33.855,93.156z M30.597,93.156v-0.215h0.214L30.597,93.156L30.597,93.156z    M52.793,95.986h-0.225v-0.219h0.225V95.986L52.793,95.986z M7.533,98.381v0.217V98.381z M8.181,102.734l-0.214-0.22l-0.22,0.22   C7.892,102.734,8.036,102.734,8.181,102.734L8.181,102.734z M7.533,100.775h0.214H7.533z M11.226,103.82v-0.215V103.82z    M10.358,97.73h0.22H10.358v0.217V97.73L10.358,97.73z M11.445,96.642c0.146,0,0.291,0,0.438,0v0.217h-0.215v0.214v-0.214v0.214   h-0.224v-0.214h0.224v-0.217H11.445L11.445,96.642z M31.03,93.597h0.214H31.03z M9.272,96.858c0.145,0,0.289,0,0.434,0h-0.22v0.214   H9.272v0.22C9.272,97.147,9.272,97.003,9.272,96.858L9.272,96.858z M43.434,97.506h0.215H43.434z M25.154,96.201v0.224V96.201   v0.224V96.201L25.154,96.201z M51.701,96.201v-0.215h0.22v0.215H51.701L51.701,96.201z M31.03,95.768v-0.215V95.768z    M54.966,95.768h0.214H54.966z M11.226,106.65v-0.217h0.22h-0.22V106.65L11.226,106.65z M8.181,100.337v-0.217H8.4h-0.22V100.337   L8.181,100.337z M31.244,95.553v0.215V95.553z M32.336,94.678v-0.217h0.214v0.217H32.336L32.336,94.678z M54.966,96.201h0.214   v-0.215v0.215H54.966L54.966,96.201z M8.4,100.994v-0.219c0,0.145,0,0.289,0,0.434V100.994L8.4,100.994z M10.792,101.426h0.22   v0.217h-0.22v0.217c-0.266,0.08-0.484,0.227-0.652,0.441H9.706c0.358-0.127,0.65-0.346,0.872-0.658h0.214V101.426L10.792,101.426z    M9.92,97.072v-0.214h0.22v-0.217h0.219l-0.219,0.217v0.214H9.92L9.92,97.072z M45.173,97.072v-0.214V97.072z M11.012,101.209   v-0.215h0.214v0.215H11.012L11.012,101.209z M56.705,96.858h0.214v0.214v-0.214H56.705L56.705,96.858z M32.336,94.247h0.214H32.336   z M25.369,96.201v-0.215l0.219,0.215H25.369L25.369,96.201z M55.18,97.072h0.22v0.22h-0.22V97.072L55.18,97.072z M8.839,97.292   v-0.22h0.214v0.22v-0.22v0.22H8.839L8.839,97.292z M58.011,87.283c0-0.217,0-0.434,0-0.65h0.214l-0.214,0.217l0.214,0.217   L58.011,87.283L58.011,87.283z M7.313,100.12l0.22-0.217l0.214,0.217l-0.434,0.44V100.12L7.313,100.12z M27.766,95.119   c0.171-0.21,0.385-0.357,0.648-0.441l0.224,0.441l-0.438,0.217v-0.217l-0.214,0.217L27.766,95.119L27.766,95.119z M31.469,95.119   v-0.217c0.14-0.152,0.284-0.299,0.434-0.441h0.214v0.217c-0.207,0.176-0.352,0.395-0.434,0.658L31.469,95.119L31.469,95.119z    M53.874,90.328c0,0.146,0,0.293,0,0.44l0.22-0.224v-0.217H53.874L53.874,90.328z M21.452,101.643h-0.215l0.215-0.217l-0.215-0.217   l-0.434,0.217l0.215-0.432l-0.215-0.219c-0.363,0-0.728,0-1.091,0l-0.434,0.219l0.219,0.215l-0.652,0.65v0.441h-0.438l0.224-0.22   h-0.438v-0.222c0.21-0.17,0.357-0.387,0.438-0.65v-0.215l-0.224-0.219l-0.434,0.434v-0.434l-0.434,0.219l-0.215-0.219v-0.215   l0.434-0.224h0.215l0.219-0.217h0.215l0.224-0.217h0.434l0.215-0.217l-0.215-0.217l0.215-0.214l0.219,0.214   c0-0.147,0-0.292,0-0.438l0.653-0.434l-0.22,0.658h0.22v0.214h0.219l0.215-0.438h0.219l-0.219-0.219h0.652v-0.215h0.215v-0.434   h-0.215l0.653-0.217V97.73h0.219v0.217h0.648v0.217h0.443v0.217h0.214c-0.291,0-0.58,0-0.872,0v0.217h0.215l0.224-0.217v0.432   c0.361,0,0.721,0,1.082,0c0,0.219,0,0.438,0,0.657c0.146,0,0.296,0,0.443,0v-0.214h0.214v-0.225l0.648-0.219l0.219,0.219   c-0.165,0.219-0.382,0.363-0.652,0.438l0.219,0.217l-0.219,0.434c0.145,0,0.289,0,0.434,0l0.443-0.434v0.217l0.214,0.434h0.648   l-0.215,0.438h-0.434l-0.214,0.219h-0.443l0.219-0.219c-0.148-0.143-0.293-0.287-0.434-0.438l-0.647,0.224l-0.443,0.434   l-0.215-0.219H23.63l-0.215,0.434h0.215v0.217l-0.429,0.217v-0.217l-0.22-0.217c-0.417,0.198-0.849,0.271-1.306,0.217   L21.452,101.643L21.452,101.643z"/></g><text x="0" y="143" fill="#000000" font-size="5px" font-weight="bold" font-family="'Helvetica Neue', Helvetica, Arial-Unicode, Arial, Sans-serif">Created by Rflor</text><text x="0" y="148" fill="#000000" font-size="5px" font-weight="bold" font-family="'Helvetica Neue', Helvetica, Arial-Unicode, Arial, Sans-serif">from the Noun Project</text></svg>