<svg xmlns="http://www.w3.org/2000/svg" xmlns:xlink="http://www.w3.org/1999/xlink" version="1.1" x="0px" y="0px" viewBox="0 0 128 160" style="enable-background:new 0 0 128 128;" xml:space="preserve"><g><path d="M1.154,52.528v-0.161L1,52.214l0.154-0.157l0.783-0.154v-0.157l-0.472,0.157L1.31,51.591h0.156l0.314-0.154   c0-0.105,0-0.212,0-0.318l-0.314-0.154v-0.157h0.16L1.78,51.12c0.219,0.017,0.425-0.035,0.622-0.154L1.78,50.497V50.34l0.157-0.311   l0.311,0.311h0.314l-0.161-0.157H2.248c-0.224-0.159-0.381-0.366-0.468-0.622h0.311c0.224,0.161,0.38,0.368,0.472,0.622   l0.311-0.154c-0.12-0.156-0.277-0.259-0.472-0.311l-0.154-0.626c0.157,0.156,0.313,0.313,0.47,0.469   c0.102-0.107,0.206-0.211,0.31-0.314v-0.154c-0.151-0.122-0.254-0.277-0.31-0.468h0.31l0.157,0.311L3.5,48.624l-0.314-0.314   c0.208,0,0.417,0,0.625,0v-0.157l-0.472-0.308H3.5v-0.311l0.311,0.154l0.311-0.154v-0.157l-0.155-0.314v-0.154l0.627,0.308   c0.104,0,0.206,0,0.31,0c-0.256-0.087-0.467-0.243-0.627-0.465c0.196-0.052,0.351-0.155,0.472-0.311l-0.154-0.161l0.154-0.311   l-0.472-0.154c0.154-0.121,0.259-0.274,0.318-0.465H4.276v-0.161l0.783,0.161v-0.161c-0.104-0.105-0.208-0.209-0.311-0.311H4.276   v-0.157h0.157c-0.159-0.209-0.312-0.413-0.467-0.625v-0.154l0.155,0.154h0.154l-0.154-0.312H3.966l-0.156-0.311v-0.154l0.311-0.161   v-0.154H3.811v0.154H3.5l-0.314-0.312L3.5,43.002l0.156-0.158h0.155v-0.311c-0.154-0.119-0.257-0.276-0.311-0.468L3.339,42.38   H3.028l0.157-0.314l-0.312-0.157v-0.312l0.154,0.312l0.311-0.154L3.5,41.443l-0.314-0.314v-0.157h0.154L3.5,41.286l0.311-0.314   L3.5,40.817V40.66h0.311l-0.155-0.312v-0.16v0.16H3.339v-0.16H3.185l-0.312-0.154l0.154-0.154l0.157,0.154v-0.311h0.154L3.5,39.412   l-0.161-0.154H3.5c0-0.158,0-0.315,0-0.472h0.156v-0.625h0.311v-0.157H3.811L3.5,38.161H3.339l0.316-0.157   c-0.123-0.152-0.28-0.256-0.47-0.311L3.5,37.538l0.156,0.154v-0.154l0.155-0.311H3.5v-0.472h0.156v0.157l0.155-0.157l0.311,0.157   l-0.155-0.311l0.155-0.158h0.154l-0.154-0.314h0.154l-0.154-0.154L3.966,36.29v-0.314H3.811l0.311-0.157l0.154,0.157v-0.311   l-0.154-0.157v-0.154l0.154-0.154v0.154h0.157v-0.315H4.276v-0.311H4.122L3.966,34.57h0.155l0.154-0.154l-0.31-0.157v-0.314h0.155   l0.154-0.154l-0.154-0.157v-0.154l0.312-0.157l-0.157-0.154h0.157v-0.314l0.314-0.157h0.156l-0.156-0.154h0.156v-0.157   c0.244-0.343,0.45-0.706,0.621-1.091c0-0.157,0-0.314,0-0.472l0.316,0.154c0.326,0.041,0.638-0.01,0.938-0.154l0.154,0.472h0.155   l0.47,0.312v0.154c0.428-0.05,0.845,0.001,1.248,0.154c0.251-0.13,0.505-0.181,0.778-0.154l0.47-0.311h0.311   c0.414-0.31,0.837-0.627,1.248-0.937l0.316,0.311l0.156-0.157l0.154,0.157v-0.157c0.104,0,0.208,0,0.311,0v0.157h0.316l0.155,0.154   h0.156l0.627-0.311v0.311h0.154l0.311,0.472v0.157l0.156,0.154v0.154h0.156c0.241,0.31,0.552,0.519,0.937,0.629v0.154h0.156   l0.316,0.311h0.311l0.154,0.161h0.156l0.161-0.161h0.155c0.139,0.366,0.412,0.641,0.776,0.783h0.161   c0.104,0.104,0.208,0.208,0.311,0.312h0.312c0.734-0.283,1.385-0.632,2.027-1.094l0.937,0.472l0.311-0.157h0.161l0.312-0.154   l0.157,0.154c0.259,0,0.52,0,0.779,0l0.623-0.314c0.311,0,0.625,0,0.937,0l0.154,0.161h0.161l0.311-0.161l0.311,0.161h0.157   l0.157-0.161h0.158l0.154-0.154l0.311,0.154l0.157,0.314l0.161-0.154l0.154,0.154c0.218,0.017,0.425-0.035,0.623-0.154   c0.301,0.311,0.587,0.549,0.937,0.776v0.157c0.19,0.057,0.348,0.162,0.472,0.314v0.154c0.102,0,0.206,0,0.308,0l0.157,0.157   l0.312-0.311l0.314,0.154l0.157-0.154l0.154,0.154c0.246-0.141,0.507-0.244,0.783-0.311l0.619,0.468h0.318l0.312,0.472   c0.363,0,0.728,0,1.09,0c0.191-0.059,0.348-0.164,0.469-0.318c0.107,0.104,0.211,0.209,0.314,0.318h0.154l0.311-0.161l0.318,0.315   l0.154-0.315l0.154,0.315l0.311-0.154h0.472l0.465,0.465v0.154h0.157l0.314-0.154c0.104,0,0.208,0,0.311,0l0.154,0.154   c0.33,0.048,0.642-0.003,0.94-0.154l0.308-0.311l0.629,0.622c0.208,0,0.417,0,0.625,0l0.154,0.154h0.311l0.311,0.161v0.465   l0.154,0.157h0.161l0.157,0.314h0.312l0.154,0.157h0.157c0.121,0.152,0.278,0.256,0.468,0.308v0.157h0.312v0.154l0.157,0.318   l0.625-0.161v0.161h0.311l0.315,0.154l0.157-0.154l0.465,0.311c0.383-0.065,0.746-0.013,1.091,0.154v0.154l0.157,0.157h0.154   l0.318-0.312L46.9,38.94l0.472-0.308c0.664,0.266,1.363,0.208,2.031-0.157c0.301,0.13,0.612,0.182,0.933,0.157l0.626-0.472   c0.303,0.156,0.562,0.365,0.78,0.625c0.94,0.061,1.907,0.007,2.814-0.154l0.311,0.154c0.055,0.191,0.157,0.348,0.308,0.472   l-0.154,0.311c0.157,0,0.314,0,0.472,0c0.152,0.12,0.256,0.274,0.312,0.465v0.314l0.311,0.312l0.154,0.468l0.626,0.314   l-0.154,0.312c0.191-0.056,0.345-0.159,0.465-0.312v-0.314l-0.311-0.311l0.311-0.311h0.314l0.311-0.158   c0.321-0.013,0.638-0.068,0.937-0.16v0.16l0.311-0.16l0.157,0.16h0.469v-0.314h0.157V39.88h0.311l0.154-0.157H60.8v-0.154   l0.154-0.157L60.8,39.098l0.311-0.157c0-0.156,0-0.31,0-0.465l0.154-0.154l-0.311-0.161v-0.157l0.157-0.154L60.8,37.692v-0.154   h-0.154l-0.161-0.311h-0.157c-0.052-0.194-0.155-0.352-0.311-0.472c0-0.104,0-0.208,0-0.312h0.157V36.29l0.311-0.161l-0.157-0.154   l0.157-0.157l-0.311-0.154c-0.104,0-0.208,0-0.311,0v-0.157l0.154-0.154l-0.465-0.154l-0.16-0.318v-0.154l0.314-0.157l-0.154-0.154   v-0.157l0.312,0.157v-0.314l0.154-0.157l0.468-0.154c-0.104-0.104-0.208-0.207-0.311-0.311l0.311-0.311v-0.161h-0.157l0.157-0.311   h0.161v-0.154l0.465-0.157c0.154-0.12,0.257-0.277,0.311-0.472c0.209,0,0.417,0,0.626,0l0.311-0.154h0.154v-0.154l0.318-0.157   l0.154,0.157h0.157v-0.157h0.308c0.256-0.096,0.465-0.253,0.629-0.472v-0.311h0.154l0.157-0.465   c0.239,0.117,0.449,0.272,0.626,0.465l1.248-0.465c0.172,0.199,0.381,0.354,0.626,0.465v0.472h0.465l0.157,0.312h0.16l0.154-0.312   l-0.314-0.625l0.16-0.154h0.154l0.465,0.465v0.783c0.157,0,0.314,0,0.472,0l0.157-0.157c0.103-0.313,0.204-0.626,0.309-0.937h0.157   c0.175,0.29,0.385,0.55,0.625,0.783l0.157-0.157l0.154-0.472c0.253-0.095,0.462-0.252,0.626-0.465l0.937-0.154l0.157,0.154v0.465   c0.206,0,0.413,0,0.619,0l0.16-0.154l-0.468-0.937c0.695-0.515,1.303-1.074,1.873-1.72h0.154l-0.312-0.623   c0.269-0.326,0.511-0.616,0.783-0.937c0.527,0.206,1.046,0.202,1.56,0l0.153-0.154v-0.314c-0.104,0-0.207,0-0.311,0l-0.308,0.157   h-0.161l-0.157-0.157v-0.468l0.472-0.472h0.154l0.157,0.472h0.153c0,0.156,0,0.313,0,0.468c0.313-0.154,0.626-0.31,0.938-0.468   l0.157,0.157l0.153-0.157l0.161,0.157h0.312h-0.154l0.154,0.154v-0.311h0.153v0.157h0.312v0.154v-0.154l0.317,0.154l-0.16,0.157   c0.157,0.119,0.261,0.274,0.314,0.469c0.207,0,0.415,0,0.622,0l0.161-0.154v0.154l0.776,0.468l0.16,0.314l-0.16,0.311v0.154   l0.16-0.154v0.154c0.211,0.157,0.413,0.313,0.622,0.472l0.154-0.161l0.157,0.161v-0.161h-0.312v-0.154h0.154v-0.157l-0.154-0.154   l0.154-0.157v-0.154l-0.154-0.314h0.312v-0.311c0.395-0.265,0.803-0.469,1.251-0.626l0.312,0.157c0-0.155,0-0.313,0-0.468   l0.465,0.154v0.314l0.161,0.312l0.153-0.154h0.157l0.154,0.154h0.312v0.157l0.16,0.154c0.268-0.211,0.479-0.474,0.622-0.78   l-0.157-0.157v0.157h-0.153l-0.154-0.157h-0.157c0.105-0.102,0.209-0.206,0.312-0.311l0.153,0.157l0.312-0.157l0.157,0.157   c-0.122,0.197-0.174,0.407-0.157,0.625l0.318-0.314l0.311,0.469l0.154-0.312l0.153,0.157l0.473-0.314l0.157-0.468   c0.118,0.197,0.17,0.406,0.153,0.625v-0.157l0.157-0.157c0.103,0,0.206,0,0.308,0l0.318-0.154c0.104,0,0.207,0,0.312,0l0.468,0.311   l0.157-0.157l-0.157-0.311v-0.154h0.312v-0.157l0.469,0.157l0.153,0.154v0.468l-0.153,0.314l0.625-0.625l-0.311-0.157   c0.12-0.152,0.274-0.256,0.465-0.311l0.157,0.157l-0.157,0.154l0.157,0.157l0.469-0.157c0.104,0.104,0.207,0.208,0.311,0.311   l0.157-0.154l0.626,0.154l-0.154,0.157c0.103,0.105,0.206,0.209,0.309,0.314h0.157l0.153,0.154h0.157v-0.312l0.161,0.157v0.312   l-0.318,0.154h0.157l0.161-0.154v0.311l0.153,0.314h0.157l0.154-0.161l0.154,0.472l0.311,0.154V27.39l0.161-0.157l0.157,0.469   h0.153V27.39H94.37v-0.157h0.153l0.154,0.312l0.312,0.157v0.472c0.209,0,0.42,0,0.629,0l-0.312,0.308l0.154,0.312h0.157   l0.308-0.312l0.317,0.157l0.154,0.312h0.312l-0.312,0.314h0.157l0.154,0.157l0.157-0.157l0.153,0.157v-0.157h0.154v0.157h0.16   c0,0.102,0,0.206,0,0.308l0.312-0.154v-0.311h0.157v0.311l-0.157,0.154l0.312,0.157h0.157v-0.157v0.157h0.157l0.157,0.315v-0.154   c0.104,0,0.207,0,0.312,0v0.154h0.153v-0.315l0.312,0.472l0.314,0.154l0.157-0.311H99.52c0.155,0,0.313,0,0.469,0l-0.158-0.154   v-0.161h0.158l0.153,0.315v-0.154l0.161,0.154l0.153-0.154l0.157,0.154v-0.154h0.154l0.157-0.161v-0.157v0.157l-0.157-0.311h0.157   l0.153-0.154h-0.153l0.153-0.157V29.11l0.158,0.154c0.226-0.159,0.381-0.367,0.468-0.626c0.156,0,0.313,0,0.469,0v0.312l0.16-0.157   h0.154l0.157-0.154v0.154V28.48l0.308,0.157l0.157-0.311v0.154l0.154,0.157V28.48c0.157,0,0.314,0,0.472,0v-0.154h0.157v-0.154   h0.154l-0.154-0.157l0.154,0.157v-0.157h0.153v-0.161h0.161c0.177-0.192,0.385-0.348,0.622-0.465c0.104,0,0.207,0,0.312,0v0.154   l0.16-0.154l-0.16-0.157h0.314v-0.154h-0.154h0.154l-0.154-0.161v-0.154l0.154-0.157h0.157l0.153,0.157v-0.157l0.157,0.157v-0.157   l0.154-0.154h-0.154h0.314c0-0.156,0-0.313,0-0.469c0.192-0.055,0.347-0.159,0.466-0.314l-0.154-0.154c0.104,0,0.208,0,0.312,0   c0.188-0.057,0.346-0.161,0.468-0.311h0.312v-0.157h0.312l0.157-0.161h0.16l0.154,0.161h0.153l0.157,0.157v-0.157h0.154v0.157   l0.157-0.318h0.154h-0.154l0.154-0.154l0.317,0.154l0.154-0.154l0.153,0.315h0.157v-0.161h0.312l0.161-0.154v0.315l0.311,0.311   l0.154-0.154h0.153l0.157-0.318h0.161l0.154,0.318c0.155,0,0.309,0,0.465,0v-0.157h0.157l0.16-0.161h0.154v-0.154   c0.105-0.102,0.209-0.206,0.312-0.311h0.157v0.157c0.102,0,0.205,0,0.308,0l-0.308-0.157c2.187,0,4.371,0,6.558,0v-0.154   c0.104,0,0.208,0,0.312,0v-0.157l0.465-0.314c0.103,0.108,0.209,0.212,0.318,0.314v0.157h0.153v0.154c0.104,0,0.208,0,0.312,0   v-0.154l0.157,0.154l0.153-0.154c0.034,0.639-0.07,1.265-0.311,1.874c0.055,0.191,0.159,0.345,0.311,0.465   c-0.1,0.758,0.004,1.485,0.315,2.185c0.364,0,0.729,0,1.094,0l0.154-0.154l0.157,0.154l-0.157,0.783l0.311,0.472l0.312,0.154   v-0.154l0.16-0.161v0.161c-1.114,1.655-1.931,3.554-2.346,5.461c-0.594,0.855-1.073,1.817-1.401,2.814l-0.157,0.154   c-0.352,0.838-0.512,1.745-0.472,2.653l0.16,0.314l-0.16,0.465l0.16,0.783c0.166,0.212,0.371,0.367,0.622,0.465v-0.312l0.312,0.158   c0.057,0.19,0.162,0.348,0.314,0.468h0.469l0.153-0.314v0.161h0.315l-0.154,0.311h0.154h-0.154l-0.161,0.154l-0.153,0.629h-0.469   l-0.153,0.154c-0.065,0.528-0.173,1.047-0.318,1.559l0.157,0.314l-0.157,0.157l0.318,0.312l0.153-0.158l-0.153,0.312v0.472h0.153   l-0.153,0.154l0.153,0.157h-0.153l-0.161,0.154l0.314,0.472l0.312,0.154h0.157V48.47l0.153-0.161l0.161,0.161v-0.161h0.154v0.161   l0.157,0.311h0.153l-0.153,0.154l0.153,0.157h-0.153V49.4l-0.157,0.161l-0.154,0.468l-0.161,0.154l0.161,0.314h-0.161v0.157   l-0.153,0.154v-0.154h-0.157c-0.033,0.274,0.02,0.536,0.157,0.783c0.261,0.258,0.521,0.517,0.779,0.776c0.155,0,0.313,0,0.469,0   l0.314-0.157v-0.154l0.154-0.311v-0.154l0.157-0.161l0.153,0.161l0.157-0.318l0.154,0.157l-0.312,0.314l0.312,0.465   c0.157,0,0.314,0,0.472,0c0-0.104,0-0.208,0-0.312l0.154,0.312l0.157-0.154l-0.157,0.312h-0.154   c-0.213,0.166-0.371,0.375-0.472,0.625l0.16,0.465c0.156,0,0.31,0,0.466,0l-0.154,0.157h-0.157l-0.154,0.161h-0.16l-0.312,0.154   v-0.154l0.312-0.161v-0.157c-0.157-0.224-0.365-0.38-0.622-0.465l-0.469,0.154c-0.286,0.188-0.53,0.385-0.779,0.629v-0.161   l-0.315,0.314c-0.104,0-0.207,0-0.311,0v0.622l-0.154,0.161v0.465c0.155,0.311,0.312,0.624,0.465,0.937l0.315,0.157v-0.157h0.157   l0.153-0.154h0.157v0.154h0.154v-0.154h0.157l0.157-0.157v0.623l0.157,0.154h0.312l-0.157,0.161v0.157h-0.154   c0,0.104,0,0.208,0,0.311l0.154,0.312l-0.154,0.314v-0.161l-0.157-0.154v-0.157c-0.105,0-0.209,0-0.314,0   c-0.115,0.252-0.168,0.514-0.154,0.783l0.154,0.154h-0.312v0.157h0.157l-0.157,0.315h-0.153l-0.157,0.154h-0.154l-0.161-0.154   c-0.217-0.017-0.425,0.035-0.622,0.154c-0.102,0.209-0.206,0.417-0.314,0.622v0.472l-0.157,0.154   c0.251,0.336,0.356,0.701,0.318,1.094l0.465,0.311l-0.154,0.314l0.312,0.311l0.626,0.154v0.157l0.153,0.314l-0.153,0.157h0.153   c-0.104,0.104-0.207,0.208-0.311,0.311c-0.105,0-0.21,0-0.315,0v-0.311c-0.155,0-0.31,0-0.465,0l-0.311,0.154h0.153l-0.153,0.311   v0.315l-0.161,0.157l-0.157-0.157v0.157c0.254,0.242,0.587,0.405,0.94,0.465c0,0.157,0,0.314,0,0.472l0.153,0.311v0.312   l-0.153,0.308c0.099,0.213,0.204,0.422,0.314,0.629l-0.161,0.312v0.157l-0.153,0.157l0.314,0.312l-0.161,0.465l0.315,0.314   l0.157,0.622l-0.157,0.161v-0.161h-0.154c-0.155,0.121-0.261,0.278-0.314,0.472c0.052,0.194,0.157,0.35,0.314,0.466v-0.154h0.312   V69.7l-0.157,0.314h-0.154l-0.161,0.311l-0.465,0.312v0.314l-0.157,0.157v0.154l0.157,0.153l-0.157,0.157   c-0.15,0.297-0.202,0.609-0.153,0.938l0.311,0.314l0.154-0.161l0.311,0.318l-0.153,0.154v-0.154l-0.157,0.154   c0,0.207,0,0.414,0,0.622h-0.154c-0.055,0.19-0.159,0.348-0.311,0.472v0.154l-0.161,0.311v0.157h0.161h-0.161v0.157h0.161v0.157   h-0.161l-0.157,0.154v0.157h0.157c-0.105,0.102-0.209,0.206-0.312,0.312v0.16l-0.311,0.619v0.157h0.157v0.16l-0.157,0.154   c0,0.207,0,0.415,0,0.622l0.311,0.154v-0.154l0.154,0.154l-0.776,0.472c-0.423,0.509-0.683,1.081-0.779,1.72l0.153,0.154h0.154   c-0.612,0.533-0.999,1.243-1.091,2.03h0.154c-0.489,0.452-0.706,1.053-0.619,1.714h0.465v0.16l0.154,0.154H118.1l-0.312,0.311   v0.157h0.154l-0.154,0.312c-0.256,0.091-0.465,0.248-0.625,0.469l0.153,0.157l-0.153,0.153h-0.157l-0.469,0.318v0.312l0.16,0.153   l-0.317,0.154l-0.154-0.154l-0.157,0.154h-0.153c-8.086,3.774-14.941,9.614-19.989,17.021c-0.26,0-0.521,0-0.779,0v-0.153   l0.314-0.157h-0.154v-0.161v0.161l-0.16-0.161v-0.153l-0.157-0.157l-0.312,0.157h-0.154l-0.472-0.312c-0.155,0-0.31,0-0.465,0   v-0.154l-0.154,0.154v-0.154l-0.157-0.157c-0.157,0-0.314,0-0.472,0v-0.16l0.157-0.154l-0.311-0.157v-0.153h0.153l-0.153-0.157   h-0.157v-0.154l-0.154-0.314c-0.387,0.014-0.768-0.097-1.094-0.312h-0.314l-0.154-0.157c-0.104,0-0.208,0-0.312,0v-0.153h-0.311   c-0.157,0.115-0.263,0.271-0.314,0.465c-0.21,0.104-0.417,0.211-0.623,0.317l-0.157-0.16c-0.316,0.077-0.577,0.232-0.779,0.469   h-0.472v0.157c-0.403,0.123-0.818,0.176-1.248,0.153l0.153,0.629h0.157c0.211,0.204,0.42,0.41,0.626,0.619h0.312l0.626,0.938   l-0.312-0.154h-0.314l0.153-0.154v-0.157h-0.465l0.157-0.153c-0.104,0-0.207,0-0.311,0v-0.157l-0.157-0.161h-0.315l-0.157-0.153   h0.157l-0.311-0.157v-0.154h-0.154v-0.154l-0.157,0.154v0.312h-0.153v-0.157l-0.161-0.154v-0.154h-0.157l0.157-0.157v-0.472h0.161   h-0.318v-0.153c-0.104,0-0.207,0-0.312,0l0.469-0.312h0.161l-0.161-0.154h-0.157l0.157-0.16h-0.157l0.472-0.157v-0.154   l-0.153-0.157h-0.318l0.318-0.308v0.154h0.311l-0.157,0.153h0.312v0.157h0.465l-0.154,0.312h-0.157c0,0.105,0,0.209,0,0.314   l0.473-0.314l-0.161,0.314l0.318-0.154l-0.157-0.16l0.157-0.157l-0.157,0.157c0-0.207,0-0.415,0-0.622h0.157h-0.157v-0.312h-0.161   c0-0.157,0-0.314,0-0.472l0.318-0.154h0.311h-0.157v0.154l-0.311,0.157v0.154h0.311h-0.153l0.153,0.16v0.157l0.312-0.317v0.317   l0.153-0.157c0.105,0,0.213,0,0.318,0l0.154-0.16l0.157,0.16h0.308c-0.101-0.107-0.203-0.213-0.308-0.314l0.153-0.157V99.68h0.314   c0-0.157,0-0.314,0-0.472l-0.16-0.153c0.209,0,0.42,0,0.629,0v0.153l0.154-0.153l-0.154-0.312c0.209,0,0.416,0,0.626,0h-0.161   v-0.312l0.161-0.16h-0.161V97.96h0.314v-0.153l-0.153-0.157c0.104,0,0.207,0,0.311,0l-0.157-0.154h0.312v-0.157h-0.154   l-0.157,0.157c-0.272-0.026-0.528,0.023-0.779,0.154v0.157v-0.157H89.06l1.095-0.473v-0.153l0.153-0.154v-0.157h0.157v-0.153h0.154   v-0.157c-0.22-0.018-0.429,0.036-0.626,0.157l0.314-0.312v-0.318l0.157-0.153l0.154,0.153c0-0.155,0-0.31,0-0.465l0.157,0.157   l0.312-0.157c-0.273-0.162-0.509-0.306-0.78-0.472v-0.465h0.157v-0.314h0.154h-0.465l-0.161-0.157l0.314-0.154l-0.153-0.157   l0.311-0.154c0-0.104,0-0.207,0-0.311h0.154v-0.161h0.157v-0.153h0.154h-0.312l-0.154,0.153v-0.311l-0.472,0.157   c0.105-0.103,0.211-0.206,0.314-0.312v-0.157h0.157v-0.154l-0.311,0.154l0.153-0.626h-0.153c0-0.207,0-0.415,0-0.622l0.311,0.157   v-0.314h-0.157c0-0.104,0-0.207,0-0.312h-0.153l0.153-0.157c0-0.104,0-0.207,0-0.311l0.157-0.154v0.154v-0.154l0.312,0.154   l0.154-0.154v-0.16h0.157l-0.312-0.154v-0.312l0.154-0.311h0.314l0.157-0.161v0.161l0.153,0.153h0.157l0.154-0.153l0.157,0.153   l-0.312,0.469h0.154v0.154l0.317-0.154l-0.16-0.157l0.16-0.312c0-0.157,0-0.314,0-0.472h0.309h-0.154h0.465v0.318h0.157   c0-0.105,0-0.213,0-0.318l0.161-0.153h0.311l-0.157-0.154h-0.153v-0.312h-0.161v-0.157h0.161c0.115-0.157,0.271-0.263,0.465-0.314   h-0.154l0.154-0.153l-0.154-0.157c0.213-0.168,0.368-0.375,0.466-0.626h0.153l0.161-0.157v0.311l0.157,0.161h0.153l0.312-0.314   v0.314c0.356-0.141,0.716-0.194,1.091-0.161v0.161h0.157c0.105-0.105,0.209-0.209,0.314-0.314l-0.154-0.312h-0.317   c0-0.261,0-0.521,0-0.783l-0.154,0.158l-0.153-0.158l-0.157-0.465l-0.314-0.153h-0.157c0.087-0.262,0.244-0.471,0.472-0.63   l-0.314-0.311l0.16-0.154h-0.16v-0.16l-0.469,0.16l-0.154-0.16l0.154-0.154v-0.622h-0.154v0.153l-0.311,0.157h0.157l-0.157,0.312   l0.157,0.154l-0.157,0.16c-0.105-0.105-0.209-0.209-0.314-0.314h-0.157l-0.154-0.469h-0.154v0.312l0.154,0.157l-0.312-0.157   l-0.314,0.472l-0.157-0.16l0.157-0.154h-0.622c0-0.207,0-0.415,0-0.622l-0.314-0.161c0.197-0.118,0.406-0.17,0.626-0.153h-0.157   l-0.309-0.157l-0.16,0.157l-0.312-0.157v0.157l0.154,0.314h-0.154l-0.157,0.153h-0.153l-0.472-0.314h-0.154l-0.157,0.161   c0.105,0.102,0.209,0.206,0.312,0.311l-0.312,0.154c-0.103-0.209-0.206-0.418-0.312-0.626c-0.105,0-0.209,0-0.314,0l-0.153-0.311   h-0.157l-0.154,0.157v0.153l-0.312,0.161l-0.317-0.161c-0.152,0.215-0.305,0.419-0.465,0.626c-0.26,0-0.521,0-0.78,0l-0.311-0.154   l-0.318,0.312l-0.312-0.312h-0.308v-0.157c0.052-0.192,0.154-0.348,0.308-0.468v-0.157l-0.308-0.154v-0.157l-0.157,0.157v0.154   l-0.314,0.157l-0.157,0.314h-0.154c0.188,0.241,0.345,0.5,0.473,0.776l-0.473,0.16l-0.157-0.16v-0.466l-0.308-0.472   c-0.105,0-0.212,0-0.317,0l-0.154-0.153h-0.157c-0.154,0.157-0.31,0.313-0.465,0.468c-0.243-0.197-0.4-0.456-0.472-0.779v-0.157   l-0.466,0.312l0.154,0.157h0.157v0.153l-0.472,0.161l-0.312-0.161h-0.153v-0.153c-0.121-0.154-0.276-0.258-0.469-0.312h-0.314   l-0.154,0.154h-0.157l0.157,0.472h-0.157l-0.153,0.153c0-0.313,0-0.624,0-0.937l-0.157-0.154h-0.154l-0.16,0.154l-0.154,0.469   c-0.104,0-0.207,0-0.312,0l-0.157-0.312c-0.313,0-0.624,0-0.937,0c-0.154-0.159-0.312-0.316-0.472-0.469   c-0.591,0.007-1.147-0.043-1.713-0.157v0.469c-0.105,0-0.21,0-0.315,0c-0.122-0.15-0.279-0.254-0.468-0.312   c-0.154-0.306-0.361-0.565-0.626-0.779h-0.154l-0.311,0.312h-0.312l-0.16-0.312l0.16-0.317l-0.472-0.466l-0.465-0.153l0.153-0.472   c-0.153-0.368-0.42-0.636-0.779-0.776v-0.472c-0.155,0-0.313,0-0.469,0l-0.779-0.466h-0.157c0-0.313,0-0.627,0-0.939l-0.154-0.154   v-0.154l-0.16-0.16l-0.157,0.314l-0.308-0.154v-0.16l0.153-0.312l-0.153-0.465l0.153-0.317h-0.153v-0.154l-0.629,0.154v-0.154   l-0.309-0.469h-0.157l-0.472,0.469c-0.104,0-0.207,0-0.311,0l-0.154-0.157l0.154-0.469c-0.054-0.19-0.157-0.346-0.309-0.468   l-0.472-0.154c0.119-0.157,0.276-0.261,0.472-0.312l0.154-0.314c0-0.207,0-0.415,0-0.622l-0.312-0.318l-0.782-0.153l0.157-0.154   l-0.312-0.311l0.154-0.318l-0.154-0.154h-0.314l-0.622-0.311c-0.056-0.192-0.159-0.347-0.314-0.465l-0.157,0.153l-0.154,0.465   h-0.312v-0.153l-0.157-0.154c0-0.209,0-0.42,0-0.629c-0.303-0.154-0.562-0.359-0.779-0.619c0-0.261,0-0.521,0-0.783h-0.472   l-0.154-0.153l0.154-0.472c-0.117-0.156-0.273-0.26-0.465-0.312c-0.258,0.05-0.525,0.103-0.783,0.154   c-0.05-0.256-0.104-0.524-0.154-0.78h-0.468c-0.305-0.153-0.564-0.361-0.78-0.622h-0.472l-0.311-0.157   c-0.104,0.104-0.208,0.207-0.311,0.312c-0.152-0.121-0.258-0.278-0.315-0.469l-0.468-0.312v-0.311l-0.154-0.318l-0.312,0.161   l-0.472-0.161V65.33l0.157-0.157l-0.157-0.154c0-0.157,0-0.314,0-0.472h-0.154l-0.311-0.154l-0.472,0.314   c-0.158-0.226-0.365-0.383-0.623-0.472c0.117-0.252,0.17-0.514,0.157-0.783l-0.314-0.154c-0.365,0.143-0.638,0.417-0.78,0.783   h-0.314c0-0.156,0-0.313,0-0.468l-0.465-0.469v-0.157h-0.157c-0.104-0.105-0.209-0.209-0.315-0.311v-0.626h-0.157l-0.154-0.311   c-0.376-0.037-0.741,0.015-1.094,0.157l-0.308-0.157v0.157h-0.157v0.154l-0.161,0.312h-0.154c-0.152-0.121-0.256-0.274-0.312-0.465   c0.125-0.308,0.174-0.617,0.154-0.94c-0.156,0-0.31,0-0.465,0l-0.314,0.468h-0.311l-0.157-0.157l0.311-0.937h-0.154v-0.154   c-0.156,0-0.31,0-0.465,0v0.472l-0.161,0.154c-0.155,0-0.313,0-0.468,0l-0.154-0.314l0.154-0.311V60.02l-0.311-0.154h-0.315   l-0.154,0.154l-0.157,0.468l-0.154,0.161h-0.157c-0.157-0.228-0.367-0.385-0.626-0.472V60.02c-0.356,0.125-0.719,0.177-1.091,0.157   v0.311l0.308,0.314c0,0.104,0,0.208,0,0.312c-0.102,0-0.206,0-0.308,0l-0.468-0.465c-0.209,0.102-0.418,0.204-0.625,0.308   l-0.154-0.154c0.225-0.289,0.327-0.602,0.308-0.937c-0.259,0-0.521,0-0.78,0v0.154l-0.157,0.157   c0.121,0.197,0.174,0.407,0.157,0.625H45.81l-0.311-0.472v-0.776l-0.154-0.161h-0.161c-0.206,0.109-0.413,0.214-0.622,0.315H44.25   l-0.161-0.154l0.625-0.472c0-0.104,0-0.208,0-0.311l-0.465-0.469c-0.261,0-0.522,0-0.783,0l-0.314-0.157c0-0.104,0-0.207,0-0.311   c0.418,0,0.836,0,1.255,0v-0.314l-0.318-0.154h-0.465l-0.311,0.154c-0.124-0.149-0.281-0.252-0.472-0.311v-0.154l-0.154-0.157   l0.312-0.154v-0.318h-0.157l-0.465,0.318c-0.274,0.027-0.532-0.023-0.783-0.157l-0.312,0.157h-0.314l-0.154-0.157   c0-0.259,0-0.52,0-0.78l-0.311-0.157l-0.157,0.157h-0.315l-0.311,0.154c-0.104,0-0.208,0-0.311,0l0.157-0.783l-0.157-0.154h-0.154   c-0.164,0.152-0.321,0.31-0.472,0.472c-0.06,0.35-0.222,0.681-0.465,0.93h-0.161v-0.154H38l-0.311-0.465   c-0.268,0.014-0.529-0.04-0.78-0.157v-0.154l0.314-0.318l0.465-0.154l0.157-0.154l-0.465-0.312l-0.157,0.154   c-0.311,0-0.624,0-0.937,0c0,0.155,0,0.309,0,0.465c0.101,0.211,0.204,0.42,0.312,0.629l-0.157,0.154v0.157h-0.154   c-0.324-0.266-0.617-0.51-0.937-0.783h-0.154c-0.16,0.224-0.371,0.381-0.629,0.472l-0.154-0.472l0.154-0.622h-0.154v-0.154   c-0.105,0-0.211,0-0.314,0c-0.014,0.268,0.04,0.525,0.157,0.776l-0.157,0.161h-0.157c-0.254-0.264-0.516-0.525-0.776-0.783   c-0.013-0.376,0.04-0.741,0.154-1.091c-0.104,0-0.211,0-0.314,0l-0.776,0.465c0,0.261,0,0.522,0,0.783   c-0.426,0.032-0.845-0.022-1.254-0.157l-0.312-0.472l-0.308,0.157c-0.211,0-0.418,0-0.629,0l-0.154,0.161l-0.465,0.154   l-0.161,0.157h-0.157l-0.312-0.157l-0.308-0.472c-0.107,0-0.211,0-0.318,0l-0.154,0.157v0.472l-0.311,0.308h-0.158l-0.154-0.154   c-0.02-0.328-0.13-0.659-0.314-0.937h-0.157c-0.208,0.209-0.415,0.417-0.623,0.626v-0.154l-0.314-0.161   c0.05-0.256,0.104-0.522,0.157-0.776h-0.157v-0.161c-0.154,0-0.311,0-0.465,0l-0.157-0.157c-0.208,0-0.417,0-0.626,0l-0.311,0.157   c-0.104,0-0.211,0-0.314,0c0-0.259,0-0.517,0-0.776l-0.157-0.157h-0.154l-0.623,0.311v0.154c-0.278,0.179-0.609,0.292-0.937,0.312   l-0.161-0.154v-0.622c-0.194-0.124-0.401-0.177-0.619-0.161c-0.188,0.396-0.238,0.815-0.157,1.255l-0.154,0.154   c-0.197-0.052-0.354-0.156-0.472-0.314h-0.157v-0.469c0.197-0.174,0.354-0.383,0.468-0.625v-0.311h-0.157l-0.154-0.312h-0.157   l-0.625,0.469h-0.154l-0.157-0.157v-0.465c0.263-0.279,0.472-0.592,0.629-0.937l-0.161-0.157c-0.261,0-0.519,0-0.778,0l-0.47,0.469   c0.08,0.415,0.13,0.821,0.154,1.248c-0.475,0.199-1.049,0.375-1.559,0.472v-0.157c-0.074-0.321-0.231-0.582-0.47-0.783   l-0.156,0.157h-0.154c0.01,0.318-0.043,0.631-0.157,0.937l-0.154,0.154h-0.316l-0.778-0.465h-0.154   c-0.418,0.209-0.837,0.417-1.255,0.622l-0.31,0.472c-0.104,0-0.208,0-0.311,0c0-0.157,0-0.314,0-0.472   c0.236-0.35,0.443-0.714,0.621-1.094c0-0.156,0-0.31,0-0.465h-0.154l-0.156-0.154v-0.161c-0.313,0-0.624,0-0.938,0   c-0.154-0.211-0.308-0.415-0.465-0.623l-0.161,0.154h-0.154l-0.311,0.311c-0.067,0.276-0.171,0.537-0.311,0.783l-1.093,0.312   l-0.316-0.157l-0.154-0.312c-0.207,0-0.415,0-0.622,0c0,0.208,0,0.415,0,0.623l0.311,0.318c0,0.206,0,0.413,0,0.619   c-0.157,0-0.314,0-0.472,0C8.17,53.186,7.91,52.98,7.715,52.686c-0.157,0-0.314,0-0.472,0l-0.623,0.308c-0.208,0-0.417,0-0.625,0   l-0.311,0.783H5.524L5.37,53.623c0-0.261,0-0.522,0-0.783l-0.155-0.154v-0.157l-0.311-0.161c-0.158,0-0.313,0-0.47,0   c-0.208,0.162-0.412,0.316-0.623,0.472H3.655l-0.316,0.154H3.028l-0.31-0.779l-0.316-0.157c-0.291,0.174-0.549,0.383-0.776,0.629   c-0.105,0-0.21,0-0.316,0L1.154,52.528L1.154,52.528z M122.158,65.173v-0.154h0.157l-0.157-0.157c0-0.156,0-0.313,0-0.469   l0.312-0.468l0.314-0.154l0.469,0.154l-0.157-0.78l-0.154-0.157l-0.157,0.157l-0.157-0.157v-0.154l-0.312-0.157v-0.161   c0.251-0.099,0.459-0.252,0.626-0.465l0.465,0.154v-0.154l-0.153-0.154c0.104-0.105,0.207-0.212,0.311-0.318   c-0.192-0.053-0.348-0.157-0.468-0.311l0.157-0.154l-0.157-0.157l0.311-0.154v-0.154c-0.152-0.159-0.308-0.316-0.465-0.472h-0.157   v-0.311l0.157-0.157h0.154v-0.154h0.157V59.24h-0.469l-0.157,0.154c0.122-0.15,0.279-0.254,0.469-0.311l0.157-0.311   c0.296,0.155,0.606,0.208,0.937,0.157l0.154-0.157c0.374-0.072,0.739-0.177,1.094-0.314v-0.312l-0.157-0.154l0.157,0.311   c-0.12-0.195-0.174-0.403-0.157-0.622l0.157,0.154c0.105-0.105,0.209-0.209,0.314-0.314c0,0.209,0,0.417,0,0.625h0.157   c0.065,0.276,0.167,0.537,0.308,0.783l0.469,0.154l0.16-0.311L127,58.929v0.154l-0.314,0.157c0,0.259,0,0.521,0,0.78l-0.469,0.157   c-0.237,0.43-0.497,0.847-0.779,1.248c0,0.259,0,0.521,0,0.78l0.154-0.154h0.16l-0.16,0.312v0.154   c-0.149,0.125-0.253,0.283-0.312,0.472v0.157h-0.154l-0.157,0.154v0.154c-0.512,0.637-0.91,1.285-1.251,2.031v0.153l-0.154,0.318   v0.311h0.154v0.154c0.105,0,0.209,0,0.314,0v0.157h0.312v0.157h-0.154l-0.157,0.157v0.154h0.157   c-0.12,0.155-0.277,0.259-0.472,0.311l-0.154-0.153v-0.157h-0.157c-0.19,0.055-0.345,0.158-0.465,0.311   c-0.117,0.253-0.171,0.514-0.157,0.783l-0.469,0.312v-0.157h-0.157c0.056-0.191,0.159-0.345,0.312-0.466l-0.312-0.314l0.157-0.157   c-0.105-0.102-0.209-0.205-0.311-0.311v-0.312l-0.157-0.157h0.311c0.057-0.189,0.161-0.347,0.312-0.469l-0.154-0.625l0.312-0.466   c-0.104,0-0.208,0-0.312,0v0.154H122.158L122.158,65.173z"/></g><text x="0" y="143" fill="#000000" font-size="5px" font-weight="bold" font-family="'Helvetica Neue', Helvetica, Arial-Unicode, Arial, Sans-serif">Created by Rflor</text><text x="0" y="148" fill="#000000" font-size="5px" font-weight="bold" font-family="'Helvetica Neue', Helvetica, Arial-Unicode, Arial, Sans-serif">from the Noun Project</text></svg>