<?xml version="1.0" encoding="utf-8"?>
<!-- Generated by IcoMoon.io -->
<!DOCTYPE svg PUBLIC "-//W3C//DTD SVG 1.1//EN" "http://www.w3.org/Graphics/SVG/1.1/DTD/svg11.dtd">
<svg version="1.1" xmlns="http://www.w3.org/2000/svg" xmlns:xlink="http://www.w3.org/1999/xlink" width="32" height="32" viewBox="0 0 32 32">
<path d="M12.172 0.051c0.125 0.096 0.162 0.206 0.143 0.375-0.014 0.122 0.044 0.303 0.135 0.377 0.209 0.169 0.163 0.309 0.049 0.501-0.376 0.637-0.316 1.202 0.142 1.737 0.192 0.224 0.413 0.278 0.683 0.214 0.264-0.062 0.528-0.134 0.795-0.179 0.147-0.024 0.31-0.031 0.451 0.009 0.357 0.099 0.642 0.005 0.862-0.277 0.134-0.171 0.286-0.212 0.492-0.173 0.267 0.050 0.496 0.134 0.734 0.295 0.403 0.272 0.893 0.233 1.355 0.106 0.084-0.023 0.142-0.14 0.212-0.213 0.208-0.216 0.511-0.366 0.512-0.729 0-0.013 0.019-0.029 0.032-0.038 0.163-0.119 0.255-0.42 0.495-0.314 0.117 0.051 0.166 0.3 0.209 0.469 0.085 0.328 0.123 0.67 0.224 0.992 0.041 0.131 0.179 0.248 0.301 0.331s0.28 0.113 0.394 0.156c-0.108 0.234-0.196 0.461-0.317 0.669-0.055 0.095-0.172 0.159-0.27 0.223-0.426 0.276-0.808 0.594-1.063 1.042-0.036 0.064-0.062 0.134-0.122 0.264 0.157-0.031 0.264-0.035 0.357-0.074 0.124-0.053 0.247-0.12 0.352-0.204 0.62-0.498 1.273-0.359 1.927-0.1 0.218 0.086 0.233 0.206 0.045 0.351-0.326 0.25-0.665 0.482-1.018 0.737 0.038 0.055 0.104 0.149 0.188 0.27 0.094-0.063 0.186-0.106 0.255-0.174 0.667-0.654 1.435-0.644 2.221-0.3 0.463 0.203 0.893 0.483 1.325 0.75 0.066 0.041 0.090 0.208 0.074 0.307-0.036 0.225-0.11 0.444-0.185 0.728 0.22-0.077 0.398-0.139 0.575-0.202 0.459-0.162 0.874-0.167 1.285 0.178 0.333 0.279 0.755 0.368 1.202 0.284 0.431-0.081 0.836-0.050 1.108 0.366 0.009 0.014 0.019 0.033 0.033 0.038 0.636 0.238 0.86 0.862 1.229 1.342 0.26 0.338 0.557 0.549 0.972 0.63 0.643 0.126 0.841 0.356 0.925 0.999 0.035 0.27 0.066 0.542 0.13 0.805 0.162 0.669-0.079 1.192-0.543 1.656-0.209 0.208-0.407 0.432-0.578 0.671-0.216 0.301-0.519 0.435-0.858 0.5-0.283 0.054-0.472 0.205-0.557 0.464-0.208 0.635-0.623 1.058-1.246 1.283-0.24 0.087-0.323 0.28-0.359 0.512-0.117 0.756-0.222 1.514-0.366 2.265-0.066 0.345-0.203 0.679-0.329 1.010-0.043 0.114-0.131 0.227-0.228 0.3-0.229 0.171-0.317 0.394-0.298 0.666 0.018 0.254-0.066 0.455-0.236 0.647-0.308 0.346-0.54 0.757-0.976 0.986-0.128 0.067-0.199 0.247-0.29 0.379-0.437 0.629-1.029 1.001-1.797 1.055-0.161 0.011-0.334-0.049-0.49-0.108-0.21-0.080-0.408-0.096-0.568 0.071-0.311 0.324-0.727 0.337-1.119 0.463-0.524 0.169-1.005 0.498-1.467 0.814-0.149 0.102-0.23 0.23-0.39 0.134-0.371 0.623-0.369 1.328-0.475 2.008-0.057 0.368-0.231 0.659-0.491 0.926-0.251 0.257-0.469 0.551-0.674 0.849-0.193 0.281-0.209 0.299-0.525 0.187-0.053-0.019-0.152 0.004-0.19 0.044-0.387 0.413-0.834 0.779-1.001 1.36-0.042 0.145-0.125 0.363-0.358 0.157-0.021-0.019-0.069-0.027-0.096-0.017-0.312 0.121-0.483 0.016-0.579-0.304-0.034-0.115-0.179-0.198-0.276-0.293-0.231-0.224-0.475-0.437-0.694-0.673-0.145-0.156-0.274-0.242-0.481-0.114-0.102 0.063-0.225 0.045-0.213-0.103 0.024-0.297-0.15-0.494-0.305-0.706-0.212-0.292-0.213-0.33 0.029-0.609 0.55-0.634 1.141-1.215 1.953-1.511 0.249-0.091 0.386-0.261 0.388-0.538 0.001-0.118 0.033-0.235 0.053-0.353 0.049-0.291-0.013-0.544-0.265-0.721-0.139-0.098-0.17-0.207-0.117-0.372 0.068-0.209 0.113-0.427 0.152-0.644 0.053-0.301-0.098-0.453-0.403-0.421-0.426 0.045-0.469 0.002-0.438-0.439 0.008-0.11 0.034-0.22 0.027-0.329-0.027-0.46-0.34-0.781-0.81-0.838-0.194-0.023-0.388-0.045-0.582-0.065-0.181-0.019-0.293-0.122-0.284-0.299 0.031-0.585 0.051-1.173 0.13-1.753 0.044-0.323 0.189-0.633 0.3-0.945 0.128-0.362 0.017-0.725-0.304-0.904-0.223-0.124-0.291-0.294-0.205-0.53 0.009-0.024 0.017-0.048 0.025-0.072 0.125-0.361 0.091-0.389-0.301-0.424-0.258-0.023-0.525-0.070-0.761-0.169-0.478-0.2-0.512-0.431-0.362-0.926 0.086-0.283 0.099-0.658-0.020-0.915-0.139-0.3-0.505-0.444-0.858-0.446-0.216-0.001-0.385-0.012-0.466-0.248-0.020-0.057-0.088-0.137-0.136-0.139-0.392-0.014-0.607-0.35-0.925-0.493-0.084-0.038-0.17-0.084-0.259-0.094-0.643-0.070-1.161-0.695-1.099-1.341 0.022-0.227 0.051-0.453 0.086-0.678 0.040-0.257-0.090-0.369-0.346-0.363-0.459 0.011-0.793 0.229-1.165 0.48-0.329 0.222-0.715 0.472-1.182 0.436-0.329-0.025-0.663 0.010-0.995 0.010-0.363 0-0.507-0.157-0.486-0.524 0.013-0.22 0.035-0.44 0.052-0.66 0-0.006-0.010-0.013-0.039-0.049-0.262 0.101-0.537 0.201-0.808 0.312-0.224 0.091-0.396 0.115-0.499-0.179-0.036-0.102-0.211-0.15-0.31-0.238-0.107-0.095-0.226-0.194-0.289-0.317-0.196-0.378-0.362-0.772-0.551-1.154-0.119-0.241-0.088-0.51 0.177-0.699 0.217-0.155 0.3-0.357 0.361-0.588 0.132-0.503 0.358-0.919 0.856-1.17 0.154-0.078 0.277-0.148 0.45-0.135 0.090 0.007 0.182-0.035 0.275-0.044 0.257-0.026 0.515-0.074 0.77-0.060 0.215 0.011 0.315-0.055 0.362-0.256 0.103-0.437 0.257-0.867 0.31-1.309 0.038-0.316 0.148-0.583 0.283-0.855 0.101-0.203 0.056-0.397-0.056-0.58-0.111-0.18-0.239-0.351-0.337-0.538-0.187-0.36-0.082-0.547 0.316-0.591 0.042-0.005 0.091 0.004 0.126-0.015 0.068-0.038 0.169-0.082 0.18-0.139 0.013-0.062-0.046-0.155-0.099-0.211-0.057-0.059-0.156-0.076-0.213-0.135-0.052-0.054-0.11-0.147-0.098-0.209 0.016-0.076 0.098-0.19 0.159-0.196 0.564-0.049 1.129-0.1 1.694-0.096 0.124 0.001 0.263 0.203 0.364 0.337 0.073 0.097 0.081 0.241 0.14 0.352 0.131 0.244 0.311 0.315 0.575 0.259 0.065-0.014 0.144-0.028 0.201-0.005 0.264 0.109 0.468-0.003 0.687-0.137 0.406-0.247 0.826-0.47 1.242-0.7 0.29-0.161 0.306-0.373 0.018-0.56-0.295-0.192-0.417-0.462-0.417-0.797-0-0.307 0.172-0.419 0.442-0.289 0.16 0.077 0.315 0.167 0.463 0.266 0.142 0.096 0.252 0.088 0.336-0.065 0.11-0.2 0.27-0.281 0.502-0.271 0.177 0.008 0.367 0.001 0.53-0.058 0.207-0.076 0.403-0.195 0.581-0.327 0.132-0.099 0.227-0.247 0.339-0.374 0.051 0 0.102 0 0.153 0z"></path>
</svg>
