<?xml version="1.0" encoding="utf-8"?>
<!-- Generated by IcoMoon.io -->
<!DOCTYPE svg PUBLIC "-//W3C//DTD SVG 1.1//EN" "http://www.w3.org/Graphics/SVG/1.1/DTD/svg11.dtd">
<svg version="1.1" xmlns="http://www.w3.org/2000/svg" xmlns:xlink="http://www.w3.org/1999/xlink" width="32" height="32" viewBox="0 0 32 32">
<path d="M0 12.475l0.352-0.351 0.213-0.072 0.281-0.281c0-0.071 0-0.142 0-0.213 0.15-0.302 0.366-0.564 0.636-0.774 0.093 0 0.186 0 0.279 0l0.141-0.072c0.071 0 0.142 0 0.213 0l0.071-0.14c0.117 0 0.235 0 0.352 0l0.14-0.070 0.071-0.21 0.142-0.142v-0.070c0.202-0.222 0.391-0.458 0.564-0.704l0.14-0.072 0.069 0.072c0.054-0.089 0.079-0.183 0.071-0.282 0.186-0.095 0.328-0.241 0.423-0.423l0.072-0.423-0.072-0.070 0.142-0.14v-0.143l-0.069-0.070 0.21-0.14h0.069l0.213-0.213c0.047 0 0.093 0 0.14 0l0.069-0.070 0.14 0.142v0.14l0.071 0.070h0.072v0.070c0.084 0.128 0.172 0.239 0.28 0.353v0.070l0.071 0.14 0.142 0.073c0 0.070 0 0.14 0 0.21-0.046 0.048-0.094 0.095-0.142 0.14v0.070l0.142-0.070v0.142l0.281-0.142v0.070l-0.069 0.072c0.054 0.070 0.125 0.117 0.212 0.14h0.281l0.071-0.070-0.071-0.070c0.060-0.168 0.186-0.293 0.354-0.353l0.21 0.070 0.213-0.21 0.14 0.070h0.070l0.142 0.070h0.212c0 0.094 0 0.187 0 0.281l-0.071 0.072 0.284 0.28c0.117 0 0.233 0 0.35 0 0.313 0.279 0.632 0.454 1.059 0.566l0.069 0.14h0.14c0 0.047 0 0.094 0 0.14 0.221 0.271 0.456 0.529 0.706 0.776 0 0.047 0 0.093 0 0.14l0.071 0.14h0.069c0 0.118 0 0.235 0 0.353 0.089-0.134 0.207-0.227 0.354-0.281l0.423 0.281-0.142 0.142c0 0.070 0 0.14 0 0.211l0.069 0.070c0.11-0.085 0.228-0.155 0.354-0.21l0.142-0.213h0.071c0.252 0.087 0.441 0.253 0.564 0.493l-0.071 0.213 0.071 0.14v-0.14l0.069 0.14h0.282l0.21 0.353c0.205 0.062 0.369 0.18 0.494 0.353h0.069l0.072-0.073h0.071v-0.070l-0.071-0.070v-0.14l0.212-0.142v-0.070l-0.071-0.070c0.050-0.173 0.144-0.314 0.282-0.423 0.099 0.008 0.193-0.016 0.281-0.070h-0.069l0.069-0.070h0.213c0.068 0.055 0.115 0.124 0.141 0.21h0.423l0.423-0.21c0.284-0.042 0.542 0.005 0.773 0.14l0.213 0.282 0.141 0.070v-0.070l0.069 0.070h0.071v0.070l0.072 0.070 0.069-0.070v0.070l0.071-0.070v0.070h0.069c0 0.048 0 0.095 0 0.142l0.14-0.072h0.073l0.14-0.070h0.069c0-0.047 0-0.094 0-0.14h-0.069v-0.283l0.704-0.21c0.047-0.047 0.094-0.094 0.142-0.14v-0.070l0.069-0.142h0.071l0.069 0.070c0.048-0.046 0.094-0.093 0.141-0.14h0.072v-0.070l0.14-0.070v-0.070h0.141v0.14l0.069 0.070 0.072-0.14 0.071 0.070h0.139l0.14-0.070 0.143 0.070c0.046-0.047 0.093-0.094 0.14-0.14l-0.071-0.072v-0.070l0.14 0.070h0.069c0.084-0.126 0.176-0.241 0.284-0.351v0.070l0.070-0.070 0.071 0.070v-0.070h0.069l0.142-0.072 0.071 0.072h0.069v0.070h0.071v-0.070l0.069 0.070 0.213-0.070v-0.072l-0.143-0.070v-0.14l-0.069-0.070h-0.14c0-0.071 0-0.142 0-0.213l-0.069-0.070v-0.14c0.117 0 0.235 0 0.352 0l0.14-0.14v-0.143h0.071l0.070-0.070 0.071-0.21c0.048 0 0.094 0 0.142 0l0.069-0.070c0.141 0 0.282 0 0.423 0v-0.072c0.116-0.039 0.209-0.109 0.281-0.21v-0.070l0.071-0.070-0.071-0.142-0.141-0.070-0.069-0.14 0.069-0.14 0.423-0.142 0.212-0.281 0.352-0.070 0.284 0.070 0.139-0.143c0.094 0 0.19 0 0.284 0v-0.070c0.086-0.024 0.156-0.071 0.21-0.14 0.071 0 0.142 0 0.213 0l0.069-0.14v-0.072c0.047 0 0.093 0 0.14 0l0.071-0.070 0.069 0.070 0.282-0.070 0.14 0.142c0.071 0 0.142 0 0.213 0l0.069-0.142 0.14 0.070 0.141-0.14h0.072l0.069 0.14v-0.070 0.142l-0.069 0.14 0.069 0.070-0.069 0.070h0.069c0.101 0.092 0.223 0.165 0.354 0.213l0.141-0.070c0.047 0 0.093 0 0.14 0l0.069-0.073 0.143 0.073 0.069-0.142h0.21l0.143-0.14c0.070 0 0.14 0 0.21 0 0.070-0.071 0.14-0.142 0.21-0.213h0.213c0.025-0.086 0.072-0.156 0.14-0.211 0.048 0 0.094 0 0.142 0l0.071-0.14h0.141c0.045-0.049 0.092-0.096 0.14-0.142v0.142l0.142-0.142h0.141v0.070l0.069-0.070v0.070l0.071 0.073v-0.073h0.142v-0.070c0.070 0 0.14 0 0.21 0l-0.069 0.142h0.069v0.070l0.071 0.070h0.211v-0.069c0.094 0 0.187 0 0.281 0l0.071 0.14c0.403 0.154 0.842 0.253 1.269 0.283l0.282 0.14 0.14-0.070 0.141 0.070c0.164 0 0.328 0 0.492 0l0.215 0.14c0 0.071 0 0.142 0 0.213l-0.14 0.14c-0.048 0.14-0.096 0.281-0.142 0.423-0.183 0.174-0.347 0.361-0.494 0.563-0.061 0.112-0.084 0.229-0.070 0.353l-0.069 0.070h0.069c-0.070 0.071-0.14 0.142-0.21 0.213 0 0.047 0 0.093 0 0.14l-0.143 0.14v0.070l-0.139 0.073v0.21l-0.071 0.070h-0.069c0 0.094 0 0.188 0 0.283l-0.071 0.14c-0.087 0.025-0.158 0.071-0.213 0.14v0.072l-0.070 0.14-0.14 0.070c0.007 0.1-0.017 0.194-0.072 0.283-0.089 0.133-0.206 0.227-0.35 0.28l-0.142 0.213c-0.086 0.025-0.157 0.071-0.211 0.14h0.071l-0.212 0.070-0.071 0.070v0.070l-0.212 0.072c-0.301 0.291-0.483 0.642-0.563 1.057h-0.142v0.14h-0.069c-0.134 0.089-0.228 0.206-0.281 0.353l-0.282 0.211v0.213h-0.14l-0.143 0.14v0.070c-0.116 0.041-0.208 0.112-0.279 0.213h-0.071c-0.181 0.228-0.34 0.455-0.492 0.704 0 0.117 0 0.235 0 0.353h-0.143l-0.14 0.213-0.069-0.072h0.069v-0.070c-0.121-0.006-0.238 0.018-0.352 0.070l-0.281 0.352h-0.072c-0.132 0.090-0.226 0.208-0.281 0.353l0.071-0.070c-0.399 0.402-0.714 0.884-0.917 1.41-0.55 0.609-1.060 1.315-1.479 2.043v0.142l-0.141 0.14-0.143-0.070c-0.22 0.252-0.433 0.511-0.633 0.774v0.073l-0.14-0.073c-0.215 0.090-0.361 0.265-0.423 0.495-0.473 0.293-0.899 0.718-1.199 1.197 0 0.118 0 0.235 0 0.353l0.071 0.070v0.070l-0.071 0.070h-0.070c-0.285 0.489-0.579 1.003-0.847 1.482-0.189-0.248-0.335-0.543-0.423-0.846h-0.069c-0.109-0.053-0.203-0.123-0.282-0.213l-0.211 0.142v0.070c-0.116 0.023-0.236 0.047-0.352 0.070v-0.070h-0.212l-0.069 0.070-0.213-0.141 0.071-0.282c-0.075-0.205-0.1-0.416-0.071-0.633-0.091-0.166-0.186-0.33-0.282-0.493l-0.21-0.143v-0.070c-0.048-0.046-0.094-0.093-0.141-0.141-0.048 0-0.096 0-0.143 0l-0.139 0.141h-0.211l-0.073 0.070c-0.070 0-0.14 0-0.21 0l-0.141-0.070h-0.069c-0.073-0.101-0.168-0.171-0.284-0.211h-0.069l0.069-0.072v-0.070c-0.208-0.068-0.413-0.113-0.634-0.14-0.118-0.093-0.236-0.187-0.352-0.283 0-0.070 0-0.14 0-0.211l-0.069-0.14h-0.142l-0.141-0.142-0.354-0.070c-0.077-0.19-0.198-0.36-0.354-0.493-0.059-0.114-0.082-0.229-0.069-0.353l-0.069-0.070c0-0.164 0-0.329 0-0.493l-0.071-0.14v-0.070l-0.282-0.142c-0.047 0-0.093 0-0.14 0l-0.21 0.142c-0.071 0-0.142 0-0.213 0-0.313-0.347-0.671-0.656-1.057-0.916-0.304-0.063-0.607-0.087-0.915-0.070l-0.071-0.073v-0.070c-0.311-0.452-0.709-0.799-1.198-1.056-0.259-0.001-0.514-0.105-0.704-0.283-0.488-0.102-0.987-0.173-1.482-0.21-0.324-0.156-0.629-0.344-0.917-0.563v-0.072c-0.046-0.094-0.093-0.188-0.14-0.28-0.254-0.17-0.541-0.267-0.846-0.283l-0.281 0.142h-0.073l-0.069-0.213c-0.102-0.071-0.172-0.166-0.21-0.283-0.071 0-0.142 0-0.213 0v-0.14h-0.071c-0.178-0.126-0.342-0.267-0.492-0.423-0.099-0.008-0.192 0.016-0.281 0.070-0.25-0.103-0.509-0.173-0.776-0.211l-0.141-0.14 0.071-0.213c-0.096-0.092-0.19-0.185-0.282-0.28-0.070 0-0.141 0-0.212 0l-0.142-0.142h-0.071l-0.069-0.070v-0.070c-0.139-0.023-0.284-0.047-0.423-0.070l-0.069 0.070-0.213-0.070-0.14 0.070-0.21-0.213h-0.215l-0.071-0.070v-0.14l0.071-0.070v-0.14l-0.071-0.073-0.069-0.21-0.283-0.284z"></path>
</svg>
