<?xml version="1.0" encoding="utf-8"?>
<!-- Generated by IcoMoon.io -->
<!DOCTYPE svg PUBLIC "-//W3C//DTD SVG 1.1//EN" "http://www.w3.org/Graphics/SVG/1.1/DTD/svg11.dtd">
<svg version="1.1" xmlns="http://www.w3.org/2000/svg" xmlns:xlink="http://www.w3.org/1999/xlink" width="32" height="32" viewBox="0 0 32 32">
<path d="M0.825 6.969c8.926 4.585 19.52 7.665 28.937 11.491 0.75 0.278 1.51 0.598 2.239 0.943l-0.029 0.030v0.058h-0.029l0.029 0.059h-0.029v0.029h0.029v0.029h-0.029l-0.029 0.059c-0.020-0.020-0.039-0.039-0.058-0.059v0l-0.059 0.030 0.029 0.029-0.029 0.058-0.029-0.029v0.058c-0.062-0.009-0.121 0.001-0.177 0.029l-0.029 0.029c-0.020 0-0.039 0-0.059 0v0.030l-0.029 0.029h-0.030l-0.029 0.029h-0.029v0.029h-0.029v0.058l-0.029-0.029-0.058 0.029v0.030l-0.060 0.029c0 0.020 0 0.039 0 0.058h-0.059l-0.029 0.059h-0.059c0 0.029 0 0.059 0 0.089l-0.059 0.029v-0.029c-0.039 0-0.078 0-0.118 0l0.029 0.058v0.029l-0.029-0.029-0.030 0.058v-0.029 0.060l-0.029-0.030-0.029 0.030c0 0.020 0 0.039 0 0.058h-0.058l-0.029 0.029 0.029 0.029v0.029l-0.059-0.029-0.029 0.029v0.029h-0.029l-0.029 0.030-0.029 0.117-0.029 0.029v-0.059l-0.029 0.059h-0.030v-0.028l-0.029 0.029-0.058 0.059v-0.029 0.059l-0.029 0.029h0.058c-0.020 0.019-0.039 0.039-0.058 0.058v-0.029l-0.030 0.029v0.059l-0.029 0.029v0.029l-0.030-0.029v0.029h-0.029l-0.029 0.029-0.029-0.029v0.029h-0.029l-0.029 0.029h0.029c-0.060 0.015-0.109 0.044-0.148 0.089h-0.029v-0.029c-0.020 0-0.040 0-0.059 0l-0.059 0.029h-0.062l-0.029 0.029v0.059l0.029 0.029h-0.029l-0.029 0.029h-0.030c-0.036 0.011-0.065 0.031-0.088 0.060h-0.059l-0.059-0.060h-0.088l-0.029-0.029h-0.060l-0.029 0.029-0.088 0.030c-0.023-0.030-0.052-0.050-0.089-0.059l-0.029 0.029-0.029-0.029v0.029l-0.059-0.029c-0.020 0.020-0.040 0.039-0.059 0.059l0.059 0.059-0.029 0.058 0.029 0.059v0.029h-0.029l-0.030 0.029-0.059-0.029h-0.059v0.059l-0.059-0.059-0.059 0.029c-0.036-0.010-0.065-0.030-0.088-0.059h-0.029l-0.059 0.088 0.030 0.058v0.118c-0.020 0-0.040 0-0.059 0l-0.029 0.029v0.059l-0.029 0.030-0.118 0.029c-0.023 0.028-0.052 0.048-0.088 0.058l-0.059-0.029-0.058 0.029v0.058c-0.039 0-0.078 0-0.118 0-0.047 0.026-0.096 0.046-0.148 0.059-0.072 0.072-0.124 0.165-0.147 0.265-0.072 0.082-0.134 0.153-0.206 0.236l-0.089-0.058-0.117 0.501-0.029-0.030-0.029 0.030-0.030-0.030v0.030h-0.029v-0.030l-0.029 0.030v-0.030l-0.029-0.058h-0.029l-0.029-0.029c-0.020 0-0.040 0-0.060 0v-0.029h-0.058v-0.029l-0.029 0.029v-0.058h-0.059v-0.029l-0.030 0.029v-0.029c-0.023-0.029-0.052-0.049-0.088-0.059l-0.029 0.029-0.029-0.029h-0.030l-0.029-0.029c-0.039 0-0.078 0-0.118 0l-0.029 0.029v-0.029h-0.060l-0.029 0.058-0.030-0.029-0.029 0.029h-0.058l-0.059-0.029-0.088 0.059c-0.039-0.019-0.079-0.039-0.118-0.059v0.029l-0.029-0.029v0.029l-0.029-0.029-0.029 0.029h-0.030v0.059c-0.029 0-0.058 0-0.088 0l-0.058 0.030v0.058l-0.030-0.029c-0.019 0.047-0.049 0.086-0.089 0.117h-0.029l-0.029 0.059c0 0.030 0 0.058 0 0.088h0.029l0.029 0.029-0.029 0.029v0.030l-0.029 0.029 0.029 0.029c-0.023 0.029-0.052 0.049-0.088 0.058l-0.030 0.060-0.059 0.029v0.029l-0.059 0.029-0.059 0.088h-0.030l-0.029 0.089h-0.059l-0.029 0.088h-0.029l0.029 0.029-0.029 0.089-0.059 0.029-0.029 0.059c0 0.029 0 0.059 0 0.089l-0.029 0.058c-0.051 0.031-0.096 0.058-0.148 0.089l-0.029 0.059c-0.049 0-0.099 0-0.148 0-0.030 0.039-0.059 0.078-0.088 0.118l-0.060-0.059c-0.064-0.004-0.122 0.016-0.176 0.059l-0.030 0.058 0.030 0.029c-0.020 0.019-0.040 0.039-0.059 0.058v0.030c-0.020-0.020-0.039-0.039-0.059-0.058h-0.029l-0.059-0.059-0.059 0.059c-0.103-0.008-0.192 0.021-0.265 0.088v0.059c-0.042 0.048-0.091 0.087-0.147 0.118v0.029c-0.259 0.046-0.514 0.106-0.766 0.177l0.029-0.088-0.058-0.059 0.029-0.058-0.058-0.030c-0.020 0-0.040 0-0.059 0-0.020-0.019-0.039-0.039-0.059-0.058v-0.029l-0.029-0.029 0.029-0.059-0.029-0.030 0.029-0.058h0.029c0-0.020 0-0.039 0-0.058l0.029-0.059h-0.029l-0.029 0.030-0.029-0.030h0.029v-0.029l-0.058 0.029-0.030-0.029v-0.030l-0.029 0.030-0.060-0.030 0.029-0.029h-0.029v0.029h-0.059l0.029 0.030c-0.020 0-0.039 0-0.059 0l-0.029 0.029-0.030-0.029 0.030-0.030h-0.030l-0.030 0.030-0.029-0.030-0.059 0.030v0.059h-0.029l-0.030-0.030h-0.030l-0.029 0.030h0.029v-0.030l0.030 0.059h-0.030l-0.029-0.029v-0.030h-0.030l-0.058 0.059c-0.049-0.016-0.089-0.046-0.119-0.089l-0.058 0.029v-0.029h-0.036l0.029-0.058c-0.030 0-0.059 0-0.089 0l-0.058 0.029h-0.029l0.029 0.059h-0.058v-0.029l-0.029 0.029-0.030-0.029h-0.029l0.029-0.030v-0.029h-0.058v-0.030h-0.029l-0.029-0.029-0.030 0.029-0.030-0.029-0.059 0.029-0.029-0.089-0.029 0.059-0.030-0.029-0.059 0.029-0.060-0.029-0.029 0.058-0.029-0.058h-0.059v-0.030l-0.030 0.030h-0.029l0.029-0.030h-0.029v-0.029l-0.059 0.029c-0.036-0.010-0.066-0.030-0.089-0.058h-0.058l-0.059 0.029c-0.029-0.029-0.059-0.059-0.089-0.088l-0.029 0.058-0.058-0.029h0.029v-0.029l-0.088 0.029-0.030 0.029h0.030l-0.030 0.029-0.029-0.058h-0.029v0.029l-0.029-0.029-0.029 0.029-0.089-0.029v-0.029l-0.029 0.058h-0.030v-0.029l-0.029 0.029h-0.030l0.030-0.058h-0.059v0.029l-0.060-0.029-0.029 0.058v-0.029h-0.029l-0.030-0.059-0.029 0.030 0.029 0.029h-0.029l-0.030-0.059-0.029 0.030-0.029-0.059h-0.029l-0.029 0.059h-0.089v0.058l-0.029-0.029v0.029h-0.029l-0.029-0.029-0.029 0.029v0.029l-0.030-0.029h-0.059v-0.058l-0.029 0.029-0.059-0.029h-0.088v0.058c-0.020 0-0.040 0-0.059 0v-0.029l-0.148-0.029c0 0.019 0 0.039 0 0.058l-0.059-0.029h-0.058v0.058l-0.030-0.029-0.059 0.029-0.118-0.029-0.029 0.058-0.030-0.029c-0.037 0.010-0.066 0.030-0.088 0.059l-0.029-0.030-0.059 0.059-0.030-0.059-0.059 0.059-0.029-0.029 0.029-0.030h-0.029c-0.020-0.039-0.039-0.078-0.058-0.117h-0.030v0.029l-0.029-0.029v-0.030l-0.058 0.030-0.029-0.030h-0.029v-0.030h-0.060v0.030c-0.039 0-0.078 0-0.117 0l-0.060-0.030-0.029 0.030-0.029-0.030-0.029 0.030-0.029-0.030-0.089-0.030c-0.037 0.010-0.066 0.030-0.088 0.059l-0.029-0.030c-0.039 0-0.079 0-0.118 0v0.059c-0.020 0-0.039 0-0.059 0l-0.029 0.058-0.030-0.029-0.029 0.058-0.029-0.029-0.029 0.058v-0.029c-0.020 0.019-0.039 0.039-0.058 0.059h-0.060v0.029l-0.029-0.029v0.029h-0.058l-0.030 0.029h-0.029v0.030c-0.030 0-0.059 0-0.089 0v-0.029l-0.029 0.030v-0.030l-0.030 0.058h-0.029l0.029-0.029-0.059 0.029v0.030h-0.030v0.029h-0.029l-0.029 0.059h-0.032c-0.022 0.029-0.052 0.048-0.088 0.058v0.030l-0.030-0.030v0.030h-0.029l-0.029-0.030v0.030h-0.059v0.029l-0.029 0.030-0.059-0.030c-0.029 0-0.059 0-0.088 0l-0.029-0.029c-0.037 0.022-0.077 0.032-0.118 0.029l-0.029 0.059-0.029-0.030h-0.029l-0.030 0.030-0.088 0.030-0.059-0.030-0.059 0.030c-0.020-0.020-0.040-0.040-0.058-0.059l-0.088 0.030-0.030-0.030v-0.030h-0.029l-0.059-0.029-0.029 0.029v-0.029l-0.059-0.030-0.030 0.030-0.029-0.030h-0.029l0.029-0.029-0.058-0.118-0.089-0.058-0.029-0.088-0.059-0.030h-0.029l-0.029-0.058h-0.059v-0.029l-0.059-0.029-0.383 0.264c-0.058-1.784-0.049-3.587 0.029-5.363h0.060l0.029 0.029 0.029-0.088 0.029-0.029 0.088 0.029 0.060-0.029 0.029-0.059v-0.088h0.029v-0.059l0.029-0.029-0.029-0.030 0.029-0.029h-0.029l-0.058-0.148h-0.029v-0.058h-0.060l-0.058-0.058 0.029-0.029-0.059-0.029-0.058-0.147c0.029-0.023 0.049-0.053 0.058-0.089h-0.029l0.029-0.029v-0.059l-0.058-0.030v-0.029l0.058-0.030-0.029 0.089h0.029l0.029-0.029 0.058 0.059h0.029l0.030-0.029-0.030-0.058h-0.058v-0.030l0.029-0.029-0.029-0.058h0.029l0.029 0.029c0.029 0 0.059 0 0.089 0v-0.030h-0.029v-0.089l0.058 0.030v-0.059h0.029l0.059-0.059 0.029 0.059v-0.029c-0.037-0.045-0.066-0.094-0.089-0.147l0.029-0.029 0.030 0.029h0.029l-0.029-0.088c0.020 0 0.039 0 0.059 0l0.029-0.089-0.029 0.030-0.029-0.030-0.059 0.030v0.029h-0.029v-0.029l-0.058 0.029v-0.029l-0.029-0.030-0.029 0.059h-0.030v-0.029c-0.020 0-0.039 0-0.058 0v0.029l-0.059 0.029h-0.029l-0.029 0.059c-0.020 0-0.040 0-0.060 0 0 0.029 0 0.059 0 0.089l-0.029-0.029c-0.020 0.019-0.039 0.039-0.059 0.058 0 0.029 0 0.058 0 0.088l-0.059-0.029 0.030 0.029h-0.060c0 0.020 0 0.039 0 0.059v-0.030l-0.029 0.030v0.029l-0.030-0.029-0.029 0.059h-0.030v0.029l-0.029-0.029-0.059 0.058h-0.030c-0.020 0.019-0.039 0.039-0.058 0.059v0 0.030l-0.029 0.029-0.059-0.058c-0.019 0.019-0.039 0.039-0.058 0.058h0.029l-0.029 0.029v0.029h-0.029l0.029 0.029v0.060c-0.020 0-0.039 0-0.059 0v0.029l-0.089 0.029v0.029h0.029c-0.030 0.029-0.059 0.059-0.088 0.089h-0.059l-0.030 0.029-0.029-0.029v0.029l-0.029-0.029v0.059l-0.058 0.029v-0.029c-0.058 0.029-0.107 0.068-0.148 0.117v0.030h-0.029l-0.029 0.117h-0.029l-0.030 0.060h-0.030l-0.029 0.058h-0.118l-0.030 0.058-0.029-0.029v0.029c-0.052 0.044-0.081 0.103-0.088 0.177l-0.029-0.029c0 0.049 0 0.099 0 0.148h-0.118l-0.058-0.029-0.029 0.029h-0.059l-0.029 0.029h-0.058c-0.148 0.097-0.296 0.195-0.443 0.294l-0.029 0.118c-0.036 0.053-0.072 0.1-0.117 0.148v0.088c-0.072 0.002-0.14-0.008-0.206-0.029v0.059c-0.090 0.006-0.185 0.028-0.266 0.059l-0.088-0.089-0.059 0.029v0.059h-0.029l-0.031-0.029-0.059 0.089c-1.189 0-2.377 0-3.566 0v-0.058l0.089-0.030 0.029-0.059c0-0.039 0-0.078 0-0.117-0.036-0.011-0.065-0.031-0.088-0.060l0.029-0.058 0.059-0.029 0.030-0.089 0.058-0.029c-0.029-0.029-0.059-0.058-0.088-0.088v-0.119l-0.029-0.029v-0.030c0.037-0.057 0.086-0.096 0.147-0.118-0.079-0.039-0.157-0.078-0.236-0.118h-0.059c-0.036-0.011-0.065-0.031-0.088-0.059l-0.030 0.029-0.059-0.058h-0.059c0.029-0.116 0.049-0.234 0.059-0.354l0.029-0.059-0.059-0.088 0.029-0.118c-0.020 0-0.039 0-0.059 0l-0.089-0.058 0.030-0.266-0.059-0.029-0.088 0.029-0.060-0.029-0.058 0.029h-0.029l-0.059-0.058v-0.029h-0.029c0-0.029 0-0.059 0-0.089h-0.030l-0.030-0.029h-0.029l-0.029-0.029-0.029 0.029h-0.029l-0.030-0.029h-0.030l-0.059-0.058-0.029 0.029c-0.039 0-0.079 0-0.118 0v0h-0.030l-0.029 0.029-0.089-0.029v0.029l-0.029-0.029c-0.058 0.010-0.119 0.020-0.177 0.029l-0.029-0.029v-0.029h-0.029l-0.029-0.029c-0.020 0-0.039 0-0.059 0v0.029-0.059l-0.030 0.030v-0.030h-0.029l-0.029-0.029v0.029l-0.058-0.029h-0.059l-0.030-0.029-0.029 0.029v-0.029h-0.029v-0.030l-0.029 0.029-0.029-0.029-0.029 0.029c-0.020 0-0.040 0-0.060 0l-0.029-0.029v-0.029l-0.059 0.029v-0.029h-0.029l-0.029 0.029v-0.029h-0.030c-0.036-0.010-0.066-0.030-0.088-0.059l0.029-0.029v-0.029c-0.678 0-1.355 0-2.033 0l0.058-0.058c0.022-0.048 0.032-0.097 0.030-0.148 0.046-0.026 0.095-0.046 0.147-0.058l0.029-0.059 0.059-0.029 0.029-0.088 0.118-0.029v-0.029c-0.010-0.036-0.030-0.066-0.059-0.089l0.088-0.029 0.089-0.148 0.088-0.059 0.029 0.059h0.029l0.089-0.059v-0.029c0.048-0.019 0.086-0.048 0.117-0.089v-0.029l-0.088-0.029-0.029-0.029c0.211-0.071 0.328-0.22 0.324-0.442l0.030-0.060-0.030-0.058v-0.119l-0.029-0.058v-0.029c0.029-0.023 0.049-0.053 0.060-0.089l-0.118-0.029-0.088-0.265c-0.047-0.026-0.096-0.035-0.147-0.029v-0.118l-0.029 0.089-0.031 0.029-0.059-0.060c-0.024-0.057-0.035-0.116-0.029-0.177l-0.029-0.029v-0.088h-0.058l-0.060-0.089v-0.117l-0.088-0.089c-0.005-0.092-0.025-0.18-0.059-0.265l-0.058-0.029-0.059-0.089c-0.052 0.006-0.101-0.004-0.148-0.029l-0.059 0.029h-0.058l-0.030-0.029h-0.029l-0.029-0.058h-0.030l-0.058-0.060v-0.088l-0.029-0.029-0.030 0.029v-0.058l-0.029-0.029-0.058 0.029-0.029-0.118 0.029-0.029 0.029-0.118c-0.021-0.133-0.061-0.261-0.118-0.383h-0.089l-0.029-0.029c-0.052 0.006-0.101-0.004-0.148-0.029l-0.029 0.029v-0.029l-0.059 0.029c-0.054-0.083-0.092-0.169-0.118-0.265-0.039 0-0.079 0-0.118 0l-0.059-0.058c-0.048-0.023-0.097-0.033-0.148-0.030v-0.058h-0.058l-0.059-0.029-0.089-0.118 0.029-0.147-0.059-0.059 0.030-0.117c-0.022-0.046-0.051-0.085-0.088-0.118v-0.029l-0.060-0.029-0.029-0.089-0.059-0.029c0.041-0.086 0.040-0.177 0-0.265l0.029-0.089-0.029-0.117c-0.048-0.042-0.088-0.091-0.118-0.148l-0.058-0.029c0.028-0.056 0.038-0.115 0.029-0.177l-0.088-0.089c-0.047 0.026-0.096 0.037-0.148 0.030l-0.029-0.148-0.060-0.059h-0.088l-0.029 0.030h-0.030c-0.019-0.021-0.039-0.040-0.059-0.059v-0.088c-0.023-0.061-0.062-0.11-0.118-0.148l0.029-0.029h0.058l-0.058-0.118 0.029-0.058h0.029l0.060 0.088c0.048 0 0.098 0 0.147 0 0.036-0.045 0.066-0.094 0.089-0.147-0.006-0.080 0.004-0.159 0.029-0.236l-0.029-0.088c-0.086-0.035-0.167-0.085-0.236-0.148-0.104-0.050-0.212-0.069-0.325-0.059-0.060-0.055-0.101-0.126-0.118-0.206h-0.088l-0.089-0.089-0.029-0.117-0.088-0.029c-0.089-0.088-0.178-0.177-0.266-0.266h-0.059l-0.029-0.147c0.061 0.008 0.12-0.002 0.177-0.029l0.088-0.147v-0.059l0.059-0.058-0.059-0.059v-0.148c-0.096-0.079-0.15-0.2-0.147-0.324l0.029-0.029c0.029 0.023 0.049 0.053 0.059 0.089l0.030-0.030h0.029l0.089 0.089 0.177 0.029c0.027-0.046 0.046-0.095 0.059-0.148l0.118-0.058c0.051-0.006 0.1 0.004 0.146 0.029l0.119-0.059h0.029c0 0.029 0 0.058 0 0.088h0.029c0.107-0.038 0.185-0.106 0.236-0.206v-0.029l-0.058-0.118v-0.147c-0.056-0.054-0.114-0.103-0.177-0.148l-0.029-0.148c-0.051-0.061-0.096-0.116-0.148-0.177v-0.029l-0.029-0.059z"></path>
</svg>
