<?xml version="1.0" encoding="utf-8"?>
<!-- Generated by IcoMoon.io -->
<!DOCTYPE svg PUBLIC "-//W3C//DTD SVG 1.1//EN" "http://www.w3.org/Graphics/SVG/1.1/DTD/svg11.dtd">
<svg version="1.1" xmlns="http://www.w3.org/2000/svg" xmlns:xlink="http://www.w3.org/1999/xlink" width="32" height="32" viewBox="0 0 32 32">
<path d="M-0 22.2c0.056-0.047 0.102-0.106 0.135-0.172v-0.025l-0.024-0.012c0-0.020 0-0.041 0-0.061l-0.025-0.049v-0.013c0.011-0.035 0.032-0.064 0.061-0.086 0.009-0.030 0.016-0.055 0.024-0.086h0.012c0.016-0.013 0.028-0.030 0.037-0.049l0.024-0.012c0.019-0.027 0.035-0.056 0.049-0.086 0.033-0.026 0.064-0.049 0.098-0.073 0.017 0 0.033 0 0.049 0l0.012-0.037c0.031-0.040 0.074-0.062 0.122-0.061l0.012-0.012h0.037l0.037-0.025h0.012l0.024-0.012c0.022 0.003 0.042-0.002 0.061-0.012v-0.037c0.009-0.012 0.022-0.020 0.037-0.024l0.012-0.024h0.025l0.012 0.012 0.012-0.012c0.050-0.005 0.096-0.008 0.147-0.012l0.025-0.012v-0.012l0.024-0.012v0.012l0.013 0.012 0.024-0.025-0.012-0.012 0.012-0.012v-0.013h0.012l0.012-0.012v-0.025l0.024-0.012 0.013 0.012h0.012c0.009-0.019 0.022-0.035 0.037-0.049l-0.012-0.012 0.012-0.012 0.012-0.037 0.012-0.012v-0.013l0.012-0.012-0.012-0.037 0.012-0.012h0.012v-0.025l-0.012-0.025-0.025-0.012-0.012-0.049-0.012-0.012-0.012-0.061-0.012 0.012v-0.024l-0.012-0.025c0-0.017 0-0.033 0-0.049l-0.037-0.037h-0.012l-0.012-0.037c-0.015-0.005-0.027-0.013-0.037-0.025 0-0.028 0-0.057 0-0.086l-0.061-0.061c0-0.025 0-0.049 0-0.074l0.037-0.037-0.012-0.012 0.012-0.013-0.012-0.073h0.012l0.024-0.025v-0.012l0.013-0.012h0.012l0.025-0.012c0.008-0.040 0.012-0.081 0.012-0.123l0.012-0.024 0.012 0.012c0-0.020 0-0.041 0-0.061l0.025-0.024c0-0.008 0-0.016 0-0.024l0.012-0.012c0.022 0.002 0.042-0.002 0.061-0.012v-0.049l0.012-0.012h0.024v-0.013l0.037-0.012 0.024-0.037h0.012v-0.037h0.012l0.012-0.037h0.013l0.024-0.012v-0.025l0.036-0.012c0-0.008 0-0.016 0-0.024l0.012-0.012v-0.012h0.013c0-0.021 0-0.041 0-0.061l0.025-0.012 0.012 0.012 0.012-0.012-0.012-0.024v-0.025l-0.012-0.012c-0.003-0.022 0.002-0.042 0.012-0.061l0.025-0.012-0.013-0.024 0.012-0.012c0-0.016 0-0.033 0-0.049l-0.012-0.024c-0.006-0.047 0.003-0.094 0.025-0.135l-0.012-0.012 0.025-0.012 0.012-0.037 0.012-0.012v-0.012l0.012-0.024v-0.025l0.025-0.012c0.007-0.023 0.011-0.048 0.013-0.073l0.024-0.025v-0.012c0.008-0.008 0.016-0.016 0.025-0.024v-0.013l0.012-0.012c0-0.012 0-0.025 0-0.037l-0.012-0.025 0.012-0.024c0-0.020 0-0.041 0-0.061h-0.012l0.012-0.012-0.025-0.037v-0.012h-0.012v-0.013c0.008-0.008 0.016-0.016 0.025-0.024h0.012l0.013-0.024h0.024v0.012l0.037-0.012 0.012-0.012 0.013-0.049 0.024 0.012c0.020-0.008 0.036-0.020 0.049-0.037l0.013 0.012c0.012-0.010 0.020-0.022 0.024-0.037l0.025 0.012v-0.012l0.012-0.012-0.012-0.012v-0.012h0.025v-0.012h0.024v-0.012l0.037 0.024 0.025-0.012h0.012l0.025 0.012 0.012-0.024h0.012v0.012c0.022-0.009 0.043-0.022 0.061-0.037v-0.037l0.012-0.012v-0.012l-0.012-0.013c0.015-0.005 0.027-0.012 0.037-0.024h0.025c0.016-0.016 0.033-0.033 0.049-0.049 0.012 0 0.024 0 0.037 0l0.012-0.037h0.025v0.024h0.012l0.012-0.024 0.012 0.012v0.012h0.012c0-0.012 0-0.024 0-0.037l0.037-0.012v-0.025l-0.013-0.012v-0.012l0.025-0.012v0.024l0.012-0.012 0.012 0.025h0.012v-0.025h0.024v-0.024l-0.012-0.012h0.012l0.012 0.012 0.025-0.024h0.024c0-0.025 0-0.049 0-0.074l0.012-0.013 0.013-0.037h0.037l0.025-0.024h0.025v-0.012l-0.012-0.012c0.012 0 0.025 0 0.037 0l0.012-0.012 0.049 0.012-0.012 0.012v0.025l0.025-0.012 0.025-0.049 0.012 0.024c0.019-0.011 0.040-0.019 0.061-0.024v-0.025l0.012-0.012 0.025 0.024 0.012-0.012-0.012-0.012 0.049-0.025h0.012v-0.012c0.015-0.004 0.027-0.012 0.037-0.024l0.025 0.012 0.049-0.037 0.012-0.025 0.025-0.012-0.012-0.012 0.037-0.037 0.037-0.012 0.012-0.024v-0.022l0.037 0.012c0.008 0.008 0.016 0.016 0.025 0.025 0-0.012 0-0.025 0-0.037h0.037c0.004-0.015 0.012-0.028 0.025-0.037l0.012 0.012 0.037-0.012-0.012-0.012 0.012-0.012-0.012-0.012 0.012-0.012h0.012l0.012-0.012v-0.012h0.013v-0.012l-0.013-0.024 0.037-0.012v0.025l0.012-0.012v-0.025l0.012 0.012 0.012-0.012v-0.013l0.012-0.012 0.025 0.012c0.034-0.032 0.076-0.052 0.122-0.061h0.025l0.012-0.012 0.012 0.025v0.012h0.025l0.012-0.012c0-0.012 0-0.025 0-0.037l0.013-0.012 0.012 0.025v0.025h0.025l0.024 0.024h0.013l0.024-0.012 0.037 0.012 0.025-0.024 0.012 0.024 0.049-0.037-0.012-0.012c0.008-0.008 0.016-0.017 0.025-0.025 0.002 0.022-0.002 0.042-0.013 0.061l-0.024 0.012v0.012c0.015 0.005 0.027 0.013 0.037 0.025h0.024c0.042-0.021 0.071-0.054 0.086-0.099l0.024 0.012v-0.025l0.008-0.012c0.022 0.009 0.043 0.022 0.061 0.037h0.012v-0.012l-0.024-0.024v-0.037c0.015 0.005 0.027 0.012 0.037 0.024l0.012-0.012v-0.012l0.012-0.013h0.024l0.024 0.025h0.013l0.012 0.012v0.012h0.024c0.016-0.028 0.037-0.052 0.061-0.074l0.024 0.024c0.015-0.004 0.027-0.012 0.037-0.024l0.013 0.012v0.025c0.016 0 0.032 0 0.048 0l0.013 0.012v0.012l0.012-0.012v-0.025l-0.025-0.012-0.012-0.024h0.025l0.025 0.037 0.024 0.013c0.012-0.013 0.024-0.025 0.037-0.037-0.004-0.026-0.012-0.051-0.025-0.074 0.017-0.002 0.034 0.003 0.049 0.012l0.024-0.012h0.012v0.037h0.012l0.012-0.049h0.012l0.012 0.012-0.012 0.025 0.012 0.049 0.025-0.025v-0.024l0.012-0.013c0.012 0 0.025 0 0.037 0v0.025l0.024-0.012-0.012-0.025h0.037l0.037 0.049 0.012-0.024v-0.025c0.010-0.012 0.022-0.020 0.037-0.024l0.012 0.012-0.012 0.025 0.012 0.013 0.037-0.025v-0.024h0.025l-0.012 0.037 0.025 0.013h0.012l0.012-0.025c0.020 0 0.041 0 0.061 0l0.012-0.024c-0.004-0.015-0.012-0.028-0.025-0.037v-0.012c0.025 0.007 0.042 0.024 0.049 0.049l0.037 0.012 0.012 0.012 0.012-0.024v-0.012l0.012-0.012h0.012c0.016-0.012 0.024-0.028 0.025-0.049 0.019-0.011 0.040-0.019 0.061-0.024l-0.012-0.037c0.016-0.018 0.037-0.031 0.061-0.037-0.015-0.019-0.027-0.040-0.037-0.061h0.025l0.025 0.012 0.025-0.012v-0.012l0.012-0.012-0.012-0.025 0.012-0.037c0.012-0.009 0.021-0.022 0.025-0.037l0.037 0.012c0.009-0.019 0.022-0.035 0.037-0.049 0.012 0 0.024 0 0.037 0l0.037 0.037c0.016 0.010 0.031 0.014 0.049 0.012l0.012 0.025h0.025l0.012-0.025c0-0.028 0-0.057 0-0.086 0.017 0.013 0.029 0.029 0.037 0.049v-0.074c0.016 0 0.033 0 0.049 0v0.025l-0.024 0.049v0.024c0.008 0.008 0.016 0.017 0.024 0.025 0.057-0.016 0.107-0.045 0.147-0.086l-0.012-0.025 0.061 0.012 0.013 0.037-0.025 0.049 0.012 0.012h0.025l0.012-0.049 0.012-0.012 0.037 0.024h0.013v-0.024h0.037l0.012-0.012-0.024-0.024 0.024-0.012 0.025 0.012h0.049l0.012-0.012 0.025 0.012c0.012 0.025 0.024 0.049 0.037 0.073l0.025 0.012c0.004-0.015 0.013-0.027 0.025-0.037l-0.012-0.025 0.012-0.012c0.020 0.019 0.039 0.034 0.061 0.049-0.003 0.038 0.001 0.075 0.013 0.111l-0.013 0.012-0.037 0.012v0.024l0.049 0.037-0.025 0.025c0.031 0.003 0.059-0.005 0.086-0.025v0.012c-0.009 0.012-0.022 0.020-0.037 0.024l0.012 0.025 0.024 0.012h0.037l0.012 0.012 0.012-0.012 0.012 0.012 0.012 0.061 0.013 0.012h0.012l0.024-0.012v-0.025l0.012-0.012 0.037-0.012v-0.012l-0.037-0.025c0.006-0.025 0.018-0.045 0.037-0.061 0.015 0.004 0.027 0.012 0.037 0.025 0.015-0.005 0.027-0.013 0.037-0.025 0-0.008 0-0.017 0-0.025l0.012 0.037 0.012 0.012c0.016 0 0.033 0 0.049 0l-0.025 0.024 0.012 0.037c0.017-0.002 0.034 0.003 0.049 0.012l0.012 0.012v0.024h0.012c0.033-0.016 0.066-0.032 0.098-0.049l0.037-0.049c0.013-0.044 0.017-0.089 0.012-0.134l0.025-0.025h0.012c0.299-1.685 0.601-3.381 0.858-5.066 0.007-0.020 0.019-0.037 0.037-0.049-0.003-0.055 0.002-0.107 0.012-0.159 0.019-0.011 0.040-0.019 0.061-0.024v-0.025l-0.025-0.049c0-0.029 0-0.057 0-0.086-0.019-0.030-0.031-0.063-0.037-0.098 0.008-0.030 0.020-0.059 0.037-0.086v-0.049l0.025-0.024c0-0.021 0-0.041 0-0.061-0.018-0.027-0.038-0.051-0.061-0.074l0.012-0.049c-0.009-0.012-0.022-0.020-0.037-0.024v-0.013h0.012l0.012-0.024h0.025l-0.012-0.025-0.024-0.012-0.025 0.012-0.024-0.037v-0.024c-0.024-0.025-0.046-0.044-0.074-0.061h-0.025l-0.012-0.012c0-0.033 0-0.066 0-0.098l-0.025-0.024h-0.013l-0.051-0.037 0.024-0.037v-0.024l-0.024-0.012h-0.012l-0.013-0.024-0.049-0.037 0.012-0.012-0.024-0.012 0.012-0.012h-0.025l0.013-0.025v-0.012l0.012-0.012h0.024l-0.012-0.024c0.031-0.041 0.056-0.086 0.074-0.135h-0.012v-0.024l-0.012-0.012h-0.013l-0.012-0.025-0.025-0.012c0.011-0.019 0.019-0.040 0.025-0.061-0.009-0.019-0.021-0.035-0.037-0.049l0.012-0.049-0.024-0.025c-0.012 0-0.025 0-0.037 0v-0.037c-0.029-0.006-0.058-0.014-0.086-0.024v-0.012c-0.046-0.001-0.081-0.022-0.098-0.061h-0.012l-0.025-0.037-0.025-0.013h-0.025v-0.024c-0.019-0.011-0.040-0.015-0.061-0.012l-0.037-0.074-0.025 0.012-0.049-0.012-0.012 0.012c-0.037-0.019-0.068-0.049-0.086-0.086h-0.012c-0.052-0.085-0.118-0.159-0.196-0.221v-0.049c0.022-0.434 0.031-0.894 0.024-1.337 0.008 0 0.016 0 0.025 0 0.005 0.015 0.013 0.027 0.025 0.037h0.024c0.012-0.010 0.020-0.022 0.025-0.037l-0.025-0.024h0.049l0.012 0.024 0.049 0.012c0.020-0.017 0.037-0.037 0.049-0.061l0.012 0.012 0.025-0.012 0.012 0.025c0.026-0.003 0.051-0.011 0.074-0.025h0.012l0.012-0.012 0.024 0.012h0.012v0.025l0.037-0.025 0.012-0.025 0.037-0.012 0.025-0.037 0.025 0.025 0.024-0.012 0.013-0.049 0.025-0.012h0.025v-0.024l0.012-0.013 0.049 0.013c0.016 0.014 0.027 0.030 0.037 0.049h0.012l0.013 0.012h0.024v-0.012h0.025v-0.037l0.049-0.025v-0.024c0.021 0 0.041 0 0.061 0v-0.025l0.012-0.024c0.008 0 0.016 0 0.025 0 0.004-0.015 0.012-0.027 0.024-0.037 0.016-0.009 0.032-0.013 0.049-0.012 0.012 0.009 0.020 0.022 0.025 0.037h0.025l0.012 0.012v0.024c0.014 0.016 0.030 0.027 0.048 0.037v0.025c0.033 0.032 0.066 0.065 0.098 0.098 0.008-0.008 0.016-0.016 0.025-0.025v-0.024l0.037 0.012 0.025-0.012 0.012-0.024 0.024 0.012-0.012 0.012 0.012 0.037-0.012 0.024c0.025 0 0.049 0 0.074 0l0.024-0.012v0.012l0.049-0.012 0.024 0.012c0-0.016 0-0.033 0-0.049l0.012-0.012v-0.024l0.025-0.012 0.012 0.012h0.024l0.024 0.012h0.025l0.012 0.012h0.012l0.012-0.024c-0.028-0.069-0.072-0.116-0.135-0.147v-0.037l0.025-0.025c0.012 0 0.024 0 0.037 0l0.012-0.037-0.012-0.049c-0.012-0.009-0.020-0.022-0.024-0.037v-0.037l0.024-0.012h0.025v-0.012l0.012-0.024-0.025-0.025h-0.012l-0.037-0.024h-0.025c0-0.012 0-0.024 0-0.037l-0.012-0.025 0.012-0.012 0.037-0.012-0.014-0.024c-0.036-0.005-0.065-0.022-0.086-0.049l0.037-0.024c-0.026-0.051-0.070-0.094-0.122-0.123h-0.012l-0.025 0.012-0.012-0.025h-0.024v-0.012l-0.025-0.024h-0.049l-0.024 0.012-0.025-0.012c-0.025 0.025-0.049 0.049-0.074 0.074l-0.037-0.012c0-0.012 0-0.024 0-0.037l-0.012-0.012-0.025 0.012-0.061-0.012c-0.056 0.021-0.117 0.021-0.172 0l-0.037-0.037h-0.024l-0.013 0.025c-0.035-0.003-0.069 0.005-0.098 0.024l-0.024-0.012-0.012 0.012-0.012-0.024c0-0.021 0-0.041 0-0.061-0.027 0.012-0.056 0.016-0.086 0.012-0.022 0.021-0.046 0.037-0.073 0.049l-0.013 0.037-0.012 0.012-0.037-0.012-0.025-0.024c0-0.393 0-0.785 0-1.178h0.037l-0.012 0.012 0.012 0.012 0.049-0.012 0.024 0.012v-0.012l0.012-0.024h0.012l0.049-0.037c0.016 0 0.033 0 0.049 0l0.012-0.012 0.012 0.012h0.037v0.012c0.016 0 0.033 0 0.049 0l0.012-0.012 0.025 0.012 0.012-0.025h0.013c0.044-0.021 0.085-0.045 0.122-0.074l0.111 0.049 0.012-0.012v0.012l0.012 0.012 0.012-0.024c0.008 0.008 0.016 0.016 0.025 0.024l0.012-0.012c0.042 0.005 0.079 0.021 0.111 0.049v0.024l0.012-0.012c0.74 0 1.48 0 2.22 0v-0.024l-0.012-0.012h-0.037l0.025-0.037-0.037-0.024h-0.025c-0.009 0.012-0.022 0.020-0.037 0.024h-0.024l-0.012-0.049 0.012-0.061c-0.017 0-0.033 0-0.049 0 0-0.020 0-0.041 0-0.061l0.025-0.025 0.012-0.098c0.021-0.021 0.041-0.041 0.061-0.061h0.025l0.024-0.037 0.025-0.012 0.025 0.024 0.025-0.012h0.012l0.025 0.024 0.012 0.049 0.025 0.012 0.012 0.049 0.012 0.012h0.012l0.025 0.012 0.037-0.012c0.045 0.045 0.090 0.090 0.135 0.135h0.061c0.012-0.010 0.020-0.022 0.024-0.037l0.025-0.012 0.012-0.024-0.012-0.049c0.111-0.046 0.193-0.138 0.233-0.257l0.025-0.012c0.086 0.030 0.175 0.042 0.27 0.037 0.037-0.030 0.058-0.071 0.061-0.122l0.049-0.037c0.015-0.104 0.084-0.167 0.196-0.184 0.012-0.025 0.024-0.049 0.037-0.074 0.025 0 0.049 0 0.073 0 0.034 0.019 0.062 0.043 0.086 0.074 0.001 0.21 0.037 0.416 0.11 0.613l0.061 0.037 0.025-0.012c0.047-0.001 0.092 0.007 0.135 0.024 0.047 0.069 0.083 0.142 0.111 0.221l-0.012 0.049c0.040 0.16 0.060 0.326 0.061 0.491-0.034 0.169-0.046 0.345-0.037 0.515l0.417-0.123c0.322 0.3 0.649 0.595 0.981 0.884l0.184-0.049 0.049 0.012c0.022 0.016 0.038 0.037 0.049 0.061 0.025 0.001 0.050-0.003 0.074-0.012l0.012-0.025h0.012l0.025 0.012 0.025-0.025c0.004-0.020 0.008-0.041 0.012-0.061 0.022 0.003 0.042-0.002 0.061-0.012 0.019 0.011 0.040 0.015 0.061 0.012l0.025-0.012c0.016 0 0.033 0 0.049 0v-0.024l0.025-0.024v-0.037l0.024-0.012v-0.037l0.012-0.013h0.037l0.012 0.013 0.012-0.025 0.024-0.012 0.012-0.037-0.012-0.025 0.037 0.012c0.030-0.013 0.059-0.029 0.086-0.049l0.012 0.012c0.020-0.008 0.036-0.020 0.049-0.037l0.013 0.012c0.012-0.009 0.020-0.022 0.024-0.037h0.012l0.025-0.037c0.020 0 0.041 0 0.061 0l0.012-0.012c0.012 0.012 0.025 0.025 0.037 0.037l0.012-0.024 0.037-0.025 0.049 0.049-0.012-0.037h0.025l0.012-0.013v0.013l0.037 0.012 0.012-0.012 0.012 0.037 0.012-0.012h0.024l-0.012 0.012 0.012 0.024h0.025c0.004 0.015 0.012 0.027 0.025 0.037l-0.012 0.012 0.024 0.024v0.012l0.025 0.024c-0.010 0.016-0.014 0.032-0.012 0.049h0.037v0.013l-0.025 0.024 0.012 0.049h-0.012l-0.012 0.012-0.012-0.012-0.012 0.012 0.012 0.024-0.012 0.037h-0.025c0.001 0.017-0.003 0.034-0.012 0.049h-0.013l-0.037 0.025v0.037l-0.025 0.037c0.026 0.029 0.047 0.063 0.061 0.098v0.025h0.013l0.012 0.012 0.025-0.037h0.049l0.012-0.012h0.012l0.012-0.012c0.016 0 0.033 0 0.049 0l0.024-0.012v-0.012l0.025-0.024 0.012-0.037 0.012-0.012c0-0.012 0-0.025 0-0.037l0.024 0.012 0.012-0.012-0.012-0.025 0.012-0.012-0.012-0.012v-0.012l-0.024-0.049 0.024-0.012 0.012-0.037 0.012-0.012h0.012l0.013-0.024 0.037-0.024-0.012-0.012 0.025-0.025 0.024-0.074 0.013 0.012 0.037-0.025c0.021 0 0.041 0 0.061 0l0.012 0.012-0.012 0.012 0.012 0.012 0.012-0.012 0.025 0.012c0.019-0.011 0.039-0.015 0.061-0.012l0.012 0.024-0.012 0.012h0.025c0.038-0.035 0.059-0.083 0.061-0.135l0.012-0.012 0.013-0.037-0.037-0.013c0-0.008 0-0.016 0-0.024l0.012-0.012c0.007-0.046 0.015-0.090 0.025-0.135l-0.013-0.037c0.022 0.003 0.042-0.002 0.061-0.012v-0.025l0.037-0.024 0.024 0.024h0.012l0.012-0.012 0.025 0.025-0.015 0.039 0.012 0.012 0.024-0.012 0.049 0.012v-0.024l0.025-0.012c0.029-0.037 0.057-0.074 0.086-0.111l-0.012-0.012-0.012-0.037 0.025-0.025h0.012l0.012 0.013v0.012l0.012 0.012 0.025-0.012c0.006-0.020 0.019-0.037 0.037-0.049l-0.012-0.012c0.012 0 0.024 0 0.037 0v0.037c0.012 0 0.025 0 0.037 0v-0.024l0.024-0.037-0.012-0.012c0.045-0.016 0.078-0.045 0.098-0.086 0.018 0.016 0.030 0.037 0.037 0.061l-0.012 0.012v0.012c0.026 0.027 0.051 0.056 0.074 0.086h0.012l0.049-0.025v-0.024h0.012c0.011-0.020 0.015-0.040 0.013-0.061l0.012-0.012 0.024 0.012h0.012l0.025-0.012h0.012c0.020-0.017 0.037-0.038 0.049-0.061h0.012l0.025-0.024h0.037l0.025-0.037h-0.013l0.013-0.025-0.013-0.012 0.025-0.012 0.037-0.061 0.037-0.024c0-0.008 0-0.016 0-0.025l0.012 0.012 0.037-0.012c0.025-0.029 0.053-0.054 0.086-0.074l0.012 0.012h0.013l0.037-0.025v-0.012l0.024-0.024v-0.012l0.025-0.024 0.024 0.012c0.017 0 0.033 0 0.049 0l0.012 0.037c-0.016 0.028-0.036 0.053-0.062 0.074l0.012 0.012c-0.019 0.016-0.031 0.036-0.037 0.061 0.001 0.017-0.003 0.034-0.012 0.049l0.012 0.012c0.021 0 0.041 0 0.061 0 0.013 0.016 0.025 0.032 0.037 0.049l0.012-0.012-0.012-0.012c0-0.008 0-0.016 0-0.025l0.024-0.012c0-0.025 0-0.049 0-0.074 0.008-0.008 0.017-0.016 0.025-0.025v-0.012c0.018-0.020 0.038-0.036 0.061-0.049v-0.013h0.025l0.012-0.024c0.015-0.004 0.027-0.012 0.037-0.024l0.025 0.012h0.012c0.030-0.029 0.054-0.061 0.074-0.098v-0.025c0.012 0 0.024 0 0.037 0l0.025-0.012c0.012 0 0.025 0 0.037 0l0.022-0.012v-0.037l0.025-0.025 0.013-0.037 0.024-0.024c0.006-0.035 0.014-0.065 0.025-0.098h-0.012l-0.012-0.037 0.012-0.012c0-0.012 0-0.025 0-0.037h-0.012c0.013-0.029 0.022-0.064 0.025-0.098l0.012-0.012-0.012-0.024h0.012v-0.037h-0.024c0.011-0.053 0.015-0.106 0.012-0.159 0.015-0.004 0.027-0.012 0.037-0.024l0.037-0.012v-0.025h0.012c0.012-0.012 0.025-0.024 0.037-0.037h0.012l0.025-0.024 0.012 0.012 0.012-0.012 0.012 0.012h0.025l0.024 0.012 0.037-0.024h0.012c0.008 0.008 0.016 0.016 0.025 0.024h0.061l0.012 0.037 0.025-0.012 0.012-0.037h0.049l0.025 0.012c0.012-0.009 0.021-0.022 0.025-0.037h0.012l0.024 0.013 0.012-0.013v-0.012c0.008-0.008 0.016-0.016 0.025-0.024v-0.012l0.049-0.037c0.008 0.008 0.017 0.016 0.025 0.025l-0.012 0.024h0.037l0.012 0.012 0.012-0.012c0.002-0.025-0.002-0.050-0.012-0.074l0.012-0.012c0.012 0 0.025 0 0.037 0l0.024-0.037h0.012c0-0.012 0-0.025 0-0.037h0.025l0.025-0.024c0.017 0.001 0.034-0.003 0.049-0.012l0.012-0.012h0.037l0.049 0.025v0.012h0.037c0.018-0.012 0.030-0.029 0.037-0.049h0.012l0.037 0.025h0.012l0.012-0.012h0.013l0.037-0.024h0.012c-0.003-0.026 0.001-0.050 0.012-0.074h-0.012v-0.024l0.049-0.024 0.012 0.024c0.046 0.034 0.095 0.062 0.147 0.086 0.065-0.031 0.136-0.048 0.208-0.049l0.013 0.012h0.037c0.003 0.098 0.046 0.182 0.123 0.246l0.086 0.049c0.048-0.003 0.093-0.015 0.135-0.037 0.072 0.021 0.146 0.034 0.221 0.037l0.024 0.037v0.012c0.061 0.005 0.114 0.025 0.159 0.061h0.013l0.024 0.024c0.021 0.081 0.003 0.163-0.049 0.233l0.012 0.196-0.012 0.025c-0.048 0.036-0.086 0.074-0.122 0.122-0.011 0.028-0.015 0.056-0.012 0.086l0.049 0.024c0.021 0.022 0.037 0.046 0.049 0.074l0.024 0.012 0.012 0.049c0.044 0.044 0.093 0.081 0.147 0.111h0.012c0.024 0.021 0.037 0.054 0.037 0.086l-0.012 0.024 0.012 0.037 0.024 0.013c0.035 0.173 0.084 0.341 0.147 0.503 0.033 0 0.065 0 0.098 0-0.007 0.024-0.011 0.048-0.012 0.074l0.012 0.012-0.012 0.024c0.018 0.034 0.038 0.067 0.061 0.098 0.002 0.025-0.002 0.050-0.012 0.074l-0.037 0.037-0.024 0.086 0.012 0.049c0.012 0.012 0.025 0.025 0.037 0.037v0.074c-0.071 0.048-0.121 0.115-0.147 0.196 0.041 0.107 0.045 0.212 0.012 0.319l0.024 0.037v0.086h0.025l0.037-0.025c0.013 0.023 0.030 0.043 0.049 0.061 0.003 0.026 0.011 0.051 0.025 0.074l-0.012 0.012v0.013c-0.011 0.019-0.020 0.039-0.025 0.061l0.012 0.037-0.012 0.074c0.024 0.038 0.032 0.079 0.025 0.122 0.024 0.019 0.040 0.044 0.049 0.074 0 0.049 0 0.098 0 0.147 0.020 0.040 0.054 0.066 0.098 0.074l0.012 0.024 0.037 0.012c0.030 0.055 0.042 0.111 0.037 0.172h-0.012v0.013c0.012 0.010 0.020 0.022 0.025 0.037v0.024c0.027 0.043 0.055 0.084 0.086 0.123h0.025l0.024 0.012v0.012l-0.012 0.025 0.012 0.037-0.024 0.012v0.037l0.012 0.024h0.024l-0.012 0.024-0.024 0.012v0.012l0.024 0.037-0.012 0.012c0.008 0.008 0.016 0.016 0.024 0.024h0.013l0.012-0.012 0.061 0.037-0.012 0.012v0.049c-0.008 0.008-0.016 0.016-0.025 0.024l0.012 0.037-0.024 0.012v0.013h-0.012l-0.012 0.037c-0.029 0.018-0.054 0.033-0.086 0.049v0.024h0.012l-0.012 0.024-0.013-0.012-0.012 0.012v0.025l-0.012 0.024h-0.012l-0.012 0.012 0.012 0.037-0.012 0.012v0.012l-0.012 0.012 0.012 0.025v0.025c0.012 0.012 0.025 0.025 0.037 0.037v0.024h-0.025v0.012c0.012 0.009 0.020 0.022 0.025 0.037v0.012l-0.012 0.012h-0.012l-0.012 0.012c-0.012 0-0.025 0-0.037 0v0.025l-0.025 0.012-0.012-0.012v0.012h-0.037c0 0.012 0 0.024 0 0.037h0.012l0.013 0.012-0.013 0.012-0.037-0.012-0.012 0.012v0.012l-0.025 0.012c-0.008-0.020-0.021-0.036-0.037-0.049v-0.012h-0.049l-0.025-0.012v0.012l-0.037-0.024-0.012 0.012v0.037l-0.025 0.012v0.037h0.012l0.013 0.037-0.027 0.012c-0.001 0.017 0.003 0.033 0.012 0.049l0.037 0.025 0.025-0.012 0.012 0.024h0.012l0.012 0.012v-0.012h0.024l0.012 0.012 0.049 0.012 0.012 0.024 0.024 0.013v0.012l0.012 0.012v0.012l-0.012 0.012 0.024 0.012v0.012h0.013c0.021 0.022 0.037 0.046 0.049 0.074h0.025c0.007 0.020 0.019 0.037 0.037 0.049v0.012l0.024-0.012c0.021 0.017 0.037 0.037 0.049 0.061h0.049l0.025 0.012h0.024v0.037l0.049 0.013c0.012 0.012 0.024 0.024 0.037 0.037h0.012l0.013 0.012h0.024l0.024 0.049-0.012 0.024c0.017 0.021 0.037 0.038 0.061 0.049 0.016 0 0.032 0 0.049 0 0.072 0.054 0.116 0.132 0.123 0.22l0.049 0.049c0.012 0.032 0.020 0.064 0.024 0.098 0.052 0.052 0.085 0.113 0.098 0.184 0.040 0.012 0.081 0.017 0.123 0.012 0.025-0.017 0.048-0.033 0.073-0.049 0.028 0.010 0.057 0.019 0.086 0.024l0.037 0.037c0.145 0.017 0.26 0.093 0.319 0.221 0.039 0.030 0.076 0.063 0.11 0.098h0.012v-0.049l0.012-0.012v-0.024c-0.012-0.010-0.020-0.022-0.025-0.037l-0.061-0.024-0.037-0.074c0-0.016 0-0.033 0-0.049l-0.025-0.012h-0.049l-0.012-0.037c-0.020-0.009-0.040-0.013-0.061-0.012v-0.012c0.024-0.026 0.045-0.055 0.061-0.086v-0.025l-0.049-0.049-0.037-0.012c0.007-0.020 0.019-0.037 0.037-0.049 0.010-0.050 0.023-0.098 0.037-0.147 0.008-0.008 0.016-0.016 0.025-0.024l-0.012-0.037c0.008-0.023 0.021-0.044 0.037-0.061-0.005-0.015-0.013-0.027-0.025-0.037v-0.012l0.025-0.012-0.025-0.025v-0.012l0.012-0.012h0.037l0.012-0.024v-0.049c-0.007-0.020-0.019-0.037-0.037-0.049 0-0.012 0-0.025 0-0.037h-0.025l-0.012-0.012 0.012-0.049-0.012-0.037 0.012-0.012v-0.037l0.037-0.024v-0.061l0.024-0.024v-0.012l-0.012-0.012c-0.008-0.052 0-0.101 0.025-0.147 0.045-0.022 0.085-0.057 0.11-0.098v-0.037c0.009-0.019 0.022-0.035 0.037-0.049h0.037l0.013-0.012c0-0.012 0-0.024 0-0.037h0.037c0.034-0.029 0.071-0.054 0.11-0.074l0.035 0.013 0.049-0.049c0.041 0.001 0.082-0.003 0.122-0.012l0.012-0.012v-0.037l0.012-0.012-0.012-0.025v-0.024l0.012-0.012h0.013l0.024 0.012c0.026-0.004 0.051 0 0.074 0.012v-0.012l0.012-0.012 0.037-0.012c0.008 0.008 0.017 0.016 0.025 0.024 0.015-0.009 0.032-0.013 0.049-0.012l0.049 0.025 0.012 0.049 0.012 0.012c0.012 0 0.025 0 0.037 0l0.049 0.024c0.024 0 0.049 0 0.073 0l0.012-0.012 0.012 0.012h0.012l0.012-0.012h0.024l0.012 0.049-0.012 0.012v0.049h0.012v0.025l0.049 0.049 0.037-0.024c0.008 0.008 0.017 0.016 0.025 0.024-0.003 0.026 0.001 0.050 0.012 0.074h0.061l0.024 0.012c0 0.029 0 0.057 0 0.086h0.012c0.008 0.008 0.016 0.017 0.024 0.025l0.013-0.012 0.012 0.024c-0.004 0.015-0.012 0.027-0.025 0.037v0.013l0.037 0.012-0.012 0.025 0.012 0.012-0.012 0.024c0.004 0.015 0.012 0.027 0.025 0.037l-0.012 0.024 0.037-0.012 0.037 0.024 0.012-0.012c0.023 0.018 0.047 0.026 0.074 0.024l-0.012 0.025 0.012 0.012 0.025-0.024 0.037-0.013v-0.012h0.012l0.012-0.012c0.017-0.001 0.034 0.003 0.049 0.012v-0.037l0.061 0.024v0.012h0.025l0.012 0.012h0.012l0.049-0.049v-0.012l-0.025-0.012 0.025-0.025h0.012l0.012-0.024-0.012-0.012 0.012-0.012-0.012-0.012c0.012-0.013 0.024-0.025 0.037-0.037 0.025 0 0.049 0 0.074 0l0.012 0.012c0.013-0.017 0.029-0.029 0.049-0.037h0.037l0.012-0.025c0.016 0 0.033 0 0.049 0 0.016-0.019 0.037-0.031 0.061-0.037h0.012l0.012-0.024v-0.037h-0.012l0.012-0.037-0.024-0.025v-0.036c-0.008 0-0.016 0-0.024 0-0.022-0.016-0.039-0.037-0.049-0.061l-0.024-0.012v-0.024l-0.025 0.012-0.012-0.025 0.012-0.012v-0.024l-0.024-0.012c0.001-0.029-0.004-0.058-0.012-0.086l0.024-0.012v-0.012l0.012-0.025v-0.024l0.074-0.049v-0.024l-0.012-0.012 0.012-0.012-0.012-0.012 0.012-0.013 0.012-0.037 0.025-0.012v-0.012l0.012-0.025c-0.009-0.015-0.014-0.032-0.012-0.049h0.037v-0.049c0.008-0.008 0.016-0.016 0.025-0.024l-0.037-0.049 0.012-0.012 0.012-0.049-0.012-0.037 0.012-0.012 0.012 0.012 0.025-0.012 0.012-0.024v-0.025l0.012-0.012 0.025 0.012-0.012-0.024 0.037-0.037h0.012l0.012-0.024-0.012-0.012v-0.012l-0.012-0.012c0.016-0.033 0.032-0.066 0.049-0.098v-0.049l0.049-0.049-0.012-0.012h0.024l0.025-0.037 0.037-0.012-0.012-0.025 0.012-0.012c0-0.012 0-0.025 0-0.037l0.025-0.025c-0.008-0.008-0.016-0.016-0.025-0.024v-0.024l0.037-0.037v-0.012c0.043-0.009 0.081-0.030 0.111-0.061-0.005-0.066 0.007-0.127 0.037-0.184 0.687 0 1.374 0 2.061 0 0 0.176 0 0.352 0 0.528l0.012 0.024v0.049l0.012 0.013h0.012l0.025 0.024-0.013 0.11 0.013 0.012v0.025l-0.037 0.074c-0.004 0.042 0 0.082 0.012 0.122h0.012c0 0.012 0 0.025 0 0.037l-0.012 0.024v0.086c0.029 0.026 0.062 0.047 0.099 0.061v0.012h0.037v0.012l0.012-0.012 0.024 0.012 0.025 0.037 0.037 0.012 0.012 0.037h0.012l0.012 0.012-0.012 0.061 0.012 0.049c0.012 0.009 0.020 0.022 0.024 0.037 0 0.016 0 0.033 0 0.049l-0.012 0.024h-0.025v0.037l0.012 0.012v0.037l-0.012 0.012v0.025l0.025 0.024v0.012h0.012c0.009 0.020 0.013 0.040 0.012 0.061l0.037 0.012 0.037 0.037v0.012l0.012 0.012 0.012-0.012 0.025 0.012 0.037 0.074 0.024 0.012h0.025v0.012l0.025 0.024h0.012v0.013l0.012 0.012v0.012l0.074 0.049v0.013h0.012l0.013-0.013 0.012 0.013 0.012-0.013v0.025l0.012 0.024h0.012l0.012 0.024h0.012v-0.012h0.013l0.049 0.037v0.012l-0.037 0.012 0.012 0.024-0.012 0.037 0.049 0.037v0.025l0.025 0.012c0 0.008 0 0.016 0 0.024-0.012 0.010-0.020 0.022-0.025 0.037l0.013 0.013-0.013 0.037 0.025 0.024c0.012 0 0.025 0 0.037 0 0.016 0.017 0.033 0.033 0.049 0.049v0.049l0.012 0.012v0.012l0.012 0.012 0.012-0.012 0.012 0.037 0.037 0.012-0.012 0.024 0.098-0.012v-0.012h0.025l0.025 0.049 0.049 0.012 0.037 0.061 0.024 0.012 0.037 0.049c0.025-0.028 0.049-0.057 0.074-0.086v-0.037l0.049-0.012 0.025-0.024-0.012-0.012 0.012-0.025 0.073-0.049h0.012l0.025 0.012 0.012 0.024c-0.001 0.017 0.003 0.034 0.012 0.049l0.049 0.012 0.012 0.012c0.003 0.022-0.002 0.042-0.012 0.061l0.024 0.025v0.037l-0.012 0.012c-0.028 0.046-0.041 0.095-0.037 0.147l-0.012 0.012c0 0.016 0 0.033 0 0.049l0.025 0.025h0.025l-0.012 0.012v0.024l0.037 0.012v0.037h0.012l0.025-0.012 0.037 0.012 0.012 0.012-0.012 0.025 0.012 0.012 0.012-0.012 0.012 0.024 0.037-0.024c0.022-0.003 0.042 0.002 0.061 0.012v0.012l0.037 0.013v0.012h0.012l0.012 0.037c0.012 0.009 0.021 0.022 0.025 0.037 0.008 0 0.016 0 0.024 0 0 0.012 0 0.024 0 0.037h0.012l0.025-0.012 0.025 0.012v-0.012l0.037 0.012 0.025-0.012v0.061c0.008 0.016 0.017 0.032 0.025 0.049l-0.012 0.025h0.024l0.024 0.037 0.037-0.024 0.012 0.012 0.074-0.012v-0.012l0.012-0.012 0.025 0.024-0.012 0.012 0.012 0.024 0.012-0.012 0.037 0.024c0.012 0 0.025 0 0.037 0l0.012 0.037h0.025l-0.012 0.049 0.037-0.025c0.004 0.015 0.012 0.027 0.024 0.037l0.025-0.012v0.024l0.012 0.024 0.074-0.024v0.012l-0.012 0.024 0.024 0.013 0.025-0.037h0.025v0.024l0.012 0.013h0.012v0.024l-0.024 0.012 0.012 0.024 0.037-0.024 0.037 0.037 0.025-0.012-0.012-0.024c0.028 0.006 0.052 0.018 0.074 0.037l0.012-0.037h0.049v0.012h0.012l0.012-0.024v-0.012h0.012l0.012 0.012-0.012 0.012c0.009 0.012 0.022 0.020 0.037 0.024h0.012c0.009-0.012 0.022-0.020 0.037-0.024l0.012 0.024h0.012l0.012-0.012 0.013 0.024 0.025-0.024c0.001 0.021-0.003 0.042-0.012 0.061l0.012 0.012v0.012c0.021 0 0.041 0 0.061 0l0.024 0.049 0.037-0.037 0.025 0.025c0 0.008 0 0.016 0 0.024 0.015 0.004 0.027 0.012 0.037 0.024v0.012l-0.025 0.025 0.012 0.037c0.031 0.036 0.057 0.080 0.074 0.123l0.074-0.012c0.007 0.020 0.019 0.037 0.037 0.049l0.013 0.037 0.012 0.012c0.028 0.009 0.057 0.013 0.086 0.012 0.036 0.022 0.063 0.050 0.086 0.086l0.025 0.012c0.032 0 0.065 0 0.098 0l0.049-0.024h0.024c0.012 0.012 0.025 0.024 0.037 0.037 0.018 0.040 0.018 0.083 0 0.123-0.029 0.025-0.053 0.053-0.074 0.086v0.049l0.012 0.012c0.033 0.001 0.067 0.010 0.098 0.024l0.012 0.024 0.037 0.025c0.039-0.001 0.073-0.005 0.111-0.013l0.012 0.013 0.013-0.013c0.009-0.020 0.013-0.040 0.012-0.061h0.024l0.012 0.012 0.024-0.012 0.013-0.025 0.037-0.012 0.025-0.024c0.012 0 0.025 0 0.037 0l0.049 0.061c0.018-0.016 0.039-0.029 0.061-0.037 0.012 0.012 0.025 0.025 0.037 0.037h0.024l0.037-0.025 0.013-0.024 0.025-0.012c0.023 0.012 0.048 0.016 0.074 0.012l0.024-0.012 0.012-0.037h0.012v-0.024c0.023-0.022 0.054-0.035 0.086-0.037l0.049-0.061 0.037 0.012c0.012-0.012 0.025-0.025 0.037-0.037 0.055 0.005 0.108-0.003 0.159-0.025v0.012c-0.173 0.221-0.37 0.413-0.577 0.565v0.037c-0.021 0.046-0.049 0.087-0.086 0.123v0.012l0.012 0.012c0.022 0.005 0.042 0.013 0.061 0.024h0.024l0.012 0.012c-1.114 2.501-2.255 4.993-3.373 7.494l-0.025 0.012v0.012c-0.020 0-0.041 0-0.061 0l-0.012 0.012c-0.003 0.046-0.020 0.088-0.049 0.123-0.1 0.055-0.183 0.142-0.233 0.245v0.159c0.026 0.113 0.082 0.224 0.159 0.307l0.012 0.037c0.021-0.001 0.042 0.004 0.061 0.012 0.054 0.062 0.103 0.128 0.147 0.196 0.016 0.009 0.032 0.014 0.049 0.012 0.012 0.025 0.025 0.049 0.037 0.074l0.024 0.012 0.013 0.049 0.037 0.037c0.017 0.088 0.025 0.169 0.025 0.257 0.017 0.028 0.037 0.052 0.061 0.074-0.094 0.082-0.15 0.194-0.159 0.319 0.007 0.046 0.020 0.092 0.037 0.135v0.037c-0.051 0.059-0.097 0.113-0.147 0.172 0 0.025 0 0.049 0 0.073-0.035 0.064-0.090 0.111-0.159 0.135l-0.012 0.025h-0.013v0.025l0.025 0.024v0.086c0.061 0.111 0.11 0.213 0.159 0.331l-0.013 0.037 0.013 0.037-0.013 0.025-0.049 0.024-0.012 0.037 0.024 0.074-0.024 0.037 0.012 0.074-0.012 0.024v0.024l0.012 0.012 0.012 0.037c-0.016 0.019-0.037 0.031-0.061 0.037l-0.012 0.025 0.012 0.024-0.012 0.025v0.025c-0.047 0.057-0.088 0.119-0.122 0.184 0.005 0.021 0.013 0.042 0.025 0.061 0.002 0.025-0.002 0.050-0.012 0.074 0.018 0.012 0.030 0.029 0.037 0.049v0.025l-0.012 0.012c-0.021 0.058-0.046 0.116-0.074 0.172l0.012 0.012 0.037 0.012 0.049-0.024c0.021 0.001 0.042-0.003 0.061-0.012l0.049 0.025v0.012c-0.054 0.040-0.103 0.085-0.147 0.135-0.012 0-0.025 0-0.037 0-1.907 0.031-3.827 0.013-5.74 0.012-0.008-0.035-0.024-0.063-0.049-0.086l0.012-0.037c-0.016-0.012-0.032-0.025-0.049-0.037l-0.037-0.012-0.049 0.012-0.013-0.012-0.012-0.037-0.025 0.012h-0.024l-0.012 0.025 0.012 0.012-0.012 0.012v0.012l-0.025 0.012v0.012l-0.025 0.024-0.025-0.012h-0.037l-0.037-0.025h-0.013l-0.012 0.025v0.061c-0.018 0.012-0.030 0.029-0.037 0.049l0.012 0.024-0.012 0.012c0 0.016 0 0.033 0 0.049l-0.037 0.024h-0.037v0.025h-0.037l-0.025 0.012-0.074-0.024-0.012 0.012-0.012-0.012v-0.037l-0.024-0.037-0.025-0.012-0.025-0.049c-0.025 0-0.049 0-0.074 0l-0.049 0.025-0.049-0.012c-0.035-0.042-0.051-0.087-0.049-0.135l0.012-0.025c-0.009-0.012-0.022-0.020-0.037-0.024l-0.012-0.025 0.012-0.024c-0.012-0.029-0.033-0.049-0.061-0.061l0.012-0.012h0.037v-0.025c-0.011-0.019-0.019-0.040-0.025-0.061-0.025 0-0.049 0-0.073 0l-0.025-0.024-0.049-0.012c-0.017 0.012-0.032 0.024-0.049 0.036v0.025l0.037 0.037-0.013 0.025h-0.012c-0.037-0.020-0.070-0.044-0.098-0.074v-0.012c0.015-0.019 0.027-0.039 0.037-0.061l-0.024-0.024 0.012-0.037-0.012-0.025h-0.024c-0.012-0.009-0.020-0.021-0.025-0.036 0.003-0.030-0.001-0.058-0.012-0.086 0.003-0.026 0.011-0.051 0.025-0.073v-0.024c-0.017-0.016-0.039-0.029-0.061-0.037-0.035 0.002-0.069-0.006-0.098-0.024-0.007-0.020-0.019-0.037-0.037-0.049l-0.012 0.012h-0.012l-0.012 0.025c-0.026 0.009-0.046 0.026-0.061 0.049h-0.012v-0.012c-0.012-0.009-0.020-0.022-0.025-0.037h-0.025l0.012-0.025-0.012-0.024v-0.024h-0.012l0.012-0.025-0.012-0.037h-0.012l-0.012-0.012h-0.012l-0.013-0.012-0.012 0.012c-0.012-0.009-0.020-0.022-0.024-0.037-0.035-0.008-0.063-0.024-0.086-0.049l0.012-0.012-0.025-0.049-0.025-0.012-0.012-0.024c0-0.008 0-0.017 0-0.025 0.012-0.009 0.020-0.021 0.025-0.036l-0.013-0.012-0.012-0.037 0.012-0.012-0.025-0.025v-0.012c-0.053-0.049-0.108-0.089-0.172-0.122h-0.049c-0.010-0.022-0.022-0.042-0.037-0.061h-0.012l-0.012-0.012h-0.012l-0.025-0.025c-0.454 0.009-0.909 0.005-1.362-0.012l-0.012 0.086 0.012 0.024-0.012 0.024-0.024 0.012-0.012 0.037-0.037 0.024v0.024l0.012 0.012-0.012 0.037c-0.022 0.020-0.038 0.045-0.049 0.074-0.039 0.017-0.072 0.041-0.099 0.073v0.012l0.049 0.086c-0.033 0.016-0.058 0.041-0.074 0.074v0.024c-0.009 0.019-0.021 0.035-0.037 0.049h-0.012c-0.046-0.049-0.106-0.075-0.172-0.073-0.011 0.027-0.028 0.053-0.049 0.073l-0.037-0.012-0.025 0.012v0.11l-0.061 0.037v0.024l0.049 0.012 0.025 0.025v0.024l-0.061 0.049c-0.001 0.017 0.003 0.034 0.012 0.049l0.037 0.037v0.037l0.025 0.024h0.012v0.025l-0.037 0.061h-0.012l-0.025-0.025v-0.012l-0.012-0.012h-0.012l-0.012 0.012-0.012 0.061-0.025 0.012v0.025c-0.005 0.015-0.013 0.027-0.025 0.037l0.012 0.012-0.037 0.049 0.012 0.049c-0.028-0.008-0.057-0.013-0.086-0.012l-0.037 0.024h-0.032l-0.024-0.012c-0.015 0.014-0.028 0.030-0.037 0.049v0.061l0.025 0.049c-0.010 0.025-0.026 0.046-0.049 0.061 0.011 0.072 0.019 0.146 0.025 0.221l-0.012 0.012h-0.049l-0.099 0.061c-0.050-0.013-0.098-0.013-0.147 0l-0.025-0.012c0.016-0.034 0.025-0.072 0.025-0.111-0.081 0.022-0.167 0.052-0.245 0.086-0.062 0.010-0.121 0.010-0.184 0-0.009 0.012-0.022 0.020-0.037 0.025h-0.012v0.024c-0.015 0.005-0.027 0.012-0.037 0.025-0.037-0.006-0.073-0.010-0.11-0.012l-0.025 0.012c-0.009-0.019-0.021-0.036-0.037-0.049h-0.024v0.012c-0.026 0.029-0.060 0.047-0.099 0.049-0.013-0.023-0.030-0.043-0.049-0.061-0.071-0.004-0.134 0.022-0.184 0.073-0.004 0.015-0.012 0.027-0.025 0.037l-0.024-0.012c0.005 0.051-0.003 0.099-0.025 0.147l-0.013 0.013c0 0.012 0 0.024 0 0.036l0.013 0.012c0 0.020 0 0.041 0 0.061l0.012 0.024v0.012l0.012 0.025c-0.022 0.022-0.036 0.054-0.037 0.086l-0.024 0.009v0.012l-0.025 0.024h-0.037l-0.024 0.025v0.024l-0.025 0.025 0.012 0.025h-0.025c-0.008 0.008-0.017 0.016-0.025 0.024h-0.012l0.012 0.037-0.025 0.025v0.012l-0.012 0.012c-0.020 0-0.041 0-0.061 0l-0.012 0.012 0.012 0.024-0.024 0.012h-0.024l-0.049 0.037-0.025-0.024c-0.020-0.010-0.040-0.014-0.061-0.012v-0.025l0.025-0.037v-0.024l-0.037-0.012c-0.001-0.021 0.003-0.042 0.012-0.061l-0.037-0.061c0-0.020 0-0.041 0-0.061l-0.061-0.037c-0.065 0.022-0.128 0.055-0.184 0.098l-0.012 0.024h-0.049v0.012l-0.012 0.012h-0.012c-0.026-0.020-0.055-0.036-0.086-0.049l-0.012 0.012c0.003 0.058-0.001 0.115-0.012 0.172 0.022 0.033 0.035 0.071 0.037 0.111l-0.012-0.013-0.024 0.013-0.025-0.025-0.012 0.025-0.037 0.012-0.012-0.012v-0.025l-0.012-0.012c-0.008 0-0.016 0-0.025 0-0.025-0.027-0.053-0.047-0.086-0.061-0.043-0.003-0.084 0.005-0.122 0.025-0.012 0.009-0.020 0.022-0.025 0.037-0.016 0-0.033 0-0.049 0l-0.013 0.098-0.025 0.012-0.049 0.099h-0.013l-0.024-0.012h-0.012l-0.012 0.025h-0.024c-0.013 0.012-0.025 0.024-0.037 0.036h-0.012l-0.012-0.036-0.012-0.012h-0.012l-0.012-0.061-0.025 0.012h-0.012v-0.037l-0.012-0.013h-0.012l-0.037-0.036c-0.021 0.003-0.042-0.002-0.061-0.012-0.011-0.019-0.019-0.040-0.025-0.061-0.024-0.018-0.048-0.034-0.074-0.049v-0.024h-0.037l-0.025-0.012c-0.025 0-0.049 0-0.074 0v0.012l-0.024 0.012c-0.049 0-0.090-0.004-0.135-0.012l-0.037 0.024h-0.011l-0.024 0.025c-0.026-0.020-0.055-0.028-0.086-0.025l-0.025 0.012h-0.012l-0.037-0.037c-0.016 0-0.033 0-0.049 0l0.012 0.037-0.012 0.012c-0.016 0-0.033 0-0.049 0v-0.025l-0.012-0.012-0.024 0.025-0.037-0.025-0.025 0.012c-0.026 0.002-0.051-0.007-0.074-0.024l-0.012 0.012v0.012l0.037 0.025c0.018 0.038 0.022 0.079 0.012 0.122-0.059 0.066-0.118 0.124-0.184 0.184l-0.012 0.024c0 0.012 0 0.025 0 0.037l-0.074 0.012-0.025 0.037-0.049 0.012-0.012 0.012-0.037-0.012c-0.036 0.040-0.081 0.069-0.135 0.086l-0.012 0.037c-0.017 0.020-0.037 0.037-0.061 0.049-0.025 0-0.049 0-0.074 0l-0.024-0.012-0.012 0.012 0.012 0.012v0.049l-0.049 0.037c-0.181-0.091-0.4-0.182-0.601-0.245-3.919-1.594-8.329-2.877-12.045-4.785v0z"></path>
</svg>
