<?xml version="1.0" encoding="utf-8"?>
<!-- Generated by IcoMoon.io -->
<!DOCTYPE svg PUBLIC "-//W3C//DTD SVG 1.1//EN" "http://www.w3.org/Graphics/SVG/1.1/DTD/svg11.dtd">
<svg version="1.1" xmlns="http://www.w3.org/2000/svg" xmlns:xlink="http://www.w3.org/1999/xlink" width="32" height="32" viewBox="0 0 32 32">
<path d="M2.375 11.285c0.253 0.034 0.475-0.028 0.667-0.185l0.335 0.111-0.037 0.483 0.185 0.223 0.297-0.074 0.928 0.706c0.842 0.303 1.665 0.253 2.45-0.149l0.074 0.037 0.037-0.074h0.074l0.038 0.037 0.037-0.037v-0.037l0.037-0.037c-0.032-0.060-0.044-0.121-0.037-0.186l0.037-0.037v0.037h0.074v0.074l0.075 0.037 0.037-0.111 0.037 0.037v-0.037l0.037-0.037-0.037-0.038 0.037-0.074h0.074l0.037 0.037 0.038-0.037 0.037 0.037c0.060-0.012 0.124-0.025 0.185-0.037l-0.037-0.074h-0.037l-0.037-0.037 0.111-0.038 0.038-0.074h0.037l0.037-0.037h0.037c0.025-0.025 0.049-0.049 0.074-0.074 0.062 0 0.124 0 0.186 0l0.037 0.037h-0.037l-0.074 0.037 0.074 0.037 0.037-0.037 0.038 0.074 0.037-0.037-0.037 0.074-0.075 0.038 0.037 0.074h-0.037l-0.037 0.037v0.037h0.074l0.038-0.037c0.058 0.032 0.12 0.044 0.185 0.037l0.037 0.075h0.038v-0.038h0.111v0.038l0.037-0.038v0.112c0.050 0 0.099 0 0.149 0l0.037 0.037h0.037v-0.037h0.074l0.076 0.074c0.037 0 0.074 0 0.11 0l0.075 0.075h0.111l0.074-0.038h0.037l0.075 0.038 0.074-0.038 0.074 0.038 0.075-0.038v-0.037c-0.037-0.028-0.062-0.065-0.075-0.111h0.037l0.149 0.074 0.037-0.074h0.037l0.038-0.037h0.074l0.037-0.075h0.074c0.051-0.039 0.088-0.088 0.112-0.148v-0.075l0.074-0.037h0.074l0.038 0.074 0.037-0.037 0.037 0.075v0.074c0.029 0.036 0.065 0.061 0.111 0.074h0.075v0.075l0.111 0.037v0.074l0.074 0.037 0.075-0.037 0.037 0.074-0.149 0.112-0.037-0.037v0.111l-0.037 0.037h-0.074l0.037 0.037c-0.012 0.047-0.037 0.084-0.075 0.112v0.037l0.038 0.037h0.037l-0.037-0.037h0.037l0.037 0.037c0.025-0.025 0.049-0.049 0.074-0.074h0.037l0.038-0.037h0.037c0.025 0.025 0.049 0.049 0.074 0.074v-0.037l0.037 0.037 0.037-0.037h0.112c0.185-0.076 0.392-0.101 0.594-0.074l0.075 0.074v0.037c0.037 0.037 0.074 0.074 0.111 0.111h0.186l0.148 0.075 0.223-0.037 0.037-0.112-0.037-0.037h0.037l0.038 0.037v-0.037h0.074l0.037 0.037 0.037-0.037 0.037-0.111 0.038-0.038v-0.074l0.074-0.037v-0.111h0.111v-0.038l-0.037-0.074h0.112v-0.037c0.117-0.003 0.226-0.057 0.297-0.149l0.037 0.037v-0.074l0.037 0.037 0.037-0.037 0.112-0.037 0.037-0.037h0.037l0.074-0.037v-0.038l0.297-0.222 0.037-0.075-0.037-0.037 0.111-0.111v-0.075c0.025-0.025 0.049-0.049 0.074-0.074h0.076l0.037-0.037-0.037-0.037 0.037-0.074h0.111v-0.112l0.112-0.11h0.074c0.008-0.065-0.004-0.127-0.037-0.186l0.073-0.037h0.037v-0.038l0.037-0.074h0.038l-0.038-0.111-0.111-0.075 0.037-0.074-0.073-0.074c0.037-0.037 0.074-0.074 0.111-0.112l0.037 0.038c0.075-0.191 0.163-0.377 0.261-0.557v-0.036l0.037-0.074-0.037-0.075c0.107-0.241 0.244-0.465 0.408-0.667l0.037 0.037h0.037l0.075-0.112v-0.037h-0.037l-0.037-0.037c0-0.037 0-0.074 0-0.111h0.037c0.037-0.074 0.074-0.149 0.111-0.223-0.010-0.077 0.003-0.152 0.037-0.223 0.073-0.1 0.139-0.218 0.186-0.335l-0.11-0.111c0.013-0.046 0.037-0.083 0.073-0.112l-0.037-0.037-0.037 0.037-0.038-0.037 0.038-0.074 0.037 0.037 0.037-0.037-0.037-0.037c0.025-0.050 0.049-0.1 0.074-0.149l0.074-0.037 0.075 0.037-0.037-0.186 0.073-0.074v-0.074c0.049-0.024 0.099-0.049 0.148-0.074v-0.038l0.038-0.037c0.037 0.029 0.061 0.066 0.074 0.112 0.131-0.074 0.235-0.197 0.297-0.335v-0.074c0.198-0.263 0.378-0.561 0.52-0.854l0.037-0.148c0.038-0.037 0.076-0.074 0.112-0.112l-0.037-0.037 0.111-0.037c0.189-0.268 0.31-0.544 0.372-0.853 0.025-0.025 0.049-0.050 0.074-0.075l0.037-0.186 0.075-0.074 0.148 0.037 0.037-0.111-0.037-0.149 0.037-0.074c0.046-0.012 0.084-0.037 0.112-0.074h0.074l0.074-0.037 0.075-0.112v-0.037c0.025-0.025 0.050-0.049 0.074-0.074l0.111-0.038 0.038-0.074v-0.037c0.177-0.105 0.254-0.277 0.223-0.483 0.042-0.088 0.106-0.164 0.185-0.223 0.135 0.002 0.25-0.048 0.334-0.149 0.084-0.018 0.159-0.054 0.224-0.111 0-0.062 0-0.124 0-0.186 0.153-0.262 0.244-0.557 0.259-0.853l0.037-0.038c0.026-0.353 0.087-0.697 0.185-1.039 0.025-0.025 0.050-0.049 0.074-0.074l0.148-0.036 0.075 0.074h0.074c0.457 0.408 0.89 0.841 1.299 1.3v0.037c0.164 0.218 0.279 0.474 0.335 0.742l0.037 0.037c0.017 0.202 0.028 0.391 0.037 0.594 0.081 0.086 0.179 0.148 0.297 0.186h0.15l0.074 0.074v0.037h0.037c-0.022 0.249-0.034 0.491-0.037 0.743l-0.037 0.037 0.037 0.111-0.037 0.074c0.020 0.433 0.058 0.87 0.112 1.301l-0.075 0.186v-0.038l-0.037 0.038c-0.020 0.493 0.107 0.971 0.372 1.41-0.017 0.065-0.042 0.127-0.075 0.186-0.011 0.115 0.001 0.226 0.037 0.335l0.112 0.111v0.074l-0.037 0.075v0.111c0.033 0.058 0.058 0.12 0.074 0.186l0.074 0.074c-0.014 0.195 0.024 0.382 0.111 0.556l0.111 0.112c-0.017 0.126-0.004 0.253 0.038 0.372l-0.038 0.074 0.111-0.037 0.074 0.074h0.037l0.037 0.074-0.037 0.075v0.074l0.075 0.037 0.037 0.074v0.298c0.076 0.029 0.138 0.078 0.185 0.148v0.075l0.038 0.037c0 0.099 0 0.198 0 0.297 0.081 0.138 0.095 0.298 0.037 0.446l-0.075 0.037-0.037 0.074h0.037v-0.037c0.025 0 0.050 0 0.075 0l0.111-0.074h0.075l0.074 0.037 0.037 0.074v0.075c0.027 0.058 0.064 0.107 0.112 0.148 0.012 0.079-0 0.153-0.038 0.223 0.026 0.049 0.051 0.099 0.075 0.149l-0.037 0.111 0.074 0.037 0.037 0.074v0.186c0.029 0.066 0.066 0.128 0.111 0.186 0 0.074 0 0.148 0 0.223h0.038c0.115 0.134 0.182 0.307 0.185 0.483l-0.037 0.037h-0.074v0.037c0.416-0.225 0.874-0.354 1.336-0.371l0.076 0.037v0.037h0.037l0.074 0.074c0.024 0.12 0.086 0.219 0.186 0.298v0.037c0.036 0.029 0.060 0.066 0.074 0.11h0.037c0.037 0.038 0.074 0.075 0.112 0.112l-0.037 0.074 0.037 0.037v0.037l0.074 0.112v0.074l0.111 0.074v0.186c0.16 0.295 0.306 0.641 0.408 0.965l0.372-0.074c0.507 0.14 0.977 0.363 1.411 0.668v0.073l-0.037 0.037v0.037h0.075c0.131 0.494 0.17 1.017 0.111 1.522l0.037 0.075c-0.006 0.195-0.068 0.368-0.185 0.519 0.032 0.15 0.070 0.301 0.111 0.446v0.148c-0.087 0.145-0.159 0.29-0.223 0.446h-0.037l-0.037 0.037h0.037l-0.037 0.372 0.037 0.037c0 0.074 0 0.148 0 0.223-0.028 0.077-0.078 0.139-0.149 0.186h-0.037c-0.098 0.17-0.182 0.339-0.26 0.519l-0.111 0.074v0.037h-0.037l-0.038-0.037c0 0.037 0 0.075 0 0.112l-0.037 0.074h0.037c0 0.037 0 0.074 0 0.111l-0.037-0.037-0.037 0.037v0.075h-0.074v0.037h-0.037l-0.038 0.446c-0.602-0.060-1.187 0.094-1.669 0.444h-0.038c-0.364 1.516-1.308 2.608-2.784 3.082-0.181 0.094-0.336 0.236-0.445 0.409v0.037h-0.037c-0.119 0.188-0.269 0.352-0.445 0.483h-0.037l-0.111 0.074c-0.195-0.001-0.38 0.036-0.557 0.112-0.227 0.377-0.473 0.733-0.742 1.076 0.002 0.113-0.011 0.224-0.037 0.335-0.111 0.111-0.223 0.222-0.334 0.333-0.436 0.682-0.932 1.381-1.448 2.043-0.012 0.247-0.025 0.495-0.037 0.743h-0.037c0.023 0.223 0.046 0.418 0.075 0.63-0.157 0.286-0.392 0.531-0.668 0.706l-0.446 0.037c-0.061-0.062-0.123-0.123-0.186-0.185l-0.074 0.037-0.073 0.148v0.037l-0.037-0.037h-0.038c0-0.074 0-0.148 0-0.223l-0.074-0.037h-0.037l-0.037 0.037 0.037 0.186-0.037 0.037v0.037l-0.111-0.037c-0.107 0.019-0.205 0.056-0.297 0.112v0.037c0.037 0.037 0.074 0.074 0.111 0.111v0.037l-0.037 0.075-0.113 0.036-0.149-0.074h-0.037l-0.037-0.038c-0.007-0.064 0.005-0.126 0.037-0.185-0.054-0.069-0.079-0.143-0.074-0.223h-0.149l-0.074-0.074c-0.112 0-0.224 0-0.335 0l-0.074-0.038h-0.223l-0.148-0.074h-0.149c-0.013-0.124-0.063-0.223-0.149-0.297l-0.148-0.037-0.075-0.075-0.111 0.075c-0.024-0.026-0.049-0.051-0.074-0.075l0.074-0.074 0.037-0.111-0.037-0.038v-0.185l-0.11-0.112c0-0.037 0-0.074 0-0.111 0.025-0.025 0.049-0.049 0.074-0.075 0.037 0 0.074 0 0.111 0l0.037-0.148c-0.029-0.067-0.066-0.128-0.111-0.186-0.074-0.032-0.137-0.083-0.185-0.149l-0.074 0.075c-0.131 0.048-0.269 0.074-0.409 0.074 0.043-0.099 0.105-0.185 0.186-0.26l-0.074-0.037c0-0.050 0-0.099 0-0.149l0.111-0.185c0-0.099 0-0.198 0-0.297-0.025-0.050-0.049-0.099-0.074-0.148 0.011-0.151-0.001-0.299-0.037-0.445l-0.075-0.076c-0.162-0.026-0.317 0.012-0.444 0.112h-0.076l-0.074-0.037-0.149-0.223c0-0.037 0-0.074 0-0.112-0.061-0.052-0.111-0.113-0.148-0.185l0.037-0.112-0.074-0.074 0.148-0.223c-0.057-0.049-0.093-0.11-0.111-0.186v-0.111l0.074-0.149v-0.149c-0.021-0.061-0.057-0.11-0.11-0.148h-0.075c-0.072-0.037-0.134-0.087-0.185-0.149l-0.037-0.148-0.408-0.298c-0.025-0.069-0.063-0.133-0.112-0.185l-0.111-0.038-0.149 0.038-0.148-0.038-0.038-0.037c-0.141-0.289-0.218-0.608-0.221-0.927-0.079-0.057-0.153-0.119-0.223-0.186l0.037-0.223-0.112-0.037-0.037-0.075v-0.111c-0.037-0.029-0.062-0.066-0.074-0.112-0.087-0.037-0.149-0.098-0.186-0.185l-0.074-0.037-0.037-0.186 0.037-0.112 0.037-0.037-0.112-0.186-0.111-0.074c-0.018-0.089-0.043-0.175-0.074-0.26l-0.112-0.074-0.037-0.112 0.074-0.111c0.008-0.090-0.004-0.175-0.037-0.26l0.075-0.186c-0.029-0.036-0.067-0.060-0.112-0.074l0.074-0.112-0.037-0.037c0.037-0.037 0.075-0.074 0.112-0.111v-0.075l-0.037-0.074c-0.003-0.147 0.063-0.277 0.185-0.372l0.037-0.223 0.038-0.037v-0.037l-0.112-0.074-0.074 0.037-0.037-0.037c-0.015-0.066-0.041-0.128-0.075-0.186l-0.148-0.111-0.037-0.112-0.038-0.037h-0.037c-0.117-0.093-0.242-0.181-0.371-0.26-0.193-0.239-0.453-0.444-0.742-0.594l-0.037-0.112 0.037-0.037v-0.149c-0.025-0.025-0.050-0.050-0.075-0.074-0.028-0.047-0.041-0.097-0.037-0.149l0.037-0.037v-0.037l-0.037-0.074h-0.037v-0.075c-0.037-0.037-0.074-0.074-0.111-0.111 0-0.111 0-0.223 0-0.333l0.074-0.075h0.037l0.074 0.037h0.075l0.037-0.037c-0.004-0.052 0.008-0.101 0.037-0.148-0.020-0.061-0.057-0.111-0.111-0.149-0.037-0.070-0.050-0.144-0.038-0.223h-0.037l-0.037 0.037v0.037l-0.186-0.037-0.297 0.149h-0.074l-0.037-0.074v-0.038l0.074-0.074 0.037-0.111-0.037-0.075c-0.047-0.029-0.097-0.041-0.149-0.037v-0.148c0.049-0.026 0.099-0.051 0.149-0.075l-0.037-0.111-0.037-0.037h-0.112v0.037l-0.037 0.037-0.111-0.111-0.223 0.037-0.038 0.074h-0.074l-0.037-0.074c0.046-0.013 0.083-0.038 0.111-0.075l-0.037-0.111 0.037-0.074-0.037-0.075-0.074 0.037-0.037 0.149h-0.074v-0.037l-0.038-0.037-0.074 0.074c-0.037-0.028-0.061-0.066-0.074-0.111l0.111-0.112v-0.037l-0.111-0.074-0.037 0.037 0.037 0.073v0.037l-0.074 0.075v0.037l-0.149-0.037-0.037-0.075-0.037 0.075h-0.038c-0.036-0.029-0.060-0.067-0.074-0.112l-0.074-0.037h-0.075l-0.037 0.037c0.038 0.037 0.075 0.074 0.112 0.112l-0.037 0.037h-0.075l-0.037-0.037-0.11 0.037v-0.037l0.037-0.038v-0.037l-0.074 0.037-0.112-0.037-0.037 0.037c0.012-0.073 0.025-0.149 0.037-0.222h-0.074l-0.037-0.075h-0.112v0.075l-0.074 0.037h-0.037v-0.036l0.037-0.038v-0.037l0.037-0.074h-0.037l-0.074-0.037-0.038 0.037v-0.074l-0.074-0.038-0.037 0.075-0.074-0.037-0.076 0.037c0-0.062 0-0.124 0-0.186l-0.037-0.074-0.074 0.037h-0.037l0.037 0.037-0.037 0.037-0.075-0.037-0.074 0.074h-0.037l-0.037-0.037-0.074 0.037 0.037 0.037h-0.075v-0.037l0.038-0.074-0.038-0.037 0.038-0.073-0.075-0.149h-0.11v-0.037c0.024-0.050 0.048-0.1 0.074-0.149v-0.037c-0.025 0.025-0.049 0.049-0.074 0.074l-0.037-0.074h-0.038v-0.037h0.038v-0.037l-0.075-0.075 0.037-0.037h-0.074v-0.074l-0.037-0.037v0.037l-0.037-0.037c-0.037 0-0.075 0-0.112 0v-0.075h-0.037l-0.037 0.075v0.111l-0.037-0.037-0.037-0.111c-0.049-0.025-0.099-0.051-0.149-0.075v-0.074h-0.074l-0.037-0.037-0.075 0.037v-0.037l-0.037-0.037 0.037-0.037-0.037-0.038h0.037l-0.037-0.037-0.037 0.037-0.074-0.037c0.025-0.025 0.049-0.049 0.074-0.074l-0.074 0.037v-0.037h-0.037l-0.038-0.037h-0.037l0.037-0.037c-0.037 0-0.074 0-0.111 0v-0.037l-0.037 0.037h-0.074v-0.037h-0.038v-0.038l-0.148-0.074-0.037 0.112-0.075-0.075c-0.037 0-0.074 0-0.111 0l-0.074 0.037c-0.060-0.027-0.122-0.040-0.186-0.037v0.037l-0.074-0.037v0.037l-0.075 0.038-0.037-0.038h-0.037c-0.060-0.023-0.109-0.060-0.149-0.111l-0.186-0.037v-0.037l-0.074 0.037-0.111-0.037-0.037 0.037-0.075-0.037-0.11 0.075c-0.052-0.004-0.102 0.008-0.149 0.037l-0.037-0.037h-0.074l-0.037-0.037v0.037c-0.089 0.009-0.176-0.004-0.261-0.037v-0.037l-0.037-0.038v-0.037l0.037-0.037-0.037-0.074 0.112-0.075h-0.037v-0.037c-0.025-0.024-0.050-0.049-0.075-0.074v-0.149l-0.037-0.074c0-0.025 0-0.049 0-0.074l-0.037-0.037-0.037-0.186h0.037l0.037-0.074v-0.038h0.037c0-0.025 0-0.049 0-0.074l-0.037-0.037h-0.074l0.037-0.074c-0.11-0.052-0.186-0.142-0.223-0.26v-0.075l-0.037-0.037v-0.074h0.037l-0.037-0.149 0.074-0.037-0.037-0.074 0.037-0.075-0.037-0.037h0.037v-0.074c0.046-0.012 0.084-0.037 0.112-0.074v-0.038l0.074-0.037v-0.037l0.037-0.037v-0.074h-0.037c-0.041-0.088-0.105-0.164-0.186-0.223-0.036-0.070-0.049-0.144-0.037-0.223l0.037-0.037-0.037-0.037 0.037-0.075h0.037c-0.081-0.237-0.24-0.444-0.445-0.594v-0.074l0.036-0.037z"></path>
</svg>
