<?xml version="1.0" encoding="utf-8"?>
<!-- Generated by IcoMoon.io -->
<!DOCTYPE svg PUBLIC "-//W3C//DTD SVG 1.1//EN" "http://www.w3.org/Graphics/SVG/1.1/DTD/svg11.dtd">
<svg version="1.1" xmlns="http://www.w3.org/2000/svg" xmlns:xlink="http://www.w3.org/1999/xlink" width="32" height="32" viewBox="0 0 32 32">
<path d="M24.115 0c0.049 0 0.098 0 0.147 0 0.057 0.028 0.115 0.054 0.171 0.083 0.040 0.020 0.101 0.033 0.114 0.065 0.042 0.1 0.054 0.212 0.101 0.309 0.025 0.051 0.094 0.108 0.147 0.113 0.255 0.022 0.504 0.040 0.702 0.238 0.043 0.043 0.146 0.061 0.209 0.044 0.2-0.056 0.355-0.022 0.522 0.115 0.123 0.101 0.162 0.209 0.195 0.348 0.014 0.060 0.098 0.103 0.15 0.154 0.031-0.059 0.068-0.116 0.092-0.177 0.036-0.088 0.048-0.19 0.097-0.269 0.079-0.127 0.191-0.079 0.285-0.013 0.108 0.076 0.061 0.149-0.014 0.224-0.035 0.035-0.084 0.116-0.072 0.129 0.083 0.094 0.171 0.189 0.277 0.254 0.035 0.021 0.123-0.055 0.19-0.074 0.054-0.015 0.132-0.037 0.167-0.011 0.056 0.040 0.119 0.098 0.035 0.196-0.044 0.052-0.053 0.167-0.030 0.239 0.058 0.182 0.126 0.366 0.221 0.531 0.115 0.199 0.12 0.483 0.492 0.479 0.266-0.003 0.294 0.138 0.206 0.397-0.025 0.074 0.033 0.177 0.058 0.284-0.187 0.138-0.14 0.425 0.122 0.544-0.020 0.074-0.061 0.151-0.055 0.224 0.007 0.084 0.039 0.181 0.093 0.242 0.039 0.043 0.133 0.041 0.203 0.050 0.137 0.018 0.208 0.074 0.23 0.229 0.024 0.167 0.11 0.323 0.16 0.487 0.043 0.143 0.073 0.29 0.111 0.441-0.069 0.022-0.109 0.031-0.147 0.047-0.214 0.093-0.244 0.173-0.154 0.388 0.019 0.044 0.038 0.094 0.037 0.14-0.008 0.199-0.023 0.398-0.037 0.614-0.177 0.072-0.38 0.153-0.581 0.235-0.099-0.213-0.099-0.213-0.624-0.188-0.014 0.069-0.019 0.143-0.043 0.21-0.101 0.282 0.024 0.651 0.28 0.767 0.119 0.054 0.145 0.144 0.158 0.253 0.004 0.032-0.005 0.074 0.013 0.094 0.091 0.104 0.189 0.203 0.285 0.304 0.020 0.061-0.028 0.153-0.014 0.234 0.023 0.14 0.052 0.357 0.138 0.391 0.154 0.061 0.247 0.163 0.364 0.258 0.144 0.117 0.323 0.193 0.484 0.285 0.055-0.070 0.090-0.117 0.125-0.162 0.249 0.161 0.539 0.056 0.756-0.098 0.067-0.048 0.137-0.091 0.206-0.136 0 0.012 0 0.024 0 0.037-0.049 0.091-0.098 0.183-0.146 0.274-0.719 1.378-1.444 2.752-2.458 3.946-0.236 0.278-0.447 0.567-0.799 0.74-0.191 0.094-0.335 0.111-0.515 0.056 0.024-0.083 0.045-0.154 0.066-0.224-0.217-0.046-0.146 0.14-0.214 0.209-0.26 0.265-0.549 0.489-0.87 0.675-0.188 0.109-0.26 0.286-0.198 0.496 0.017 0.057 0.087 0.099 0.132 0.148 0.016-0.009 0.032-0.018 0.048-0.028 0.006 0.094 0.053 0.219 0.010 0.277-0.13 0.174-0.111 0.326-0.005 0.491 0.058 0.090 0.060 0.148-0.078 0.136-0.036-0.003-0.087 0.036-0.113 0.070-0.14 0.18-0.137 0.338-0.010 0.556 0.041 0.070 0.090 0.159 0.079 0.231-0.089 0.61-0.193 1.218-0.288 1.828-0.041 0.259-0.075 0.519-0.103 0.78-0.006 0.054 0.029 0.114 0.049 0.17 0.029 0.083 0.083 0.163 0.088 0.247 0.062 0.889 0.123 1.777 0.289 2.654 0.028 0.146 0.083 0.292 0.152 0.424 0.071 0.136 0.073 0.248 0.010 0.391-0.099 0.222-0.164 0.458-0.245 0.687-0.038 0.109-0.084 0.216-0.117 0.327-0.031 0.104-0.049 0.213-0.074 0.319-0.019 0.079-0.036 0.159-0.061 0.236-0.013 0.039-0.053 0.071-0.062 0.11-0.042 0.201-0.075 0.405-0.118 0.606-0.027 0.129-0.053 0.261-0.104 0.38-0.071 0.166-0.101 0.323-0.011 0.49 0.012 0.022 0.019 0.054 0.012 0.077-0.082 0.274-0.208 0.542-0.244 0.822-0.077 0.597-0.058 1.194 0.166 1.755-0.122 0.182-0.243 0.373-0.375 0.556-0.035 0.049-0.101 0.092-0.16 0.105-0.233 0.053-0.446 0.153-0.567 0.357-0.203 0.342-0.462 0.659-0.525 1.079-0.481-0.31-0.95-0.608-1.413-0.916-0.175-0.116-0.335-0.254-0.513-0.391 0.271-0.19 0.357-0.489 0.148-0.608-0.206-0.118-0.245-0.42-0.525-0.423-0.025-0-0.050-0.054-0.074-0.084-0.018-0.022-0.032-0.049-0.053-0.068-0.047-0.041-0.131-0.070-0.142-0.118-0.055-0.238-0.201-0.367-0.443-0.403 0.037-0.124 0.075-0.236 0.104-0.35 0.032-0.128 0.109-0.28 0.069-0.383-0.069-0.176-0.017-0.336 0.012-0.486 0.035-0.181 0.155-0.345 0.242-0.524 0.068 0.015 0.137 0.036 0.207 0.044 0.073 0.008 0.147 0.004 0.22 0.005 0.072 0.001 0.171 0.030 0.21-0.006 0.051-0.047 0.075-0.147 0.067-0.22-0.003-0.034-0.108-0.059-0.167-0.086-0.027-0.012-0.055-0.021-0.078-0.030 0.031-0.102 0.085-0.197 0.083-0.291-0.007-0.318 0.108-0.439 0.41-0.401 0.017 0.002 0.034-0.003 0.052-0.005-0.012-0.090 0.13-0.428 0.181-0.415 0.201 0.050 0.164-0.126 0.228-0.21 0.060-0.078 0.138-0.143 0.21-0.212 0.051-0.049 0.157-0.109 0.148-0.14-0.062-0.225 0.201-0.323 0.197-0.525-0.081-0.129-0.163-0.257-0.246-0.389-0.189 0.038-0.312-0.025-0.417-0.193-0.031-0.049-0.107-0.073-0.165-0.102-0.054-0.026-0.106-0.007-0.163-0.086-0.087-0.121-0.184-0.286-0.418-0.216-0.14 0.042-0.346 0.085-0.431-0.142-0.006-0.015-0.087-0.022-0.115-0.004-0.188 0.114-0.324 0.089-0.442-0.11-0.045-0.076-0.161-0.108-0.229-0.175-0.153-0.15-0.149 0.117-0.253 0.089-0.011-0.003-0.022-0.008-0.006-0.002-0.059-0.082-0.104-0.145-0.126-0.176-0.096 0.049-0.2 0.125-0.218 0.109-0.188-0.174-0.302-0.044-0.446 0.070-0.103 0.081-0.244 0.113-0.369 0.165-0.021 0.009-0.046 0.015-0.067 0.012-0.181-0.029-0.362-0.060-0.55-0.092-0.019-0.177-0.048-0.365-0.056-0.553-0.006-0.167-0.080-0.281-0.202-0.389-0.375-0.334-0.746-0.672-1.106-1.021-0.135-0.131-0.235-0.098-0.361-0.005-0.075 0.056-0.16 0.12-0.248 0.134-0.143 0.022-0.292 0.006-0.449 0.006-0.164-0.238-0.23-0.294-0.408-0.229-0.126 0.046-0.206-0-0.313-0.033-0.167-0.050-0.309-0.102-0.445-0.232-0.147-0.141-0.328-0.25-0.551-0.316-0.253-0.075-0.463-0.295-0.695-0.447-0.174-0.114-0.293-0.322-0.539-0.32-0.070 0-0.153 0.008-0.208-0.025-0.233-0.139-0.472-0.108-0.7-0.021-0.173 0.066-0.329 0.178-0.487 0.279-0.067 0.043-0.118 0.11-0.172 0.161-0.062-0.065-0.097-0.128-0.151-0.154-0.079-0.038-0.172-0.042-0.256-0.071-0.208-0.073-0.416-0.147-0.62-0.23-0.043-0.017-0.098-0.074-0.098-0.112-0-0.138-0.001-0.282 0.039-0.411 0.059-0.191 0.153-0.37 0.236-0.564-0.043-0.024-0.091-0.067-0.146-0.079-0.281-0.065-0.559-0.138-0.851-0.151-0.135-0.006-0.268-0.068-0.404-0.075-0.42-0.021-0.762 0.22-1.125 0.375-0.21 0.090-0.387 0.255-0.576 0.392-0.073 0.053-0.139 0.118-0.205 0.18-0.093 0.088-0.173 0.195-0.279 0.264-0.176 0.114-0.374 0.19-0.492 0.384-0.023 0.039-0.127 0.031-0.194 0.041-0.085 0.013-0.185-0.002-0.251 0.040-0.11 0.069-0.188 0.187-0.296 0.259-0.227 0.15-0.376 0.471-0.737 0.349-0.031-0.010-0.094 0.046-0.129 0.085-0.1 0.111-0.172 0.265-0.294 0.336-0.198 0.115-0.426 0.179-0.643 0.257-0.023 0.008-0.064-0.045-0.096-0.045-0.056 0-0.129 0.002-0.164 0.036-0.118 0.113-0.221 0.241-0.348 0.383-0.052-0.086-0.095-0.157-0.127-0.21 0.081-0.062 0.161-0.1 0.206-0.163 0.064-0.090 0.104-0.197 0.153-0.298 0.026-0.052 0.050-0.105 0.073-0.158 0.085-0.188-0.094-0.283-0.147-0.423-0.025-0.064-0.058-0.159-0.029-0.204 0.099-0.158 0.101-0.308 0.034-0.451 0.038-0.067 0.099-0.124 0.098-0.18-0.005-0.167-0.040-0.333-0.049-0.5-0.003-0.048 0.037-0.138 0.068-0.143 0.148-0.025 0.194-0.126 0.228-0.246-0.167-0.17-0.33-0.338-0.486-0.498-0.204-0.117-0.408-0.234-0.613-0.353 0.164-0.131 0.177-0.325 0.047-0.452-0.034-0.033-0.054-0.103-0.046-0.151 0.012-0.075 0.052-0.145 0.076-0.207-0.049-0.063-0.091-0.117-0.137-0.176 0.070-0.031 0.122-0.055 0.204-0.092-0.071-0.044-0.115-0.071-0.139-0.086 0.022-0.099 0.020-0.199 0.066-0.266 0.059-0.085 0.157-0.143 0.267-0.239-0.109-0.033-0.184-0.055-0.256-0.077-0.062-0.15 0.18-0.298-0.024-0.444 0.219-0.161 0.52-0.207 0.623-0.478-0.012-0.020-0.024-0.039-0.036-0.059-0.233 0.094-0.467 0.189-0.71 0.287-0.067-0.171-0.164-0.317-0.079-0.504 0.029-0.064 0.025-0.155 0.004-0.225-0.048-0.161 0.088-0.372 0.255-0.412 0.108-0.026 0.209-0.091 0.306-0.15 0.023-0.014 0.024-0.074 0.021-0.112-0.001-0.011-0.053-0.030-0.077-0.025-0.16 0.033-0.319 0.072-0.465 0.107 0.021-0.29 0.041-0.566 0.061-0.841-0.016-0.001-0.032-0.002-0.048-0.003 0.031-0.034 0.062-0.068 0.094-0.102-0.019-0.003-0.037-0.007-0.056-0.010 0-0.080-0.027-0.175 0.007-0.234 0.038-0.066 0.127-0.12 0.204-0.143 0.108-0.032 0.229-0.027 0.138-0.191-0.091 0.020-0.181 0.040-0.267 0.059-0.045-0.111 0.070-0.27-0.132-0.273-0.004-0-0.005-0.047-0.013-0.070-0.013-0.036-0.026-0.074-0.047-0.105-0.062-0.092-0.16-0.173-0.184-0.273-0.033-0.138-0.010-0.29-0.015-0.436-0.002-0.058-0.007-0.118-0.024-0.172-0.040-0.127-0.058-0.253 0.078-0.325 0.13-0.068 0.273-0.111 0.41-0.164 0.076-0.030 0.193-0.025 0.153-0.139-0.169 0-0.319 0.009-0.467-0.002-0.147-0.011-0.176-0.095-0.086-0.209 0.073-0.093 0.114-0.185-0.014-0.273 0.16-0.093 0.236-0.206 0.125-0.385 0.254-0.061 0.497 0.195 0.767-0.032-0.132-0.023-0.229-0.039-0.326-0.057-0.039-0.008-0.079-0.019-0.116-0.035-0.133-0.055-0.261-0.147-0.399-0.163-0.298-0.034-0.56-0.077-0.65-0.432-0.030-0.117-0.143-0.214-0.218-0.32 0-0.024 0-0.049 0-0.073 0.063-0.056 0.118-0.124 0.19-0.166 0.14-0.082 0.314-0.125 0.324-0.331 0.013-0.263 0.138-0.477 0.351-0.605s0.12-0.434 0.354-0.532c0.006-0.003-0.008-0.045-0.006-0.069 0.002-0.029 0.003-0.075 0.019-0.084 0.148-0.077 0.15-0.176 0.012-0.328 0.545-0.053 0.815-0.519 1.254-0.708-0.008-0.193-0.007-0.193 0.192-0.24 0.029-0.007 0.061-0.015 0.082-0.034 0.123-0.112 0.169-0.429 0.097-0.589 0.118-0.057 0.236-0.113 0.383-0.184 0.022 0.081 0.041 0.147 0.059 0.212 0.014 0.051 0.016 0.112 0.045 0.153 0.089 0.125 0.198 0.236 0.28 0.364s0.143 0.273 0.211 0.407c-0.204 0.245-0.187 0.423 0.050 0.662 0.023 0.023 0.034 0.064 0.039 0.099 0.019 0.143 0.088 0.236 0.238 0.262 0.031 0.005 0.076 0.031 0.084 0.057 0.045 0.149 0.184 0.176 0.29 0.172 0.311-0.013 0.552 0.131 0.775 0.296 0.091-0.043 0.174-0.077 0.252-0.119 0.052-0.029 0.125-0.059 0.143-0.106 0.079-0.207 0.223-0.31 0.454-0.319 0-0.055-0.008-0.109 0.003-0.159 0.009-0.041 0.034-0.102 0.064-0.11 0.143-0.037 0.249-0.255 0.436-0.098 0.010 0.009 0.047-0.007 0.068-0.019 0.159-0.092 0.317-0.187 0.501-0.296 0.029 0.034 0.069 0.091 0.12 0.138 0.046 0.042 0.098 0.083 0.155 0.104 0.062 0.023 0.132 0.023 0.199 0.030 0.041 0.004 0.102 0.022 0.121 0.003 0.097-0.102 0.206-0.202 0.268-0.325 0.065-0.128 0.081-0.28 0.124-0.445 0.19 0.135 0.322 0.105 0.385-0.118 0.008-0.027 0.036-0.048 0.051-0.074 0.11-0.18 0.221-0.359 0.325-0.542 0.020-0.034 0.022-0.085 0.016-0.126-0.022-0.137 0.013-0.204 0.17-0.203 0.115 0 0.181-0.198 0.126-0.295-0.060-0.106-0.134-0.216 0.003-0.338 0.087-0.077 0.070-0.182-0.048-0.229-0.188-0.075-0.361-0.152-0.349-0.401 0.002-0.036-0.038-0.075-0.063-0.11-0.124-0.175-0.115-0.387 0.043-0.533 0.090-0.083 0.201-0.143 0.302-0.214 0.118-0.084 0.236-0.169 0.354-0.253 0.122-0.087 0.239-0.183 0.368-0.258 0.037-0.022 0.126-0.003 0.161 0.029 0.166 0.153 0.321 0.318 0.44 0.439 0.154 0 0.256 0 0.365 0 0.106-0.14 0.14-0.144 0.321-0.058 0.062 0.029 0.137 0.060 0.199 0.050 0.133-0.021 0.178 0.017 0.175 0.151-0.003 0.191 0.177 0.337 0.352 0.323 0.060 0.078 0.111 0.145 0.162 0.212 0.098-0.078 0.196-0.157 0.294-0.235 0.087-0.018 0.19-0.035 0.29-0.063 0.087-0.024 0.169-0.062 0.255-0.090 0.034-0.011 0.081 0.001 0.104-0.019 0.145-0.125 0.313-0.236 0.421-0.39 0.16-0.228 0.38-0.264 0.622-0.29 0.194-0.021 0.386-0.070 0.58-0.091 0.080-0.009 0.188 0.063 0.241 0.030 0.119-0.074 0.282-0.096 0.322-0.289 0.023-0.107 0.206-0.185 0.22-0.289 0.021-0.156 0.077-0.242 0.212-0.299 0.124-0.052 0.246-0.112 0.416-0.19 0.137-0.202 0.308-0.462 0.489-0.715 0.018-0.026 0.090-0.023 0.135-0.017 0.075 0.010 0.151 0.058 0.221 0.048 0.159-0.021 0.314-0.067 0.487-0.106-0.022 0.161-0 0.279 0.131 0.272 0.15-0.007 0.174 0.066 0.172 0.16 0.081 0.006 0.15 0.003 0.216 0.017 0.235 0.049 0.277 0.266 0.329 0.44 0.081 0.269 0.187 0.486 0.484 0.557 0.034 0.008 0.086 0.052 0.085 0.077-0.004 0.118-0.007 0.241-0.046 0.349-0.022 0.058-0.118 0.089-0.151 0.112-0.026 0.16-0.049 0.301-0.070 0.429 0.067 0.026 0.141 0.066 0.22 0.082 0.091 0.019 0.195 0.047 0.277 0.020 0.093-0.031 0.17-0.174 0.248-0.169 0.18 0.011 0.245-0.113 0.327-0.216 0.2 0.114 0.235 0.099 0.279-0.102 0.049-0.222 0.095-0.445 0.15-0.666 0.053-0.216 0.148-0.249 0.311-0.101 0.103 0.094 0.187 0.075 0.294 0.015 0.080-0.045 0.173-0.077 0.264-0.090 0.224-0.032 0.471-0.369 0.399-0.561-0.068-0.183-0.048-0.218 0.145-0.246 0.147-0.022 0.296-0.033 0.439-0.070 0.038-0.010 0.081-0.095 0.079-0.144-0.004-0.092-0.039-0.182-0.062-0.276 0.358-0.049 0.652-0.178 0.886-0.427z"></path>
</svg>
