<?xml version="1.0" encoding="utf-8"?>
<!-- Generated by IcoMoon.io -->
<!DOCTYPE svg PUBLIC "-//W3C//DTD SVG 1.1//EN" "http://www.w3.org/Graphics/SVG/1.1/DTD/svg11.dtd">
<svg version="1.1" xmlns="http://www.w3.org/2000/svg" xmlns:xlink="http://www.w3.org/1999/xlink" width="32" height="32" viewBox="0 0 32 32">
<path d="M3.282 3.574v-0.083l0.082-0.084c0.085-0.319 0.261-0.66 0.458-0.914v-0.124c0.061-0.111 0.147-0.211 0.249-0.291v-0.084h0.084v-0.041l0.083-0.041v-0.124h-0.041l0.041-0.084v-0.041l0.041-0.083-0.041-0.041h0.041l-0.041-0.084v-0.083l-0.083-0.124v-0.084c-0.056 0-0.111 0-0.167 0l-0.124-0.083v-0.041h-0.042v-0.167c0.157-0.090 0.274-0.161 0.415-0.249 0.134 0.048 0.273 0.061 0.416 0.041l0.083-0.041c0.16-0.003 0.312 0.025 0.458 0.084l0.041-0.043 0.042 0.043c0.288 0.010 0.572-0.047 0.831-0.167h0.249l0.042-0.083 0.041 0.041h0.126v-0.041l0.041 0.041 0.042-0.041 0.041 0.041h0.041l0.042 0.124 0.084-0.041c0.073 0.008 0.143-0.005 0.209-0.041l0.124-0.124c0.18 0 0.36 0 0.541 0l0.083-0.043c0.205 0.066 0.427 0.049 0.624-0.041 0.117-0.049 0.233-0.12 0.332-0.208v-0.083l0.124-0.041c0.459 0.176 0.958 0.23 1.455 0.167v-0.042c0.153 0.024 0.305 0.052 0.456 0.084l-0.041-0.041c0.099 0.035 0.182 0.090 0.249 0.166l0.126-0.041v-0.041c0.116-0.021 0.227-0.008 0.332 0.041v0.041c0.114-0.012 0.225 0.002 0.332 0.041l0.041-0.041h-0.083l0.042-0.041 0.207 0.126h0.083l-0.083-0.043h-0.084c0.105-0.011 0.202 0.017 0.292 0.084l-0.084-0.041 0.167 0.041 0.041 0.083c0.053 0.032 0.109 0.046 0.167 0.041l0.041 0.041c0.028 0 0.055 0 0.083 0 0.216 0.182 0.457 0.339 0.707 0.457l0.166 0.167h0.041l0.126 0.083h0.167c0.083 0.036 0.153 0.093 0.207 0.167h0.042l0.084-0.043 0.083 0.043c0.061 0.102 0.131 0.201 0.208 0.291h0.083c0.165 0.124 0.347 0.222 0.541 0.291l0.126 0.166c0.099 0.020 0.196 0.048 0.29 0.082 0.052 0.079 0.121 0.135 0.208 0.167l0.125-0.041 0.125 0.041c0.055 0.056 0.111 0.111 0.167 0.167h0.041c0.055 0.028 0.111 0.056 0.166 0.083 0.055 0 0.111 0 0.166 0 0.215 0.191 0.398 0.416 0.541 0.664h0.041v0.043l0.126 0.083c0.056 0 0.111 0 0.166 0 0.037 0.164 0.141 0.297 0.291 0.373v-0.041l0.083 0.084h0.083l0.084-0.043h0.041l0.042-0.041h0.083l0.207 0.125 0.083 0.166 0.083 0.041v0.084h0.043l0.041 0.166 0.083 0.084h0.125c0.069 0.069 0.138 0.138 0.206 0.207 0.080 0.040 0.162 0.053 0.249 0.042 0.136 0.171 0.274 0.336 0.417 0.498h0.083c0.185 0.079 0.341 0.208 0.457 0.375 0.092 0.045 0.189 0.059 0.291 0.041l0.083 0.041h0.083c0.077 0.027 0.149 0.070 0.207 0.125h0.042l0.084 0.041c0.041 0 0.082 0 0.124 0l0.042 0.041 0.084-0.041h0.083c0-0.028 0-0.056 0-0.084l-0.041-0.041c0.135 0.124 0.232 0.277 0.291 0.458v0.041c0.218 0.397 0.495 0.745 0.831 1.039l-0.083-0.041 0.042 0.041h0.041v-0.041c0.041 0 0.083 0 0.125 0 0.355 0.416 0.676 0.861 0.957 1.33 0.522 0.501 1.088 0.996 1.662 1.454h0.083l0.167 0.125c0.041 0 0.082 0 0.124 0l0.085 0.041 0.041-0.041 0.041 0.166h-0.040c0.308 0.602 0.805 1.086 1.413 1.371 0.083-0.041 0.166-0.083 0.249-0.124 0.042 0.041 0.083 0.083 0.125 0.124v0.041h0.084c0.226 0.095 0.452 0.194 0.664 0.291v-0.041 0.041h0.084c0.312 0.192 0.494 0.498 0.541 0.874l-0.043 0.041c-0.78 0.162-1.555 0.342-2.327 0.54-0.074 0.268-0.156 0.527-0.249 0.79-0.123 0.020-0.217 0.074-0.291 0.165l-0.041 0.167-0.208 0.208-0.041 0.332-0.085 0.124v0.084l0.043 0.041c-0.014 0.098-0.028 0.193-0.043 0.291l0.043 0.083v0.041h-0.043c-0.102 0.122-0.23 0.221-0.373 0.291-0.032 0.053-0.046 0.108-0.042 0.166l-0.041 0.041 0.041 0.126c-0.039 0.092-0.095 0.176-0.166 0.249 0.005 0.099-0.009 0.195-0.041 0.291-0.041 0.032-0.069 0.073-0.083 0.124l-0.083 0.041h-0.084l-0.083 0.166c-0.101 0.048-0.198 0.103-0.291 0.166v0.042l-0.041 0.041v0.083c-0.105 0.085-0.175 0.196-0.208 0.332l-0.126 0.043c-0.055 0.055-0.11 0.11-0.165 0.165-0.003 0.131-0.016 0.249-0.042 0.374l0.083-0.041h0.083v0.041h0.084c-0.076 0.215-0.2 0.395-0.375 0.54v0.043l-0.082 0.083 0.041 0.083-0.083 0.249c-0.072 0.085-0.137 0.163-0.209 0.249 0 0.042 0 0.083 0 0.125l-0.082 0.041h-0.042c-0.164 0.089-0.312 0.221-0.416 0.374v0.208l-0.042 0.041h-0.041l-0.084 0.083v0.041h-0.084l-0.083 0.084-0.083-0.041h-0.125l-0.041-0.084v0.084l-0.125 0.083c-0.040-0.032-0.068-0.074-0.083-0.126v-0.041h-0.041v-0.083l-0.042 0.041-0.041-0.041-0.043 0.041h-0.042c-0.052 0.079-0.121 0.135-0.206 0.167l0.042 0.082-0.085 0.083h-0.041c-0.018 0.073-0.046 0.143-0.083 0.208v0.041l-0.166 0.167v0.083l-0.166 0.041v0.125l0.041 0.041v0.041c-0.040 0.032-0.068 0.074-0.082 0.125l-0.085-0.042-0.041 0.125c-0.032 0.040-0.073 0.068-0.124 0.083v0.041h0.041c0 0.042 0 0.083 0 0.125l-0.084 0.083c-0.009 0.073 0.005 0.143 0.043 0.208l0.082 0.041-0.041 0.041h-0.041v0.083h-0.085v0.043l-0.041 0.041h-0.042l0.042 0.041c0.027 0 0.055 0 0.083 0v0.041c0.083 0 0.166 0 0.249 0l0.084-0.041 0.083 0.083h-0.042l-0.208 0.167c0 0.028 0 0.055 0 0.082l-0.083 0.041v0.126c-0.116 0.090-0.219 0.206-0.291 0.332l0.042 0.041-0.083 0.125v0.041l-0.043 0.041v0.041l-0.083 0.041 0.083 0.084v0.083c-0.055 0.055-0.11 0.11-0.165 0.166v0.084l0.083 0.041v0.083c-0.032 0.040-0.073 0.069-0.124 0.084v0c-0.057 0.096-0.057 0.194 0 0.291l0.041 0.041v0.083l0.042 0.041c0 0.028 0 0.055 0 0.083h0.083l0.041 0.084 0.084 0.041v0.082l-0.084-0.041h-0.083l0.042 0.041v0.041c-0.095 0.051-0.18 0.122-0.249 0.208l0.042 0.041v0.043l-0.042 0.041v0.041c-0.032 0.040-0.074 0.068-0.125 0.083h-0.083v0.082c-0.041 0-0.083 0-0.125 0v0.043l-0.167 0.041-0.041 0.041 0.041 0.041v0.083l0.043 0.084-0.084 0.041 0.041 0.083h0.085v0.041l0.041 0.041h-0.041l-0.042 0.084h-0.043l-0.041 0.041 0.041 0.041h0.043c0.065 0.049 0.133 0.091 0.206 0.125 0.059-0.005 0.114 0.009 0.167 0.041v0.083l0.125 0.041v0.041l-0.042 0.084c0.042 0.041 0.083 0.082 0.125 0.124-0.003 0.109-0.048 0.215-0.125 0.291v0.167l-0.042 0.042 0.042 0.041-0.042 0.041v0.084c0.078-0.042 0.162-0.056 0.249-0.043l0.042 0.043h0.084l0.041 0.041-0.041 0.082 0.041 0.042v0.082c0.072 0.044 0.135 0.083 0.208 0.125l0.166-0.082 0.041 0.041-0.041 0.041 0.041 0.083h0.042c-0.009 0.073 0.005 0.143 0.043 0.208-0.016 0.051-0.044 0.092-0.085 0.124 0 0.056 0 0.111 0 0.167-0.104 0.086-0.176 0.201-0.207 0.332-0.041 0.032-0.069 0.073-0.083 0.125h0.083v0.124h-0.083v0.041l-0.042 0.041v0.043l-0.249 0.042v0.041c0.041 0.032 0.069 0.073 0.083 0.124-0.059 0.043-0.101 0.099-0.124 0.167l0.041 0.041h-0.083l0.042 0.041v0.084l-0.042 0.041 0.042 0.042-0.042 0.041v0.042l-0.125 0.041-0.042 0.043h-0.124l-0.042 0.041v0.124l-0.043 0.041c0 0.028 0 0.056 0 0.084h-0.041l-0.083 0.041 0.042 0.041c-0.041 0.032-0.069 0.072-0.083 0.124-0.028 0-0.057 0-0.085 0l-0.083 0.043-0.041-0.043v0.043l-0.041 0.041c-0.056 0-0.112 0-0.167 0v-0.041h-0.041l-0.042 0.082 0.083 0.041c0.008 0.073-0.005 0.143-0.041 0.208-0.069 0-0.139 0-0.209 0l-0.083-0.041-0.082 0.083v0.124l-0.085 0.043-0.041-0.043h-0.083v0.085h-0.043l-0.041-0.042-0.043 0.042h-0.041c0 0.027 0 0.055 0 0.082l-0.042 0.083 0.042 0.084c-0.028 0.076-0.071 0.148-0.125 0.206 0 0.028 0 0.056 0 0.084-0.027 0-0.055 0-0.083 0l-0.042 0.042-0.125-0.042c0.005-0.058-0.009-0.114-0.041-0.166h-0.042l-0.041 0.041-0.167-0.041c-0.053 0.111-0.136 0.195-0.249 0.249l-0.042-0.041 0.083-0.083-0.041-0.084c0.006-0.116-0.023-0.233-0.083-0.332v-0.082l-0.125-0.085-0.041-0.124-0.083-0.041h-0.167l-0.082-0.125-0.125-0.042-0.083 0.042h-0.083l-0.041 0.041h-0.085l0.042-0.041c0-0.042 0-0.083 0-0.124l-0.125-0.041v-0.041l-0.041-0.043-0.042 0.043h-0.166v-0.085l0.042-0.041v-0.124c0.041-0.043 0.082-0.085 0.125-0.125h0.042l-0.042-0.042h-0.041c-0.109-0.095-0.167-0.228-0.167-0.373-0.163-0.135-0.334-0.278-0.499-0.417h-0.042c-0.083-0.041-0.166-0.082-0.249-0.124-0.072 0.004-0.141-0.011-0.209-0.043-0.071-0.086-0.135-0.163-0.208-0.248h-0.042c-0.184-0.102-0.34-0.244-0.456-0.416h-0.043l-0.041-0.041h-0.125c-0.081-0.041-0.15-0.097-0.208-0.167-0.372 0.107-0.785 0.139-1.163 0.084-0.063 0.073-0.146 0.114-0.249 0.124l-0.083-0.041h-0.043l-0.291 0.332-0.124 0.041-0.167-0.041-0.083 0.083c-0.461 0.006-0.927 0.077-1.372 0.208-0.051-0.112-0.12-0.209-0.208-0.291h-0.083l-0.167-0.083c-0.464 0.080-0.939 0.121-1.413 0.124l0.083-0.332-0.042-0.083 0.168-0.084 0.041-0.083c-0.053-0.231-0.037-0.478 0.042-0.705l0.041-0.043c-0.009-0.117 0.019-0.228 0.084-0.332l-0.043-0.082 0.126-0.167v-0.041l0.083-0.041 0.084-0.166v-0.041l0.083-0.083v-0.041h-0.041v-0.084l0.041 0.043v-0.043l0.125-0.041v-0.041l-0.125-0.041v-0.291l0.042-0.084-0.083-0.206 0.041-0.084v-0.165l0.083-0.041h0.042c0.064-0.109 0.149-0.209 0.249-0.291v-0.043l-0.125-0.041c-0.069 0.023-0.125 0.065-0.167 0.125h-0.083l-0.041-0.041-0.042-0.125-0.042-0.041c-0.032-0.053-0.046-0.108-0.042-0.167-0.055-0.073-0.126-0.13-0.209-0.165-0.236-0.003-0.474-0.031-0.705-0.084-0.105-0.074-0.2-0.155-0.29-0.248h-0.334c-0.055-0.057-0.11-0.112-0.166-0.167l0.083-0.167v-0.041l-0.083-0.083c-0.027-0.211-0.144-0.384-0.332-0.499-0.024-0.305-0.051-0.609-0.084-0.914l0.084-0.043c0.038-0.137 0.052-0.274 0.042-0.415-0.174-0.146-0.312-0.327-0.417-0.54-0.020-0.196-0.006-0.395 0.042-0.582-0.083-0.142-0.138-0.294-0.166-0.458l-0.084-0.082-0.125 0.045c0-0.069 0-0.138 0-0.208l0.082-0.083v-0.041l0.042-0.041c0.064-0.144 0.079-0.297 0.043-0.458l-0.126-0.125 0.041-0.124c-0.047-0.109-0.088-0.22-0.124-0.332l0.042-0.208c-0.028-0.111-0.056-0.221-0.083-0.332l0.041-0.084c-0.075-0.118-0.129-0.24-0.167-0.374l0.041-0.041 0.126-0.041c0.046-0.076 0.074-0.159 0.083-0.249-0.028-0.056-0.055-0.111-0.083-0.166v-0.166l-0.126-0.084v-0.083l-0.041-0.083 0.041-0.041c0-0.069 0-0.138 0-0.208l0.085-0.083v-0.043c-0.058-0.084-0.111-0.164-0.168-0.249v-0.041l0.042-0.041h0.126l0.041-0.041c-0.038-0.093-0.095-0.179-0.167-0.25l0.041-0.124 0.085-0.043c0.036-0.066 0.049-0.135 0.041-0.207l-0.083-0.041c0-0.056 0-0.111 0-0.167l0.083-0.041-0.041-0.084h-0.042l-0.126-0.083 0.126-0.083-0.043-0.167 0.043-0.124-0.043-0.084c-0.041 0-0.082 0-0.124 0l-0.083-0.124h-0.041l-0.043 0.041-0.042-0.124-0.165-0.084v-0.124l-0.085 0.041-0.041-0.124h-0.042l-0.083 0.083-0.167-0.083v-0.084l-0.041-0.041v-0.041h-0.042v-0.083h-0.208c0.037-0.095 0.051-0.191 0.041-0.291l-0.083-0.043v-0.083h-0.041l-0.042 0.041-0.208-0.291-0.085-0.041-0.041 0.083-0.041-0.041v-0.041c-0.027 0-0.055 0-0.083 0v-0.083l-0.083-0.125 0.041-0.083-0.126-0.167 0.085-0.083-0.043-0.208 0.084-0.041c-0.005-0.058 0.009-0.114 0.042-0.166l0.083-0.043v-0.041c-0.090-0.010-0.173-0.037-0.25-0.083v-0.041l0.085-0.041v-0.041c0.114-0.154 0.242-0.312 0.373-0.457-0.065-0.062-0.12-0.131-0.167-0.209l-0.166-0.083c0.016-0.097 0.030-0.192 0.042-0.291h-0.083l-0.043-0.041c0.042 0 0.084 0 0.126 0l0.041-0.126h0.042l0.041-0.124 0.084-0.084v-0.166l0.083-0.125c0-0.069 0-0.139 0-0.208l0.083-0.165c0-0.069 0-0.139 0-0.208 0.082-0.063 0.138-0.147 0.167-0.249l0.083-0.041c0.006-0.211-0.021-0.416-0.083-0.623 0.067-0.163 0.164-0.302 0.291-0.416-0.090-0.010-0.173-0.037-0.249-0.083v-0.083l-0.083-0.125 0.041-0.041 0.083-0.249-0.041-0.083 0.083-0.084v-0.041l-0.042-0.041c-0.101 0.002-0.196-0.012-0.291-0.041l-0.083-0.041v-0.041l-0.042 0.041-0.043-0.041-0.082 0.041h-0.082c-0.056 0.028-0.111 0.056-0.168 0.083h-0.041v-0.041l0.126-0.083c-0.028-0.056-0.057-0.111-0.085-0.167l0.042-0.041v-0.042h0.043v-0.041h0.041l0.083-0.209c-0.088-0.141-0.167-0.272-0.249-0.416v-0.041c-0.027-0.028-0.055-0.056-0.083-0.083 0.005-0.058-0.009-0.114-0.041-0.167h-0.043v-0.041l-0.083 0.083v-0.041c0.12-0.092 0.216-0.203 0.29-0.332l-0.082-0.083 0.041-0.208 0.041-0.041h0.085v-0.041l-0.126-0.084h-0.124l-0.085-0.083c-0.069 0-0.138 0-0.207 0-0.051-0.015-0.093-0.042-0.125-0.083l0.042-0.043 0.041-0.291-0.083-0.207c-0.056-0.028-0.111-0.056-0.167-0.084v-0.041l0.043-0.041v-0.041h0.166l0.084-0.125v-0.207l0.042-0.043 0.124-0.041h-0.083l-0.083 0.041c0.004-0.071-0.011-0.14-0.043-0.207l-0.083-0.084c0-0.082 0-0.165 0-0.248-0.083 0-0.166 0-0.249 0l-0.041-0.084h-0.042c0-0.069 0-0.138 0-0.208l-0.125 0.043v-0.043l0.043-0.083z"></path>
</svg>
