<?xml version="1.0" encoding="utf-8"?>
<!-- Generated by IcoMoon.io -->
<!DOCTYPE svg PUBLIC "-//W3C//DTD SVG 1.1//EN" "http://www.w3.org/Graphics/SVG/1.1/DTD/svg11.dtd">
<svg version="1.1" xmlns="http://www.w3.org/2000/svg" xmlns:xlink="http://www.w3.org/1999/xlink" width="32" height="32" viewBox="0 0 32 32">
<path d="M0.006 17.778v-0.229l0.452-0.664 0.881-0.219c0.224-0.493 0.521-0.936 0.895-1.333h0.219l0.224-0.443c-0.055-0.478-0.202-0.924-0.443-1.333l-0.443 0.219-0.452-0.219c-0.043-1.038 0.274-2.059 0.895-2.889h0.443c0-1.333 0-2.666 0-3.999 8.59 0 17.177 0 25.767 0v1.554h0.443l0.448 0.664h0.219v0.229l0.224 0.219c0.629-0.036 1.195 0.036 1.776 0.221l0.219 0.221c-0.388 0.335-0.609 0.778-0.661 1.333l0.219 0.443c0 0.297 0 0.593 0 0.89l-0.219 0.221 0.219 0.221h0.224l0.219 0.221v0.45l-0.219 0.443v0.44l0.219 0.221v0.229h-0.219v0.443l-0.224 0.219c0 0.148 0 0.295 0 0.443h-0.219l-0.219 0.671-0.224 0.219v0.224h-0.229v0.44h-0.219l-0.224 0.229c0 0.295 0 0.588 0 0.883l-0.219 0.224h0.219v0.226l-0.219 0.443v0.44l0.219 0.224-0.219 0.219h0.443l-0.224 0.229v0.221h0.224c0 0.148 0 0.295 0 0.443h-0.443l0.219 0.221c0 0.15 0 0.297 0 0.448h-0.219c0 0.443 0 0.885 0 1.328h0.219v0.228h0.224v0.219h0.448v0.224h0.224v0.219l0.219-0.219 0.219 0.44h0.224v0.221h0.447l-0.229 0.221h0.229v0.226c-10.592 0.114-21.171 0.188-31.765 0.224 0.159-0.505 0.236-1.014 0.224-1.557 0.195-0.35 0.343-0.721 0.443-1.111l-0.224-0.221 0.443-0.443c0-0.224 0-0.445 0-0.669l-0.443-0.221-0.219 0.221-0.224-0.221v-0.221h0.224v-0.45h-0.224c0-0.221 0-0.44 0-0.662l0.224-0.221-0.224-0.222c-0.181-0.507-0.257-1.026-0.229-1.554v0z"></path>
</svg>
