<?xml version="1.0" encoding="utf-8"?>
<!-- Generated by IcoMoon.io -->
<!DOCTYPE svg PUBLIC "-//W3C//DTD SVG 1.1//EN" "http://www.w3.org/Graphics/SVG/1.1/DTD/svg11.dtd">
<svg version="1.1" xmlns="http://www.w3.org/2000/svg" xmlns:xlink="http://www.w3.org/1999/xlink" width="32" height="32" viewBox="0 0 32 32">
<path d="M5.962 26.997c0-0.083 0-0.165 0-0.248h0.122v0.061h0.064l-0.064-0.184-0.061-0.062h0.061l0.064-0.064-0.064-0.061c0.042-0.040 0.084-0.082 0.126-0.123v-0.061c0.060-0.048 0.101-0.11 0.123-0.186l0.123-0.062-0.062-0.061h0.062c0.042-0.041 0.083-0.082 0.124-0.123l-0.062-0.061v0.061l-0.062-0.061 0.062-0.125c-0.103 0-0.206 0-0.309 0l-0.062-0.061v-0.062c0.042-0.040 0.083-0.081 0.123-0.122v-0.125l0.123-0.184v-0.062l0.062-0.061h0.124c0.011-0.108-0.009-0.21-0.062-0.31l0.062-0.061v-0.187l0.061-0.123c0-0.186 0-0.372 0-0.557l-0.308-0.061c-0.090-0.114-0.131-0.238-0.123-0.371h-0.126c0.049-0.077 0.070-0.16 0.064-0.246l0.123-0.061-0.061-0.125c0.041 0 0.082 0 0.123 0 0.096-0.094 0.197-0.174 0.308-0.246v-0.061h0.185l0.061-0.064-0.061-0.061 0.061-0.185 0.064-0.061c0-0.103 0-0.206 0-0.31l0.061-0.061v-0.061c1.050 0 2.102 0 3.152 0v-0.064l0.061-0.062 0.061 0.062 0.185-0.122c0.047-0.079 0.068-0.162 0.061-0.248 0.063-0.082 0.124-0.163 0.187-0.246h-0.062l0.123-0.123-0.061-0.064 0.061-0.123v-0.123l0.062-0.061c0.047-0.079 0.068-0.162 0.061-0.248 0.042-0.040 0.084-0.081 0.126-0.123v-0.186l0.122-0.123-0.061-0.123v-0.064l-0.061-0.123 0.061-0.061 0.061-0.248 0.062-0.062h0.248l0.123-0.061 0.061 0.061h0.062l0.124-0.184v-0.123l0.185-0.064 0.061 0.064c0.062-0.062 0.124-0.124 0.187-0.187v-0.372h0.061v-0.061l-0.061-0.123h0.061c0.027-0.109 0.068-0.213 0.123-0.31l-0.123-0.061v-0.062h0.062l-0.062-0.124-0.123-0.061v-0.122l0.123-0.062-0.061-0.061 0.061-0.125c0-0.061 0-0.123 0-0.185l0.062-0.061-0.062-0.064 0.062-0.185 0.061-0.061h0.124l0.123-0.061 0.062-0.125c0.041 0 0.082 0 0.123 0l0.061-0.061 0.063-0.31h0.061l0.062-0.061c0.041 0 0.082 0 0.123 0v-0.123h0.185v-0.062l0.185-0.061v-0.061c-0.041-0.083-0.082-0.166-0.123-0.248l0.061-0.186-0.061-0.122v-0.123c0.216 0.103 0.442 0.144 0.68 0.123v-0.062l0.184-0.248v-0.061l0.061-0.062-0.122-0.061v-0.123l-0.062-0.063v-0.062l0.062-0.061c0-0.061 0-0.122 0-0.184l0.245-0.187v-0.062l0.063-0.061-0.124-0.062c-0.013-0.108 0.007-0.211 0.061-0.309h0.063l0.062-0.062h0.061l0.062-0.123-0.062-0.063c-0.062 0-0.124 0-0.187 0v-0.062l0.063-0.061h-0.124l-0.062-0.061 0.123-0.062h0.126v-0.187l-0.126-0.061h-0.061l0.061-0.062-0.061-0.061v-0.123h0.061l0.063-0.063v-0.123l-0.063-0.061 0.063-0.062h-0.063v-0.061h-0.061v-0.125c-0.041-0.040-0.082-0.081-0.123-0.122l0.061-0.123h-0.122v-0.125l-0.062-0.061h-0.061v-0.061c-0.042-0.040-0.084-0.081-0.126-0.122-0.061 0-0.122 0-0.184 0 0-0.062 0-0.124 0-0.187l-0.061 0.063v-0.125h-0.063l-0.062 0.061-0.061-0.123h-0.185v-0.123h-0.061l-0.063-0.061 0.063-0.125-0.124-0.123 0.061-0.062v-0.123h0.124l0.246-0.186h0.062c0-0.041 0-0.082 0-0.123l-0.062 0.061c-0.062 0-0.122 0-0.184 0l-0.062-0.061v-0.062h-0.061l-0.063-0.124v-0.062h-0.123v-0.061l-0.184-0.062-0.063-0.061h-0.061v-0.124c-0.061-0.048-0.102-0.109-0.123-0.185l-0.123-0.061c-0.042 0-0.083 0-0.124 0v-0.062c-0.021-0.076-0.062-0.138-0.123-0.186-0.079 0.047-0.162 0.068-0.249 0.061l-0.122-0.123c0 0.062 0 0.123 0 0.185l-0.062 0.063-0.123-0.186h-0.061l-0.063-0.062 0.063-0.061h-0.063l0.063-0.123-0.063-0.125 0.124-0.185c0.247 0 0.494 0 0.741 0l0.123-0.061c0.022 0.075 0.063 0.136 0.123 0.184v0.062l0.123 0.186c0.433 0 0.866 0 1.299 0 0.077-0.021 0.138-0.062 0.184-0.124l0.062 0.063c0.061-0.063 0.123-0.126 0.187-0.187 0-0.041 0-0.082 0-0.123l-0.126-0.061 0.063-0.063-0.124-0.123c0.021-0.271 0-0.539-0.062-0.803l-0.061-0.061-0.31-0.062-0.061-0.061h-0.123l-0.124-0.124h-0.123l0.061-0.062h-0.061v-0.061l-0.123 0.061 0.061-0.061-0.123-0.061v-0.062h0.062c0.041-0.042 0.082-0.083 0.123-0.124v-0.062l-0.062-0.061 0.062-0.494h0.061c0.014-0.288 0.036-0.578 0.062-0.865-0.469-0.066-0.943-0.108-1.421-0.125l-0.061-0.062 0.123-0.184c0.082-0.042 0.165-0.083 0.248-0.123h-0.187c0-0.083 0-0.165 0-0.248h0.124c0-0.124 0-0.247 0-0.371l-0.062-0.061v-0.248c0.169-0.183 0.354-0.348 0.556-0.494l-0.061-0.061c0-0.041 0-0.082 0-0.123h0.061v-0.063l-0.061-0.062v-0.061l0.061-0.062v-0.122l0.246-0.125h0.124c0-0.041 0-0.082 0-0.123l0.185-0.061-0.062 0.123h0.062l0.061-0.185h0.126v0.123h0.184l0.061-0.184 0.062-0.063c0.075 0.023 0.138 0.064 0.187 0.124h0.061c0-0.083 0-0.165 0-0.248h0.061l0.062 0.061h0.061c0.063-0.060 0.126-0.122 0.187-0.185h0.062v-0.061l0.061 0.061 0.061-0.061v0.123h0.126l0.123 0.061v0.123h0.061l0.061 0.063c0.15-0.019 0.295 0.001 0.433 0.061l0.063 0.062 0.246-0.062-0.062-0.431-1.173-1.113 0.061-0.062h0.061l0.062-0.124 0.063 0.124h0.061l0.062 0.062c0.096-0.091 0.179-0.195 0.248-0.309h0.061l0.062 0.061c0.041-0.041 0.082-0.082 0.123-0.122l0.061 0.061h0.063l0.061 0.123-0.061 0.124 0.123-0.061h0.061v0.061h0.062l-0.062 0.185c0.041 0 0.082 0 0.123 0l0.124 0.061 0.062-0.061c0.082 0 0.164 0 0.246 0v0.125l0.061 0.061 0.187-0.124 0.061 0.064 0.062-0.063 0.124 0.063c0.060-0.048 0.101-0.111 0.123-0.187l0.184-0.061v-0.122l0.126-0.064-0.062-0.062 0.062-0.122c0-0.041 0-0.082 0-0.123 0.082 0 0.164 0 0.245 0v-0.186h0.187c0.122-0.083 0.246-0.165 0.37-0.246h0.062l0.123 0.184h0.185l0.185 0.185 0.061-0.123c0.201 0.062 0.408 0.082 0.618 0.061v0.062h0.123l0.062-0.062 0.123 0.062 0.062-0.062h0.123l0.123 0.125h0.062l0.064 0.123 0.122-0.062v0.062l0.185 0.122h0.064c1.834 1.111 3.655 2.27 5.434 3.461 0 0.061 0 0.122 0 0.184l-0.309 0.619c-0.198 0.52-0.279 1.049-0.246 1.606l0.061 0.123c0.406 3.333 0.171 6.655-0.741 9.822l-0.123 0.063c-0.877 0.212-1.653 0.774-2.163 1.543-0.019 0.254-0.131 0.497-0.31 0.681v0.061l-0.061 0.064v0.123c-0.095 0.075-0.197 0.136-0.307 0.184l-0.064 0.125v0.061l0.064 0.061c-0.062 0.046-0.104 0.108-0.124 0.185v0.061l-0.062 0.125c0.005 0.106-0.015 0.209-0.061 0.309l-0.249 0.061-0.061 0.123 0.186 0.186c-0.019 0.314-0.061 0.622-0.126 0.926l-0.061 0.061v0.185c-0.072 0.219-0.196 0.407-0.371 0.557-0.048 0.077-0.069 0.16-0.062 0.246l-0.122 0.064c0-0.042 0-0.083 0-0.124l-0.062-0.123h-0.124l-0.123 0.061-0.062 0.123 0.062 0.064-0.062 0.061h0.123v0.062h-0.123c0.041 0 0.082 0 0.123 0v0.061h-0.061c0 0.041 0 0.082 0 0.123l0.123-0.061v0.123h0.064c-0.042 0-0.084 0-0.126 0l-0.061 0.186c-0.188 0.18-0.299 0.422-0.31 0.68-0.157 0.253-0.297 0.576-0.371 0.864h-0.061c-0.053 0.21-0.156 0.395-0.31 0.556v0.186c-0.105 0.109-0.187 0.233-0.246 0.371v0l-0.061 0.061v-0.061h-0.124l0.062-0.063h-0.062l-0.123-0.062v0.062l-0.062 0.063 0.062 0.061h-0.062c0 0.041 0 0.082 0 0.123l0.062-0.061-0.062 0.122h-0.061v-0.061l-0.062-0.061c-0.042 0.040-0.083 0.081-0.124 0.122h-0.060v0.062l0.122-0.062-0.061 0.062v0.061h-0.061c-0.042 0.153-0.103 0.298-0.185 0.434l0.062 0.062h-0.062v0.061h-0.064v0.061c-0.061 0-0.122 0-0.184 0-0.103 0.111-0.185 0.234-0.248 0.371v0.061l-0.062 0.123h0.062l-0.062 0.064-0.061-0.064-0.123 0.064-0.123 0.246h-0.064v0.061h-0.061v-0.123l0.061-0.061c-0.068-0.078-0.15-0.14-0.245-0.187 0.021-0.075 0.061-0.137 0.122-0.185l-0.061 0.061h-0.061v0.061l-0.062 0.061 0.062 0.064-0.126 0.062h-0.061v0.062h-0.062v0.061h-0.061l-0.062 0.062h-0.061l-0.124 0.061h-0.062v-0.061h-0.061l0.061 0.061v0.061h-0.061l0.061-0.061h-0.061c-0.122 0.056-0.227 0.14-0.31 0.248 0 0.061 0 0.123 0 0.185l-0.123 0.061v0.124c-0.116 0.079-0.199 0.182-0.248 0.31-0.051 0.162-0.071 0.32-0.061 0.494l0.061 0.123h-0.061c0.005 0.106-0.016 0.209-0.062 0.309l-0.123 0.061-0.248 0.803-0.248 0.123-0.062 0.125c-0.436 0.323-0.662 0.816-0.616 1.358h-0.062v-0.061h-0.061v-0.061h-0.063v-0.062l-0.062 0.062h-0.061l-0.062-0.062c0.013-0.108-0.007-0.211-0.061-0.309-0.062 0-0.124 0-0.187 0l-0.123 0.061-0.123-0.186-0.124-0.061h-0.061l-0.062-0.061h-0.061l-0.062-0.062-0.061 0.062c-0.098 0.054-0.201 0.073-0.31 0.061-0.048 0.061-0.109 0.103-0.185 0.125-0.082 0-0.164 0-0.246 0v0 0h-0.062c-0.042 0-0.083 0-0.124 0l-0.061-0.064h-0.123v-0.061h-0.062v-0.061c-0.083 0-0.165 0-0.248 0l-0.061 0.122c-0.041 0-0.082 0-0.123 0v0.064l-0.063-0.064c-0.041 0-0.082 0-0.123 0l-0.123-0.185-0.061 0.062v-0.062h-0.062l-0.063-0.061c-0.122-0.021-0.248-0.042-0.371-0.062l-0.061-0.061v0.061c-0.041 0-0.082 0-0.123 0l-0.062-0.061-0.061 0.061-0.061-0.061v0.061h-0.063l-0.123 0.123h-0.123c-0.089-0.079-0.196-0.143-0.31-0.184v-0.125c-0.062 0-0.122 0-0.184 0l-0.063-0.061h-0.061v0.123l-0.123-0.123-0.185 0.061-0.063-0.122-0.061 0.122-0.061-0.061v-0.061l-0.123-0.062-0.062-0.124-0.187 0.064-0.184-0.125c-0.062 0-0.124 0-0.187 0v-0.061l-0.122-0.062v-0.061h-0.062l-0.061 0.061v-0.061h-0.064l-0.062-0.061h-0.123v0.061h-0.122v-0.061l0.122-0.062v-0.064c-0.083 0-0.165 0-0.248 0v-0.061l0.126-0.246h-0.062v-0.064h-0.064v-0.123h0.064v0.062h0.062v-0.123l-0.062-0.123v-0.061h0.062l0.061-0.064-0.123-0.062 0.062-0.061v-0.123h0.061v-0.124h-0.061v-0.246l-0.126-0.061-0.061-0.186h0.061l0.064-0.062 0.062-0.184h-0.062c-0.007-0.087 0.014-0.169 0.062-0.248h0.061l-0.123-0.062-0.124 0.062v-0.062l-0.062-0.123c0.053-0.1 0.073-0.2 0.062-0.309l-0.061-0.063-0.061 0.062v-0.123h-0.123v-0.064c-0.083 0-0.165 0-0.248 0l-0.062 0.064h-0.123l0.062-0.125-0.062 0.061-0.124-0.061v-0.061c-0.047-0.061-0.108-0.102-0.184-0.123l-0.062-0.124-0.124 0.064h-0.061v-0zM19.737 24.711v0zM19.614 25.575v0zM19.491 25.391v0zM18.441 26.007c-0.062 0-0.124 0-0.185 0v-0.061l-0.064 0.184h-0.061l-0.062-0.061v0.061c0.041 0 0.082 0 0.123 0l-0.061 0.064 0.124 0.061 0.062-0.061h-0.126c0.023-0.076 0.065-0.138 0.126-0.187l0.123 0.062v-0.062zM19.553 25.575v0zM20.295 23.352v0z"></path>
</svg>
