<?xml version="1.0" encoding="utf-8"?>
<!-- Generated by IcoMoon.io -->
<!DOCTYPE svg PUBLIC "-//W3C//DTD SVG 1.1//EN" "http://www.w3.org/Graphics/SVG/1.1/DTD/svg11.dtd">
<svg version="1.1" xmlns="http://www.w3.org/2000/svg" xmlns:xlink="http://www.w3.org/1999/xlink" width="32" height="32" viewBox="0 0 32 32">
<path d="M0.060 22.995v-0.030l0.029-0.059v-0.029l0.030-0.059v0.029c0-0.039 0-0.079 0-0.119h-0.030l0.030-0.029-0.030-0.030c0.020-0.019 0.040-0.039 0.059-0.059v-0.030h0.029v-0.030h0.029v-0.029h-0.029l0.029-0.030 0.029-0.029v-0.060l0.030-0.029h-0.060c0-0.020 0-0.039 0-0.059h0.029v-0.029h-0.029l0.029-0.030c-0.023-0.028-0.053-0.048-0.088-0.059h0.029v-0.029l0.029-0.030h-0.029v-0.029l-0.029 0.029c0-0.020 0-0.039 0-0.059l0.059-0.029v-0.030l0.060-0.030-0.030-0.088h0.060c0.010-0.036 0.030-0.066 0.059-0.090v-0.088h0.029c0.008-0.070 0.018-0.138 0.029-0.207l0.030-0.029 0.029 0.029c0.011-0.036 0.030-0.066 0.059-0.089v-0.031h0.029c0.025-0.047 0.035-0.095 0.029-0.147l0.029-0.030c0.020 0 0.040 0 0.059 0l-0.029-0.029c0.020 0 0.039 0 0.059 0v-0.030h0.029l-0.029-0.029h0.059l-0.030-0.030h0.030l0.029 0.030v-0.059h0.030l0.029-0.030v-0.029l-0.029-0.030v0.030c0-0.020 0-0.039 0-0.059h-0.030v-0.030h0.030l-0.030-0.059h0.030v-0.030h0.029l-0.029-0.030h0.029c0-0.020 0-0.039 0-0.059l0.029-0.029-0.029-0.030v-0.119h0.029v0.030l0.029-0.059v-0.030l0.030-0.029c0-0.049 0-0.099 0-0.148h0.029v-0.029h0.030l0.030-0.030v-0.059h0.029l-0.029-0.030v-0.058l0.029-0.030v0.030l0.029-0.030 0.030 0.030c0.030 0 0.059 0 0.089 0l0.029 0.029 0.030-0.029v-0.030l0.029 0.030c0-0.020 0-0.040 0-0.060h0.028v0.030h0.030l-0.030-0.060h0.089v-0.030h-0.030l0.030-0.058-0.059-0.060h0.029v-0.029h0.030v0.059h0.030l0.029-0.030h0.030v-0.059c0.036-0.010 0.066-0.030 0.089-0.059h-0.031l0.060-0.029h0.059l0.029-0.059 0.029 0.030 0.030-0.030h0.030v0.030h0.029v-0.061h0.030l0.088-0.088 0.029 0.029 0.030-0.029h0.030c0-0.030 0-0.059 0-0.089l0.029-0.059h0.059v-0.118l0.030-0.029h-0.059v-0.030c0.039-0.020 0.079-0.039 0.119-0.059l0.029 0.030-0.059-0.089c0.019-0.020 0.039-0.040 0.059-0.060 0.030 0.023 0.050 0.053 0.059 0.090l0.030-0.030-0.030-0.119h-0.059v-0.029l0.030-0.030-0.030-0.059c0.020 0 0.039 0 0.059 0l0.089 0.059-0.029-0.119h0.029l0.059 0.059h0.059l0.029-0.029-0.029-0.059h0.059l-0.030-0.030v-0.060h0.030l0.059 0.060v-0.060l0.059 0.029v-0.059l0.029-0.029c0-0.029 0-0.059 0-0.088h-0.029v-0.060c0.030 0 0.059 0 0.089 0l0.029-0.059c0-0.020 0-0.039 0-0.058l-0.029-0.030 0.058-0.030-0.058-0.029-0.030 0.029v-0.029l0.030-0.030c-0.046-0.021-0.086-0.051-0.119-0.088 0-0.030 0-0.059 0-0.089-0.049 0-0.099 0-0.148 0l-0.059-0.059v-0.029l0.059-0.030-0.059-0.059c0-0.029 0-0.058 0-0.088l0.029-0.030c0-0.030 0-0.059 0-0.089l-0.029-0.030 0.029-0.059h0.030v-0.060l0.089-0.059h0.029v0.030c0.039 0 0.078 0 0.118 0l0.060-0.059h0.088v-0.030l0.030-0.059h0.030l0.059 0.059c0.019 0 0.039 0 0.058 0v-0.029l-0.088-0.119v-0.030c0.029 0 0.059 0 0.088 0v-0.148l0.030-0.058-0.030-0.060 0.089-0.029v-0.089l0.059-0.029 0.059 0.029h0.029c0.024-0.028 0.054-0.047 0.089-0.058h0.059c0.082-0.061 0.171-0.11 0.266-0.148l0.089 0.029c0.030-0.029 0.059-0.059 0.089-0.089l0.030 0.030 0.088-0.060c0.010-0.048 0.020-0.099 0.029-0.148 0.027-0.046 0.047-0.096 0.060-0.148 0.029-0.030 0.058-0.060 0.088-0.089v-0.088l0.119-0.089v-0.059h0.030l0.029-0.119-0.029-0.088c0.069 0 0.138 0 0.206 0l0.059-0.029 0.296 0.058 0.089-0.058 0.029 0.029 0.029-0.029c0.052-0.006 0.102 0.004 0.148 0.029 0.098 0.008 0.186-0.012 0.267-0.059l0.059-0.148 0.059-0.029 0.059 0.029c0-0.030 0-0.060 0-0.089l0.030-0.059h0.178l0.088 0.089 0.029-0.030 0.030-0.088c0.088-0.083 0.157-0.183 0.207-0.296l0.119-0.059v-0.059c0.033-0.119 0.092-0.218 0.178-0.296 0.047-0.161 0.008-0.331-0.089-0.473h0.030v-0.029h0.059l0.029 0.088c0.040 0 0.079 0 0.118 0-0.003-0.060-0.012-0.12-0.029-0.178l0.029-0.059 0.089-0.029 0.029-0.029c0.005-0.052-0.005-0.101-0.029-0.148l0.059-0.089v-0.029l-0.030-0.059v-0.030l0.119-0.178v-0.059l-0.059-0.060c-0.016-0.083-0.006-0.162 0.030-0.236 0.053-0.023 0.102-0.053 0.148-0.088v-0.030l-0.060-0.029-0.029-0.059v-0.088l0.059-0.089v-0.119l0.089-0.059h0.118c0.068-0.059 0.108-0.138 0.119-0.236l0.119-0.029c0.019-0.1 0.068-0.178 0.147-0.236l0.178 0.029c0.042-0.030 0.072-0.070 0.089-0.118h0.059l0.058-0.119 0.119-0.029 0.089 0.059c0.079-0.037 0.142-0.099 0.177-0.178h0.060l0.089 0.059c0.001 0.076 0.021 0.145 0.060 0.207l0.088 0.029c0.186-0.060 0.37-0.152 0.533-0.266v-0.089l0.059-0.088h0.029l0.178-0.119h0.030v-0.029l-0.059-0.059c0.030-0.076 0.040-0.155 0.029-0.236l0.089-0.148 0.088-0.059 0.030-0.060-0.059-0.088v-0.089c0.046-0.054 0.085-0.114 0.117-0.178 0.003-0.041-0.007-0.081-0.029-0.118l0.029-0.059h0.030l0.118-0.236-0.029-0.147 0.148-0.238-0.029-0.118 0.029-0.089c-0.016-0.049-0.046-0.088-0.089-0.118v-0.059l-0.059-0.089c0.020-0.040 0.039-0.079 0.059-0.118 0.002-0.051-0.008-0.1-0.030-0.148l0.060-0.029 0.030-0.088-0.030-0.148c0.062-0.212 0.165-0.418 0.295-0.591-0.005-0.090-0.015-0.178-0.029-0.266 0.020 0 0.039 0 0.059 0l0.059 0.059h0.088l0.119-0.089c0.026-0.046 0.046-0.095 0.059-0.147-0.075-0.099-0.105-0.208-0.089-0.326l-0.059-0.088v-0.088l0.089-0.088c0-0.128 0-0.256 0-0.385l-0.060-0.119 0.030-0.088-0.030-0.060 0.030-0.148-0.089-0.118c0.011-0.036 0.031-0.066 0.059-0.089h0.030l0.059-0.029 0.059 0.029c0.098-0.168 0.178-0.349 0.236-0.532l0.030-0.296 0.088-0.118c0.13-0.044 0.222-0.137 0.266-0.267l0.060-0.029 0.029-0.059c-0.029-0.077-0.039-0.156-0.029-0.237l0.088-0.059c0.052-0.082 0.112-0.162 0.178-0.236v-0.148c0.037-0.033 0.067-0.072 0.089-0.118 0-0.059 0-0.118 0-0.178l-0.059-0.060h-0.030c0.020-0.039 0.040-0.078 0.059-0.118-0.031-0.109-0.029-0.217 0-0.326-0.044-0.039-0.074-0.088-0.088-0.148l0.029-0.029 0.119-0.029 0.029-0.059v-0.030l-0.059-0.029-0.030-0.088 0.060-0.029 0.058 0.029h0.030l0.059-0.089 0.089-0.029c-0.014-0.146 0.017-0.287 0.089-0.414v-0.059l-0.030-0.059c0.035-0.046 0.065-0.096 0.089-0.148l-0.030-0.029 0.030-0.030h0.030l-0.030-0.118 0.030-0.060h0.029v-0.059l0.029-0.029h-0.058c0-0.020 0-0.039 0-0.059 0.037-0.010 0.066-0.030 0.088-0.060-0.020-0.019-0.040-0.039-0.059-0.059v-0.029l0.059-0.029v-0.029c0.040 0 0.079 0 0.119 0l0.030-0.029-0.030-0.060 0.030-0.029-0.030-0.029 0.030-0.029v-0.029h-0.030v0.029h-0.029l0.059-0.060 0.058 0.030 0.030-0.030-0.030-0.088c0.041-0.030 0.079-0.059 0.119-0.089h-0.030c0.020-0.039 0.040-0.078 0.059-0.118h0.059c0-0.030 0-0.059 0-0.089l0.030-0.029-0.030-0.029c0.030 0 0.060 0 0.089 0 0-0.020 0-0.039 0-0.059l0.059 0.029 0.029-0.029-0.029-0.059h0.029l0.060 0.029v-0.029l-0.030-0.030v-0.029c0.039-0.044 0.088-0.074 0.148-0.088v-0.029c0.040 0 0.079 0 0.119 0l0.030-0.089h0.088l0.030-0.059h0.088l-0.059-0.029h0.030l0.059-0.030h0.059v-0.029l-0.059-0.029v-0.029h0.029v0.029l0.030 0.029h0.030l0.029-0.029v-0.059l0.118-0.059-0.059 0.088v0.088h-0.030v0.030h-0.058v0.029c-0.040 0.030-0.079 0.059-0.119 0.088v0.059l-0.029 0.029h-0.030v0.148l-0.059 0.059 0.030 0.059 0.059 0.029v0.060l0.029-0.030v-0.029c0.020 0.019 0.040 0.039 0.059 0.060h-0.059v0.029l-0.088 0.059h-0.030v-0.029h-0.029l-0.030 0.088 0.030 0.119-0.030 0.029-0.029-0.029-0.030 0.059v0.029l-0.029 0.060v0.030l-0.030 0.059 0.030 0.029h-0.030l-0.029-0.029v0.060l-0.030-0.030h-0.029v0.030c0-0.020 0-0.040 0-0.060l-0.030 0.029 0.030 0.060v0.029l-0.030 0.029 0.059 0.029v0.089l-0.059 0.029h0.030l-0.030 0.029 0.030 0.029-0.059 0.059 0.029 0.060c-0.028 0.023-0.048 0.052-0.059 0.088l0.030 0.029v0.060h0.029v0.029h0.030v0.059l0.029-0.029v0.029h0.030l0.029 0.029v-0.030l0.059 0.029h0.030v0.029h0.059v0.030l0.029-0.030v0.030h0.030v0.059l0.059 0.029v-0.029l0.029 0.059h0.030v0.029l0.059 0.029v-0.029h0.030l0.029 0.029 0.059-0.029 0.029 0.029c0.064 0.007 0.123 0.027 0.178 0.060l0.030-0.029h0.119l0.030 0.059h0.089l0.030 0.059c0.041 0.003 0.080-0.007 0.117-0.029 0.050 0.016 0.089 0.045 0.119 0.088l0.029-0.029 0.119 0.089c0.061 0.003 0.12 0.013 0.178 0.029 0.777 0.477 1.569 0.942 2.366 1.39l0.119-0.088c0.007-0.062-0.003-0.121-0.030-0.178l0.030-0.060-0.030-0.059 0.030-0.059-0.060-0.089c0.019-0.040 0.039-0.079 0.060-0.118v-0.060l-0.060-0.029v-0.029c0.1-0.173 0.206-0.339 0.326-0.502h0.029v-0.060h-0.029v-0.029c0.014-0.060 0.044-0.109 0.088-0.148h0.030v-0.029l0.029-0.059v-0.090l0.059-0.029v-0.030c0.020-0.020 0.039-0.039 0.059-0.059l0.030 0.029c0.023-0.029 0.053-0.049 0.089-0.059v-0.060c0.063-0.044 0.122-0.093 0.178-0.147h0.030l0.029-0.089 0.089-0.059 0.059 0.207h0.029l0.059 0.059h0.089l-0.029 0.029c0 0.020 0 0.040 0 0.060l-0.060 0.059 0.030 0.029h-0.030v0.029l0.030 0.060h0.119v0.029h0.029l0.060-0.029h0.029c0.040 0.031 0.070 0.070 0.088 0.118l0.089 0.059 0.030 0.060c0.111-0.246 0.259-0.463 0.443-0.651h0.030l-0.030-0.029 0.030-0.029 0.029 0.029c0.020 0 0.039 0 0.059 0v0.060l0.030 0.029-0.030 0.059 0.030 0.029h0.029v-0.029l0.030 0.029h0.029v0.029l0.030 0.030v0.029h0.030l0.029 0.029h0.029v0.059h0.030v-0.029c0.040 0.039 0.080 0.078 0.119 0.119h0.029l0.030 0.059h0.029l0.030 0.059-0.030 0.059 0.030 0.060c0 0.050 0 0.099 0 0.148h0.029l0.030 0.059 0.030-0.029 0.029 0.029v-0.029h0.059v0.029h0.029v-0.059h0.030l0.030 0.059 0.029-0.029 0.030 0.029v0.029c0.029 0 0.058 0 0.088 0-0.008 0.062 0.002 0.121 0.030 0.178h0.059l0.029 0.029h0.030c0 0.030 0 0.059 0 0.089h0.029v0.029l0.030 0.059-0.030 0.029h0.059l0.030 0.089-0.030 0.029v0.059h-0.029v0.029h-0.030l0.030 0.029v0.060l0.059 0.029-0.030 0.029 0.030 0.029h-0.030c0 0.049 0 0.099 0 0.148l-0.059 0.059h-0.029c0.009 0.037 0.029 0.067 0.059 0.089-0.005 0.061-0.026 0.124-0.059 0.178l0.089 0.088c0.020 0 0.039 0 0.059 0l0.059-0.059v-0.089l-0.029-0.029c0.028-0.056 0.038-0.115 0.029-0.178l0.030-0.029-0.030-0.029v-0.089c0.039-0.020 0.078-0.039 0.118-0.059v-0.029l0.030-0.059v-0.118l0.059-0.059c0.036 0.010 0.066 0.030 0.089 0.059h0.030v-0.059l0.029 0.029c-0.003 0.042 0.007 0.081 0.030 0.119h-0.030c0 0.039 0 0.078 0 0.118l-0.029 0.029 0.029 0.029c0 0.049 0 0.099 0 0.148h0.030v0.029l0.059 0.030h-0.030v0.029l0.030 0.029h-0.030v0.088h0.060l0.030 0.060 0.029-0.030c0-0.020 0-0.039 0-0.059l0.030-0.029 0.029 0.029 0.060-0.029c0.019 0 0.039 0 0.058 0l0.030-0.029v0.029l0.029-0.059h0.030v-0.029h0.030l0.029-0.030h0.030l0.029 0.030h0.029l-0.029-0.030 0.029-0.029-0.029-0.029c0.039 0 0.079 0 0.119 0v0.029c0.020 0 0.039 0 0.059 0v-0.029h-0.029l0.088-0.029c0-0.030 0-0.059 0-0.089 0.020 0 0.039 0 0.059 0v-0.030 0.060l0.030-0.030h0.029v-0.029h0.059l0.029-0.029v-0.029h0.030l0.030-0.059 0.029 0.029 0.030-0.029 0.029 0.029 0.059-0.029v-0.029l0.030-0.030h0.029l0.030-0.029 0.059 0.029h0.029l0.030-0.029v0.029l-0.030 0.030v0.059l-0.029 0.029c0 0.040 0 0.079 0 0.119l0.029 0.059c-0.020 0.020-0.039 0.039-0.059 0.059v0.029l0.030 0.030h0.029v0.147l-0.059 0.089v0.029l0.030-0.029 0.029 0.029v-0.029l0.030 0.029 0.030-0.029 0.089-0.029v-0.030l0.029 0.030 0.030-0.030 0.030 0.030 0.029-0.030h0.059c0-0.029 0-0.059 0-0.088h0.029l-0.029-0.119 0.029-0.029v0.029l0.060-0.029v0.029l0.029-0.029c0 0.030 0 0.059 0 0.089h0.088l0.030 0.029-0.030 0.029v0.029l0.030-0.029 0.029 0.059c0.047-0.026 0.096-0.036 0.148-0.029l0.029 0.089 0.030 0.029v0.029l0.030 0.029 0.029-0.029c0.020 0 0.039 0 0.059 0l0.029-0.089 0.030 0.030c0.020 0 0.039 0 0.059 0v0h0.030l0.029 0.029v0.059h0.030l0.029-0.029v0.029l0.030 0.029h0.059l0.029-0.029 0.089 0.029 0.089-0.029 0.089 0.059v0.030l0.532 0.591c0.045-0.118 0.103-0.225 0.178-0.326h0.029l0.030-0.029v-0.089h-0.059l-0.059-0.059c0.006-0.052-0.004-0.101-0.029-0.148l0.029-0.029-0.029-0.059c0-0.040 0-0.079 0-0.119h0.029l0.059-0.059-0.029-0.059v-0.030l-0.059-0.029 0.029-0.029v-0.029l-0.059-0.029v-0.029h0.030l-0.030-0.030 0.030-0.029h-0.030c0.030-0.022 0.049-0.052 0.059-0.088l-0.089-0.029c0.037-0.010 0.067-0.029 0.089-0.060v-0.029h0.030c0-0.020 0-0.039 0-0.059l-0.030-0.029h0.030v-0.029c0.028-0.023 0.048-0.053 0.058-0.089l0.030 0.029 0.029-0.029 0.119 0.059h0.089l0.030 0.030-0.030 0.118 0.030 0.148 0.088 0.029 0.059-0.029h0.030l0.059 0.029h0.029l0.059-0.029h0.059l-0.059 0.119v0.059l0.119 0.029 0.059-0.029c0.036 0.010 0.066 0.030 0.090 0.059l-0.090 0.029-0.029 0.030 0.089 0.088v0.059l0.030 0.029h0.029l0.030-0.088 0.090-0.029v-0.059l0.029-0.030h0.029l0.030-0.059c0.029 0.030 0.058 0.059 0.088 0.089 0.052-0.006 0.101 0.004 0.148 0.029l0.029-0.029h0.089v0.029h0.030l-0.030 0.029h0.059l0.029-0.059h0.030v-0.060h0.059l0.030-0.029-0.030-0.088 0.088-0.030v-0.029c0.020 0 0.040 0 0.060 0l0.029-0.029 0.059 0.029 0.059-0.029 0.029 0.029-0.029 0.029 0.060 0.030 0.030-0.030 0.059 0.030 0.059-0.030v-0.059h-0.030l0.059-0.059h0.060l0.030-0.029v0.059h0.029v-0.029l0.030-0.029 0.029 0.029v0.029l0.030-0.029c0-0.020 0-0.039 0-0.059h0.059v-0.030l0.029 0.030c0.036-0.011 0.065-0.031 0.089-0.060h0.030l0.058-0.029h0.059c0-0.029 0-0.059 0-0.088 0.030 0 0.059 0 0.089 0v0.029h0.029v-0.029l0.059-0.060h0.059l0.030-0.059 0.088-0.029v-0.029c0.030-0.043 0.070-0.073 0.119-0.089l0.029-0.059h0.059c0 0.020 0 0.039 0 0.059l0.029-0.029c0 0.020 0 0.039 0 0.059l0.090-0.029c0-0.020 0-0.039 0-0.059h0.030v-0.029l0.029-0.060h0.030v-0.059l0.060-0.029-0.030-0.029h0.030l0.295-0.178c0.433 0.034 0.867 0.043 1.301 0.029v-0.119c0.020-0.020 0.039-0.039 0.059-0.059h0.030l0.059-0.502 0.029 0.029c0 0.029 0 0.059 0 0.088h0.030l0.029 0.029 0.059-0.029 0.030 0.029v-0.030 0.060l0.059 0.029-0.030 0.059h0.030l-0.030 0.029 0.030 0.029-0.030 0.029 0.030 0.030c0 0.039 0 0.078 0 0.118l-0.030 0.029c0 0.030 0 0.059 0 0.089l-0.030 0.029 0.030 0.029-0.030 0.059 0.059 0.030 0.118-0.030v-0.029c0.073 0.012 0.142 0.003 0.208-0.029l0.029-0.029 0.030 0.029 0.148-0.059v0.029c0.066-0.032 0.134-0.042 0.207-0.029 0.020-0.020 0.039-0.040 0.059-0.060v-0.029l0.088-0.029 0.059 0.029c0.059-0.015 0.109-0.044 0.148-0.088v0.059l-0.059 0.119c-0.049 0.017-0.088 0.046-0.118 0.088h-0.060l-0.029 0.029c-0.050 0.003-0.089 0.023-0.119 0.060h-0.030l-0.029 0.029h-0.030l-0.058-0.029c-0.020 0-0.041 0-0.060 0l-0.029 0.029-0.088 0.029v0.059l-0.030 0.029c0 0.020 0 0.040 0 0.060-0.049 0.087-0.107 0.164-0.178 0.236 0.020 0.040 0.039 0.079 0.059 0.119h0.029l0.030 0.029v0.088l-0.059 0.029 0.029 0.060-0.059 0.029 0.030 0.029h0.029c0 0.029 0 0.059 0 0.088l-0.059 0.030c0.006 0.052-0.004 0.101-0.029 0.147l-0.029 0.030v0.029h0.117c0 0.039 0 0.078 0 0.118l-0.059 0.089 0.089 0.059h0.030c-0.006 0.052 0.003 0.101 0.029 0.148 0.020 0 0.039 0 0.059 0 0.086-0.026 0.154-0.076 0.206-0.148l0.059 0.029c0.14-0.008 0.263-0.071 0.356-0.178h0.059c0.066-0.035 0.135-0.064 0.206-0.088 0.036 0.010 0.066 0.030 0.089 0.059 0.003 0.051-0.008 0.1-0.030 0.148-0.067 0.044-0.136 0.084-0.206 0.119l-0.059 0.118c-0.037 0.010-0.067 0.030-0.089 0.059-0.118 0.040-0.236 0.080-0.355 0.119l-0.030 0.059-0.088 0.060c0 0.020 0 0.039 0 0.059l0.059-0.029c0.023 0.053 0.053 0.102 0.088 0.148v0.029l-0.088 0.029v0.029h0.029v0.059c-0.016 0.049-0.046 0.089-0.088 0.119l0.030 0.059-0.030 0.060c0.011 0.036 0.030 0.065 0.059 0.088l0.029-0.029 0.030 0.029 0.119-0.029c0.039 0.040 0.078 0.079 0.118 0.118-0.060 0.086-0.139 0.145-0.236 0.178l-0.030 0.060h-0.029c-0.058 0.064-0.108 0.133-0.148 0.207 0.040 0.030 0.079 0.059 0.119 0.088v0.029h-0.030l-0.118 0.089v0.029l0.059 0.029 0.090-0.029 0.058 0.119-0.029 0.029-0.206 0.059-0.030 0.029 0.088 0.060-0.029 0.059v0.029h0.088l0.060 0.059c0 0.020 0 0.040 0 0.060l-0.119 0.207c0.012 0.072 0.003 0.141-0.029 0.207 0.081 0.040 0.165 0.092 0.236 0.148l-0.030 0.088 0.059 0.059c-0.044 0.039-0.074 0.088-0.088 0.148l-0.089 0.059c0.020 0 0.040 0 0.060 0l0.029 0.060-0.059 0.088h-0.030l-0.029-0.029-0.059 0.059 0.059 0.029h0.090l0.088 0.060h0.059c0 0.039 0 0.078 0 0.118 0.064 0.038 0.133 0.058 0.208 0.060l0.088-0.030 0.059 0.030 0.030 0.059-0.030 0.088h0.089v0.060h0.029c0.039-0.020 0.079-0.039 0.119-0.060l0.059 0.060-0.059 0.118 0.089 0.060h0.059l0.029 0.059v0.029h0.030l0.029-0.029h0.059l0.030 0.029-0.030 0.059h0.089l0.059 0.030 0.029 0.177c0.029 0.023 0.049 0.053 0.059 0.089l0.060 0.029h0.058l0.039 0.033-0.030 0.060v0.029c-0.020 0.019-0.039 0.039-0.058 0.059v0.089l-0.030 0.029h-0.059l-0.059 0.059h-0.030l-0.029 0.029-0.089-0.029-0.059-0.088-0.029 0.029v0.029h0.029v0.030l0.030 0.029v0.059c-0.029 0.023-0.049 0.053-0.059 0.089 0.029 0.029 0.058 0.058 0.088 0.088 0 0.020 0 0.040 0 0.060l-0.029 0.029h0.029l-0.029 0.029c0.039 0.040 0.078 0.079 0.118 0.119l-0.030 0.029-0.059-0.029 0.030 0.058h-0.030l0.030 0.029v0.029l0.029 0.029-0.029 0.089-0.059 0.029 0.088 0.088v0.030l-0.059 0.059 0.029 0.029v0.059l-0.059 0.029h-0.089c0 0.020 0 0.040 0 0.059l-0.029 0.030c0.029 0.029 0.059 0.059 0.089 0.088h0.030c0 0.040 0 0.079 0 0.119h-0.030c0 0.099 0 0.197 0 0.296-0.020 0.020-0.039 0.040-0.059 0.059v0.029c-0.040 0.019-0.079 0.039-0.118 0.059v0.029h0.030l0.059 0.089-0.030 0.088h-0.029c-0.024 0.053-0.053 0.103-0.089 0.148l-0.059-0.029-0.029 0.119-0.030 0.029c-0.030 0-0.059 0-0.088 0l-0.030-0.059h-0.059l-0.029 0.030h-0.030l-0.059-0.060v-0.029h-0.030l0.030 0.089-0.088 0.088-0.119-0.059h-0.029v0.029h-0.059l-0.029-0.089h-0.060l-0.059 0.030h-0.117l-0.030-0.030v-0.059h-0.059l-0.030-0.029h-0.029l0.029-0.059v-0.029l0.030-0.030 0.029-0.088h-0.059l-0.029-0.029c0-0.049 0-0.099 0-0.148h-0.059v-0.059c-0.037-0.023-0.077-0.033-0.118-0.029l-0.030-0.030h-0.030c-0.060-0.085-0.139-0.144-0.236-0.177l-0.059-0.089h-0.089c-0.023-0.037-0.034-0.077-0.030-0.119l-0.088 0.030-0.059-0.030-0.030 0.059 0.030 0.059c-0.020 0.019-0.040 0.039-0.060 0.059-0.037 0.023-0.077 0.034-0.118 0.030v0.088l-0.089 0.059v0.060l0.030 0.059c0 0.020 0 0.039 0 0.059 0.037 0.023 0.077 0.033 0.119 0.030l0.059 0.089c-0.058 0.114-0.097 0.231-0.118 0.355l0.030 0.059v0.059c0.023 0.029 0.052 0.049 0.088 0.060 0 0.020 0 0.039 0 0.059l-0.029 0.029-0.030 0.088 0.059 0.030v0.030l0.029 0.029 0.030 0.119-0.030 0.029-0.058-0.029h-0.030l-0.059 0.059h-0.030c-0.029 0.030-0.058 0.059-0.088 0.088l-0.059-0.029-0.060 0.029c-0.042-0.003-0.081 0.007-0.118 0.029-0.305-0.199-0.644-0.329-1.005-0.384l-0.030 0.060c-0.103 0.041-0.192 0.1-0.266 0.178v0.059c0.030 0.043 0.070 0.072 0.119 0.088v0.060l0.059 0.029c-0.075 0.138-0.156 0.279-0.236 0.414l0.029 0.089-0.029 0.029 0.058 0.118c0.029-0.030 0.059-0.060 0.089-0.088 0.020 0 0.039 0 0.059 0v0.207h0.088l0.148 0.178-0.029 0.118h-0.059l-0.060 0.059 0.090 0.030v0.029l-0.060 0.059c-0.132 0.032-0.233 0.115-0.295 0.237-0.026 0.19-0.044 0.37-0.059 0.561 0.056 0.063 0.125 0.102 0.207 0.119l0.059 0.059h0.029v0.030l0.119 0.029v0.029l-0.029 0.059 0.029 0.059-0.029 0.148c0.026 0.085 0.075 0.154 0.147 0.207-0.011 0.085 0.009 0.164 0.059 0.237l-0.059 0.118 0.030 0.029-0.030 0.029 0.089 0.148v0.060l-0.030 0.029v0.029c-0.346 0.078-0.714 0.159-1.065 0.236-0.055 0.034-0.105 0.073-0.148 0.119l-0.029-0.030-0.030 0.030c-0.029-0.030-0.059-0.059-0.088-0.089l-0.059 0.029 0.029-0.059-0.029-0.029-0.030 0.029h-0.029v0.029h-0.030v0.029l-0.029-0.029-0.030 0.059v0.030l0.030 0.029-0.030 0.029h-0.030l-0.029-0.029c0 0.020 0 0.039 0 0.059-0.020 0-0.039 0-0.059 0v0.029h-0.029v0.029c-0.020 0.020-0.039 0.040-0.059 0.060v0.030c-0.030 0-0.059 0-0.089 0l-0.059 0.029-0.029-0.029h-0.089l-0.029-0.030v0.030c-0.020 0-0.039 0-0.059 0v0.059l-0.060 0.029h-0.029v-0.029h-0.030l-0.029-0.059-0.029 0.029v-0.029h-0.030v-0.030h-0.059v-0.029h-0.030v-0.030h-0.029c0-0.059 0-0.118 0-0.177h0.029c0-0.020 0-0.040 0-0.059l-0.029-0.029h0.059c0-0.020 0-0.039 0-0.059h-0.030v-0.029l0.030-0.030h-0.059l0.029-0.029-0.029-0.030v-0.058l0.029-0.059v-0.030h-0.029l0.029-0.030c0-0.039 0-0.078 0-0.118l0.030-0.030h0.029v-0.059h0.030v-0.030l0.030-0.029 0.029-0.089h0.029c0-0.020 0-0.039 0-0.059l0.030-0.029v-0.059h0.029v-0.030l-0.029-0.029v-0.059l0.029-0.059v-0.060l-0.029-0.029h-0.030l-0.029-0.029 0.029-0.029c0-0.040 0-0.079 0-0.119l-0.029-0.059c0.007-0.074 0.036-0.133 0.088-0.178l-0.029-0.029c-0.077-0.025-0.153-0.034-0.236-0.029l-0.030-0.029v-0.030h-0.029l-0.059-0.088h-0.059v-0.207c-1.144 0-2.287 0-3.431 0 0 0.178 0 0.355 0 0.532h-0.059c-0.083 0.111-0.125 0.247-0.119 0.385l0.060 0.029 0.059-0.029c0.032 0.054 0.051 0.114 0.059 0.178l-0.030 0.059h-0.029c-0.050 0.053-0.089 0.112-0.119 0.178l-0.117 0.029-0.060 0.088c-0.005 0.081 0.005 0.159 0.030 0.237l0.030 0.029-0.033 0.029c0 0.029 0 0.059 0 0.088h0.030v0.060h-0.030v0.029l0.030 0.029 0.029-0.029 0.059 0.029c0 0.030 0 0.059 0 0.089l-0.059 0.059 0.030 0.029c-0.013 0.052-0.033 0.101-0.059 0.148 0.001 0.072-0.009 0.14-0.030 0.207 1.41-0.005 2.819-0.015 4.229-0.030 0 0.020 0 0.039 0 0.059l-0.030 0.030 0.030 0.029v0.030h-0.030v0.030l-0.029 0.029v-0.029h-0.030v0.029l-0.029-0.029c0 0.029 0 0.059 0 0.088l-0.029 0.029 0.029 0.030h-0.029v0.030l-0.060 0.029 0.030 0.029v0.030h0.030l-0.030 0.029 0.030 0.030-0.030 0.029h0.030l0.029 0.030v0.030l-0.029 0.029h0.029l0.029 0.059h-0.029c0.020 0.020 0.039 0.039 0.059 0.059h-0.030l0.030 0.090-0.030 0.088h-0.029v0.030l-0.059 0.029-0.030 0.059 0.030 0.030-0.030 0.029v0.060l-0.029 0.030-0.030 0.088h-0.029c-0.034 0.072-0.074 0.141-0.119 0.207-0.048 0.018-0.087 0.048-0.118 0.089l0.029 0.118-0.029 0.089-0.060 0.029c-0.011 0.036-0.031 0.066-0.059 0.090 0 0.059 0 0.118 0 0.177 0.028 0.023 0.048 0.053 0.059 0.089v0.058h0.060l-0.030 0.030 0.030 0.029v-0.029l0.029 0.029 0.030-0.029 0.029 0.029-0.029 0.030h0.029l-0.029 0.030h0.029l-0.029 0.029c0.030 0 0.060 0 0.090 0v0.030l0.029 0.029v-0.029h0.059c0 0.030 0 0.059 0 0.089h0.029v-0.030l0.059-0.029v0.029h0.060v0.030l0.029 0.030-0.029 0.029 0.029 0.030 0.059-0.059v-0.030l0.029 0.030-0.029 0.059 0.029-0.030 0.030 0.059v0.029l0.030-0.029h0.029v0.060l0.030-0.030c0 0.020 0 0.040 0 0.060h0.029v0.059l0.029 0.029c0.020-0.020 0.040-0.039 0.060-0.059l0.029 0.059 0.030 0.030-0.059 0.029 0.029 0.030 0.030-0.030v0.089l-0.030 0.029c0.020 0 0.039 0 0.059 0l0.059 0.030c0 0.030 0 0.059 0 0.089h-0.030l0.030 0.030c-0.030 0.022-0.050 0.052-0.059 0.088l0.029 0.030v0.059h0.060c0 0.049 0 0.098 0 0.147l0.059 0.030-0.030 0.030v0.029l0.089-0.029-0.059 0.058c0.022 0.038 0.032 0.077 0.029 0.119h-0.059l0.030 0.058h0.029v0.030h0.030l-0.030 0.029h-0.029l0.029 0.030h0.030l-0.030 0.059 0.059-0.029h0.029l0.030 0.059h0.030l0.029 0.029-0.089 0.029 0.030 0.030v0.030l0.030-0.030 0.029 0.030-0.029 0.029 0.059 0.030-0.030 0.029 0.030 0.030 0.029-0.030v0.030c0.036 0.011 0.066 0.030 0.089 0.058l-0.030 0.030-0.088 0.030h0.059v0.029h-0.030v0.030l0.059-0.030v0.030l-0.059 0.029 0.030 0.030c-0.020 0-0.039 0-0.059 0l0.029 0.030h-0.029v0.030l-0.030-0.030-0.029 0.030v0.029h-0.030l0.030 0.030-0.060-0.030v-0.029h-0.029v0.088h0.029l-0.029 0.030v-0.026l-0.029 0.030h-0.030v0.029h0.030l-0.030 0.030-0.029-0.030-0.030 0.030 0.030 0.029-0.089-0.029v0.029h-0.030v0.030l-0.029-0.030-0.029 0.030v-0.030 0.089h-0.030l-0.029-0.030v0.030l-0.030-0.030v0.089l-0.030-0.059-0.029 0.059 0.029 0.029h-0.029v0.030l-0.029 0.029 0.029 0.059-0.059-0.029-0.059 0.029 0.030 0.030-0.030 0.030-0.030-0.060-0.059 0.030v-0.029l-0.029 0.030 0.029 0.030-0.029 0.029h-0.089l0.030 0.029-0.030 0.030 0.060 0.029c-0.030 0-0.059 0-0.089 0 0.020 0.020 0.039 0.041 0.059 0.060v0.029h-0.030v-0.029l-0.029 0.029c0 0.020 0 0.039 0 0.059-0.030 0-0.060 0-0.089 0l-0.029 0.029 0.029 0.059h-0.029l0.029 0.030-0.029 0.030-0.029-0.030h-0.060c0 0.020 0 0.039 0 0.059h-0.059l0.030 0.030v0.029l-0.089 0.029v0.030h0.030l0.029 0.030v0.029l-0.029 0.030 0.029 0.059v0.029l-0.059-0.029-0.030 0.029h-0.030v0.030h-0.029l0.059 0.059-0.030 0.029v-0.029h-0.059l0.030 0.029-0.030 0.030-0.029-0.059-0.089 0.029v-0.029h-0.029v-0.030l-0.059-0.029v-0.030 0.059h0.029l-0.088 0.059 0.029 0.030v0.089l-0.029 0.030-0.030-0.030c0 0.020 0 0.039 0 0.059h-0.029l0.029 0.030v0.029h0.030v0.030h-0.059l0.029 0.030v0.030h0.030c0 0.030 0 0.059 0 0.088h-0.059l-0.030 0.059c0.042-0.003 0.081 0.007 0.119 0.030 0.010 0.036 0.030 0.066 0.059 0.088 0 0.059 0 0.119 0 0.177h0.030l0.029 0.030 0.059-0.088 0.030 0.117c0.020 0 0.039 0 0.059 0l0.029-0.029c0.075-0.002 0.144-0.022 0.207-0.059h0.059c0.046 0.026 0.095 0.046 0.147 0.059l0.089-0.030 0.059 0.030c0.076 0.121 0.153 0.237 0.236 0.355 0 0.050 0 0.099 0 0.148h-0.059c0 0.029 0 0.059 0 0.088h0.029c0 0.020 0 0.040 0 0.059l-0.058 0.059h-0.059v0.030h-0.030l-0.030 0.029v0.059c-0.026 0.059-0.066 0.109-0.117 0.148v0.029l0.029 0.030v0.029l-0.029 0.030v0.029l-0.060 0.030v0.029l0.030 0.030-0.030 0.030h-0.029l0.059 0.029h-0.030c-0.030 0.030-0.059 0.059-0.088 0.088 0.028 0.024 0.048 0.053 0.059 0.090 0 0.020 0 0.039 0 0.059l0.029 0.029-0.029 0.059 0.029 0.030h-0.029l0.029 0.030h0.030l0.030 0.029-0.030 0.029h0.030l-0.030 0.030 0.030 0.029h-0.030l0.030 0.030v0.030h0.029v0.059l0.088 0.058v0.060h-0.029c0 0.030 0 0.059 0 0.088h0.029v0.030c0.037 0.009 0.067 0.030 0.089 0.059l-0.029 0.029 0.029 0.030 0.030 0.059v0.059l-0.030 0.030c-0.020 0-0.039 0-0.059 0l0.030 0.059-0.060-0.029h-0.029c-0.046 0.022-0.085 0.051-0.118 0.088l-0.059-0.029v0.059h0.029v0.029l-0.059 0.030v0.029h-0.059l-0.029 0.030-0.029-0.030v0.059l-0.060 0.030h0.060v0.029h-0.060l-0.029 0.030v-0.030h-0.059l-0.030 0.060 0.030 0.030v0.029h-0.030l-0.030-0.029h-0.030l-0.059 0.059h-0.029v0.029l-0.059-0.029v0.029l-0.030 0.030 0.030 0.030h-0.030l-0.029 0.029-0.030-0.029-0.059 0.029v0.059l-0.060 0.029c0 0.020 0 0.040 0 0.060l-0.029-0.030c0-0.049 0-0.099 0-0.147h-0.030l-0.059 0.058h-0.029c-0.011 0.037-0.031 0.067-0.060 0.089h-0.058l0.058 0.030c-0.020 0-0.039 0-0.058 0l-0.060 0.064c0 0.029 0 0.059 0 0.088l-0.030-0.030v-0.029l-0.059 0.029 0.029 0.059c-0.036 0.011-0.065 0.031-0.088 0.060 0.028 0.023 0.048 0.052 0.059 0.088l0.059 0.029-0.059 0.060v0.029h-0.030l-0.058 0.030v-0.030l-0.030-0.029h-0.029l-0.060 0.148c-0.020 0-0.039 0-0.059 0v0.030l-0.058 0.059c-0.020 0-0.040 0-0.060 0v-0.059h-0.118l0.030 0.059h-0.030c-0.028 0.023-0.049 0.053-0.059 0.088l0.030 0.030v0.029h-0.060c-0.023 0.029-0.053 0.049-0.089 0.059l-0.029-0.029h-0.030l-0.029-0.030 0.029-0.029h-0.029l-0.030-0.030c-0.022 0.030-0.051 0.050-0.088 0.060v0.059l-0.030 0.059 0.030 0.030v0.030h-0.030c-0.037-0.010-0.066-0.030-0.089-0.059l-0.030 0.030v0.030l-0.029 0.030 0.029 0.029v0.030l-0.029 0.029h-0.031l-0.029-0.029-0.030 0.029-0.118-0.059-0.029 0.030-0.030 0.089h-0.030c-0.036 0.011-0.065 0.030-0.088 0.058l-0.029-0.029v-0.090c-0.020 0-0.040 0-0.060 0 0-0.049 0-0.098 0-0.148l-0.088 0.059h-0.029l-0.030-0.030v-0.030c-0.040-0.020-0.079-0.039-0.119-0.059-0.010-0.036-0.030-0.066-0.059-0.089h-0.029c-0.011 0.036-0.031 0.066-0.060 0.089-0.113-0.005-0.224-0.035-0.325-0.089v-0.060l-0.059-0.059v-0.059c-0.089-0.018-0.174-0.026-0.266-0.029l-0.029-0.030v-0.059h-0.119l-0.030-0.059c-0.020 0-0.039 0-0.059 0-0.053 0.057-0.111 0.106-0.178 0.148v0.029l0.059 0.030v0.029c-0.030 0-0.059 0-0.089 0l-0.029-0.059c-0.020 0-0.039 0-0.059 0l-0.029-0.029-0.059 0.029c-0.059 0-0.119 0-0.177 0v-0.059c-0.020 0-0.041 0-0.060 0l-0.059 0.030-0.059-0.030-0.148 0.089-0.030-0.030 0.030-0.059-0.030-0.030h-0.029l-0.089 0.060-0.059-0.060h-0.089l-0.030-0.029v-0.059l-0.029-0.029h-0.089l-0.029 0.029c-0.070 0.002-0.139-0.008-0.208-0.029l-0.030 0.029c0 0.020 0 0.039 0 0.059-0.059 0-0.118 0-0.177 0l-0.059 0.029-0.058-0.029-0.089 0.029-0.089-0.029-0.089 0.059-0.059-0.030-0.059 0.030-0.059 0.089h-0.059l-0.030-0.148-0.029-0.029-0.148-0.030-0.029-0.059h-0.119l-0.030-0.059h-0.088c-0.057 0.060-0.111 0.104-0.178 0.148h-0.030v0.089h-0.029l-0.030 0.059c-0.042 0.003-0.081-0.006-0.118-0.029l-0.090 0.059v0.059l-0.029 0.059-0.119 0.059v-0.030h-0.059l-0.030-0.029h-0.058v-0.030l0.029-0.029v-0.030h-0.090c-0.055 0.033-0.104 0.073-0.147 0.119l-0.118 0.030-0.089-0.030-0.030 0.030v0.029l0.089 0.059c0 0.020 0 0.040 0 0.059-0.125 0.070-0.206 0.181-0.236 0.325-0.037 0.024-0.077 0.034-0.119 0.030-0.020 0.020-0.039 0.039-0.059 0.059l-0.029 0.088-0.030 0.029c-0.037-0.022-0.077-0.032-0.118-0.029-0.018 0.1-0.067 0.179-0.148 0.236l-0.030 0.089-0.029 0.029-0.089 0.029-0.059-0.029h-0.029c-0.038-0.152-0.127-0.271-0.267-0.355-0.032-0.085-0.042-0.175-0.030-0.266l-0.029-0.029c-0.042 0.003-0.081-0.006-0.118-0.029l-0.059 0.029h-0.030l-0.029 0.029 0.029 0.119-0.029 0.029v0.030h-0.030l-0.029 0.029-0.059-0.029c-0.113-0.001-0.221 0.018-0.325 0.058v0.030l-0.030 0.029 0.089 0.089-0.029 0.059h-0.030l-0.089-0.059c-0.029 0-0.059 0-0.089 0-0.069 0.039-0.138 0.078-0.206 0.118h-0.030l-0.059-0.030-0.059 0.030c-0.019 0.040-0.039 0.079-0.059 0.119-0.079-0.013-0.156-0.022-0.237-0.029l-0.059-0.059h-0.061c-0.019-0.021-0.039-0.040-0.059-0.060h-0.030l-0.088 0.060c-0.1 0.006-0.199-0.004-0.296-0.030l-0.030-0.059c-0.069 0-0.138 0-0.206 0-0.051 0.127-0.129 0.235-0.236 0.326l-0.356-0.059-0.148 0.088c-0.081 0.006-0.159-0.004-0.236-0.029-0.286 0.108-0.484 0.346-0.562 0.65-0.052-0.006-0.101 0.004-0.148 0.029l-0.029 0.030c-0.015 0.143-0.078 0.28-0.178 0.385h-0.030c-0.059 0.029-0.119 0.059-0.178 0.088-0.007 0.074 0.012 0.143 0.059 0.207l-0.029 0.089 0.029 0.030v0.118c-0.072 0.091-0.131 0.19-0.176 0.296h-0.030v0.029c-0.073 0.021-0.132 0.060-0.178 0.119-0.128 0-0.257 0-0.385 0l-0.029 0.030 0.029 0.088-0.029 0.059-0.236 0.059-0.030 0.059c0 0.030 0 0.059 0 0.089-0.028 0.066-0.068 0.125-0.119 0.177h-0.088c-0.074 0.057-0.133 0.127-0.178 0.208v0.029l-0.030 0.059v0.088c-0.054 0.059-0.083 0.128-0.089 0.208l-0.059 0.059v0.030l-0.029 0.059c0.096 0.060 0.177 0.14 0.236 0.237v0.029l-0.059 0.059c-0.147-0.031-0.303-0.083-0.443-0.148v-0.030c-0.041-0.038-0.080-0.078-0.119-0.118h-0.089v-0.088h-0.089l0.030-0.030-0.030-0.029-0.029 0.029-0.089-0.029 0.060-0.030v-0.030l-0.030-0.029-0.029-0.088h-0.029v-0.060c-0.029-0.030-0.059-0.059-0.089-0.088l-0.029 0.029v-0.029l-0.089-0.059v-0.029c-0.029 0-0.059 0-0.088 0l-0.030-0.030h-0.059l-0.059-0.059h-0.118l-0.059-0.029-0.029-0.059h-0.059v-0.030l-0.030 0.030-0.030-0.030c-0.020 0-0.039 0-0.059 0v0.030h-0.058l-0.030 0.029-0.030-0.029-0.088-0.030v-0.059l-0.030 0.029c-0.020-0.020-0.040-0.039-0.060-0.059h-0.029v-0.088h-0.118l-0.060-0.030-0.089 0.030v-0.030l-0.029-0.029c0-0.020 0-0.039 0-0.059h-0.089l-0.029-0.030h-0.030v-0.029h-0.029l0.029-0.030h-0.029l-0.030-0.029c-0.029 0-0.059 0-0.089 0l-0.030-0.030h-0.029l-0.030 0.030-0.059-0.059-0.030 0.029h-0.058l-0.030-0.029v-0.030c-0.067-0.021-0.135-0.030-0.206-0.029l-0.030-0.030h-0.089v-0.030h-0.058c-0.023 0.029-0.053 0.049-0.089 0.059v-0.030h-0.059l-0.059-0.030h-0.029l-0.060 0.030-0.148-0.089-0.030 0.029-0.059-0.059h0.030l-0.030-0.029-0.029 0.029h-0.030l-0.029-0.059-0.030 0.030v-0.030h-0.029v-0.029h0.029c-0.029 0-0.059 0-0.088 0l-0.059-0.060-0.030 0.029-0.059-0.029h0.029l-0.058-0.030h0.029l-0.118-0.059h-0.089v-0.029l0.030-0.030c-0.020 0-0.039 0-0.059 0v0.030h-0.029l-0.060-0.059v-0.030h-0.029l-0.030-0.059h-0.029v-0.029l-0.029-0.060h-0.059l-0.030-0.058h-0.030v-0.030h-0.059l-0.029-0.029v0.029c-0.020 0-0.039 0-0.059 0-0.020-0.019-0.040-0.039-0.059-0.059l0.029 0.059c-0.020 0-0.039 0-0.059 0l-0.029-0.029h-0.059v-0.030c-0.030 0.029-0.059 0.059-0.089 0.089v-0.030l0.030-0.029-0.030-0.030h-0.029l-0.059-0.030-0.030-0.029h-0.029l-0.030-0.030-0.029 0.030h-0.059l-0.030-0.030h-0.030v-0.029l-0.058-0.059h0.029l-0.029-0.029v-0.060l-0.030-0.029v0.029l-0.059-0.029h-0.029l-0.030-0.030h-0.029c-0.020-0.019-0.040-0.038-0.059-0.058h-0.030v-0.060l-0.029-0.029v-0.030h-0.030v-0.029h-0.030l-0.058 0.029v-0.029l-0.030 0.029v-0.029l-0.059-0.030h-0.118l-0.059-0.059v0.030l-0.060-0.030h-0.089v0.059h-0.058c-0.040-0.019-0.080-0.039-0.119-0.059v-0.029h-0.029v-0.030h-0.029v-0.059h-0.089l0.029-0.029h-0.059v-0.030l-0.089-0.088v-0.030l-0.059-0.029c0-0.020 0-0.040 0-0.060l-0.059-0.030v-0.033l-0.089-0.178h-0.118c-0.065-0.039-0.134-0.069-0.206-0.089v-0.029l-0.060-0.030h-0.088v0.030c-0.066 0.026-0.127 0.067-0.178 0.118h-0.119l-0.059 0.029-0.030-0.029c-0.114-0.049-0.222-0.039-0.325 0.029l-0.059-0.029h-0.089l-0.059-0.030h-0.088l-0.119-0.059-0.059 0.030-0.059-0.030h-0.030v-0.029c-0.088-0.060-0.187-0.090-0.295-0.089v-0.088l-0.029-0.030h-0.089l0.029-0.059c-0.016-0.048-0.046-0.088-0.088-0.118v-0.059l-0.029-0.059v-0.029l0.088-0.119 0.119-0.029c0.013-0.052 0.033-0.101 0.059-0.148l0.089-0.059c0.022-0.048 0.032-0.097 0.029-0.148l0.030-0.030c0.1 0.006 0.197-0.004 0.295-0.029 0.027-0.085 0.077-0.154 0.148-0.207l0.030-0.089-0.030-0.029v-0.029c-0.339-0.197-0.743-0.219-1.093-0.059l-0.030 0.117h-0.030l-0.059-0.029h-0.118l-0.147-0.148c-0.027-0.35-0.086-0.693-0.178-1.034l0.029-0.059c0.037-0.010 0.066-0.030 0.088-0.059 0.050 0 0.099 0 0.148 0 0.020-0.020 0.039-0.039 0.059-0.059v-0.266c-0.044-0.070-0.078-0.131-0.118-0.206l-0.148-0.090 0.029-0.088-0.029-0.030v-0.030c-0.020-0.019-0.040-0.038-0.059-0.059l0.029-0.148-0.029-0.059v-0.030c-0.044-0.030-0.073-0.069-0.089-0.119l0.029-0.029-0.059-0.059 0.029-0.030h-0.029l-0.030-0.059h-0.029c-0.020-0.020-0.040-0.039-0.060-0.059v-0.029c-0.036-0.010-0.066-0.030-0.088-0.059v0.029l-0.088-0.059 0.029-0.029-0.029-0.030v-0.029h-0.030l0.030-0.030v-0.029l-0.030-0.030 0.030-0.030h-0.030v-0.058l-0.029-0.062v-0.060l0.029-0.029h-0.029l0.029-0.030v-0.029l0.030-0.029c0-0.049 0-0.099 0-0.148l-0.030-0.029 0.030-0.030-0.030-0.029v-0.090l0.030-0.059v-0.059z"></path>
</svg>
