<?xml version="1.0" encoding="utf-8"?>
<!-- Generated by IcoMoon.io -->
<!DOCTYPE svg PUBLIC "-//W3C//DTD SVG 1.1//EN" "http://www.w3.org/Graphics/SVG/1.1/DTD/svg11.dtd">
<svg version="1.1" xmlns="http://www.w3.org/2000/svg" xmlns:xlink="http://www.w3.org/1999/xlink" width="32" height="32" viewBox="0 0 32 32">
<path d="M-0 6.109c0-0.019 0-0.038 0-0.057h0.095l0.019-0.039 0.038-0.019c0.040-0.006 0.078 0 0.114 0.019l0.019 0.020 0.020-0.020-0.020-0.038c0.016-0.050 0.023-0.1 0.020-0.152l-0.020-0.019-0.019-0.058c-0.024-0.021-0.043-0.046-0.057-0.076-0.007-0.059-0.001-0.117 0.019-0.172h0.019v-0.038l0.038-0.038c0.013-0.135 0.075-0.264 0.172-0.362l-0.038-0.039-0.019-0.057-0.057-0.057-0.019-0.076-0.019-0.019c0-0.013 0-0.026 0-0.038-0.019 0-0.038 0-0.058 0l-0.076-0.038h-0.019l-0.019-0.019c2.951 0.005 5.915 0.029 8.857-0.019 0.019 0 0.038 0 0.058 0 0.069-0.078 0.146-0.148 0.229-0.21v-0.019l-0.076-0.038c-0.031 0.014-0.063 0.021-0.095 0.019l-0.076 0.038-0.058-0.019-0.019-0.019c0.043-0.086 0.082-0.176 0.114-0.266l0.019-0.020v-0.038c-0.011-0.032-0.030-0.057-0.057-0.076 0.016-0.037 0.022-0.075 0.019-0.114-0.017-0.030-0.030-0.062-0.038-0.095 0.053-0.101 0.117-0.197 0.19-0.285v-0.039l0.019-0.038-0.019-0.038 0.019-0.038c0.039-0.009 0.070-0.028 0.095-0.057l-0.019-0.058-0.019-0.019v-0.038l0.019-0.038-0.019-0.115 0.038-0.057-0.038-0.114 0.019-0.057 0.076-0.038 0.020-0.039-0.020-0.057 0.020-0.058c-0.077-0.183-0.153-0.342-0.248-0.514v-0.133l-0.038-0.038v-0.038h0.020l0.019-0.039c0.107-0.037 0.193-0.11 0.248-0.209 0-0.038 0-0.076 0-0.114 0.078-0.092 0.15-0.175 0.228-0.267v-0.057c-0.026-0.066-0.046-0.138-0.057-0.21 0.015-0.194 0.101-0.368 0.248-0.495v-0.019c0.067 0.032 0.13 0.070 0.19 0.114 0.181 0.222 0.306 0.482 0.362 0.762l0.019 0.019h0.038l0.038 0.020c0.091 0.3 0.159 0.588 0.21 0.895 0.082 0.129 0.172 0.237 0.286 0.342-0.014 0.080 0.005 0.155 0.058 0.21 0.041 0.004 0.079 0.017 0.114 0.039l0.057 0.095c-0.007 0.106-0.042 0.215-0.095 0.305 0 0.019 0 0.038 0 0.057l0.039 0.076c0 0.013 0 0.025 0 0.038l-0.058 0.095c0.005 0.068 0.039 0.128 0.095 0.171v0.038l-0.019 0.038v0.019c0.029 0.014 0.055 0.033 0.076 0.057l-0.019 0.058-0.038 0.038c0.015 0.024 0.021 0.050 0.019 0.076 0.025 0.013 0.051 0.025 0.076 0.038l-0.019 0.133c0.051 0.051 0.084 0.118 0.095 0.191l-0.019 0.096 0.019 0.057c0.061 0.009 0.119-0.003 0.172-0.038 0.066 0.033 0.13 0.071 0.19 0.114 0.032 0 0.063 0 0.095 0l0.038 0.038c0.006 0.052-0 0.103-0.019 0.152 0.043 0.028 0.078 0.056 0.115 0.095 0.065-0.006 0.128 0 0.19 0.019l0.019 0.057 0.019 0.019c0.045 0.003 0.090-0.004 0.133-0.019l0.019-0.020c0.159 0.081 0.304 0.195 0.419 0.324 0.009 0.043 0.028 0.081 0.058 0.114l0.038 0.019v0.057l0.039 0.019 0.019 0.038v0.038l-0.057 0.076 0.019 0.057-0.019 0.039v0.019c0.034 0.025 0.060 0.057 0.077 0.095 0.038 0.019 0.076 0.038 0.114 0.057l0.114-0.019c0.069 0.037 0.151 0.049 0.229 0.038l0.038-0.019c0.035 0.021 0.073 0.034 0.114 0.038 0.047 0.062 0.079 0.132 0.095 0.21h0.019c0 0.044 0 0.089 0 0.133l0.019 0.038v0.038l0.019 0.038c0.049-0.002 0.097-0.023 0.133-0.057v-0.020c6.064 0.415 12.138 0.941 18.211 1.333 0 0.013 0 0.025 0 0.038-0.056 0.044-0.094 0.101-0.114 0.172v0.076l-0.038 0.058v0.038l-0.038 0.057c0.008 0.047 0.002 0.091-0.019 0.133-0.051 0.038-0.101 0.075-0.152 0.114l-0.019 0.057c-0.064 0.059-0.097 0.141-0.096 0.229h0.019l0.019 0.133c-0.064 0.123-0.101 0.272-0.096 0.4-0.021 0.024-0.046 0.043-0.075 0.057l-0.020 0.038-0.076 0.038-0.038 0.191 0.019 0.057-0.019 0.019c-0.027-0.002-0.052 0.004-0.076 0.020 0.006 0.040-0 0.078-0.019 0.114l0.019 0.058c-0.029 0.033-0.048 0.071-0.057 0.114l-0.020 0.019c-0.019 0-0.038 0-0.057 0-0.025 0.059-0.064 0.111-0.114 0.152v0.039l0.057 0.038v0.057l0.020 0.038c-0.004 0.033 0.002 0.065 0.019 0.095l-0.058 0.095c0 0.019 0 0.038 0 0.058h-0.038l-0.019 0.019v0.019l-0.019 0.038c0 0.032 0 0.063 0 0.095l0.038 0.019 0.019 0.038v0.038c-0.040 0.032-0.071 0.070-0.096 0.114l0.038 0.095-0.019 0.038c0.020 0.042 0.027 0.087 0.019 0.133l0.019 0.038v0.076l-0.019 0.038v0.019l-0.057 0.039-0.019 0.057-0.038 0.019c0.004 0.034-0.002 0.065-0.019 0.095 0.010 0.060 0.022 0.114 0.038 0.171-0.018 0.062-0.030 0.126-0.038 0.191-0.052 0.022-0.092 0.063-0.114 0.114-0.001 0.060-0.022 0.121-0.058 0.171v0.076l-0.038 0.076c0 0.057 0 0.115 0 0.172l0.019 0.038-0.019 0.076 0.057 0.114c0.050 0.013 0.101 0.020 0.153 0.019l0.019 0.019c0 0.025 0 0.051 0 0.076l-0.019 0.038c0.020 0.042 0.027 0.087 0.019 0.133-0.018 0.015-0.031 0.034-0.038 0.057-0.052 0.027-0.098 0.067-0.133 0.114v0.019c0.033 0.083 0.064 0.164 0.096 0.248v0.095l0.019 0.019h0.057l0.057 0.057v0.057l-0.057 0.019-0.019 0.038 0.038 0.057v0.057c-0.045 0.029-0.077 0.067-0.096 0.115l0.019 0.019c-0.006 0.031-0.013 0.063-0.019 0.095l0.058 0.057c-0.006 0.076-0.013 0.152-0.020 0.229l-0.019 0.038v0.095l-0.019 0.038 0.019 0.057 0.076-0.020 0.019 0.020v0.076l0.038 0.057v0.038l-0.038 0.038c0 0.026 0 0.051 0 0.076l0.019 0.019-0.019 0.057c0.029 0.033 0.048 0.071 0.058 0.114l-0.020 0.095 0.038 0.019c-0.014 0.031-0.020 0.063-0.019 0.095l-0.038-0.019-0.038 0.019 0.019 0.076c-0.039 0.043-0.058 0.093-0.057 0.152l-0.038 0.038-0.019 0.058 0.058 0.038v0.038c-0.027 0.002-0.052-0.004-0.076-0.019-0.019 0.015-0.032 0.034-0.038 0.057l0.019 0.038v0.076l0.133-0.020 0.019 0.020v0.038l-0.019 0.038 0.019 0.076h0.038l-0.019 0.057 0.038 0.038v0.076l-0.020 0.038h0.058l-0.038 0.076v0.038l0.019 0.020h0.019l0.019-0.058c0.026 0 0.051 0 0.077 0v0.019l-0.058 0.038v0.019c0.059 0.037 0.122 0.050 0.191 0.038l0.038-0.019 0.019 0.038v0.038l0.019 0.038v0.038c-0.047 0.082-0.066 0.173-0.057 0.267l-0.057 0.019-0.038 0.058h-0.019l-0.038-0.019-0.039 0.019 0.019 0.057 0.038 0.019v0.020l-0.019 0.038-0.077 0.019-0.019 0.019c0.009 0.039 0.028 0.071 0.057 0.096-0.019 0.070-0.020 0.139 0 0.21-0.012 0.026-0.025 0.051-0.038 0.076h0.019l0.038 0.038c0 0.038 0 0.076 0 0.114-0.014 0.029-0.033 0.055-0.057 0.076v0.096c-0.042 0.048-0.081 0.099-0.114 0.152l-0.057 0.038c-0.006 0.053 0 0.103 0.019 0.153l-0.019 0.038-0.038 0.019c-0.028 0.084-0.088 0.143-0.171 0.172l-0.057 0.076-0.020 0.191c-0.037 0.118-0.089 0.234-0.152 0.343l-0.038-0.019-0.038 0.019h-0.019c-0.018 0.015-0.031 0.035-0.038 0.058l0.057 0.076-0.019 0.096 0.019 0.038-0.019 0.057 0.039 0.076c0 0.083 0 0.165 0 0.248l-0.058 0.057v0.058l0.038 0.057c-0.010 0.076 0.009 0.146 0.058 0.21-0.008 0.034-0.021 0.065-0.038 0.095l-0.077 0.058h-0.057l-0.038-0.038c-0.013 0-0.025 0-0.038 0 0.009 0.057 0.015 0.113 0.019 0.171-0.084 0.112-0.15 0.245-0.19 0.381l0.019 0.096-0.019 0.057-0.038 0.019c0.014 0.031 0.021 0.063 0.019 0.096-0.013 0.025-0.025 0.051-0.038 0.076l0.038 0.057v0.038c0.027 0.019 0.047 0.044 0.057 0.076l-0.019 0.057 0.019 0.076-0.095 0.153 0.019 0.095-0.076 0.152h-0.020l-0.019 0.038c0.014 0.024 0.021 0.049 0.019 0.076-0.021 0.041-0.046 0.079-0.076 0.114v0.058l0.038 0.057-0.019 0.038-0.057 0.038-0.058 0.096c0.007 0.052 0.001 0.103-0.019 0.152l0.038 0.038v0.019h-0.019l-0.114 0.077h-0.019l-0.038 0.057v0.058c-0.105 0.073-0.224 0.132-0.344 0.171l-0.057-0.019c-0.025-0.040-0.038-0.085-0.038-0.133l-0.057-0.038h-0.038c-0.023 0.051-0.063 0.090-0.114 0.114l-0.057-0.038-0.077 0.019-0.038 0.077h-0.038c-0.011 0.032-0.030 0.057-0.058 0.076l-0.114-0.019c-0.051 0.038-0.082 0.088-0.095 0.152l-0.077 0.019c-0.007 0.064-0.032 0.114-0.076 0.152h-0.076l-0.057 0.038v0.076l-0.038 0.058v0.057l0.019 0.038 0.039 0.019v0.020c-0.030 0.023-0.061 0.042-0.096 0.057-0.023 0.048-0.029 0.099-0.019 0.152l0.038 0.038v0.038l-0.076 0.114v0.019l0.019 0.038v0.019l-0.038 0.058c0.016 0.031 0.022 0.062 0.019 0.096l-0.019 0.019-0.057 0.019-0.019 0.038c0.011 0.037 0.017 0.075 0.019 0.114-0.025 0-0.051 0-0.076 0l-0.019-0.057h-0.037v0.019h-0.019c0.062 0.091 0.087 0.201 0.057 0.304-0.055 0.051-0.093 0.114-0.114 0.191v0.038l-0.077 0.038c-0.032 0.073-0.076 0.137-0.133 0.191l-0.019 0.057-0.019 0.020-0.057-0.057h-0.114l-0.019 0.038c0 0.019 0 0.038 0 0.058l-0.038-0.019-0.038 0.019-0.038 0.096c-0.052 0.030-0.109 0.043-0.172 0.038-0.030-0.017-0.062-0.023-0.096-0.019l-0.019 0.019-0.019-0.019-0.057 0.038-0.19-0.038-0.038 0.019c-0.044 0-0.089 0-0.133 0l0.019 0.057-0.019 0.076h-0.020v0.038l-0.076 0.058v0.057c-0.019 0.019-0.038 0.038-0.057 0.057-0.009 0.034-0.022 0.065-0.039 0.095-0.006 0.032-0.012 0.064-0.019 0.095l-0.057 0.039-0.020-0.020c-0.019 0.019-0.038 0.038-0.057 0.057l-0.057-0.019c-0.061 0.025-0.119 0.056-0.172 0.096h-0.038c-0.023 0.007-0.042 0.020-0.058 0.038h-0.019l-0.038-0.019-0.038 0.019v0.057l-0.058 0.019 0.019 0.038-0.019 0.038v0.096c-0.019 0-0.038 0-0.057 0v0.019l0.057 0.077v0.019c-0.012 0-0.025 0-0.037 0l-0.038-0.038h-0.020l-0.019 0.038v0.019h-0.057l-0.038 0.038c-0.025 0-0.051 0-0.076 0v-0.019h-0.019l-0.058 0.038v0.038h-0.019l-0.019 0.038 0.019 0.019c0 0.019 0 0.038 0 0.057l-0.019 0.019c0 0.019 0 0.038 0 0.057l0.038 0.038-0.038 0.020v0.019l0.038 0.038c0.032 0 0.064 0 0.095 0 0 0.019 0 0.038 0 0.058 0.022 0.024 0.047 0.043 0.077 0.057l-0.020 0.019v0.019l0.020-0.019 0.037 0.019-0.037 0.020 0.019 0.019c0 0.013 0 0.025 0 0.038l-0.019 0.038c-0.019 0-0.038 0-0.058 0v0.039h0.019c0 0.019 0 0.038 0 0.057l-0.019 0.019v0.038l-0.038-0.019v0.038l-0.038-0.038h-0.020v0.038l0.020 0.019h-0.038l0.019 0.038-0.019 0.019h-0.038l-0.038-0.038h-0.019l0.019 0.076-0.058-0.038c-0.013 0-0.025 0-0.038 0l0.019 0.038-0.019 0.019v0.019h0.038l0.019 0.076-0.019 0.019c-0.006-0.024-0.019-0.043-0.038-0.058-0.013 0.012-0.026 0.025-0.038 0.038l0.038 0.057-0.019-0.019c-0.026 0.012-0.051 0.025-0.076 0.038v0.019h0.038l-0.019 0.019v0.076h-0.038l-0.019 0.038c0 0.019 0 0.038 0 0.058h-0.019l-0.020 0.019-0.019-0.019-0.057 0.057h-0.019v0.039h-0.019v-0.020h-0.020l-0.019 0.020-0.019-0.020-0.019 0.039h-0.038l-0.039 0.019h0.019c-0.015 0.019-0.034 0.031-0.057 0.038v0.038h-0.019l-0.019 0.020h-0.019v-0.038h-0.020v0.019h-0.019l0.038 0.039-0.020 0.038h0.020v0.019h-0.058l0.019 0.038h-0.019v-0.020h-0.019c0 0.013 0 0.026 0 0.039l-0.019-0.019v0.019l-0.019 0.019-0.019-0.019c-0.019 0-0.038 0-0.058 0l-0.019-0.019-0.019 0.019v-0.019l-0.019 0.019v0.038l0.019 0.019h-0.019v0.038l-0.020 0.020h-0.019v0.019h-0.019c0 0.032 0 0.064 0 0.096l-0.019 0.019v0.019l-0.019 0.038v-0.019h-0.019v0.076l0.019 0.019-0.019 0.019c0 0.013 0 0.025 0 0.038h-0.020l0.019 0.019h-0.019v0.020h-0.020l0.020 0.038h-0.020v0.019h0.020c0 0.013 0 0.025 0 0.038v-0.019l0.019 0.019v0.019l-0.019 0.020h-0.020v0.038l-0.019-0.019h-0.019l0.019 0.019h-0.038l0.019 0.019h-0.019v0.019c-0.013 0-0.025 0-0.038 0l0.019 0.019c-0.013 0-0.026 0-0.038 0l-0.019 0.020c0.003 0.033-0.003 0.064-0.019 0.094h-0.019v0.019c-0.018 0.015-0.031 0.034-0.038 0.057l-0.019-0.019-0.020 0.019c-0.008 0.045-0.014 0.089-0.019 0.133h-0.019v0.057c-0.018 0.015-0.031 0.034-0.038 0.058h-0.038l0.019 0.057-0.038 0.020v0.019l-0.038 0.019c0 0.013 0 0.025 0 0.038l0.019-0.019v0.019h0.019l-0.019 0.019v0.019h-0.019c0.023 0.007 0.042 0.020 0.057 0.038l-0.019 0.019h0.019v0.019h-0.019c0 0.013 0 0.025 0 0.038h0.038l-0.019 0.019v0.039l-0.019 0.019-0.019 0.019h0.019v0.019h-0.019v0.019h-0.019v0.020c-0.012 0.013-0.025 0.025-0.038 0.038l0.019 0.019-0.019 0.019h0.019c0 0.026 0 0.051 0 0.076v-0.019l-0.019 0.038v0.019l-0.019 0.038c0 0.019 0 0.038 0 0.058v0l-0.020 0.038v0.019h-0.002v0.039l0.020 0.019-0.020 0.019 0.020 0.019c0 0.032 0 0.064 0 0.095l-0.020 0.019v0.019l-0.019 0.019h0.019l-0.019 0.019v0.039l0.019 0.038v0.038h0.020l-0.020 0.020 0.020 0.019v0.019l-0.020 0.019h0.020v0.019l0.019 0.019-0.019 0.019 0.057 0.038v-0.019c0.015 0.019 0.034 0.031 0.057 0.038v0.019c0.013 0.012 0.026 0.025 0.038 0.038h0.019l0.019 0.038h0.019l-0.019 0.019 0.038 0.038-0.019 0.019c0.010 0.032 0.029 0.057 0.058 0.076v0.019l0.019 0.038-0.019 0.096c0.012 0.013 0.025 0.025 0.038 0.038v0.020l0.019 0.019-0.019 0.057 0.095 0.057c0.026 0.049 0.048 0.088 0.076 0.133v0.171c-0.12 0.030-0.234 0.024-0.343-0.019l-0.019-0.038h-0.019c-0.026-0.012-0.051-0.025-0.076-0.038-0.085-0.034-0.178-0.042-0.267-0.019l-0.020 0.019c-0.026 0.002-0.052-0.005-0.076-0.019l-0.057 0.019-0.057-0.038h-0.019v-0.019l-0.019 0.019-0.019-0.038v0.019h-0.019v-0.019l-0.019 0.019v-0.019l-0.019 0.019v0.019l-0.019-0.019v0.019h-0.019v0.058c-0.019 0.014-0.032 0.033-0.038 0.057h-0.019l-0.019 0.019c-0.023-0.007-0.042-0.019-0.057-0.038h-0.020l-0.019-0.019h-0.038l-0.038-0.019h-0.038v-0.039h-0.019l-0.019 0.019h-0.038v-0.019l-0.058-0.019-0.019-0.038v-0.019h-0.038v0.019l-0.019-0.019h-0.076v0.019c-0.045 0.017-0.078 0.051-0.096 0.096l-0.019-0.039h-0.039v-0.019h-0.019l-0.019 0.019-0.020-0.019c-0.039-0.001-0.077 0.005-0.114 0.019-0.013-0.013-0.025-0.025-0.038-0.038v-0.019h-0.019l0.019-0.019c-0.013 0-0.025 0-0.038 0v-0.020h-0.019c0-0.013 0-0.025 0-0.038h-0.020l-0.019 0.019c0-0.013 0-0.025 0-0.038l-0.019-0.019h-0.019v-0.019h-0.019v-0.019l-0.019 0.019v-0.019l-0.019-0.019-0.038 0.019v-0.038h-0.019l0.019 0.019h-0.019l-0.019-0.038c-0.019 0-0.038 0-0.057 0v0.019c-0.019 0-0.038 0-0.058 0l-0.019-0.019-0.019 0.019h-0.019v0.019l-0.020-0.019 0.020-0.038h-0.020l0.020-0.019-0.020-0.038c0-0.013 0-0.025 0-0.038 0.007-0.023 0.020-0.042 0.038-0.057v-0.039c0.050-0.050 0.087-0.107 0.114-0.171v-0.019c0.009-0.039 0.028-0.071 0.057-0.096v-0.019c0.023-0.007 0.042-0.020 0.058-0.038v-0.058c0.053-0.019 0.107-0.045 0.152-0.076 0.051 0 0.101 0 0.152 0l0.038-0.038 0.039 0.019 0.038-0.019h0.019l0.058-1.18-0.039-0.019v-0.038l-0.038-0.019-0.077 0.019-0.038 0.038c-0.013 0-0.025 0-0.038 0v0.038c-0.024 0.022-0.043 0.047-0.057 0.076h-0.057l-0.038 0.019-0.019 0.057-0.019 0.019-0.019 0.057 0.019 0.057-0.114 0.038c-0.068 0.088-0.146 0.171-0.229 0.248l-0.057 0.020v0.019h-0.019l-0.019 0.019-0.020-0.019c-0.032-0.002-0.064 0.005-0.095 0.019-0.013 0.026-0.026 0.051-0.039 0.076h-0.019v0.019l-0.019-0.019c0 0.025 0 0.051 0 0.076h0.019v0.019l-0.019 0.039c0 0.019 0 0.038 0 0.057l-0.057 0.057v0.019l-0.019 0.038 0.019 0.019-0.019 0.019-0.039-0.019h-0.038l-0.019 0.019-0.019-0.019-0.039 0.019-0.019-0.038-0.019 0.019-0.019-0.019h-0.039l-0.019-0.019c-0.023 0.007-0.042 0.019-0.057 0.038h-0.019l-0.019 0.019h-0.039l-0.019 0.019h-0.040l-0.019 0.039c-0.024 0.006-0.043 0.019-0.058 0.038-0.019 0-0.038 0-0.057 0l-0.019 0.025c-0.032 0-0.064 0-0.096 0l-0.038-0.019h-0.020c-0.029-0.023-0.061-0.042-0.095-0.057l0.019-0.020 0.019-0.057h-0.019v-0.019h-0.019l0.019-0.019-0.019-0.019v-0.039l0.019 0.019c0-0.013 0-0.025 0-0.038l-0.058-0.019c-0.013-0.013-0.025-0.025-0.038-0.038v-0.019l-0.019-0.019-0.019 0.019-0.019-0.019-0.095-0.019-0.019-0.038v-0.019h-0.019l0.019-0.038h-0.019v-0.019h-0.019l-0.038-0.019h-0.057l-0.020-0.019h-0.019l-0.057 0.038-0.019-0.038-0.019 0.019v-0.019l-0.038-0.019c-0.042 0.037-0.096 0.064-0.152 0.076l-0.038-0.019c-0.015 0.019-0.034 0.032-0.058 0.038h-0.019v0.019c-0.023-0.006-0.042-0.019-0.057-0.038v0.038l-0.038 0.019c-0.034-0.003-0.065 0.003-0.096 0.019l-0.019 0.038v0.019l-0.019 0.038h0.019l-0.019 0.019v0.019c-0.019 0-0.038 0-0.057 0l-0.038 0.038h-0.019l-0.038 0.038h-0.019c0 0.013 0 0.025 0 0.038-0.024 0.015-0.050 0.021-0.076 0.019l-0.038 0.019-0.058-0.019-0.038 0.019-0.019-0.038c-0.038 0-0.076 0-0.114 0l-0.019 0.019h-0.038v0.019l-0.019-0.019-0.019 0.038-0.019-0.019-0.019 0.038v0.019c-0.015-0.019-0.034-0.032-0.057-0.039v0.020l-0.020-0.020v0.020h-0.019l-0.019 0.019h-0.039c-0.019 0-0.038 0-0.058 0-0.013-0.013-0.025-0.026-0.038-0.039v0.020l-0.019-0.020-0.019 0.020-0.019-0.020v0.020l-0.020-0.020c-0.010 0.032-0.029 0.057-0.057 0.077l-0.038-0.019v-0.019c-0.019 0-0.038 0-0.058 0l-0.019-0.019v0.019h-0.019l0.019-0.019h-0.019v-0.020l-0.019-0.019-0.038 0.019v-0.019h-0.019v-0.019h-0.057v-0.019l0.019 0.019v-0.019l-0.038-0.019v-0.019h-0.020v0.019l-0.019-0.019v0.019l-0.019-0.019v-0.038h-0.019v-0.019h-0.019l-0.019-0.019 0.019-0.019-0.019-0.019v0.019c-0.013 0-0.026 0-0.038 0v-0.019l-0.038-0.019 0.019-0.019c-0.027-0.002-0.052 0.005-0.076 0.019l-0.020-0.019-0.019 0.019h0.019v0.019l-0.038-0.019h-0.038v-0.057h-0.019c-0.024-0.007-0.043-0.019-0.058-0.038l-0.019 0.019h-0.019v-0.019l-0.038-0.019-0.038 0.019-0.019-0.019c-0.025 0-0.050 0-0.076 0v-0.019h-0.020v-0.020c-0.019-0.019-0.038-0.038-0.057-0.057l-0.019 0.019h-0.020l-0.019 0.019v-0.019l-0.020 0.019v-0.019c-0.013 0-0.025 0-0.038 0v-0.038h-0.038l-0.019-0.019v-0.020l-0.038-0.019h0.019l-0.038-0.038v0.019l-0.019-0.019h-0.019c0-0.019 0-0.038 0-0.057h-0.019v0.019l-0.020-0.019v-0.038h0.020l-0.020-0.019h0.020l-0.020-0.019 0.020-0.038h-0.020l0.020-0.020-0.038 0.020c-0.019-0.020-0.037-0.039-0.057-0.057v0.038c-0.034-0.025-0.059-0.057-0.076-0.095 0 0.019 0 0.038 0 0.057l-0.038-0.019c0-0.013 0-0.025 0-0.038l-0.038 0.038-0.019-0.038-0.020 0.038-0.019-0.038-0.038 0.038-0.019-0.038-0.038 0.038-0.019-0.038h-0.019l-0.019-0.019h-0.019l-0.019-0.020h-0.020l-0.019 0.020-0.019-0.038-0.019 0.019v0.020l-0.057-0.058 0.019-0.038c-0.019 0-0.038 0-0.057 0l-0.019 0.019-0.019-0.019 0.019-0.019h-0.020l-0.019 0.019c-0.019-0.015-0.032-0.034-0.038-0.058l-0.019 0.020-0.038-0.057-0.019 0.019 0.019 0.019-0.038 0.020-0.019-0.020 0.019-0.019-0.039 0.019v-0.019h0.020l0.019-0.019h-0.076l-0.038-0.021c0 0.013 0 0.025 0 0.038l-0.039 0.019-0.038-0.057 0.019-0.019c-0.025 0-0.051 0-0.076 0l-0.019-0.019-0.020 0.038v-0.058h-0.019l-0.019 0.020v-0.038l-0.019 0.019c0-0.025 0-0.050 0-0.076l-0.019 0.019v-0.038h0.038c-0.039-0.033-0.074-0.063-0.114-0.096h-0.019l0.019 0.038h-0.019l-0.019-0.038c-0.013 0-0.025 0-0.038 0l-0.038 0.019-0.057-0.019-0.019-0.019-0.020 0.019h-0.019l-0.019 0.019h-0.019c0 0.013 0 0.025 0 0.038l-0.019-0.019h-0.019l-0.038 0.019-0.019-0.019-0.019 0.019-0.019-0.019v0.077l-0.039-0.019-0.019 0.019h-0.020l0.020 0.038-0.038-0.019v0.019h-0.038l-0.019-0.019h-0.038v0.038l-0.019-0.019v0.019l0.019 0.038-0.038-0.020-0.019 0.020h0.019c-0.019 0-0.038 0-0.057 0v0.019l0.019 0.019-0.019 0.038h-0.019l-0.020 0.019-0.019-0.019h-0.019l-0.019 0.019v0.020h-0.038v0.019l-0.038-0.039v-0.019l0.019 0.019v-0.019l-0.038-0.019v0.019h-0.019v0.019l-0.057 0.020v0.019l-0.020 0.038h-0.038l-0.019 0.038-0.019-0.019c-0.031 0.011-0.057 0.030-0.076 0.058l-0.019-0.020v-0.038l-0.038 0.019v-0.038h-0.020v0.019l-0.057-0.038h-0.019v-0.038l-0.019 0.038-0.019-0.019 0.019 0.038h-0.019v0.019h-0.020l-0.019 0.019-0.019-0.019-0.057 0.038c-0.024-0.015-0.050-0.021-0.076-0.019l0.019 0.038c-0.038 0-0.076 0-0.114 0v-0.020h-0.038v0.020c-0.023-0.007-0.042-0.020-0.057-0.038v0.019l0.019 0.020-0.019 0.019-0.020-0.038h-0.019l0.019 0.020-0.019 0.019-0.038-0.019v-0.020l-0.019-0.019-0.038 0.019 0.020-0.019h-0.077l-0.019-0.019h-0.038v0.038c-0.019 0-0.038 0-0.058 0v0.038l-0.038 0.019 0.019 0.019v0.019c-0.029 0.014-0.055 0.033-0.076 0.057l0.020 0.038h-0.020l-0.038-0.019-0.076 0.019v0.057l-0.038 0.020 0.038 0.019h0.020l0.019 0.019-0.019 0.019h-0.020l-0.019 0.019 0.039 0.019v0.019l-0.020 0.020h-0.038l-0.019 0.019 0.019 0.038-0.019 0.019-0.019-0.019-0.019 0.038 0.019 0.020-0.019 0.038h-0.019l-0.020 0.057-0.038 0.019-0.038-0.019c-0.030 0.017-0.062 0.030-0.095 0.039l-0.038 0.057h-0.038l-0.019 0.038h-0.019l0.019 0.038-0.019 0.019v0.019l0.019 0.019 0.039-0.019v0.019c-0.040 0.037-0.066 0.081-0.077 0.133l-0.038 0.038c-0.013 0-0.026 0-0.038 0l-0.019 0.038v0.019h-0.038l-0.019 0.114h-0.019l-0.020-0.019-0.019 0.019h-0.038l-0.019 0.038-0.038 0.019v0.058h-0.057v0.019l-0.076-0.038-0.038 0.038c-0.064 0.009-0.125 0.015-0.19 0.019v0.019l-0.019-0.019-0.038 0.038-0.019-0.019 0.019 0.038h0.038v0.019h-0.057l-0.038 0.019-0.058-0.019v0.038l-0.019-0.019 0.019-0.019h-0.019l-0.019 0.019-0.019-0.019c-0.015 0.019-0.034 0.031-0.057 0.038v0.019h-0.038v0.019l-0.019-0.019-0.019 0.019c-0.013-0.012-0.026-0.025-0.038-0.038h-0.019l-0.038 0.057-0.038-0.020v0.020l-0.019 0.019v0.019l-0.038-0.019-0.038 0.057h-0.038l0.019 0.058-0.019 0.038-0.039-0.019-0.038-0.057v-0.057l-0.095 0.019-0.076-0.038 0.020-0.039c-0.030-0.014-0.055-0.032-0.077-0.057h-0.041l-0.019-0.058-0.076 0.020c0.002-0.027-0.004-0.052-0.019-0.076h0.019l0.019-0.019-0.038-0.019-0.019-0.038h0.019c-0.023-0.035-0.047-0.064-0.077-0.095h-0.019v0.019l-0.057 0.019v-0.019h-0.020v-0.019l-0.038-0.020 0.019-0.019c0-0.019 0-0.038 0-0.057 0.013-0.013 0.026-0.025 0.039-0.038h-0.020v-0.020l-0.019-0.019c0-0.019 0-0.038 0-0.057h-0.019v-0.039h-0.019c-0.017-0.050-0.024-0.1-0.019-0.152l-0.038-0.019v-0.076l-0.038-0.038-0.038 0.019-0.038 0.077-0.362-0.324c-0.094 0.092-0.202 0.156-0.324 0.191v-0.038l-0.019 0.019-0.019-0.019h-0.020l-0.020-0.020h-0.019l-0.038-0.019v-0.076l-0.038-0.039h-0.038l-0.038 0.039-0.095-0.039v-0.095l-0.019-0.020-0.038 0.020c-0.013-0.013-0.025-0.026-0.038-0.038l0.019-0.057-0.095 0.019-0.057-0.019 0.019-0.039-0.019-0.038c-0.025 0-0.051 0-0.076 0v-0.019c-0.013 0-0.025 0-0.038 0v0.019l-0.038-0.019v-0.019h-0.019v-0.038l-0.038-0.020v-0.076l-0.038 0.019-0.019-0.019v-0.019l0.019-0.019-0.038-0.020v-0.019c-0.023-0.007-0.042-0.019-0.057-0.038l0.019-0.019-0.057-0.039v-0.019h-0.019l-0.038-0.057h-0.019v-0.038h-0.020l-0.057-0.039-0.019-0.152 0.038-0.057-0.019-0.020c-0.031 0.007-0.064 0.013-0.095 0.020 0-0.026 0-0.051 0-0.076h-0.019c0-0.026 0-0.051 0-0.077l0.039-0.038h-0.039c0-0.013 0-0.025 0-0.038h0.039v-0.019h-0.039v-0.058c0.019-0.015 0.031-0.034 0.039-0.057h-0.039l-0.038-0.038v-0.019c-0.013 0-0.025 0-0.038 0v-0.038l0.019-0.038-0.019-0.020-0.020 0.020-0.019-0.020 0.019-0.038-0.019-0.019c0.019-0.015 0.031-0.034 0.038-0.058h-0.020l0.020-0.076h-0.020l0.020-0.019-0.020-0.019 0.020-0.020h-0.020l0.020-0.019-0.038-0.057c0-0.032 0-0.064 0-0.095h0.038c0.002-0.047-0.012-0.094-0.038-0.134 0.010-0.178 0.061-0.344 0.153-0.495l0.076-0.038 0.019-0.058c0.077-0.023 0.13-0.076 0.153-0.152v-0.038c-0.031-0.041-0.057-0.086-0.076-0.133 0.028-0.035 0.040-0.073 0.038-0.114l0.019-0.020 0.019 0.020c0.021-0.024 0.046-0.044 0.076-0.058l-0.019-0.019c0.016-0.050 0.022-0.101 0.019-0.152l-0.038-0.058v-0.076c-0.043 0.018-0.087 0.024-0.133 0.019l-0.058-0.038-0.019 0.114c-0.029 0.037-0.068 0.062-0.115 0.076-1.624-0.096-3.249-0.154-4.876-0.171-0.067-0.762-0.131-1.524-0.191-2.286l-0.914-1.066c0.296-0.039 0.595-0.045 0.895-0.019l-0.076-1.391-0.058 0.020-0.076-0.038c-0.001-0.049-0.014-0.093-0.038-0.133h0.020l-0.020-0.038v-0.038l-0.019-0.020h0.019l-0.019-0.019v-0.038l-0.019-0.019v-0.038l-0.057-0.019v-0.019l0.019 0.019v-0.038l-0.058-0.038 0.019-0.019h-0.019v-0.038l-0.019-0.019c-0.013 0-0.025 0-0.038 0l0.019-0.019v-0.019h-0.019v-0.019h-0.019l0.019-0.019c0-0.026 0-0.051 0-0.076l0.019 0.019c0-0.026 0-0.051 0-0.077l-0.019 0.020v-0.020l-0.019 0.020c0-0.013 0-0.026 0-0.038l-0.019 0.019c0-0.013 0-0.025 0-0.038l-0.019 0.019-0.019-0.019 0.019-0.019-0.038-0.019c-0.006-0.024-0.019-0.043-0.038-0.058v-0.019l-0.019-0.019v-0.038l-0.020-0.019 0.020-0.020-0.020-0.038v-0.019l0.038-0.019v-0.020l-0.038-0.019v-0.038l-0.019-0.019c0-0.026 0-0.051 0-0.076-0.019 0-0.038 0-0.057 0 0-0.019 0-0.038 0-0.057 0.013-0.013 0.025-0.025 0.038-0.038v-0.019l-0.019-0.038 0.038-0.019-0.038-0.038 0.038-0.019-0.019-0.020v-0.019l0.019-0.019h0.019c0.040-0.014 0.071-0.040 0.095-0.076v-0.020c0.011-0.032 0.030-0.057 0.057-0.076v-0.019l0.019-0.038v-0.038l0.019-0.019h0.038v-0.019l-0.019-0.019h-0.076l-0.038-0.058 0.019 0.019 0.019-0.038h0.019l-0.019-0.019v-0.020c-0.013 0-0.025 0-0.038 0l-0.038-0.020h-0.019l0.019 0.020h-0.019v-0.096l-0.019-0.038 0.019-0.020v-0.019c-0.013 0-0.025 0-0.038 0l-0.019 0.019v0.020l-0.019-0.020c0.013-0.013 0.025-0.025 0.038-0.038v-0.038l0.020-0.019c-0.032 0-0.064 0-0.095 0l0.057-0.057v-0.019l-0.038 0.019-0.019-0.019v-0.019c0.019 0 0.038 0 0.057 0l0.019-0.019-0.038-0.019v-0.019c0.013 0 0.025 0 0.038 0l-0.019-0.019h-0.057l-0.019-0.019-0.019 0.019-0.020-0.019h-0.057l0.038-0.038-0.019-0.019c-0.019 0-0.038 0-0.057 0v0.038h-0.020l-0.019-0.038h-0.038l0.019-0.038h-0.038l0.019-0.019h-0.038l-0.019-0.019-0.020 0.019h-0.019v-0.038l-0.019 0.019c0-0.013 0-0.025 0-0.038l-0.038-0.039-0.019 0.038h-0.020l-0.019 0.019h-0.019c-0.031-0.011-0.057-0.030-0.076-0.058l-0.020-0.057-0.019 0.019v0.038l-0.038-0.038v-0.038l-0.019-0.019v-0.019h0.019v-0.020h0.019l0.019-0.019-0.019-0.019 0.019-0.019h0.019l-0.019-0.019 0.019-0.019c0-0.013 0-0.026 0-0.038l0.039-0.019v-0.019h0.019v-0.019h0.038l0.019-0.039 0.019 0.020c0-0.013 0-0.026 0-0.038l0.020-0.019v-0.019l0.057-0.019 0.038 0.019h0.020l0.019-0.019h0.019c0.029-0.014 0.055-0.033 0.076-0.058h0.020v-0.019h0.038v-0.057c0.037-0.040 0.081-0.066 0.133-0.076v0.019c0.015-0.019 0.034-0.032 0.057-0.038l0.020 0.019 0.076-0.019v-0.019l0.057-0.058h0.019v-0.019h0.038l0.019-0.038c0-0.025 0-0.051 0-0.076l0.039-0.019-0.039-0.038v-0.058h0.019v-0.019h0.020c0-0.032 0-0.063 0-0.095l-0.020-0.039h0.020l0.019-0.038c0-0.013 0-0.025 0-0.038v0.019l0.020-0.019c0-0.019 0-0.038 0-0.058h0.038l0.019-0.057h0.020v-0.076h0.019v-0.038l0.038-0.058c0-0.019 0-0.038 0-0.057 0.013 0 0.025 0 0.038 0l0.076-0.096-0.038-0.019 0.019-0.038-0.019-0.020c0-0.013 0-0.025 0-0.038l-0.019-0.019 0.019-0.019v-0.038h0.038l0.038-0.057h0.019l0.019-0.038v-0.038h0.038l0.019-0.019h0.019v-0.057c0.019-0.026 0.038-0.051 0.058-0.076v-0.019l0.019-0.019 0.057 0.019 0.019-0.019c0.013 0 0.026 0 0.039 0l0.019 0.019 0.019-0.038h0.038l0.038-0.114 0.057-0.058 0.019-0.057c-0.032-0.217-0.032-0.418 0-0.629l0.038-0.057v-0.038l-0.019-0.038c0.019-0.027 0.045-0.047 0.076-0.057h0.019c0.016-0.030 0.023-0.061 0.019-0.095 0.025-0.026 0.051-0.051 0.076-0.076l0.076-0.019 0.057-0.076 0.057-0.019c0-0.013 0-0.025 0-0.038h0.020v-0.019c0.019 0 0.038 0 0.057 0l0.019-0.020v0.020l0.038-0.020c0.015 0.019 0.034 0.032 0.057 0.038 0.038-0.012 0.064-0.038 0.076-0.076l-0.019-0.095 0.038-0.038v-0.038l0.019-0.019h0.019v-0.038l0.038-0.038v-0.019l0.038-0.038 0.057-0.020-0.324-0.266h-0.019c0-0.013 0-0.025 0-0.038l-0.019-0.038c-0.011-0.037-0.017-0.075-0.019-0.114l0.019-0.019c0-0.057 0-0.115 0-0.172l-0.038-0.057h-0.019l-0.019-0.057-0.057-0.038h-0.019v-0.019h-0.019v-0.019l-0.019-0.020v-0.038h-0.039c0.013-0.025 0.026-0.050 0.039-0.076v-0.020l-0.039-0.019c0.013 0 0.026 0 0.039 0v-0.019l-0.019-0.019 0.019-0.019-0.058-0.038h0.019c0-0.013 0-0.025 0-0.038l-0.019-0.038 0.019-0.038-0.019-0.020h-0.019l-0.038-0.057-0.038 0.019-0.019-0.019-0.019 0.019-0.019-0.019-0.019 0.019c-0.025-0.012-0.051-0.025-0.076-0.038 0-0.013 0-0.026 0-0.039l-0.019-0.019v-0.019h-0.019v-0.019h-0.019v0.019c0-0.019 0-0.038 0-0.057l-0.019-0.019-0.019 0.019 0.038-0.019-0.019-0.039h0.019l-0.019-0.019 0.019-0.019-0.019-0.019h0.019v-0.019h-0.038l0.019-0.019v-0.020h-0.019v-0.019h0.019c0-0.013 0-0.025 0-0.038h-0.019c0.004-0.034-0.003-0.065-0.019-0.095l0.019-0.019-0.038-0.019 0.019-0.019c0-0.019 0-0.038 0-0.057l-0.019-0.019h0.019c0-0.038 0-0.076 0-0.114h0.019l-0.019-0.019 0.019-0.038h-0.019l0.019-0.019-0.019-0.039 0.019-0.019-0.019-0.019 0.019-0.019c0.013 0 0.026 0 0.038 0l-0.019-0.019h0.038l-0.019-0.020h0.019l-0.019-0.019 0.019-0.019v0.019l0.019-0.019h0.019v-0.019l0.058-0.019v-0.019c0.019-0.037 0.044-0.069 0.076-0.095 0-0.013 0-0.025 0-0.038l0.019 0.019c0.026-0.033 0.058-0.058 0.096-0.076l0.038-0.095h0.057c0.013-0.013 0.025-0.025 0.038-0.038h0.019l0.020-0.019v-0.019l0.019-0.038c0.005-0.040-0.001-0.077-0.019-0.114l0.019-0.020h-0.019l0.019-0.019c0.004-0.034-0.002-0.065-0.019-0.095l-0.057-0.018-0.038-0.038v-0.038l-0.019-0.038v-0.038l-0.039-0.057c0-0.032 0-0.063 0-0.095h0.020c0.013-0.013 0.025-0.025 0.038-0.038h-0.019v-0.020h-0.039l-0.019-0.038v-0.019l-0.019-0.019v-0.019h0.038l-0.019-0.039 0.019 0.020 0.020-0.058-0.038-0.019v0.019c-0.025 0-0.051 0-0.076 0v-0.019l-0.020 0.038h-0.019l-0.019-0.038-0.019 0.019-0.076 0.019-0.019-0.076-0.019-0.020-0.019 0.020v0.019c-0.013 0-0.025 0-0.038 0l-0.019-0.019-0.019 0.019-0.038-0.019-0.038 0.019c-0.013-0.013-0.026-0.026-0.039-0.038-0.024 0.015-0.049 0.022-0.076 0.020l-0.020 0.038-0.038-0.019h-0.019c-0.026-0.012-0.051-0.025-0.076-0.038-0.031 0-0.063 0-0.094 0l-0.019-0.019c0-0.025 0-0.051 0-0.076-0.013 0-0.026 0-0.038 0l-0.019-0.020-0.019 0.020h-0.019l-0.058 0.057-0.038-0.019 0.019 0.019-0.019 0.058h0.019l-0.019 0.019-0.057-0.038c-0.019 0-0.038 0-0.058 0l-0.019-0.019v-0.019l-0.019-0.019v-0.019c-0.013 0-0.026 0-0.038 0l0.019-0.058c-0.015-0.019-0.034-0.031-0.057-0.038l-0.019 0.019h-0.019l0.019-0.076h-0.019l-0.019-0.020v-0.057c-1.029 0.010-2.058 0.004-3.086-0.019v-0.019c0.019 0 0.038 0 0.057 0v-0.057l0.020-0.019c0.006-0.045 0.013-0.089 0.019-0.133h-0.019v-0.038l-0.020-0.020h0.020c0-0.038 0-0.076 0-0.114l0.038-0.020v-0.057l0.019-0.038-0.019-0.039c0.013-0.013 0.025-0.025 0.038-0.038v0.019l0.019 0.019v0.020h0.039l-0.019-0.039 0.019-0.057-0.019-0.019v-0.039l-0.019-0.038v-0.019l0.039-0.019v-0.020h-0.019l-0.038-0.038v-0.057l0.019-0.019h0.019c0-0.038 0-0.076 0-0.114l-0.019-0.019 0.039-0.058-0.019-0.038 0.019-0.019-0.019-0.057 0.038-0.038v-0.039l-0.038-0.038v-0.114l0.038-0.075-0.019-0.019 0.019-0.020 0.019-0.095c-0.013 0-0.025 0-0.038 0v-0.020l0.019-0.019c-0.023-0.006-0.043-0.019-0.058-0.038h-0.019l-0.019-0.038v-0.076h-0.019l-0.019-0.057c-0.019 0-0.038 0-0.057 0l-0.019-0.038h-0.019l-0.019-0.038 0.038-0.019c-0.035-0.048-0.067-0.1-0.095-0.152 0-0.038 0-0.076 0-0.114l0.076-0.019-0.019-0.020c0-0.019 0-0.038 0-0.057l-0.057-0.019v-0.019h-0.057c0.011-0.050 0.017-0.102 0.019-0.153l0.019-0.038v-0.038h0.019l-0.019-0.057 0.019-0.019v-0.019l0.057-0.038c0.027-0.035 0.040-0.073 0.038-0.114l0.038-0.019v-0.057l-0.019-0.019 0.019-0.038h0.020v-0.019l-0.020-0.020 0.020-0.019v-0.076l0.038-0.038c-0.003-0.066-0.008-0.126-0.019-0.19l-0.039-0.019 0.020-0.039v-0.019c-0.025-0.012-0.051-0.025-0.076-0.038l0.057-0.076v-0.057l-0.076-0.038h-0.038l-0.019-0.020 0.076-0.038 0.019 0.019h0.038l0.020-0.038 0.057-0.019c0.004-0.033-0.002-0.065-0.019-0.095h0.038c0.009-0.039 0.028-0.071 0.057-0.095h-0.020v-0.019l-0.019 0.019h-0.019l-0.019-0.038c0.014-0.037 0.021-0.075 0.019-0.114h-0.019v-0.019h-0.019v-0.076h-0.019v-0.038l-0.039 0.019-0.057-0.057v-0.020l0.076-0.019c-0.062-0.017-0.112-0.048-0.153-0.095v-0.020l-0.019-0.019 0.058-0.057h0.019v-0.039l0.019-0.019-0.038-0.057 0.038-0.019c-0.032-0.011-0.057-0.030-0.076-0.057h-0.057l-0.038-0.019v-0.019l-0.038 0.019c0-0.025 0-0.051 0-0.076 0.006-0.023 0.019-0.042 0.038-0.057l-0.019-0.038c0.015-0.024 0.021-0.050 0.019-0.076l-0.038 0.019-0.019-0.019z"></path>
</svg>
