<?xml version="1.0" encoding="utf-8"?>
<!-- Generated by IcoMoon.io -->
<!DOCTYPE svg PUBLIC "-//W3C//DTD SVG 1.1//EN" "http://www.w3.org/Graphics/SVG/1.1/DTD/svg11.dtd">
<svg version="1.1" xmlns="http://www.w3.org/2000/svg" xmlns:xlink="http://www.w3.org/1999/xlink" width="32" height="32" viewBox="0 0 32 32">
<path d="M0.6 11.14c0.386-0.782 0.756-1.572 1.11-2.369h0.33l0.059-0.089h-0.030l0.030-0.061c-0.030-0.030-0.060-0.060-0.090-0.089h-0.030v-0.36h-0.21l0.93-2.999 0.45-0.030v-0.030c-0.037-0.010-0.066-0.031-0.090-0.060 0-0.020 0-0.040 0-0.060l-0.030-0.030-0.030 0.030-0.061-0.030v0.030l-0.329-0.301c-0.090-0.518-0.291-0.974-0.631-1.409h0.18v-0.090l-0.18-0.15 0.061-0.18-0.061-0.060h-0.030l-0.059-0.12h-0.030l-0.060-0.15-0.060-0.030-0.030-0.060 0.030-0.061c0-0.030 0-0.059 0-0.089l-0.030 0.029v-0.030l0.030-0.060h-0.030l0.030-0.060-0.060 0.030v-0.030l0.030-0.030v-0.030l-0.060-0.030v-0.030c0.061-0.002 0.121 0.008 0.18 0.030l0.060-0.121 0.059-0.030 0.060 0.060v0.12l0.061 0.030c-0.008 0.082 0.002 0.161 0.030 0.24h0.030v0.061h0.030c0 0.030 0 0.060 0 0.090l0.030 0.029v0.031h0.031c-0.020 0.020-0.040 0.040-0.061 0.060 0 0.030 0 0.060 0 0.090l-0.030 0.030 0.059 0.031v0.030h0.031v0.030l0.090-0.030v-0.030h0.029c0.047 0.048 0.085 0.095 0.12 0.149h-0.030l0.030 0.060 0.059 0.030-0.029 0.030h-0.030c0.023 0.038 0.033 0.078 0.030 0.12l0.12-0.031 0.030 0.090h0.060c0.033 0.038 0.074 0.068 0.12 0.090l-0.031 0.061 0.12 0.060 0.15-0.030v0.090l0.060 0.090 0.061 0.030 0.030-0.060-0.030-0.091h0.060l0.059-0.089 0.060 0.029v-0.029l0.031-0.030v-0.031l0.060 0.031 0.060-0.090h0.030c0.020 0.020 0.040 0.040 0.061 0.059l0.030-0.030 0.030 0.030v-0.030h0.060v-0.029c0.036-0.010 0.067-0.031 0.090-0.060l0.030 0.030 0.030-0.030h0.030l-0.030 0.030 0.030 0.030v-0.060l0.090 0.030 0.060-0.030h0.090v-0.030h-0.060l-0.030-0.061 0.030 0.030 0.060-0.059 0.031 0.030v-0.030c0.103-0.006 0.198-0.016 0.3-0.030l0.059-0.060 0.12 0.060v-0.030h0.090v-0.091l0.060-0.030 0.030-0.059h0.059l0.030-0.030 0.031 0.030h0.029l0.030-0.18h0.060v-0.030l0.030-0.060c0.020 0 0.040 0 0.061 0l0.060-0.060c0.017-0.082 0.057-0.152 0.12-0.21v-0.029l-0.061 0.030-0.029-0.030v-0.030l0.029-0.030-0.029-0.060h0.029l0.030-0.060h0.061l0.060-0.090c0.053-0.013 0.103-0.034 0.15-0.061l0.059 0.030 0.060-0.030 0.031-0.089h0.030l0.030-0.060-0.030-0.031 0.030-0.060 0.030 0.030 0.030-0.030-0.030-0.060 0.030-0.030h0.060l0.031-0.031v-0.030l-0.061-0.030 0.030-0.029h0.031l0.030-0.030-0.030-0.030h-0.031l-0.060-0.030 0.060-0.031v-0.089l0.12-0.030 0.060 0.030h0.031l-0.031-0.060c0.033-0.038 0.074-0.068 0.12-0.090v-0.030l-0.030-0.030 0.059-0.030v-0.060c0.030 0 0.060 0 0.090 0v-0.060h0.060l0.030 0.030h0.12l-0.031 0.030 0.060-0.030 0.030 0.030v0.031l0.059 0.030 0.030-0.030-0.030-0.031h0.030l0.031 0.060 0.029-0.030-0.029-0.031v-0.030c0.023 0.029 0.053 0.050 0.089 0.061v-0.031h0.060v0.031c0.060 0 0.12 0 0.18 0l-0.029-0.061c0.042-0.003 0.082 0.007 0.12 0.030l0.089-0.060 0.030 0.030 0.030-0.030h0.031v-0.030h0.030l-0.030-0.059 0.030 0.029 0.030-0.060v0.060h0.030l0.090 0.060v-0.030h0.030v0.060l0.060-0.030v0.060l0.030 0.031c0.031-0.043 0.071-0.074 0.12-0.091l0.030 0.030 0.030-0.060h0.060l0.031-0.059v-0.030l0.089-0.031v-0.030h0.030v-0.030l0.060 0.030v0.029l-0.030-0.029v0.029l0.060 0.061v-0.030h0.060v-0.031l0.030-0.029h0.029l0.030 0.029 0.031-0.029h0.030l0.030-0.060-0.030-0.030v-0.030c0.030 0 0.060 0 0.089 0h-0.030l0.030-0.031 0.061 0.031-0.030-0.060v-0.030l0.030 0.030v-0.060h0.060l0.030 0.030h0.060v-0.030l0.060 0.030-0.031-0.059h0.031l0.030-0.030 0.060 0.030v-0.121l0.030 0.030 0.030-0.030 0.030 0.030 0.060-0.030h0.030l0.030 0.030c0-0.020 0-0.040 0-0.060h0.030l0.030-0.030h0.030l0.030-0.030 0.030 0.030 0.090 0.030 0.060-0.030c0.020 0 0.040 0 0.060 0l0.030 0.060h0.030l-0.030-0.060h0.030c0.063 0.051 0.118 0.098 0.18 0.15h-0.060v0.060l0.030-0.030c0 0.040 0 0.079 0 0.119l0.030-0.030v0.060l0.030-0.031h0.030v0.091l0.031-0.060 0.029 0.030c0.040 0 0.080 0 0.12 0l-0.030 0.030 0.060 0.089 0.061-0.029c0-0.020 0-0.040 0-0.060l0.060 0.030h0.12l-0.030 0.030h-0.031v0.029l0.061-0.029-0.030 0.029 0.030 0.031 0.060-0.031-0.030-0.029 0.030-0.030 0.060 0.090 0.031-0.031c0.010 0.037 0.030 0.068 0.060 0.091l0.030-0.029h0.029l-0.029 0.029 0.029 0.030 0.030-0.030c0.030 0 0.060 0 0.090 0l-0.030 0.060 0.090 0.091v-0.030l0.030-0.030 0.030 0.061 0.030-0.031h0.031l0.030 0.031h0.030l0.030 0.030h0.030l0.030 0.060 0.060-0.060 0.030 0.060 0.060-0.060 0.030 0.060 0.031-0.060 0.030 0.060 0.060-0.060c0 0.020 0 0.040 0 0.060l0.060 0.030c0-0.030 0-0.060 0-0.090 0.026 0.060 0.068 0.11 0.12 0.149v-0.060c0.031 0.030 0.060 0.059 0.090 0.090l0.061-0.031-0.031 0.031h0.031l-0.031 0.060 0.031 0.030h-0.031l0.031 0.030h-0.031v0.060l0.031 0.030v-0.030h0.030c0 0.030 0 0.060 0 0.090h0.030l0.029 0.029v-0.029l0.060 0.059h-0.030l0.060 0.030v0.031l0.030 0.030h0.059v0.060c0.020 0 0.040 0 0.060 0v0.030l0.031-0.030v0.030l0.030-0.030h0.030l0.030-0.030c0.030 0.030 0.060 0.059 0.090 0.089v0.031h0.031v0.030c0.040 0 0.079 0 0.119 0l0.030 0.030 0.060-0.030 0.060 0.030v0.029h0.030l0.030-0.029c0.023 0.029 0.053 0.049 0.091 0.060h0.030v0.090h0.060v-0.030 0.031l0.060 0.030v-0.030h-0.030l0.030-0.031 0.031 0.031c0.037-0.023 0.077-0.034 0.119-0.031l-0.030 0.031 0.060 0.030v0.030c0.020 0 0.040 0 0.060 0v-0.030l0.030 0.030-0.030 0.030 0.030 0.030h0.030v0.030h0.030v0.060l0.029 0.030v-0.030l0.030 0.030v-0.030h0.031v0.030l0.059 0.030v0.030l-0.030-0.030v0.030h0.089v0.030h0.030v0.030l0.061-0.030 0.030 0.030v0.031h0.029l-0.030 0.030h0.030v-0.030l0.029 0.030c0.030 0 0.060 0 0.091 0v0.030l0.060 0.030c0.043-0.030 0.073-0.071 0.089-0.12l0.031 0.031v-0.032l0.030 0.031 0.030-0.031 0.030 0.031v-0.031c0.020 0.021 0.040 0.041 0.059 0.061 0.030 0 0.060 0 0.091 0v0h0.060l0.030-0.030h0.030v-0.031l0.031 0.031v-0.031c0.036 0.011 0.066 0.031 0.089 0.061v-0.030l0.030-0.060 0.030 0.030 0.030-0.060 0.030 0.030v-0.030h0.060l0.030-0.030c0.060 0 0.12 0 0.18 0l0.029 0.060 0.060-0.030 0.091 0.030 0.060-0.030c0.042 0.003 0.082-0.007 0.12-0.030 0-0.020 0-0.040 0-0.060h0.029l0.060-0.060h0.030l0.060-0.060c0.030 0 0.060 0 0.089 0v-0.030l0.030-0.030h-0.030l0.030-0.060v-0.030l0.029-0.060c0.049-0.025 0.098-0.035 0.15-0.029l0.060-0.030v-0.061c0.023 0.030 0.053 0.050 0.090 0.061v-0.030h0.030c0.036-0.011 0.067-0.031 0.091-0.060l0.059 0.030c0.088-0.019 0.173-0.061 0.24-0.119l0.060 0.030v0.030l0.030-0.030 0.030 0.060 0.089-0.060h0.030l0.031 0.030h0.090l0.060 0.030h0.030v0.030h0.030l-0.030 0.061h0.030v0.030l0.030 0.060 0.15 0.030 0.030 0.030 0.030-0.030 0.029 0.030v0.031c0.020 0.020 0.040 0.040 0.060 0.060l0.091 0.030c0 0.020 0 0.040 0 0.060l-0.030-0.030v0.061l0.030 0.030-0.030 0.030h0.030v0.030h0.030l-0.030 0.089-0.030 0.031c0.053 0.023 0.104 0.053 0.15 0.090v0h0.031l0.059 0.030c0.050 0 0.1 0 0.151 0l0.030-0.030c0.029 0 0.059 0 0.089 0 0.023-0.029 0.053-0.049 0.091-0.060l0.029-0.061h0.060l0.030-0.030h0.061l0.030-0.030h0.030c0.023-0.029 0.053-0.049 0.089-0.059l0.030 0.030h0.061l0.030 0.030 0.030-0.030 0.029 0.060 0.060-0.030 0.030 0.030v-0.001l0.030-0.030h0.060l0.060 0.030 0.030-0.030-0.030-0.030 0.030-0.060v-0.030l0.089-0.090c0-0.030 0-0.060 0-0.090l0.030-0.061v-0.030h-0.030c0-0.040 0-0.080 0-0.119l0.030 0.030v-0.030h0.029c0.021-0.040 0.040-0.080 0.060-0.12 0.048-0.022 0.099-0.033 0.15-0.030l0.031 0.030 0.030-0.030h0.029v-0.029l0.090-0.031c0.13-0.12 0.253-0.252 0.36-0.39l0.18-0.059-0.030-0.090 0.030-0.090 0.029-0.030 0.030-0.089 0.060-0.030h0.090c0.022-0.046 0.053-0.087 0.090-0.12v-0.060c0.020 0 0.040 0 0.060 0l0.060-0.060 0.12-0.030 0.060 0.030v0.060l0.061 0.030-0.091 1.859h-0.030l-0.060 0.029-0.060-0.029-0.060 0.060c-0.080 0-0.16 0-0.24 0-0.071 0.048-0.155 0.090-0.24 0.119v0.091c-0.024 0.029-0.054 0.049-0.091 0.060v0.030c-0.045 0.039-0.075 0.089-0.089 0.15v0.030c-0.042 0.102-0.102 0.191-0.18 0.27v0.061c-0.030 0.023-0.050 0.053-0.060 0.089 0 0.020 0 0.040 0 0.060l0.031 0.061-0.031 0.030h0.031l-0.031 0.060 0.031 0.029v-0.029h0.030l0.030-0.030 0.029 0.030c0.030 0 0.060 0 0.091 0v-0.030c0.029 0 0.060 0 0.089 0l0.029 0.060h0.030l-0.030-0.029h0.030v0.060l0.060-0.030 0.030 0.030v0.031l0.029-0.031v0.031h0.030v0.030h0.030l0.029 0.030c0 0.020 0 0.039 0 0.059l0.030-0.030h0.031c0 0.020 0 0.040 0 0.060h0.029v0.031c0.020 0 0.040 0 0.060 0l-0.030 0.030h0.030v0.030c0.020 0.020 0.040 0.040 0.060 0.060 0.058-0.022 0.119-0.032 0.18-0.030l0.031 0.030 0.030-0.030h0.030v0.030h0.060l0.030 0.061c0.027-0.071 0.080-0.123 0.15-0.15v-0.030h0.12l0.030 0.030v-0.030h0.060v0.030l0.030 0.060 0.091 0.030v0.030h0.059l0.030-0.030h0.029v0.061h0.061l0.060 0.029h0.059l0.030 0.030h0.031c0.023 0.029 0.053 0.049 0.089 0.059l0.030-0.030h0.030c0.010-0.037 0.030-0.067 0.060-0.089v-0.091h0.030v-0.030l0.029 0.030v-0.030l0.030-0.030v0.030l0.029-0.030v0.030h0.030v-0.030l0.030 0.060 0.030-0.030v0.030h0.030l0.090 0.060 0.090-0.030c0.038 0.023 0.078 0.033 0.119 0.030l0.031-0.030c0.14-0.035 0.286-0.023 0.42 0.030 0.039 0.021 0.079 0.041 0.119 0.060h0.029l0.031 0.060c0.17 0.067 0.35 0.077 0.539 0.030-0.020 0.020-0.040 0.040-0.060 0.060-0.050 0-0.1 0-0.151 0-0.022 0.030-0.052 0.050-0.089 0.061l-0.026 0.059c0.093 0.346 0.153 0.694 0.18 1.049l0.149 0.15h0.12l0.060 0.030h0.030l0.031-0.119c0.356-0.163 0.764-0.139 1.109 0.060v0.030l0.030 0.030-0.030 0.091c-0.073 0.054-0.123 0.124-0.15 0.21-0.099 0.026-0.198 0.035-0.299 0.030l-0.030 0.030c0.003 0.051-0.008 0.102-0.030 0.15l-0.091 0.060c-0.026 0.048-0.046 0.098-0.060 0.15l-0.12 0.030-0.089 0.12v0.030l0.029 0.060v0.061c0.043 0.030 0.073 0.070 0.089 0.12l-0.029 0.060h0.091l0.029 0.030v0.090c0.11-0.001 0.21 0.029 0.299 0.091v0.029h0.031l0.060 0.030 0.060-0.030 0.12 0.060h0.089l0.060 0.030h0.090l0.060 0.030c0.104-0.070 0.215-0.080 0.33-0.030l0.030 0.030 0.060-0.030h0.12c0.051-0.051 0.113-0.092 0.18-0.119v-0.031h0.089l0.061 0.031v0.029c0.074 0.020 0.144 0.050 0.21 0.090h0.119l0.091 0.18v0.030l0.060 0.030c0 0.020 0 0.040 0 0.061l0.060 0.030v0.030l0.090 0.089v0.031h0.060l-0.029 0.030h0.091v0.060h0.030v0.030h0.029v0.030c0.040 0.021 0.080 0.041 0.121 0.060h0.059v-0.060h0.090l0.060 0.031v-0.031l0.060 0.060h0.119l0.060 0.030v0.030l0.030-0.030v0.030l0.059-0.030h0.030v0.030h0.031v0.030l0.029 0.030v0.061h0.030c0.019 0.020 0.039 0.040 0.060 0.059h0.030l0.031 0.030h0.030l0.060 0.030v-0.030l0.030 0.030v0.061l0.029 0.030h-0.029l0.059 0.060v0.030h0.031l0.030 0.030h0.060l0.029-0.030 0.030 0.030h0.030l0.031 0.029 0.060 0.031h0.029l0.030 0.030-0.030 0.030v0.030c0.030-0.030 0.060-0.060 0.091-0.090v0.030h0.060l0.030 0.030c0.020 0 0.040 0 0.060 0l-0.029-0.060c0.020 0.020 0.040 0.040 0.060 0.060 0.020 0 0.040 0 0.060 0v-0.030l0.029 0.030h0.060v0.030h0.030l0.031 0.059h0.060l0.029 0.061v0.030h0.030l0.030 0.060h0.029v0.030l0.061 0.061h0.029v-0.031c0.020 0 0.040 0 0.060 0l-0.030 0.031v0.029h0.091l0.119 0.060h-0.029l0.059 0.030h-0.029l0.060 0.030 0.030-0.030 0.060 0.061c0.030 0 0.059 0 0.089 0h-0.029v0.030h0.029v0.030l0.031-0.030 0.029 0.060h0.030l0.030-0.030 0.030 0.030h-0.030l0.060 0.060 0.030-0.030 0.15 0.090 0.061-0.030h0.030l0.060 0.030h0.060v0.030c0.037-0.010 0.068-0.031 0.091-0.061h0.059v0.030h0.091l0.030 0.030c0.072-0.002 0.142 0.008 0.21 0.030v0.030l0.030 0.030h0.059l0.030-0.030 0.060 0.059 0.030-0.030h0.030l0.030 0.030c0.029 0 0.060 0 0.090 0l0.030 0.030h0.029l-0.029 0.031h0.029v0.030h0.030l0.030 0.030h0.091c0 0.020 0 0.040 0 0.060l0.029 0.030v0.031l0.090-0.031 0.060 0.031h0.119v0.089h0.030c0.020 0.020 0.040 0.040 0.060 0.060l0.030-0.030v0.060l0.089 0.030 0.030 0.030 0.031-0.030h0.059v-0.030c0.020 0 0.040 0 0.060 0l0.030 0.030 0.031-0.030v0.030h0.060l0.029 0.060 0.060 0.030h0.12l0.060 0.060h0.060l0.030 0.031c0.029 0 0.059 0 0.089 0v0.030l0.091 0.060v0.030l0.030-0.030c0.030 0.030 0.060 0.059 0.090 0.089v0.061h0.029l0.030 0.090 0.031 0.030v0.031l-0.060 0.030 0.091 0.030 0.030-0.030 0.030 0.030-0.030 0.030h0.090v0.090h0.090c0.039 0.041 0.080 0.081 0.121 0.12v0.030c-0.050 0.016-0.091 0.046-0.121 0.090v0.060c0.075 0.081 0.134 0.171 0.18 0.27 0 0.050 0 0.1 0 0.15-0.073 0.002-0.142-0.008-0.21-0.030l-0.060 0.030c-0.099 0.195-0.179 0.394-0.24 0.6l-0.030 0.030v0.031l0.089 0.089-0.059 0.090 0.029 0.061v0.030l0.060 0.060c0 0.090 0 0.18 0 0.27 0.024 0.053 0.054 0.103 0.090 0.149 0.009 0.109-0.019 0.207-0.090 0.301 0.072 0.113 0.084 0.239 0.030 0.36l-0.030 0.030c0.037 0.046 0.066 0.097 0.090 0.15v0.059c-0.118 0.223-0.218 0.453-0.3 0.69-0.108 0.087-0.217 0.166-0.33 0.24-0.306 0.018-0.603 0.098-0.87 0.24h-0.030l-0.030 0.030-0.029 0.12-0.060 0.030-0.151 0.27v0.030c-0.207 0.105-0.354 0.285-0.42 0.51-0.117 0.095-0.238 0.185-0.36 0.27v0.030c-0.136 0.145-0.221 0.34-0.24 0.539l0.060 0.090c-0.038 0.149-0.039 0.303 0 0.45l0.060 0.059c0.008 0.099-0.012 0.189-0.060 0.271l-0.18 0.119c-0.070 0-0.14 0-0.21 0-0.121 0.091-0.213 0.217-0.269 0.36 0.012 0.086-0.009 0.166-0.061 0.24l-0.089 0.031-0.030 0.060c-0.079 0.025-0.156 0.035-0.241 0.030-0.029 0.023-0.049 0.053-0.060 0.090l0.030 0.15-0.030 0.061c0.087 0.077 0.128 0.18 0.121 0.299l0.029 0.030c-0.035 0.117-0.055 0.239-0.060 0.36-0.066 0.065-0.135 0.125-0.21 0.18-0.025 0.102-0.055 0.202-0.091 0.301-0.077 0.118-0.175 0.208-0.299 0.269-0.101 0-0.203-0.009-0.3-0.029l-0.060 0.029c-0.033 0.075-0.073 0.145-0.12 0.21 0.031 0.083 0.091 0.143 0.18 0.18v0.089l0.060 0.12c0 0.040 0 0.080 0 0.12-0.069 0.123-0.132 0.222-0.21 0.329-0.101 0.016-0.192 0.057-0.269 0.12-0.062 0.127-0.096 0.229-0.121 0.36-0.122 0.049-0.212 0.129-0.269 0.24l-0.060 0.030v0.029h-0.060c-0.166 0.327-0.347 0.647-0.54 0.96l-0.030 0.090c-0.147 0.076-0.274 0.192-0.359 0.329h-0.031l-0.029 0.030c-0.116 0.057-0.234 0.097-0.36 0.12-0.303 0.216-0.622 0.406-0.96 0.57-0.093 0.086-0.174 0.186-0.24 0.3h-0.029c-0.111 0.066-0.23 0.106-0.36 0.119l-0.030 0.030h-0.030l-0.18 0.090c-0.022 0.046-0.053 0.086-0.089 0.119l-0.181 0.060c-0.099 0.083-0.181 0.185-0.241 0.3 0 0.020 0 0.040 0 0.061l0.031 0.030-0.091 0.149h-0.024c-0.086 0.134-0.185 0.254-0.301 0.36-0.060 0-0.119 0-0.179 0v0.030c-0.239 0.017-0.459 0.122-0.601 0.3-0.048 0.023-0.098 0.033-0.149 0.030v0.030l-0.091 0.091c-0.17 0.077-0.34 0.157-0.509 0.24l-0.061 0.089v0.031c-0.062 0.060-0.132 0.109-0.21 0.149-0.008 0.096-0.047 0.176-0.119 0.241 0 0.19 0 0.379 0 0.569l-0.12 0.12v0.060c-0.119 0.171-0.201 0.366-0.24 0.57-0.057 0.133-0.139 0.257-0.24 0.36-0.252 0.091-0.492 0.212-0.72 0.36l-0.121-0.030c-0.023 0.029-0.053 0.049-0.089 0.060v0.030l-0.12 0.21c-0.051 0.341-0.122 0.685-0.21 1.020-0.082 0.13-0.131 0.267-0.15 0.42l0.030 0.030-0.030 0.060c0.022 0.524-0.295 0.867-0.84 0.99l-0.030 0.030-0.12-0.090v-0.059l-0.030-0.061v-0.060l-0.089-0.030-0.060 0.030c-0.084-0.077-0.175-0.147-0.27-0.21-0.047-0.065-0.067-0.135-0.060-0.21-0.063-0.061-0.149-0.092-0.24-0.090l-0.090-0.090v0.030c-0.020 0-0.040 0-0.060 0l-0.061-0.030h-0.030l-0.060-0.029-0.090 0.029v-0.029l0.030-0.060-0.090-0.031v-0.060c-0.037 0.011-0.067 0.031-0.090 0.060h-0.030l-0.031-0.060h-0.030l-0.030-0.030h-0.060l-0.029-0.059h-0.061l-0.030-0.031c-0.030 0.058-0.070 0.108-0.12 0.15v0.061l-0.031 0.030-0.18 0.030v-0.060h-0.060l-0.030 0.030h-0.030l-0.030 0.030h-0.060v0.029c-0.037 0.011-0.067 0.031-0.090 0.060l-0.089-0.030-0.060 0.060v0.061l-0.030-0.030-0.089 0.030-0.031-0.061h-0.030l-0.030 0.061h-0.060v0.060h-0.059c0 0.020 0 0.039 0 0.059l-0.031 0.030 0.031 0.091h-0.061v0.029l-0.030-0.029c-0.030 0-0.060 0-0.090 0l-0.060-0.030-0.030 0.030-0.059-0.030c-0.062 0.048-0.135 0.090-0.21 0.119h-0.029l-0.031 0.061-0.060-0.030v-0.031l-0.030 0.031-0.060-0.031c-0.010-0.037-0.030-0.067-0.061-0.089l-0.060 0.060h-0.030v0.029l-0.060 0.031h-0.031l-0.030-0.031-0.030 0.031-0.089 0.030v-0.030h-0.061l-0.030 0.030v0.030c-0.095 0.019-0.185 0.009-0.269-0.030v-0.030h-0.030v-0.031h-0.030c-0.035-0.036-0.075-0.067-0.12-0.089h-0.060l-0.091 0.15h-0.030c-0.037-0.010-0.067-0.031-0.090-0.061h-0.060v-0.060h-0.030l-0.030 0.030h-0.030l-0.030-0.030h-0.031l-0.029-0.029c0-0.030 0-0.060 0-0.091h-0.060l0.030-0.060-0.090-0.060c0.033-0.055 0.053-0.115 0.060-0.18l-0.030-0.060c0-0.060 0-0.12 0-0.18l-0.030-0.029 0.060-0.12v-0.090l-0.060-0.060h0.030l-0.030-0.060 0.030-0.091 0.030-0.030-0.030-0.030h-0.030l-0.030 0.030c-0.020-0.020-0.041-0.040-0.061-0.060l0.030-0.090-0.030-0.031h-0.030v-0.119l-0.030-0.061-0.030 0.031c-0.023-0.030-0.053-0.051-0.091-0.061v-0.030l-0.089 0.030-0.030-0.030c0-0.050 0-0.1 0-0.15l0.030-0.060v-0.030l0.030-0.030-0.059-0.060v-0.060l-0.030-0.060c-0.005-0.063-0.026-0.126-0.060-0.18h-0.030c0-0.020 0-0.040 0-0.060h0.060l0.031-0.090-0.031-0.030 0.15-0.18 0.030-0.15-0.030-0.060h-0.030v-0.059c-0.030-0.070-0.079-0.12-0.15-0.15l0.030-0.060c-0.023-0.038-0.033-0.078-0.030-0.12l0.090-0.030 0.059-0.059-0.030-0.031h-0.030l-0.030-0.030 0.030-0.029-0.061-0.090h0.061c0.010-0.037 0.030-0.067 0.059-0.090l-0.089-0.090v-0.090c-0.040-0.020-0.080-0.039-0.12-0.060-0.042-0.003-0.082 0.006-0.12 0.030 0-0.050 0-0.1 0-0.15-0.030-0.060-0.060-0.12-0.090-0.18h0.030v-0.089l-0.030-0.030 0.030-0.030c-0.031-0.042-0.072-0.072-0.12-0.091l0.030-0.119-0.030-0.031 0.061-0.030-0.061-0.119c0-0.020 0-0.040 0-0.061h-0.060l0.030-0.029-0.030-0.030 0.030-0.060c-0.026-0.047-0.036-0.098-0.030-0.15l-0.059-0.030 0.030-0.060-0.030-0.090 0.030-0.030c0-0.050 0-0.1 0-0.15l0.030-0.030v-0.060l0.060-0.031v-0.059l0.030-0.030 0.060 0.030v-0.030l-0.030-0.030v-0.030l0.030-0.029c-0.003-0.042 0.007-0.083 0.030-0.12l-0.030-0.090 0.030-0.031-0.030-0.060v-0.089l-0.030-0.031v-0.089c-0.066-0.067-0.135-0.126-0.21-0.18h-0.060c-0.020-0.040-0.040-0.080-0.060-0.12l-0.12-0.060c-0.067-0.093-0.096-0.193-0.090-0.299l-0.030-0.061 0.030-0.060h0.030c-0.003-0.042 0.007-0.083 0.030-0.12l-0.030-0.119-0.030-0.030 0.030-0.031-0.030-0.030-0.090-0.030-0.030 0.030-0.030-0.030-0.030 0.030c-0.023-0.029-0.053-0.049-0.090-0.060l0.030-0.060v-0.030l-0.12-0.061c-0.025-0.068-0.045-0.138-0.059-0.21l-0.060-0.060c-0.095 0.019-0.185 0.009-0.27-0.030l-0.030 0.030-0.030-0.030c-0.037 0.010-0.068 0.030-0.091 0.060-0.030 0-0.060 0-0.089 0l-0.060-0.060-0.091 0.030v0.060h-0.030l-0.030-0.030c-0.065-0.006-0.125-0.026-0.18-0.060h-0.029l-0.030 0.030h-0.060c-0.020 0-0.040 0-0.060 0l-0.091-0.060h-0.030v0.030l-0.030 0.030c-0.040 0-0.079 0-0.119 0l-0.030 0.030-0.030-0.030v-0.030h-0.060v0.030l-0.030-0.060-0.030 0.030c-0.020 0-0.040 0-0.061 0v-0.033l-0.089-0.061v-0.059l-0.030-0.030h-0.090l-0.030-0.029-0.030 0.029c-0.048-0.047-0.096-0.084-0.15-0.12l-0.029 0.030-0.060-0.059v-0.030h-0.030l-0.031-0.060v-0.030h-0.030v-0.030l-0.030 0.030-0.030-0.030c-0.028-0.067-0.038-0.137-0.030-0.21l-0.060-0.030h0.029l-0.029-0.030v-0.030l-0.061-0.030 0.030-0.031v-0.090l-0.030 0.030c-0.030 0-0.059 0-0.090 0v0.030l-0.030-0.030-0.030 0.030-0.031-0.030-0.030 0.030-0.030-0.030v0.030h-0.030v-0.030h-0.030v0.030l-0.030-0.030-0.031 0.060h-0.089l-0.030 0.031v0.030h-0.061v0.060l-0.030 0.030v0.030l0.030 0.031h-0.030v0.060l-0.060-0.030v0.060h0.030l-0.089 0.060v0.060l-0.030 0.030 0.030 0.030h-0.030l-0.031 0.060-0.030-0.029h-0.029v0.029h-0.030l-0.030 0.030-0.030-0.030v0.030l-0.030 0.030v0.031l-0.091 0.060c-0.020 0-0.040 0-0.060 0l0.030 0.089h-0.030c-0.042-0.039-0.094-0.070-0.15-0.089l-0.030-0.060c0-0.020 0-0.040 0-0.061l-0.030 0.030v-0.030c-0.021 0-0.040 0-0.061 0v0.030l0.030 0.031v0.029h-0.030v0.030c-0.030 0.030-0.060 0.059-0.090 0.089l-0.060-0.030 0.030-0.030c-0.020-0.020-0.041-0.040-0.061-0.060l-0.030 0.030c-0.020 0-0.040 0-0.060 0v0.030l-0.060 0.030h-0.030v-0.030h-0.031l0.031-0.030h-0.031l-0.060 0.030c0 0.050 0 0.1 0 0.15-0.052 0.031-0.098 0.058-0.15 0.089h-0.030l-0.030-0.060h-0.030c-0.037-0.011-0.067-0.031-0.091-0.060l0.031-0.061-0.031-0.060h-0.030l-0.060 0.030v0.030l-0.030 0.031c-0.020-0.021-0.040-0.041-0.061-0.061v0l-0.030-0.030-0.030 0.030h-0.058c-0.029-0.023-0.049-0.053-0.060-0.090l-0.061 0.030h-0.060l-0.030-0.030 0.030-0.029-0.030-0.031-0.061 0.060-0.030-0.029-0.030 0.029h-0.060l-0.030 0.030-0.029-0.030v-0.029h-0.061l0.030 0.060c-0.030 0-0.060 0-0.089 0l-0.030 0.030-0.030-0.030-0.031 0.030h-0.030l-0.030-0.030 0.030-0.091-0.060 0.031-0.090-0.031-0.061 0.031-0.030-0.031-0.030 0.031c-0.020 0-0.040 0-0.060 0l-0.031 0.029v-0.029l-0.030-0.031v-0.030l-0.030-0.030-0.030 0.030h-0.030v-0.030c0 0.020 0 0.040 0 0.060l0.030 0.031h-0.060v0.029l-0.091 0.060-0.059-0.060h-0.090v-0.029l-0.030 0.029v-0.029l-0.030-0.031h-0.030v-0.030l-0.059 0.030v0.031l-0.061 0.029 0.031 0.030h-0.031l-0.060-0.030v-0.029l-0.030 0.029v-0.029h-0.030l-0.030-0.031-0.031 0.031h-0.060v-0.031h-0.030l0.030-0.060h-0.060v-0.029l-0.029 0.029v-0.029l-0.091-0.030-0.060 0.030 0.030-0.030h-0.059l-0.060-0.060-0.031 0.030v0.030-0.060l-0.030 0.030-0.030-0.030-0.060 0.030h-0.030v-0.030h-0.061l-0.060-0.060h-0.030c-0.023 0.030-0.053 0.050-0.091 0.060-0.048-0.023-0.098-0.033-0.149-0.030l-0.031-0.060c0-0.040 0-0.079 0-0.119l-0.030 0.030v-0.030h-0.028v-0.031h-0.030v-0.030h-0.030l0.030-0.030-0.030-0.060c0-0.020 0-0.040 0-0.060l-0.12 0.060h-0.119c-0.031-0.029-0.061-0.059-0.090-0.091l-0.030 0.030h-0.059v0.031l-0.031 0.030v0.030l-0.060-0.059-0.030 0.030h-0.029v0.060h0.030v0.060l-0.060 0.031c-0.020 0-0.040 0-0.060 0l-0.089-0.061-0.030 0.030-0.029 0.091h-0.030l-0.031-0.060h-0.030c-0.010-0.037-0.030-0.068-0.060-0.091l-0.15 0.060 0.030 0.031-0.060-0.031h-0.060l-0.031-0.030c-0.060 0-0.119 0-0.179 0l0.030-0.060-0.030-0.030-0.030-0.090h-0.060l-0.030-0.030-0.030 0.060h-0.059l-0.031-0.030-0.029 0.030 0.029-0.15-0.029-0.030h-0.060v-0.060l0.030-0.060 0.15-0.091c0-0.040 0-0.079 0-0.119l0.060-0.060c0.045-0.086 0.065-0.177 0.060-0.27h-0.031l-0.030-0.030 0.090-0.060h0.060l0.030-0.031c-0.070-0.077-0.16-0.127-0.27-0.149v-0.030c0.060-0.021 0.12-0.041 0.18-0.061l0.090-0.18v-0.090h-0.060c-0.031-0.029-0.061-0.060-0.091-0.091v-0.029l0.030-0.060c0.092-0.045 0.172-0.106 0.24-0.18v-0.030l-0.18-0.090c-0.030-0.060-0.060-0.119-0.091-0.179l0.061-0.091 0.090-0.029v-0.030c-0.051-0.068-0.121-0.108-0.21-0.12-0.043-0.088-0.043-0.182 0-0.269l0.059-0.030c0.037-0.046 0.067-0.096 0.091-0.15 0.069-0.239 0.181-0.461 0.329-0.661l-0.030-0.029-0.18-0.030c-0.040-0.040-0.080-0.079-0.119-0.119 0.083-0.090 0.183-0.16 0.3-0.211l0.030-0.059c0.007-0.142-0.014-0.286-0.059-0.42l0.090-0.15c-0.067-0.079-0.107-0.168-0.12-0.269l0.089-0.059c0.034-0.083 0.084-0.153 0.15-0.211l-0.030-0.060c0-0.050 0-0.1 0-0.151h-0.059l-0.061 0.061h-0.059c-0.032-0.091-0.094-0.166-0.18-0.21l-0.060 0.030-0.060-0.030 0.030-0.061c0.090-0.060 0.18-0.119 0.27-0.18l0.030-0.090c-0.031-0.083-0.091-0.143-0.18-0.18h-0.060l-0.090 0.060h-0.061l-0.059-0.030c-0.003-0.065 0.016-0.124 0.059-0.18 0.040-0.019 0.080-0.039 0.121-0.060 0.079 0.023 0.159 0.033 0.24 0.030v-0.030c-0.066-0.129-0.147-0.251-0.24-0.36-0.020 0-0.040 0-0.060 0l-0.090 0.18h-0.15c0.004-0.102 0.026-0.205 0.061-0.3h-0.091l-0.090-0.12v-0.090l0.059-0.090-0.089-0.269c0.013-0.101 0.053-0.192 0.119-0.27v-0.060l-0.119-0.18-0.18-0.030-0.12-0.090-0.060-0.21c0.040-0.094 0.060-0.197 0.060-0.299-0.020-0.020-0.040-0.040-0.060-0.060h-0.091c-0.030 0.030-0.060 0.060-0.089 0.090v0.030l-0.091-0.059-0.030-0.12c0.029-0.023 0.050-0.053 0.061-0.089l0.119-0.030 0.030-0.061c-0.020-0.020-0.040-0.039-0.060-0.060h-0.12l-0.030-0.029v-0.030c0.029-0.024 0.049-0.054 0.061-0.090 0.063 0.009 0.122-0.001 0.179-0.030l0.030-0.089c0.075-0.069 0.165-0.099 0.27-0.091-0.004-0.065 0.016-0.124 0.060-0.18l0.060-0.030c0.050 0 0.1 0 0.149 0l0.061-0.030 0.060-0.12 0.059-0.030h0.030c0.062 0.023 0.113 0.063 0.15 0.12 0.062-0.116 0.132-0.226 0.21-0.33l-1.23-0.96 0.449-0.96z"></path>
</svg>
