<?xml version="1.0" encoding="utf-8"?>
<!-- Generated by IcoMoon.io -->
<!DOCTYPE svg PUBLIC "-//W3C//DTD SVG 1.1//EN" "http://www.w3.org/Graphics/SVG/1.1/DTD/svg11.dtd">
<svg version="1.1" xmlns="http://www.w3.org/2000/svg" xmlns:xlink="http://www.w3.org/1999/xlink" width="32" height="32" viewBox="0 0 32 32">
<path d="M32 8.684c0 0.027 0 0.053 0 0.080-0.024 0.035-0.052 0.067-0.070 0.105-0.058 0.126-0.099 0.262-0.172 0.378-0.086 0.138-0.197 0.259-0.299 0.387-0.024 0.031-0.049 0.080-0.078 0.085-0.214 0.034-0.236 0.203-0.27 0.366-0.289-0.033-0.367 0.027-0.401 0.301-0.013 0.107-0.034 0.214-0.052 0.333 0.012 0.004 0.049 0.005 0.072 0.024 0.052 0.043 0.096 0.095 0.144 0.143-0.063 0.054-0.125 0.152-0.191 0.154-0.149 0.005-0.301-0.036-0.456-0.058-0.033 0.071-0.058 0.148-0.101 0.212-0.094 0.137-0.169 0.27-0.133 0.452 0.024 0.12 0.015 0.252-0.007 0.374-0.033 0.181-0.090 0.357-0.138 0.537 0.196 0.045 0.332 0.122 0.37 0.326 0.011 0.056 0.113 0.090 0.146 0.149 0.065 0.12 0.245 0.123 0.275 0.189 0.094 0.209 0.351 0.273 0.401 0.524 0.022 0.112 0.012 0.171-0.054 0.236-0.039 0.038-0.092 0.062-0.139 0.092 0.038 0.049 0.066 0.084 0.079 0.101-0.214-0.039-0.43-0.077-0.645-0.117-0.025-0.005-0.052-0.010-0.074-0.023-0.18-0.106-0.28 0.014-0.366 0.138-0.105 0.152-0.295 0.238-0.405 0.115-0.148-0.165-0.257-0.091-0.391-0.025 0.077 0.184 0.357 0.233 0.326 0.532-0.24-0.243-0.465-0.104-0.691-0.028-0.025 0.008-0.053 0.011-0.075 0.024-0.044 0.027-0.108 0.051-0.124 0.092-0.090 0.23-0.167 0.466-0.251 0.705 0.17 0.020 0.306 0.036 0.46 0.054-0.020 0.139-0.024 0.26-0.057 0.372-0.044 0.152 0.029 0.21 0.152 0.268 0.057 0.027 0.105 0.101 0.13 0.164 0.029 0.077 0.029 0.166 0.044 0.269-0.2 0.046-0.39 0.121-0.59-0.035-0.059-0.046-0.176-0.027-0.265-0.021-0.019 0.001-0.053 0.077-0.045 0.11 0.007 0.029 0.060 0.051 0.096 0.069 0.073 0.037 0.161 0.054 0.221 0.106 0.091 0.079 0.164 0.179 0.243 0.268-0.083 0.056-0.129 0.152 0.005 0.227 0.354 0.197 0.371 0.504 0.299 0.845-0.016 0.075-0.086 0.154-0.070 0.216 0.058 0.232-0.072 0.237-0.243 0.205 0.007 0.082 0.012 0.145 0.016 0.197-0.213 0.199-0.483 0.333-0.386 0.713 0.044 0.172-0.063 0.353-0.29 0.396-0.041 0.008-0.088 0.070-0.103 0.117-0.048 0.15-0.080 0.305-0.124 0.456-0.046 0.16-0.148 0.232-0.324 0.225-0.277-0.012-0.554-0.003-0.831-0.003 0.010 0.017 0.021 0.034 0.031 0.051-0.075 0.092-0.141 0.194-0.227 0.274-0.095 0.087-0.107 0.186-0.019 0.253 0.184 0.142 0.065 0.291 0.039 0.44-0.016 0.089-0.031 0.179-0.046 0.268 0.018 0.004 0.036 0.009 0.053 0.013-0.112 0.197-0.224 0.395-0.337 0.592-0.074 0.128-0.138 0.257-0.326 0.253-0.096-0.002-0.193 0.052-0.33 0.094 0.101 0.078 0.162 0.125 0.25 0.193-0.338 0.191-0.358 0.547-0.423 0.861-0.036 0.171-0.247 0.308-0.118 0.516 0.005 0.009-0.039 0.049-0.060 0.074-0.056 0.065-0.114 0.128-0.169 0.194-0.088 0.104-0.047 0.162 0.067 0.204 0.063 0.024 0.119 0.065 0.178 0.098-0.87 0.391-1.71 0.758-2.546 1.254 0.027-0.119 0.039-0.173 0.056-0.251-0.209-0.022-0.411-0.046-0.614-0.062-0.033-0.003-0.073 0.027-0.102 0.051-0.172 0.136-0.369 0.124-0.573 0.123-0.233-0.001-0.468 0.024-0.697 0.063-0.141 0.024-0.276 0.090-0.409 0.147-0.217 0.094-0.43 0.197-0.645 0.295-0.053 0.024-0.11 0.060-0.163 0.056-0.261-0.019-0.525-0.075-0.743 0.14-0.029 0.028-0.082 0.037-0.125 0.046-0.213 0.042-0.402 0.174-0.629 0.169-0.026-0.001-0.051 0.043-0.081 0.053-0.188 0.068-0.377 0.134-0.567 0.197-0.136 0.045-0.286 0.061-0.408 0.129-0.239 0.134-0.463 0.295-0.708 0.455-0.176-0.379-0.35 0.027-0.511-0.049 0-0.041 0-0.074 0-0.113-0.101 0.045-0.189 0.084-0.306 0.136 0.018-0.095 0.029-0.154 0.046-0.242-0.086 0.023-0.144 0.038-0.211 0.056 0.038 0.073 0.063 0.123 0.080 0.155-0.118 0.069-0.223 0.131-0.328 0.192 0.008 0.018 0.017 0.035 0.025 0.053 0.038 0 0.077-0.005 0.113 0.001 0.053 0.010 0.103 0.028 0.155 0.043-0.022 0.055-0.039 0.112-0.068 0.163-0.030 0.054-0.072 0.102-0.109 0.153-0.005-0.016-0.011-0.031-0.016-0.047-0.090 0.026-0.18 0.051-0.277 0.079-0.016-0.023-0.046-0.065-0.052-0.073-0.25 0.079-0.479 0.151-0.707 0.223 0.009-0.043 0.019-0.085 0.033-0.15-0.173 0.031-0.323 0.058-0.472 0.086-0.177 0.034-0.253-0.045-0.201-0.22 0.016-0.055 0.060-0.101 0.086-0.144-0.13-0.070-0.261-0.14-0.391-0.211 0.007-0.020 0.014-0.040 0.021-0.060 0.073-0.018 0.147-0.035 0.21-0.051-0.048-0.217-0.097-0.438-0.369-0.488-0.011-0.002-0.012-0.041-0.025-0.051-0.051-0.037-0.101-0.084-0.159-0.101-0.254-0.075-0.397-0.375-0.274-0.612 0.055-0.106 0.136-0.198 0.226-0.327-0.076-0.035-0.174-0.080-0.275-0.126 0.070-0.076 0.149-0.161 0.218-0.236-0.044-0.155-0.093-0.324-0.137-0.478 0.063-0.145 0.124-0.285 0.196-0.45 0.182-0.019 0.267-0.199 0.271-0.364 0.003-0.108 0.112-0.342-0.135-0.358-0.168-0.011-0.23-0.099-0.259-0.195-0.108 0.010-0.195 0.019-0.282 0.024-0.091 0.005-0.187-0.010-0.274 0.011-0.146 0.035-0.287 0.091-0.409 0.131-0.057-0.173-0.086-0.299-0.14-0.413-0.067-0.14-0.17-0.263-0.23-0.404-0.102-0.24-0.021-0.558-0.307-0.722-0.014-0.008-0.020-0.035-0.023-0.054-0.030-0.176 0.13-0.449 0.307-0.547 0.033-0.018 0.059-0.070 0.068-0.11 0.024-0.109-0.153-0.428-0.256-0.474-0.318-0.143-0.386-0.427-0.183-0.715 0.034-0.049 0.047-0.167 0.015-0.2-0.119-0.123-0.265-0.22-0.392-0.336-0.053-0.048-0.104-0.113-0.125-0.18-0.037-0.116-0.075-0.203-0.215-0.126-0.094 0.051-0.179 0.121-0.278 0.156-0.050 0.018-0.149-0.002-0.176-0.041-0.141-0.202-0.324-0.076-0.487-0.073-0.175 0.003-0.061 0.153-0.098 0.228-0.025 0.049-0.056 0.095-0.085 0.142-0.043-0.035-0.091-0.066-0.128-0.107-0.032-0.036-0.051-0.083-0.083-0.139-0.211 0.427-0.355 0.437-0.628 0.069-0.028-0.038-0.076-0.060-0.115-0.090-0.016 0.009-0.033 0.018-0.049 0.027 0.025 0.091 0.049 0.182 0.078 0.291-0.163-0.017-0.32-0.049-0.475-0.046-0.203 0.004-0.405 0.034-0.607 0.057-0.090 0.010-0.183 0.055-0.269 0.042-0.394-0.059-0.566 0.103-0.524 0.501 0.011 0.108 0.002 0.218 0.002 0.349-0.182-0.056-0.263-0.123-0.247-0.296 0.013-0.142-0.011-0.292-0.044-0.433-0.012-0.052-0.093-0.102-0.153-0.123-0.024-0.008-0.082 0.061-0.115 0.102-0.078 0.098-0.136 0.221-0.232 0.293-0.053 0.040-0.203 0.032-0.249-0.014-0.228-0.226-0.23-0.677 0.017-0.938-0.112 0.008-0.184 0.003-0.251 0.020-0.195 0.050-0.379 0.090-0.513-0.125-0.024-0.038-0.105-0.061-0.157-0.057-0.27 0.023-0.539 0.074-0.809 0.082-0.187 0.006-0.41 0.013-0.555-0.078-0.207-0.13-0.402-0.115-0.617-0.115-0.118-0-0.26-0.027-0.351-0.095-0.272-0.203-0.423-0.203-0.678 0.036-0.079 0.075-0.168 0.165-0.266 0.19-0.324 0.081-0.603 0.233-0.836 0.44-0.049-0.312-0.098-0.628-0.147-0.944 0-0.027 0-0.053 0-0.080 0.030-0.065 0.051-0.137 0.091-0.195 0.062-0.090 0.137-0.172 0.206-0.257 0.021 0.008 0.042 0.017 0.063 0.025-0.041-0.091-0.082-0.183-0.143-0.319 0.161 0.030 0.282 0.053 0.451 0.085-0.073-0.101-0.118-0.162-0.197-0.271 0.112-0.147 0.251-0.297 0.353-0.47 0.116-0.197 0.254-0.327 0.494-0.341 0.057-0.003 0.137-0.077 0.159-0.137 0.051-0.135 0.073-0.281 0.112-0.444 0.032-0.030 0.099-0.076 0.143-0.138 0.101-0.14 0.173-0.306 0.292-0.428 0.087-0.089 0.231-0.124 0.348-0.184 0.174-0.088 0.439 0.070 0.548-0.204 0.006-0.016 0.084-0.011 0.128-0.005 0.26 0.033 0.52 0.131 0.777-0.021 0.051-0.030 0.179-0.026 0.178-0.033-0.010-0.19 0.136-0.114 0.223-0.139 0.027-0.008 0.050-0.032 0.072-0.051 0.033-0.028 0.065-0.059 0.098-0.088 0.025 0.041 0.047 0.083 0.075 0.122 0.075 0.106 0.151 0.21 0.227 0.315 0.067-0.064 0.133-0.129 0.202-0.191 0.018-0.017 0.048-0.021 0.065-0.039 0.106-0.112 0.264-0.211 0.302-0.344 0.044-0.152 0.178-0.092 0.233-0.174 0.183 0.172 0.281-0.048 0.383-0.11 0.21-0.127 0.329-0.136 0.48 0.038 0.244-0.040 0.473-0.079 0.702-0.112 0.021-0.003 0.046 0.045 0.073 0.051 0.246 0.053 0.491 0.144 0.742 0.008 0.040-0.021 0.114-0.009 0.159 0.014 0.136 0.068 0.264 0.208 0.397 0.211 0.191 0.005 0.296 0.104 0.436 0.232 0.117-0.090 0.235-0.18 0.353-0.27 0.010-0.008 0.026-0.017 0.036-0.013 0.186 0.065 0.253-0.142 0.398-0.177 0.050-0.012 0.098-0.070 0.129-0.119 0.038-0.059 0.039-0.151 0.088-0.192 0.071-0.059 0.176-0.074 0.254-0.125 0.212-0.14 0.418-0.29 0.632-0.44-0.020-0.044-0.038-0.079-0.052-0.115-0.097-0.243-0.26-0.478-0.1-0.756 0.033-0.057 0.050-0.129 0.096-0.171 0.115-0.105 0.128-0.209 0.055-0.346-0.086-0.162-0.213-0.188-0.378-0.171-0.079 0.008-0.206 0.002-0.236-0.046-0.091-0.145-0.134-0.314-0.019-0.485 0.132 0.048 0.18-0.021 0.236-0.139 0.071-0.148 0.17-0.291 0.287-0.406 0.141-0.138 0.32-0.236 0.466-0.369 0.039-0.035 0.036-0.143 0.018-0.207-0.037-0.133-0.113-0.255-0.144-0.389-0.077-0.33-0.173-0.628-0.546-0.754-0.11-0.037-0.218-0.17-0.153-0.324 0.052-0.124 0.13-0.236 0.192-0.356 0.089-0.171 0.19-0.323 0.13-0.551-0.031-0.116 0.072-0.35 0.176-0.398 0.112-0.051 0.217-0.093 0.301-0.186 0.021-0.024 0.063-0.063 0.072-0.058 0.189 0.113 0.336-0.059 0.505-0.073 0.155-0.013 0.306-0.067 0.455-0.101-0.015-0.14-0.021-0.256-0.042-0.369s-0.052-0.226-0.089-0.335c-0.015-0.044-0.054-0.086-0.093-0.113-0.211-0.147-0.218-0.455-0.011-0.603 0.158-0.113 0.153-0.187 0.042-0.342-0.066-0.091-0.271-0.153-0.124-0.331 0.087-0.106 0.103-0.211-0.016-0.303 0.19-0.206 0.282-0.227 0.624-0.045 0.206 0.109 0.379 0.124 0.585-0.038-0.215-0.196 0.025-0.499-0.17-0.716-0.010-0.011 0.024-0.070 0.048-0.099 0.048-0.059 0.102-0.113 0.16-0.175 0.105 0.079 0.2 0.162 0.306 0.225 0.125 0.074 0.225 0.146 0.2 0.318-0.004 0.030 0.081 0.094 0.133 0.106 0.242 0.056 0.479 0.058 0.672-0.135 0.241 0.339 0.135 0.748-0.238 0.951 0.040 0.062 0.079 0.123 0.115 0.177 0.201-0.147 0.281-0.447 0.598-0.33 0.017 0.006 0.045-0.025 0.070-0.034 0.065-0.023 0.132-0.039 0.195-0.065 0.095-0.038 0.202-0.064 0.276-0.127 0.1-0.084 0.167-0.204 0.261-0.297 0.040-0.040 0.109-0.055 0.167-0.071 0.089-0.025 0.193-0.021 0.267-0.067 0.148-0.093 0.282-0.21 0.419-0.32 0.144-0.116 0.26-0.289 0.493-0.205 0.033 0.012 0.098-0.047 0.14-0.083 0.049-0.042 0.084-0.103 0.136-0.141 0.201-0.146 0.48-0.198 0.563-0.485 0.007-0.025 0.051-0.041 0.080-0.057 0.326-0.179 0.659-0.346 0.976-0.539 0.284-0.172 0.571-0.208 0.886-0.123 0.107 0.029 0.222 0.022 0.331 0.044 0.229 0.045 0.455 0.099 0.674 0.147-0.097 0.253-0.194 0.453-0.245 0.664-0.025 0.104-0.002 0.296 0.062 0.33 0.219 0.116 0.466 0.176 0.7 0.265 0.088 0.033 0.168 0.085 0.24 0.122 0.167-0.101 0.345-0.217 0.53-0.32 0.388-0.215 0.753 0.015 1.126 0.071 0.011 0.002 0.020 0.017 0.030 0.025 0.119 0.103 0.231 0.217 0.359 0.308 0.166 0.118 0.334 0.274 0.521 0.31 0.223 0.043 0.393 0.166 0.51 0.304 0.157 0.184 0.38 0.128 0.539 0.247 0.24-0.148 0.371 0.005 0.485 0.187 0.081-0.020 0.158-0.064 0.22-0.049 0.18 0.045 0.311-0.015 0.444-0.128 0.077-0.065 0.17-0.067 0.264 0.022 0.347 0.332 0.706 0.65 1.052 0.983 0.065 0.062 0.11 0.162 0.128 0.252 0.036 0.187 0.048 0.38 0.068 0.552 0.169 0.027 0.319 0.054 0.47 0.074 0.034 0.005 0.075-0.008 0.106-0.025 0.156-0.086 0.308-0.178 0.465-0.262 0.031-0.016 0.098-0.021 0.111-0.004 0.123 0.163 0.23 0.048 0.341-0.035 0.040 0.070 0.071 0.123 0.113 0.195 0.11-0.157 0.193-0.137 0.321-0.017 0.149 0.139 0.306 0.378 0.566 0.151 0.005-0.004 0.024 0.008 0.048 0.017 0.048 0.176 0.2 0.171 0.336 0.144 0.172-0.035 0.311-0 0.399 0.143 0.062 0.101 0.134 0.134 0.245 0.135 0.030 0 0.068 0.051 0.087 0.086 0.084 0.152 0.211 0.202 0.35 0.174 0.090 0.108 0.172 0.206 0.253 0.304z"></path>
</svg>
