<?xml version="1.0" encoding="utf-8"?>
<!-- Generated by IcoMoon.io -->
<!DOCTYPE svg PUBLIC "-//W3C//DTD SVG 1.1//EN" "http://www.w3.org/Graphics/SVG/1.1/DTD/svg11.dtd">
<svg version="1.1" xmlns="http://www.w3.org/2000/svg" xmlns:xlink="http://www.w3.org/1999/xlink" width="32" height="32" viewBox="0 0 32 32">
<path d="M4.278 14.935c0.31-0.283 0.637-0.542 0.983-0.778l0.024-0.045 0.068-0.046-0.022-0.046 0.022-0.023h0.023l0.023 0.023c0.728-0.553 1.444-1.138 2.128-1.738 0.036 0.020 0.074 0.027 0.114 0.023l0.024 0.045 0.023-0.023 0.046 0.023c0.056-0.007 0.109 0.001 0.16 0.023 0.062-0.030 0.108-0.076 0.137-0.137 0.136-0.057 0.225-0.172 0.252-0.321 0.083-0.072 0.152-0.155 0.206-0.251v-0.046l0.045-0.046v-0.045l0.046-0.046h-0.023l0.023-0.045v-0.045l0.023-0.023-0.023-0.023 0.091-0.046 0.023-0.045c0.015 0 0.030 0 0.046 0v-0.045l0.046 0.023 0.023-0.046h0.023l0.046-0.068c0.015 0 0.030 0 0.046 0l-0.023-0.092h0.023v-0.023l0.023-0.023v-0.045l0.023-0.023-0.023-0.023 0.045-0.023 0.024 0.023 0.023-0.023v-0.023l-0.023-0.045 0.023-0.023-0.023-0.023v-0.046l-0.024-0.046 0.024-0.023v-0.023l0.046-0.046c0-0.023 0-0.045 0-0.068h0.023v-0.045l0.023-0.023h0.046l-0.024 0.023h0.024v-0.023h0.045v-0.023h0.023v-0.023l0.023-0.023h0.046v-0.023l0.069-0.046 0.023-0.045c0.023 0 0.046 0 0.069 0l0.023-0.046h0.023l0.023-0.045 0.023 0.023v-0.046h0.023c0-0.023 0-0.045 0-0.068h0.023l0.024-0.023v-0.069c0.037-0.013 0.068-0.036 0.091-0.068l0.023 0.023c0-0.031 0-0.061 0-0.092 0.031 0 0.061 0 0.092 0l0.023-0.068 0.045-0.023 0.024-0.046-0.024-0.046 0.046-0.023c0-0.023 0-0.045 0-0.068l0.046-0.024c0-0.038 0-0.076 0-0.114l0.023-0.046v-0.045l-0.023-0.023 0.046-0.023c0.004-0.047-0.004-0.093-0.023-0.137l0.069-0.046-0.023-0.023-0.024 0.023c0-0.015 0-0.030 0-0.045l-0.023-0.023h0.023l0.024-0.023-0.024-0.023 0.024-0.023-0.024-0.024c0.023-0.017 0.038-0.040 0.047-0.068h0.023l-0.023-0.045 0.023-0.023-0.023-0.023c0-0.015 0-0.030 0-0.045 0.015 0 0.030 0 0.045 0v-0.046l0.046-0.023v-0.023h0.047c0.017-0.023 0.040-0.038 0.068-0.046l-0.023-0.023h0.046l-0.046-0.069v-0.023h0.046v0.023h0.023l-0.023-0.091 0.069 0.023v-0.045h-0.024v-0.023h0.022l-0.024-0.024h0.047l-0.023-0.044h-0.024v-0.046h0.024l0.023-0.023-0.023-0.046c0-0.015 0-0.030 0-0.045h0.023v-0.068l0.023 0.023c0.015-0.015 0.030-0.031 0.046-0.046v0l0.023-0.023 0.024 0.023v-0.023h0.023v-0.023h-0.023c0.023-0.023 0.046-0.045 0.069-0.068l0.023 0.023v0.023l0.046-0.023v-0.023l-0.023-0.024h0.023l0.024 0.046h0.023c0-0.023 0-0.046 0-0.069l0.046 0.023 0.023-0.045c0.023 0 0.046 0 0.069 0v-0.046l-0.046-0.023 0.046-0.046-0.046-0.045c0.023 0 0.046 0 0.069 0v-0.091l0.023-0.024 0.023 0.024h0.023l0.023-0.046-0.023-0.023 0.023-0.023h0.046l0.023 0.023c0-0.015 0-0.030 0-0.045l-0.046-0.023 0.046-0.023v-0.023l-0.069-0.045h0.046l0.045 0.045 0.023-0.023-0.023-0.068c0.023 0 0.046 0 0.069 0l0.023-0.046-0.023-0.023v-0.046l-0.046 0.023-0.023-0.046c0.023 0 0.046 0 0.069 0l0.023-0.046h0.023v0.069h0.023l0.023-0.023-0.023-0.092 0.068-0.023 0.023 0.023v-0.068l0.023-0.023-0.023-0.046v-0.068l0.046-0.023-0.023-0.023 0.046-0.046-0.046-0.023v-0.023l0.023-0.023 0.046 0.023 0.023-0.045-0.023-0.024h-0.023v-0.023h0.046v-0.023l-0.023-0.023h-0.046c0-0.023 0-0.046 0-0.069l0.046-0.023v-0.023c-0.023-0.018-0.038-0.040-0.046-0.069h0.023l-0.046-0.046h-0.023v-0.023l0.046-0.023h0.046l0.023 0.023c0.016-0.015 0.031-0.030 0.047-0.045h-0.023v-0.023l0.023-0.023-0.023-0.023h0.023l0.045 0.023 0.045-0.023-0.023-0.024v-0.023h-0.023l0.023-0.023h0.046l0.046 0.046 0.023-0.023h0.023l-0.046-0.023h0.023v-0.023l-0.046 0.023v-0.023h0.023l-0.023-0.023h-0.024c0-0.038 0-0.076 0-0.115h-0.023v0.023c-0.017 0.022-0.040 0.038-0.068 0.045l-0.023-0.045c0-0.046 0-0.092 0-0.137h-0.023l-0.024 0.023c-0.019-0.037-0.026-0.074-0.023-0.114l-0.046 0.023v-0.023l-0.023-0.046 0.046-0.068 0.046-0.023v-0.023l0.047 0.023c0-0.016 0-0.031 0-0.046l0.045-0.023c0-0.023 0-0.045 0-0.068l0.023-0.023h0.023l0.047 0.091 0.023-0.023v-0.092l0.046-0.023c0.023 0 0.045 0 0.068 0 0.049-0.029 0.102-0.044 0.161-0.046l-0.024-0.092 0.047-0.023h0.023l0.023-0.046c-0.015-0.015-0.030-0.030-0.045-0.045v-0.046l0.023-0.023h0.023l0.023 0.023c0.072 0.004 0.14-0.011 0.206-0.045v-0.023c-0.028-0.008-0.051-0.023-0.069-0.046l0.023-0.046-0.023-0.046v-0.045l0.023-0.046h-0.023c0-0.053 0-0.107 0-0.16 0.042-0.037 0.073-0.084 0.091-0.137v-0.023l-0.046-0.023-0.068 0.092h-0.023l-0.046-0.023c0-0.023 0-0.045 0-0.068 0.043-0.025 0.081-0.056 0.114-0.092 0-0.038 0-0.076 0-0.114l0.023-0.024 0.023-0.114-0.046-0.046v-0.023l0.069-0.023 0.023 0.045 0.046 0.024 0.046-0.024 0.023-0.068h0.046l0.045-0.023v-0.023c0.017-0.056 0.047-0.102 0.092-0.137l0.069-0.023 0.046-0.046-0.046-0.023v-0.023c0.030-0.030 0.061-0.061 0.091-0.092v-0.068l-0.023-0.045v-0.069c0.027-0.049 0.056-0.093 0.091-0.137 0.024-0.127 0.056-0.26 0.092-0.388l-0.023-0.092h-0.046v-0.022l0.114-0.16c-0.024-0.040-0.044-0.075-0.068-0.115l-0.115-0.023c-0.028 0.018-0.059 0.025-0.090 0.023l-0.024-0.023-0.046 0.045-0.023-0.023-0.023-0.115 0.023-0.091c0.015-0.016 0.030-0.031 0.046-0.046 0.070 0.010 0.14 0.002 0.206-0.023l0.046 0.023c0.015 0 0.030 0 0.045 0l0.023-0.023v-0.023l0.023-0.023c0.032 0.003 0.063-0.005 0.092-0.023 0.032-0.024 0.055-0.054 0.069-0.092v-0.046l-0.024-0.023c0-0.031 0-0.061 0-0.092l0.046-0.069v-0.023l-0.022-0.023v-0.023l0.068-0.023c-0.034-0.082-0.049-0.166-0.046-0.252-0.039-0.038-0.077-0.076-0.114-0.115l0.137-0.114v-0.024l-0.069-0.045 0.091-0.068 0.023-0.092 0.023-0.023c0.011-0.040 0.026-0.078 0.046-0.115v-0.023l-0.092 0.023c0-0.030 0-0.061 0-0.091h-0.068l-0.047-0.115 0.092-0.092-0.045-0.091 0.068-0.069c0.029-0.018 0.059-0.025 0.092-0.023v0.023l0.091-0.023v-0.137l0.023-0.023v0.045l0.023-0.023v-0.046l0.023-0.045h0.023c0 0.023 0 0.045 0 0.068l0.046 0.068v-0.023l-0.023-0.045c0-0.038 0-0.076 0-0.115l0.023-0.045h0.023l0.046-0.092v0.023c0-0.023 0-0.046 0-0.069h0.022l0.023 0.023v0.046h0.023c0-0.038 0-0.076 0-0.114l0.023 0.023v-0.046h0.092v0.046h-0.046v0.023l0.023-0.023 0.023 0.023v0.046h0.023v0.023l-0.046 0.023v-0.023c-0.023 0-0.046 0-0.069 0h0.069v0.069h-0.025l-0.024 0.045c0.018-0.022 0.041-0.037 0.069-0.045h0.023v-0.023c0 0.038 0 0.076 0 0.115h-0.068l-0.046 0.023 0.023 0.023c-0.015 0.015-0.030 0.030-0.046 0.045l0.046-0.023c0 0.015 0 0.030 0 0.045l0.024-0.023-0.024-0.023 0.024-0.046h0.046v0.023l0.023-0.023h0.045l-0.022 0.046v0.023h0.022l-0.022 0.045v0.069l-0.023 0.023 0.023 0.023-0.023 0.092 0.023 0.023 0.022-0.023c0.017-0.045 0.025-0.091 0.024-0.137l0.137-0.275h0.024v-0.022l0.045-0.023c-0.015 0-0.030 0-0.045 0v-0.023l0.068-0.069h0.023c-0.015-0.015-0.030-0.030-0.045-0.045l0.023-0.023 0.068-0.024h-0.023c0.015 0 0.031 0 0.046 0h-0.024l0.024 0.024 0.023 0.114-0.023 0.046v-0l-0.046 0.045c0 0.015 0 0.030 0 0.046l-0.091 0.023v0.023l-0.091 0.091v0.023l-0.023 0.024c0.015 0 0.030 0 0.046 0l-0.023 0.045h-0.023v0.023l0.046-0.023v-0.069l0.047-0.068 0.045-0.023h0.023l0.023 0.023v0.023l-0.023 0.023h-0.023l-0.023 0.023h0.023v0.024h-0.045v0.023c0.037-0.014 0.067-0.037 0.090-0.069v0.023l-0.045 0.069 0.045-0.023c-0.027 0.053-0.067 0.1-0.114 0.137h-0.046l0.046 0.023v0.023c-0.023 0-0.046 0-0.069 0 0.015 0 0.030 0 0.046 0l-0.023 0.046 0.023 0.023c0-0.015 0-0.030 0-0.045l0.023-0.023v-0.023l0.024-0.023h0.068l0.068-0.046v0.023l-0.068 0.046v0.045c0.028-0.026 0.051-0.057 0.068-0.092v0.046l-0.114 0.091v0.023h0.091c-0.015 0.016-0.030 0.031-0.046 0.046l0.023 0.023v-0.045c0.058-0.077 0.091-0.177 0.092-0.274 0.033 0.023 0.055 0.053 0.068 0.091-0.009 0.041-0.025 0.079-0.046 0.115l0.046-0.115-0.046-0.137c0.023-0.034 0.053-0.057 0.091-0.069l0.023 0.023v0.023l0.023-0.023c-0.008 0.029-0.023 0.052-0.046 0.069-0.018 0.029-0.026 0.059-0.024 0.091l0.047 0.046-0.076 0.114h0.007v0.018l0.022-0.018v-0.022c0.016 0 0.031 0 0.047 0l-0.023-0.023 0.023-0.045 0.022 0.023-0.023 0.046h0.023l0.023 0.045-0.069 0.046-0.046-0.023v0.023l0.022-0.023 0.047 0.023 0.046-0.023v0.023l0.023-0.023h-0.023l-0.023-0.092c0.041-0.061 0.065-0.133 0.069-0.206h0.023c0 0.015 0 0.030 0 0.045l0.046-0.092v-0.045h0.023v-0.023c0.015-0.016 0.030-0.030 0.046-0.046l-0.046-0.023c0.052-0.021 0.105-0.029 0.16-0.023 0.015 0.016 0.030 0.031 0.046 0.046v0.023h-0.023l-0.023 0.045v-0h-0.023v0.023c-0.035 0.037-0.064 0.073-0.092 0.115v0.045h-0.023l0.023 0.046-0.046 0.045 0.023-0.023h0.046c0.012 0.052 0.035 0.097 0.069 0.137v0.045l-0.023 0.045 0.023 0.046h-0.069c-0.020 0.036-0.036 0.074-0.046 0.114l0.023 0.024v-0.023l0.023-0.045v-0.045c0.015 0 0.031 0 0.046 0l0.023-0.023 0.023 0.023v0.068l0.046 0.023c-0.046 0.011-0.084 0.035-0.114 0.069h-0.024v0.046h-0.046l-0.023 0.023-0.045-0.045h0.022l-0.022 0.023h0.022l0.023 0.023 0.023-0.023h0.046c0.023-0.022 0.046-0.045 0.069-0.069l0.068-0.023 0.023-0.024c-0.015-0.015-0.030-0.030-0.045-0.045v-0.023c0.015-0.015 0.030-0.030 0.045-0.045l-0.023-0.046v0.046l-0.023 0.023v-0.023l-0.023-0.023v-0.046l0.023 0.023h0.023l-0.023-0.023v-0.068l0.091-0.069 0.023 0.069v-0.023l0.046-0.068h-0.023v0.023h-0.023v-0.023c0.015 0 0.030 0 0.046 0-0.007-0.117 0.001-0.231 0.023-0.343l0.024-0.045 0.023 0.023c0-0.016 0-0.031 0-0.046h-0.046c0.016-0.015 0.031-0.030 0.046-0.046l0.022 0.046h0.023c0 0.053 0 0.107 0 0.16l-0.023 0.024v-0.024c-0.050 0.058-0.074 0.131-0.069 0.206h0.024c0 0.030 0 0.061 0 0.091l-0.047 0.046c0 0.053 0 0.107 0 0.16l-0.023-0.023 0.023 0.068h0.023c0-0.023 0-0.045 0-0.068v0.023l0.024 0.023-0.024 0.045v0.046l-0.046 0.023 0.023 0.023c-0.023 0-0.045 0-0.068 0h0.023v-0.020l-0.16 0.020v-0.023l-0.023 0.114c-0.033 0.023-0.056 0.054-0.069 0.092l0.023-0.046c0.029-0.008 0.052-0.023 0.069-0.046l0.023 0.023h0.023l-0.046-0.046v-0.023l0.023-0.023h0.069l-0.023 0.023 0.046-0.023h0.091c0.029-0.026 0.052-0.056 0.069-0.092 0-0.023 0-0.045 0-0.068l-0.023-0.045 0.023-0.115 0.022-0.023 0.069-0.024v0l0.023-0.023 0.024 0.023-0.024 0.024 0.024 0.023-0.046 0.068h-0.023v0h0.023v0.115l-0.023 0.023h-0.023l-0.023 0.023h0.023v-0.023l0.023 0.023 0.023-0.045 0.023 0.023v0l-0.023-0.023 0.023-0.023-0.023-0.045c0.017-0.041 0.040-0.079 0.069-0.115l0.045-0.023v0.023l-0.023 0.023 0.091-0.069h0.023l-0.023 0.092-0.046-0.023-0.023 0.023h0.023l0.023 0.023v0.023l-0.046 0.023v0.023l-0.023 0.045h-0.046v0.023l0.023-0.023h0.045l0.023-0.068 0.046-0.023c0 0.015 0 0.031 0 0.046h0.023c-0.015 0.015-0.031 0.030-0.046 0.045l-0.023-0.023-0.046 0.023v0.045l0.023 0.024-0.023 0.023-0.023 0.069c0.012-0.038 0.035-0.068 0.068-0.091l-0.023-0.046v-0.023h0.023l0.023 0.023h0.023l0.046-0.045v-0.045l0.023-0.046 0.045-0.023-0.023 0.045c0 0.015 0 0.031 0 0.046-0.015 0.042-0.039 0.081-0.068 0.115 0.015-0.016 0.030-0.031 0.046-0.046v0.046l-0.023 0.023v0.023l-0.069 0.023h0.069l0.023-0.046v0.023l0.023 0.046-0.068 0.092 0.023 0.023v-0.023l0.023-0.023h0.023l0.046-0.023h-0.023c0.012-0.046 0.035-0.084 0.069-0.114v0.023l0.045-0.045v-0.024c-0.017 0.023-0.040 0.038-0.068 0.046v-0.023l0.045-0.046 0.023 0.023c0-0.030 0-0.061 0-0.091 0.023 0 0.046 0 0.069 0v-0.023h0.023v-0.023h-0.023l0.023-0.023 0.091-0.023 0.046 0.069c-0.010 0.051-0.034 0.1-0.069 0.137l-0.046-0.069 0.023 0.045v0.024h-0.023v0.023l-0.046 0.023h-0.024l-0.046 0.023v0.068l-0.045 0.092 0.023 0.023v0.045h-0.023l-0.023-0.023 0.045 0.069v0.023l-0.045 0.069h0.045l0.023 0.046-0.023 0.045 0.023-0.023h0.046v0.068l-0.023 0.046-0.045-0.023-0.023 0.045 0.023-0.023 0.092 0.046v-0.023h-0.024l0.024-0.045v-0.070l-0.047-0.068v-0.023l0.047-0.046v-0.045l0.068-0.092h0.023v-0.023l0.023 0.023-0.023 0.045v0.069l-0.023 0.023c0.023 0.031 0.046 0.061 0.068 0.092l-0.068-0.092 0.046-0.023v-0.045l0.022-0.024 0.024 0.024v0.023h-0.024v0l0.024 0.023 0.023-0.023-0.047-0.046c0.009-0.028 0.024-0.051 0.047-0.068l0.023 0.023h0.023l0.023 0.023v0.023l0.023-0.023h0.023l-0.023-0.023h-0.069l-0.023-0.045c0.024-0.032 0.054-0.056 0.091-0.069v-0.023l0.046 0.023h-0.024v0h0.046c-0.018-0.023-0.041-0.038-0.069-0.045h-0.023l0.023 0.045h-0.023c0-0.030 0-0.061 0-0.091l0.046-0.023 0.024-0.046 0.045 0.024h-0.045v0.023l0.045-0.023 0.023 0.045-0.023-0.023 0.023-0.023-0.023-0.024v-0.023l-0.069-0.045v-0.023l0.046-0.023 0.091 0.023 0.024 0.045c0 0.015 0 0.030 0 0.045l0.023-0.023c0 0.069 0 0.138 0 0.206v-0.092h0.023l0.023 0.183c-0.015 0-0.030 0-0.046 0v0.023l-0.023 0.023v0.024h-0.046c-0.061 0.030-0.122 0.061-0.183 0.091v0.023l-0.023 0.023c-0.005 0.040 0.003 0.078 0.023 0.114v0l-0.023-0.114h0.023l0.046-0.046c0.023 0 0.046 0 0.069 0v0.069l-0.046 0.023v0.045l-0.023 0.046v0.023l-0.023 0.046v0.023c-0.015-0.016-0.030-0.030-0.046-0.046l-0.023 0.023v0.092h-0.023v0.023l0.023-0.023 0.023-0.092h0.023l0.023 0.023 0.023-0.023c0-0.023 0-0.045 0-0.068l0.046-0.046v-0.023c0.015-0.031 0.030-0.061 0.045-0.092 0.015 0.016 0.030 0.031 0.046 0.046l-0.023 0.045h-0.023l0.046 0.023v0.023c0-0.046 0-0.092 0-0.137 0.038 0.013 0.068 0.036 0.092 0.069l-0.046 0.068v0.046l-0.024 0.046v0.045c-0.034 0.030-0.057 0.068-0.068 0.115v0.023l-0.023 0.023c0.018 0.029 0.025 0.059 0.023 0.092l-0.045-0.045-0.024 0.023h-0.023l0.023 0.023 0.024-0.045 0.045 0.045-0.069 0.137v0.023h-0.046l-0.023 0.023h-0.046v0.046 0l0.023-0.046 0.023 0.023c0.015-0.015 0.030-0.030 0.046-0.045l-0.046 0.069 0.023 0.023v-0.046l0.023-0.023h0.023l-0.023 0.115c0.015 0.031 0.030 0.061 0.046 0.092v-0.024h0.045c0-0.053 0-0.107 0-0.16l0.023-0.023c0.042-0.079 0.058-0.164 0.046-0.252l0.024-0.023 0.068-0.023 0.046 0.069v0.023l0.023-0.023 0.023 0.045 0.045-0.023c0.003-0.032-0.005-0.063-0.023-0.092l0.023-0.023c0-0.015 0-0.030 0-0.045l0.046-0.069v-0.023c0.052-0.031 0.098-0.069 0.137-0.115h0.023l0.023 0.023 0.024-0.046h0.023l-0.023-0.045 0.023-0.023h0.023v-0.023l0.023-0.046v-0.023h0.023v0.023l0.023-0.023h0.023c0 0.015 0 0.030 0 0.046h-0.023l0.023 0.023c0 0.015 0 0.030 0 0.045 0-0.015 0-0.030 0-0.045l-0.023 0.023c0.008 0.028 0.024 0.051 0.046 0.068l-0.069 0.046h0.023l0.046-0.046c0 0.038 0 0.076 0 0.115l0.023 0.023c0.015 0 0.030 0 0.046 0l-0.023-0.023-0.023 0.023-0.023-0.023v-0.046l0.023-0.046c-0.024-0.059-0.031-0.12-0.023-0.183l0.023-0.023v-0.045l0.023-0.024 0.023-0.068 0.023-0.023-0.023-0.045v0.023c0-0.008 0-0.016 0-0.023l-0.023-0.023h0.011l-0.011-0.023 0.023-0.045v-0.023h0.023l0.023 0.023-0.023 0.045 0.023 0.023-0.023 0.023-0.023 0.114 0.046 0.092c-0.016 0.030-0.031 0.061-0.046 0.092 0 0.015 0 0.030 0 0.045 0.015 0 0.030 0 0.046 0v0.023l-0.023 0.046h0.023v-0.068l-0.023-0.023v-0.023l0.023-0.023 0.046 0.023 0.023-0.023-0.069-0.023 0.024-0.068 0.046 0.045c0 0.015 0 0.030 0 0.046-0.018 0.023-0.041 0.038-0.069 0.046l0.046-0.023v0.023l0.045-0.046v-0.069c-0.023-0.022-0.046-0.045-0.068-0.069 0-0.015 0-0.030 0-0.045l0.023-0.023v0.092l0.023-0.069c0.022 0.018 0.037 0.041 0.045 0.069l-0.023-0.024-0.022 0.024h0.022l-0.022 0.023v0.023l0.022-0.023c0 0.061 0 0.122 0 0.183l-0.045 0.069 0.045-0.046 0.023-0.068-0.023-0.023 0.046-0.023 0.046 0.046v0.045-0.046h0.069l0.023-0.023h0.023c0.023 0.023 0.046 0.045 0.069 0.068h0.046l0.023 0.046h0.024l-0.024-0.046v-0.023l0.024-0.045 0.045-0.023 0.023 0.046h-0.046c0 0.023 0 0.045 0 0.068l0.023 0.023-0.023-0.046 0.023-0.023v0l0.137-0.023c-0.023 0-0.046 0-0.069 0v-0.023c0.035-0.035 0.066-0.073 0.092-0.115l0.046-0.023 0.046 0.045-0.023-0.069 0.046 0.046-0.023-0.046v-0.023h0.020l-0.023-0.023 0.046-0.023 0.046 0.023v-0.023h0.023c0.023 0 0.046 0 0.069 0l0.023 0.045-0.046 0.023v-0.023l-0.047 0.069 0.023 0.137-0.046-0.023v-0.092l-0.023 0.046v0.069c-0.043-0.022-0.089-0.030-0.137-0.023h0.046l0.069 0.045h0.023c-0.030 0-0.061 0-0.091 0l0.046 0.023c-0.025 0.031-0.055 0.054-0.092 0.069h0.046l-0.023 0.045v0.023l-0.046 0.023h-0.046l0.023 0.045-0.023 0.046 0.023 0.045v0.068l0.023 0.024v-0.024h0.046l0.046-0.023c0.033 0.023 0.056 0.054 0.068 0.092v-0.023l0.069-0.092v-0.068h0.024l0.068 0.068v0.045l0.022 0.046-0.023 0.023h0.022l0.023-0.023-0.045-0.069h0.022l0.069 0.092c-0.018 0.047-0.049 0.085-0.091 0.115l0.068-0.023c0.021-0.036 0.028-0.074 0.024-0.115l-0.024-0.023c-0.017-0.037-0.024-0.075-0.023-0.115h0.046l-0.024-0.023h0.024v0.023c0.023-0.018 0.038-0.040 0.046-0.069 0.007 0.063-0 0.124-0.023 0.184h0.022v0.045c0.015-0.015 0.030-0.030 0.046-0.045l-0.068-0.024 0.046-0.023 0.045 0.046c-0.018-0.029-0.025-0.060-0.023-0.092 0.043-0.025 0.081-0.055 0.115-0.092h0.023l0.023 0.024c0-0.016 0-0.031 0-0.046v0.092l-0.068 0.068c0 0.023 0 0.046 0 0.069v0c0.013-0.038 0.036-0.068 0.068-0.092v-0.023h0.024v-0.023c0 0.015 0 0.030 0 0.045h-0.024l0.024 0.023c0.006-0.049 0.021-0.095 0.046-0.137 0.022 0.018 0.037 0.041 0.045 0.069v0.023l0.023 0.023c0.009 0.041 0.025 0.079 0.046 0.115v0.069l-0.047 0.069c-0.023-0.018-0.038-0.041-0.045-0.069l-0.023 0.023-0.023-0.023v0.023h-0.047v-0.046l-0.022 0.046h-0.115l-0.023-0.023 0.023 0.046-0.045 0.068h-0.023l-0.023 0.023-0.047-0.045v0.045h0.024v0.024h-0.024l-0.046 0.045h-0.022v0.023h0.045l0.023 0.023 0.024 0.023 0.069 0.023-0.046 0.046h-0.069v0.023l0.023-0.023 0.047 0.023 0.046-0.023c0-0.023 0-0.046 0-0.069h-0.046l-0.023-0.023v-0.023h0.069c0.017 0.023 0.040 0.038 0.069 0.045h0.069l0.023-0.023h0.023v0.069h-0.023l-0.023 0.045c-0.023 0-0.046 0-0.069 0h0.023l0.023 0.023c-0.043 0.025-0.081 0.055-0.114 0.092-0.037 0.017-0.075 0.025-0.115 0.023l-0.023 0.045c-0.023 0-0.045 0-0.068 0l0.023 0.023 0.023-0.023v0.023h-0.046l-0.023 0.046h-0.047l-0.046 0.023 0.092-0.023 0.023-0.023h0.046l0.045-0.068c0.079 0.006 0.156-0.009 0.229-0.045v0.023l-0.023 0.045-0.046 0.023h-0.045l-0.023 0.023 0.046-0.023h0.023l0.092-0.068v0.045c0.021-0.036 0.036-0.074 0.045-0.115 0.040 0.005 0.078-0.003 0.115-0.023l0.023-0.068 0.023 0.023v0.046l-0.023 0.023-0.023 0.092c-0.023 0-0.045 0-0.068 0v0.023h-0.023v0.069l0.046-0.092 0.023 0.023 0.022-0.023 0.023-0.069 0.046-0.045v0.023l-0.024 0.046 0.024-0.069-0.024-0.046v-0.023h0.024v-0.023h0.023l-0.046-0.024v-0.045l0.046 0.023h0.069l0.091 0.069-0.023 0.023-0.023-0.023c-0.045 0.057-0.083 0.118-0.114 0.183l0.046 0.092-0.023 0.023c0.028-0.008 0.051-0.023 0.068-0.046h-0.023c0-0.030 0-0.061 0-0.091l0.091-0.069 0.046 0.023v0.023l-0.091 0.045 0.023 0.046-0.023 0.023h-0.024l0.046 0.069c0 0.015 0 0.030 0 0.045l0.046 0.046c0.060-0.031 0.106-0.078 0.137-0.137l0.045 0.046v0.045c-0.038 0.048-0.084 0.086-0.137 0.115h-0.023l-0.046 0.045h-0.023l0.023 0.023 0.023-0.023c0.015 0 0.030 0 0.046 0 0 0.023 0 0.046 0 0.069l0.023 0.023v-0.023l-0.023-0.046 0.092-0.045v0.045l0.023-0.023v0.023l0.022 0.024c0-0.031 0-0.061 0-0.092h0.023l0.024 0.023 0.046 0.137c0.015 0.015 0.030 0.030 0.045 0.046v0.092l-0.045-0.023v-0.046l-0.023 0.024-0.023-0.024-0.024 0.024v0.023l0.024-0.023c0.025 0.029 0.056 0.052 0.091 0.068l-0.023 0.045 0.023-0.023h0.023v0.069l-0.046 0.023 0.046 0.045h0.023l0.024-0.023c0.002 0.032-0.005 0.063-0.024 0.092l-0.068 0.023-0.023 0.023c0 0.099 0 0.198 0 0.297l0.045-0.023 0.069 0.023c0.034 0.035 0.071 0.066 0.113 0.092l0.023 0.045h-0.023l-0.023 0.045 0.023-0.023c0.015 0 0.031 0 0.047 0l0.046 0.068 0.045 0.023-0.045 0.023v0.023h-0.023v-0.023c0 0.015 0 0.030 0 0.046l0.046-0.023v-0.023l0.022 0.023c-0.008 0.066 0.007 0.127 0.047 0.183l-0.024-0.023-0.023 0.046 0.023-0.023h0.046l0.069 0.16-0.023 0.023 0.023 0.023c-0.023 0.023-0.046 0.046-0.069 0.069l-0.023-0.023-0.069 0.023h0.069l0.046 0.045v0.023c-0.018 0.041-0.041 0.079-0.069 0.115l-0.045 0.023v-0.023c-0.015 0-0.030 0-0.046 0l0.137 0.16h0.023l0.137 0.16c0.040-0.024 0.074-0.045 0.114-0.068 0.077 0.006 0.153-0.001 0.228-0.023l0.023-0.023c0.096-0.025 0.188-0.064 0.274-0.115l-0.023-0.023h0.046v-0.023l0.069-0.024 0.023-0.023 0.023 0.023v-0.023l0.023 0.023h-0.023l0.023 0.024 0.023-0.024v0.024l0.023-0.024-0.023-0.023h-0.046v-0.023c0.077-0.005 0.154 0.003 0.229 0.023v-0.023l0.023-0.023v0.023l-0.023 0.023c0.017 0.045 0.025 0.091 0.023 0.137h-0.023l-0.024-0.023v0.023h-0.023c-0.008-0.028-0.023-0.051-0.046-0.068l0.023 0.023v0.023h-0.046v-0.023l-0.023 0.023-0.024-0.023v0.023h0.046l-0.023 0.023-0.092 0.023c-0.018 0.022-0.040 0.038-0.068 0.046h0.023l0.046-0.023v-0.023l0.046 0.023h0.022c0.023 0.018 0.038 0.041 0.046 0.069l0.023-0.069c0.085-0.003 0.169 0.005 0.252 0.023l0.068 0.045c-0.017 0.127-0.063 0.241-0.137 0.343l0.069-0.023c0.157-0.315 0.372-0.585 0.64-0.8h0.023v0.023h0.023c0.031 0.023 0.061 0.045 0.092 0.068l-0.046-0.045 0.114-0.252c0.129-0.034 0.236-0.101 0.32-0.206l0.069-0.023c0.057 0.024 0.111 0.054 0.16 0.091 0.048 0.149 0.117 0.286 0.205 0.412l0.047 0.023 0.023-0.045c0.051-0.034 0.105-0.064 0.16-0.092 0.074 0.006 0.138-0.002 0.205-0.023v0.023c0.684 0.154 1.356 0.428 1.967 0.801h0.114l-0.046 0.023c0.023 0 0.046 0 0.069 0l0.024-0.023-0.024-0.046-0.023 0.024v-0.024l0.023-0.023 0.046 0.092c0 0.015 0 0.030 0 0.046l0.046 0.023h0.091l0.023 0.092-0.023 0.023-0.024 0.069 0.047 0.023-0.023-0.023 0.046-0.069-0.023-0.115-0.047-0.045-0.045 0.023-0.023-0.023v-0.023h0.045v-0.023h-0.023l-0.023-0.023-0.046 0.023-0.023-0.023 0.023-0.024c0.032-0.003 0.062 0.005 0.091 0.024 0.136 0.175 0.294 0.318 0.481 0.434h0.068v0.023l0.137-0.023c0.025 0.042 0.056 0.080 0.091 0.114l-0.023-0.068c0.126 0.034 0.255 0.056 0.389 0.068 0.066-0.014 0.119-0.044 0.16-0.091h0.023l0.045 0.023c0.046 0 0.091 0 0.137 0l0.092-0.092c0.015 0 0.030 0 0.046 0v0.069l0.023 0.045v-0.023h-0.023l0.023-0.023c0.185 0.026 0.365 0.025 0.549 0v0.023h-0.023v0.023c0.042 0.067 0.080 0.135 0.115 0.206 0.015-0.030 0.030-0.061 0.045-0.091l-0.023-0.046 0.046-0.023c0.202 0.027 0.412 0.035 0.618 0.023v0.024l-0.023-0.024 0.046 0.069c-0.038 0.038-0.076 0.076-0.114 0.115v0.114l0.023 0.046v0.023l-0.069 0.023c0.006 0.055-0.002 0.108-0.023 0.16 0.065 0.089 0.139 0.164 0.229 0.229l0.023 0.068-0.069 0.069c0.002 0.047-0.006 0.092-0.023 0.137-0.051 0.022-0.097 0.053-0.138 0.091-0.022 0.051-0.052 0.096-0.091 0.137-0.042 0.016-0.082 0.039-0.115 0.068 0 0.031 0 0.061 0 0.092l-0.046 0.046c0 0.046 0 0.091 0 0.137h-0.023l-0.047-0.023h-0.023c-0.026 0.041-0.042 0.090-0.045 0.137h-0.023l-0.047 0.069-0.046 0.023c-0.079-0.008-0.159 0.008-0.228 0.045h-0.115c-0.023 0.023-0.046 0.045-0.069 0.068v0.046c0.038 0 0.076 0 0.115 0 0 0.023 0 0.045 0 0.068h-0.045c-0.023 0.018-0.038 0.041-0.046 0.069 0 0.023 0 0.045 0 0.068l-0.046 0.023-0.046 0.092-0.115 0.023v0.023l-0.046 0.023 0.023 0.069-0.023 0.046v-0.023l-0.023 0.023-0.115-0.023c-0.055 0.018-0.108 0.041-0.16 0.068h-0.023c-0.047-0.011-0.085-0.034-0.114-0.068l-0.092 0.068c-0.040 0.005-0.078-0.003-0.113-0.023v0.046l-0.024 0.045-0.046 0.023-0.023-0.023v-0.045c-0.015 0-0.030 0-0.046 0l-0.046 0.068-0.046 0.023c-0.015 0-0.030 0-0.046 0l-0.046-0.045v-0.069h-0.023l-0.023-0.023-0.023 0.046v0.068l-0.069 0.045-0.023 0.046c0 0.023 0 0.045 0 0.068-0.064 0.1-0.147 0.176-0.251 0.229-0.018 0.028-0.026 0.059-0.024 0.091l-0.023 0.046h-0.044c-0.057 0.066-0.111 0.135-0.16 0.206 0 0.015 0 0.030 0 0.045l0.046 0.092v0.045c-0.008 0.028-0.023 0.052-0.046 0.069 0.010 0.040 0.025 0.078 0.046 0.114-0.081 0.077-0.14 0.165-0.183 0.275 0 0.046 0 0.091 0 0.137-0.059 0.064-0.128 0.118-0.205 0.16-0.016 0.046-0.031 0.091-0.047 0.137h-0.023l-0.023-0.023h-0.046l-0.046 0.137-0.023 0.023c-0.037 0.065-0.053 0.134-0.045 0.206l-0.046 0.046-0.069 0.023c-0.022 0.018-0.037 0.040-0.046 0.068l0.069 0.046v0.023h-0.137c-0.182 0.127-0.245 0.298-0.183 0.503l0.069 0.115c0 0.061 0 0.122 0 0.183h0.046l0.046-0.023h0.023v0.023c0.070 0.034 0.131 0.080 0.183 0.137l-0.024 0.092 0.024 0.045 0.068 0.045c0 0.023 0 0.046 0 0.069h-0.023v0.069l-0.046 0.069c0.017 0.037 0.025 0.075 0.023 0.115-0.045 0.101-0.107 0.194-0.183 0.274v0.023c-0.054 0.020-0.095 0.060-0.114 0.115 0.020 0.053 0.059 0.092 0.114 0.115v0.045c-0.018 0.048-0.048 0.086-0.092 0.115-0.007 0.048 0 0.094 0.023 0.137h0.023l0.115 0.115c0.025 0.058 0.033 0.12 0.023 0.183l0.092 0.092v0.023l0.046 0.046c-0.014 0.157 0.002 0.306 0.045 0.457h0.023c0.068 0.138 0.108 0.3 0.114 0.457l-0.091 0.115c0.058 0.127 0.059 0.26 0 0.389-0.046 0.023-0.091 0.045-0.137 0.068v0.045c-0.042 0.025-0.088 0.040-0.137 0.046l-0.023 0.023-0.023 0.091-0.046 0.046-0.091 0.023-0.024 0.023c-0.017 0.037-0.024 0.075-0.023 0.115l-0.068 0.069-0.023 0.137-0.069 0.046c-0.009 0.040-0.025 0.078-0.045 0.115-0.054-0.003-0.108 0.005-0.16 0.023-0.008 0.028-0.023 0.052-0.046 0.069v0.045c0.016 0.015 0.031 0.030 0.046 0.046 0.002 0.046-0.006 0.092-0.023 0.137 0.034 0.066 0.049 0.135 0.045 0.206h-0.068v0.023l-0.024 0.046c0.002 0.058 0.017 0.111 0.047 0.16l-0.023 0.069 0.068 0.137-0.068 0.114v0.046l0.023 0.023c0.019 0.045 0.026 0.090 0.023 0.137 0.038 0.038 0.076 0.076 0.115 0.115 0 0.030 0 0.060 0 0.091l-0.023 0.023v0.024c-0.028 0.008-0.051 0.023-0.069 0.046v0.023l0.069 0.069 0.023 0.092 0.046 0.046h0.092c0.030 0.015 0.060 0.031 0.091 0.046-0.001 0.054 0.006 0.107 0.023 0.16 0.023 0.023 0.046 0.046 0.069 0.069h0.068l0.069 0.091c0.051 0.021 0.107 0.037 0.16 0.046v0.023c0.008 0.028 0.023 0.051 0.046 0.069v0.046l0.023 0.046c-0.011 0.055-0.026 0.108-0.045 0.16l0.023 0.024 0.045-0.024 0.023 0.024v0.023c-0.030 0.030-0.061 0.060-0.091 0.091v0.069l-0.069 0.115v0.023l0.046 0.069-0.023 0.069 0.023 0.068c-0.028 0.008-0.051 0.023-0.069 0.045v0.024l0.046 0.023-0.046 0.091c0 0.038 0 0.076 0 0.115l-0.069 0.092c0.004 0.141-0.042 0.264-0.137 0.365l-0.114 0.046-0.023 0.092-0.046 0.046c-0.052 0.013-0.106 0.020-0.16 0.023l-0.046-0.045h-0.068c-0.041 0.055-0.094 0.093-0.16 0.115-0.023 0-0.046 0-0.069 0-0.101-0.074-0.223-0.089-0.343-0.046l-0.023 0.046c-0.087 0.072-0.19 0.087-0.298 0.045l-0.046 0.092-0.091-0.023v0.068h-0.023l-0.047 0.023c-0.040 0.005-0.078-0.003-0.114-0.023l-0.046 0.023v0.024l-0.091-0.046c-0.035-0.097-0.106-0.157-0.206-0.183-0.017-0.029-0.025-0.060-0.023-0.092l-0.023-0.023c-0.015 0-0.030 0-0.046 0v0.023c-0.015 0-0.030 0-0.046 0l-0.046-0.046-0.068-0.023-0.069-0.069c-0.040-0.010-0.078-0.025-0.113-0.046l-0.092 0.023-0.023-0.023v-0.023h-0.023l-0.046 0.023c-0.038 0-0.076 0-0.114 0l-0.046 0.046-0.068-0.046c-0.032 0.024-0.055 0.055-0.069 0.092l-0.114 0.023-0.092 0.069-0.114-0.023c-0.023 0.017-0.038 0.041-0.046 0.069h-0.023l-0.046-0.024v-0.045l-0.046-0.023h-0.046l-0.046 0.046-0.16 0.023-0.023 0.024h-0.046l-0.023 0.046v0.092l-0.023 0.045h-0.024l-0.046-0.069c-0.030 0-0.060 0-0.091 0 0 0.015 0 0.031 0 0.046l0.068 0.091-0.023 0.046c-0.015 0-0.030 0-0.046 0v-0.069h-0.024l-0.023 0.023-0.023 0.069-0.091 0.046-0.046 0.069c0 0.038 0 0.076 0 0.114h-0.046l-0.045 0.023v0.092l-0.115 0.137c-0.030 0-0.061 0-0.091 0v0.069c-0.015 0.030-0.030 0.061-0.046 0.091 0.018 0.029 0.026 0.059 0.023 0.092-0.051 0.043-0.089 0.097-0.115 0.16h-0.023l-0.069-0.046c-0.080 0.032-0.147 0.053-0.229 0.069-0.038 0.038-0.077 0.076-0.115 0.114-0.066 0.010-0.127 0.032-0.183 0.068v0.023h-0.045l-0.046 0.046-0.024 0.091c-0.046-0.002-0.092 0.006-0.137 0.023l-0.023 0.069c-0.026 0.029-0.056 0.052-0.091 0.069v0.021l-0.069 0.114-0.069 0.023c-0.017 0.023-0.040 0.039-0.069 0.046h-0.020l-0.022 0.091-0.023 0.024-0.023 0.114c-0.031 0-0.061 0-0.092 0l-0.046-0.023-0.046-0.091-0.137 0.045-0.023-0.023-0.091-0.023-0.023 0.045c-0.047 0.011-0.085 0.034-0.115 0.069v0.023c-0.022 0.018-0.037 0.041-0.046 0.069l-0.046 0.023-0.046-0.023c-0.037 0.059-0.077 0.123-0.115 0.183l-0.022-0.023c-0.041 0.010-0.079 0.025-0.115 0.045-0.023 0-0.045 0-0.068 0l-0.046 0.046h-0.046l-0.091 0.069-0.046-0.023c-0.032 0.003-0.062-0.005-0.091-0.023l-0.137 0.046-0.023 0.023h-0.046l-0.023-0.023-0.068 0.045-0.024 0.069-0.068 0.023-0.045 0.046h-0.023v-0.023l-0.047-0.023h-0.023c-0.023 0.023-0.046 0.045-0.068 0.068l-0.069-0.023-0.046 0.023c-0.031 0-0.061 0-0.092 0l-0.046 0.024c-0.023 0.057-0.061 0.102-0.115 0.137l-0.046-0.023h-0.023l-0.023 0.046v0.046l-0.024 0.023h-0.022v0.023l-0.023 0.023h-0.046l-0.023 0.024 0.023 0.045h-0.023l-0.046-0.023h-0.023v0.023l0.047 0.023-0.047 0.023h-0.023c0 0.023 0 0.046 0 0.069l-0.045 0.023-0.023 0.046 0.023 0.045v0.023h-0.023v-0.023l-0.024 0.023 0.024 0.046-0.024 0.046 0.024 0.023-0.024 0.023-0.023-0.023v0.046l-0.045 0.023 0.023 0.068-0.023 0.046-0.046 0.023v0.046l-0.023 0.023h-0.023l0.023 0.045 0.046 0.024v0.023l-0.069 0.023 0.069 0.046v0.023l-0.046 0.024h-0.023c0 0.023 0 0.045 0 0.068-0.015 0.015-0.030 0.030-0.046 0.046l0.023 0.023v0.024c-0.029 0.026-0.052 0.056-0.068 0.091l0.068 0.046v0.023c-0.015 0-0.030 0-0.046 0l-0.046 0.046 0.046 0.069-0.023 0.024v0.068l-0.044 0.089 0.024 0.046c-0.016 0.030-0.031 0.061-0.046 0.091l0.023 0.069-0.023 0.046h-0.046c-0.008 0.028-0.023 0.051-0.045 0.069l0.022 0.045-0.183 0.16v0.137l-0.046 0.046v0.069l-0.046 0.045c0 0.031 0 0.061 0 0.092l-0.046 0.023 0.023 0.046-0.023 0.023h-0.023l-0.046 0.024 0.023 0.023-0.046 0.023c0 0.023 0 0.046 0 0.068-0.007 0.029-0.023 0.052-0.046 0.069l0.023 0.091-0.023 0.069 0.023 0.023c-0.017 0.036-0.040 0.066-0.069 0.091l0.024 0.046-0.024 0.023v0.045c-0.033 0.037-0.071 0.067-0.114 0.092v0.022l0.091 0.046-0.046 0.046-0.069-0.023v0.023h-0.024c-0.020 0.036-0.035 0.074-0.045 0.114l0.023 0.023c-0.052 0.047-0.082 0.108-0.091 0.183h-0.046l-0.046 0.023 0.023 0.045h-0.044l-0.045 0.024-0.024 0.091-0.046-0.023-0.068 0.068h-0.023v0.024l-0.024 0.045-0.045 0.023-0.023 0.046c0.018 0.022 0.040 0.038 0.068 0.046v0.023l-0.022 0.023h-0.023c-0.023 0.030-0.046 0.060-0.068 0.091l0.023 0.023-0.046 0.023c0 0.038 0 0.076 0 0.115l-0.046 0.045c0.026 0.041 0.043 0.090 0.046 0.137l0.046 0.046 0.023 0.069 0.068 0.046v0.046l0.024 0.046-0.024 0.045c0.016 0.015 0.031 0.030 0.047 0.046 0 0.023 0 0.046 0 0.069h0.023v0.045h-0.023c0 0.046 0 0.091 0 0.137l0.023 0.023 0.023 0.069c0.023 0.023 0.046 0.046 0.069 0.069l-0.023 0.023h-0.023c0.022 0.043 0.029 0.089 0.023 0.138h0.023c-0.020 0.036-0.028 0.074-0.023 0.114l0.023 0.046v0.046h-0.046v0.024l0.023 0.045v0.023h0.023v0.046h0.024l-0.024 0.046 0.024 0.023 0.022-0.023c0.018 0.022 0.041 0.037 0.068 0.046h0.046c0.062 0.062 0.115 0.13 0.161 0.206 0 0.023 0 0.046 0 0.069h0.023l-0.023 0.023h0.023v0.023l0.023 0.023-0.023 0.023h0.022l-0.023 0.024 0.023 0.046-0.046 0.023v0.023l-0.046 0.023c-0.018 0.029-0.025 0.059-0.023 0.092l-0.046 0.023 0.023 0.046-0.046 0.046v0.045l0.023 0.046-0.023 0.023c0.031 0.025 0.054 0.055 0.069 0.092v0.023h-0.023c0.003 0.032-0.005 0.063-0.023 0.092l0.023 0.091-0.046 0.069 0.046 0.022-0.023 0.023 0.023 0.023v0.024l0.023 0.046-0.023 0.023 0.023 0.045c0.004 0.040-0.004 0.078-0.023 0.115-0.028 0.008-0.051 0.024-0.069 0.046-0.007 0.045-0.015 0.092-0.023 0.137l-0.046 0.069v0.023l0.023 0.023c0 0.038 0 0.076 0 0.114 0.015 0.015 0.031 0.030 0.046 0.046l0.024 0.069-0.024 0.046c-0.013 0.044-0.021 0.090-0.023 0.137l-0.046 0.046c-0.013 0.051-0.020 0.106-0.023 0.16h-0.023l0.046 0.047-0.046 0.136c-0.033 0.046-0.058 0.103-0.069 0.16l-0.046 0.023v0.023l-0.023 0.023-0.023 0.069c-0.023 0-0.046 0-0.069 0v0.046l-0.023 0.046 0.023 0.137-0.091-0.046-0.069 0.023-0.023 0.019-0.045-0.069-0.024-0.206-0.023-0.023h-0.023c-0.075 0.035-0.143 0.080-0.205 0.138-0.078-0.032-0.154-0.032-0.229 0-0.036-0.070-0.091-0.126-0.16-0.16-0.096 0.032-0.197 0.048-0.297 0.046l-0.046-0.023-0.045 0.046c-0.040-0.035-0.086-0.058-0.138-0.069-0.012-0.121-0.065-0.22-0.16-0.297-0.032 0.003-0.063-0.005-0.091-0.023l-0.023-0.069-0.023-0.023v-0.115l-0.069-0.091 0.023-0.046-0.023-0.091 0.046-0.046-0.046-0.046v-0.068l0.023-0.023v-0.069l-0.068-0.023v-0.023l0.045-0.023-0.045-0.046h-0.023l0.023-0.068c-0.033-0.024-0.056-0.054-0.069-0.092l-0.091 0.046c-0.048 0.007-0.094-0-0.137-0.024-0.003-0.032 0.005-0.062 0.023-0.091l0.023-0.023-0.023-0.046-0.068-0.045c-0.053 0-0.107 0-0.16 0v-0.023l-0.024-0.023c0.004-0.047-0.004-0.093-0.023-0.137l0.137-0.092 0.023-0.045v-0.092l0.047-0.068v-0.069c0.066-0.030 0.126-0.068 0.183-0.113v-0.024l-0.069-0.023v-0.023l-0.046-0.068v-0.023l0.046-0.046v-0.046l-0.046-0.023-0.068 0.023-0.024-0.046-0.046-0.024h-0.045c-0.023-0.023-0.046-0.046-0.069-0.068v-0.045c0.008-0.028 0.024-0.051 0.047-0.069l-0.069-0.023-0.046-0.046c-0.060 0.019-0.118 0.026-0.183 0.023-0.028 0.008-0.051 0.023-0.069 0.046v0.023l-0.068-0.023c-0.003-0.032 0.005-0.062 0.023-0.091-0.060-0.078-0.121-0.153-0.183-0.229v-0.045c-0.032-0.002-0.063 0.005-0.091 0.023l-0.023-0.045c0-0.016 0-0.031 0-0.046l0.046-0.023v-0.023c0.015-0.016 0.030-0.031 0.046-0.046l-0.046-0.069c0.015-0.030 0.030-0.061 0.046-0.091l-0.023-0.046v-0.023l-0.046 0.023-0.046-0.023c-0.003-0.032 0.005-0.063 0.023-0.091-0.008-0.028-0.023-0.051-0.046-0.069-0.037-0.017-0.075-0.025-0.115-0.023 0-0.023 0-0.046 0-0.069-0.015 0.016-0.030 0.031-0.046 0.046-0.023 0-0.046 0-0.069 0l-0.023-0.046h0.023l-0.023-0.045 0.023-0.023-0.023-0.023h0.023l-0.023-0.023c0.015 0 0.030 0 0.046 0l0.023-0.023-0.023-0.046c-0.066-0.008-0.126 0.007-0.183 0.046l-0.046-0.024h-0.046v0.024c-0.015 0-0.030 0-0.046 0l0.023-0.046-0.046 0.023-0.045-0.023h-0.047v0.023l-0.068-0.045v-0.023h0.046l-0.023-0.023h0.023c0-0.016 0-0.031 0-0.046l0.046-0.023v-0.023h-0.024v-0.023l-0.023 0.023-0.046-0.023 0.023-0.023h0.069v-0.023l0.023-0.046h0.045v-0.023l0.023-0.023v-0.023l-0.023-0.045 0.023-0.024h0.023l0.047-0.023v-0.023l0.045-0.023v-0.023l0.046-0.023-0.023-0.046h-0.023l-0.023-0.023v-0.023l-0.023-0.046 0.045-0.023c0.015 0 0.030 0 0.046 0l0.023 0.023c0.023-0.023 0.046-0.046 0.069-0.069h0.068l0.023-0.023-0.023-0.023v-0.023h0.023l0.024-0.023-0.024-0.024 0.024-0.023v-0.069l0.023-0.023-0.023-0.069h-0.024v-0.023h-0.023v-0.046l-0.023-0.023-0.023-0.069c0.023 0 0.045 0 0.068 0v-0.068l0.047-0.046h0.023l0.023-0.023c-0.008-0.028-0.023-0.050-0.045-0.068l0.023-0.023h-0.046l0.023-0.023h-0.023l-0.046-0.023 0.023-0.023-0.023-0.023 0.023-0.023v-0.023h0.024v-0.023h0.023l-0.023-0.024h0.023v-0.023l-0.023-0.023-0.024 0.023v-0.045l0.024 0.022h0.023c0-0.022 0-0.045 0-0.068l0.023 0.023v-0.023h0.023v-0.023l0.023 0.023v-0.023h0.023l-0.023-0.024h0.023v-0.023l0.023 0.023 0.024-0.023v-0.023l0.023-0.023v-0.023h0.023l-0.023-0.023 0.023-0.023-0.023-0.023 0.023-0.023-0.023-0.023h0.023l-0.023-0.046v-0.046h0.046v-0.023l0.023-0.023 0.023 0.045c0.031-0.030 0.061-0.060 0.091-0.091l-0.023-0.023 0.023-0.047c0.004-0.040-0.004-0.077-0.023-0.113l0.023 0.023 0.046-0.023-0.023-0.046h0.023c0-0.015 0-0.030 0-0.046 0.052 0.022 0.105 0.029 0.16 0.023l0.023 0.023c0.024-0.040 0.045-0.075 0.069-0.114 0.087-0.031 0.171-0.070 0.252-0.115l0.090 0.046h0.047l0.046-0.023h0.068c0.076-0.041 0.14-0.106 0.183-0.183l-0.024-0.114 0.024-0.069c0.023-0.023 0.046-0.046 0.069-0.068-0.023-0.034-0.054-0.056-0.092-0.069 0.019-0.090 0.043-0.187 0.069-0.275l0.023-0.046h0.045l0.024-0.023v-0.041l-0.046-0.045c0-0.054 0-0.107 0-0.16l-0.023-0.023v-0.023l-0.023-0.046c-0.069-0.058-0.145-0.104-0.229-0.137 0-0.023 0-0.045 0-0.068-0.028-0.009-0.051-0.024-0.068-0.046h-0.046v-0.023l-0.047-0.023h-0.068l-0.046 0.046h-0.024l-0.046-0.023h-0.023l-0.023 0.045c-0.023 0-0.046 0-0.069 0l-0.046-0.023-0.023 0.023h-0.023l-0.023 0.024c-0.015 0-0.030 0-0.046 0l-0.023 0.023-0.023-0.023-0.023 0.068h-0.023v-0.023c-0.016 0.015-0.031 0.030-0.046 0.045v0.023l-0.023-0.023v0.023h-0.022l-0.023-0.023-0.023 0.023c-0.029 0.018-0.059 0.025-0.091 0.023v0.024h-0.023l-0.023-0.046c-0.015 0.016-0.031 0.031-0.046 0.046l-0.023-0.024v-0.023l-0.045 0.023v0.046h-0.023l-0.023 0.045h-0.023l-0.024-0.023h-0.023c0 0.015 0 0.030 0 0.046-0.023 0-0.045 0-0.068 0l-0.022 0.046h-0.024c0 0.023 0 0.046 0 0.069l-0.045 0.023 0.023 0.023-0.069 0.023v0.024l-0.023-0.024-0.023 0.069h-0.024v-0.023c-0.023 0-0.046 0-0.069 0v-0.023h-0.068v-0.024l-0.046-0.023 0.023-0.023-0.046-0.023v-0.069l-0.068-0.069h-0.091l0.046-0.023-0.046-0.046h0.023c0-0.015 0-0.031 0-0.046l-0.023 0.023-0.023-0.023 0.023-0.068-0.023 0.023-0.023-0.068h-0.024l-0.046 0.023c0-0.038 0-0.077 0-0.115h-0.046v-0.023c-0.023-0.023-0.046-0.046-0.069-0.069 0-0.015 0-0.030 0-0.046h-0.023v-0.046l-0.046 0.023v-0.023h-0.023v-0.023h-0.046c-0.015-0.016-0.031-0.031-0.046-0.046v-0.023c-0.015 0-0.030 0-0.045 0v-0.023l0.045-0.023h-0.045l0.023-0.023c-0.020-0.037-0.036-0.075-0.046-0.115l0.023-0.023c-0.015 0-0.030 0-0.046 0l-0.024 0.023 0.024-0.046v-0.023h-0.047c0-0.015 0-0.030 0-0.045l-0.023 0.023-0.046-0.023-0.022 0.023-0.023-0.023h-0.024v-0.046l0.024-0.023-0.024-0.024v-0.023l0.024 0.023h0.023v-0.046l-0.115-0.023c0-0.015 0-0.030 0-0.045l-0.023-0.023c0.023 0 0.045 0 0.068 0l0.023-0.024c-0.030-0.040-0.069-0.071-0.114-0.091l-0.024-0.046c-0.023 0-0.045 0-0.068 0v0.023l0.023 0.046h0.045v0.023l-0.045 0.046-0.046-0.023-0.023-0.045v-0.023l0.023-0.046v-0.069l-0.069-0.045 0.024-0.046-0.024-0.023h-0.023l-0.046-0.023c-0.015 0-0.030 0-0.045 0v-0.023c0.015-0.015 0.030-0.030 0.045-0.045v-0.024c-0.015-0.015-0.030-0.030-0.045-0.046h-0.092l-0.023 0.046h-0.023l-0.023-0.023v-0.114l-0.046-0.046c-0.018-0.052-0.026-0.106-0.023-0.16-0.073-0.008-0.143 0.007-0.206 0.045l-0.091-0.023 0.045-0.091c0.073-0.038 0.15-0.069 0.229-0.092v-0.023l0.091-0.046 0.023-0.115c-0.023-0.046-0.045-0.091-0.069-0.137-0.061-0.029-0.115-0.067-0.16-0.115h-0.16l-0.046 0.023-0.069 0.114c-0.030 0-0.061 0-0.091 0-0.054-0.165-0.162-0.278-0.32-0.343 0-0.046 0-0.091 0-0.137 0.054-0.021 0.099-0.051 0.137-0.092 0.057-0.002 0.113 0.014 0.161 0.046l0.046-0.024c0.055-0.049 0.086-0.11 0.090-0.183 0.088-0.090 0.172-0.182 0.252-0.275 0.004-0.048 0.020-0.096 0.046-0.137v-0.091c0.031-0.061 0.061-0.122 0.092-0.183-0.026-0.067-0.050-0.14-0.068-0.206h-0.024c0.012-0.098 0.053-0.196 0.115-0.274 0-0.069 0-0.137 0-0.206l0.023-0.023-0.023-0.069c0.030-0.073 0.068-0.142 0.114-0.205 0-0.061 0-0.122 0-0.183l0.023-0.023v-0.046l0.091-0.137h0.023l0.023-0.045-0.069-0.183 0.023-0.023c0.030-0.105 0.053-0.213 0.068-0.32l0.092-0.184c-0.048-0.219-0.109-0.441-0.183-0.663 0.045-0.12 0.029-0.24-0.046-0.343 0.070-0.137 0.093-0.282 0.069-0.435l-0.023-0.023c-0.036-0.167-0.106-0.322-0.206-0.458 0.088-0.232 0.088-0.476 0-0.709l-0.206-0.206h-0.023l-0.046 0.023c-0.187-0.097-0.367-0.202-0.548-0.321-0.1 0.010-0.196 0.017-0.297 0.023-0.052-0.048-0.098-0.101-0.137-0.16 0.015-0.096-0-0.189-0.046-0.274-0.136-0.066-0.282-0.097-0.435-0.092l-0.114 0.115-0.115 0.023c-0.149-0.012-0.294-0.043-0.435-0.092l-0.046-0.045h-0.023c-0.072-0.031-0.141-0.070-0.206-0.115h-0.091c-0.046-0.049-0.1-0.087-0.16-0.115l-0.344 0.046-0.069 0.045-0.114-0.023c-0.061 0.029-0.107 0.075-0.137 0.137 0.004 0.15-0.050 0.285-0.16 0.388l-0.068-0.023-0.024-0.045c-0.042-0.025-0.087-0.040-0.137-0.045-0.028 0.008-0.051 0.023-0.069 0.045l-0.023 0.092-0.022 0.023-0.069-0.023-0.023 0.023-0.042-0.019zM14.159 0.389v0zM15.92 1.304v-0.023l-0.023-0.046-0.023 0.046 0.023-0.023v0.045h0.023zM16.743 1.053c0-0.023 0-0.046 0-0.069l0.024-0.023c0 0.015 0 0.030 0 0.045l-0.024 0.023h0.024l0.046 0.16-0.023 0.023c-0.012-0.052-0.020-0.106-0.023-0.16h-0.024v0zM16.766 1.029h-0.024v0.024l0.024-0.024zM14.73 0.778h0.023l-0.023-0.024v0.024zM14.753 0.778c-0.008 0.028-0.024 0.051-0.046 0.068 0 0.023 0 0.046 0 0.069h0.023l-0.023-0.069c0.028-0.008 0.051-0.023 0.068-0.045l-0.023-0.023zM17.772 2.196h0.023v0.016l0.023-0.016 0.023 0.046-0.046 0.023-0.045-0.023 0.034-0.024h-0.011v-0.023zM17.75 1.898h-0.023l0.023-0.023v0.023zM14.159 0.755l-0.046 0.024-0.023 0.045 0.023 0.045h0.046v0.046l0.023 0.023 0.022-0.023 0.024 0.045c0 0.023 0 0.045 0 0.068v-0.023l0.023-0.045-0.047-0.045-0.022 0.023-0.023-0.023v-0.046c-0.018-0.022-0.041-0.037-0.069-0.045 0.025-0.026 0.053-0.050 0.084-0.069h-0.015zM18.756 3.774v0 0zM17.315 1.029v-0.023l-0.023-0.023h-0.046l-0.023-0.023v0.023l0.068 0.023-0.092 0.046h-0.023c0-0.016 0-0.031 0-0.046v0.046c0.037-0.008 0.077-0.016 0.114-0.024-0.033 0.037-0.071 0.067-0.114 0.092v0.023c-0.023 0-0.046 0-0.069 0v-0.023 0.068l-0.045 0.046h-0.024v-0.023l-0.023 0.045h-0.046l-0.091-0.069-0.023-0.114 0.046-0.046h-0.046l-0.023-0.023 0.023-0.045 0.046-0.023c0.015 0.015 0.030 0.030 0.046 0.045l0.068 0.023v-0.023l0.023-0.023 0.069 0.068v-0.023l-0.069-0.045 0.024-0.023h-0.047l0.023-0.046-0.046 0.023-0.023-0.023c0.017-0.035 0.040-0.066 0.069-0.091h0.046l0.023 0.023h0.045l0.023 0.045v0.023h0.023l-0.023-0.045v-0.046c0.081-0.004 0.161 0.020 0.229 0.068 0.019 0.037 0.026 0.074 0.023 0.115l0.023 0.023-0.068 0.023-0.046 0.046 0.023-0.115-0.023 0.045v0.023h-0.023zM17.657 1.808l0.024-0.024v0.024h-0.024zM14.021 0.732v-0.023h0.023v0.023h-0.023zM18.207 2.562v-0.023h0.023l0.023-0.023v0.023h-0.023v0.023h-0.023zM14.776 0.869l-0.023 0.046h0.023c0-0.015 0-0.031 0-0.046v0zM15.005 0.778c0.015-0.016 0.030-0.031 0.045-0.046l-0.023 0.023h0.023l-0.023 0.024h-0.023zM17.497 1.784h0.024l-0.024-0.068c0.026-0.028 0.057-0.051 0.092-0.068 0.017-0.029 0.025-0.060 0.022-0.092l0.069-0.045h0.046l-0.046-0.046v-0.023l0.069-0.023 0.045 0.046v0.16l-0.023 0.023h-0.068l-0.047 0.023h-0.023v0.023h0.023l-0.023 0.023v0.023c-0.008 0.028-0.024 0.051-0.045 0.069l-0.068-0.024 0.023 0.024v0.023c-0.015-0.016-0.030-0.031-0.046-0.046v0zM20.242 4.734v-0.045h0.023l0.023-0.023v0.045l-0.023-0.023-0.023 0.045zM16.858 1.213h0.023l0.046 0.023v0.023h-0.023l-0.046-0.045zM15.256 1.189c0.023-0.017 0.038-0.040 0.046-0.068l-0.046 0.023v0.045zM18.161 2.608v-0.023l0.023 0.023v0.068l-0.023-0.068zM18.756 3.408l0.023-0.068 0.023 0.045-0.023 0.023h-0.023zM17.795 2.173c0.018-0.022 0.041-0.038 0.069-0.046 0 0.023 0 0.045 0 0.068l-0.069-0.023zM15.531 1.258l0.022-0.045h0.024v0.045l-0.024 0.023-0.022-0.023zM18.664 3.568l0.137-0.068-0.023 0.046c-0.036 0.020-0.074 0.027-0.115 0.023v0zM18.641 3.705h0.046l-0.023-0.023 0.023-0.023v-0.023l0.024 0.023h0.023l-0.023 0.023c0 0.023 0 0.046 0 0.069h-0.024l0.024-0.024-0.069-0.023zM16.583 1.281l0.047-0.046c0.017-0.037 0.024-0.075 0.023-0.115h0.045c0 0.015 0 0.030 0 0.045l-0.045 0.023v0.023l-0.046 0.068v0.045l-0.023-0.045zM14.227 0.526l0.023-0.045h0.022l0.023 0.023c0 0.023 0 0.045 0 0.068l-0.023 0.046-0.046-0.046v-0.045h0zM14.159 0.275v-0.023l0.045-0.023 0.047 0.023v0.023h-0.023l0.023 0.046-0.047 0.046v-0.023l-0.022 0.023-0.023-0.023v-0.069zM18.229 2.722l0.023 0.023h0.023l-0.023-0.023h-0.023zM18.161 2.8l-0.023 0.013 0.069 0.046 0.046-0.023 0.023-0.046c-0.018 0.022-0.041 0.038-0.069 0.046l-0.046-0.024v-0.013zM17.75 1.83v-0.069c0.022-0.018 0.037-0.040 0.045-0.068h0.023l0.046 0.046v0.023c-0.033 0.036-0.071 0.067-0.114 0.092v-0.023h-0zM17.017 1.006l-0.023 0.069 0.023-0.046v-0.023zM16.995 1.075l-0.069-0.046h-0.023l0.069 0.046 0.046 0.114h0.023l-0.023-0.023-0.023-0.091zM18.298 2.79l-0.023-0.068 0.023-0.069c0.015 0 0.030 0 0.046 0v-0.046h0.023l0.023 0.023-0.023 0.023 0.023 0.069-0.023 0.046 0.023-0.023c-0.008 0.028-0.024 0.051-0.046 0.068h-0.023l-0.023-0.023zM15.142 0.641h-0.023l-0.023-0.023c-0.040-0.005-0.078 0.003-0.114 0.023l-0.046 0.045h-0.023c0.044-0.029 0.075-0.067 0.092-0.115h0.023l-0.023-0.023c0-0.015 0-0.030 0-0.045l0.045-0.023 0.046 0.023v0.023l0.046 0.023 0.023 0.069h-0.023v-0.023 0.046zM14.685 0.709l-0.069 0.045-0.046-0.068h0.023l-0.023-0.045v-0.046h0.023l-0.023-0.023 0.023-0.045 0.023 0.068h0.023l0.023 0.046c-0.008-0.028-0.023-0.051-0.045-0.069v-0.045l0.023-0.045c0.011 0.046 0.035 0.084 0.069 0.114l-0.023 0.069 0.023 0.023-0.023 0.023zM17.635 1.67c0.021-0.051 0.052-0.097 0.092-0.137v-0.023l-0.115 0.16-0.045 0.023 0.068-0.023zM17.223 0.961l0.046-0.023v-0.023h-0.023l-0.023 0.045zM17.246 0.915h-0.023v0.023l0.023-0.023zM17.223 0.915l0.023-0.023h-0.023v0.023z"></path>
</svg>
