<?xml version="1.0" encoding="utf-8"?>
<!-- Generated by IcoMoon.io -->
<!DOCTYPE svg PUBLIC "-//W3C//DTD SVG 1.1//EN" "http://www.w3.org/Graphics/SVG/1.1/DTD/svg11.dtd">
<svg version="1.1" xmlns="http://www.w3.org/2000/svg" xmlns:xlink="http://www.w3.org/1999/xlink" width="32" height="32" viewBox="0 0 32 32">
<path d="M0.067 20.15l0.033-0.032v-0.066c0.304-0.39 0.538-0.794 0.724-1.253h0.067l0.033-0.065c-0.026-0.128-0.080-0.235-0.165-0.331l0.032-0.066c-0.019-0.217 0.006-0.444 0.066-0.659 0.11-0.301 0.209-0.611 0.297-0.922l0.066-0.034c0.233-0.401 0.282-0.85 0.132-1.285l0.066-0.23c0.157-0.132 0.268-0.299 0.33-0.494-0.018-0.22-0.118-0.398-0.297-0.527-0.025-0.179-0.057-0.353-0.099-0.528l-0.032-0.033 0.065-0.132c0.108-0.070 0.194-0.156 0.263-0.263 0.598-0.135 0.947-0.511 0.923-1.087l0.034-0.066-0.034-0.033c0.021-0.168 0.074-0.318 0.165-0.461 0.097-0.368 0.175-0.747 0.231-1.121l0.132-0.231v-0.033c0.040-0.012 0.073-0.034 0.099-0.066l0.132 0.033c0.25-0.163 0.514-0.295 0.791-0.395 0.111-0.114 0.201-0.249 0.263-0.396 0.043-0.224 0.132-0.439 0.263-0.626v-0.066l0.132-0.132c0-0.208 0-0.417 0-0.625 0.079-0.071 0.123-0.159 0.131-0.265 0.086-0.044 0.162-0.098 0.231-0.164v-0.033l0.067-0.098c0.186-0.090 0.373-0.179 0.559-0.263l0.1-0.1v-0.033c0.057 0.003 0.111-0.008 0.164-0.033 0.156-0.196 0.397-0.311 0.66-0.33v-0.033c0.066 0 0.131 0 0.197 0 0.127-0.117 0.237-0.249 0.33-0.395h0.032l0.1-0.164c0.022 0.066 0.044 0.132 0.066 0.198l0.066-0.1 0.132-0.032c0.053-0.069 0.121-0.126 0.198-0.165v-0.032c0.061-0.023 0.118-0.056 0.165-0.099l0.23-0.034c0.141 0.058 0.275 0.137 0.395 0.232 0.093-0.060 0.191-0.082 0.297-0.067l0.033 0.033c0.094 0.014 0.183 0.048 0.263 0.099 0.245-0.019 0.476-0.127 0.659-0.297h0.033c0.051 0.089 0.117 0.167 0.198 0.232h0.033c0.059 0.026 0.114 0.058 0.165 0.099h0.033l0.165-0.099h0.066v-0.034h0.067l0.033 0.034h0.033c0.181 0.084 0.365 0.126 0.561 0.131 0.066-0.080 0.157-0.125 0.263-0.131 0.041 0.037 0.074 0.080 0.098 0.131 0 0.055 0 0.11 0 0.165h0.033c0.102-0.064 0.213-0.108 0.33-0.132-0.075-0.26-0.006-0.5 0.198-0.659h0.033c0.080 0.038 0.157 0.082 0.23 0.132 0.169-0.021 0.327 0.025 0.461 0.131h0.1c0.118 0.090 0.228 0.189 0.329 0.297 0.163 0.068 0.33 0.045 0.495-0.065l0.066 0.033h0.033l0.033 0.032h0.067c0 0.081 0.023 0.162 0.066 0.231h0.098l0.1-0.066c0.077 0 0.154 0 0.23 0 0.115 0.081 0.233 0.145 0.363 0.198l0.033-0.034 0.131-0.032 0.033 0.032h0.066l0.132-0.066h0.034l0.098-0.132h0.098l0.133 0.067h0.066l0.066-0.033c0.149 0.057 0.312 0.070 0.461 0.033 0.054 0.018 0.098 0.051 0.131 0.099h0.034l0.032 0.132 0.098 0.066c0.238 0.123 0.486 0.189 0.758 0.198l0.263 0.132h0.066l0.067-0.034h0.099l0.066 0.1h0.034l0.065-0.033c0.055 0 0.11 0 0.165 0 0.066 0.069 0.143 0.124 0.231 0.165 0.016 0.067 0.049 0.121 0.098 0.164l0.032 0.099 0.1 0.033c0.003 0.089-0.007 0.176-0.032 0.263l0.032 0.032c0.066 0 0.132 0 0.198 0 0.023 0.022 0.044 0.044 0.066 0.067 0.058 0.006 0.112-0.005 0.165-0.034 0.041-0.119 0.107-0.217 0.198-0.296 0.033 0 0.065 0 0.098 0l0.033 0.066c0.058 0.015 0.113 0.037 0.165 0.066 0.055-0.018 0.099-0.052 0.133-0.099 0.153 0.041 0.265 0.114 0.362 0.231l0.067-0.066h0.033l0.098 0.066 0.066-0.032 0.1 0.032 0.032-0.066h0.032v-0.098l0.033-0.034h0.067l0.066-0.033 0.1 0.067v0.032c0.047 0.033 0.080 0.077 0.098 0.131 0.055 0 0.11 0 0.165 0l0.032-0.066h0.066l0.066-0.032c0.067 0.016 0.122 0.049 0.165 0.098v0.033h0.032l0.066-0.033 0.066 0.033c0.070 0.011 0.135-0 0.198-0.033l0.066-0.066c0.063 0.031 0.128 0.042 0.198 0.033l0.066-0.099h0.067l0.066 0.033 0.099-0.1v-0.033c0.052 0.029 0.106 0.040 0.164 0.033l0.034 0.1c0.022 0 0.044 0 0.066 0l0.033-0.033-0.033-0.066v-0.033l0.033-0.033 0.098 0.066v0.034l0.034 0.066-0.034 0.098-0.032 0.033v0.034l0.099 0.099h0.099c0.059 0.026 0.114 0.059 0.165 0.099v0.033h-0.032v0.033l-0.033 0.065c0 0.044 0 0.088 0 0.132h0.066l0.066 0.065 0.033-0.033c0.023 0.021 0.045 0.043 0.066 0.066 0.058 0.007 0.113-0.004 0.165-0.033 0.022 0.022 0.043 0.044 0.066 0.066h0.032v0.034l0.032 0.033h0.033l0.032 0.033h0.067l0.065 0.033 0.066-0.033h0.067c0.022 0.022 0.043 0.044 0.066 0.066l-0.066 0.1c0.026 0.032 0.058 0.054 0.098 0.065l0.032 0.066 0.033-0.033v0.033l0.034 0.033h0.098l-0.032 0.034c0.059 0.054 0.102 0.119 0.131 0.197 0 0.033 0 0.066 0 0.099l0.034 0.033h0.033l-0.033 0.065c0.049 0.043 0.082 0.098 0.099 0.165v0.1l0.032 0.066v0.066l-0.032 0.067-0.033-0.034c0 0.033 0 0.067 0 0.1h0.099l0.099 0.066v0.033l0.033 0.033-0.033 0.034-0.032-0.034-0.1 0.034v0.033c0.033 0 0.067 0 0.1 0 0 0.022 0 0.044 0 0.066h0.032l0.033 0.033h0.032v0.066h0.066l-0.032 0.034 0.032 0.033h-0.032l-0.033-0.033h-0.032c-0.022 0.021-0.044 0.043-0.066 0.066 0 0.055 0 0.11 0 0.165l-0.067-0.033v0.066l-0.033 0.033 0.033 0.066h-0.033l-0.032 0.034c0.037 0.042 0.081 0.075 0.132 0.099l-0.033 0.033 0.033 0.066-0.033 0.066 0.033 0.033v0.033c-0.048 0.033-0.081 0.077-0.1 0.132l0.033 0.033c0 0.022 0 0.044 0 0.066h0.033v0.033l-0.033 0.033 0.067 0.034v0.033l0.066 0.033v0.033h0.032c0 0.022 0 0.044 0 0.066h0.033l0.032 0.034h0.034v0.033h0.032v0.033l0.033 0.033-0.033 0.066v0.033l0.033 0.067h-0.033l-0.066-0.033c0 0.033 0 0.066 0 0.099l-0.032 0.033 0.066 0.033-0.034 0.033v0.034l0.034 0.066c0 0.044 0 0.088 0 0.132-0.044 0.022-0.088 0.043-0.132 0.065h-0.033v0.033l0.033 0.033-0.066-0.033h-0.033l0.066 0.033-0.032 0.033h-0.033l0.033 0.034v0.066c0.032 0.025 0.054 0.058 0.066 0.098l0.066-0.066v0.099c0.032 0.034 0.066 0.066 0.099 0.099v0.033h0.033l0.066 0.033v-0.033l0.067-0.033v0.033h0.032v0.033l0.033 0.033c-0.033 0-0.066 0-0.1 0l0.034 0.067 0.032-0.034 0.033 0.034v0.033h0.032v0.033h-0.066v0.033h0.033l0.066 0.033v0.033l-0.033 0.034v0.033h0.033l0.032 0.033v0.033h0.033l-0.038 0.035-0.032 0.033c0.033 0 0.067 0 0.1 0v0.034h0.032v0.066c0.035 0.045 0.078 0.078 0.131 0.098v0.033h0.034l-0.034 0.034 0.034 0.033v0.033c0.046-0.004 0.089 0.007 0.131 0.033l-0.032 0.033h0.032l-0.032 0.033 0.098 0.033v0.034l0.034-0.034 0.033 0.034 0.032-0.034 0.033 0.034v0.033l0.099 0.066h0.033v0.033l0.032 0.033-0.066 0.034c0 0.077 0 0.154 0 0.231l-0.067 0.033c0.048 0.052 0.103 0.096 0.165 0.131v0.034h0.066l0.032 0.033-0.032 0.033h0.032l0.034 0.033-0.034 0.066c0.023 0.022 0.045 0.043 0.067 0.066 0 0.022 0 0.044 0 0.066l0.033 0.033 0.032-0.033h0.033l0.067 0.066h0.032v0.067h0.099l0.032 0.033h0.066l0.033 0.033-0.1 0.099h-0.032c-0.043 0.066-0.087 0.132-0.132 0.198v0.033l0.032 0.034 0.033-0.066h0.032v0.033c-0.018 0.055-0.051 0.099-0.098 0.132l0.032 0.033-0.032 0.066h0.032c0 0.022 0 0.044 0 0.066h-0.032c-0.023 0.022-0.045 0.043-0.067 0.066v0.066c-0.042 0.025-0.085 0.036-0.131 0.033l0.032 0.067v0.066l0.033 0.033c-0.033 0.025-0.055 0.058-0.066 0.1l-0.034-0.033-0.032 0.033h-0.033c0 0.022 0 0.043 0 0.065l0.033 0.066v0.034h-0.033l0.066 0.033c-0.022 0.022-0.044 0.044-0.066 0.066v0.033l0.033 0.033-0.033 0.099h0.033v0.033h0.032v0.032l-0.032 0.066h0.032v0.033h0.034l0.098 0.099c0.033 0 0.066 0 0.1 0l0.066 0.033c0.055 0 0.11 0 0.164 0v-0.066h0.066v-0.033l0.033-0.034c0.088 0 0.175 0 0.263 0 0.025 0.034 0.058 0.056 0.1 0.067l0.032-0.067h0.032v0.034h0.066v-0.034h0.033l0.034 0.067h0.032l0.033-0.033h0.032c0.011-0.041 0.032-0.074 0.066-0.099 0-0.022 0-0.044 0-0.066v0l-0.033-0.033 0.033-0.032h0.034l0.066 0.032 0.065-0.032h0.033v0.032h-0.033l-0.032 0.099 0.066-0.033h0.034v0.066h0.066v0.033h0.066l0.032 0.067 0.067-0.067c0.033 0 0.066 0 0.099 0l0.032 0.034h0.033v-0.034c0.067 0.002 0.133-0.009 0.198-0.033l0.067 0.033h0.032l-0.067-0.065 0.034-0.033 0.066 0.066 0.066-0.066c0.032 0.026 0.054 0.059 0.066 0.099h0.067l0.066 0.034 0.032 0.099 0.067-0.033 0.032-0.066h0.032v0.066h0.033c0.061-0.036 0.127-0.058 0.198-0.066 0.022 0.022 0.043 0.044 0.066 0.066 0-0.044 0-0.088 0-0.132 0.041 0.011 0.074 0.033 0.1 0.067l-0.033 0.033h0.033l-0.033 0.032 0.033 0.033h-0.033l0.066 0.032 0.033-0.066 0.065-0.032v-0.033h0.067l0.066-0.067 0.032 0.033 0.033-0.033c0.022 0.022 0.044 0.044 0.067 0.067l0.032-0.034c0.011 0.041 0.033 0.074 0.066 0.099v0.033l0.033 0.066h0.066v0.034h0.033v0.033h0.033l0.032 0.033v0.033c0.033 0 0.066 0 0.099 0v-0.033l0.032 0.033v0.032l-0.032 0.033v0.067h-0.033v0.066c-0.070 0.039-0.133 0.082-0.198 0.132 0 0.033 0 0.065 0 0.098-0.032 0.026-0.054 0.059-0.066 0.099l0.033 0.066-0.033 0.033h0.099c0 0.022 0 0.043 0 0.065-0.022 0.022-0.044 0.044-0.066 0.067h0.032l-0.032 0.066v-0.034h-0.033c0 0.055 0 0.109 0 0.164l0.033 0.034-0.033 0.033 0.033 0.032-0.033 0.033c0 0.022 0 0.044 0 0.066l-0.032 0.067-0.066 0.032v0.033h-0.034c0 0.044 0 0.088 0 0.132h0.034v0.032l0.032 0.033v0.066h0.066v0.032l0.033 0.034v0.066c0.044 0.044 0.088 0.088 0.132 0.132h0.032c0.045-0.083 0.101-0.162 0.165-0.231h0.066c-0.005-0.068 0.006-0.134 0.032-0.198l0.198-0.132h0.066l0.034-0.032c0.058 0.014 0.113 0.036 0.164 0.066v0.032h0.033l0.1 0.1c0 0.022 0 0.044 0 0.066h0.065v0.032l0.033-0.032h0.032v0.098h-0.032v0.066c0.057-0.068 0.108-0.13 0.165-0.198v-0.032h0.032l0.032 0.066h0.034c0-0.033 0-0.066 0-0.1l0.033-0.033c0-0.022 0-0.044 0-0.066 0.022 0 0.044 0 0.066 0 0-0.022 0-0.044 0-0.066l0.032-0.033c0.020 0.053 0.054 0.097 0.1 0.131v0.033h0.032l-0.032 0.033v0.034l0.066 0.032h0.032v0.033l-0.032 0.032 0.032 0.1-0.032 0.066 0.032 0.033v0.033l0.066 0.1v0.033l0.067 0.066v0.033c0.044 0.022 0.088 0.044 0.131 0.067l-0.032 0.032h-0.033v0.064l-0.032 0.066-0.1 0.033 0.034 0.067 0.066 0.032h0.066c0.047 0.1 0.128 0.179 0.23 0.231 0.044-0.021 0.088-0.043 0.132-0.066l0.033 0.032 0.032-0.032h0.067c0-0.033 0-0.067 0-0.1l0.066 0.032 0.032-0.032c0.022 0 0.044 0 0.066 0l-0.033 0.032 0.029 0.034c-0.128 0.102-0.248 0.212-0.362 0.329v0.066h0.032c-0.215 0.162-0.391 0.36-0.527 0.593l-0.033 0.165-0.032 0.032c-0.158 0.024-0.313 0.069-0.461 0.133l0.164 0.098-0.067 0.165h-0.032c0 0.033 0 0.066 0 0.098h-0.033c-0.032 0.026-0.053 0.059-0.066 0.1-0.581 0.153-0.966 0.676-1.054 1.317l-0.033-0.032c-0.026 0.032-0.058 0.054-0.099 0.065 0 0.022 0 0.044 0 0.066l-0.033 0.067 0.033 0.032c-0.066 0.112-0.11 0.234-0.132 0.363l-0.034 0.032 0.034 0.033h-0.034l-0.032 0.032-0.033-0.032v0.032c-0.022 0-0.044 0-0.066 0v-0.032h-0.032v-0.033c-0.023-0.022-0.046-0.043-0.067-0.066l-0.098 0.066v0.033c-0.022 0-0.044 0-0.066 0v0.032c-0.461 0-0.923 0-1.384 0l0.065 0.033c-0.021 0-0.043 0-0.065 0v-0.034h-0.033c-0.022 0.022-0.044 0.044-0.066 0.066v0.032h-0.032l-0.034 0.034h-0.033v0.033c-0.033 0-0.065 0-0.098 0l-0.032-0.067h-0.034l-0.033 0.067h-0.032l-0.032 0.033-0.066-0.066v-0.066l-0.034 0.032h-0.066v0.034h-0.033l-0.032-0.066-0.032 0.032-0.067-0.032-0.032 0.032-0.033 0.067v-0.033h-0.032v0.033l-0.033-0.033h-0.032l-0.032-0.034h-0.034l-0.033 0.034h-0.066v0.033h-0.066c-0.026 0.032-0.059 0.054-0.099 0.066-0.022 0-0.044 0-0.066 0l0.032 0.032c-0.025 0.033-0.058 0.055-0.098 0.067 0 0.033 0 0.066 0 0.099h-0.034l-0.032 0.033v0.033l-0.033-0.033v0.033l-0.032-0.033h-0.033l-0.032 0.033v0.032l0.032 0.034v0.032h-0.067l0.034 0.033-0.034 0.032v-0.032c-0.022 0-0.044 0-0.066 0-0.050 0.025-0.094 0.058-0.131 0.098h-0.034v0.034h-0.032v0.033h-0.032v0.032h-0.033v0.032c-0.033 0-0.066 0-0.1 0v0.033l-0.032-0.033v-0.032l-0.033 0.066-0.065-0.033v0.033l-0.033 0.032h-0.032l-0.034 0.033v-0.066c-0.033 0-0.066 0-0.099 0-0.018 0.055-0.051 0.099-0.099 0.132l-0.030-0.033v0.032l-0.032 0.033h0.032l-0.032 0.032h-0.033l0.033 0.066v-0l-0.033 0.034h-0.032v0.033l-0.033-0.033-0.032 0.033-0.034-0.033v0.033l-0.032-0.067h-0.033v0.034l0.033 0.033c-0.033 0-0.066 0-0.099 0h0.033l-0.033 0.066-0.066-0.032-0.066-0.1v0.067h-0.032v-0.033c-0.022 0-0.044 0-0.066 0v0.033l-0.033-0.067h-0.067l-0.065-0.033 0.033-0.032v-0.066h-0.033v0.066l-0.066 0.032c0-0.021 0-0.043 0-0.065h-0.034v-0.033h-0.032v0.033l-0.032-0.033-0.033 0.033-0.032-0.033h-0.033l0.066-0.067h-0.066l-0.032-0.066-0.067-0.033-0.065 0.066h-0.033l-0.032-0.066 0.066-0.065c-0.044 0-0.089 0-0.133 0v-0.1l-0.066-0.033-0.032-0.066h-0.032v0.033h0.032v0.066h-0.032l-0.033-0.099-0.034 0.033v0.032l-0.066-0.032-0.032-0.1-0.032 0.034h-0.033l-0.032-0.067v-0.066l-0.034 0.033h-0.033l0.067-0.033v-0.065l-0.034-0.033v0.066h-0.033l-0.032-0.032h-0.033c-0.022-0.022-0.043-0.044-0.065-0.067l0.032-0.033-0.132-0.032-0.033 0.032c-0.022-0.022-0.044-0.044-0.066-0.066l-0.099 0.033-0.033-0.033 0.033-0.033-0.033-0.033c-0.040 0.012-0.073 0.034-0.098 0.066l0.066 0.033-0.132 0.132 0.032-0.067v-0.099l-0.032-0.033-0.098-0.033v0.033h-0.066v0.033l0.033 0.066-0.033 0.033-0.099-0.066c-0.022 0-0.044 0-0.066 0l-0.067 0.032c-0.022 0-0.043 0-0.065 0l-0.033 0.033v0.033c0.004-0.046-0.007-0.090-0.032-0.132l-0.033 0.099-0.1 0.067-0.032-0.033-0.032 0.066-0.066-0.099-0.067 0.067c-0.004-0.046 0.007-0.090 0.033-0.132l-0.033-0.033-0.066 0.033-0.032-0.033c-0.021 0.022-0.043 0.044-0.066 0.066h0.033l0.032 0.033h0.032v-0.033l0.033 0.033c-0.030 0.064-0.075 0.12-0.131 0.165l-0.034-0.033v-0.033h-0.066l-0.032-0.032h-0.033l-0.032 0.032-0.034-0.066v-0.067l-0.098-0.032c0 0.033 0 0.066 0 0.099l-0.066-0.033c-0.095 0.033-0.181 0.076-0.264 0.132v0.066h-0.066l0.032 0.067v0.032l-0.032 0.033 0.032 0.032v0.033h-0.032v0.033h0.066v0.034l-0.033-0.034-0.032 0.034c-0.044-0.034-0.087-0.067-0.132-0.1v-0.032l-0.034 0.032v-0.032l0.034-0.066-0.034-0.067-0.164-0.099v-0.032l-0.034 0.032c-0.044 0-0.088 0-0.131 0-0.011-0.041-0.033-0.074-0.067-0.099l0.034-0.033-0.067-0.032h-0.066v-0.033h-0.032v0.066l-0.032-0.032h-0.033l-0.034-0.033-0.032 0.033-0.033-0.033c-0.066 0.033-0.132 0.066-0.198 0.099 0-0.033 0-0.066 0-0.099h-0.030l-0.033-0.1h-0.032l-0.1 0.1v0.099l0.033 0.033h0.034l0.065-0.033c0.022 0 0.044 0 0.066 0v0.067l-0.032 0.032c-0.108 0.043-0.218 0.044-0.329 0-0.058 0.068-0.109 0.129-0.165 0.198l0.066 0.132h-0.032c-0.12 0.136-0.249 0.254-0.395 0.363l0.099 0.198-0.034 0.033c-0.043 0-0.087 0-0.131 0v-0.098l-0.033-0.033-0.198 0.033c-0.035 0.045-0.079 0.078-0.132 0.098l-0.032 0.1-0.033 0.033c-0.051-0.049-0.095-0.104-0.132-0.165h-0.033c-0.022 0.066-0.043 0.132-0.065 0.198l-0.033 0.033c-0.033 0-0.066 0-0.1 0v-0.165l-0.098-0.098h-0.032l-0.034 0.032 0.067 0.132-0.032 0.066h-0.034l-0.033-0.066h-0.098v-0.1c-0.052-0.023-0.096-0.056-0.132-0.098l-0.263 0.098c-0.037-0.041-0.081-0.073-0.132-0.098l-0.033 0.098h-0.032v0.066c-0.035 0.046-0.079 0.079-0.133 0.1h-0.065v0.033h-0.033l-0.032-0.033-0.067 0.033v0.032h-0.032l-0.066 0.033c-0.044 0-0.088 0-0.132 0-0.011 0.041-0.033 0.074-0.066 0.1l-0.098 0.033v0.032h-0.034l-0.033 0.066h0.033v0.034l-0.066 0.066c0.022 0.022 0.044 0.044 0.066 0.066l-0.099 0.032-0.032 0.033v0.067l-0.066-0.033v0.033l0.032 0.032-0.067 0.033v0.033l0.034 0.067 0.098 0.032-0.032 0.032v0.033c0.022 0 0.044 0 0.066 0l0.066 0.032-0.033 0.033 0.033 0.033-0.066 0.034v0.033h-0.033c0 0.022 0 0.044 0 0.066 0.033 0.025 0.055 0.058 0.066 0.1h0.033l0.034 0.066h0.032v0.033l0.066 0.033-0.033 0.032v0.033l0.066 0.034-0.032 0.032c0 0.033 0 0.065 0 0.098l-0.066 0.033 0.032 0.066-0.032 0.033v0.032h-0.1l-0.032 0.033h-0.066v0.032h-0.033v0.066h-0.099l-0.033-0.034-0.066 0.034v-0.034c-0.063 0.019-0.13 0.031-0.198 0.034l-0.066 0.033h-0.066l-0.066 0.066 0.066 0.066v0.067c-0.026 0.032-0.058 0.054-0.098 0.066l0.033-0.066-0.132-0.067-0.033-0.099-0.066-0.066v-0.066c-0.012-0.040-0.034-0.073-0.066-0.098-0.033 0-0.067 0-0.1 0l0.033-0.066c-0.032-0.026-0.053-0.059-0.065-0.1l-0.066-0.032c-0.191 0.034-0.395 0.045-0.594 0.032-0.046-0.055-0.101-0.099-0.165-0.132l-0.132 0.1c-0.068 0.005-0.134-0.006-0.197-0.033-0.141 0.077-0.288 0.089-0.429 0.033l-0.1 0.065-0.065-0.033-0.067 0.066h-0.033l-0.033-0.033v-0.033c-0.073-0.035-0.149-0.046-0.23-0.032l-0.098-0.066-0.033 0.032-0.067-0.032h-0.064v-0.034l-0.132 0.034-0.033-0.067v-0.032h-0.066v-0.033c-0.040-0.011-0.073-0.033-0.099-0.065h-0.033l-0.033-0.033h-0.066l-0.033-0.067h-0.034l-0.033-0.033v-0.098l-0.066-0.034h-0.066l-0.033-0.033c-0.044 0-0.088 0-0.132 0l-0.133-0.131-0.065 0.066c-0.063 0.032-0.129 0.043-0.198 0.032l-0.033-0.032c-0.022 0-0.044 0-0.066 0l-0.067 0.032h-0.033v-0.032l-0.098-0.098h-0.1l-0.066 0.032-0.033-0.066-0.033 0.066-0.067-0.066-0.066 0.034h-0.033c-0.022-0.023-0.044-0.045-0.067-0.067-0.025 0.032-0.058 0.055-0.099 0.067-0.077 0-0.154 0-0.23 0l-0.066-0.1h-0.067l-0.13-0.1c-0.058 0.014-0.113 0.036-0.165 0.066l-0.033-0.032-0.033 0.032-0.067-0.032-0.066 0.066-0.033-0.033c-0.022 0-0.043 0-0.065 0v-0.032c-0.026-0.032-0.059-0.055-0.1-0.067v-0.033c-0.074-0.048-0.134-0.098-0.198-0.164-0.042 0.025-0.086 0.036-0.132 0.032l-0.033-0.032-0.034 0.032-0.033-0.066-0.066-0.032-0.033 0.032h-0.033l-0.033 0.034h-0.033l-0.066-0.034-0.066 0.034h-0.034l-0.033-0.034c-0.066 0-0.132 0-0.198 0l-0.132 0.066c-0.055 0-0.11 0-0.164 0l-0.033-0.032-0.066 0.032h-0.033l-0.066 0.033-0.198-0.1c-0.136 0.098-0.273 0.171-0.428 0.231h-0.066c-0.022-0.022-0.044-0.044-0.066-0.066h-0.034c-0.077-0.030-0.134-0.088-0.164-0.165h-0.033l-0.034 0.034h-0.032l-0.032-0.034h-0.066l-0.067-0.066h-0.033v-0.032c-0.081-0.023-0.147-0.068-0.198-0.133h-0.033v-0.033l-0.033-0.032v-0.033l-0.066-0.1h-0.032v-0.065l-0.132 0.066h-0.033l-0.033-0.032h-0.067v-0.033c-0.022 0-0.044 0-0.066 0v0.033l-0.032-0.033-0.033 0.033-0.067-0.066c-0.087 0.066-0.176 0.132-0.264 0.198h-0.065l-0.1 0.066c-0.058-0.005-0.111 0.005-0.164 0.033-0.085-0.032-0.173-0.043-0.263-0.033v-0.032l-0.099-0.066h-0.033l-0.032-0.1c-0.064 0.030-0.129 0.041-0.198 0.032-0.041-0.011-0.074-0.033-0.099-0.066h0.032c-0.022-0.022-0.044-0.043-0.065-0.065l0.065-0.1-0.065-0.033v-0.065h-0.033c-0.042-0.089-0.109-0.156-0.198-0.198-0.023-0.044-0.045-0.088-0.066-0.132h-0.033l-0.1-0.066v-0.032l0.032-0.033-0.032-0.067 0.032-0.098h0.034c0-0.022 0-0.044 0-0.066l-0.034-0.067c-0.022 0-0.044 0-0.066 0v-0.033l-0.032 0.033c0-0.022 0-0.044 0-0.066l-0.033 0.032-0.033-0.032v-0.033h-0.067l0.032-0.033h-0.032l0.032-0.033-0.066-0.034v-0.032l-0.033 0.032-0.033-0.032c0-0.022 0-0.044 0-0.066l-0.033 0.033h-0.034c0-0.022 0-0.044 0-0.066l-0.098-0.033v-0.032h0.033l-0.033-0.034-0.033-0.132c0.022 0 0.044 0 0.066 0v-0.066l0.033 0.066h0.033l-0.033-0.066 0.033-0.034h-0.033l-0.065 0.034 0.033-0.066h0.033l0.033-0.033c-0.033 0-0.066 0-0.098 0 0-0.022 0-0.044 0-0.066l-0.033 0.032-0.033-0.032h0.066v-0.033h0.033l0.033-0.034h-0.065l0.033-0.066h-0.033v-0.032l-0.033-0.066-0.033 0.033v-0.033l0.033-0.067h0.033v-0.033l0.033-0.032 0.066 0.032v-0.032h-0.066l0.033-0.066v-0.031h-0.099l0.066-0.034v-0.033c-0.044-0.022-0.088-0.044-0.132-0.066l0.033-0.032h0.066l-0.033-0.033h0.066l-0.098-0.067-0.067 0.034c0.026-0.042 0.037-0.086 0.034-0.132h-0.066l0.033-0.033-0.066-0.032h0.066l-0.033-0.067 0.066 0.032v0.034l0.033-0.034v-0.032l0.033-0.033-0.066-0.032v-0.033l-0.034-0.066-0.066-0.033-0.065 0.033 0.033-0.066h0.033v-0.032l-0.033 0.032-0.033-0.032 0.033-0.066-0.033-0.033-0.1 0.066v-0.032l-0.033 0.032v-0.032l0.033-0.033-0.033-0.034-0.065 0.034h-0.033v-0.034h-0.033v0.034h-0.034l0.034 0.066-0.034 0.066-0.033-0.032v-0.066l-0.033-0.067c-0.022 0-0.044 0-0.066 0v-0.032l0.033-0.033c-0.079-0.032-0.136-0.088-0.165-0.165l-0.066-0.033c-0.044 0.044-0.088 0.089-0.132 0.133-0.048-0.034-0.080-0.078-0.099-0.133h-0.066c-0.040 0.083-0.051 0.171-0.034 0.263h-0.033v0.034c-0.079-0.091-0.128-0.21-0.131-0.33l0.131-0.165v-0.098l-0.033-0.032h-0.033c-0.097 0.066-0.185 0.143-0.263 0.23-0.046 0.004-0.090-0.007-0.132-0.032l-0.066 0.032-0.032 0.066h0.032l0.132 0.066v0.034l0.033 0.033c-0.044 0-0.087 0-0.131 0l-0.132-0.1h-0.032l-0.032 0.034v0.132h-0.066c-0.066-0.050-0.11-0.116-0.132-0.198h-0.066l-0.165 0.1-0.098 0.164h-0.034l-0.099-0.066-0.066 0.033c0 0.033 0 0.066 0 0.099-0.036 0.091-0.101 0.156-0.198 0.197l0.033 0.132-0.033 0.033h-0.033c-0.029-0.113-0.084-0.212-0.165-0.297-0.059-0.026-0.114-0.059-0.165-0.1l-0.099 0.067h-0.034l-0.033-0.067 0.033-0.065c-0.043-0.022-0.087-0.044-0.131-0.066-0.057-0.003-0.111 0.008-0.165 0.032-0.008-0.199-0.018-0.365-0.032-0.56l-0.1-0.066c0-0.033 0-0.065 0-0.098l0.067-0.034z"></path>
</svg>
