<?xml version="1.0" encoding="utf-8"?>
<!-- Generated by IcoMoon.io -->
<!DOCTYPE svg PUBLIC "-//W3C//DTD SVG 1.1//EN" "http://www.w3.org/Graphics/SVG/1.1/DTD/svg11.dtd">
<svg version="1.1" xmlns="http://www.w3.org/2000/svg" xmlns:xlink="http://www.w3.org/1999/xlink" width="32" height="32" viewBox="0 0 32 32">
<path d="M0 13.867l0.054-0.054 0.22-0.055v-0.056c0.055 0 0.11 0 0.164 0v-0.109h0.109c0.067-0.019 0.121-0.056 0.164-0.109v-0.055l0.055-0.054v-0.056l-0.055-0.055c0.091-0.113 0.203-0.206 0.328-0.274v-0.054l-0.055-0.055h0.109l0.11 0.055v-0.109l-0.11-0.055-0.054-0.111h-0.109c0-0.036 0-0.072 0-0.109l-0.055-0.054v-0.109l-0.054-0.055c-0.074-0.127-0.074-0.256 0-0.383v0c0.067-0.020 0.121-0.057 0.163-0.111v-0.109l-0.109-0.055v-0.11c0.073-0.072 0.146-0.145 0.218-0.218v-0.109l-0.109-0.11 0.109-0.054v-0.055l0.056-0.054v-0.055l0.109-0.165-0.055-0.055c0.095-0.166 0.23-0.319 0.383-0.437v-0.165l0.109-0.055c0-0.036 0-0.072 0-0.109l0.273-0.219h0.055l-0.109-0.109-0.11 0.055c-0.11 0-0.219 0-0.328 0v-0.055c-0.036 0-0.073 0-0.109 0l-0.055-0.054h0.055l0.054-0.054v-0.056h0.111v-0.109h0.054l0.054-0.054h0.164l-0.055-0.055 0.055-0.055h0.056l0.108 0.055h0.055l0.054 0.055 0.111-0.109h0.054c0.073-0.036 0.146-0.073 0.218-0.11-0.072 0.11-0.145 0.219-0.218 0.328l0.055 0.111-0.055 0.163c0.086-0.048 0.176-0.066 0.272-0.055 0.063 0.068 0.137 0.122 0.22 0.164 0.069-0.042 0.142-0.060 0.219-0.054 0.083 0.086 0.153 0.175 0.218 0.274v0.109h0.054l0.056 0.056c0.073 0 0.145 0 0.218 0 0.080 0.055 0.134 0.127 0.164 0.218h0.164v0.165l0.273-0.165h0.055l0.109-0.055 0.054 0.055h0.219l0.109 0.109h0.219l0.109-0.054 0.111 0.219c0.055 0 0.108 0 0.163 0 0.079-0.056 0.134-0.129 0.165-0.219l0.109-0.054 0.054-0.164 0.054-0.054h0.056v-0.056h0.054v-0.109h0.056v0.109l0.109 0.056-0.054 0.109c0.036 0 0.073 0 0.109 0l0.054-0.054h0.054l-0.054-0.165 0.11-0.109-0.056-0.055h0.274c0.055-0.074 0.109-0.146 0.165-0.219v0.055l0.109 0.11h0.109c0.090-0.031 0.163-0.086 0.219-0.165h0.109l0.054-0.055-0.054-0.054v-0.219l0.219 0.109c0.042-0.054 0.096-0.090 0.163-0.109v-0.055l0.055-0.109-0.055-0.054 0.055-0.111 0.11-0.054h0.055l-0.055-0.055 0.109-0.163c0.146 0 0.291 0 0.437 0h-0.055l-0.054-0.111v-0.109l0.054-0.055-0.108-0.11 0.108-0.054-0.108-0.055 0.108-0.109h0.055v-0.11c0.089-0.099 0.198-0.171 0.328-0.218h0.054l0.055 0.055c0.139 0.065 0.285 0.083 0.438 0.054l0.055-0.109c0.11 0 0.219 0 0.328 0 0.056-0.078 0.129-0.133 0.218-0.165l0.11 0.056h0.163v-0.111c0.091 0 0.183 0 0.274 0v-0.054h0.109l0.054 0.054 0.219-0.054v-0.218l0.055-0.056c0.146 0 0.291 0 0.437 0l0.11-0.218c0.073 0 0.145 0 0.218 0l0.165-0.165 0.217-0.055 0.055-0.054 0.11 0.054h0.109c0.037-0.101 0.094-0.196 0.165-0.274h0.054l0.109 0.056 0.055 0.109 0.164-0.054 0.109 0.054h0.164l-0.055 0.054c0.044 0.125 0.062 0.253 0.055 0.383l0.054 0.109-0.109 0.274 0.109 0.054h0.056l-0.056 0.165-0.054 0.054-0.163 0.055v0.109c-0.086 0.049-0.177 0.086-0.273 0.111l-0.055 0.054h-0.054c-0.091 0.091-0.183 0.183-0.274 0.274v0.272c-0.096 0.011-0.187-0.007-0.274-0.055l-0.108 0.055-0.055 0.165c-0.070 0.083-0.161 0.137-0.273 0.163h-0.055c-0.059 0.121-0.076 0.249-0.054 0.383l-0.111 0.111c0 0.036 0 0.072 0 0.109l-0.054 0.055v0.109c0.018 0.069 0.055 0.124 0.11 0.165-0.085 0.208-0.122 0.427-0.11 0.656l-0.163 0.164c-0.146 0-0.291 0-0.437 0l-0.111 0.165v0.055l0.055 0.054c-0.046 0.106-0.064 0.216-0.055 0.328h0.055c0 0.109 0 0.219 0 0.328l0.056 0.109-0.056 0.109 0.056 0.056-0.111 0.272c0.379-0.124 0.764-0.143 1.15-0.054l0.218-0.109 0.219 0.054-0.054 0.109c0.055 0.080 0.128 0.135 0.218 0.165v0.218l-0.055 0.11 0.109 0.109v0.054l0.056 0.055v0.11l0.163 0.109h0.328c0.215-0.092 0.379-0.237 0.492-0.437 0.241-0.047 0.483-0.121 0.71-0.219 0.1-0.102 0.209-0.194 0.328-0.274h0.109c0.077 0.114 0.116 0.247 0.111 0.383l0.054 0.11v0.054h0.109l-0.054 0.055v0.054c0.099-0.131 0.226-0.223 0.382-0.274 0.195-0.052 0.415-0.132 0.603-0.218l0.546 0.491v0.437l0.328-0.055c-0.018 0.208-0.090 0.391-0.218 0.548 0.011 0.095-0.006 0.186-0.054 0.272l0.163 0.274 0.219 0.11h0.055l0.163-0.439c0.228 0.015 0.432 0.032 0.657 0.054l0.328-0.491v-0.054l-0.054-0.109c0.036-0.037 0.073-0.073 0.109-0.11h0.11l0.109-0.109 0.163-0.054 0.055-0.055 0.055-0.328-0.055-0.165c-0.037-0.036-0.073-0.072-0.109-0.109h-0.055v-0.055h-0.054l-0.109-0.054-0.11-0.165 0.11-0.109c-0.005-0.261 0.068-0.498 0.218-0.711l-0.055-0.109 0.109-0.055c0.083 0.096 0.192 0.15 0.328 0.163l0.109 0.164 0.056-0.054 0.109 0.054c-0.053-0.198-0.071-0.392-0.055-0.6l-0.054-0.055h-0.056c-0.066-0.020-0.121-0.057-0.163-0.11l-0.055-0.164c-0.098-0.043-0.189-0.098-0.273-0.165h-0.055c-0.010-0.15-0.027-0.291-0.054-0.437 0.063-0.133 0.135-0.261 0.218-0.383-0.007-0.13 0.011-0.258 0.055-0.383 0.179 0.048 0.362 0.067 0.546 0.054l0.274-0.546 0.274 0.109c0.16-0.041 0.307-0.114 0.437-0.219 0.072 0.073 0.144 0.147 0.217 0.219 0 0.109 0 0.219 0 0.328l-0.108 0.163c0 0.073 0 0.146 0 0.219 0.114 0.007 0.23 0.046 0.328 0.109l0.054 0.274c0.361-0.067 0.726-0.103 1.094-0.109l0.055-0.055h0.056c0.066-0.021 0.12-0.057 0.163-0.11h0.054v0.054h0.055v-0.054c0.039 0.134 0.111 0.244 0.219 0.328l0.219 0.055c0 0.055 0 0.11 0 0.165l0.055 0.055c0.59 0.111 1.2 0.129 1.804 0.055l0.055-0.055c0.164-0.041 0.325-0.059 0.491-0.055 0.074-0.073 0.147-0.146 0.219-0.219l0.109 0.055h0.055v-0.055c0.115 0.006 0.231 0.046 0.328 0.111 0.055 0 0.11 0 0.165 0l0.109 0.109v0.055l0.054 0.055h0.165v0.054h0.054l0.055-0.109c0.055 0 0.109 0 0.163 0v-0.055l0.056 0.055c0.055 0 0.109 0 0.163 0l0.055 0.055v-0.055l0.054 0.055c0.037 0 0.073 0 0.11 0l0.055-0.055h0.054l0.109 0.055 0.055-0.055v0.055c0.113 0.005 0.223 0.023 0.328 0.054 0.084 0.067 0.175 0.122 0.273 0.165l0.165 0.218 0.109 0.054h0.437l0.165-0.109h0.217l0.055-0.109h0.054c0.025 0.096 0.062 0.187 0.111 0.274 0.094-0.004 0.185 0.014 0.273 0.055l0.109-0.055h0.055l0.109-0.165h0.11l0.054-0.218h0.055l0.054-0.056h0.055l0.219 0.219c0.077 0.006 0.15-0.012 0.218-0.054l0.11-0.109c0.162 0.007 0.32-0.053 0.437-0.165l0.054 0.054c-0.104 0.543-0.050 1.099 0.165 1.587l0.109 0.055-0.054 0.054v0.109l0.054 0.111-0.054 0.055 0.054 0.054-0.054 0.164h0.054v0.11h-0.054c0.055 0 0.108 0 0.163 0-0.017 0.287 0.019 0.556 0.11 0.82 0.103 0.128 0.23 0.219 0.384 0.274-0.038 0.072-0.075 0.145-0.111 0.218-0.006 0.077 0.013 0.15 0.055 0.219l0.11 0.109c-0.042 0.055-0.097 0.091-0.165 0.11h0.055v0.055h0.056v-0.055h0.054c0 0.073 0 0.145 0 0.218h-0.054v0.055h-0.056v-0.055l-0.055-0.054c-0.006 0.077 0.013 0.15 0.055 0.219h0.056c0.029-0.091 0.084-0.164 0.163-0.219v-0.164l-0.054-0.11h0.109c0 0.183 0 0.365 0 0.548l-0.109 0.055v0.109c0.018 0.068 0.055 0.123 0.109 0.165l-0.055 0.218 0.109 0.11v0.163l0.11 0.109h0.106c0 0.146 0 0.293 0 0.439-0.060 0.101-0.096 0.21-0.109 0.328 0.054 0.16 0.072 0.324 0.055 0.492l0.054 0.053-0.054 0.109 0.054 0.111-0.054 0.217 0.054 0.111c-0.136 0.249-0.171 0.534-0.109 0.819l0.055 0.055c-0.037 0.036-0.073 0.072-0.109 0.109l0.054 0.22-0.11 0.108-0.054 0.165c-0.037 0-0.073 0-0.109 0l-0.109-0.054-0.111 0.054-0.163-0.11-0.054 0.11h-0.055v-0.054c-0.037 0-0.073 0-0.11 0-0.037-0.037-0.073-0.074-0.109-0.111l-0.163 0.111h-0.056c-0.054-0.107-0.127-0.198-0.218-0.274v-0.054l-0.054-0.111 0.054-0.109v-0.108c-0.247-0.171-0.484-0.354-0.712-0.548h-0.054c-0.044 0.052-0.099 0.090-0.165 0.111-0.142-0.050-0.29-0.087-0.437-0.111l-0.109-0.054-0.11 0.054h-0.054c-0.146-0.054-0.291-0.108-0.437-0.164l-0.328 0.109-0.164 0.165c-0.091 0-0.182 0-0.273 0l0.054 0.054v0.055c-0.055 0-0.11 0-0.165 0 0 0.055 0 0.109 0 0.164-0.055 0-0.109 0-0.163 0-0.072 0.082-0.164 0.137-0.274 0.165l-0.054 0.108h-0.055l-0.109-0.055-0.055-0.109c-0.112 0.009-0.221-0.009-0.327-0.056l-0.164 0.056c-0.043 0.125-0.061 0.253-0.054 0.383l0.054 0.109c-0.054 0.054-0.108 0.108-0.163 0.163 0.026 0.142-0.012 0.282-0.11 0.384v0.055l0.054 0.055 0.11-0.055-0.054 0.108v0.055h-0.056l-0.054 0.109 0.164 0.219h-0.11l-0.054 0.054-0.218 0.055-0.111-0.055c-0.091 0-0.181 0-0.272 0l-0.056 0.055v0.056c-0.091 0.090-0.181 0.181-0.272 0.272-0.11 0-0.219 0-0.328 0l-0.054-0.055-0.111 0.055v0.054c-0.089 0.019-0.183 0.038-0.272 0.056v0.055l-0.056 0.055h-0.054l-0.164 0.109h-0.11l-0.163 0.11c-0.036 0-0.073 0-0.109 0l-0.11-0.056c-0.086 0.049-0.177 0.068-0.273 0.056l-0.056 0.055c0 0.054 0 0.108 0 0.163l-0.163 0.109-0.274-0.055-0.054 0.055c-0.073 0-0.145 0-0.218 0l-0.11 0.11h-0.055l-0.054 0.109-0.054-0.054h-0.165l-0.109-0.109h-0.054l-0.055 0.054-0.165-0.165-0.273-0.054-0.109 0.054c-0.222-0.025-0.445-0.007-0.657 0.055l-0.055-0.165-0.054-0.055c-0.122 0.077-0.231 0.169-0.328 0.274v0.054l0.108 0.055v0.054l-0.054 0.109c-0.055 0-0.108 0-0.163 0-0.085-0.040-0.158-0.094-0.219-0.163-0.164 0-0.328 0-0.492 0l-0.054-0.055-0.111 0.055h-0.163l-0.109 0.054h-0.11l-0.055 0.055c0 0.127 0 0.255 0 0.383l-0.054 0.055 0.054 0.056v0.108h-0.054l-0.055 0.109v0.055h-0.164l-0.109 0.056-0.055-0.056-0.109 0.056c-0.146-0.074-0.292-0.147-0.438-0.22-0.088 0.035-0.16 0.089-0.218 0.164l0.055 0.165-0.055 0.108 0.055 0.055-0.055 0.054-0.054-0.054-0.219-0.055c-0.048 0.087-0.067 0.178-0.055 0.274l-0.054 0.054c0 0.183 0 0.366 0 0.549-0.085 0.039-0.158 0.094-0.219 0.163v0.055h0.054v0.108h0.109l0.056 0.056v0.109c-0.16 0.066-0.325 0.121-0.493 0.164l-0.055 0.056 0.055 0.164h-0.163l-0.109-0.055v0.055l0.054 0.055h-0.054v0.054h-0.165c-0.055 0.074-0.108 0.146-0.163 0.22l-0.111-0.055c-0.072 0-0.145 0-0.217 0l-0.056 0.109c-0.2 0.058-0.382 0.15-0.546 0.274h-0.164c-0.043 0.113-0.116 0.204-0.219 0.274l-0.165 0.055v0.109l-0.054 0.054c-0.073 0-0.145 0-0.218 0l-0.11 0.055-0.218-0.109-0.165-0.22c-0.129 0.003-0.257-0.015-0.382-0.055l-0.055-0.163-0.219-0.22c0-0.11 0-0.219 0-0.328l-0.163 0.056c-0.066-0.021-0.121-0.058-0.165-0.111v-0.055l0.11-0.055-0.054-0.109 0.054-0.11h0.055c0.006-0.076-0.012-0.149-0.055-0.218l0.055-0.11-0.109-0.164c0.035-0.163 0.052-0.323 0.054-0.492-0.035-0.038-0.072-0.075-0.11-0.11h-0.109v-0.055h-0.054l-0.055-0.054v-0.166l-0.109-0.054-0.11 0.054v0.111h-0.109v-0.055l-0.054 0.055-0.055-0.055h-0.164l-0.109 0.055-0.109-0.055c-0.073 0-0.146 0-0.219 0l-0.164 0.109v-0.055h-0.111c0.042-0.070 0.060-0.142 0.054-0.22 0.077 0.006 0.151-0.012 0.22-0.054l0.054-0.054h0.054v-0.055l-0.054-0.055 0.054-0.056c-0.036 0-0.072 0-0.108 0v-0.055h0.108v-0.054h0.165l0.328-0.22v-0.108l-0.054-0.055 0.054-0.054 0.164-0.055v-0.165h-0.109l-0.055-0.055c0.067-0.019 0.122-0.055 0.164-0.109l0.054 0.055c0.086-0.040 0.159-0.095 0.219-0.165h0.055c0.035 0.037 0.072 0.074 0.109 0.11v-0.054l0.054-0.056h0.056l0.054-0.109h-0.053v-0.055l0.163-0.22-0.109-0.109v-0.164c-0.095-0.073-0.17-0.166-0.219-0.274v-0.054c-0.054-0.055-0.109-0.11-0.163-0.165 0-0.073 0-0.145 0-0.217l0.109-0.056c0.036-0.11 0.072-0.218 0.109-0.327 0.152-0.108 0.277-0.232 0.382-0.384h0.165l0.109-0.109h0.165l0.109-0.109 0.219-0.054v-0.055l0.163-0.056 0.054 0.056 0.109-0.11v-0.055h-0.054c0-0.036 0-0.072 0-0.108-0.11-0.035-0.184-0.11-0.218-0.22l0.055-0.055v-0.055h-0.109l0.109-0.165c-0.077-0.091-0.168-0.164-0.274-0.218h-0.054v0.055h-0.109l-0.055-0.108v-0.055l-0.11-0.056h-0.163c-0.068-0.018-0.123-0.054-0.165-0.109l-0.055 0.055-0.054-0.109c-0.055 0-0.11 0-0.165 0-0.036-0.073-0.073-0.147-0.109-0.219-0.147-0.091-0.291-0.182-0.437-0.274-0.127 0-0.255 0-0.382 0l-0.055 0.111c-0.127 0-0.255 0-0.382 0-0.069 0.084-0.124 0.175-0.165 0.274l0.054 0.109-0.328 0.163h-0.163l-0.054 0.056-0.109-0.056h-0.056l-0.055 0.056-0.217-0.056-0.165 0.056-0.055 0.055 0.055 0.108v0.109l-0.055 0.055-0.054 0.165h-0.055l-0.054 0.055v0.055c-0.038 0.036-0.074 0.072-0.11 0.108 0 0.074 0 0.147 0 0.22-0.229 0.077-0.443 0.167-0.656 0.274v0.109c-0.043 0.053-0.097 0.090-0.164 0.109l-0.109-0.055-0.056 0.055-0.054-0.109-0.163 0.109v0.11l-0.22 0.055c0 0.054 0 0.109 0 0.163l-0.108 0.056h-0.055l-0.054 0.163h-0.056c-0.019 0.067-0.056 0.121-0.109 0.164v0.056l-0.055 0.055c0.067 0.019 0.121 0.056 0.164 0.109v0.109l-0.109 0.056v0.054l-0.109-0.11v-0.109h-0.054v-0.109l-0.055-0.055c-0.037 0-0.073 0-0.11 0l-0.109 0.164h-0.274c-0.146 0.064-0.259 0.178-0.328 0.328-0.067 0.019-0.121 0.055-0.163 0.109 0.036 0.036 0.073 0.073 0.109 0.11-0.091 0-0.183 0-0.274 0v0.164l-0.163 0.109v0.111c-0.088 0.034-0.161 0.089-0.219 0.163l-0.109-0.055-0.055 0.055c-0.036 0-0.073 0-0.109 0v-0.109c-0.086-0.048-0.177-0.084-0.273-0.109-0.103 0.059-0.195 0.132-0.274 0.218 0 0.073 0 0.146 0 0.219l0.054 0.109v0.055l-0.054 0.055-0.328-0.055-0.054-0.055v-0.054c-0.075-0.059-0.13-0.132-0.165-0.22h-0.055l-0.109-0.054c-0.164 0.129-0.327 0.256-0.491 0.383h-0.11v0.055c-0.073 0-0.145 0-0.218 0l-0.11 0.056c-0.054-0.056-0.109-0.111-0.164-0.165l-0.054-0.219 0.054-0.109-0.054-0.055 0.054-0.055h-0.163l0.109-0.165c-0.037-0.035-0.073-0.072-0.109-0.109l0.054-0.109h-0.054c0-0.055 0-0.11 0-0.165l-0.057-0.056-0.054 0.055-0.055-0.055-0.054 0.055-0.109-0.164c-0.038 0.036-0.074 0.072-0.11 0.109v0.055l-0.055 0.054-0.219 0.056 0.056 0.055-0.056 0.109c-0.054 0-0.108 0-0.163 0l-0.055-0.109h-0.165l-0.109 0.109h-0.163l-0.054 0.055v0.11h-0.165l-0.109 0.055-0.11-0.055-0.164 0.055-0.054-0.055-0.054 0.055v-0.111l-0.056 0.111h-0.109v-0.111l-0.109-0.054v-0.109l-0.055-0.109h-0.054v-0.165l-0.165-0.054v-0.055h-0.054v-0.054l-0.109-0.11h-0.055l-0.11-0.218h-0.109l-0.054-0.11h-0.111v-0.055l0.056-0.054v-0.164l0.055-0.055h0.163l0.055-0.056 0.164-0.054v-0.055l0.055-0.054-0.055-0.055 0.055-0.054v-0.111l-0.055-0.055h0.109l-0.054-0.054c0.030-0.090 0.085-0.164 0.163-0.22-0.019-0.068-0.055-0.121-0.109-0.164v-0.054l0.328-0.055v-0.056l0.055-0.054v-0.055h0.109v-0.164h-0.109c0.018-0.068 0.054-0.123 0.109-0.165 0.042-0.172 0.137-0.324 0.273-0.437 0-0.073 0-0.146 0-0.22 0.054-0.042 0.091-0.096 0.111-0.163-0.049-0.086-0.068-0.178-0.056-0.274h-0.055l-0.054-0.109 0.054-0.054-0.054-0.055-0.219 0.109c-0.095-0.056-0.179-0.107-0.273-0.165v-0.109l-0.054-0.053 0.054-0.109-0.054-0.055h-0.11l-0.055-0.056c-0.116-0.018-0.225 0.001-0.328 0.056v-0.111l0.055-0.054-0.055-0.055 0.055-0.054v-0.219c0.101-0.1 0.16-0.24 0.164-0.383-0.054-0.055-0.109-0.109-0.164-0.163l0.055-0.11v-0.054l-0.164-0.055v-0.109c-0.070-0.042-0.143-0.060-0.22-0.054-0.096-0.045-0.187-0.101-0.272-0.165h-0.056l-0.054-0.055 0.054-0.055h0.056l0.055-0.11h0.054l-0.054-0.055v-0.054h-0.112l-0.054-0.109 0.11-0.054-0.056-0.11v-0.109l-0.054-0.055z"></path>
</svg>
