<?xml version="1.0" encoding="utf-8"?>
<!-- Generated by IcoMoon.io -->
<!DOCTYPE svg PUBLIC "-//W3C//DTD SVG 1.1//EN" "http://www.w3.org/Graphics/SVG/1.1/DTD/svg11.dtd">
<svg version="1.1" xmlns="http://www.w3.org/2000/svg" xmlns:xlink="http://www.w3.org/1999/xlink" width="32" height="32" viewBox="0 0 32 32">
<path d="M-0 3.522h0.034l0.017 0.017 0.017 0.050h0.018l0.017 0.051h0.017l0.034-0.017 0.017 0.017v0.034h0.018l0.034-0.034 0.017 0.017 0.017-0.034h0.033l0.017 0.017c0.009-0.028 0.026-0.051 0.051-0.068l0.034 0.034 0.068-0.102-0.016-0.017c0.002-0.040 0.007-0.080 0.017-0.118l0.017-0.017c0.023 0 0.045 0 0.068 0v0.034l0.034 0.017 0.034-0.034 0.034 0.017 0.017-0.017c0.021 0.006 0.038 0.017 0.050 0.034l0.051 0.017v0.017h0.017l0.017-0.034v-0.017h0.017l0.017-0.034v0.017c0.017 0 0.034 0 0.051 0 0.013 0.021 0.019 0.044 0.017 0.068l0.017-0.017 0.017 0.034v-0.034l0.017-0.017 0.034 0.017h0.017v-0.068c0.021-0.006 0.038-0.017 0.051-0.034 0-0.034 0-0.068 0-0.102l0.034-0.051-0.017-0.017v0.017l-0.051-0.034 0.017-0.017-0.067-0.034v-0.017l0.017-0.017v-0.017l0.017-0.017c-0.006-0.021-0.017-0.038-0.034-0.051v-0.034l0.034-0.017 0.017 0.017h0.034l0.034-0.017 0.034 0.034 0.017-0.034c0.045 0 0.090 0 0.135 0l0.034-0.034-0.016-0.018h-0.017l-0.017-0.034v-0.017l0.017-0.017-0.017-0.017v-0.034l0.068-0.017 0.017-0.017c0-0.011 0-0.023 0-0.034l0.034-0.017v-0.017c0.017-0.023 0.034-0.045 0.051-0.067l0.034 0.017-0.017 0.068h0.067v-0.017l0.051 0.017 0.017-0.017 0.017 0.017v0.017c0.021 0.006 0.038 0.017 0.051 0.034l0.067-0.051h0.034v-0.017c0.026 0.016 0.054 0.027 0.084 0.034l0.017 0.034c0 0.017 0 0.034 0 0.051l0.017 0.034v0.017c0.027 0.015 0.055 0.021 0.084 0.017l0.034-0.034h0.034v0.017h0.050v-0.034l0.017-0.017 0.050 0.017 0.034 0.034v-0.017l0.051 0.034v-0.034l0.017-0.017v-0.017l0.034-0.051-0.017-0.017 0.017-0.017-0.017-0.017h0.017l0.017-0.017-0.017-0.034 0.017-0.034-0.017-0.051h0.017v-0.034l-0.068-0.034 0.017-0.017h0.017v-0.018h0.034l0.017 0.018 0.017-0.018c0.011 0.012 0.022 0.023 0.034 0.034 0.034 0 0.068 0 0.101 0l0.017-0.034v-0.017l0.017-0.017c0.017 0 0.034 0 0.051 0v-0.017l0.067 0.034v-0.034l0.017-0.034v0.017c0.017 0 0.034 0 0.051 0l0.034-0.017 0.017 0.017 0.017-0.017-0.017-0.034h0.017v-0.050l0.034 0.017 0.017-0.034 0.017 0.017h0.017v0.017l0.034-0.017 0.034 0.017 0.034-0.017 0.017 0.017h0.018l-0.018-0.034h0.018l0.017 0.034v0.017l0.034 0.017h0.034v-0.016c0.006 0.021 0.018 0.038 0.034 0.051h0.017v0.017l0.051-0.017v-0.017h0.034l0.034 0.017c0.013-0.017 0.030-0.028 0.050-0.034h0.017v0.034h0.017l0.017-0.017 0.034 0.017v-0.017h0.034v-0.034l-0.017-0.017c0.021-0.006 0.038-0.017 0.051-0.034l0.017 0.017c0-0.017 0-0.034 0-0.050l0.017-0.034h0.017l0.017-0.017-0.017-0.051 0.017-0.017h0.017l0.017-0.017c0.029 0.001 0.057-0.004 0.085-0.017v-0.017c0.006-0.021 0.018-0.038 0.034-0.051l-0.017-0.034 0.034-0.034-0.017-0.034 0.017-0.018-0.017-0.017c0-0.023 0-0.045 0-0.067 0.029 0.001 0.057-0.004 0.084-0.017v-0.018l0.034-0.017 0.034 0.017h0.017l0.034-0.050v-0.017l-0.034-0.017 0.034-0.017v-0.017l0.017-0.034 0.017 0.017 0.034-0.017 0.034 0.017 0.017-0.050 0.067 0.034h0.034l-0.017 0.017c0.025 0.017 0.042 0.040 0.051 0.068h0.017c0.011 0.011 0.023 0.022 0.034 0.034v-0.050l0.051-0.017 0.034-0.051h0.034c0.012-0.011 0.023-0.022 0.034-0.034l0.051 0.017 0.016-0.034 0.068-0.017c0-0.017 0-0.034 0-0.050h0.017l0.034 0.017 0.018-0.017 0.017 0.017v0.034c0.011 0.011 0.023 0.023 0.034 0.034v0.067l0.017 0.034c0.011 0 0.023 0 0.034 0 0.043 0.019 0.072 0.055 0.084 0.102h0.017l0.017 0.017h0.051l0.017 0.017c0.006-0.021 0.017-0.038 0.034-0.051 0.035 0.002 0.068-0.003 0.101-0.017l0.034 0.034v0.017c0.021 0.006 0.038 0.017 0.051 0.034 0.022 0 0.045 0 0.068 0v0.017l0.034-0.017 0.016 0.017h0.017v0.017h0.018l0.016 0.017h0.017l0.034 0.018h-0.017l0.017 0.017v0.017l0.017 0.017c0-0.011 0-0.022 0-0.034 0.044-0.042 0.088-0.080 0.136-0.118v-0.016h0.017l0.017-0.034c0.034 0.011 0.068 0.023 0.101 0.034v-0.018l0.017 0.017h0.068v-0.034h0.016c0.017-0.017 0.034-0.034 0.051-0.050l0.034 0.034h0.017c0.021 0.019 0.038 0.042 0.051 0.068h0.051l0.017-0.017h0.034l0.034-0.017 0.017-0.034h0.051l0.034-0.050 0.034 0.017 0.051-0.017 0.017 0.017c0.017 0 0.034 0 0.051 0v0.017l0.034 0.034h0.017l0.017 0.017h0.017v-0.034h0.051l0.034-0.017 0.034 0.017h0.017l0.034 0.034h0.034l0.017 0.034c0.011 0 0.023 0 0.034 0 0.023 0.022 0.045 0.045 0.067 0.067l0.051 0.017 0.017-0.050 0.051-0.017 0.018 0.017c0.022 0 0.045 0 0.067 0l0.017-0.017 0.017 0.034c0.011 0 0.023 0 0.034 0 0.017 0.017 0.034 0.034 0.050 0.051v0.034h0.034v0.017l0.017-0.017 0.034 0.017 0.017-0.017h0.017v0.034h0.017v-0.017c0.034 0 0.068 0 0.102 0l0.017 0.017h0.017l0.067 0.034v-0.017h0.034c0.011-0.011 0.023-0.022 0.034-0.034l0.034 0.017c0.031-0.056 0.077-0.096 0.135-0.118v-0.050l-0.051-0.034v-0.034l-0.017-0.017 0.017-0.017c-0.024-0.037-0.036-0.077-0.034-0.118 0.011 0 0.022 0 0.034 0l0.017 0.017 0.017-0.034c0-0.017 0-0.034 0-0.050l0.017-0.017v-0.034c-0.021-0.026-0.049-0.043-0.084-0.051l0.017-0.034v-0.017h-0.013l-0.034-0.034-0.050 0.017-0.017-0.051 0.017-0.017h-0.017v-0.034l-0.017-0.018h-0.017l-0.017-0.017 0.017-0.017-0.034-0.050c-0.028 0-0.057 0-0.085 0-0.006-0.021-0.017-0.038-0.034-0.051h-0.017v-0.017l0.034-0.017 0.017-0.034v-0.017h-0.017v-0.017l-0.017-0.017h-0.017l-0.034-0.034-0.017 0.017-0.017-0.034-0.034 0.017h-0.034c-0.019-0.023-0.041-0.040-0.068-0.051v-0.017l0.034-0.017v-0.017l0.034-0.034v-0.034c0.013-0.016 0.030-0.028 0.051-0.034v-0.017l-0.017-0.017 0.017-0.034c0-0.017 0-0.034 0-0.051l0.017-0.017h0.017v0.017h0.017c0.012 0.031 0.029 0.060 0.051 0.085l0.051 0.017v-0.016l0.017-0.017c0-0.011 0-0.022 0-0.033l-0.017-0.017h-0.017v-0.034l0.034-0.017v-0.017l0.017-0.034h0.017l0.016-0.034c0.021-0.006 0.038-0.017 0.051-0.034v-0.017c-0.011 0-0.023 0-0.034 0l-0.017-0.034-0.016 0.017v-0.034l0.050-0.034v-0.034c0.012-0.011 0.023-0.022 0.034-0.034l-0.034-0.017v-0.034c0.011-0.011 0.023-0.023 0.034-0.034 0.035 0.001 0.069-0.005 0.102-0.017l0.034 0.017v0.017h0.034c0.029 0.023 0.052 0.052 0.068 0.085h0.017l0.017 0.017h0.034v0.034c0.054 0.021 0.11 0.032 0.169 0.034l0.017-0.017 0.034 0.017 0.017 0.034-0.017 0.017c0.021 0.019 0.038 0.042 0.051 0.068 0.033 0.014 0.067 0.020 0.101 0.017l0.017-0.050 0.051 0.017 0.050-0.017 0.034 0.017h0.034c0.021-0.006 0.038-0.017 0.051-0.034h0.017l0.017-0.017 0.017 0.017 0.034-0.017 0.017 0.034c0.032-0.017 0.066-0.022 0.102-0.017v-0.017l0.068-0.017c0.059 0.026 0.121 0.031 0.186 0.017l0.102 0.051 0.101-0.085-0.034-0.067 0.101-0.101c0.071-0.011 0.139 0.001 0.203 0.034 0.062-0.039 0.113-0.090 0.153-0.153l0.135-0.017 0.051 0.102c0.082-0.052 0.162-0.109 0.237-0.169l0.135 0.034 0.034 0.152c0.069 0.063 0.125 0.137 0.169 0.22l-0.017 0.017v0.034c0.093 0.068 0.166 0.162 0.203 0.271h-0.017l-0.017 0.034 0.017 0.017-0.017 0.017c-0.005 0.036 0 0.070 0.017 0.102 0.037 0.026 0.066 0.061 0.085 0.101h0.017v0.034l-0.017 0.017v0.017l-0.033 0.017v0.018c-0.013 0.016-0.030 0.028-0.051 0.034v0.034h-0.017l0.017 0.017-0.017 0.034 0.017 0.034-0.034 0.017 0.017 0.068h-0.017v0.034l0.017 0.017v0.034c0.017 0.054 0.052 0.095 0.101 0.118l-0.017 0.034h0.034l0.017 0.017c0 0.011 0 0.023 0 0.034h-0.017v0.017l-0.017 0.034h-0.017l0.017 0.085 0.017 0.017c0 0.011 0 0.023 0 0.034l0.017 0.034v0.068c0.011 0.011 0.023 0.023 0.034 0.034v0.017h0.017l-0.051 0.034 0.017 0.034-0.017 0.017v0.017l0.017 0.017v0.017c0.039 0.015 0.078 0.021 0.119 0.017v-0.017l0.017 0.017h0.034l0.017 0.017c0.021-0.013 0.044-0.019 0.068-0.017l0.051-0.034 0.034 0.017 0.017-0.017 0.051 0.017 0.034-0.017v0.017l0.085 0.017c0.018 0.023 0.041 0.040 0.068 0.050h0.017l0.017 0.018 0.034-0.018v-0.017l0.034 0.017v-0.017c0.029-0.001 0.057 0.004 0.085 0.017l0.034-0.017c0.017 0 0.034 0 0.050 0l0.034 0.034 0.017-0.051 0.067 0.034v0.018h0.018v0.017h0.034l0.017-0.017v0.017c0.017 0 0.034 0 0.050 0l-0.017 0.017h0.017l0.018 0.017h0.017v0.017l0.034-0.017c-0.011 0.011-0.022 0.022-0.034 0.034l0.034 0.017 0.017-0.017 0.017 0.017h-0.017l0.017 0.017-0.017 0.017 0.017 0.017v0.017l0.034-0.017 0.017 0.017h0.034v0.034c0.023 0.011 0.045 0.023 0.068 0.034l0.017 0.050 0.017 0.017v-0.050l0.017-0.034h0.017v0.034c0.017 0 0.034 0 0.051 0l0.017 0.017v-0.017l0.017 0.017v0.034h0.034l-0.017 0.017 0.034 0.034v0.017h-0.017v0.017h0.018l0.017 0.034c0.011-0.011 0.023-0.023 0.034-0.034v0.017c-0.012 0.023-0.023 0.045-0.034 0.068v0.017h0.050l0.034 0.068-0.017 0.034 0.017 0.017-0.017 0.034v0.017h0.034l-0.017-0.017 0.034-0.017 0.017 0.017h0.017l0.034-0.034 0.034 0.017 0.017-0.017-0.017-0.017h0.017l0.034-0.017 0.017 0.034c0 0.028 0 0.057 0 0.085l0.034-0.017 0.034 0.017 0.017-0.034 0.034 0.017v0.034l0.017-0.017 0.034 0.017h0.017l-0.017 0.034v0.017l-0.017 0.018v0.017h0.017l0.034-0.017v-0.034h0.051l0.017 0.034h0.034c-0.006 0.033-0.011 0.068-0.017 0.101l0.017-0.017 0.051 0.017 0.034-0.017v0.017l-0.017 0.017v0.017l0.050-0.017 0.017 0.017h0.034l0.017-0.017c-0.017-0.018-0.034-0.034-0.051-0.051l0.017-0.017h0.034l0.034 0.017c0.006 0.021 0.018 0.038 0.034 0.051h0.017l0.017-0.034 0.017 0.034 0.068 0.017v-0.017l0.034-0.034v-0.017l-0.017-0.034 0.017-0.017 0.050 0.034v0.017l-0.050 0.051c0.006 0.021 0.017 0.038 0.034 0.050l0.034-0.034 0.017 0.017v0.017h0.034l0.017-0.068 0.034-0.017 0.017 0.034-0.017 0.034 0.017 0.050c-0.013 0.017-0.029 0.028-0.050 0.034l0.017 0.034h0.034l0.017-0.034 0.101-0.017 0.051 0.050 0.017-0.017v-0.017h0.051l0.017 0.017 0.017 0.051c-0.023 0.011-0.045 0.023-0.068 0.034v0.067c0.024-0.002 0.047 0.004 0.068 0.017l0.017 0.034-0.017 0.050-0.034 0.034v0.017l0.017 0.034h0.034l0.135-0.068 0.085 0.017v-0.017l0.017-0.017h0.017c-0.006 0.036 0 0.070 0.017 0.102 0.024 0.017 0.041 0.040 0.050 0.068-0.013 0.021-0.019 0.044-0.017 0.067l-0.017 0.017h-0.034l-0.034-0.017h-0.017l-0.034 0.034c0 0.051 0 0.101 0 0.152 0.017 0.017 0.034 0.034 0.050 0.050v0.034h0.017l0.017 0.034v0.017l-0.017 0.017c-0.002 0.024 0.004 0.046 0.017 0.068 0.011 0.011 0.023 0.022 0.034 0.034v0.068l-0.017 0.017 0.017 0.051c0.132 0.068 0.25 0.161 0.338 0.271 0.059 0.036 0.116 0.076 0.169 0.118h0.017l0.017 0.017 0.017 0.051 0.067 0.051c0.016 0.026 0.027 0.055 0.034 0.085l0.017 0.017 0.034-0.017 0.051 0.034v0.017l-0.018 0.017-0.017 0.102c-0.055 0.043-0.085 0.102-0.084 0.169l0.017 0.034v0.034c-0.017 0.017-0.034 0.034-0.051 0.051l0.017 0.017-0.034 0.051c0.021 0.006 0.038 0.017 0.051 0.034l-0.034 0.085c0.015 0.039 0.020 0.078 0.017 0.118l-0.034 0.051 0.017 0.051 0.051 0.034c0.014 0.039 0.025 0.078 0.034 0.118l0.050 0.034 0.051 0.085-0.017 0.017-0.017 0.051 0.017 0.085 0.034 0.017c0.017 0.040 0.045 0.068 0.085 0.084 0.006 0.021 0.017 0.038 0.034 0.051v0.051l0.017 0.034 0.051 0.017-0.017 0.101c0.032 0.031 0.066 0.059 0.101 0.085 0.001 0.145 0.037 0.291 0.101 0.423l0.018 0.017 0.067 0.017 0.068-0.017 0.050 0.017c0.022 0.024 0.040 0.053 0.051 0.084l0.186 0.136 0.017 0.067c0.024 0.028 0.052 0.051 0.084 0.068h0.034c0.024 0.017 0.041 0.040 0.050 0.067v0.068l-0.034 0.068v0.051c0.008 0.035 0.025 0.063 0.051 0.085l-0.067 0.102 0.034 0.034-0.016 0.052c0.017 0.032 0.040 0.061 0.067 0.084 0 0.017 0 0.034 0 0.051l0.068 0.102 0.034 0.017h0.034c0.058-0.046 0.129-0.063 0.202-0.051l0.034 0.034c0.016 0.067 0.022 0.134 0.017 0.203 0.011 0.022 0.023 0.045 0.034 0.067 0 0.045 0 0.090 0 0.135l-0.050 0.085c0 0.023 0 0.045 0 0.068l0.034 0.017c-0.037 0.034-0.065 0.074-0.085 0.118 0.064-0 0.127-0.012 0.186-0.034l0.034-0.034c0.022 0.030 0.051 0.053 0.084 0.068 0.021 0.026 0.038 0.054 0.051 0.085l-0.017 0.067c-0.017 0-0.034 0-0.050 0-0.011 0.011-0.023 0.023-0.034 0.034 0 0.017 0 0.034 0 0.050l0.050 0.051v0.084l0.017 0.017-0.017 0.050-0.034 0.034c0.012 0.011 0.023 0.023 0.034 0.034l0.051-0.034 0.034 0.034 0.067 0.017c0.039 0.034 0.062 0.079 0.068 0.135h0.068l0.067 0.034h0.101l0.034 0.018c0.051 0 0.102 0 0.153 0l0.034 0.034h0.068c-0.002 0.037 0.009 0.070 0.034 0.101-0.015 0.026-0.021 0.055-0.017 0.084l0.017 0.018h0.017l0.068 0.034 0.051-0.017 0.017-0.034v-0.017c-0.017-0.017-0.034-0.034-0.050-0.050v-0.017c0.042-0.026 0.087-0.043 0.135-0.051l0.051 0.017v-0.017l0.017-0.017-0.017-0.085 0.017-0.017h0.017l0.034 0.017c0 0.034 0 0.068 0 0.101h0.017l0.017 0.017v-0.017l0.034-0.067 0.034-0.017c0.029 0.028 0.057 0.056 0.085 0.084l0.203-0.017c0.126-0.080 0.233-0.192 0.305-0.322-0.013-0.097-0.023-0.186-0.034-0.288h0.017c0.006-0.113 0.011-0.226 0.017-0.338 0.235-0.301 0.461-0.621 0.661-0.932 0.051-0.051 0.101-0.101 0.152-0.152 0.012-0.050 0.017-0.101 0.017-0.153 0.123-0.156 0.235-0.319 0.338-0.491 0.081-0.035 0.166-0.051 0.254-0.051l0.051-0.034h0.017c0.080-0.060 0.149-0.134 0.203-0.22h0.017v-0.017c0.050-0.079 0.121-0.143 0.203-0.186 0.673-0.216 1.104-0.714 1.269-1.405h0.017c0.22-0.16 0.487-0.23 0.761-0.203l0.017 0.152 0.084 0.068c0.063 0.237 0.057 0.492-0.017 0.728 0.085-0.003 0.159 0.008 0.237 0.034l0.017-0.018c0.022 0.012 0.045 0.023 0.068 0.034v-0.017l0.051 0.017 0.017 0.017c0.069-0.010 0.125-0.038 0.169-0.085l0.034 0.034 0.034-0.017c0.023 0 0.045 0 0.068 0l0.050-0.034c0.023 0.023 0.045 0.045 0.069 0.068v-0.018l-0.017-0.034v-0.017l0.017-0.017v0.017h0.017l0.017-0.017h0.017l0.017-0.017 0.085-0.017 0.017 0.034h0.017l-0.017 0.034h0.017l0.017-0.017 0.017 0.017h0.017l0.017 0.017v0.017l0.051 0.034c0.085 0.233 0.221 0.457 0.389 0.643l0.017-0.017c0.021 0.006 0.038 0.018 0.051 0.034h0.034v0.017l0.067 0.017v0.017l0.017 0.017v0.017l-0.017 0.017h-0.017v0.017h0.051l0.017 0.034 0.897 0.406 0.034 0.067c0.072 0.035 0.138 0.074 0.203 0.118 0.017 0 0.034 0 0.051 0v-0.017c0.037-0.018 0.077-0.024 0.118-0.017l0.034 0.017 0.017-0.017 0.034 0.017 0.017-0.017h0.034c0.017 0.017 0.034 0.034 0.051 0.051h0.017l0.050 0.034h0.068l0.034 0.017h0.034c0.063-0.050 0.138-0.074 0.22-0.068l0.017 0.017 0.017-0.017 0.050 0.017 0.017 0.017 0.017-0.017c0.028 0 0.057 0 0.085 0l0.034 0.017 0.084-0.034c0.049 0.007 0.089 0.030 0.119 0.068h0.034c0.017 0.017 0.034 0.034 0.050 0.051 0.025 0.077 0.024 0.159 0 0.237-0.059 0.032-0.104 0.078-0.135 0.135l-0.017 0.135-0.051 0.068c0.399 0.131 0.794 0.272 1.185 0.423 0 0.034 0 0.067 0 0.101 0.011 0 0.023 0 0.034 0v-0.034h0.017v-0.017c0.006-0.021 0.017-0.038 0.035-0.051 0-0.023 0-0.045 0-0.068l0.034-0.034 0.034 0.017 0.035-0.034 0.017 0.017 0.017-0.034v-0.034h0.017v-0.017l-0.017-0.017c0.011-0.011 0.023-0.023 0.034-0.034v-0.017l-0.017 0.017v-0.034l0.017-0.017c0.028 0 0.056 0 0.084 0 0.014 0.027 0.020 0.055 0.017 0.085h0.034l-0.017 0.017 0.017 0.017h-0.017l0.017 0.051c-0.015 0.026-0.027 0.054-0.034 0.084l-0.017 0.017v0.017l-0.017 0.034h0.017c0.011-0.011 0.023-0.022 0.034-0.034l0.017 0.034h0.017l0.034-0.034c0-0.023 0-0.045 0-0.068l0.017-0.017c-0.015-0.027-0.021-0.055-0.017-0.085l0.034-0.017-0.017-0.017 0.017-0.034-0.017-0.034 0.034-0.034 0.034 0.017c0 0.011 0 0.023 0 0.034l-0.034 0.034v0.017c0.024 0.002 0.046-0.004 0.068-0.017l0.017 0.017-0.017 0.017 0.034 0.068-0.017 0.051c0.017-0.013 0.028-0.030 0.034-0.051v-0.034l0.017-0.017v-0.017c-0.007-0.021-0.018-0.038-0.034-0.051 0-0.011 0-0.022 0-0.034l0.051 0.017 0.017-0.034v-0.017l0.034-0.017v-0.017h0.034l0.034 0.017-0.017 0.017 0.033 0.067c-0.016 0.013-0.027 0.030-0.033 0.051l0.033 0.017v-0.017h0.017l0.051-0.034 0.034 0.017c0.006 0.038 0.024 0.074 0.050 0.101v0.017l-0.017 0.017v0.017l-0.017 0.017 0.017 0.017c0.002 0.029-0.004 0.058-0.017 0.085h0.017l0.017 0.017 0.017-0.017 0.017 0.017 0.084-0.152-0.017-0.051 0.017-0.034-0.017-0.034 0.017-0.017v-0.017l0.051 0.017v0.034l0.034 0.017 0.034 0.051-0.017 0.034v0.017l0.017 0.017h0.017l-0.017 0.034c0.012 0.011 0.023 0.022 0.034 0.034v0.017c0.042 0.036 0.070 0.080 0.085 0.135 0.002 0.024-0.004 0.046-0.017 0.068l0.034-0.017 0.017 0.017c-0.007-0.114-0.007-0.229 0-0.338l-0.034-0.017v-0.017l0.034-0.051h-0.017l0.084-0.034 0.051 0.017 0.017 0.017c-0.013 0.027-0.019 0.056-0.017 0.085l-0.017 0.017v0.035l0.017-0.034 0.017 0.034v-0.017l0.017 0.034h0.017l0.034-0.034v-0.034h0.050v-0.017l-0.034-0.017c0-0.011 0-0.023 0-0.034 0.047 0.007 0.092 0.002 0.135-0.017l0.017-0.017c0.034 0.011 0.068 0.022 0.101 0.034l-0.017 0.017v0.017l-0.017-0.034v0.017l0.017 0.034h-0.017c0 0.017 0 0.034 0 0.050l0.034-0.017 0.017 0.034 0.017-0.017 0.017 0.017 0.017-0.017-0.034-0.034 0.017-0.017 0.017 0.017v-0.017h0.034l0.068 0.034 0.034 0.068-0.034 0.034v0.017h-0.017l-0.035-0.017-0.017 0.017-0.017 0.050 0.050-0.017-0.017 0.017h0.017l0.017-0.017v-0.017c0.011 0 0.022 0 0.034 0l0.017 0.017 0.017-0.017h-0.017v-0.017l0.034-0.034v-0.017h0.017l-0.017 0.017 0.034-0.017h0.017l0.017 0.017c-0.006 0.021-0.017 0.038-0.034 0.050l0.017 0.101h-0.017l-0.017 0.034c0.013 0.027 0.019 0.056 0.017 0.085l0.017-0.017-0.017-0.017 0.017-0.017 0.017 0.034v-0.050h-0.017c-0.002-0.037 0.009-0.070 0.034-0.102l0.017 0.034v0.017c0-0.023 0-0.045 0-0.068h0.017l-0.017-0.017v-0.034c0.017 0 0.034 0 0.051 0l0.034-0.017v-0.017l0.050-0.017c0 0.011 0 0.023 0 0.034l0.034 0.017 0.017 0.050-0.051 0.017c0.017 0.017 0.034 0.034 0.051 0.050h-0.017l0.017 0.017-0.051 0.034 0.034-0.017 0.017 0.017-0.017 0.017 0.017 0.034v0.017h0.017l-0.017-0.017v-0.017h0.017c-0.004-0.030 0.002-0.058 0.017-0.085l-0.017-0.068 0.034 0.017c-0.012 0.080-0.023 0.159-0.034 0.237h0.017l0.017-0.034 0.035 0.034h0.017l-0.034-0.034h-0.017v-0.034l0.017-0.017c0-0.034 0-0.068 0-0.101h0.017v0.017h0.017l0.017-0.017v-0.017l0.051-0.034 0.017 0.017 0.034-0.034c0.017 0 0.034 0 0.051 0v0.017l0.034 0.067h-0.017v-0.017l-0.017 0.017c0 0.011 0 0.023 0 0.034l-0.017 0.017h0.017l-0.017 0.034-0.034 0.017v0.017l0.017 0.017 0.017-0.034 0.017 0.017v0.017h0.017v-0.017l0.017 0.017v0.017l-0.017 0.017 0.017 0.017 0.017 0.068 0.017 0.017v0.034c-0.017 0-0.034 0-0.051 0v0.017l0.051 0.034c0.011 0 0.022 0 0.034 0 0-0.017 0-0.034 0-0.050h0.017v0.017l0.017-0.017h-0.017c0-0.034 0-0.068 0-0.102l0.035-0.017c0.017 0 0.034 0 0.050 0v-0.017l-0.017-0.017v-0.017l0.017 0.017-0.017-0.034c0-0.011 0-0.023 0-0.034l0.033-0.034 0.017 0.017v0.017h0.017v-0.050l0.034-0.017c-0.017 0-0.034 0-0.051 0v-0.017c0.017 0 0.034 0 0.051 0l0.034 0.034v0.017l-0.017 0.017v0.017l0.017-0.017v0.068h-0.068l0.050 0.017 0.017 0.017-0.017 0.034h-0.017v0.017l-0.034 0.034h0.017l0.034-0.034 0.017 0.017c-0.017 0.017-0.034 0.034-0.051 0.051v0.034h0.017v-0.034l0.017-0.017v0.017l0.034-0.017v-0.034h0.017l0.017 0.051-0.017 0.017h0.017c0 0.011 0 0.022 0 0.034l-0.034 0.017c0 0.017 0 0.034 0 0.051l0.017 0.017v-0.034c0.011-0.023 0.022-0.045 0.034-0.068l0.050 0.051-0.034 0.017v0.017l0.017 0.017v-0.034l0.017-0.017v-0.034h-0.017v-0.017l-0.017-0.051 0.034-0.017h0.034l0.017 0.034-0.017-0.051 0.017-0.034c0.011 0.011 0.022 0.023 0.034 0.034 0.014 0.061 0.025 0.125 0.034 0.186l-0.017 0.034v0.003c0.017-0.017 0.034-0.034 0.051-0.050 0.004-0.030-0.002-0.058-0.017-0.085l0.017-0.085 0.050-0.017 0.017 0.017 0.017 0.051 0.034 0.017-0.017 0.017h0.017v-0.034h0.017v0.017l0.017-0.017-0.017-0.017h-0.034c-0.014-0.033-0.020-0.067-0.017-0.101h0.034l0.017 0.034 0.017-0.017-0.034-0.034 0.034-0.017v-0.017h0.017l0.034 0.017v0.017h-0.017v0.017l0.017 0.017 0.050 0.017 0.017 0.017-0.017 0.017c0.011 0.011 0.022 0.023 0.034 0.034v0.017l0.017 0.017-0.017 0.017c0-0.011 0-0.023 0-0.034l-0.034 0.017-0.017-0.034v0.017l0.017 0.034h-0.017v0.017l-0.017 0.017-0.017-0.017h-0.017l0.035 0.051-0.051 0.017 0.017 0.017h0.017l0.017 0.034v0.034l-0.035 0.034c-0.017 0-0.034 0-0.050 0l0.017 0.017-0.034 0.017h-0.017l-0.017 0.017 0.034 0.034h0.017l-0.017-0.017h0.051c0.017 0 0.034 0 0.051 0l0.050-0.034h0.017l0.017-0.017v0.051l0.017 0.017c0.011 0 0.023 0 0.034 0l0.034-0.068v-0.017l0.017-0.017c0-0.023 0-0.045 0-0.068l0.017-0.017 0.035 0.034-0.017 0.017c-0.004 0.053 0.002 0.103 0.017 0.152-0.002-0.024 0.004-0.046 0.017-0.068v0.017-0.034h0.017v0.017l0.017-0.034-0.034-0.034 0.017-0.034 0.017 0.017v-0.051l0.017-0.017h0.017v-0.017h-0.017v-0.017l0.035-0.017h0.034l0.034 0.017v0.017l0.017 0.017 0.017-0.051 0.017-0.017h0.017v-0.017h-0.017l0.067-0.017 0.017 0.034v0.034c-0.017 0.017-0.035 0.034-0.051 0.050h-0.017l-0.017-0.017c-0.017 0.017-0.034 0.034-0.051 0.050v0.017h-0.017l-0.017 0.017 0.017 0.017 0.017-0.017c0 0.011 0 0.022 0 0.034h0.017l-0.017 0.017-0.017-0.017c0.006 0.021 0.017 0.038 0.034 0.051-0.011 0-0.023 0-0.034 0l0.017-0.017-0.034 0.017h-0.017l-0.017 0.034 0.067-0.017 0.017 0.017v0.067h-0.017l-0.017-0.017-0.017 0.017 0.017 0.017v0.034l0.017-0.017v0.017l-0.017 0.034h-0.017c0.017 0.013 0.028 0.030 0.034 0.051v-0.034l0.017-0.034 0.034 0.017v-0.017l-0.017-0.017v-0.017l0.034 0.017 0.050-0.017 0.034 0.017v0.050l-0.017 0.017h-0.017l-0.017 0.018v0.034h0.017v-0.034l0.034 0.017v-0.017l0.017-0.034-0.017-0.067-0.034-0.017h0.017v-0.034h0.017l0.017-0.017h0.034c0.001 0.053 0.006 0.101 0.017 0.152l0.017 0.018h0.017c-0.015-0.027-0.021-0.055-0.017-0.085l0.017 0.017v-0.034c0.017-0.017 0.034-0.034 0.051-0.051h0.017l-0.017 0.017 0.034 0.034c0 0.028 0 0.056 0 0.084l-0.034 0.034v0.034c0.023 0 0.045 0 0.068 0l0.034 0.034 0.017-0.017-0.034-0.034h-0.051v-0.017l0.034-0.017c0-0.028 0-0.057 0-0.085l0.017-0.017 0.034 0.017c-0.002 0.024 0.004 0.046 0.017 0.067l-0.017 0.018h0.017v-0.018h0.034l-0.034-0.017 0.017-0.017c-0.010-0.028-0.027-0.050-0.051-0.067l0.034-0.034 0.017 0.017 0.034-0.034 0.017 0.017v-0.034l-0.017 0.017-0.034-0.017 0.034-0.034c-0.002-0.024 0.004-0.046 0.017-0.068h0.017v-0.017l0.051-0.017c-0.023 0-0.045 0-0.068 0v-0.034l0.034-0.017 0.017 0.017v-0.017c0.017 0 0.034 0 0.051 0l0.034-0.034v-0.017h0.017c0.021 0.006 0.038 0.017 0.051 0.034v0.085l-0.034-0.017h-0.017c-0.011 0.023-0.022 0.045-0.034 0.067l0.051-0.017-0.017 0.051-0.034 0.017-0.017-0.017 0.017 0.034-0.017 0.017-0.017-0.017v0.034l0.033-0.017v-0.017h0.017v0.017l-0.017 0.017 0.017 0.051-0.017 0.017h0.017c0.017 0.032 0.022 0.066 0.017 0.101h-0.034c-0.022 0.058-0.057 0.11-0.101 0.152v0.051l-0.033 0.034c0 0.017 0 0.034 0 0.050l0.017-0.034 0.034-0.017c0.006-0.021 0.017-0.038 0.034-0.050v-0.051c0.027-0.051 0.066-0.091 0.119-0.118 0.020-0.043 0.025-0.088 0.017-0.135 0.006-0.021 0.017-0.038 0.034-0.051h0.034l0.017 0.017-0.017 0.034c0 0.039 0 0.079 0 0.118l-0.034 0.034-0.034 0.101-0.051 0.051h0.017l0.034-0.018 0.034 0.051v0.017h0.017l-0.034-0.085 0.017-0.017 0.017-0.085h0.017l0.017 0.017 0.017 0.101-0.017 0.018h0.017v-0.034h0.017l-0.017-0.017v-0.050l-0.017-0.034c0.021-0.050 0.062-0.085 0.118-0.102h0.017l0.017-0.017v-0.017l0.017-0.017v-0.017l0.034 0.017v0.034l-0.067 0.051v0.050l0.017 0.034v0.017h0.017l0.034 0.034-0.034 0.068c0.004 0.059-0.008 0.115-0.034 0.169-0.030-0.003-0.058 0.003-0.085 0.017l-0.050 0.051 0.034 0.067-0.068 0.068 0.035 0.085h0.050c0 0.023 0 0.045 0 0.067l0.068-0.017v0.017c-0.015 0.027-0.026 0.055-0.034 0.085l-0.017 0.017-0.017 0.068-0.068 0.050 0.051 0.034v0.018l-0.101 0.084c0.028 0.029 0.056 0.057 0.084 0.085-0.003 0.064 0.009 0.126 0.034 0.186l-0.050 0.017v0.017l0.017 0.017v0.017l-0.034 0.051c0 0.023 0 0.045 0 0.068l0.017 0.017v0.034c-0.010 0.028-0.027 0.050-0.051 0.068-0.021 0.013-0.044 0.019-0.068 0.017l-0.017 0.017v0.017l-0.017 0.017c-0.011 0-0.023 0-0.034 0l-0.034-0.017c-0.049 0.019-0.1 0.024-0.153 0.017-0.011 0.011-0.023 0.023-0.034 0.034l-0.017 0.067 0.017 0.085 0.017 0.017 0.034-0.034 0.017 0.017c0.024 0.002 0.046-0.004 0.067-0.017l0.085 0.017c0.018 0.029 0.033 0.055 0.050 0.085l-0.084 0.118v0.017h0.034l0.017 0.068c-0.026 0.095-0.050 0.193-0.068 0.287-0.026 0.033-0.047 0.066-0.067 0.102v0.051l0.017 0.034v0.050c-0.023 0.023-0.045 0.045-0.068 0.068v0.017l0.034 0.017-0.034 0.034-0.051 0.017c-0.033 0.026-0.056 0.060-0.068 0.102v0.017l-0.034 0.017h-0.034l-0.017 0.050-0.034 0.018-0.034-0.018-0.017-0.034-0.051 0.017v0.017l0.034 0.034-0.017 0.084-0.017 0.018c0 0.028 0 0.056 0 0.084-0.025 0.027-0.053 0.049-0.085 0.068 0 0.017 0 0.034 0 0.050l0.034 0.017h0.017l0.050-0.068 0.034 0.017v0.017c-0.014 0.040-0.037 0.074-0.068 0.102 0 0.040 0 0.079 0 0.118h0.017l-0.017 0.034v0.034l0.017 0.034-0.017 0.034c0.013 0.017 0.030 0.028 0.051 0.034v0.017c-0.049 0.026-0.1 0.037-0.153 0.034l-0.017-0.017h-0.017l-0.017 0.017v0.034c0.011 0.011 0.023 0.023 0.034 0.034l-0.017 0.034h-0.017l-0.035 0.017 0.017 0.068c-0.043 0.001-0.083 0.012-0.119 0.034-0.017 0-0.034 0-0.050 0l-0.034 0.017v0.068l-0.017 0.017-0.035-0.067h-0.017l-0.017 0.017c0 0.017 0 0.034 0 0.050l-0.034 0.017c0 0.011 0 0.023 0 0.034l-0.035-0.017v0.017l-0.034 0.017-0.034 0.050 0.017 0.034v0.017l0.034-0.017c-0.003 0.029 0.003 0.057 0.017 0.084l0.017-0.017h0.017c0 0.034 0 0.068 0 0.101l0.017 0.034c0.021-0.006 0.038-0.017 0.050-0.034v-0.017h0.017c0 0.028 0 0.057 0 0.085h0.017l0.017 0.017h-0.017v0.017l0.034-0.017v0.017h-0.017l0.034 0.017h-0.017l-0.017 0.017-0.034-0.034h-0.034l-0.017 0.017h0.017v0.017l0.017 0.018-0.034 0.017-0.034-0.017h-0.017l0.017 0.017-0.017 0.017v0.017h0.017c-0.011 0.011-0.023 0.022-0.035 0.034l-0.017-0.017h-0.034l-0.034 0.017v0.017h0.017l0.034 0.034h-0.017c0.006 0.021 0.017 0.038 0.034 0.050v0.017l-0.034 0.017c0 0.017 0 0.034 0 0.051h0.034l0.017 0.017v0.017h-0.034v0.017h0.017l0.017 0.018-0.017 0.034-0.034-0.017-0.017 0.017v0.017l0.034 0.017-0.034 0.034 0.017 0.017-0.034 0.017v0.050l0.017 0.034-0.017 0.017v0.051l-0.017-0.017-0.050 0.017 0.017 0.068-0.017 0.017h-0.017v-0.051h-0.017l-0.017 0.034c-0.017 0-0.034 0-0.051 0l0.017 0.034 0.034-0.017v0.034l0.017 0.017-0.017 0.034c-0.017 0-0.034 0-0.051 0l0.017 0.050-0.017 0.017-0.034-0.034h-0.034l0.051 0.034v0.017l-0.034 0.017 0.034 0.017c0 0.011 0 0.023 0 0.034l-0.017-0.017h-0.034l-0.017 0.017 0.017 0.017-0.017 0.034h-0.017l-0.017-0.018-0.017 0.018v0.067c-0.017 0-0.034 0-0.051 0l0.034 0.034-0.034 0.034 0.034 0.017v0.034c-0.017 0-0.034 0-0.051 0l-0.017 0.034-0.034-0.017c0 0.017 0 0.034 0 0.051h-0.017l-0.017-0.034h-0.017l0.017 0.017v0.017l-0.034 0.017v-0.017l-0.017-0.017c-0.017 0.017-0.034 0.034-0.051 0.050h0.017v0.017h-0.017v0.017l-0.017-0.017-0.017 0.017c-0.011 0.011-0.023 0.023-0.034 0.034l-0.017-0.017v0.051h-0.017c0 0.011 0 0.022 0 0.034l0.017 0.034-0.017 0.017h-0.017v0.034h0.017l0.017 0.034h-0.035l0.017 0.018h-0.017v0.017h0.017v0.034l-0.051-0.017 0.017 0.067h-0.017v-0.017h-0.034v0.017l0.034 0.051h-0.034l0.017 0.017c-0.021 0.006-0.038 0.017-0.050 0.034h-0.035v0.020l-0.034 0.017v0.034c-0.011 0-0.022 0-0.034 0 0 0.011 0 0.022 0 0.034l0.017 0.018-0.017 0.017 0.017 0.034h-0.017c-0.006 0.021-0.017 0.038-0.035 0.051l0.017 0.017-0.017 0.017 0.017 0.017-0.017 0.017h-0.017l0.017 0.017c0 0.011 0 0.022 0 0.034l0.017-0.017 0.017 0.017-0.051 0.034c0.014 0.033 0.020 0.067 0.017 0.101l-0.034 0.017 0.017 0.017v0.034l-0.017 0.034c0 0.028 0 0.056 0 0.084l-0.034 0.017c0 0.017 0 0.034 0 0.050l-0.034 0.017 0.017 0.034-0.017 0.034-0.034 0.017-0.017 0.050c-0.023 0-0.045 0-0.068 0 0 0.023 0 0.045 0 0.068l-0.017-0.017c-0.017 0.025-0.040 0.041-0.067 0.050v0.051l-0.017 0.017h-0.017c0 0.017 0 0.034 0 0.050h-0.017v0.034l-0.017-0.017-0.017 0.034h-0.017l-0.017 0.034c-0.017 0-0.034 0-0.051 0l-0.017 0.034-0.051 0.035v0.017h-0.034l-0.017 0.017v0.017h-0.017v0.017h-0.034v0.017h-0.017l0.017-0.017h-0.034l-0.017 0.017v0.034h-0.017c0 0.017 0 0.034 0 0.050l-0.034 0.035v0.017l-0.017 0.017 0.017 0.034v0.034l0.017 0.017-0.017 0.017 0.017 0.034v0.017l-0.017 0.017-0.017-0.017-0.034 0.017 0.017 0.017-0.017 0.017v0.034l-0.017 0.017v0.017h-0.017l0.017 0.068c-0.011 0-0.023 0-0.034 0l-0.034 0.050h-0.017l-0.017 0.034-0.034-0.017v0.034c-0.011 0-0.023 0-0.034 0l-0.017 0.034-0.067 0.034 0.017 0.017-0.017 0.017v0.034l-0.017 0.034h0.017l-0.034 0.034v0.034l-0.034 0.034v0.034c-0.040 0.071-0.090 0.132-0.152 0.186-0.020 0.11-0.086 0.196-0.186 0.238-0.022 0.045-0.056 0.079-0.101 0.101-0.038-0.017-0.077-0.022-0.119-0.017l-0.034-0.017-0.017 0.017-0.017-0.034c-0.029 0.004-0.058-0.002-0.084-0.017-0.506 0.444-1.037 0.877-1.575 1.286l-0.017-0.017h-0.017l-0.017 0.017 0.017 0.035-0.050 0.034-0.017 0.034c-0.256 0.175-0.498 0.367-0.728 0.576 0 0.011 0 0.023 0 0.034 0.013 0.016 0.030 0.028 0.051 0.034h0.034v0.017c0.064-0.005 0.125 0 0.186 0.017l0.035 0.068c0.126 0.030 0.264 0.036 0.389 0.017l0.017-0.017h0.034l0.017-0.017c0.024 0.002 0.046-0.004 0.067-0.017l0.051 0.017 0.017-0.034h0.017l0.034 0.017c0.016 0.033 0.038 0.062 0.068 0.085 0 0.017 0 0.034 0 0.050 0.013 0.030 0.030 0.058 0.050 0.085v0.017c0.063 0.108 0.163 0.16 0.288 0.152 0.055 0.055 0.117 0.1 0.186 0.136 0 0.028 0 0.056 0 0.084-0.028 0.065-0.062 0.128-0.101 0.186-0.021 0.006-0.038 0.017-0.051 0.034-0.024-0.002-0.046 0.004-0.068 0.017l-0.118-0.017-0.035 0.017c-0.011 0.023-0.022 0.045-0.034 0.068-0.003 0.074 0.003 0.148 0.017 0.22 0.035 0.049 0.074 0.094 0.118 0.135v0.017l0.035 0.051c0 0.023 0 0.045 0 0.068-0.122 0.015-0.215 0.076-0.271 0.186v0.034l0.017 0.017 0.068 0.017 0.050 0.067c0.004 0.030-0.002 0.058-0.017 0.085-0.049 0.058-0.113 0.098-0.186 0.119l-0.068-0.017c-0.039 0.020-0.074 0.049-0.101 0.084-0.005 0.093 0.013 0.186 0.051 0.271l-0.017 0.017v0.017l0.017 0.034c0.031 0.011 0.060 0.028 0.084 0.050l0.017 0.051-0.017 0.067-0.017 0.017c-0.081-0.075-0.177-0.104-0.288-0.085-0.122 0.135-0.237 0.268-0.355 0.407v0.050l-0.034 0.034c-0.017 0.084-0.010 0.172 0.017 0.254-0.011 0.023-0.022 0.045-0.034 0.067-0.053 0.044-0.115 0.066-0.186 0.068-0.018 0.047-0.047 0.087-0.084 0.118-0.168 0.017-0.333 0.056-0.491 0.119h-0.118c-0.102 0.134-0.248 0.238-0.407 0.288-0.028 0.040-0.056 0.079-0.084 0.119 0 0.028 0 0.056 0 0.084l0.017 0.017c0.032 0.2 0.055 0.406 0.067 0.609-0.052 0.143-0.125 0.27-0.22 0.39v0.017c-0.098 0.079-0.179 0.177-0.237 0.287l-0.034 0.017c-0.013 0.062-0.019 0.124-0.017 0.186l0.051 0.101c0.097 0.216 0.283 0.386 0.508 0.474l0.017 0.034v0.017c-0.006 0.021-0.017 0.037-0.033 0.050 0.010 0.109 0.010 0.213 0 0.322l-0.035 0.051c0.017 0.067 0.023 0.134 0.017 0.203l-0.017 0.034-0.034 0.017v0.017l-0.017 0.017v0.051l-0.017 0.034 0.017 0.051c-0.040 0.278-0.165 0.536-0.355 0.711h-0.017c-0.087 0.107-0.127 0.234-0.118 0.372-0.031 0.058-0.076 0.103-0.135 0.136l-0.017 0.050-0.034 0.034c-0.082 0.169-0.188 0.34-0.305 0.491-0.144 0.010-0.268 0.066-0.373 0.169-0.054 0.059-0.093 0.127-0.119 0.203l-0.135 0.119c-0.017 0.12-0.069 0.23-0.152 0.322 0 0.017 0 0.034 0 0.051-0.062 0.039-0.113 0.090-0.153 0.152h-0.067l-0.017 0.102-0.051 0.017c-0.023 0.023-0.045 0.045-0.068 0.068-0.010 0.084-0.022 0.169-0.034 0.254l-0.068 0.068c-0.028 0.060-0.039 0.122-0.034 0.186h-0.017v0.017c0.026 0.029 0.043 0.063 0.051 0.101-0.024 0.017-0.041 0.040-0.051 0.068v0.051c-0.011 0.023-0.022 0.045-0.034 0.068l-0.034 0.017v0.068l-0.035 0.051v0.051l-0.017 0.017v0.034l-0.101 0.118c-0.010 0.064-0.027 0.126-0.051 0.186l-0.010 0.018c-5.398-0.349-10.797-0.817-16.186-1.185v0.017c-0.032 0.030-0.075 0.048-0.118 0.050l-0.017-0.034v-0.034l-0.017-0.034c0-0.040 0-0.079 0-0.119h-0.017c-0.015-0.069-0.043-0.131-0.085-0.186-0.037-0.004-0.070-0.015-0.101-0.034l-0.034 0.017c-0.069 0.010-0.142-0.001-0.203-0.034l-0.101 0.017c-0.034-0.017-0.068-0.034-0.102-0.051-0.015-0.034-0.038-0.062-0.068-0.084v-0.017l0.017-0.034-0.017-0.050 0.051-0.068v-0.034l-0.017-0.034-0.034-0.017v-0.051l-0.034-0.017c-0.026-0.029-0.043-0.063-0.051-0.101-0.102-0.115-0.231-0.216-0.372-0.288l-0.017 0.017c-0.039 0.013-0.078 0.019-0.118 0.017l-0.017-0.017-0.017-0.051c-0.056-0.017-0.112-0.022-0.169-0.017-0.032-0.035-0.063-0.060-0.102-0.085 0.017-0.044 0.022-0.089 0.017-0.135l-0.034-0.034c-0.028 0-0.056 0-0.085 0-0.054-0.038-0.11-0.072-0.169-0.102-0.047 0.031-0.098 0.042-0.153 0.034l-0.017-0.050 0.017-0.085c-0.010-0.065-0.039-0.124-0.084-0.169l0.017-0.118c-0.023-0.011-0.045-0.023-0.068-0.034 0.002-0.024-0.004-0.046-0.017-0.068l0.034-0.034 0.017-0.051c-0.019-0.021-0.041-0.038-0.067-0.051v-0.017l0.017-0.034v-0.035c-0.050-0.038-0.080-0.092-0.084-0.152l0.051-0.085c0-0.011 0-0.023 0-0.034l-0.034-0.068c0-0.017 0-0.034 0-0.050 0.048-0.081 0.078-0.178 0.085-0.271l-0.050-0.084c-0.031-0.019-0.065-0.030-0.101-0.034-0.046-0.048-0.063-0.115-0.051-0.186-0.101-0.093-0.181-0.189-0.254-0.304-0.045-0.272-0.106-0.529-0.186-0.796l-0.034-0.017h-0.034l-0.017-0.017c-0.050-0.249-0.161-0.48-0.322-0.677-0.053-0.039-0.11-0.073-0.169-0.101v0.017c-0.033-0.030-0.061-0.063-0.085-0.101 0-0.123-0.010-0.234-0.034-0.355l-0.050-0.051-0.018-0.068-0.034-0.017c-0.017-0.034-0.034-0.068-0.050-0.102-0.024 0.002-0.046-0.004-0.068-0.017-0.061-0.094-0.13-0.185-0.203-0.271-0.028-0.013-0.056-0.019-0.085-0.017l-0.016-0.051c-0.107-0.115-0.185-0.267-0.22-0.423v-0.22c0.070-0.143 0.184-0.263 0.322-0.339 0.041-0.048 0.064-0.106 0.068-0.169l0.017-0.017c0.028 0 0.057 0 0.085 0v-0.017l0.034-0.017c1.543-3.453 3.119-6.893 4.656-10.345l-0.017-0.017h-0.034c-0.027-0.015-0.055-0.026-0.085-0.034l-0.017-0.017v-0.017c0.050-0.050 0.090-0.107 0.118-0.169v-0.051c0.285-0.21 0.557-0.475 0.796-0.779v-0.017c-0.072 0.030-0.144 0.041-0.22 0.034-0.017 0.017-0.034 0.034-0.051 0.051l-0.051-0.017-0.067 0.085c-0.045 0.002-0.087 0.020-0.119 0.050v0.034h-0.017l-0.016 0.051-0.034 0.017c-0.036 0.005-0.069-0-0.101-0.017l-0.034 0.017-0.018 0.034-0.051 0.034h-0.034c-0.017-0.017-0.034-0.034-0.051-0.051-0.031 0.011-0.061 0.029-0.085 0.051l-0.067-0.085c-0.017 0-0.034 0-0.051 0l-0.034 0.034-0.051 0.017-0.017 0.034-0.034 0.017-0.017-0.017h-0.034c0.001 0.029-0.004 0.057-0.017 0.084l-0.018 0.018-0.016-0.018c-0.051 0.011-0.099 0.016-0.152 0.018l-0.051-0.034-0.017-0.034c-0.042-0.020-0.089-0.032-0.135-0.034l-0.017-0.017v-0.068c0.028-0.045 0.062-0.084 0.101-0.118 0.025-0.055 0.025-0.114 0-0.169-0.017-0.017-0.034-0.034-0.051-0.050h-0.034l-0.068 0.034c-0.045 0-0.090 0-0.135 0l-0.034-0.017c-0.031-0.050-0.069-0.088-0.118-0.118-0.040 0.001-0.080-0.005-0.118-0.017l-0.017-0.017-0.017-0.051c-0.024-0.017-0.041-0.040-0.051-0.067l-0.101 0.017c-0.023-0.058-0.059-0.12-0.101-0.169l-0.017-0.050 0.034-0.034v-0.017c-0.013-0.017-0.030-0.028-0.051-0.034 0-0.011 0-0.022 0-0.034l-0.034-0.034-0.051 0.051-0.034-0.068c-0.028 0-0.057 0-0.085 0v-0.017l-0.017-0.017c0.012-0.027 0.018-0.056 0.017-0.085l-0.034 0.034-0.018-0.034-0.016 0.017h-0.017l-0.017-0.034c-0.021 0.006-0.038 0.017-0.050 0.034h-0.017c-0.021-0.006-0.038-0.017-0.051-0.034l0.017-0.017-0.017-0.017h-0.017v0.017l-0.017 0.034h-0.017v-0.017h-0.067l-0.017 0.050c-0.029-0.026-0.063-0.043-0.102-0.050l0.017 0.034-0.034 0.017-0.051-0.050-0.050 0.034-0.017-0.034 0.034-0.017v-0.034h-0.017l-0.017-0.017v-0.034h-0.034l-0.034 0.051-0.034-0.017 0.017-0.034v-0.017l-0.102 0.034-0.017-0.034v-0.034l-0.034 0.017c-0.017-0.013-0.028-0.030-0.034-0.051l-0.050 0.034 0.017-0.068h-0.034l-0.017-0.051c-0.017 0-0.034 0-0.050 0l-0.051-0.034-0.017 0.017-0.017-0.034 0.017-0.017-0.034-0.034-0.017 0.017v0.017l-0.102 0.017-0.017-0.017-0.051 0.034-0.034-0.050h-0.034l0.017-0.034c-0.011-0.023-0.023-0.045-0.034-0.067v-0.085l-0.034 0.017-0.051-0.017v0.017l-0.034-0.017-0.034 0.017h-0.017c0-0.017 0-0.034 0-0.050-0.011 0-0.022 0-0.034 0-0.006-0.021-0.017-0.038-0.034-0.051l-0.017-0.050h-0.017v-0.017l-0.051-0.018v-0.017c-0.027-0.015-0.055-0.020-0.085-0.017l-0.051 0.034-0.017-0.034-0.017 0.017-0.017-0.017 0.017-0.034-0.017-0.017-0.051-0.017-0.034 0.017h-0.017v-0.051l-0.051-0.017v-0.034l0.017-0.017h-0.036l-0.034-0.034c0-0.022 0-0.045 0-0.067l0.017-0.017c-0.005-0.071 0.012-0.139 0.051-0.203l0.017-0.017v-0.051l-0.034-0.034c0.015-0.027 0.020-0.055 0.017-0.085l-0.017-0.017-0.068-0.017c-0.013-0.022-0.019-0.044-0.017-0.068l-0.017-0.034-0.034-0.017h-0.017l-0.101 0.067-0.017 0.034 0.017 0.017-0.034 0.034-0.068 0.017v0.051c-0.033 0.040-0.067 0.079-0.101 0.118l-0.051-0.068-0.034-0.017-0.051-0.085-0.067-0.017-0.034-0.067h-0.034v0.017l-0.135 0.017 0.017-0.034-0.051-0.018-0.017-0.050-0.016 0.017-0.017-0.017v-0.017l-0.017-0.017v-0.068c-0.023-0.023-0.045-0.045-0.068-0.068-0.017 0-0.034 0-0.051 0l-0.034-0.034 0.018-0.050-0.018-0.017c0.006-0.021 0.018-0.037 0.034-0.050 0-0.011 0-0.023 0-0.034l-0.034-0.017v-0.034l-0.067-0.050 0.017-0.051-0.017-0.034 0.051-0.017v-0.017l-0.067-0.051h-0.017v0.017h-0.017l-0.017-0.034h-0.017l-0.017-0.034v-0.034l-0.017 0.018-0.017-0.018-0.017 0.018h-0.017v-0.018l-0.101-0.067v-0.017l-0.017-0.017v-0.017h-0.017l-0.034-0.034v-0.017h-0.034l-0.034-0.017-0.051-0.102-0.034-0.017-0.017 0.017-0.017-0.017v-0.017l-0.050-0.050-0.051-0.017c0.001-0.029-0.004-0.058-0.017-0.085h-0.017v-0.017l-0.034-0.034v-0.034l0.017-0.017v-0.050l-0.017-0.017v-0.051h0.034l0.017-0.034c0-0.023 0-0.045 0-0.068-0.006-0.021-0.017-0.038-0.034-0.051l-0.017-0.068 0.017-0.085-0.017-0.017h-0.017l-0.017-0.050-0.050-0.017-0.034-0.051-0.034-0.017-0.017 0.017v-0.017h-0.050v-0.017c-0.050-0.020-0.096-0.048-0.136-0.085v-0.118l0.017-0.034c0-0.017 0-0.034 0-0.051h-0.017c-0.017-0.055-0.022-0.112-0.017-0.169l0.051-0.102v-0.034l-0.018-0.017 0.018-0.152-0.034-0.034h-0.017l-0.017-0.018v-0.067l-0.017-0.034c0-1.073 0-2.145 0-3.218v0zM31.932 9.448c0-0.011 0-0.023 0-0.034 0.017 0 0.034 0 0.051 0l-0.017 0.017h0.017c0.014 0.033 0.020 0.067 0.017 0.102-0.022-0.028-0.045-0.057-0.068-0.085v0zM29.629 8.517v0zM31.66 9.092v0.017h-0.017v-0.017h0.017zM29.562 8.534v0 0zM30.645 8.804h0.017v0.017h-0.017v-0.017zM31.356 9.143l-0.017-0.017 0.017-0.017 0.017 0.017h-0.017l0.017 0.017h-0.017zM31.051 9.279v0-0.017h0.017v0.017h-0.017zM27.564 8.381l0.017-0.017 0.017 0.017h-0.017v0.017l-0.017 0.017c0-0.011 0-0.023 0-0.034v0zM31.203 9.279v-0.034l0.017-0.017h0.017l-0.017 0.017v0.051h-0.017v-0.017zM29.579 8.466h0.034v0.017l0.017-0.017 0.017 0.017-0.067 0.017v-0.034h0zM31.17 9.126l-0.017 0.017h-0.017v0.034l-0.068 0.050c0.011-0.042 0.028-0.081 0.051-0.118v-0.017l0.017-0.017c0.011 0.011 0.023 0.022 0.034 0.034v0.017z"></path>
</svg>
