<?xml version="1.0" encoding="utf-8"?>
<!-- Generated by IcoMoon.io -->
<!DOCTYPE svg PUBLIC "-//W3C//DTD SVG 1.1//EN" "http://www.w3.org/Graphics/SVG/1.1/DTD/svg11.dtd">
<svg version="1.1" xmlns="http://www.w3.org/2000/svg" xmlns:xlink="http://www.w3.org/1999/xlink" width="32" height="32" viewBox="0 0 32 32">
<path d="M5.518 29.376l-0.026-0.154 0.026-0.051v-0.052c0.026 0 0.052 0 0.078 0l0.025-0.077 0.025-0.026v-0.026l0.051-0.026c0.013-0.064 0.040-0.129 0.078-0.18l0.051-0.153-0.051-0.052h0.026c0.003-0.061 0.011-0.122 0.025-0.18l0.051-0.051c0.002-0.053 0.011-0.105 0.025-0.154l0.026-0.051-0.026-0.078c-0.017-0.017-0.034-0.034-0.051-0.051 0-0.043 0-0.086 0-0.128l-0.025-0.026v-0.025l0.051-0.078c0.008-0.051 0.017-0.103 0.025-0.154 0.020-0.025 0.046-0.042 0.078-0.051 0.022-0.041 0.030-0.083 0.026-0.129l-0.026-0.051 0.026-0.026-0.026-0.051v-0.026l-0.025-0.025 0.025-0.026-0.051-0.025 0.051-0.078-0.025-0.102c0.020-0.033 0.028-0.067 0.025-0.103h0.026v-0.025c-0.017-0.041-0.042-0.075-0.077-0.103l0.026-0.026-0.026-0.051v-0.051l0.051-0.052-0.025-0.051 0.051-0.025c-0.003-0.037 0.006-0.071 0.025-0.103l0.052-0.026v-0.026l0.051-0.026-0.025-0.051 0.025-0.026h-0.025l0.025-0.026-0.025-0.026v-0.026h-0.026l0.026-0.026h-0.026c0-0.026 0-0.051 0-0.077-0.052-0.085-0.111-0.161-0.181-0.231h-0.051c-0.031-0.009-0.057-0.026-0.077-0.051l-0.025 0.026-0.026-0.026 0.026-0.052h-0.026v-0.051h-0.026v-0.025l-0.025-0.051v-0.026h0.051v-0.051l-0.026-0.051c-0.006-0.045 0.003-0.088 0.026-0.128h-0.026c0.008-0.054-0-0.106-0.025-0.154h0.025l0.026-0.026c-0.026-0.025-0.052-0.051-0.077-0.077l-0.025-0.077-0.025-0.025c0-0.052 0-0.103 0-0.155h0.025v-0.051h-0.025c0-0.026 0-0.052 0-0.078-0.018-0.017-0.035-0.034-0.053-0.051l0.026-0.051-0.026-0.052v-0.051l-0.077-0.051-0.026-0.078-0.052-0.051c-0.003-0.054-0.022-0.108-0.051-0.154l0.051-0.051c0-0.043 0-0.086 0-0.129l0.052-0.026-0.025-0.025c0.025-0.035 0.051-0.069 0.077-0.103h0.026l0.025-0.026v-0.025c-0.031-0.010-0.057-0.027-0.077-0.052l0.025-0.051 0.051-0.026 0.026-0.051v-0.026h0.026l0.076-0.077 0.051 0.026 0.026-0.102 0.051-0.026h0.051l-0.025-0.051 0.051-0.026h0.052c0.010-0.085 0.044-0.153 0.103-0.206l-0.025-0.026c0.011-0.045 0.028-0.088 0.051-0.128h0.026v-0.026l0.077 0.026 0.051-0.052-0.103-0.051v-0.026c0.048-0.027 0.091-0.062 0.128-0.103v-0.051l0.026-0.026-0.026-0.051c0.032-0.029 0.058-0.063 0.078-0.103l-0.026-0.026 0.026-0.077-0.026-0.102c0.026-0.020 0.043-0.046 0.051-0.078 0-0.026 0-0.051 0-0.077l0.051-0.026-0.025-0.026 0.052-0.026h0.025l0.026-0.026-0.026-0.049 0.051-0.026c0-0.035 0-0.069 0-0.103l0.051-0.051v-0.078l0.052-0.051v-0.154l0.206-0.18-0.025-0.051c0.025-0.020 0.042-0.046 0.051-0.077h0.051l0.025-0.051-0.025-0.077c0.016-0.035 0.034-0.069 0.052-0.103l-0.026-0.051 0.052-0.103v-0.077l0.025-0.026-0.051-0.077 0.051-0.051c0.017 0 0.034 0 0.051 0v-0.026l-0.077-0.052c0.019-0.040 0.044-0.074 0.077-0.102v-0.026l-0.026-0.026c0.017-0.017 0.035-0.034 0.051-0.051 0-0.026 0-0.051 0-0.077h0.026l0.051-0.026v-0.026l-0.078-0.051 0.078-0.026v-0.025l-0.051-0.026-0.026-0.051h0.026l0.026-0.026v-0.051l0.051-0.026 0.025-0.052-0.025-0.077 0.051-0.026v-0.052l0.026 0.026 0.026-0.026-0.026-0.026 0.026-0.051-0.026-0.051 0.026-0.026v0.026h0.025v-0.026l-0.025-0.051 0.025-0.051 0.051-0.026c0-0.026 0-0.052 0-0.078h0.025l0.052-0.026-0.052-0.026v-0.026h0.026l0.052 0.026h0.026l-0.026-0.051 0.026-0.026h0.051l0.025-0.026v-0.026h0.025l0.026-0.025v-0.051l0.026-0.052h0.025l0.051 0.026c0.060-0.038 0.103-0.090 0.129-0.153l0.051-0.026c0.034 0 0.069 0 0.103 0l0.051-0.026 0.078 0.026c0.025-0.026 0.051-0.052 0.077-0.077h0.025l0.053 0.026v0.026h0.025l0.051-0.051 0.077-0.026 0.026-0.077 0.077-0.051 0.026 0.026h0.052l0.026-0.026 0.154-0.051c0.032 0.020 0.067 0.028 0.103 0.026l0.052 0.026 0.103-0.077h0.051l0.052-0.052c0.026 0 0.051 0 0.077 0 0.041-0.023 0.084-0.040 0.129-0.051l0.025 0.026c0.042-0.067 0.087-0.139 0.129-0.206l0.051 0.026 0.052-0.026c0.010-0.031 0.027-0.057 0.051-0.078v-0.025c0.033-0.039 0.076-0.065 0.129-0.077l0.025-0.051 0.103 0.026 0.025 0.026 0.154-0.051 0.053 0.103 0.051 0.026c0.035 0 0.069 0 0.103 0l0.025-0.128 0.025-0.026 0.025-0.102h0.026c0.032-0.008 0.058-0.026 0.077-0.052l0.077-0.026 0.077-0.129v-0.026c0.040-0.019 0.074-0.044 0.103-0.077l0.026-0.078c0.051-0.019 0.102-0.027 0.154-0.026l0.026-0.102 0.051-0.052h0.051v-0.026c0.063-0.040 0.132-0.066 0.206-0.077 0.043-0.043 0.086-0.086 0.129-0.129 0.093-0.018 0.167-0.041 0.258-0.078l0.077 0.052h0.025c0.029-0.071 0.072-0.131 0.129-0.18 0.003-0.036-0.006-0.070-0.026-0.103 0.017-0.034 0.035-0.068 0.051-0.102v-0.077c0.035 0 0.069 0 0.103 0l0.129-0.155v-0.103l0.051-0.026h0.051c0-0.043 0-0.085 0-0.128l0.052-0.078 0.103-0.051 0.025-0.077 0.026-0.026h0.026v0.077c0.017 0 0.034 0 0.051 0l0.025-0.052-0.077-0.102c0-0.017 0-0.035 0-0.052 0.034 0 0.068 0 0.102 0l0.051 0.077h0.026l0.026-0.051v-0.103l0.025-0.051h0.051l0.025-0.026 0.18-0.025 0.052-0.051h0.051l0.051 0.026v0.051l0.052 0.026h0.026c0.009-0.032 0.026-0.058 0.051-0.077l0.129 0.026 0.104-0.077 0.128-0.026c0.016-0.042 0.042-0.076 0.078-0.103l0.077 0.051 0.052-0.051c0.043 0 0.085 0 0.128 0l0.052-0.026h0.025v0.026l0.026 0.025 0.103-0.025c0.040 0.023 0.083 0.040 0.128 0.051l0.078 0.078 0.077 0.026 0.052 0.051c0.017 0 0.034 0 0.051 0v-0.026c0.017 0 0.034 0 0.051 0l0.026 0.026c-0.003 0.036 0.006 0.071 0.025 0.103 0.113 0.028 0.193 0.097 0.232 0.206l0.103 0.052v-0.026l0.052-0.026c0.040 0.022 0.083 0.031 0.128 0.026l0.053-0.026h0.025v-0.077l0.103 0.026 0.051-0.103c0.121 0.047 0.237 0.029 0.334-0.051l0.025-0.051c0.135-0.048 0.272-0.032 0.386 0.051 0.026 0 0.052 0 0.077 0 0.074-0.023 0.134-0.067 0.18-0.129h0.077l0.052 0.051c0.060-0.002 0.122-0.011 0.18-0.025l0.051-0.051 0.026-0.103 0.128-0.051c0.107-0.114 0.158-0.252 0.154-0.411l0.077-0.103c0-0.043 0-0.086 0-0.129l0.052-0.103-0.052-0.025v-0.026c0.020-0.026 0.045-0.042 0.077-0.051l-0.025-0.077 0.025-0.077-0.052-0.077v-0.025l0.078-0.129v-0.078c0.034-0.034 0.068-0.068 0.102-0.102v-0.026l-0.026-0.026-0.051 0.026-0.025-0.026c0.021-0.059 0.038-0.118 0.051-0.18l-0.026-0.051v-0.051c-0.025-0.020-0.042-0.046-0.051-0.078v-0.026c-0.059-0.009-0.123-0.027-0.18-0.051l-0.078-0.103h-0.077c-0.026-0.025-0.052-0.051-0.078-0.077-0.018-0.059-0.027-0.119-0.025-0.18-0.035-0.017-0.069-0.034-0.103-0.052h-0.103l-0.051-0.051-0.026-0.103-0.077-0.077v-0.026c0.020-0.025 0.046-0.042 0.077-0.051v-0.027l0.026-0.025c0-0.034 0-0.068 0-0.103-0.043-0.043-0.086-0.086-0.129-0.129 0.004-0.053-0.005-0.104-0.025-0.154l-0.026-0.026v-0.052l0.077-0.128-0.077-0.155 0.026-0.077c-0.034-0.055-0.051-0.115-0.053-0.18l0.026-0.051v-0.026h0.077c0.005-0.080-0.012-0.158-0.051-0.232 0.018-0.050 0.027-0.101 0.025-0.153-0.017-0.018-0.034-0.035-0.051-0.052v-0.051c0.026-0.020 0.043-0.046 0.051-0.078 0.059-0.021 0.119-0.029 0.18-0.026 0.023-0.040 0.040-0.083 0.051-0.129l0.078-0.051 0.026-0.154 0.077-0.077c-0.002-0.044 0.006-0.087 0.025-0.129l0.026-0.026 0.102-0.026 0.052-0.052 0.026-0.103 0.025-0.026c0.055-0.007 0.107-0.024 0.154-0.052v-0.051c0.051-0.026 0.103-0.051 0.154-0.077 0.067-0.146 0.065-0.295 0-0.438l0.102-0.129c-0.007-0.177-0.052-0.36-0.128-0.514h-0.026c-0.050-0.171-0.068-0.337-0.051-0.514l-0.051-0.051v-0.026l-0.103-0.103c0.011-0.071 0.003-0.14-0.026-0.206l-0.129-0.129h-0.025c-0.026-0.049-0.034-0.1-0.026-0.154 0.049-0.032 0.083-0.075 0.103-0.129v-0.051c-0.061-0.025-0.106-0.069-0.128-0.129 0.022-0.061 0.068-0.107 0.128-0.129v-0.026c0.086-0.090 0.155-0.194 0.206-0.308 0.002-0.044-0.006-0.087-0.025-0.129l0.051-0.078v-0.077h0.025c0-0.026 0-0.052 0-0.077l-0.077-0.051-0.026-0.051 0.026-0.103c-0.058-0.064-0.127-0.116-0.206-0.154v-0.024h-0.026l-0.051 0.026h-0.051c0-0.069 0-0.137 0-0.206l-0.077-0.129c-0.070-0.23 0.002-0.423 0.206-0.566h0.154v-0.025l-0.077-0.052c0.009-0.032 0.026-0.057 0.051-0.077l0.078-0.026 0.051-0.052c-0.008-0.081 0.009-0.158 0.051-0.231l0.026-0.026 0.052-0.154h0.051l0.026 0.026h0.025c0.017-0.052 0.035-0.103 0.052-0.154 0.087-0.048 0.164-0.108 0.231-0.18 0-0.051 0-0.103 0-0.154 0.048-0.123 0.115-0.222 0.206-0.309-0.023-0.040-0.040-0.083-0.051-0.128 0.026-0.020 0.043-0.045 0.051-0.077v-0.051l-0.051-0.103c0-0.017 0-0.034 0-0.051 0.055-0.079 0.116-0.157 0.18-0.231h0.051l0.026-0.052c-0.003-0.036 0.006-0.070 0.026-0.102 0.118-0.060 0.211-0.145 0.282-0.258 0-0.026 0-0.051 0-0.077l0.026-0.052 0.077-0.051v-0.077l0.026-0.052 0.026 0.026h0.026v0.077l0.052 0.051c0.017 0 0.034 0 0.051 0l0.051-0.026 0.052-0.077c0.017 0 0.034 0 0.051 0v0.051l0.025 0.026 0.051-0.026 0.026-0.051v-0.052c0.040 0.023 0.083 0.031 0.128 0.026l0.104-0.077c0.033 0.039 0.076 0.065 0.128 0.077h0.026c0.058-0.031 0.118-0.056 0.18-0.077l0.129 0.026 0.025-0.026v0.026l0.026-0.051-0.026-0.077 0.051-0.026v-0.026l0.129-0.026 0.051-0.103 0.051-0.026c0-0.026 0-0.051 0-0.077 0.009-0.032 0.026-0.058 0.052-0.077h0.051c0-0.026 0-0.051 0-0.077-0.043 0-0.086 0-0.129 0v-0.051c0.026-0.026 0.052-0.051 0.078-0.077h0.129c0.078-0.042 0.168-0.060 0.256-0.051l0.051-0.026 0.052-0.077h0.025c0.004-0.054 0.022-0.109 0.051-0.155h0.025l0.053 0.026h0.025c0-0.051 0-0.103 0-0.154l0.051-0.051c0-0.035 0-0.069 0-0.103 0.037-0.033 0.082-0.059 0.129-0.077 0.043-0.046 0.077-0.097 0.102-0.154 0.046-0.043 0.098-0.077 0.155-0.103 0.019-0.051 0.027-0.102 0.026-0.154l0.077-0.077-0.026-0.077c-0.101-0.074-0.184-0.157-0.258-0.258 0.023-0.058 0.032-0.118 0.025-0.18l0.078-0.025v-0.025l-0.025-0.052v-0.128c0.042-0.044 0.085-0.087 0.128-0.129l0.051 0.026 0.051 0.103c0.059 0.075 0.14 0.122 0.232 0.128 0.065 0.098 0.151 0.166 0.257 0.206v0.026c0.077 0.066 0.162 0.118 0.258 0.154 0.042-0.008 0.086-0.017 0.128-0.026l0.078 0.051h0.102l0.052-0.051c0.061-0.003 0.121 0.005 0.18 0.026l0.025 0.026 0.026-0.026 0.051 0.026 0.077-0.026 0.102 0.051h0.026l0.102 0.051 0.025-0.025h0.026v0.103h0.026v0.026l0.077 0.051c0.035 0 0.069 0 0.103 0v0.052l0.051 0.077v0.051l0.025 0.052h-0.025l0.025 0.026-0.025 0.051v0.026l-0.025 0.052h0.025v0.077l-0.051 0.026v0.025h-0.052v0.052c-0.063 0.049-0.116 0.111-0.154 0.18v0.077c-0.122 0.157-0.23 0.369-0.283 0.566l-0.051 0.052v0.051l-0.026 0.051v0.026l0.077-0.026c0 0.043 0 0.086 0 0.129h0.026l0.025 0.052c0.052 0 0.103 0 0.154 0 0 0.051 0 0.102 0 0.153l0.051 0.052c0.020 0.041 0.029 0.084 0.026 0.128l0.051-0.026h0.051l-0.077 0.026-0.026 0.026v0.128l-0.052 0.078h-0.102v0.026l-0.026 0.025v0.026c0.034 0.018 0.069 0.035 0.103 0.052l0.051 0.128-0.025 0.18-0.026 0.026c0.020 0.025 0.046 0.042 0.078 0.051 0.043 0 0.085 0 0.128 0l0.052 0.051h0.077l0.078 0.052v0.026h-0.052l-0.025 0.026-0.025 0.129 0.051 0.051c-0.046 0.080-0.106 0.149-0.18 0.206v0.026l0.051-0.051v0.026h0.026c0.020 0.033 0.028 0.067 0.025 0.103 0.017 0.017 0.035 0.034 0.051 0.051v0.026c0.051 0.089 0.1 0.17 0.154 0.258l-0.051 0.129h-0.025v0.026h-0.026v0.026l-0.026 0.026c0.017 0.035 0.035 0.069 0.052 0.103l-0.078 0.051v0.026h0.025c0.035-0.017 0.069-0.034 0.104-0.051h0.051l0.051-0.026 0.026 0.026 0.026-0.026v0.026l0.051 0.026c0.058 0.019 0.117 0.027 0.18 0.026l0.026 0.026v0.026l-0.051 0.052 0.026 0.051-0.051 0.154-0.025 0.026 0.051 0.078v0.051c0.047 0.028 0.099 0.045 0.154 0.051-0.079 0.071-0.139 0.157-0.18 0.258 0.038 0.128 0.055 0.255 0.051 0.386l-0.051 0.026c-0.018 0.064-0.052 0.115-0.103 0.154 0 0.043 0 0.086 0 0.129l-0.051 0.102c0 0.043 0 0.086 0 0.129l-0.051 0.078v0.102l-0.052 0.052-0.025 0.077h-0.026l-0.025 0.078c-0.026 0-0.052 0-0.078 0l0.026 0.026h0.051c-0.007 0.061-0.016 0.12-0.026 0.18l0.103 0.051c0.028 0.048 0.063 0.091 0.103 0.129-0.081 0.090-0.16 0.188-0.231 0.283v0.026l-0.052 0.026v0.026c0.048 0.028 0.099 0.045 0.155 0.051v0.026l-0.051 0.026c-0.020 0.032-0.029 0.067-0.026 0.102l-0.052 0.026 0.026 0.129-0.052 0.051 0.078 0.103-0.025 0.051 0.051 0.078v0.051c0.017 0 0.034 0 0.051 0v0.025l0.025 0.026 0.025-0.051 0.052 0.025 0.128 0.18 0.026-0.025h0.025v0.051l0.051 0.026c0.006 0.062-0.003 0.122-0.026 0.18h0.128v0.051h0.026v0.026l0.025 0.026v0.052l0.103 0.051 0.051-0.051h0.026l0.025 0.077 0.052-0.026v0.077l0.102 0.052 0.026 0.077 0.026-0.026h0.026l0.051 0.077c0.026 0 0.051 0 0.077 0l0.026 0.052-0.026 0.077 0.026 0.103-0.078 0.051 0.078 0.051h0.026l0.026 0.052-0.051 0.026c0 0.035 0 0.069 0 0.103l0.051 0.026c0.005 0.045-0.003 0.088-0.026 0.128l-0.052 0.026-0.025 0.077c0.044 0.043 0.079 0.097 0.103 0.154l-0.026 0.026h-0.078l-0.026 0.026v0.026c0.035 0.053 0.068 0.102 0.103 0.154v0.026l-0.052 0.051c0 0.043 0 0.086 0 0.129l-0.025 0.026 0.025 0.051v0.051l0.078 0.052v0.102c0.017 0.035 0.034 0.069 0.051 0.103-0.005 0.056-0.023 0.107-0.051 0.154l-0.078 0.026-0.025 0.026c0.023 0.083 0.057 0.158 0.103 0.231l-0.026 0.052c0.017 0.069 0.034 0.137 0.051 0.206l-0.026 0.129c0.022 0.070 0.048 0.138 0.077 0.206l-0.026 0.077 0.078 0.078c0.022 0.1 0.013 0.194-0.026 0.283l-0.026 0.026v0.026l-0.051 0.051c0 0.043 0 0.086 0 0.129l0.077-0.026 0.052 0.051c0.017 0.101 0.051 0.196 0.102 0.283-0.030 0.115-0.038 0.239-0.026 0.36 0.065 0.132 0.15 0.244 0.258 0.335 0.006 0.087-0.002 0.172-0.026 0.257l-0.051 0.026c0.020 0.189 0.037 0.377 0.052 0.566 0.117 0.071 0.189 0.179 0.206 0.309l0.051 0.051v0.026l-0.051 0.103c0.035 0.034 0.069 0.068 0.102 0.103h0.207c0.056 0.058 0.115 0.108 0.18 0.153 0.143 0.033 0.291 0.051 0.437 0.052 0.051 0.022 0.095 0.057 0.129 0.102-0.003 0.036 0.006 0.071 0.026 0.103l0.026 0.026 0.026 0.077 0.025 0.026h0.051c0.026-0.038 0.060-0.063 0.103-0.077l0.077 0.026v0.026c-0.062 0.051-0.115 0.112-0.154 0.18h-0.026l-0.051 0.026v0.103l-0.025 0.052 0.051 0.128-0.026 0.052v0.18l0.077 0.026v0.025l-0.077 0.026v0.026l-0.025-0.026v0.052h0.025v0.026l-0.051 0.051v0.026l-0.052 0.103-0.051 0.026v0.026l-0.078 0.103 0.026 0.051c-0.040 0.065-0.057 0.133-0.052 0.206l-0.025 0.026c-0.048 0.141-0.058 0.294-0.026 0.437l-0.026 0.051-0.103 0.052 0.026 0.051-0.051 0.206-0.385 0.154-0.026 0.051c-0.055 0.034-0.115 0.051-0.181 0.052l-0.025 0.051c0.018 0.171 0.099 0.324 0.232 0.438v0.025l0.025 0.026c0 0.060 0 0.12 0 0.18-0.058 0.097-0.101 0.2-0.129 0.309l0.026 0.154 0.078 0.077c0.111 0.029 0.23 0.067 0.334 0.103 0.026 0.025 0.052 0.051 0.077 0.077 0.034 0.175 0.033 0.362 0 0.541-0.107 0.165-0.185 0.349-0.231 0.54 0.009 0.032 0.026 0.058 0.051 0.077v0.052l-0.026 0.026v0.026l-0.128-0.051-0.026 0.026v0.026l-0.025 0.026h-0.051l-0.026 0.026v0.052l-0.026 0.025h-0.051c-0.026 0.045-0.051 0.084-0.078 0.128v0.026h-0.077c-0.017 0.017-0.035 0.034-0.051 0.051l-0.078 0.026c-0.020 0.025-0.045 0.042-0.077 0.051l0.025 0.103-0.025 0.026c0 0.017 0 0.034 0 0.051h-0.026v0.052l-0.103 0.026v0.026l-0.025 0.026 0.025 0.103-0.077 0.077h-0.077v-0.028c-0.009-0.032-0.026-0.057-0.051-0.077h-0.078l-0.025 0.052h0.026v0.077h-0.026l-0.025 0.026c0 0.034 0 0.068 0 0.102-0.015 0.042-0.040 0.077-0.077 0.103-0.049-0.047-0.1-0.090-0.154-0.129v-0.026l-0.052-0.051-0.051 0.026h-0.026l-0.026 0.077-0.129 0.025c-0.025 0.067-0.042 0.136-0.051 0.206l-0.103-0.026c0.008 0.054-0 0.106-0.025 0.154l-0.026 0.026h-0.025l-0.026 0.052-0.051 0.026h-0.025l-0.026-0.026h-0.051v0.051c-0.027 0.073-0.069 0.132-0.128 0.18h-0.052l-0.025 0.026h-0.025c-0.006 0.045 0.003 0.088 0.025 0.129l-0.051 0.051h-0.051c-0.020 0.026-0.046 0.043-0.078 0.052h-0.128c-0.044 0.088-0.113 0.149-0.206 0.18-0.052 0-0.103 0-0.154 0v0.026l-0.051 0.051c-0.040 0.104-0.083 0.207-0.129 0.309l-0.025-0.026c-0.045 0.066-0.096 0.126-0.154 0.18h-0.051l-0.026 0.077h-0.025v0.026l-0.026 0.025v0.051l-0.025 0.051h-0.026l-0.025 0.103-0.051 0.026v0.103l-0.078 0.025-0.025-0.051c-0.043 0-0.086 0-0.129 0l-0.026 0.051h-0.051v0.051c-0.061-0.001-0.121 0.007-0.18 0.026v0.052l-0.025 0.051h-0.18c-0.025 0.101-0.034 0.204-0.026 0.309-0.058 0.036-0.109 0.079-0.154 0.129h-0.025l-0.077 0.077v0.077l-0.077 0.077-0.051 0.231h-0.051l-0.052-0.026h-0.025l-0.051 0.052-0.077 0.026c-0.010 0.031-0.027 0.057-0.052 0.077h-0.026l-0.051-0.051c-0.026 0-0.052 0-0.078 0l-0.051-0.077-0.104 0.077-0.102-0.051-0.052 0.026c-0.034 0-0.069 0-0.103 0-0.129 0.096-0.277 0.131-0.437 0.102l-0.051 0.026h-0.051l-0.052-0.026h-0.025c-0.058 0.023-0.111 0.059-0.154 0.103-0.063-0.002-0.122 0.007-0.18 0.025l-0.026 0.051-0.129 0.078v0.103h-0.025c-0.078 0.045-0.158 0.098-0.231 0.154v0.103c-0.035 0.026-0.069 0.051-0.104 0.077l-0.077-0.026c-0.032 0.009-0.058 0.026-0.078 0.052l0.026 0.051-0.026 0.051-0.103 0.026-0.103-0.026-0.077 0.026-0.078-0.026c-0.042 0.060-0.085 0.119-0.129 0.18l-0.025-0.026-0.051 0.026c-0.060 0.009-0.119 0.017-0.18 0.026v-0.026l-0.078-0.026-0.026-0.025c0 0.034 0 0.069 0 0.103-0.041 0.054-0.094 0.098-0.154 0.128v0.078l-0.025 0.025c-0.068 0.020-0.136 0.028-0.206 0.026v-0.077l-0.052-0.077v-0.077l-0.026-0.052h-0.026l-0.051 0.052c-0.017 0-0.034 0-0.051 0l-0.078-0.103-0.051-0.025h-0.077l-0.077-0.051v-0.026c-0.057-0.088-0.067-0.188-0.026-0.282l-0.026-0.026v-0.026c-0.026-0.036-0.061-0.062-0.103-0.077-0.083 0.027-0.168 0.045-0.258 0.051v-0.077c-0.034 0-0.068 0-0.102 0v-0.025l-0.051-0.026h-0.026v-0.026h-0.025l-0.026-0.026-0.025 0.026h-0.025v0.052l-0.052-0.052h-0.051l-0.051 0.129-0.077 0.051c-0.025-0.019-0.042-0.045-0.051-0.077-0.026 0-0.052 0-0.077 0l-0.052 0.026h-0.103l-0.025 0.051c-0.017 0-0.035 0-0.052 0l-0.026-0.102h-0.025l-0.051-0.026-0.052-0.078c-0.034 0-0.068 0-0.102 0-0.097-0.146-0.214-0.29-0.334-0.411h-0.025l-0.053-0.025c-0.116 0.033-0.213 0.105-0.282 0.206-0.042 0.008-0.087 0.017-0.129 0.025-0.060 0.053-0.111 0.113-0.154 0.18-0.169 0.155-0.366 0.258-0.592 0.309-0.051 0.040-0.085 0.091-0.102 0.154-0.103 0.052-0.171 0.138-0.206 0.257 0.015 0.085 0.023 0.17 0.025 0.258l0.051 0.026h-0.026v0.025l-0.025 0.052 0.077 0.026 0.104 0.18c-0.009 0.099 0.007 0.191 0.051 0.282 0.031 0.010 0.057 0.027 0.078 0.052l0.154 0.051 0.026 0.051c0.026 0 0.051 0 0.077 0 0.053 0.045 0.101 0.085 0.154 0.129v0.026l-0.051 0.052v0.051l-0.025 0.051-0.078 0.026v0.052h-0.051c0 0.025 0 0.051 0 0.077h0.051l0.026 0.026v0.026l-0.051 0.103c0.033 0.049 0.075 0.083 0.128 0.103l0.026 0.051-0.026 0.103-0.077 0.051c-0.023 0.041-0.031 0.084-0.026 0.129-0.077 0-0.154 0-0.231 0-0.033 0.029-0.058 0.063-0.078 0.103l0.025 0.052c0.004 0.087-0.005 0.172-0.025 0.257-0.064 0.097-0.141 0.183-0.232 0.258 0 0.077 0 0.154 0 0.232-0.071 0.058-0.138 0.117-0.206 0.18l-0.026 0.078-0.051 0.051c-0.019 0.050-0.027 0.102-0.026 0.154-0.060 0-0.12 0-0.18 0-0.051-0.026-0.103-0.052-0.154-0.078h-0.051c-0.028 0.047-0.046 0.099-0.052 0.154 0.019 0.051 0.028 0.102 0.026 0.154-0.026 0.025-0.052 0.051-0.077 0.078-0.008 0.12-0.054 0.243-0.129 0.334h-0.076c-0.044 0.053-0.079 0.115-0.104 0.18h-0.025l-0.051 0.026c-0.017 0-0.034 0-0.051 0-0.064-0.028-0.124-0.062-0.181-0.103h-0.025l-0.077 0.052c-0.066-0.004-0.131-0.032-0.18-0.078-0.025-0.106-0.087-0.187-0.18-0.231h-0.052c-0.068 0.077-0.137 0.154-0.206 0.231l-0.077 0.026c-0.042-0.019-0.085-0.028-0.129-0.026-0.031 0.047-0.063 0.088-0.103 0.129-0.050 0.023-0.101 0.032-0.154 0.025l-0.103-0.077h-0.103l-0.051 0.026c-0.017 0.075-0.061 0.128-0.129 0.154-0.026 0-0.051 0-0.077 0-0.032 0.009-0.058 0.026-0.078 0.051v0.026h-0.025l0.051 0.154c-0.020 0.032-0.029 0.067-0.026 0.103l-0.077 0.026-0.103-0.026c-0.031 0.009-0.057 0.026-0.077 0.051l-0.077 0.026-0.026 0.026v0.078c-0.034 0-0.069 0-0.103 0l-0.077 0.154v0.077c-0.046 0.050-0.097 0.092-0.155 0.129l-0.025-0.052h-0.025l-0.078 0.077h-0.051l-0.026 0.026h-0.025l-0.076 0.077-0.154-0.128v-0.026c-0.058-0.019-0.118-0.028-0.18-0.026l-0.051-0.077c-0.056-0.028-0.107-0.063-0.154-0.103-0.045-0.005-0.089 0.004-0.129 0.026l-0.025-0.026c-0.129 0.004-0.258-0.005-0.386-0.026v-0.026l-0.025-0.026h-0.104c-0.050-0.045-0.078-0.113-0.077-0.18-0.067-0.026-0.135-0.043-0.206-0.051l-0.129-0.103c-0.036-0.084-0.053-0.17-0.051-0.258-0.025-0.020-0.042-0.045-0.051-0.077h-0.051l-0.052-0.025h-0.025c-0.017-0.017-0.035-0.034-0.051-0.051 0.001-0.096-0.016-0.194-0.051-0.283l0.025-0.052v-0.077l-0.025-0.051c0.047-0.079 0.108-0.148 0.18-0.206v-0.052l-0.103-0.077-0.025-0.078 0.025-0.128-0.025-0.052-0.104-0.077-0.051-0.103c-0.065-0.034-0.127-0.078-0.18-0.129v-0.128c-0.074-0.045-0.135-0.105-0.18-0.18 0-0.078 0-0.155 0-0.232-0.027-0.049-0.061-0.092-0.104-0.129h-0.025l-0.129 0.078h-0.051c-0.032 0.049-0.075 0.083-0.128 0.103-0.052 0-0.103 0-0.154 0l-0.051 0.077c0.023 0.040 0.040 0.084 0.051 0.129l-0.026 0.077c-0.062 0.071-0.139 0.123-0.231 0.155-0.123 0.002-0.234-0.033-0.334-0.103-0.086 0.024-0.172 0.049-0.256 0.078v0z"></path>
</svg>
