<?xml version="1.0" encoding="utf-8"?>
<!-- Generated by IcoMoon.io -->
<!DOCTYPE svg PUBLIC "-//W3C//DTD SVG 1.1//EN" "http://www.w3.org/Graphics/SVG/1.1/DTD/svg11.dtd">
<svg version="1.1" xmlns="http://www.w3.org/2000/svg" xmlns:xlink="http://www.w3.org/1999/xlink" width="32" height="32" viewBox="0 0 32 32">
<path d="M0 17.641h0.1c0.119-0.040 0.208-0.118 0.265-0.232h0.166c0.041-0.012 0.074-0.034 0.1-0.067h0.066l0.066-0.066c-0.029-0.052-0.040-0.108-0.033-0.166h0.033l0.033-0.033h0.068c0.076-0.062 0.131-0.138 0.166-0.232v-0.066h0.066l0.033 0.033h0.033l0.066-0.033 0.034-0.067h0.033l0.033-0.034c0.032-0.062 0.043-0.129 0.033-0.199l0.133 0.034c0.012-0.091 0.034-0.18 0.066-0.266l0.166-0.033 0.033-0.099h0.033l0.066-0.033 0.067 0.066v0.033c0.070 0.051 0.136 0.106 0.199 0.166 0.047-0.034 0.080-0.079 0.1-0.133 0-0.044 0-0.088 0-0.132l0.033-0.034h0.033v-0.099h-0.033l0.033-0.066h0.1c0.033 0.025 0.055 0.058 0.066 0.099v0.033h0.1l0.099-0.099-0.033-0.133 0.033-0.033v-0.033l0.133-0.033v-0.067h0.033c0-0.022 0-0.044 0-0.066l0.033-0.033-0.033-0.133c0.041-0.011 0.074-0.034 0.099-0.066l0.1-0.033c0.022-0.022 0.044-0.044 0.066-0.066h0.099v-0.034c0.035-0.057 0.066-0.108 0.1-0.165h0.066l0.033-0.033v-0.067l0.034-0.033h0.066l0.033-0.033v-0.033l0.034-0.033 0.166 0.066v-0.033l0.033-0.033v-0.067c-0.033-0.025-0.055-0.058-0.066-0.099 0.059-0.247 0.16-0.483 0.298-0.696 0.042-0.23 0.044-0.471 0-0.697-0.032-0.033-0.066-0.066-0.099-0.099-0.134-0.047-0.287-0.095-0.431-0.133l-0.1-0.099-0.033-0.199c0.036-0.141 0.092-0.273 0.166-0.398 0-0.077 0-0.155 0-0.232l-0.033-0.033v-0.033c-0.172-0.147-0.276-0.343-0.299-0.564l0.033-0.066c0.085-0.001 0.163-0.024 0.233-0.067l0.033-0.066c0.527-0.196 1.063-0.293 1.624-0.298l0.133 0.066h0.066c0.070 0.065 0.126 0.142 0.166 0.232 0.354-0.105 0.726-0.161 1.094-0.166l0.066-0.066 0.133 0.033 0.099-0.033 0.232-0.265h0.034l0.066 0.033c0.083-0.008 0.149-0.041 0.199-0.099 0.302 0.044 0.631 0.019 0.928-0.067 0.046 0.056 0.101 0.1 0.166 0.133h0.1l0.033 0.033h0.034c0.093 0.138 0.217 0.25 0.364 0.332h0.034c0.058 0.068 0.109 0.129 0.166 0.198 0.054 0.025 0.109 0.037 0.166 0.034 0.067 0.033 0.132 0.066 0.199 0.099h0.034c0.132 0.111 0.268 0.224 0.398 0.332-0.001 0.116 0.046 0.222 0.133 0.298h0.033l0.033 0.033h-0.033c-0.034 0.033-0.067 0.066-0.1 0.1v0.099l-0.034 0.033v0.067h0.133l0.033-0.034 0.033 0.034v0.033l0.1 0.033c0 0.033 0 0.066 0 0.099l-0.033 0.033h0.068l0.033-0.033h0.066l0.066-0.033 0.1 0.033 0.065 0.1h0.134l0.066 0.033 0.033 0.099 0.1 0.067v0.066c0.048 0.079 0.071 0.172 0.066 0.265l0.033 0.067-0.066 0.066 0.034 0.033c0.090-0.044 0.156-0.11 0.199-0.199l0.133 0.033 0.033-0.033h0.033c0.025 0.042 0.036 0.086 0.033 0.133l0.1 0.033 0.033-0.033c0.022 0 0.044 0 0.066 0 0-0.022 0-0.044 0-0.067 0.043-0.047 0.077-0.104 0.1-0.165l-0.033-0.067 0.033-0.066c0-0.022 0-0.044 0-0.066h0.033l0.034-0.033 0.033 0.033h0.033v-0.067h0.066l0.033 0.034 0.068-0.034v-0.099l0.065-0.066 0.066 0.033c0.055 0 0.111 0 0.166 0 0.029-0.053 0.039-0.108 0.033-0.166l-0.066-0.033 0.033-0.066h0.033v0.033c0.044 0 0.089 0 0.134 0l0.033-0.033v-0.034l0.033 0.034 0.066-0.034c0.022 0 0.045 0 0.068 0 0.011-0.041 0.033-0.074 0.066-0.099l-0.034-0.033 0.066-0.033h0.033v-0.034h0.068l0.033 0.067h0.066l0.067 0.132h0.034l0.066 0.067v0.033h0.033v0.033l0.1 0.033v0.1h0.033l0.033 0.066v0.066l0.066 0.033v0.067h0.066l0.034-0.067v0.067l0.033-0.033 0.033 0.033 0.1-0.033 0.067 0.033 0.066-0.033h0.1v-0.067l0.033-0.033h0.099l0.066-0.066h0.1l0.034 0.066c0.033 0 0.066 0 0.099 0l0.034-0.066-0.034-0.033 0.133-0.034 0.033-0.033v-0.033c0.022-0.022 0.044-0.044 0.067-0.066l0.066 0.099 0.033-0.033 0.034 0.033 0.033-0.033 0.034 0.033c0 0.034 0 0.067 0 0.1h0.033l-0.033 0.066c0.022 0.022 0.044 0.044 0.066 0.066l-0.066 0.1h0.099l-0.033 0.033 0.033 0.033-0.033 0.066 0.033 0.133c0.033 0.033 0.067 0.067 0.1 0.1l0.067-0.034c0.044 0 0.088 0 0.132 0v-0.033h0.067c0.1-0.077 0.198-0.154 0.298-0.232l0.066 0.033h0.033c0.021 0.054 0.055 0.098 0.1 0.133v0.033l0.033 0.033 0.199 0.033 0.033-0.033v-0.033l-0.033-0.066c0-0.044 0-0.089 0-0.133 0.048-0.052 0.104-0.096 0.166-0.132 0.058 0.015 0.113 0.037 0.166 0.066v0.066c0.022 0 0.044 0 0.066 0l0.034-0.033 0.066 0.033c0.035-0.045 0.079-0.078 0.133-0.099v-0.067l0.099-0.066v-0.099c0.056 0 0.111 0 0.166 0-0.022-0.023-0.044-0.045-0.066-0.067 0.025-0.033 0.058-0.055 0.099-0.066 0.042-0.091 0.11-0.16 0.199-0.199h0.166l0.066-0.099c0.022 0 0.044 0 0.067 0l0.034 0.033v0.066h0.033v0.066l0.066 0.067v-0.033l0.066-0.034v-0.066c-0.026-0.032-0.059-0.054-0.1-0.066l0.034-0.033v-0.034c0.032-0.026 0.054-0.059 0.066-0.099h0.034l0.033-0.099h0.034l0.065-0.034c0-0.033 0-0.066 0-0.099l0.134-0.033v-0.067l0.099-0.066 0.033 0.066 0.034-0.033 0.066 0.033c0.040-0.012 0.074-0.034 0.1-0.066v-0.066c0.13-0.065 0.259-0.119 0.398-0.166 0-0.044 0-0.089 0-0.133 0.022-0.022 0.044-0.044 0.067-0.066v-0.033l0.033-0.033h0.034l0.032-0.1 0.034-0.033v-0.066l-0.034-0.066 0.034-0.033 0.1-0.034 0.132 0.034 0.034-0.034h0.034l0.066 0.034 0.033-0.034h0.099l0.199-0.099-0.033-0.066c0.025-0.060 0.059-0.115 0.1-0.166 0.077 0 0.155 0 0.232 0l0.034-0.067c0.077 0 0.154 0 0.232 0 0.089 0.056 0.176 0.11 0.265 0.166 0.022 0.044 0.044 0.089 0.066 0.133 0.034 0 0.067 0 0.1 0l0.033 0.066 0.034-0.033c0.026 0.033 0.059 0.055 0.1 0.066h0.099l0.067 0.034v0.033l0.034 0.066h0.066v-0.033h0.032c0.064 0.033 0.12 0.077 0.166 0.132l-0.066 0.1h0.066v0.033l-0.034 0.033c0.021 0.067 0.066 0.112 0.132 0.133 0 0.022 0 0.044 0 0.066h0.033v0.033l-0.066 0.067-0.032-0.034-0.099 0.034v0.033l-0.133 0.033-0.066 0.066h-0.1l-0.066 0.066h-0.1c-0.064 0.093-0.139 0.168-0.232 0.233-0.023 0.066-0.045 0.132-0.066 0.198l-0.066 0.034c0 0.044 0 0.088 0 0.132 0.032 0.034 0.066 0.067 0.099 0.1v0.033c0.030 0.066 0.075 0.122 0.133 0.166v0.099l0.066 0.066-0.099 0.133v0.033h0.033l-0.033 0.066h-0.034l-0.032 0.034v0.033c-0.023-0.022-0.045-0.044-0.066-0.067h-0.034c-0.037 0.043-0.081 0.076-0.133 0.1l-0.033-0.033c-0.026 0.032-0.059 0.054-0.1 0.066l0.033 0.033h0.066v0.1l-0.1 0.033-0.033 0.033 0.033 0.033v0.066l-0.199 0.133h-0.1v0.033h-0.066v0.033c0.022 0 0.044 0 0.065 0l-0.032 0.034 0.032 0.033v0.033h-0.032l-0.033 0.033c-0.042 0.026-0.087 0.037-0.134 0.033 0.004 0.047-0.007 0.091-0.033 0.133h0.067v0.033l0.1-0.066c0.044 0 0.089 0 0.133 0l0.066 0.033 0.066-0.033h0.1l0.033 0.033 0.033-0.033v0.033h0.066v-0.067l0.067-0.033 0.066 0.033v0.1l0.034 0.033h0.033v0.033h0.066c0.023 0.021 0.046 0.044 0.067 0.067-0.001 0.102-0.012 0.2-0.033 0.298l0.066 0.099-0.033 0.067c0.026 0.042 0.037 0.086 0.033 0.132h-0.033l-0.033 0.067 0.033 0.066-0.067 0.033v0.033c0.027 0.032 0.060 0.054 0.1 0.067l0.099-0.034c0 0.066 0 0.133 0 0.199l0.133 0.133 0.034 0.099c0.076 0.024 0.153 0.035 0.232 0.033l0.1 0.133 0.132 0.066 0.067-0.033c0.044 0 0.088 0 0.132 0l0.033-0.033v-0.066l0.1-0.033c0.062-0.042 0.107-0.098 0.133-0.166h0.1c0.1-0.075 0.21-0.13 0.331-0.166l0.034-0.066c0.044 0 0.088 0 0.132 0l0.068 0.033c0.033-0.045 0.066-0.088 0.099-0.133h0.1v-0.033h0.032l-0.032-0.033v-0.033l0.066 0.033h0.099l-0.033-0.099 0.033-0.034c0.102-0.026 0.203-0.059 0.299-0.099v-0.066l-0.034-0.034h-0.066v-0.066h-0.033v-0.033c0.037-0.042 0.081-0.075 0.133-0.099 0-0.111 0-0.221 0-0.332l0.032-0.033c-0.007-0.058 0.005-0.114 0.034-0.166l0.133 0.033 0.033 0.033 0.033-0.033-0.033-0.033 0.033-0.066-0.033-0.1c0.036-0.045 0.079-0.078 0.132-0.099 0.089 0.044 0.177 0.088 0.266 0.133l0.066-0.034 0.033 0.034 0.066-0.034h0.1v-0.033l0.034-0.066h0.032v-0.066l-0.032-0.034 0.032-0.033c0-0.077 0-0.155 0-0.232l0.034-0.033h0.067l0.066-0.033h0.099l0.068-0.033 0.033 0.033c0.1 0 0.199 0 0.299 0 0.037 0.042 0.081 0.075 0.133 0.099 0.033 0 0.066 0 0.099 0l0.032-0.066v-0.033l-0.065-0.033v-0.033c0.058-0.064 0.125-0.119 0.199-0.166l0.033 0.033 0.034 0.099c0.128-0.037 0.264-0.048 0.398-0.033l0.066-0.033 0.165 0.033 0.1 0.1 0.034-0.033h0.033l0.066 0.066h0.1l0.033 0.033 0.033-0.066h0.034l0.067-0.067c0.044 0 0.088 0 0.132 0l0.033-0.033 0.166 0.033 0.099-0.066c0-0.033 0-0.066 0-0.099l0.034-0.033c0.058 0.007 0.113-0.004 0.165-0.034l0.067 0.034c0.022 0 0.044 0 0.066 0l0.099-0.067h0.067l0.1-0.066h0.033l0.034-0.033v-0.033c0.054-0.011 0.111-0.023 0.165-0.034v-0.033l0.068-0.033 0.033 0.033c0.067 0 0.133 0 0.199 0 0.055-0.055 0.11-0.11 0.165-0.165v-0.034l0.034-0.033c0.055 0 0.11 0 0.165 0l0.068 0.033 0.132-0.033 0.032-0.033h0.067l-0.1-0.133 0.032-0.066h0.034v-0.033l0.033-0.066-0.067 0.033-0.032-0.033v-0.033c0.059-0.062 0.083-0.147 0.067-0.233 0.033-0.033 0.066-0.066 0.099-0.099l-0.033-0.066c-0.004-0.079 0.006-0.156 0.033-0.232l0.1-0.034c0.064 0.028 0.13 0.040 0.198 0.034l0.033 0.066 0.066 0.033h0.033l0.033-0.066c0.067-0.017 0.123-0.050 0.166-0.1 0.033 0 0.066 0 0.099 0 0-0.033 0-0.066 0-0.099 0.034 0 0.067 0 0.1 0v-0.033l-0.033-0.033c0.055 0 0.111 0 0.166 0l0.1-0.1 0.199-0.066c0.089 0.033 0.176 0.066 0.265 0.099h0.033l0.067-0.033 0.066 0.033c0.089 0.014 0.179 0.037 0.265 0.067 0.040-0.013 0.074-0.035 0.1-0.067h0.033c0.138 0.118 0.282 0.228 0.431 0.332v0.066l-0.032 0.066 0.032 0.067v0.033c0.055 0.046 0.099 0.102 0.132 0.166h0.034l0.099-0.067c0.022 0.022 0.044 0.044 0.066 0.067 0.022 0 0.044 0 0.067 0v0.033h0.034l0.032-0.067 0.099 0.067 0.068-0.033 0.066 0.033h0.033l0.034 0.033c-0.022 0-0.044 0-0.066 0 0.022 0.061 0.056 0.119 0.099 0.166v0.066l0.067 0.066v0.067c-0.071 0.086-0.116 0.185-0.133 0.298h-0.033l-0.033 0.033 0.033 0.033h0.066l-0.034 0.067c0.030 0.052 0.052 0.106 0.066 0.165-0.053 0.106-0.075 0.217-0.066 0.332h-0.066v0.033l0.033 0.066c0 0.022 0 0.045 0 0.067h0.033v0.165l0.066 0.067c-0.011 0.2-0.033 0.401-0.066 0.597l-0.133 0.132c-0.119 0.306-0.223 0.64-0.298 0.962h0.034c-0.069 0.106-0.122 0.213-0.165 0.331v0.033l0.066 0.033c-0.048 0.061-0.070 0.128-0.066 0.199h0.033l0.033 0.034-0.033 0.033h-0.067l-0.033 0.033 0.068 0.066c-0.079 0.192-0.154 0.375-0.233 0.564 0 0.033 0 0.066 0 0.099l-0.034 0.033v0.067l0.034 0.066-0.034 0.033c0 0.033 0 0.067 0 0.1h-0.032l-0.034-0.034c-0.050 0.053-0.093 0.107-0.133 0.166 0 0.034 0 0.067 0 0.1-0.028 0.079-0.072 0.144-0.132 0.198l0.034 0.1-0.066 0.033-0.034 0.066 0.034 0.067v0.033c-0.033 0.025-0.055 0.058-0.067 0.099l0.033 0.067-0.099 0.132v0.067h0.032l-0.032 0.066h-0.034l-0.1 0.132c-0.002 0.081 0.009 0.158 0.033 0.233l-0.067 0.033-0.066 0.199v-0.068l-0.1-0.066c-0.077 0-0.155 0-0.232 0l-0.066-0.033-0.066 0.033-0.133-0.066c-0.201-0.014-0.407-0.061-0.597-0.133l-0.034-0.066c-0.044 0-0.088 0-0.132 0v0.033h-0.1l-0.033-0.033v-0.033h-0.033l0.033-0.067c-0.033 0-0.066 0-0.099 0v0.033h-0.067v0.034l-0.034-0.034v-0.033l-0.033 0.033v-0.033h-0.066l-0.067 0.067v-0.067c-0.023 0.021-0.045 0.044-0.066 0.067h-0.066l-0.034 0.066c-0.022 0-0.044 0-0.067 0-0.032 0.026-0.055 0.058-0.066 0.099h-0.1c-0.033 0.034-0.066 0.067-0.099 0.1-0.033 0-0.066 0-0.099 0l-0.068 0.066h-0.099l-0.033 0.067-0.068-0.034-0.033 0.034c-0.022 0-0.044 0-0.066 0l-0.066 0.034c-0.061-0.023-0.119-0.057-0.166-0.1h-0.033l0.033-0.033-0.033-0.033 0.033-0.066v-0.034l-0.033-0.066h-0.034l-0.066 0.066-0.066-0.033-0.033 0.067c-0.034 0-0.067 0-0.1 0l-0.066-0.067-0.133 0.033-0.033-0.033-0.034 0.033c-0.022 0-0.044 0-0.066 0v0.034l-0.033 0.066c-0.034 0-0.067 0-0.1 0-0.025 0.033-0.058 0.055-0.099 0.066v0.032c-0.045 0-0.089 0-0.134 0l-0.066 0.068-0.133-0.034-0.166 0.034-0.1 0.132-0.199 0.067-0.033 0.066 0.033 0.066 0.066 0.033 0.034 0.067-0.034 0.034v0.031c-0.034 0.048-0.078 0.081-0.132 0.099v0.034c-0.067 0-0.132 0-0.199 0l-0.033 0.034c-0.022 0-0.044 0-0.067 0l-0.034 0.099-0.033 0.033h-0.034v0.067l-0.066 0.066c-0.055 0-0.111 0-0.166 0v0.066l0.033 0.033c0 0.034 0 0.067 0 0.1h0.066l0.032 0.033v0.066l0.068 0.034v0.034l-0.1 0.033-0.033-0.033v0.033h-0.034v-0.033h-0.033l-0.033-0.034-0.067 0.034h-0.032v0.033l-0.034-0.033-0.033 0.033v-0.033c-0.051 0.052-0.094 0.105-0.134 0.165h-0.032l-0.066-0.034v0.034l0.034 0.034c-0.022 0.022-0.044 0.044-0.066 0.066l-0.068-0.033-0.066 0.033h-0.066l-0.034-0.033-0.034 0.066-0.033-0.033v-0.066h-0.066v0.033l-0.066 0.033v0.033h-0.036c-0.022 0.022-0.044 0.044-0.066 0.066l-0.033-0.033h-0.033l-0.033 0.067v0.033c-0.022 0.022-0.045 0.044-0.067 0.066l-0.331 0.099v0.133h0.033c0 0.022 0 0.044 0 0.066h-0.033l-0.066 0.033h-0.034l-0.066 0.034c0-0.023 0-0.045 0-0.067h-0.032v-0.033l-0.034 0.033v-0.033l-0.032 0.033-0.034-0.033v-0.033h-0.034l-0.032-0.033v0.033l-0.066-0.033-0.1-0.133c-0.109-0.064-0.23-0.086-0.364-0.066l-0.199 0.099h-0.199c-0.012-0.040-0.034-0.073-0.066-0.099h-0.1l-0.033 0.033h0.033c-0.042 0.026-0.086 0.037-0.132 0.033-0.065 0.051-0.109 0.118-0.133 0.199l0.034 0.033v0.033l-0.1 0.067v0.066l0.033 0.033v0.033h-0.033l-0.034 0.034h-0.033c-0.058-0.081-0.136-0.137-0.232-0.166l-0.099-0.166h-0.133l-0.032-0.066v0.066l-0.034-0.066 0.034-0.1c-0.058-0.113-0.147-0.191-0.265-0.232h-0.034l-0.067 0.1c-0.059 0.026-0.115 0.059-0.166 0.099l-0.032-0.033c0-0.033 0-0.066 0-0.099l0.067-0.067-0.199-0.132c-0.069 0.025-0.124 0.069-0.166 0.132 0-0.055 0-0.11 0-0.166h-0.033l-0.033-0.066c0-0.022 0-0.044 0-0.066-0.118-0.116-0.228-0.237-0.332-0.365 0-0.022 0-0.044 0-0.066h-0.066l-0.033-0.066c-0.201-0.053-0.351-0.135-0.498-0.266-0.055 0-0.11 0-0.165 0l-0.134-0.132 0.034-0.034c0-0.044 0-0.088 0-0.132h-0.1l-0.067-0.033h-0.032l-0.066-0.033-0.1 0.099-0.099-0.033c-0.079 0.028-0.138 0.087-0.166 0.166l0.034 0.034-0.033 0.032h-0.132c-0.041-0.011-0.074-0.033-0.1-0.066l0.033-0.034v-0.033l-0.132 0.067v-0.067l-0.067 0.033v-0.033c0.023-0.021 0.045-0.043 0.067-0.066 0-0.033 0-0.066 0-0.099l-0.067-0.034-0.034-0.066v-0.033c-0.050-0.054-0.092-0.106-0.132-0.166v-0.033h-0.034l-0.034-0.033v-0.066l-0.066-0.067-0.032 0.033c-0.022 0-0.044 0-0.066 0l-0.1 0.1h-0.033l-0.099 0.066 0.033 0.032v0.068l-0.067 0.066 0.034 0.033-0.034 0.199c-0.045 0.086-0.111 0.154-0.199 0.199 0.004 0.047-0.008 0.091-0.033 0.133l-0.033-0.034-0.066 0.034c-0.081 0.116-0.17 0.227-0.265 0.331v0.034l-0.067 0.067-0.033 0.099-0.066 0.033c-0.055 0-0.11 0-0.165 0l-0.034 0.066c-0.034 0-0.067 0-0.1 0l-0.066 0.034c-0.044 0-0.088 0-0.132 0-0.127 0.099-0.229 0.222-0.299 0.364 0 0.034 0 0.067 0 0.1l-0.132 0.132-0.1 0.034-0.166 0.165c-0.057-0.196-0.134-0.383-0.232-0.563l0.033-0.067c-0.033-0.128-0.101-0.243-0.198-0.331l-0.034-0.133 0.1-0.1h-0.066l-0.034-0.066 0.034-0.067c0.051-0.025 0.095-0.058 0.132-0.099 0.004-0.047-0.008-0.091-0.033-0.133l-0.099-0.099v-0.067h-0.1l-0.066 0.033h-0.033c-0.077 0.078-0.155 0.155-0.233 0.233-0.248-0.071-0.447-0.236-0.563-0.465v-0.033l0.033-0.033v-0.033c0.049-0.052 0.104-0.097 0.166-0.133 0.036-0.061 0.058-0.127 0.065-0.199-0.058-0.065-0.124-0.12-0.199-0.165l-0.199-0.034-0.099 0.034c-0.078 0.104-0.144 0.215-0.199 0.331v0.299l-0.066 0.132h-0.034l-0.066 0.033-0.132-0.066c-0.033-0.066-0.067-0.132-0.1-0.199 0.004-0.124-0.019-0.249-0.066-0.365l-0.068-0.066-0.097-0.034c-0.092-0.098-0.191-0.185-0.298-0.265-0.109-0.018-0.221-0.029-0.333-0.033-0.135 0.052-0.286 0.086-0.431 0.099-0.026-0.033-0.059-0.055-0.1-0.066l-0.067-0.133c-0.081-0.023-0.148-0.068-0.199-0.132-0.198-0.041-0.399-0.086-0.596-0.133v-0.033l-0.067-0.067c-0.022 0.023-0.044 0.045-0.066 0.067l-0.099 0.033-0.1-0.033v0.033h-0.034c-0.045-0.036-0.078-0.080-0.1-0.133 0-0.067 0-0.132 0-0.199l0.034-0.033c-0.021-0.066-0.067-0.111-0.134-0.132-0.028-0.053-0.038-0.108-0.033-0.166-0.012-0.040-0.035-0.074-0.066-0.1-0.088 0-0.177 0-0.266 0-0.044-0.044-0.088-0.088-0.132-0.132-0.078 0.002-0.158 0.014-0.232 0.033l-0.034 0.099c-0.044 0-0.088 0-0.132 0l-0.033 0.034v0.066c-0.087 0.070-0.187 0.114-0.299 0.132l-0.033 0.034-0.132 0.033c-0.023 0.021-0.045 0.043-0.067 0.066v0.033c-0.192 0.072-0.391 0.105-0.596 0.1l-0.034 0.099c0.068 0.16 0.111 0.325 0.133 0.497-0.032 0.034-0.066 0.067-0.099 0.1-0.101 0.004-0.2-0.008-0.299-0.033l-0.199 0.132h-0.066l-0.066-0.034c-0.125 0.023-0.246 0.056-0.365 0.1l-0.033 0.033c0 0.044 0 0.088 0 0.132 0.068 0.102 0.112 0.213 0.132 0.332l-0.099 0.199-0.066 0.033-0.034 0.099c-0.084 0.083-0.161 0.172-0.232 0.266-0.058 0.014-0.113 0.036-0.165 0.066-0.11 0-0.221 0-0.332 0-0.088 0.109-0.197 0.185-0.331 0.232-0.055 0-0.111 0-0.166 0l-0.032-0.066c-0.078-0.041-0.144-0.097-0.199-0.166h-0.033l-0.034-0.033c-0.033 0-0.066 0-0.099 0-0.044 0.045-0.088 0.089-0.133 0.133-0.048 0.117-0.082 0.238-0.1 0.364l0.034 0.133c-0.056 0.149-0.089 0.303-0.099 0.464l-0.068 0.066c-0.056 0.106-0.078 0.216-0.066 0.332l-0.133 0.132c-0.046 0.004-0.091-0.008-0.132-0.033l-0.1-0.101h-0.066c-0.089 0.112-0.167 0.235-0.232 0.364l-0.033-0.033c-0.088-0.045-0.179-0.045-0.266 0l-0.032 0.033-0.033 0.133h-0.033c-0.034 0.033-0.067 0.066-0.099 0.1-0.095-0.011-0.183 0.010-0.266 0.066-0.173-0.020-0.332-0.087-0.464-0.199h-0.132l-0.133 0.066c0.022-0.044 0.044-0.087 0.066-0.132v-0.1l0.067-0.033h0.034c0-0.033 0-0.066 0-0.099l-0.034-0.067 0.066-0.066-0.033-0.066 0.033-0.034-0.1-0.132 0.033-0.033h0.034v-0.034l0.099 0.034 0.066-0.034c0-0.022 0-0.044 0-0.067l0.1-0.033 0.033-0.033v-0.066h-0.033v-0.067l-0.033-0.066 0.066-0.099v-0.034l0.033-0.066c0-0.034 0-0.066 0-0.099l0.033-0.067-0.066-0.033-0.033-0.066c-0.044 0-0.088 0-0.133 0-0.052-0.039-0.107-0.073-0.166-0.1h-0.033v-0.066h-0.033l-0.066-0.032-0.066 0.032v-0.032h-0.067l-0.033-0.066-0.066-0.033 0.033-0.067-0.033-0.033v-0.1l-0.034-0.034c0-0.022 0-0.044 0-0.066-0.033-0.067-0.066-0.133-0.1-0.199v-0.166h-0.065v-0.132l-0.1-0.032v-0.068l-0.066-0.066c0-0.044 0-0.088 0-0.133h-0.033l-0.066-0.066v-0.066c-0.064 0.027-0.131 0.038-0.199 0.033v-0.066l-0.1-0.034-0.066 0.034h-0.033l-0.1 0.066-0.066-0.033 0.032-0.133-0.032-0.132c-0.067 0-0.133 0-0.199 0l-0.033 0.033v-0.033h-0.099c-0.012-0.041-0.035-0.074-0.067-0.1v-0.033c-0.032-0.025-0.055-0.058-0.066-0.099v-0.034l0.033-0.033v-0.033l0.033-0.066-0.232 0.033-0.032-0.033-0.033 0.033-0.033-0.033-0.033 0.033-0.034-0.033-0.033 0.033c-0.042-0.026-0.086-0.037-0.132-0.033l-0.033 0.033v0.033h-0.101c-0.034 0.048-0.078 0.081-0.133 0.1h-0.033l-0.099-0.067h-0.1l-0.132-0.097z"></path>
</svg>
