<?xml version="1.0" encoding="utf-8"?>
<!-- Generated by IcoMoon.io -->
<!DOCTYPE svg PUBLIC "-//W3C//DTD SVG 1.1//EN" "http://www.w3.org/Graphics/SVG/1.1/DTD/svg11.dtd">
<svg version="1.1" xmlns="http://www.w3.org/2000/svg" xmlns:xlink="http://www.w3.org/1999/xlink" width="32" height="32" viewBox="0 0 32 32">
<path d="M-0 25.72c0.014-0.012 0.039-0.022 0.042-0.036 0.054-0.339 0.239-0.368 0.467-0.464 0.030-0.094 0.057-0.178 0.084-0.262 0.015-0.047 0.054-0.103 0.040-0.139-0.139-0.355 0.19-0.649 0.13-0.995-0.005-0.032 0.094-0.108 0.154-0.119 0.11-0.021 0.221 0.013 0.219-0.172-0.001-0.113 0.257-0.222 0.387-0.226 0.085-0.003 0.168-0.061 0.266-0.076 0.084-0.033 0.172-0.056 0.249-0.101 0.104-0.060 0.193-0.152 0.301-0.2 0.102-0.045 0.211-0.163 0.341-0.031 0.016 0.016 0.097-0.017 0.137-0.044 0.099-0.067 0.184-0.158 0.289-0.213 0.087-0.046 0.224-0.149 0.236 0.082 0.002 0.039 0.066 0.11 0.095 0.107 0.087-0.009 0.204-0.022 0.248-0.081 0.105-0.138 0.195-0.175 0.368-0.112 0.097 0.036 0.232-0.024 0.348-0.049 0.183-0.039 0.366-0.078 0.545-0.13 0.049-0.014 0.087-0.071 0.125-0.113 0.053-0.059 0.102-0.122 0.16-0.193-0.121-0.233 0.017-0.455 0.274-0.566 0.165-0.071 0.277-0.268 0.406-0.414 0.012-0.014-0.015-0.074-0.036-0.105-0.096-0.139-0.184-0.286-0.3-0.407-0.059-0.062-0.168-0.089-0.258-0.104-0.219-0.038-0.441-0.057-0.661-0.089-0.045-0.007-0.1-0.061-0.129-0.047-0.066 0.031-0.118 0.091-0.192 0.152-0.047-0.107-0.046-0.339-0.289-0.269-0.057 0.016-0.086 0.132-0.126 0.199-0.078 0.016-0.192 0.012-0.275 0.061-0.12 0.070-0.222 0.115-0.321 0.014-0.061 0.088-0.115 0.167-0.177 0.257-0.19-0.11-0.369-0.214-0.549-0.319-0.053 0.087-0.088 0.143-0.13 0.212-0.045-0.056-0.081-0.101-0.117-0.145-0.004 0.014-0.007 0.027-0.011 0.041-0.098-0.022-0.251-0.013-0.282-0.071-0.058-0.106-0.045-0.251-0.066-0.409-0.059 0-0.162 0-0.283 0 0.1-0.213-0.017-0.288-0.174-0.371-0.082-0.043-0.172-0.163-0.176-0.251-0.020-0.44-0.149-0.591-0.592-0.634-0.025-0.002-0.050-0.010-0.113-0.022 0.065-0.060 0.104-0.115 0.156-0.141 0.152-0.075 0.31-0.139 0.467-0.204 0.021-0.009 0.052 0 0.077 0.005 0.149 0.030 0.297 0.066 0.448 0.090 0.036 0.006 0.090-0.011 0.115-0.038 0.094-0.1 0.169-0.219 0.27-0.31 0.058-0.051 0.152-0.083 0.231-0.084 0.146-0.002 0.291 0.031 0.438 0.037 0.036 0.002 0.078-0.037 0.112-0.063 0.145-0.111 0.291-0.221 0.43-0.339 0.063-0.054 0.098-0.154 0.168-0.184 0.158-0.070 0.322-0.052 0.475 0.043 0.035 0.022 0.116 0.037 0.125 0.022 0.102-0.158 0.249-0.064 0.376-0.079 0.105-0.012 0.214-0.026 0.309-0.067 0.124-0.054 0.209-0.065 0.273 0.080 0.016 0.037 0.102 0.083 0.131 0.070 0.16-0.074 0.312-0.167 0.469-0.249 0.16-0.083 0.323-0.161 0.503-0.251 0.047-0.131 0.104-0.254 0.326-0.239 0.113 0.008 0.231-0.129 0.355-0.18 0.061-0.025 0.141-0.006 0.213-0.005 0.052 0.001 0.112 0.026 0.154 0.008 0.29-0.121 0.574-0.258 0.865-0.375 0.215-0.087 0.466-0.112 0.651-0.238 0.255-0.174 0.42-0.119 0.589 0.091 0.002 0.003 0.012-0.001 0.018-0.001 0.183-0.204 0.384-0.236 0.522-0.077 0.129-0.279 0.296-0.118 0.446-0.038 0.064-0.073 0.123-0.14 0.185-0.211 0.167 0.25 0.425 0.254 0.654 0.019 0.131 0.172 0.321 0.159 0.474 0.082 0.25-0.125 0.468-0.314 0.716-0.442 0.11-0.057 0.294-0.089 0.389-0.035 0.166 0.094 0.295-0.004 0.439-0.005 0.091-0.001 0.167-0.039 0.237 0.083 0.081 0.141 0.336 0.125 0.532-0.003 0.044 0.029 0.088 0.068 0.14 0.088 0.054 0.021 0.114 0.023 0.193 0.037-0.012 0.075-0.002 0.158-0.038 0.21-0.146 0.214-0.151 0.21-0.028 0.4 0.104-0.062 0.206-0.127 0.311-0.184 0.027-0.015 0.066-0.012 0.098-0.009 0.336 0.028 0.33 0.026 0.434-0.299 0.016-0.051 0.113-0.077 0.173-0.114 0.36-0.217 0.831-0.238 1.098-0.624 0.028-0.041 0.107-0.046 0.162-0.069 0.513-0.218 1.027-0.436 1.54-0.655 0.006-0.003 0.011-0.008 0.018-0.009 0.598-0.126 1.065-0.54 1.631-0.738 0.056-0.020 0.111-0.043 0.168-0.064 0.445-0.162 0.888-0.328 1.335-0.483 0.168-0.058 0.113-0.194 0.089-0.281-0.023-0.085-0.114-0.167-0.196-0.217-0.059-0.036-0.16-0.042-0.228-0.019-0.096 0.034-0.138 0.036-0.177-0.072-0.016-0.045-0.111-0.061-0.155-0.083-0.092-0.271 0.145-0.375 0.257-0.557 0.166-0.271 0.424-0.439 0.614-0.709-0.061-0.081-0.133-0.178-0.232-0.31 0.025-0.101 0.063-0.251 0.105-0.415 0.050 0.008 0.102 0.031 0.147 0.021 0.068-0.015 0.164-0.031 0.084-0.145-0.012-0.017 0-0.060 0.015-0.083 0.097-0.147 0.086-0.297 0.081-0.47-0.005-0.155-0.013-0.372 0.194-0.487 0.136-0.076 0.171-0.172 0.090-0.363-0.069-0.164-0.114-0.418 0.080-0.605 0.092-0.089 0.143-0.221 0.231-0.364 0.222-0.032 0.294-0.304 0.472-0.456 0.055-0.047 0.097-0.109 0.164-0.185-0.182-0.128-0.393-0.276-0.604-0.425 0-0.029 0.001-0.058 0.001-0.088 0.091-0.034 0.183-0.068 0.275-0.101 0.016-0.006 0.043 0.005 0.053-0.004 0.287-0.255 0.647-0.227 0.985-0.224 0.156 0.001 0.213-0.125 0.213-0.16-0.004-0.267 0.165-0.419 0.293-0.583 0.015-0.123 0.031-0.246 0.044-0.354 0.141-0.045 0.363-0.076 0.367-0.126 0.014-0.147 0.135-0.123 0.192-0.187 0.013 0 0.027 0 0.040 0 0.086 0.101 0.165 0.208 0.259 0.301 0.061 0.060 0.12 0.095 0.235 0.044 0.207-0.094 0.451 0.137 0.397 0.359-0.040 0.168 0.040 0.217 0.196 0.207-0.030 0.157-0.024 0.319-0.095 0.432-0.064 0.102-0.029 0.14 0.010 0.218 0.055 0.109 0.117 0.231 0.118 0.348 0.001 0.18-0.048 0.361-0.077 0.554 0-0-0.035 0.007-0.083 0.017 0.046 0.060 0.079 0.101 0.109 0.141-0.032 0.076-0.062 0.148-0.099 0.235 0.083 0.013 0.149 0.024 0.232 0.037-0.047 0.051-0.079 0.087-0.11 0.121 0.099 0.008 0.195-0.002 0.279 0.025 0.16 0.052 0.334 0.097 0.462 0.197s0.315-0.019 0.412 0.157c0.064 0.116 0.201 0.104 0.326 0.116 0.174 0.016 0.37-0.055 0.51 0.153 0.056 0.083 0.254 0.15 0.343 0.114 0.333-0.135 0.788-0.089 1.056 0.15 0.1 0.089 0.222 0.101 0.319 0.013 0.115-0.103 0.202-0.073 0.316-0.005 0.221 0.132 0.447 0.149 0.692 0.030 0.132-0.064 0.3-0.106 0.441-0.085 0.136 0.021 0.257 0.135 0.418 0.228 0.203-0.046 0.203-0.046 0.309 0.26 0.117 0.059 0.21 0.106 0.303 0.153 0 0.173 0 0.347 0 0.52-0.019 0.002-0.048-0.002-0.056 0.008-0.16 0.217-0.316 0.438-0.478 0.655-0.068 0.090-0.136 0.187-0.224 0.253-0.159 0.119-0.189 0.282-0.195 0.458-0.009 0.259 0.195 0.561 0.426 0.669 0.038 0.018 0.068 0.104 0.064 0.156-0.071 0.927 0.028 1.835 0.29 2.726 0.081 0.274-0.016 0.49-0.278 0.609-1.544 0.703-3.088 1.408-4.634 2.107-0.454 0.205-0.919 0.383-1.371 0.591-0.078 0.036-0.176 0.168-0.163 0.236 0.035 0.179-0.061 0.204-0.185 0.259-0.237 0.105-0.469 0.222-0.512 0.53-0.009 0.065-0.105 0.163-0.166 0.167-0.173 0.012-0.238 0.122-0.304 0.249-0.036 0.069-0.081 0.134-0.122 0.201-0.010-0.021-0.020-0.042-0.029-0.062-0.078 0.026-0.175 0.030-0.23 0.081-0.343 0.319-0.418 1.168-0.146 1.534 0.008 0.011 0.016 0.030 0.024 0.030 0.173-0 0.192 0.172 0.291 0.254 0.051 0.042 0.14 0.101 0.181 0.082 0.125-0.057 0.236-0.147 0.355-0.227 0.025 0.047 0.051 0.095 0.080 0.147-0.083 0.066-0.183 0.201-0.249 0.186-0.251-0.056-0.268 0.108-0.295 0.263-0.37 0.105-0.383 0.125-0.431 0.456-0.008 0.054-0.076 0.137-0.123 0.141-0.205 0.020-0.278 0.157-0.311 0.325-0.032 0.161 0.106 0.306 0.233 0.296-0.014 0.087-0.029 0.18-0.045 0.276-0.082-0.048-0.178-0.143-0.286-0.161-0.564-0.096-1.129-0.212-1.698-0.246-0.893-0.054-1.79-0.052-2.686-0.065-0.205-0.003-0.412 0.028-0.616 0.054-0.051 0.006-0.098 0.051-0.146 0.081-0.053 0.032-0.103 0.094-0.157 0.097-0.359 0.017-0.72 0.015-1.079 0.034-0.522 0.027-1.044 0.067-1.566 0.098-0.043 0.003-0.103-0.004-0.129-0.032-0.138-0.145-0.312-0.151-0.495-0.167-0.096-0.009-0.226-0.059-0.161-0.221 0.157 0.089 0.157 0.089 0.209-0.081-0.101-0.027-0.203-0.054-0.293-0.078 0.011-0.077 0.022-0.154 0.032-0.223 0.058-0.053 0.134-0.1 0.177-0.167 0.1-0.16 0.184-0.329 0.286-0.517-0.002-0.002-0.038-0.043-0.088-0.1 0.096-0.101 0.18-0.202 0.278-0.287 0.070-0.062 0.192-0.073 0.16-0.215-0.021-0.092-0.007-0.196-0.045-0.278-0.063-0.132-0.534-0.145-0.623-0.019-0.085 0.121-0.141 0.277-0.325 0.12-0.010-0.008-0.039-0.001-0.056 0.007-0.172 0.078-0.342 0.162-0.515 0.237-0.276 0.121-0.463 0.315-0.522 0.566 0.147 0.162 0.271 0.297 0.396 0.436 0.044 0.004 0.111 0.010 0.177 0.016-0.029 0.045-0.057 0.090-0.092 0.145 0.066-0.011 0.126-0.020 0.213-0.035-0.031 0.072-0.053 0.12-0.059 0.136 0.141 0.051 0.273 0.098 0.406 0.146-0.061 0.142-0.11 0.258-0.177 0.415 0.082-0.048 0.127-0.074 0.172-0.1 0.012 0.013 0.024 0.026 0.037 0.039-0.095 0.109-0.19 0.219-0.27 0.311-0.155 0.043-0.299 0.085-0.444 0.123-0.148 0.039-0.295 0.1-0.445 0.105-0.529 0.018-1.059 0.032-1.566 0.202-0.206 0.069-0.397 0.186-0.614 0.29-0.195-0.231-0.515-0.091-0.804-0.139 0.246-0.116 0.48-0.193 0.724-0.018-0.211-0.267-0.643-0.487-0.968-0.521-0.031-0.003-0.063-0.021-0.088-0.041-0.196-0.158-0.392-0.317-0.585-0.479-0.108-0.090-0.216-0.111-0.346-0.043-0.063 0.033-0.142 0.038-0.213 0.056-0.004-0.014-0.008-0.029-0.012-0.043 0.035-0.042 0.070-0.085 0.112-0.136-0.236-0.118-0.349 0.064-0.49 0.164l0.007-0.008c-0.146 0.009-0.295 0.003-0.437 0.031-0.283 0.057-0.605 0.056-0.729 0.409-0.012 0.033-0.083 0.046-0.139 0.075 0.028-0.14 0.050-0.244 0.071-0.348-0.153 0.050-0.366 0.026-0.28 0.278 0.009 0.025-0.007 0.075-0.028 0.093-0.143 0.117-0.289 0.231-0.438 0.34-0.105 0.076-0.277 0.017-0.351 0.171-0.006 0.013-0.084-0.005-0.127-0.016s-0.090-0.055-0.122-0.044c-0.086 0.028-0.165 0.078-0.263 0.127-0.082-0.157 0.032-0.244 0.119-0.333-0.236-0.311-0.41-0.029-0.619 0.078 0-0.077 0-0.128 0-0.213-0.148 0.084-0.274 0.154-0.4 0.225-0.099-0.185-0.069-0.233 0.109-0.305 0.104-0.042 0.185-0.142 0.277-0.216-0.011-0.021-0.023-0.043-0.034-0.064-0.072-0.007-0.144-0.014-0.21-0.020-0.050-0.089 0.211-0.181-0.008-0.267-0.132-0.052-0.23-0.021-0.287 0.124 0.048 0.020 0.095 0.040 0.153 0.066-0.091 0.069-0.163 0.124-0.235 0.179 0.004-0.021 0.007-0.043 0.011-0.064-0.096-0.038-0.2-0.116-0.285-0.099-0.065 0.012-0.118 0.141-0.153 0.227-0.023 0.057 0.017 0.176-0.009 0.188-0.088 0.043-0.142 0.227-0.292 0.090-0.016-0.014-0.1 0.039-0.148 0.069s-0.099 0.106-0.133 0.098c-0.283-0.066-0.468 0.102-0.662 0.254-0.014 0.011-0.034 0.016-0.062 0.028 0.003-0.048 0.005-0.088 0.009-0.156-0.195 0.035-0.37 0.066-0.544 0.097-0.153 0.027-0.395 0.366-0.316 0.483 0.089 0.131 0.015 0.247-0.012 0.331-0.070 0.215-0.22 0.408-0.023 0.682 0.145-0.124 0.295-0.252 0.437-0.374 0.052 0.028 0.12 0.064 0.201 0.108-0.004 0.044-0.009 0.101-0.014 0.145-0.102-0.011-0.195-0.021-0.247-0.027-0.035 0.062-0.052 0.115-0.088 0.148-0.043 0.040-0.102 0.061-0.155 0.091 0.007 0.013 0.013 0.026 0.020 0.038 0.16-0.045 0.32-0.091 0.539-0.153-0.129 0.215-0.224 0.374-0.328 0.548 0.028-0.003 0.080 0.008 0.099-0.012 0.071-0.076 0.134-0.159 0.194-0.244 0.113-0.16 0.236-0.301 0.474-0.313-0.037 0.041-0.067 0.063-0.078 0.091-0.027 0.071-0.084 0.183-0.057 0.21 0.050 0.051 0.148 0.057 0.228 0.076 0.024 0.006 0.057-0.015 0.077-0.005 0.111 0.051 0.22 0.108 0.33 0.162-0.118 0.020-0.236-0.026-0.277 0.012-0.099 0.092-0.236 0.151-0.264 0.328-0.017 0.107-0.156 0.194-0.215 0.261-0.147-0.108-0.254-0.188-0.343-0.253-0.281 0.072-0.546 0.141-0.812 0.206-0.021 0.005-0.051-0.015-0.072-0.030-0.129-0.094-0.279-0.159-0.316-0.352-0.016-0.083-0.125-0.15-0.198-0.218-0.054-0.051-0.119-0.091-0.178-0.136-0.103-0.078-0.207-0.156-0.31-0.234-0.006 0.008-0.012 0.015-0.018 0.023-0.051-0.055-0.103-0.111-0.154-0.166 0-0.013 0-0.027 0-0.040zM12.737 23.816c-0.342-0.214-0.608-0.223-0.73 0.007 0.267-0.14 0.501-0.153 0.73-0.007z"></path>
<path d="M4.482 25.737c-0.037-0.026-0.074-0.052-0.104-0.074 0.037-0.088 0.072-0.172 0.109-0.261-0.132-0.006-0.228-0.010-0.324-0.015-0.010-0.021-0.021-0.041-0.031-0.062 0.241-0.138 0.538-0.207 0.656-0.528 0.043 0.107 0.067 0.165 0.097 0.24 0.131-0.139 0.229-0.275 0.358-0.365 0.064-0.045 0.19-0.024 0.28-0.001 0.046 0.012 0.075 0.094 0.137 0.181 0.017 0.002 0.089 0.009 0.168 0.017 0.019 0.051 0.039 0.104 0.060 0.158 0.11-0.060 0.21-0.115 0.346-0.19-0.063 0.148-0.103 0.241-0.164 0.383 0.108-0.046 0.159-0.067 0.193-0.082 0.080 0.052 0.151 0.098 0.249 0.161-0.082 0.039-0.157 0.075-0.245 0.117-0.084-0.178-0.197-0.192-0.343-0.075-0.041 0.033-0.112 0.030-0.187 0.048-0.006 0.040-0.014 0.098-0.020 0.135-0.145 0-0.273-0.007-0.4 0.002-0.108 0.008-0.188-0.002-0.252-0.11-0.068-0.117-0.325-0.067-0.395 0.058-0.050 0.090-0.12 0.169-0.189 0.263z"></path>
<path d="M7.214 24.678c-0.103-0.256 0.134-0.298 0.241-0.408 0.090-0.093 0.18-0.044 0.289 0.031s0.272 0.088 0.412 0.093c0.035 0.001 0.075-0.134 0.112-0.207 0.212 0.054 0.445 0.113 0.698 0.177-0.595 0.106-1.165 0.208-1.752 0.313z"></path>
<path d="M13.575 22.035c0.103 0.089 0.195 0.209 0.31 0.016 0.024-0.040 0.118-0.038 0.195-0.059-0.016 0.147-0.273 0.216-0.082 0.389-0.186 0.118-0.425-0.219-0.556 0.1-0.089-0.078-0.161-0.14-0.21-0.182 0.121-0.093 0.225-0.172 0.344-0.264z"></path>
<path d="M8.119 23.242c0.049 0 0.099 0 0.148 0 0.010 0.015 0.020 0.031 0.031 0.046-0.086 0.087-0.172 0.174-0.292 0.297-0.019-0.131-0.029-0.197-0.038-0.264 0.056-0.031 0.108-0.059 0.159-0.087 0-0-0.007 0.007-0.007 0.007z"></path>
</svg>
