<?xml version="1.0" encoding="utf-8"?>
<!-- Generated by IcoMoon.io -->
<!DOCTYPE svg PUBLIC "-//W3C//DTD SVG 1.1//EN" "http://www.w3.org/Graphics/SVG/1.1/DTD/svg11.dtd">
<svg version="1.1" xmlns="http://www.w3.org/2000/svg" xmlns:xlink="http://www.w3.org/1999/xlink" width="32" height="32" viewBox="0 0 32 32">
<path d="M1.283 14.158c0.030-0.129 0.029-0.254 0-0.382 0.165-0.326 0.435-0.477 0.792-0.465 0.333-0.296 0.637-0.627 0.901-0.982 0.205-0.084 0.382-0.215 0.519-0.383-0.007-0.092 0.002-0.183 0.027-0.272l0.054-0.027h0.164l0.054-0.027c0.098-0.135 0.171-0.281 0.219-0.438l-0.028-0.108c0.1-0.149 0.18-0.3 0.246-0.464 0.069-0.033 0.141-0.042 0.218-0.027 0.134-0.124 0.306-0.169 0.492-0.136-0.007-0.095 0.020-0.177 0.082-0.246l-0.082-0.083 0.027-0.108c0.077-0.084 0.182-0.131 0.301-0.137 0.069-0.061 0.124-0.136 0.164-0.218 0.005-0.101-0.004-0.202-0.028-0.301l0.028-0.082c0.048-0.022 0.094-0.049 0.136-0.082h0.301c0.208-0.308 0.472-0.58 0.764-0.791-0.045-0.039-0.081-0.085-0.109-0.137 0-0.037 0-0.073 0-0.109l0.055-0.082c0.164-0.037 0.328-0.073 0.492-0.109l0.027-0.027c-0.050-0.085-0.083-0.196-0.082-0.301l0.11-0.164 0.11-0.027 0.109 0.054c0.115-0.027 0.224-0.017 0.328 0.028l0.027 0.027c0.020 0.067 0.048 0.131 0.082 0.191h0.054l0.027-0.054c0.016-0.12 0.045-0.244 0.082-0.355-0.125-0.098-0.26-0.17-0.41-0.219l-0.027-0.081 0.027-0.054c0.097-0.040 0.197-0.068 0.301-0.083 0.071-0.074 0.156-0.141 0.246-0.191h0.028l0.027-0.027-0.027-0.054 0.054-0.028-0.027-0.054c0.027-0.021 0.045-0.048 0.055-0.082h0.054l0.055 0.027v0.027l-0.028 0.054v0.027l0.11 0.055h0.027l0.027-0.027c0-0.027 0-0.055 0-0.083l0.055-0.054 0.081-0.027c0.028-0.054 0.055-0.109 0.082-0.164h0.055l0.054 0.082c0.027 0 0.055 0 0.082 0 0.075-0.126 0.191-0.221 0.328-0.272v-0.056l-0.055-0.081h-0.028v-0.054l0.054-0.055h0.11l0.027-0.027c0.007-0.059 0.025-0.114 0.054-0.164 0.083 0.005 0.165 0.013 0.246 0.027 0.052-0.139 0.143-0.249 0.272-0.327h0.055l0.054 0.027c0.037 0.063 0.082 0.117 0.137 0.164 0.018-0.019 0.036-0.037 0.054-0.056l-0.027-0.108c0.050-0.051 0.118-0.079 0.191-0.083 0.060 0.037 0.123 0.064 0.191 0.083l0.027-0.056v-0.054l-0.027-0.054-0.191-0.082-0.027-0.054c0.018-0.019 0.036-0.037 0.054-0.054l0.082-0.027c0.059 0.040 0.114 0.086 0.164 0.136l0.054-0.027 0.027-0.081c0.056 0.002 0.111 0.012 0.164 0.027l0.054-0.027 0.027-0.055v-0.027l0.11-0.109c0-0.118 0-0.236 0-0.355l0.027-0.056c0.055 0 0.109 0 0.164 0l0.027-0.027c0.026-0.136 0.070-0.26 0.137-0.382h0.027l0.054 0.027 0.028 0.164 0.054 0.027c0.018 0 0.036 0 0.054 0 0.027-0.027 0.054-0.055 0.082-0.081 0.086-0.008 0.168 0.009 0.246 0.054l0.027-0.027c-0.009-0.073-0.018-0.146-0.027-0.218l0.027-0.055h0.027c0.048 0.041 0.075 0.096 0.082 0.164 0.027 0 0.054 0 0.082 0 0.036-0.097 0.080-0.185 0.137-0.273v-0.054l0.027-0.055h0.027c0.076 0.056 0.131 0.129 0.164 0.218h0.027l0.055-0.027c0.009-0.033 0.027-0.060 0.055-0.081 0.063 0 0.127 0 0.191 0l0.054-0.027v-0.055c-0.030-0.034-0.067-0.061-0.109-0.081v-0.054c0.045 0 0.091 0 0.137 0 0.027-0.028 0.054-0.055 0.082-0.083h0.027l0.082 0.054v0.028c0.035 0.075 0.091 0.132 0.164 0.164l0.054-0.028c-0.014-0.073-0.023-0.143-0.027-0.218h0.027c0.072 0.033 0.13 0.091 0.164 0.164 0.038 0.003 0.074-0.006 0.109-0.027v-0.109c0.010-0.033 0.028-0.061 0.055-0.082h0.081l0.054-0.027 0.028-0.055c-0.013-0.101 0.015-0.195 0.081-0.273-0.004-0.056 0.005-0.111 0.027-0.164l0.054-0.054h0.028l0.027 0.027c0 0.046 0 0.091 0 0.137l0.055 0.027c0.091 0 0.182 0 0.273 0 0.027-0.055 0.054-0.109 0.081-0.164l0.11-0.027 0.054-0.083v-0.081l0.027-0.056c0.061-0.026 0.125-0.035 0.191-0.027 0-0.046 0-0.091 0-0.137l0.027-0.027h0.056l0.054 0.027 0.027 0.056h0.055c0.041-0.048 0.069-0.103 0.081-0.164l0.027-0.027h0.082c0.007 0.068 0.035 0.122 0.082 0.164h0.027l0.027 0.027c0.019 0 0.037 0 0.055 0 0.040-0.043 0.085-0.079 0.136-0.11l0.055 0.027 0.054 0.136h0.054l0.055-0.027h0.027c0.037-0.027 0.073-0.054 0.109-0.083 0.027 0 0.055 0 0.082 0l0.055 0.028v0.027l0.027 0.027c0 0.046 0 0.091 0 0.137l0.027 0.027h0.028l0.054-0.137c0.037 0 0.073 0 0.109 0l0.109-0.054c0.027 0 0.055 0 0.083 0 0.034 0.052 0.079 0.087 0.136 0.108 0.027 0 0.055 0 0.083 0 0-0.036 0-0.072 0-0.108l-0.054-0.056c0-0.036 0-0.073 0-0.109 0.036 0 0.072 0 0.109 0l0.027 0.054 0.055 0.027 0.191-0.054c0.025-0.043 0.043-0.089 0.055-0.137l0.054-0.054h0.027l0.028-0.027c0.027 0.036 0.054 0.072 0.081 0.109 0.055 0 0.109 0 0.164 0v0.028l0.027 0.027h0.027c0 0.027 0 0.054 0 0.081-0.031 0.067-0.068 0.13-0.109 0.191 0 0.027 0 0.055 0 0.083 0.018 0 0.036 0 0.054 0l0.054-0.083c0.073-0.036 0.146-0.072 0.219-0.109h0.027l0.136 0.081h0.055l0.027-0.027c0.020-0.054 0.029-0.108 0.027-0.164h0.027l0.027-0.027c0.042 0.035 0.069 0.081 0.082 0.137v0.027c0.089-0.017 0.19-0.048 0.273-0.083-0.004-0.074-0.013-0.146-0.027-0.218l0.082-0.082c0.045 0 0.090 0 0.136 0l0.028 0.027c-0.027 0.060-0.064 0.115-0.11 0.164v0.081l0.027 0.027h0.027l0.11-0.082h0.027l0.027 0.054h0.027v0.054c-0.020 0.042-0.047 0.079-0.082 0.109v0.082h0.027c0.021 0.028 0.048 0.046 0.083 0.055l0.027-0.027c-0.014-0.077-0.005-0.15 0.027-0.219 0.038-0.003 0.074 0.006 0.108 0.028v0.109l0.028 0.027c0.057-0.004 0.115-0.023 0.164-0.054v-0.028l0.109-0.054h0.027l0.027 0.027c0 0.045 0 0.090 0 0.136 0.018 0 0.037 0 0.055 0l0.054-0.027c0.037 0 0.073 0 0.109 0l0.027 0.027c0.027 0 0.055 0 0.081 0v0.028h0.027c-0.009 0.044-0.019 0.091-0.027 0.136l0.055 0.028v0.027c0.036-0.037 0.072-0.073 0.109-0.109h0.027c0.032 0.049 0.051 0.106 0.055 0.164l0.027 0.027h0.027l0.054-0.054v-0.083l0.027-0.027c0.019 0 0.037 0 0.056 0l0.054 0.083 0.054 0.027h0.027l0.028-0.027 0.081-0.027 0.027-0.028c0.037 0 0.073 0 0.11 0l0.054-0.027 0.054 0.083c0.072 0.024 0.145 0.033 0.219 0.027 0-0.046 0-0.091 0-0.137l0.136-0.081c0.018 0 0.037 0 0.055 0-0.020 0.061-0.029 0.125-0.027 0.191 0.046 0.045 0.091 0.091 0.136 0.137h0.027l0.027-0.028c-0.020-0.044-0.030-0.089-0.027-0.136 0.018 0 0.037 0 0.055 0v0.027h0.027l-0.027 0.109 0.027 0.083c0.045-0.016 0.082-0.043 0.11-0.083h0.027c0.056 0.048 0.107 0.090 0.164 0.137h0.027v-0.027l0.027-0.027c-0.019-0.037-0.037-0.073-0.055-0.11 0-0.027 0-0.054 0-0.081 0.055 0 0.11 0 0.164 0l0.027-0.027 0.081 0.054-0.027 0.027-0.081 0.027-0.055 0.056v0.027c0.044 0.021 0.090 0.030 0.136 0.027l0.054 0.081h0.027v0.027h0.028c0.042-0.044 0.071-0.102 0.081-0.163 0.026-0.028 0.054-0.056 0.083-0.083h0.027l0.027 0.027-0.027 0.137c0.018 0 0.037 0 0.055 0l0.054-0.027h0.055l0.027-0.027 0.054 0.027c0 0.045 0 0.091 0 0.136l0.027 0.027h0.055l0.054-0.027c0.044 0.023 0.089 0.032 0.137 0.027l0.081-0.056h0.027v0.056l-0.054 0.027 0.027 0.027v0.027c0.034 0.010 0.061 0.028 0.083 0.054l0.054-0.027h0.081l0.056 0.027v0.055c-0.073 0-0.146 0-0.219 0 0 0.018 0 0.036 0 0.054l0.055 0.027c0.046 0 0.091 0 0.137 0l0.081 0.082c0 0.018 0 0.036 0 0.054l-0.109 0.083 0.028 0.027h0.055c0.037-0.018 0.073-0.036 0.109-0.055h0.028l0.027 0.028v0.136l0.055 0.083h0.054c0.003-0.038-0.006-0.075-0.027-0.109l0.027-0.027v-0.027c0.045 0 0.091 0 0.136 0 0.003 0.058-0.015 0.113-0.054 0.164l0.027 0.027c0.037-0.018 0.073-0.036 0.109-0.054l0.082 0.081c0.018 0 0.036 0 0.054 0 0-0.018 0-0.036 0-0.054l-0.054-0.055v-0.054c0.065 0.004 0.128-0.006 0.191-0.027v0.027c0.045 0.015 0.082 0.043 0.109 0.083h0.027l0.027-0.028 0.027-0.082 0.027-0.027h0.055l0.054 0.027v0.027l-0.022 0.055 0.027 0.055c0.027 0 0.055 0 0.082 0l0.028-0.027v-0.083c0.027 0 0.054 0 0.081 0v0.027h0.027l-0.054 0.164 0.027 0.027h0.055l0.055-0.082c0.027 0 0.054 0 0.081 0 0.004 0.057-0.005 0.111-0.027 0.164 0.010 0.033 0.028 0.060 0.054 0.081h0.027l0.028-0.054v-0.027h0.027v-0.027l0.054 0.027c0.062-0.025 0.125-0.034 0.192-0.027l0.027 0.054h0.027v0.109c0.018 0.018 0.037 0.036 0.055 0.054h0.027v0.027l0.081 0.082c0 0.027 0 0.055 0 0.082h0.055c0.025-0.064 0.073-0.112 0.136-0.137l0.055 0.027c0.002 0.047-0.007 0.093-0.027 0.137 0.045 0.016 0.081 0.043 0.109 0.083l0.082-0.055 0.055 0.027h0.027c0 0.027 0 0.055 0 0.083l0.027 0.027-0.027 0.027v0.054l0.083 0.028 0.054-0.028 0.027 0.056v0.054l0.082 0.054c0.010 0.033 0.028 0.061 0.055 0.082 0.018-0.018 0.036-0.036 0.054-0.054l0.055 0.027h0.082c0.038 0.046 0.083 0.082 0.136 0.109h0.082c0.009 0.045 0.018 0.091 0.027 0.136 0.045-0.009 0.092-0.018 0.137-0.027 0.034 0.009 0.061 0.027 0.081 0.054l-0.027 0.083 0.027 0.027h0.083c0 0.046 0 0.091 0 0.137 0.038 0.045 0.083 0.081 0.136 0.108 0 0.037 0 0.073 0 0.11l0.027 0.027v0.027h0.055l0.027-0.081 0.027-0.027c0.027 0.021 0.045 0.048 0.055 0.081l0.109 0.054h0.055l0.027 0.027-0.027 0.056 0.055 0.054-0.027 0.027 0.137 0.027 0.054 0.056c0 0.036 0 0.073 0 0.109l-0.027 0.055c-0.034 0.009-0.062 0.027-0.083 0.054l0.083 0.027c0.026 0.021 0.044 0.048 0.054 0.082l-0.027 0.082 0.027 0.027c0.018 0 0.036 0 0.054 0l0.083-0.082h0.027l0.054 0.082v0.027l0.11-0.027v0.027h0.027l-0.027 0.056 0.027 0.081-0.027 0.054v0.028l0.054 0.027 0.027-0.055 0.028 0.028v0.027l0.027 0.027c0 0.055 0 0.11 0 0.164h0.027l0.136 0.081c0.027 0 0.055 0 0.082 0v0.083c0.063 0.025 0.109 0.071 0.136 0.136l-0.027 0.083 0.081 0.027 0.083 0.081-0.028 0.056 0.028 0.054h0.054l0.055-0.054h0.027c0.046 0.037 0.083 0.083 0.109 0.136 0.033 0.010 0.060 0.028 0.082 0.054 0.018 0 0.037 0 0.055 0v-0.082c0.099 0.020 0.196 0.029 0.3 0.027 0.028 0.026 0.056 0.054 0.083 0.082 0.055 0 0.109 0 0.164 0l0.027 0.054c0.018 0 0.037 0 0.055 0l0.027-0.082 0.028-0.027h0.027l0.027 0.027c0 0.055 0 0.109 0 0.164l0.027-0.027h0.027l-0.027-0.083h0.027l0.027-0.027h0.055c0.034 0.009 0.061 0.027 0.082 0.054v0.027h0.027l0.055 0.028 0.082-0.028v-0.026h-0.027l-0.027-0.027 0.081-0.054v0.027c0.013 0.057 0.040 0.102 0.083 0.136 0.027-0.027 0.054-0.054 0.081-0.082h0.027l0.027 0.027c0.018 0 0.037 0 0.056 0l0.054 0.083v0.081l0.027 0.028 0.083-0.028c-0.022-0.048-0.050-0.094-0.083-0.136h0.027l0.027-0.055 0.055-0.027v-0.027l0.027-0.027v0.027l0.054 0.027v0.027c-0.027 0.021-0.045 0.048-0.054 0.082v0.027h0.054l0.055 0.054 0.056-0.054 0.054 0.027c0.045 0 0.091 0 0.136 0 0.028-0.036 0.055-0.072 0.081-0.109l0.056 0.028 0.054-0.028v-0.027l0.027-0.027h0.027l0.027 0.054c0.019 0 0.037 0 0.055 0 0.018 0.036 0.037 0.073 0.054 0.109l0.055-0.027c-0.018-0.018-0.036-0.037-0.055-0.054l0.027-0.028h0.027l0.082 0.055h0.027l0.027-0.027h0.027l-0.027-0.055v-0.027l0.054 0.027 0.028-0.027 0.054 0.027h0.027c-0.038-0.003-0.075 0.006-0.109 0.027l0.055 0.028c0 0.036 0 0.073 0 0.109h0.109l-0.027 0.027 0.027 0.028 0.055-0.083 0.054 0.027-0.027-0.027v-0.054h0.027l0.027 0.082h0.027c0.019 0.019 0.037 0.037 0.055 0.055l0.027-0.028-0.027-0.027 0.027-0.054h-0.027l0.055-0.027v-0.027h0.027v0.109l-0.027 0.027 0.027 0.028 0.082-0.028v0.028h0.028l-0.028 0.027 0.055 0.054c-0.040 0.028-0.067 0.064-0.082 0.11h0.027l0.055 0.027 0.027 0.081 0.027 0.027 0.027-0.027c0 0.046 0 0.091 0 0.137h0.056l0.031 0.055c-0.019 0.018-0.037 0.037-0.055 0.055h-0.027v-0.028c-0.066-0.006-0.128 0.004-0.191 0.028v-0.055l-0.054 0.055h-0.027l-0.027-0.028v-0.054l-0.028 0.027h-0.027c-0.017 0.044-0.044 0.080-0.081 0.109l0.027 0.027-0.027 0.027h0.027c-0.034 0.009-0.061 0.027-0.081 0.055h-0.028v0.027h0.028v0.054h0.027l0.027 0.027h-0.054l-0.028 0.027c0 0.019 0 0.037 0 0.056h-0.027v-0.056h-0.108c0 0.027 0 0.055 0 0.083l-0.028 0.054 0.028 0.027-0.056 0.027v-0.027h-0.027l0.054-0.082-0.027-0.027-0.027 0.027h-0.027l-0.027-0.027v-0.027l-0.027 0.028h-0.055l-0.027 0.054v0.054l0.055 0.027h-0.027v0.028l-0.027 0.027-0.054-0.027-0.027 0.027c0 0.018 0 0.036 0 0.054l-0.027 0.027h0.027c0 0.018 0 0.036 0 0.054h0.027v0.055l-0.055-0.027c0 0.036 0 0.073 0 0.109h0.027l-0.027 0.109 0.055-0.027v0.027h-0.027v0.027c-0.018 0.019-0.037 0.037-0.055 0.054l0.083-0.027v0.054l0.027-0.027h0.028v0.027h-0.027v0.028h-0.027c0 0.018 0 0.036 0 0.054l-0.055 0.027 0.027 0.027-0.055 0.027 0.028 0.027h0.055v0.055h-0.027v0.081c0.047 0.029 0.089 0.054 0.136 0.083l-0.055 0.027-0.027-0.027c0 0.027 0 0.054 0 0.081l-0.027-0.027-0.027 0.027v0.056l-0.055 0.054c0.035-0.021 0.071-0.030 0.109-0.027v0.027h-0.027v0.027h-0.027v0.027l-0.027 0.027v0.027l-0.191 0.083h0.082c0.044-0.023 0.089-0.032 0.136-0.027l0.027-0.027h0.027v0.027h-0.054l0.027 0.027c-0.018 0-0.036 0-0.055 0l0.027 0.027v0.027h-0.055v0.054h0.028l-0.028 0.028v0.054h0.028c-0.037 0-0.073 0-0.109 0l0.027 0.054-0.027 0.027v-0.027c-0.037 0-0.073 0-0.11 0l0.028 0.027c0 0.027 0 0.055 0 0.083h-0.055v0.027l-0.027 0.027c0.018 0.018 0.036 0.036 0.054 0.055h-0.054l-0.027-0.028-0.027 0.028c-0.018 0-0.037 0-0.056 0l-0.027 0.027v-0.056l-0.055 0.056v-0.027l-0.027-0.028h-0.028v-0.027l0.054-0.027v-0.027h-0.027l-0.056 0.027c0 0.027 0 0.055 0 0.083h0.028v0.054c0 0.036 0 0.073 0 0.109v0l0.027 0.028-0.056 0.027 0.028-0.055-0.083 0.055c0-0.018 0-0.037 0-0.055h0.027l0.027-0.054h-0.081v-0.027h-0.055l0.027-0.027h-0.054v-0.027l-0.056 0.054h0.056l0.027 0.027v0.027l-0.082 0.027h0.027l-0.027 0.028h0.027l0.028 0.027h-0.028l-0.082 0.054c0.018 0 0.036 0 0.055 0v0.027h0.027v0.083l-0.027 0.027h0.027v0.027l0.028 0.027v0.027h0.027v-0.054l0.027-0.027v0.027h0.027v0.027l0.054 0.027h-0.027l0.027 0.027h0.055l0.027 0.028v0.027c0.018 0 0.036 0 0.054 0l-0.027 0.027h0.081v0.027l-0.027 0.027h0.055l0.055 0.027-0.109-0.164h-0.055c-0.036-0.037-0.072-0.073-0.109-0.108h-0.027l-0.027-0.11c0.075 0.004 0.148-0.005 0.218-0.027v-0.027h0.082c0.036-0.041 0.081-0.069 0.136-0.082l0.027 0.028c0.036-0.019 0.072-0.037 0.109-0.056 0.009-0.034 0.027-0.061 0.055-0.081h0.055v0.027c0.018 0 0.036 0 0.054 0l0.027 0.027h0.055c0.057 0.037 0.124 0.057 0.191 0.054l0.027 0.055v0.027h0.027l0.027 0.027h-0.027v0.027l0.055 0.027-0.027 0.027v0.028c0.027 0 0.055 0 0.083 0l0.027 0.027v0.027l0.027-0.027v0.027c0.027 0 0.054 0 0.081 0l0.083 0.054h0.027l0.055-0.027 0.027 0.027v0.027l0.028 0.028h0.027l-0.055 0.027v0.027c0.045 0 0.091 0 0.136 0l-0.081 0.081v0.056c-0.932 1.117-1.631 2.423-2.048 3.822-1.604 3.294-4.457 5.949-7.399 7.89l-0.083-0.109c-1.138 2.576-2.826 4.765-5.133 6.58h-0.027l-0.054 0.027-0.027-0.027c-0.027 0-0.055 0-0.082 0l-0.027-0.027c-0.015-0.053-0.024-0.108-0.027-0.164l-0.027-0.027c-0.118-0.020-0.236-0.029-0.355-0.028v-0.027l0.027-0.027-0.027-0.027v-0.027l-0.027-0.055c0.027-0.021 0.045-0.048 0.055-0.081l-0.055-0.055c0.010-0.034 0.028-0.061 0.055-0.083 0.058-0.616 0.067-1.215 0.027-1.829l0.274-0.409 0.382-0.219 0.191 0.028 0.246-0.301-0.246-0.082 0.082-0.082 0.028 0.054h-0.028l0.028 0.027h0.027l-0.055-0.082 0.41-0.191 0.109-0.164-0.027-0.027 0.083-0.082 0.245-0.054 0.055-0.137-0.409-0.355v0.027c-0.018-0.018-0.037-0.037-0.055-0.054-0.084 0.001-0.157-0.026-0.218-0.081l-0.028-0.11-0.109 0.027-0.027 0.055h-0.028c-0.053-0.060-0.118-0.106-0.192-0.137l-0.054 0.027h-0.027l-0.054-0.083h-0.029l-0.054 0.055c-0.041-0.021-0.078-0.048-0.109-0.082v-0.027h-0.028l-0.027 0.027c-0.028-0.068-0.065-0.132-0.108-0.192v-0.027l-0.028-0.055c0-0.027 0-0.055 0-0.082-0.054 0-0.109 0-0.163 0l-0.055 0.027v-0.027l-0.027 0.027-0.081-0.054v-0.027h-0.055l-0.027-0.054-0.081-0.027v-0.056c-0.046-0.015-0.082-0.042-0.11-0.081 0-0.027 0-0.055 0-0.082l-0.137-0.054 0.027-0.027 0.028-0.109-0.028-0.055v-0.054l-0.054-0.028v-0.027h0.027l0.027-0.054-0.054-0.027v-0.054l-0.054-0.027-0.027-0.054v-0.082c-0.021-0.042-0.048-0.078-0.083-0.11v-0.027h-0.027l-0.027-0.027 0.027-0.027-0.054-0.028v-0.027l-0.027-0.027 0.027-0.081h-0.083l0.028-0.028v-0.027l-0.055-0.109 0.027-0.027-0.027-0.028 0.055 0.028 0.027-0.028-0.082-0.027v-0.055h-0.055v-0.027l-0.027 0.027c-0.021-0.026-0.049-0.045-0.082-0.054l-0.027 0.027v-0.027h-0.055l-0.055-0.028h-0.027c-0.026-0.021-0.045-0.048-0.054-0.081h-0.027l0.027-0.027-0.027-0.027h-0.027c0-0.037 0-0.073 0-0.109l-0.055-0.027-0.027 0.027-0.081-0.027-0.027-0.054-0.055-0.027v-0.028c-0.048-0.011-0.093-0.029-0.136-0.054-0.019 0-0.037 0-0.055 0l-0.054-0.055v-0.027h0.027v-0.028h0.027v-0.027h-0.027l-0.027-0.027h-0.11l-0.027-0.027h-0.027v-0.027h-0.027l-0.027-0.027c-0.018 0-0.037 0-0.055 0l-0.027 0.027h-0.027v0.027l-0.054 0.054-0.027-0.027-0.055 0.083v-0.028h-0.055v-0.027l-0.027-0.027h0.027c-0.041-0.048-0.096-0.075-0.164-0.081v-0.055c-0.409-0.323-0.835-0.647-1.256-0.955l0.027-0.055c-0.037-0.029-0.065-0.066-0.082-0.109l0.054-0.027v-0.027l-0.027-0.055-0.027 0.028-0.027-0.082c-0.021-0.027-0.049-0.045-0.083-0.055l0.027-0.027c-0.042-0.085-0.096-0.157-0.164-0.219h-0.081v-0.027h-0.027v-0.027l-0.082-0.027v-0.054l-0.027-0.027v-0.028h-0.355l-0.054-0.054h-0.027l-0.027-0.027-0.028 0.027h-0.054l-0.027-0.055-0.137-0.027-0.109 0.055-0.055-0.027-0.027 0.027h-0.082l-0.027 0.027-0.082-0.109h-0.027l0.027-0.028c-0.052-0.028-0.098-0.064-0.137-0.109h0.027l-0.027-0.027h-0.027v0.027c-0.038 0.003-0.074-0.006-0.109-0.027l-0.028 0.027h-0.027v-0.055h0.027l-0.027-0.027v-0.027l-0.082-0.027v-0.027l0.027-0.027v-0.028l-0.027-0.027-0.082-0.027-0.027-0.027 0.027-0.027c-0.021-0.026-0.048-0.044-0.082-0.054l0.027-0.028h-0.027v-0.027l-0.027-0.027-0.055-0.027c-0.034 0.009-0.061 0.027-0.082 0.054h0.027c0 0.019 0 0.037 0 0.055-0.021 0.042-0.048 0.078-0.082 0.109h-0.028c0 0.018 0 0.036 0 0.054h-0.054l-0.027-0.027-0.082-0.027-0.028-0.027h-0.054v-0.027c-0.018 0-0.036 0-0.054 0l-0.082-0.054v-0.028c-0.018 0-0.037 0-0.055 0l0.027-0.027-0.030-0.033h-0.054v-0.027c-0.081-0.020-0.164-0.029-0.246-0.027v-0.027h-0.027v-0.137l-0.027-0.027 0.027-0.027-0.054-0.055h-0.082v-0.027l0.055-0.027c-0.021-0.027-0.049-0.045-0.082-0.055v-0.028h0.027l-0.027-0.027v-0.027l-0.054-0.027-0.027 0.027h-0.027v-0.027h-0.028l-0.027-0.027h-0.027v-0.056h0.027c0-0.027 0-0.055 0-0.082l0.027-0.055h-0.054l-0.054-0.082v0.028l-0.027-0.028 0.027-0.027v-0.081h-0.027l-0.055-0.027v-0.055c-0.018 0-0.036 0-0.054 0l-0.054 0.027h-0.027v-0.027l-0.028-0.027h-0.054l-0.055-0.027c0.010-0.033 0.028-0.061 0.055-0.083v-0.027l-0.027-0.027h-0.028v-0.054h-0.054l-0.028-0.054-0.081 0.027-0.027-0.027c0-0.027 0-0.055 0-0.083-0.033-0.010-0.060-0.028-0.082-0.054v-0.055l-0.082-0.028-0.027 0.028v-0.028l-0.055-0.027c-0.010-0.033-0.028-0.061-0.054-0.082v-0.055l-0.027-0.054h-0.027v-0.027h-0.027c-0.022 0.026-0.049 0.044-0.082 0.055h-0.027v-0.027h-0.055l-0.027 0.027h-0.028c-0.027 0.021-0.045 0.048-0.054 0.082l-0.028-0.027-0.027 0.054 0.054 0.027h-0.027v0.055l0.054 0.056-0.027 0.054h-0.027l-0.027 0.054 0.027 0.027-0.027 0.028v0.027c-0.037 0-0.073 0-0.11 0v-0.027l-0.027-0.028-0.027 0.055h-0.027l-0.027-0.055h-0.028l0.028 0.028h-0.028v0.081l-0.027 0.027 0.027 0.027h-0.082v0.027l-0.027 0.056-0.082-0.027 0.027 0.054-0.054 0.027c-0.046 0-0.091 0-0.137 0v0.027l-0.055 0.082v0.027l-0.081-0.027c-0.041 0.036-0.069 0.081-0.082 0.136h-0.055v0.027h-0.027l-0.055-0.056-0.027 0.028h-0.054c-0.018 0.018-0.036 0.036-0.054 0.054-0.055-0.018-0.11-0.036-0.164-0.054l-0.055 0.027v0.027l-0.081-0.027c-0.042-0.133-0.043-0.278 0-0.41l0.027-0.027-0.027-0.027c0-0.027 0-0.054 0-0.081h-0.027l0.054-0.11-0.027-0.027v-0.083l0.081-0.109v-0.055c-0.018-0.018-0.037-0.036-0.054-0.054l-0.027-0.081-0.027-0.028v-0.027h0.027l-0.055-0.027c0-0.027 0-0.054 0-0.081h-0.055v-0.027c-0.018 0-0.036 0-0.054 0l-0.054-0.028c0-0.027 0-0.054 0-0.081l-0.027-0.027h-0.028l-0.054 0.054h-0.027l-0.027-0.109h-0.027l-0.055 0.027h-0.027v-0.027l0.027-0.056h-0.027c-0.021-0.026-0.048-0.044-0.082-0.054v-0.054l0.055-0.028v-0.027h-0.055c-0.040-0.027-0.067-0.063-0.082-0.108l0.027-0.056c-0.034-0.009-0.061-0.027-0.082-0.054l0.054-0.054c-0.060-0.030-0.124-0.039-0.191-0.027-0.018-0.019-0.036-0.037-0.054-0.055v-0.027h0.027v-0.027l-0.054-0.027h-0.027l-0.027 0.054h-0.028v-0.054l0.028-0.027c-0.019-0.018-0.037-0.036-0.055-0.055l-0.027 0.028h-0.027v-0.028l-0.027-0.054c0-0.018 0-0.036 0-0.055l-0.027-0.027v0.027l-0.055 0.027c-0.035-0.021-0.071-0.030-0.109-0.027v-0.055l-0.055-0.027v-0.027l-0.027-0.028h-0.027v0.028h-0.082l-0.028-0.028h0.028v-0.027h-0.055v-0.054l-0.027-0.028v-0.027h0.027v-0.054h-0.055l-0.027-0.083-0.027 0.028h-0.055l-0.054-0.056 0.027-0.027c-0.041-0.036-0.069-0.081-0.082-0.137l-0.055 0.028-0.027 0.054h-0.027c-0.010-0.033-0.028-0.061-0.054-0.083v-0.054l-0.055-0.027h-0.109v-0.027l-0.029-0.056 0.054-0.027v-0.081l-0.027-0.027-0.027 0.054-0.082-0.081v-0.056c-0.034 0.021-0.070 0.030-0.109 0.027l-0.055 0.028-0.027-0.028 0.055-0.054-0.028-0.081-0.055 0.027-0.054-0.055c0.018 0 0.036 0 0.054 0v-0.027c-0.039-0.027-0.066-0.064-0.081-0.109h-0.082v-0.027l0.082-0.028v-0.027l-0.028 0.027-0.027-0.027v-0.027l-0.054 0.027-0.027-0.027-0.055 0.027-0.054-0.054v-0.054h-0.027c-0.074-0.044-0.16-0.063-0.245-0.055l-0.027-0.054c0.021-0.035 0.030-0.071 0.027-0.109l-0.082-0.027-0.027-0.054h-0.054c-0.021-0.027-0.049-0.045-0.082-0.054-0.045 0-0.091 0-0.136 0v-0.027h-0.056l-0.081 0.108v-0.027l-0.027 0.027v-0.027c-0.022-0.026-0.049-0.044-0.082-0.054-0.052 0.027-0.106 0.036-0.164 0.027l-0.027-0.054c-0.055 0-0.109 0-0.164 0l-0.027 0.027v0.054h-0.054l-0.055-0.027h-0.055v-0.027h0.027v-0.027h-0.027c-0.039 0.028-0.066 0.064-0.081 0.109h0.027l-0.027 0.027c-0.038 0.003-0.075-0.006-0.109-0.027v0.054h0.054v0.055l-0.054 0.027h-0.054c-0.020 0.067-0.057 0.121-0.11 0.164v0.054h-0.054v0.054l0.027 0.028v0.027l0.027 0.054c-0.018 0.018-0.036 0.037-0.054 0.054h-0.027l-0.082 0.056-0.027 0.081-0.054 0.027h-0.11l-0.027-0.027v-0.027l-0.027-0.027-0.027 0.027v0.027l-0.055 0.054h-0.028c-0.025-0.061-0.062-0.117-0.109-0.164l-0.028 0.055-0.136 0.054-0.028-0.054c-0.031 0.034-0.067 0.061-0.109 0.081v0.056c-0.046 0-0.091 0-0.137 0v-0.056l0.027-0.027-0.054-0.027h-0.082l-0.055-0.027c-0.036 0-0.072 0-0.109 0l-0.028 0.081c-0.073-0.018-0.146-0.036-0.218-0.054-0.010-0.033-0.028-0.061-0.054-0.082l0.027-0.163c-0.086-0.063-0.193-0.112-0.301-0.137l-0.054 0.028 0.054-0.054c0.477-0.151 0.896-0.445 1.229-0.847v0z"></path>
</svg>
