<?xml version="1.0" encoding="utf-8"?>
<!-- Generated by IcoMoon.io -->
<!DOCTYPE svg PUBLIC "-//W3C//DTD SVG 1.1//EN" "http://www.w3.org/Graphics/SVG/1.1/DTD/svg11.dtd">
<svg version="1.1" xmlns="http://www.w3.org/2000/svg" xmlns:xlink="http://www.w3.org/1999/xlink" width="32" height="32" viewBox="0 0 32 32">
<path d="M0.065 19.426v-0.060c0.073-0.022 0.133-0.061 0.179-0.12l0.059-0.181 0.122 0.061c0.020-0.074 0.060-0.135 0.119-0.181v-0.060l-0.059-0.060v-0.182l0.24-0.059v-0.12l0.241-0.241v-0.060c0.053-0.095 0.093-0.195 0.12-0.301h0.059l0.122-0.12-0.061-0.12c0.124-0.046 0.224-0.127 0.299-0.241h0.061l0.062-0.060 0.059 0.060 0.060-0.060v0.12h0.059v0.060c0.021 0.074 0.061 0.134 0.12 0.181l0.182-0.12v-0.122l0.059 0.122h0.182l0.12 0.060 0.12-0.121h0.12v-0.060l0.121-0.12h0.059l0.060-0.060v-0.301c0.151-0.221 0.365-0.411 0.602-0.541h0.060l0.119-0.060c0-0.060 0-0.121 0-0.181 0.104-0.125 0.197-0.237 0.302-0.361l0.12-0.361-0.059-0.12 0.119-0.12v-0.062c0.254-0.211 0.433-0.471 0.543-0.782h-0.121v-0.059h-0.12l-0.12 0.060c0.037-0.181 0.056-0.351 0.060-0.54 0.080-0.080 0.159-0.16 0.238-0.239l0.182-0.062c0.049-0.198 0.15-0.358 0.302-0.481v-0.12l0.059-0.060v-0.061c0.135-0.090 0.275-0.17 0.421-0.239l0.12-0.241h0.121l0.12-0.060c0.021-0.074 0.061-0.134 0.12-0.18 0.046-0.139 0.066-0.277 0.059-0.421 0.103-0.106 0.184-0.227 0.241-0.361l-0.059-0.182 0.059-0.060c-0.006-0.085 0.014-0.165 0.061-0.241 0.207-0.101 0.392-0.245 0.54-0.421h0.062v-0.060l-0.062-0.12c0.021-0.142 0.041-0.28 0.062-0.421l-0.062-0.060v-0.121l0.122-0.18 0.059-0.481 0.302-0.301 0.059-0.241c0.107-0.132 0.244-0.211 0.422-0.239 0.135-0.38 0.253-0.755 0.361-1.143 1.117-0.287 2.238-0.547 3.367-0.782l0.062-0.059c0.166 0.373 0.435 0.684 0.78 0.902 0.084-0.006 0.165 0.013 0.241 0.060 0.081-0.040 0.161-0.080 0.242-0.12h0.119c0.161 0.080 0.321 0.159 0.481 0.239 0.121-0.058 0.241-0.119 0.361-0.179 0.080 0 0.162 0 0.242 0 0.039-0.040 0.079-0.080 0.12-0.12 0.197 0.205 0.448 0.312 0.722 0.299 0.316 0.446 0.716 0.789 1.202 1.023l0.12-0.060-0.060 0.060 0.122 0.12c0.039-0.040 0.079-0.080 0.12-0.12h0.059v0.18l0.12 0.061 0.182-0.061 0.361 0.061 0.059-0.122 0.12 0.060 0.060-0.060c0.124-0.008 0.242 0.011 0.361 0.060l0.059-0.060h0.241l0.181-0.12c0.47 0.035 0.942 0.117 1.384 0.241l0.059-0.061c0.094 0.056 0.195 0.097 0.302 0.121v0.060l0.179-0.12c0.643 0.191 1.31 0.116 1.865-0.241h0.182l0.179-0.12h0.241l0.060-0.062c0.383-0.045 0.751 0.038 1.080 0.241 0.166-0.019 0.327 0.001 0.483 0.060l0.24-0.060 0.059 0.060h0.062c0.183 0.116 0.379 0.176 0.601 0.181l0.059 0.060c0.207-0.010 0.408 0.030 0.603 0.12l0.059 0.060 0.059-0.060h0.12v-0.059c0.32 0.18 0.62 0.31 0.964 0.421h0.179c0.103 0.106 0.184 0.227 0.241 0.361 0.309 0.164 0.558 0.416 0.722 0.722 0.025 0.469 0.225 0.838 0.6 1.083v0.12l0.122 0.18h0.059v0.301c0.080 0.081 0.16 0.161 0.239 0.241v-0.060 0.18l0.062 0.12v0.062l0.059 0.060v0.18c0.055 0.094 0.095 0.194 0.12 0.301h0.059c-0.027 0.166-0.007 0.328 0.060 0.481h0.059c0 0.141 0 0.281 0 0.421l0.062 0.122h0.12c-0.033 0.197-0.053 0.4-0.059 0.6l0.059 0.060v0.181l0.060 0.12h0.059c0 0.221 0 0.441 0 0.662 0.021 0.074 0.061 0.134 0.121 0.18l0.060-0.060h0.059c-0.023 0.264-0.003 0.528 0.060 0.782h0.181l0.060 0.18h0.059v0.062l0.060 0.12-0.060 0.241c0.047 0.075 0.067 0.155 0.060 0.239h0.059c-0.027 0.383-0.007 0.766 0.060 1.143v-0.060l0.059 0.060c0.009 0.125 0.052 0.253 0.121 0.361h0.060l0.059 0.060h0.181c0.040 0.236 0.062 0.481 0.062 0.722l-0.062 0.060c0.031 0.143 0.071 0.283 0.121 0.421l0.059 0.060c0.060 0 0.121 0 0.181 0l0.062 0.060c0.134 0.329 0.195 0.67 0.179 1.023-0.128 0.123-0.302 0.189-0.481 0.182l-0.121 0.12c-0.075 0.046-0.155 0.066-0.24 0.060l-0.241-0.241h-0.060l-0.059 0.062h-0.060l-0.059 0.239h-0.121l-0.12 0.181h-0.060l-0.12 0.060c-0.098-0.045-0.197-0.065-0.3-0.060-0.054-0.095-0.095-0.195-0.122-0.301h-0.059l-0.060 0.12h-0.238l-0.182 0.12h-0.481l-0.12-0.060-0.182-0.239c-0.108-0.047-0.208-0.108-0.3-0.181-0.116-0.034-0.237-0.055-0.361-0.060v-0.059l-0.060 0.060-0.118-0.060h-0.059l-0.061 0.060c-0.040 0-0.080 0-0.121 0l-0.059-0.060v0.060l-0.060-0.060c-0.060 0-0.119 0-0.179 0l-0.062-0.060v0.060c-0.060 0-0.119 0-0.179 0l-0.061 0.12h-0.059v-0.060h-0.182l-0.059-0.060v-0.060l-0.12-0.12c-0.060 0-0.121 0-0.182 0-0.107-0.071-0.235-0.115-0.361-0.122v0.060h-0.060l-0.12-0.060c-0.080 0.081-0.16 0.162-0.241 0.241-0.183-0.005-0.36 0.015-0.54 0.060l-0.060 0.060c-0.665 0.082-1.335 0.063-1.984-0.060l-0.060-0.060c0-0.060 0-0.121 0-0.181l-0.241-0.060c-0.119-0.093-0.198-0.213-0.241-0.361v0.060h-0.060v-0.060h-0.059c-0.047 0.058-0.106 0.099-0.179 0.122h-0.062l-0.060 0.060c-0.405 0.006-0.806 0.046-1.202 0.12l-0.059-0.301c-0.108-0.069-0.235-0.112-0.361-0.12 0-0.081 0-0.161 0-0.241l0.119-0.18c0-0.12 0-0.241 0-0.361-0.080-0.080-0.159-0.161-0.238-0.241-0.144 0.116-0.304 0.196-0.481 0.241l-0.302-0.12-0.302 0.6c-0.203 0.013-0.403-0.007-0.6-0.060-0.048 0.137-0.069 0.278-0.060 0.421-0.091 0.134-0.171 0.275-0.24 0.421 0.029 0.161 0.048 0.315 0.059 0.481h0.060c0.093 0.073 0.193 0.134 0.3 0.182l0.060 0.18c0.046 0.059 0.106 0.1 0.179 0.122h0.062l0.059 0.060c-0.017 0.229 0.003 0.443 0.060 0.66l-0.12-0.060-0.062 0.060-0.12-0.18c-0.15-0.015-0.27-0.074-0.361-0.18l-0.12 0.060 0.060 0.12c-0.165 0.234-0.245 0.495-0.239 0.782l-0.121 0.12 0.121 0.182 0.12 0.059h0.059v0.060h0.060c0.039 0.040 0.079 0.080 0.12 0.12l0.060 0.182-0.060 0.361-0.061 0.060-0.179 0.060-0.12 0.12h-0.121c-0.040 0.041-0.080 0.081-0.12 0.122l0.059 0.12v0.060l-0.361 0.54c-0.247-0.024-0.472-0.043-0.722-0.059l-0.179 0.482h-0.060l-0.241-0.121-0.179-0.301c0.052-0.094 0.071-0.194 0.059-0.299 0.14-0.173 0.22-0.374 0.239-0.603l-0.361 0.060v-0.481l-0.6-0.541c-0.207 0.095-0.449 0.182-0.662 0.239-0.172 0.056-0.312 0.157-0.42 0.301v-0.060l0.059-0.060h-0.12v-0.060l-0.059-0.122c0.005-0.149-0.038-0.296-0.122-0.421h-0.12c-0.131 0.088-0.251 0.189-0.361 0.301-0.25 0.108-0.516 0.19-0.781 0.241-0.124 0.22-0.305 0.38-0.541 0.481h-0.361l-0.179-0.12v-0.122l-0.062-0.060v-0.060l-0.12-0.12 0.061-0.122v-0.239c-0.1-0.034-0.179-0.094-0.24-0.182l0.059-0.12-0.241-0.060-0.239 0.12c-0.424-0.097-0.848-0.077-1.265 0.059l0.122-0.299-0.062-0.062 0.062-0.12-0.062-0.12c0-0.12 0-0.241 0-0.361h-0.060c-0.010-0.124 0.010-0.245 0.060-0.361l-0.060-0.059v-0.060l0.122-0.181c0.161 0 0.32 0 0.481 0l0.179-0.18c-0.013-0.253 0.028-0.493 0.121-0.722-0.061-0.045-0.101-0.106-0.121-0.181v-0.12l0.059-0.060c0-0.040 0-0.079 0-0.12l0.122-0.122c-0.025-0.147-0.005-0.288 0.059-0.421h0.060c0.123-0.028 0.223-0.088 0.3-0.18l0.060-0.181 0.119-0.060c0.095 0.053 0.196 0.073 0.302 0.060v-0.299c0.101-0.1 0.201-0.201 0.302-0.301h0.059l0.060-0.060c0.106-0.027 0.206-0.068 0.3-0.122v-0.12l0.181-0.060 0.059-0.060 0.062-0.181h-0.062l-0.12-0.060 0.12-0.301-0.059-0.12c0.008-0.143-0.012-0.283-0.061-0.421l0.061-0.060h-0.181l-0.12-0.060-0.181 0.060-0.060-0.12-0.12-0.062h-0.059c-0.079 0.086-0.141 0.19-0.182 0.301h-0.12l-0.121-0.060-0.061 0.060-0.238 0.060-0.182 0.181c-0.080 0-0.16 0-0.239 0l-0.121 0.239c-0.161 0-0.32 0-0.481 0l-0.060 0.061v0.239l-0.241 0.060-0.059-0.060h-0.12v0.060c-0.101 0-0.201 0-0.302 0v0.122h-0.179l-0.121-0.062c-0.098 0.036-0.178 0.096-0.239 0.182-0.121 0-0.24 0-0.361 0l-0.061 0.12c-0.169 0.031-0.329 0.011-0.482-0.060l-0.060-0.060h-0.059c-0.143 0.051-0.263 0.131-0.361 0.239v0.122h-0.060l-0.119 0.12 0.119 0.060-0.119 0.060 0.119 0.122-0.059 0.060v0.12l0.059 0.122h0.060c-0.161 0-0.321 0-0.481 0l-0.12 0.18 0.060 0.060h-0.060l-0.121 0.059-0.060 0.122 0.060 0.059-0.060 0.121v0.060c-0.074 0.021-0.133 0.060-0.179 0.12l-0.241-0.12v0.241l0.059 0.060-0.059 0.060h-0.12c-0.062 0.086-0.142 0.147-0.241 0.182h-0.12l-0.12-0.122v-0.060c-0.062 0.081-0.121 0.16-0.182 0.241h-0.302l0.062 0.060-0.121 0.12 0.059 0.181h-0.059l-0.059 0.060c-0.040 0-0.080 0-0.12 0l0.059-0.12-0.12-0.062v-0.12h-0.061v0.12h-0.059v0.062h-0.060l-0.059 0.059-0.059 0.18-0.12 0.060c-0.035 0.099-0.096 0.18-0.182 0.241-0.060 0-0.119 0-0.179 0l-0.122-0.241-0.12 0.060h-0.241l-0.12-0.12h-0.241l-0.059-0.059-0.12 0.060h-0.060l-0.3 0.182v-0.182h-0.181c-0.033-0.1-0.093-0.179-0.18-0.239-0.080 0-0.16 0-0.24 0l-0.062-0.062h-0.059v-0.12c-0.071-0.108-0.149-0.206-0.24-0.301-0.085-0.006-0.165 0.013-0.241 0.060-0.092-0.046-0.173-0.105-0.242-0.18-0.105-0.013-0.205 0.007-0.299 0.060l0.061-0.179-0.061-0.122c0.081-0.12 0.161-0.24 0.24-0.361-0.079 0.041-0.159 0.082-0.24 0.121h-0.059l-0.122 0.12-0.059-0.060h-0.061l-0.119-0.060h-0.062l-0.060 0.060 0.060 0.060h-0.181l-0.119-0.060c-0.054-0.095-0.075-0.195-0.062-0.301l0.121-0.12c0-0.060 0-0.121 0-0.181h-0.059z"></path>
</svg>
