<?xml version="1.0" encoding="utf-8"?>
<!-- Generated by IcoMoon.io -->
<!DOCTYPE svg PUBLIC "-//W3C//DTD SVG 1.1//EN" "http://www.w3.org/Graphics/SVG/1.1/DTD/svg11.dtd">
<svg version="1.1" xmlns="http://www.w3.org/2000/svg" xmlns:xlink="http://www.w3.org/1999/xlink" width="32" height="32" viewBox="0 0 32 32">
<path d="M5.46 8.331c0-0.113 0-0.226 0-0.338-0.124-0.171-0.272-0.33-0.43-0.461 0.004-0.066-0.017-0.128-0.061-0.185-0.219-0.162-0.457-0.296-0.708-0.399l-0.122 0.031c-0.121-0.188-0.26-0.347-0.43-0.491l-0.030-0.215c-0.070-0.015-0.131-0.046-0.185-0.093l-0.062-0.122c-0.061-0.042-0.122-0.083-0.184-0.123v-0.031l-0.030-0.031c-0.062-0.147-0.12-0.282-0.184-0.431-0.127-0.108-0.262-0.211-0.4-0.307-0.075-0.136-0.086-0.288-0.031-0.43l0.093-0.093c0.398 0.057 0.665 0.292 0.768 0.677 0.085 0.091 0.188 0.153 0.308 0.185l0.061-0.062c0.065-0.010 0.126 0 0.185 0.031v-0.031c0.124 0.005 0.237-0.025 0.339-0.092 0.208 0.034 0.418 0.025 0.615-0.031h0.091v0.061c0.088-0.007 0.172 0.014 0.247 0.061h0.122l0.093-0.061h0.031l0.061 0.092h0.061c0.082 0.067 0.143 0.149 0.184 0.247v0.061l-0.031 0.031c0.104 0.123 0.179 0.244 0.247 0.399l0.061 0.031v0.031l0.154 0.032v0.122l0.061 0.030h0.030l0.061 0.123h0.031c0-0.031 0-0.062 0-0.093l0.031 0.032c0.034-0.066 0.075-0.128 0.122-0.185h0.062c0.021-0.020 0.041-0.041 0.061-0.062l0.031 0.032c0.062-0.015 0.114-0.046 0.154-0.093l0.031 0.031v-0.031h0.031l0.031 0.031v0.031c0.065-0.010 0.126 0.001 0.185 0.032 0.092-0.044 0.186-0.044 0.276 0l-0.031 0.031c0.042 0.031 0.082 0.061 0.123 0.092h0.031v-0.031h0.062l0.061 0.031 0.091-0.092h-0.061l-0.030-0.031v-0.032h-0.061l-0.032-0.031v-0.031l0.032-0.030c0.027-0.090 0.038-0.182 0.031-0.276h0.061c0.082 0.031 0.134 0.094 0.154 0.185l0.061 0.031c0.064 0.081 0.126 0.163 0.184 0.246l-0.031 0.061 0.031 0.030-0.031 0.031v0.032c0.065 0.008 0.125-0.003 0.185-0.032 0 0.041 0 0.082 0 0.123 0.020 0 0.041 0 0.061 0l0.031 0.031h0.030l0.063 0.062 0.030-0.031 0.031 0.062c0.007-0.054-0.004-0.105-0.031-0.154h0.031l0.031 0.031v-0.031h0.031l0.062 0.031h0.030l0.061 0.031 0.061-0.031c0-0.031 0-0.061 0-0.092 0.041-0.041 0.082-0.082 0.123-0.123l-0.061-0.061 0.031-0.031v-0.032c-0.042 0-0.082 0-0.123 0l0.031-0.061h-0.061v-0.030l0.092-0.092c0.054 0.007 0.105-0.004 0.154-0.032l0.184 0.123h0.093l0.061-0.031h0.030v-0.031l0.031-0.062c0.020 0.021 0.041 0.042 0.062 0.062h0.031l0.031 0.061 0.122-0.031 0.031 0.031c0.059 0.025 0.121 0.035 0.184 0.030l-0.061 0.246-0.061 0.062v0.153l0.031 0.031v0.031l0.092 0.122c0.041 0 0.082 0 0.123 0l0.061 0.031c0.062 0 0.123 0 0.185 0 0.062 0.041 0.123 0.082 0.185 0.123v0.061l0.062 0.062h0.030l0.031 0.031v0.031l-0.031 0.031v0.123l-0.030 0.061h-0.062c0.082 0.041 0.164 0.082 0.246 0.123v0.092h0.062c0.040 0.071 0.091 0.133 0.154 0.185 0.031 0 0.061 0 0.092 0 0.078-0.056 0.142-0.13 0.185-0.215v-0.092h0.061c0.132-0.081 0.246-0.185 0.338-0.308l0.061 0.031c0.021 0 0.041 0 0.062 0l0.030 0.061h0.031l0.031 0.092h0.031l0.031 0.061 0.093 0.062h0.030v-0.062h0.031v-0.061l0.031-0.030-0.031-0.062 0.031-0.092c-0.030-0.058-0.040-0.12-0.031-0.184l-0.031-0.031 0.061-0.061v-0.031h-0.061l-0.030-0.062-0.093-0.061v-0.031l0.093-0.062h-0.031v-0.031l-0.062-0.031-0.031-0.061v-0.031l-0.061-0.032c0.026-0.071 0.036-0.141 0.031-0.215l0.091-0.031 0.063-0.061 0.030-0.092-0.093-0.032-0.030-0.122h0.030l0.063-0.062c0-0.020 0-0.041 0-0.061l0.061-0.031 0.154 0.061 0.061-0.031c0.051 0 0.103 0 0.154 0v-0.031l0.030-0.031c0.059 0.030 0.12 0.040 0.185 0.031l0.031 0.031h0.061l0.032 0.061v0.032c0.041 0 0.081 0 0.122 0l-0.030-0.032v-0.061l0.061-0.031h0.031l0.031-0.031-0.031-0.062v-0.092l-0.031 0.031-0.061-0.031h0.030l0.031-0.061-0.031-0.062c0.054 0.007 0.105-0.004 0.154-0.031v-0.031l-0.061-0.061 0.122 0.031v-0.031l0.030-0.031h0.032c0.021 0.020 0.041 0.041 0.061 0.061l0.031-0.061c0.020 0 0.040 0 0.061 0v-0.062h0.032l-0.032-0.031h-0.061c0.011-0.038 0.031-0.068 0.061-0.092l0.032 0.031h0.031v-0.031c0.041 0 0.081 0 0.122 0v-0.031l0.031 0.031h0.032l0.030 0.031h0.031v-0.031l0.091 0.092h0.031v-0.031h0.062v0.094h0.030l0.061 0.061 0.031-0.031h0.032v0.031h0.061l0.061-0.031 0.031 0.061h0.123l0.061 0.061 0.030-0.031c0.024 0.030 0.055 0.050 0.093 0.061l0.091-0.031c0 0.031 0 0.061 0 0.092 0.049 0.026 0.1 0.036 0.154 0.031l0.061 0.031v0.031c0.021-0.020 0.042-0.041 0.062-0.061h0.092c0-0.021 0-0.041 0-0.061h-0.031v-0.062h0.061l0.032-0.031v-0.031h0.030l0.031 0.031h0.030l0.031-0.031-0.031-0.031c0-0.031 0-0.062 0-0.093l0.061-0.031 0.093 0.062c0.020-0.021 0.040-0.042 0.061-0.062 0 0.021 0 0.041 0 0.062l0.031-0.032h0.061l0.032-0.061 0.030 0.031c0.011-0.038 0.031-0.068 0.061-0.092h0.031l-0.031 0.031v0.061c0.051 0.052 0.103 0.103 0.154 0.154l0.030 0.092 0.061 0.032c-0.002-0.084 0.009-0.167 0.032-0.247h0.061l0.030-0.031 0.061 0.031c0.021 0 0.041 0 0.062 0l0.031-0.031-0.031-0.031 0.031-0.031c0.031 0 0.061 0 0.091 0v0.031l0.061 0.031h0.062c-0.003-0.043 0.007-0.084 0.031-0.122l-0.031-0.062h0.061v-0.061l0.031-0.031v-0.031l0.061-0.032v0.032c0.031 0 0.061 0 0.092 0v-0.032l-0.030-0.031v-0.030c0.053 0.002 0.104-0.008 0.154-0.031l0.030-0.061h0.031v0.031l-0.031 0.031 0.031 0.031c0.069-0.029 0.141-0.039 0.215-0.031l0.031-0.031c0.020 0 0.041 0 0.061 0v0.031h0.062v0.061c0.020 0 0.041 0 0.061 0l0.030-0.061 0.061-0.031 0.032 0.061c0.063-0.003 0.125-0.013 0.185-0.031l0.031-0.031v-0.031c0.051-0.017 0.091-0.048 0.122-0.093h0.032c-0.004-0.043 0.007-0.084 0.030-0.122l0.031-0.031-0.061-0.032v-0.031l-0.032-0.061h0.032l0.030-0.031c-0.026-0.049-0.037-0.1-0.030-0.154l0.030-0.031c0-0.020 0-0.040 0-0.061l0.122-0.032 0.062-0.061h0.030l0.031-0.061c0.030 0 0.061 0 0.092 0l0.030 0.031-0.030 0.031h0.062v-0.031c0.031 0 0.061 0 0.092 0v0.031c0.109-0 0.204 0.009 0.308 0.031v-0.061h0.092l-0.030-0.061 0.061-0.032v-0.031h0.123l-0.031-0.031 0.061-0.031v-0.031l-0.091-0.031v-0.062h-0.032l-0.031-0.031h-0.030v-0.031l-0.061-0.031 0.031-0.092h0.092v-0.031l0.032 0.031h0.061l0.030 0.031h0.031v-0.062l0.061 0.031 0.031 0.061 0.031-0.061 0.122 0.061v-0.061l0.062 0.092 0.030-0.031h0.031c0.030 0.031 0.061 0.062 0.093 0.092h0.030v0.031h0.061v0.062l0.061-0.062h0.030v-0.031l0.093-0.031 0.061-0.061 0.061 0.031h0.032l0.030-0.031c0.072 0 0.143 0 0.215 0v0.031c0.041 0 0.081 0 0.122 0-0.003-0.043 0.007-0.084 0.032-0.123h0.092c0.030-0.024 0.050-0.054 0.061-0.092l-0.031-0.093h0.093l0.030-0.030c-0.021-0.020-0.041-0.041-0.061-0.061l0.061-0.061-0.030-0.032v-0.061l-0.062-0.030v-0.058c0.031 0 0.061 0 0.092 0v-0.030l0.061-0.032 0.030-0.061v-0.091l0.062-0.062h0.091l0.031 0.032 0.092 0.031 0.092-0.123h0.030l0.062-0.031-0.031-0.030 0.031-0.031h0.092v-0.032l0.123-0.031 0.061 0.031c0.030-0.024 0.051-0.054 0.061-0.092h0.030l0.032-0.031h-0.032l0.032-0.031-0.032-0.031c0.032-0.030 0.062-0.061 0.093-0.092h0.061l0.030-0.031v-0.030l0.063-0.031v-0.031c0.047-0.049 0.085-0.098 0.122-0.153l-0.030-0.031v-0.031l0.123-0.031v-0.061c0.032-0.031 0.062-0.061 0.092-0.093h0.062l0.030-0.153c-0.033-0.057-0.054-0.118-0.062-0.185l-0.061-0.031v-0.062l-0.061-0.061-0.030-0.091-0.062-0.032 0.031-0.122-0.031-0.062 0.031-0.061v-0.031l-0.031-0.031-0.030 0.061c0.003-0.043-0.007-0.084-0.031-0.122l0.031-0.062-0.031-0.061-0.092-0.061v-0.062l-0.032-0.031c-0.051 0-0.102 0-0.153 0l-0.062-0.031 0.062-0.092h0.061c0.041-0.021 0.082-0.042 0.123-0.062 0.039 0.024 0.079 0.034 0.122 0.031 0.041 0.021 0.082 0.042 0.123 0.062l0.061-0.031 0.031 0.031 0.030-0.031h0.032v0.061l0.091 0.061h0.123c0.023-0.030 0.054-0.050 0.092-0.061 0.111 0.029 0.223 0.039 0.338 0.031l0.030 0.092h0.030l0.092-0.061c0-0.031 0-0.061 0-0.092l0.062 0.031 0.091-0.061 0.062 0.031c0 0.021 0 0.041 0 0.061l0.061-0.031c0.061 0 0.123 0 0.185 0l0.030-0.092h0.123v-0.030h0.031l0.030-0.031v-0.061h0.092c0.055-0.032 0.102-0.060 0.155-0.093l0.061 0.031 0.032 0.062v0.061l0.091 0.061c0.055-0.025 0.106-0.055 0.154-0.092 0.021 0.099 0.072 0.18 0.154 0.246 0.022 0.081 0.032 0.163 0.031 0.246h0.091c0.020 0.021 0.041 0.042 0.061 0.062v0.031l0.032 0.061h0.031l0.092 0.061v0.032l0.030-0.032 0.062 0.032h0.031l0.030 0.031-0.030 0.030 0.030 0.031-0.061 0.061 0.061 0.032v0.030l-0.030 0.031c0 0.041 0 0.081 0 0.122l0.061 0.123-0.031 0.030 0.031 0.031-0.031 0.062 0.031 0.061h-0.031v0.061c-0.079 0.13-0.11 0.27-0.092 0.43-0.042 0.033-0.073 0.074-0.092 0.123l0.030 0.031c-0.011 0.038-0.032 0.069-0.061 0.092l0.061 0.061c0 0.052 0 0.103 0 0.154l-0.061 0.122 0.061 0.032v0.031c-0.096 0.085-0.174 0.174-0.246 0.276l0.030 0.030c0 0.041 0 0.082 0 0.123l-0.122 0.061-0.031-0.031-0.031 0.031h-0.030l-0.061 0.031 0.030 0.093h-0.061l0.031 0.061h-0.061v-0.031h-0.032l-0.030 0.031v0.061l0.030 0.031-0.030 0.122 0.030 0.031c0.082 0 0.165 0 0.247 0l-0.031-0.061 0.092-0.031c0 0.021 0 0.041 0 0.061l0.061-0.031 0.031 0.031c0 0.021 0 0.041 0 0.061 0.041 0 0.082 0 0.123 0l0.031 0.031 0.061-0.031 0.032 0.031 0.030-0.031h0.031l0.030 0.062 0.061 0.031 0.032-0.031v0.031h0.031l-0.031-0.031 0.031-0.093h0.030v0.031l0.092 0.031 0.031-0.031v0.031l0.062 0.031-0.030 0.031 0.091 0.031-0.030 0.031 0.030 0.031 0.061-0.061h0.062l0.031-0.061v0.031l0.061 0.031-0.031 0.061 0.031 0.031c0.020 0 0.040 0 0.061 0l0.062-0.031c0.024 0.030 0.054 0.051 0.091 0.062l0.031-0.032v-0.061h0.030l0.032 0.093h0.061v0.030h0.061l0.062 0.092h0.061c0.060 0.062 0.122 0.124 0.185 0.185l0.061-0.031 0.061 0.061-0.061 0.032c0.024 0.038 0.034 0.080 0.030 0.122-0.051 0.018-0.091 0.048-0.122 0.093v0.061c-0.021 0-0.041 0-0.062 0-0.010 0.038-0.031 0.068-0.061 0.091 0 0.021 0 0.042 0 0.062h0.061l0.031 0.031-0.122 0.153 0.030 0.032c-0.001 0.075 0.009 0.146 0.031 0.215 0.053 0.062 0.115 0.113 0.185 0.154h0.184l0.123 0.061-0.032 0.092c-0.062 0.056-0.103 0.128-0.122 0.215h0.030l0.061 0.062h0.062c0 0.031 0 0.061 0 0.091l0.092 0.031v0.062h-0.031l-0.030-0.032v0.032l0.030 0.031 0.061-0.062v0.062l-0.030 0.031 0.030 0.030 0.031-0.030h0.031l-0.031 0.030 0.031 0.031-0.062 0.062v0.031h0.062l0.031 0.031 0.030-0.061h0.061v0.031h0.093l0.030 0.061v0.030l0.031 0.031-0.061 0.031c0 0.021 0 0.042 0 0.062h-0.032l-0.031-0.031h-0.030l0.030 0.031-0.030 0.031h-0.091v0.122l-0.062-0.061 0.031 0.061h-0.062l-0.030 0.032c0 0.041 0 0.082 0 0.122h0.030c0 0.031 0 0.061 0 0.092l0.031 0.031v0.061l-0.031-0.031c-0.020 0.021-0.041 0.041-0.061 0.061l0.031 0.031v0.031l-0.031 0.031-0.030-0.061-0.031 0.061-0.062 0.031h-0.030l0.030-0.031v-0.031h-0.030l-0.031 0.061h-0.030l-0.062 0.031-0.030 0.061-0.061 0.032v0.030h0.030v0.031c0.020 0.021 0.041 0.041 0.061 0.061l-0.030 0.031 0.030 0.062-0.030 0.061-0.061 0.031-0.031-0.031-0.030 0.061h-0.031c-0.031 0.031-0.062 0.062-0.092 0.093v0.031h-0.092l-0.031 0.030-0.032 0.093h-0.061l0.031 0.031h-0.061l-0.061 0.061-0.032-0.031-0.030 0.031-0.061-0.031v0.061l-0.031-0.031-0.062 0.031h-0.061v0.061c-0.010 0.038-0.030 0.069-0.061 0.093h0.031v0.031l-0.061 0.031 0.030 0.030h0.092v0.062l0.030 0.061 0.093 0.031 0.061 0.061v0.092l-0.092 0.031v0.031h0.061v0.031c-0.021 0-0.041 0-0.061 0-0.020 0.042-0.041 0.082-0.062 0.123 0 0.031 0 0.061 0 0.092h0.032l0.061-0.031h0.030l-0.030 0.093 0.030 0.153 0.031 0.032v0.061l-0.031 0.031-0.061-0.031-0.030 0.031 0.030 0.093c-0.041 0.041-0.082 0.081-0.123 0.122l-0.030 0.123h-0.061c-0.027 0.048-0.037 0.1-0.031 0.154l-0.031 0.031 0.062 0.061-0.062 0.031h-0.092c0.003 0.053-0.008 0.104-0.030 0.154l0.061 0.154-0.031 0.031h-0.061c0.021 0 0.041 0 0.061 0v0.031h-0.030l-0.031 0.031v0.031h0.061v0.062h-0.030l-0.031-0.031-0.030 0.062-0.062 0.031v0.061l-0.061 0.031c-0.003 0.043 0.007 0.084 0.031 0.123-0.021 0.041-0.041 0.082-0.061 0.123v0.061l0.061 0.061-0.031 0.031c-0.022 0.060-0.032 0.122-0.030 0.185-0.065 0.059-0.106 0.131-0.123 0.215l0.062 0.031v0.032l-0.062 0.061 0.030 0.061-0.030 0.030 0.030 0.062-0.030 0.031c0.016 0.095 0.007 0.189-0.031 0.276l0.031 0.184-0.031 0.061c0.022 0.071 0.032 0.143 0.031 0.216 0.023 0.047 0.054 0.088 0.093 0.122l-0.031 0.062v0.031l0.061 0.061v0.061l0.030 0.031h-0.061v0.062h0.030c0.059 0.031 0.111 0.072 0.154 0.122l-0.032 0.062 0.093 0.122-0.031 0.030v0.062l0.031 0.031v0.031l0.091 0.061-0.030 0.062 0.030 0.031c0.004 0.043-0.007 0.084-0.030 0.122l0.061 0.062h-0.031v0.061l-0.061 0.061v0.031c0.021 0.076 0.062 0.137 0.123 0.185l0.031-0.061c0.017 0.051 0.048 0.092 0.091 0.123v0.030h0.031l0.030 0.061c0.021-0.020 0.041-0.041 0.062-0.061v0.061l0.092 0.031c0.016 0.051 0.047 0.092 0.092 0.123h0.030l0.030-0.031c0.051 0 0.103 0 0.154 0v0.031l0.061 0.030-0.031 0.061 0.061 0.062v0.061l-0.061 0.031 0.031 0.123h-0.031l0.031 0.031c-0.011 0.038-0.031 0.068-0.061 0.091 0 0.052 0 0.103 0 0.154l0.061 0.061-0.031 0.031 0.031 0.031c0 0.031 0 0.061 0 0.092l-0.061 0.031-0.030 0.092 0.030 0.122h0.030v0.032l0.031 0.030-0.031 0.031h0.061l-0.030 0.031h-0.031l-0.030 0.031h0.030c0 0.051 0 0.103 0 0.154h-0.030l-0.030 0.031 0.030 0.031c-0.030 0.058-0.040 0.12-0.030 0.184l-0.062 0.031 0.032 0.062-0.032 0.031 0.062 0.092-0.031 0.093 0.031 0.061c0.030 0 0.061 0 0.092 0l0.061-0.031h0.092c0.011 0.038 0.031 0.068 0.061 0.091l0.061-0.061-0.030-0.061 0.030-0.031v0.031l0.062 0.092c-0.023 0.039-0.034 0.080-0.031 0.123l-0.032 0.031v-0.031l-0.061 0.031-0.030 0.061 0.030 0.031h-0.030l-0.031 0.062 0.031 0.030-0.031 0.031v0.030h0.092l0.030 0.062v0.030l0.032-0.030 0.092 0.030c0.030 0.031 0.061 0.062 0.092 0.092l0.031-0.030h0.091c0.024-0.030 0.055-0.051 0.093-0.061l0.061 0.061 0.030-0.031v0.031h0.030l0.031 0.030v0.031l0.032 0.030v0.062l0.061 0.061v0.061h0.030v-0.031l0.030-0.030 0.031 0.030c0 0.051 0 0.103 0 0.154l0.030 0.061c0.058 0.030 0.12 0.040 0.185 0.031l0.032 0.123 0.061 0.030-0.030 0.093 0.030 0.061h0.061l0.062-0.031c0 0.031 0 0.061 0 0.091l0.061 0.062v0.031h0.030l-0.030 0.061c0.030 0 0.061 0 0.092 0v0.030l0.030-0.030v-0.061h0.093l0.031 0.030c-0.003 0.053 0.007 0.104 0.030 0.154l-0.030 0.030v0.061h0.061l0.031-0.030h0.032c0.030 0.030 0.061 0.061 0.091 0.092l-0.031 0.031 0.031 0.031 0.030 0.092-0.030 0.031h0.030c0.031 0.031 0.062 0.062 0.093 0.092h0.092l0.031 0.061 0.093 0.030v-0.030c0.030 0 0.061 0 0.091 0 0.032 0.030 0.063 0.061 0.093 0.093h0.030l0.031 0.030c0.030 0 0.061 0 0.091 0l0.062 0.030 0.061-0.030 0.031 0.030 0.030-0.030c0.011 0.037 0.032 0.068 0.062 0.092h0.030l0.030-0.030h0.031l0.030 0.061 0.123-0.031 0.061 0.031h0.062v-0.031c0.031 0.042 0.061 0.082 0.092 0.123l0.030-0.030c0.083 0.001 0.165-0.009 0.246-0.032v0.062l-0.030 0.030v0.031c0.024 0.030 0.055 0.051 0.093 0.061l0.061 0.093-0.061 0.031v0.030l-0.031 0.031 0.061 0.030v4.519c-1.721 0-3.443 0-5.164 0-0.073 0.143-0.104 0.297-0.092 0.461-0.073 0.078-0.17 0.132-0.277 0.154v0.031l-0.091 0.092v0.061c0.020 0.020 0.041 0.041 0.061 0.061l-0.061 0.062c0 0.030 0 0.061 0 0.092l-0.031 0.031 0.031 0.062-0.093 0.030-0.061 0.092h-0.061l0.031 0.031-0.123 0.123v0.122c-0.041 0.082-0.082 0.164-0.122 0.247l0.030 0.031v0.030l0.031 0.030-0.031 0.061h-0.030l-0.093 0.093 0.030 0.061-0.061-0.031-0.030 0.031v0.062l-0.030 0.061-0.062 0.030-0.031-0.030-0.030 0.030 0.030 0.092-0.030 0.123-0.031 0.031 0.092 0.123c-0.021 0.020-0.041 0.041-0.061 0.061v0.123h-0.092c-0.003 0.043 0.007 0.084 0.031 0.122l-0.031 0.062v0.030l-0.062 0.031-0.031 0.092-0.030 0.032 0.030 0.031-0.030 0.030 0.030 0.030v0.061l-0.185 0.123v0.061l-0.030 0.062v0.030l-0.061 0.031c0.022 0.071 0.032 0.143 0.030 0.215l0.061 0.031v0.061l-0.030 0.032 0.030 0.061 0.062-0.030v0.061l0.061 0.031c0.027 0.061 0.069 0.113 0.123 0.154 0.020 0 0.041 0 0.061 0v0.092l0.061 0.062-0.031 0.092h0.031v0.092l-0.031 0.061h-0.030c-0.063 0.015-0.114 0.045-0.154 0.092-0.041 0-0.082 0-0.123 0l-0.031 0.062h-0.091c-0.050 0.019-0.091 0.050-0.123 0.092l-0.031-0.030c-0.061 0-0.123 0-0.184 0-0.031 0.030-0.061 0.061-0.092 0.093l0.030 0.030-0.030 0.031 0.030 0.030-0.030 0.061h-0.030l-0.062 0.062 0.062 0.030v0.031l-0.123 0.122h-0.030l-0.031-0.031h-0.062v-0.030l-0.153-0.061v0.091c-0.039-0.023-0.080-0.034-0.123-0.030l-0.031 0.030h-0.030v0.031l-0.093 0.032-0.061 0.061-0.030-0.030 0.030-0.062c-0.066 0.004-0.128-0.017-0.185-0.061l-0.030 0.030-0.093-0.061-0.092 0.031 0.030-0.061c-0.030-0.024-0.051-0.055-0.061-0.093l0.031-0.061-0.031-0.030 0.031-0.061-0.092-0.030v-0.032c0.030-0.023 0.051-0.054 0.062-0.092l-0.030-0.061-0.031 0.030c-0.021-0.020-0.042-0.041-0.061-0.062h-0.031c0-0.072 0-0.143 0-0.216l-0.061-0.030h-0.154c-0.028-0.059-0.038-0.121-0.031-0.185-0.020-0.021-0.041-0.041-0.062-0.061l-0.091 0.061-0.123-0.122v-0.062h-0.030v-0.122l0.030-0.031-0.030-0.123h-0.060l-0.030 0.031h-0.031l-0.031-0.031-0.031 0.031c-0.061 0-0.123 0-0.185 0l-0.122-0.061c-0.031 0-0.061 0-0.092 0l-0.030-0.031-0.031-0.123-0.123-0.061c-0.043-0.003-0.084 0.007-0.122 0.031-0.020-0.021-0.041-0.041-0.062-0.061l-0.091 0.030-0.030 0.031v0.030c-0.058-0.030-0.12-0.040-0.185-0.030l-0.061-0.031h-0.032l-0.030 0.031v0.061l0.030 0.062-0.030 0.030v0.092l-0.030 0.030c-0.102 0.024-0.204 0.034-0.307 0.030l-0.123 0.123-0.092-0.030c-0.1 0.049-0.193 0.111-0.277 0.185h-0.092c0 0.031 0 0.061 0 0.092l-0.032 0.031h-0.092c-0.038 0.035-0.069 0.076-0.092 0.123v0.092c-0.065 0.104-0.164 0.191-0.277 0.247-0.060 0.116-0.080 0.239-0.061 0.369l0.030 0.030v0.031l-0.061 0.061v0.154l-0.093 0.061v0.092l-0.031 0.031 0.031 0.091-0.031 0.123 0.031 0.031h0.062c0 0.030 0 0.061 0 0.092 0.044 0.031 0.074 0.072 0.091 0.122v0.123l-0.030 0.061h-0.093l-0.030 0.031v0.030l0.062 0.062-0.062 0.031v0.030c0.030 0.024 0.051 0.055 0.062 0.093-0.041 0.043-0.072 0.096-0.093 0.153l0.031 0.093c-0.020 0.021-0.041 0.041-0.061 0.061-0.036 0.122-0.067 0.245-0.093 0.369-0.044 0.031-0.075 0.072-0.091 0.122l0.091 0.032 0.123 0.122v0.062c-0.042 0.077-0.094 0.149-0.154 0.215v0.031c0.053-0.003 0.104 0.007 0.154 0.030l0.031 0.092h0.123l0.061 0.030c0 0.041 0 0.082 0 0.123l0.092 0.184 0.153 0.061c0.011 0.038 0.032 0.069 0.062 0.093v0.061l-0.030 0.030v0.125h-0.031c-0.087-0.088-0.179-0.17-0.277-0.246-0.147-0.32-0.434-0.51-0.799-0.554l-0.091-0.092c-0.074-0.015-0.146-0.035-0.216-0.061-0.063 0.041-0.122 0.081-0.184 0.123-0.105 0.011-0.207 0-0.308-0.031-0.033-0.179-0.115-0.333-0.246-0.462-0.011-0.085-0.031-0.166-0.061-0.246l-0.123-0.123c-0.018-0.223-0.127-0.417-0.308-0.553-0.041 0-0.081 0-0.122 0-0.060-0.028-0.112-0.070-0.154-0.123l0.031-0.061-0.061-0.123h-0.061l-0.032-0.030h-0.031c-0.030-0.031-0.061-0.061-0.091-0.092l-0.123-0.031v-0.092h-0.061l-0.061-0.030h-0.123c-0.030-0.060-0.072-0.111-0.123-0.154l-0.061 0.031v-0.031c-0.045-0.031-0.075-0.072-0.092-0.123h-0.062c-0.030-0.069-0.071-0.13-0.122-0.185h-0.031v-0.031l-0.061-0.030 0.031-0.031v-0.030l-0.031-0.031v-0.030l-0.061-0.032-0.031-0.061-0.123-0.030-0.031-0.030h-0.061v0.030l-0.031-0.030h-0.032l-0.030-0.061-0.061 0.030-0.093-0.062c-0.023-0.039-0.034-0.079-0.030-0.122l0.062-0.030-0.032-0.092h-0.030v-0.092l0.062-0.032v-0.092l0.031-0.030 0.092 0.061v-0.031l0.062 0.031h0.122v0.030c0.042 0.033 0.072 0.074 0.093 0.123l0.061-0.030v-0.031l0.030-0.032 0.092 0.032 0.031-0.032-0.031-0.031h-0.031c0-0.030 0-0.061 0-0.091h0.093v-0.031l0.030 0.031 0.061-0.031v-0.062c0.031 0 0.062 0 0.093 0l0.030-0.031h0.031l0.030-0.030v-0.030c-0.011-0.037-0.031-0.069-0.061-0.092v-0.032h0.061v-0.061c-0.030-0.030-0.061-0.061-0.091-0.092v-0.062l-0.031-0.061 0.031-0.030v-0.031l0.030-0.030-0.030-0.093 0.030-0.030h0.031l0.030-0.061v-0.062l0.031-0.030 0.032 0.030 0.031-0.061h-0.031v-0.061c0.079-0.042 0.142-0.078 0.215-0.123l0.031-0.091h0.031v-0.032l0.061-0.030-0.031-0.092c0.021-0.020 0.041-0.040 0.061-0.061v-0.123l0.031-0.030-0.153-0.093-0.031 0.031h-0.032c-0.021-0.021-0.041-0.041-0.061-0.061l0.031-0.031-0.061-0.091v-0.032l0.061-0.030 0.030-0.061h-0.061l-0.030-0.061v-0.093l0.061-0.031-0.031-0.092 0.031-0.062v-0.031l-0.061-0.030h-0.061c-0.076-0.098-0.148-0.2-0.215-0.308v-0.061c-0.011-0.038-0.032-0.068-0.062-0.092v-0.032h0.031c0.013-0.151-0.017-0.293-0.092-0.43l-0.093-0.030-0.031-0.061c-0.11-0.020-0.196-0.085-0.246-0.185 0-0.123 0-0.246 0-0.369-0.022-0.075-0.063-0.137-0.122-0.185 0.020-0.11-0.001-0.212-0.062-0.307l0.030-0.185-0.030-0.092c0.012-0.054 0.034-0.105 0.062-0.153v-0.032l0.031-0.030c-0.034-0.057-0.055-0.118-0.063-0.185-0.048-0.045-0.088-0.096-0.122-0.154l-0.092 0.062h-0.061v-0.215l-0.061-0.093c0.081-0.269 0.072-0.531-0.031-0.799 0.064-0.204 0.19-0.372 0.368-0.492v-0.184c-0.030-0.031-0.061-0.062-0.091-0.093l-0.031-0.122 0.061-0.215 0.092-0.093c0.026-0.060 0.036-0.121 0.031-0.185-0.058-0.077-0.11-0.16-0.154-0.246l0.031-0.061-0.031-0.030c0.003-0.063 0.013-0.125 0.031-0.185-0.082 0-0.164 0-0.246 0-0.158-0.404-0.282-0.827-0.369-1.26l-0.061-0.032-0.031-0.092 0.031-0.061c0.002-0.081-0.033-0.161-0.092-0.215h-0.031c-0.135-0.074-0.259-0.167-0.369-0.277l-0.031-0.122-0.061-0.032c-0.030-0.069-0.071-0.13-0.123-0.185l-0.122-0.061c-0.007-0.074 0.004-0.145 0.030-0.215 0.090-0.121 0.187-0.217 0.307-0.307l0.031-0.062-0.031-0.492c0.129-0.176 0.174-0.38 0.123-0.584l-0.061-0.061h-0.031c-0.114-0.091-0.248-0.142-0.399-0.154v-0.031l-0.061-0.093c-0.186-0.008-0.374-0.039-0.553-0.092-0.106 0.055-0.218 0.086-0.338 0.092l-0.215-0.122c-0.192-0.159-0.302-0.372-0.308-0.616h-0.092l-0.032-0.031c-0.18 0.002-0.359 0.045-0.522 0.123-0.13-0.059-0.253-0.131-0.369-0.215-0.037-0.090-0.099-0.162-0.184-0.215-0.003-0.043 0.007-0.084 0.030-0.123-0.051-0.16-0.093-0.329-0.122-0.491l0.122-0.154v-0.095c-0.888 0.255-1.793 0.203-2.644-0.184l-0.030 0.031-0.061-0.061h-0.032l-0.030 0.031c-0.021 0-0.041 0-0.061 0l-0.031-0.031 0.031-0.031-0.061-0.031v-0.031h-0.062l-0.031-0.031c0.043-0.064 0.064-0.139 0.062-0.215l0.031-0.062c0-0.031 0-0.061 0-0.091l0.030 0.030h0.031v-0.091l0.091-0.062v-0.061c0.045-0.031 0.076-0.072 0.093-0.122v-0.062l-0.031-0.061h0.031v-0.061l-0.061-0.062v-0.031l0.061-0.061h0.030l-0.030-0.062-0.061-0.031v-0.092l0.031-0.031v-0.031h-0.062c0-0.021 0-0.041 0-0.062l-0.030-0.061v-0.031l0.030-0.031c-0.050-0.055-0.111-0.096-0.183-0.123-0.032-0.061-0.063-0.122-0.093-0.184v-0.276l-0.154-0.062c-0.052-0.077-0.092-0.158-0.122-0.246-0.153-0.191-0.308-0.356-0.492-0.522 0.175-0.303 0.173-0.638 0-0.953l0.030-0.308-0.091-0.061-0.031-0.061 0.031-0.093c0.106-0.089 0.2-0.192 0.276-0.307l0.029 0.031z"></path>
</svg>
