<?xml version="1.0" encoding="utf-8"?>
<!-- Generated by IcoMoon.io -->
<!DOCTYPE svg PUBLIC "-//W3C//DTD SVG 1.1//EN" "http://www.w3.org/Graphics/SVG/1.1/DTD/svg11.dtd">
<svg version="1.1" xmlns="http://www.w3.org/2000/svg" xmlns:xlink="http://www.w3.org/1999/xlink" width="32" height="32" viewBox="0 0 32 32">
<path d="M0 11.215l0.124-0.093v-0.124l-0.031-0.031 0.031-0.031 0.061 0.031c0.062 0 0.124 0 0.186 0 0.060-0.031 0.111-0.071 0.154-0.123l0.031-0.093c0.135-0.043 0.249-0.115 0.34-0.216l0.092 0.031 0.031-0.031 0.124-0.031 0.062-0.092 0.185-0.032c0-0.031 0-0.061 0-0.092l0.031-0.061c0.168-0.151 0.316-0.299 0.464-0.464 0.023-0.108 0.013-0.211-0.032-0.309l-0.092-0.062v-0.030l0.031-0.031c0.057 0.045 0.119 0.065 0.185 0.061l0.062-0.031 0.093 0.062 0.061-0.062 0.031 0.031v0.062c0.041 0 0.083 0 0.124 0l0.031-0.031-0.031-0.093c0.041 0 0.082 0 0.123 0l0.093 0.093h0.030l0.062-0.032c0.078-0.008 0.15 0.013 0.217 0.062l0.061-0.062h0.030l0.092-0.061c0.115 0.022 0.218 0.032 0.34 0.031l0.062-0.031v-0.031c0.062 0 0.124 0 0.185 0l0.063 0.031h0.092v0.061c0.065 0.037 0.125 0.077 0.185 0.124 0.013 0.055 0.034 0.106 0.061 0.155 0.049 0.027 0.101 0.037 0.155 0.031l0.093 0.092h0.031l0.030 0.032v0.092h0.031l0.061-0.031 0.032 0.155h0.031l0.030 0.031 0.031 0.092h0.030c0.031-0.031 0.062-0.062 0.093-0.092h0.061l0.030-0.062h0.031l0.061 0.031h0.032l0.123-0.248 0.061-0.031 0.032-0.247c0.041 0 0.082 0 0.123 0 0.011-0.038 0.032-0.068 0.062-0.092 0.097-0.049 0.201-0.070 0.308-0.062 0.082 0.036 0.154 0.087 0.216 0.155 0.021 0 0.041 0 0.062 0l0.032 0.031v0.062l0.031 0.031 0.092-0.031 0.031-0.062 0.063 0.062 0.061-0.032 0.030 0.032c-0.003-0.098-0.037-0.196-0.092-0.279 0.028-0.142 0.038-0.286 0.030-0.432l0.031-0.031c0.077 0.032 0.149 0.073 0.216 0.123h0.031l0.030-0.031v-0.031h0.124l0.031-0.061c0.142-0.108 0.3-0.193 0.464-0.247l0.153 0.092c0 0.052 0 0.103 0 0.154l0.093 0.155c-0.023 0.050-0.034 0.101-0.031 0.154l0.093 0.032v0.061l-0.061 0.092v0.062c0.054-0.005 0.104 0.005 0.153 0.031l0.062 0.062 0.123-0.092h0.062l0.061-0.032-0.030-0.061 0.030-0.031c0.052 0 0.103 0 0.155 0l0.030-0.031v-0.031l0.062-0.062-0.030-0.092h0.030c0.021-0.021 0.042-0.041 0.062-0.061h0.062l-0.031-0.062 0.062-0.062v-0.061l0.061-0.062h0.093l0.062-0.061v-0.031l0.061-0.031c0.004-0.080 0.037-0.159 0.093-0.216l-0.030-0.062v-0.031l-0.031-0.061c0-0.052 0-0.103 0-0.155l-0.032-0.031c0-0.031 0-0.061 0-0.092l0.032-0.032c0.054-0.119 0.074-0.242 0.061-0.37l0.061 0.031c0.030-0.024 0.051-0.055 0.062-0.093 0.127-0.129 0.286-0.195 0.464-0.185 0.048 0.045 0.089 0.097 0.123 0.155 0.095-0.005 0.183-0.050 0.248-0.124v-0.031h0.061c0.039 0.035 0.070 0.076 0.092 0.124l0.063-0.031c0.094 0.006 0.186 0.016 0.278 0.031 0.024-0.030 0.055-0.051 0.093-0.062v-0.062h0.030c0.038-0.011 0.069-0.031 0.092-0.061 0.159 0.025 0.306 0.025 0.463 0 0.199-0.085 0.413-0.16 0.618-0.216 0.001 0.096-0.021 0.194-0.062 0.278l0.062 0.031c0.125-0.032 0.245-0.033 0.371 0l0.248-0.154h0.123l0.031-0.031c-0.014-0.187-0.035-0.374-0.061-0.556 0.058-0.040 0.099-0.091 0.124-0.155l-0.062-0.124v-0.153c0.023-0.048 0.054-0.089 0.093-0.124l0.061 0.031h0.062l0.093-0.061c0.073-0.002 0.145 0.009 0.216 0.031l-0.031-0.124 0.093-0.123-0.031-0.031c0.030-0.024 0.050-0.055 0.061-0.093v-0.062l0.063-0.031 0.031-0.155 0.030-0.031h0.031l0.030 0.031v0.031l0.062 0.061h0.031l0.092-0.154v-0.062h-0.030l-0.061-0.061v-0.092l-0.093-0.093c-0.024-0.039-0.034-0.080-0.030-0.123l0.155-0.124v-0.061l-0.062-0.062-0.124-0.031v-0.062l0.155-0.093v-0.278l0.061-0.031 0.093 0.031c0.052-0.053 0.095-0.116 0.123-0.185 0.165-0.004 0.317 0.062 0.432 0.185h0.031c0.040-0.034 0.071-0.075 0.093-0.124v-0.062c0.040-0.082 0.102-0.144 0.185-0.185l-0.124-0.216v-0.031c0.068-0.081 0.15-0.143 0.248-0.185 0.026-0.073 0.068-0.135 0.123-0.185l0.030-0.092-0.030-0.032v-0.061l0.093-0.061 0.031-0.093 0.061-0.031 0.030-0.061-0.030-0.061 0.030-0.216c1.141 0.043 2.286 0.053 3.429 0.031l0.061 0.061h0.032l0.030 0.031h0.031c0.037 0.048 0.068 0.1 0.092 0.155h0.124c0.16 0.085 0.3 0.185 0.432 0.308v0.032l0.061 0.061-0.031 0.031 0.031 0.093 0.032 0.031c-0.011 0.037-0.032 0.068-0.062 0.092 0 0.021 0 0.042 0 0.062l0.031 0.061 0.062 0.031 0.061 0.124-0.030 0.031c0.056 0.063 0.128 0.104 0.216 0.123 0.010 0.038 0.031 0.069 0.061 0.093l0.031-0.031 0.032 0.031h0.031l0.031 0.031h0.031l0.030 0.092-0.030 0.062h0.030v0.061l0.031 0.061-0.031 0.062h0.062c0.011 0.038 0.032 0.069 0.061 0.092v0.031h0.031c0.039-0.059 0.090-0.1 0.154-0.123l0.031-0.062h0.031l0.031-0.031c0.044 0.032 0.075 0.073 0.093 0.124 0.074 0.045 0.16 0.067 0.247 0.061 0.057 0.021 0.111 0.053 0.154 0.093v0.061c-0.035 0.057-0.056 0.118-0.062 0.185 0.028 0.070 0.038 0.142 0.031 0.216 0.012 0.038 0.032 0.068 0.062 0.092h0.061l0.031 0.062-0.031 0.092 0.061 0.061c-0.024 0.055-0.055 0.107-0.092 0.155v0.031c0.071 0.075 0.154 0.137 0.247 0.185h0.031l0.032-0.062-0.093-0.093v-0.061c0.042-0.031 0.082-0.061 0.124-0.092l0.123 0.031 0.062 0.062c0.061 0 0.123 0 0.185 0 0.013 0.054 0.035 0.106 0.062 0.154v0.062h-0.093l-0.030 0.031c0.072 0.031 0.123 0.083 0.154 0.154l-0.031 0.062 0.031 0.062c0.038 0.011 0.069 0.032 0.092 0.061l-0.031 0.061c-0.004 0.122 0.038 0.235 0.124 0.34l0.124 0.031 0.123-0.062c0.062 0 0.123 0 0.185 0l0.061 0.123 0.062 0.032 0.061 0.092v0.093l0.030 0.031 0.031-0.031 0.186 0.061 0.062-0.031h0.092v-0.062h0.093l0.093-0.062c0-0.041 0-0.083 0-0.124l0.031-0.031-0.031-0.061c0.017-0.051 0.048-0.092 0.092-0.124v-0.153l0.030-0.063h0.032l0.092 0.063h0.092l0.062 0.031 0.061-0.061v-0.032l0.062-0.031v-0.031l0.032-0.031-0.032-0.031 0.032-0.062h0.061l0.061-0.031 0.031 0.093 0.032 0.031 0.123-0.031 0.093 0.031c0.042 0.031 0.082 0.061 0.123 0.092l-0.030 0.093c0.062 0.057 0.104 0.128 0.124 0.216 0.030 0 0.061 0 0.092 0l0.031 0.031h0.030l0.124 0.061c0.031 0 0.062 0 0.093 0 0 0.021 0 0.042 0 0.062l0.031 0.031 0.031 0.123 0.093 0.093 0.031 0.092 0.062 0.063c-0.157 0.159-0.258 0.369-0.279 0.587l-0.061 0.061v0.061h-0.030c-0.032 0.090-0.042 0.183-0.031 0.279 0.023 0.047 0.054 0.088 0.092 0.123l0.030 0.093 0.032 0.031c0.005 0.084-0.005 0.166-0.032 0.247l0.032 0.061-0.032 0.032-0.030-0.032c-0.059-0.030-0.121-0.040-0.185-0.031l-0.061 0.031-0.031 0.062h-0.154c0 0.031 0 0.061 0 0.092l0.030 0.031 0.061-0.031c0.003 0.043-0.007 0.085-0.031 0.124l0.031 0.061c-0.030 0.024-0.051 0.055-0.061 0.092 0 0.041 0 0.083 0 0.124l0.061-0.031v0.031l0.062 0.031h0.092c0.031 0.045 0.073 0.076 0.124 0.093l-0.061 0.031 0.061 0.092-0.031 0.031v0.062h-0.031l-0.093 0.092 0.031 0.031v0.032c0.065 0.076 0.146 0.126 0.248 0.154l-0.124 0.031v0.032l0.092 0.092 0.063-0.031v0.061h0.031v0.124h0.030v0.031h0.031c0.002 0.063-0.009 0.125-0.031 0.185l0.031 0.061h0.030l0.031-0.031v0.031h0.032c-0.047 0.040-0.078 0.091-0.093 0.154h-0.061c0.027 0.049 0.037 0.101 0.030 0.155l-0.092 0.031-0.032 0.061h-0.061l-0.030-0.031-0.124 0.062 0.030 0.032h0.062l0.123 0.061v0.092l-0.092 0.124c0.041 0.021 0.083 0.041 0.124 0.061v0.031l-0.032 0.062 0.063 0.031c0.017 0.104 0.027 0.202 0.031 0.308l-0.062 0.062v0.123l-0.032 0.031 0.032 0.032v0.031h-0.032l-0.030 0.061 0.030 0.031v0.093l-0.061 0.031c0.004 0.066-0.017 0.128-0.061 0.185l-0.093 0.061v0.031l-0.031 0.031 0.031 0.093h-0.031v0.062l-0.030 0.061c-0.003 0.083-0.014 0.167-0.031 0.248h0.092v0.031l0.093 0.031c0 0.031 0 0.061 0 0.092l0.031 0.031-0.124 0.031c0 0.062 0 0.123 0 0.185 0.045 0.086 0.098 0.169 0.154 0.247l-0.061 0.031 0.031 0.062h0.030l0.031 0.062c0.031 0 0.062 0 0.093 0l0.031 0.092h0.030v0.124l0.031 0.061h0.030c0.024 0.030 0.055 0.051 0.093 0.061l-0.031 0.031v0.032c0.021 0 0.041 0 0.061 0l-0.031 0.154-0.031 0.032 0.031 0.031-0.062 0.123v0.185l0.062 0.061v0.062l-0.062 0.061 0.032 0.093-0.032 0.031 0.032 0.061-0.062 0.093 0.031 0.031c0 0.062 0 0.124 0 0.185h-0.031l-0.030 0.031v0.092l0.061 0.061h0.032v0.032l-0.062 0.031v0.031l0.031 0.061v0.062l0.032 0.031-0.032 0.092 0.032 0.063h-0.062v-0.032l-0.030-0.031v-0.031c-0.021 0.020-0.041 0.041-0.061 0.061l0.030 0.063-0.030 0.061v0.092l-0.062 0.032c0 0.062 0 0.123 0 0.185h-0.032l0.032 0.032v0.061h0.031c-0.010 0.073-0.021 0.143-0.031 0.217l-0.032 0.030v0.093c-0.030 0-0.061 0-0.092 0v0.030c1.667 0.038 3.336 0.048 5.004 0.031v0.092l0.031 0.032h0.030l-0.030 0.123h0.030l0.031-0.031c0.038 0.011 0.069 0.032 0.093 0.061l-0.031 0.093c0.020 0 0.041 0 0.062 0v0.028l0.031 0.031v0.030l0.031 0.031c0.031 0 0.062 0 0.093 0l0.092 0.062 0.031-0.030h-0.031l0.031-0.093-0.031-0.031 0.061 0.031 0.093-0.092h0.030l0.031-0.032 0.031 0.032c0.021 0 0.042 0 0.062 0 0 0.041 0 0.082 0 0.123l0.031 0.031c0.051 0 0.102 0 0.153 0 0.041 0.021 0.082 0.042 0.124 0.062h0.031l0.062 0.031 0.030-0.061c0.044 0.004 0.085-0.007 0.123-0.032 0.021 0.021 0.042 0.042 0.062 0.062l0.061-0.030 0.061 0.030 0.031-0.030 0.032 0.030c0.021 0 0.041 0 0.061 0v-0.030l0.031-0.032 0.030 0.032 0.031 0.123 0.124-0.031 0.031-0.031 0.031 0.061h0.030l0.032-0.061v0.031c0.041 0 0.082 0 0.123 0v-0.031l0.062 0.031-0.032 0.093-0.030-0.032 0.030 0.062h-0.061v0.031l0.031 0.031v0.031l0.030 0.061h0.063v0.032h0.030c-0.020 0.020-0.041 0.041-0.061 0.061h-0.032c0 0.052 0 0.103 0 0.155l0.063 0.092v0.062l0.030 0.062v0.061l0.062 0.061 0.093 0.031c0.027 0.049 0.037 0.1 0.030 0.154l-0.030 0.031h0.030l-0.030 0.031c0.028 0.059 0.038 0.12 0.030 0.185l-0.030 0.062v0.031l-0.032 0.030h-0.031c-0.021 0.021-0.041 0.041-0.062 0.061h-0.092l-0.062 0.155c-0.060 0.029-0.112 0.071-0.155 0.124l-0.030-0.030c0 0.021 0 0.041 0 0.061-0.052 0.043-0.092 0.095-0.123 0.154v0.031l-0.093 0.030v0.031h-0.030l-0.031 0.031v-0.031l-0.031 0.031 0.031 0.031h-0.031l0.031 0.032h-0.061l0.031 0.031c-0.021 0-0.042 0-0.062 0l-0.031 0.030 0.031 0.031-0.031 0.030 0.031 0.062-0.031 0.031h0.031l-0.031 0.061 0.031 0.030h-0.031c0 0.062 0 0.124 0 0.185h-0.030l0.030 0.031c0 0.031 0 0.062 0 0.093l-0.030 0.031 0.061 0.030-0.031 0.031c0.027 0.049 0.037 0.1 0.031 0.154h0.032c0 0.021 0 0.041 0 0.061h-0.032v0.031h0.032v0.032l-0.032 0.030h0.062v0.031h-0.031l0.032 0.033-0.031 0.031 0.031 0.031h-0.031l0.031 0.062-0.062 0.031 0.032-0.031 0.031 0.031c0 0.030 0 0.061 0 0.092v-0.031h0.031v0.031h0.031v0.031l0.030 0.031c0 0.021 0 0.042 0 0.062 0.041 0.021 0.083 0.041 0.124 0.061l0.031-0.031 0.031 0.031 0.031-0.031 0.030 0.031 0.062-0.031 0.061 0.092h0.031l0.030 0.032-0.030 0.061 0.030 0.061c0 0.021 0 0.041 0 0.061h-0.030l0.093 0.062-0.031 0.030 0.031 0.031v0.030c-0.021 0-0.042 0-0.063 0l0.063 0.031v0.032c-0.021 0.041-0.041 0.083-0.063 0.123h0.063v0.061l0.030 0.032v0.031h0.031v0.031h0.031l0.093 0.061 0.030 0.093h0.031l0.061 0.092c0 0.092 0 0.185 0 0.279l-0.031 0.030c0.003 0.064 0.014 0.126 0.031 0.185l0.031 0.061c0 0.021 0 0.041 0 0.062h0.031l0.526 0.434-0.092 0.032-0.062 0.061v0.030l-0.061 0.061v0.062h-0.031l-0.030 0.031v0.061l-0.062 0.062 0.031 0.154c-0.019 0.062-0.061 0.105-0.123 0.124-0.038-0.011-0.069-0.032-0.093-0.062l-0.061 0.032v-0.032l-0.031 0.032c-0.031 0-0.061 0-0.092 0v0.031h-0.032c0 0.021 0 0.041 0 0.061l-0.092 0.031-0.092 0.124-0.124 0.031c-0.042 0.041-0.083 0.083-0.124 0.124 0.006 0.054-0.004 0.105-0.031 0.153h-0.031c-0.051 0.017-0.093 0.048-0.124 0.093l0.030 0.061v0.061l-0.061 0.093c-0.052 0.342-0.052 0.668 0 1.019l-0.030 0.092-0.092 0.093-0.062 0.185h-0.061l-0.030 0.061-0.031-0.030c-0.021 0-0.042 0-0.062 0l-0.030 0.030-0.093-0.030-0.030 0.030v0.031c-0.032 0.041-0.062 0.082-0.093 0.124v0.092h-0.030l-0.031 0.031h-0.062v0.062l-0.031 0.061h-0.031l-0.061 0.093h-0.062v0.062l-0.031 0.031 0.031 0.030c0 0.021 0 0.041 0 0.062l0.031 0.032-0.031 0.061 0.062 0.030-0.124 0.155c-0.021 0-0.041 0-0.062 0 0 0.031 0 0.061 0 0.092l-0.061 0.093v0.061h-0.030v0.124h-0.032l-0.031 0.092h-0.061c0 0.031 0 0.062 0 0.093l-0.031 0.031v-0.031c0 0.021 0 0.041 0 0.061l-0.030 0.062h-0.032l0.032 0.062c0 0.051 0 0.102 0 0.153h-0.032v0.031h-0.031v0.093l0.063 0.062-0.063 0.030c0 0.041 0 0.083 0 0.124l-0.030 0.062h-0.061v0.031h-0.031l-0.093 0.093v0.031l-0.123 0.030-0.032-0.030c-0.038 0.011-0.069 0.031-0.092 0.061v-0.031c-0.085 0.018-0.157 0.059-0.217 0.124v0.092h-0.061v0.030h-0.032c-0.034 0.040-0.075 0.071-0.123 0.093h-0.031l-0.030 0.031h-0.032l-0.061-0.031-0.092 0.031v0.031l-0.032 0.031c0 0.021 0 0.041 0 0.062l-0.031-0.032-0.031 0.062h-0.061v0.031h-0.030v0.031l-0.063 0.031c0 0.021 0 0.041 0 0.063l-0.030 0.030 0.030 0.031h-0.030l-0.031 0.030 0.031 0.031-0.031 0.031h-0.031v0.032h-0.031v0.030l0.031 0.031-0.031 0.030-0.124-0.061-0.061 0.031-0.061-0.031v-0.093h-0.034c-0.048-0.027-0.1-0.048-0.154-0.061l-0.032-0.061-0.061-0.032c-0.077 0.007-0.15-0.013-0.217-0.062l-0.030-0.061-0.124-0.093c-0.021-0.041-0.041-0.082-0.061-0.123l0.030-0.063-0.030-0.030h-0.031l-0.093 0.062h-0.031l-0.031-0.062c-0.031 0-0.061 0-0.092 0v0.030l-0.093 0.032-0.031-0.124h0.031l0.031 0.031v-0.031l-0.031-0.031v-0.061l0.031-0.032 0.030 0.032 0.032-0.032-0.124-0.061-0.061 0.030-0.062-0.030c-0.021 0-0.041 0-0.061 0v0.030l0.093 0.031c-0.024 0.030-0.055 0.051-0.093 0.062h-0.031l-0.031-0.062h-0.030l-0.063-0.031h-0.030v0.063l-0.031 0.061v0.031l-0.031 0.031-0.093-0.062-0.061 0.062 0.031-0.092h-0.031l-0.030 0.031 0.030 0.031-0.030 0.031-0.031-0.031v-0.031l-0.061-0.031h-0.063v-0.030l-0.030 0.061 0.030 0.031-0.061 0.062-0.061-0.062-0.062 0.031c-0.030-0.031-0.061-0.062-0.092-0.092v-0.062c-0.031 0-0.062 0-0.093 0l-0.061 0.032-0.030-0.032v-0.061l-0.061-0.031h-0.032l0.032 0.092-0.063 0.032h-0.123v0.061c-0.105-0.015-0.21-0.005-0.309 0.031l0.031 0.062c-0.021 0-0.041 0-0.062 0-0.077 0.042-0.16 0.073-0.247 0.093l-0.093-0.063h-0.092c-0.041-0.020-0.083-0.041-0.124-0.061v-0.031c-0.050-0.026-0.101-0.036-0.155-0.031l-0.030-0.031 0.030-0.093-0.030-0.030-0.031 0.030v0.031h-0.061l-0.064 0.065h-0.031v-0.062h-0.031v0.062h-0.030l-0.061-0.030v0.061c-0.044 0.003-0.085-0.007-0.124-0.031v-0.030l-0.061 0.030-0.061-0.062 0.030 0.032c-0.056 0.024-0.107 0.054-0.154 0.092l-0.031-0.031v0.031h-0.062l-0.031-0.031-0.030 0.031 0.030 0.031-0.030 0.031h-0.031v-0.092h-0.031c-0.010 0.038-0.032 0.069-0.062 0.092l-0.092-0.031-0.031-0.031v0.062h-0.031v-0.031l-0.062 0.031-0.030 0.062c0-0.041 0-0.083 0-0.124h-0.031l-0.030 0.062-0.062-0.031v-0.092l-0.062-0.062c0-0.062 0-0.124 0-0.185l-0.062-0.123v-0.031l-0.061 0.031h-0.032l-0.062-0.031v-0.031l-0.061-0.062-0.030 0.030-0.031-0.030h-0.062l0.032-0.062-0.032-0.031h-0.031l0.031-0.062-0.031-0.031-0.092-0.031v0.031h0.031l-0.031 0.031-0.062-0.092v-0.124c-0.021 0-0.041 0-0.061 0l-0.031 0.032-0.061-0.093h-0.062v-0.124l-0.061 0.032-0.061-0.032v-0.031h-0.031c-0.017-0.051-0.048-0.092-0.093-0.123v-0.030l0.031-0.062v-0.092l-0.031-0.030-0.031-0.155 0.031-0.061c-0.020-0.021-0.041-0.042-0.061-0.062h-0.031l-0.030 0.062h-0.032c-0.019-0.050-0.050-0.091-0.092-0.124v-0.094h-0.061c0 0.041 0 0.083 0 0.124l-0.032 0.061-0.061-0.030v-0.123l-0.062-0.062h-0.031l-0.031 0.062-0.032-0.032h-0.030l-0.031 0.124h-0.061v0.031l-0.061-0.031 0.031 0.061h-0.031l-0.062-0.061-0.030 0.031-0.031-0.061h-0.061l-0.032 0.061-0.031-0.061-0.061 0.061v-0.031h0.031l-0.031-0.030-0.030 0.030-0.062-0.030-0.031 0.030-0.061-0.061-0.030 0.031-0.031-0.031c0-0.031 0-0.062 0-0.093l-0.062 0.093c-0.017-0.051-0.048-0.092-0.092-0.124v-0.092l-0.031-0.031h-0.030l-0.031 0.062-0.032-0.031 0.032-0.062v-0.031h-0.032l-0.030 0.062h-0.031v-0.093h-0.031l-0.031 0.030 0.031 0.062-0.093 0.031-0.092-0.093-0.062 0.031h-0.062c-0.103-0.052-0.206-0.103-0.309-0.154v-0.062l0.061-0.030-0.031-0.031-0.061 0.031h-0.031l-0.032-0.031 0.032-0.062v-0.030c-0.031 0-0.062 0-0.093 0 0.024-0.039 0.034-0.081 0.031-0.124h-0.031l-0.061 0.030v0.031l-0.062 0.063h-0.092v0.061l-0.031-0.031-0.030 0.031-0.062-0.031-0.031 0.062c0 0.020 0 0.041 0 0.061l-0.062-0.061v-0.062h-0.030l-0.031 0.093-0.093-0.031c-0.050-0.067-0.091-0.138-0.123-0.216 0-0.042 0-0.083 0-0.124l-0.093-0.031c-0.021 0.021-0.041 0.041-0.061 0.061h-0.030l-0.032-0.031 0.032-0.061-0.063-0.061h-0.030l-0.062-0.124-0.061-0.031v-0.092c-0.051-0.018-0.092-0.049-0.124-0.093h-0.061l-0.032 0.031v0.031l-0.030 0.032v-0.063h-0.064l-0.031 0.063h-0.030l-0.031-0.032v-0.031l-0.124-0.031-0.030-0.061 0.030-0.093h-0.061v-0.092l-0.062-0.031c-0.020-0.087-0.050-0.17-0.092-0.248h-0.061l-0.063-0.030 0.031-0.092 0.062-0.030v-0.031l-0.030-0.032c-0.042 0-0.083 0-0.124 0v-0.031l0.031-0.030v-0.062c-0.052 0-0.103 0-0.154 0v-0.063l-0.061 0.032c0-0.021 0-0.041 0-0.062h-0.061v-0.092h-0.031l-0.032 0.030 0.032 0.061-0.062 0.031c-0.031-0.031-0.061-0.061-0.092-0.092l-0.031 0.031 0.031 0.061v0.032l-0.031 0.031h-0.093l-0.030 0.030h-0.092v0.031h0.031v0.030l0.031 0.031v0.032h-0.061l-0.032-0.032c-0.159 0.022-0.309-0.021-0.432-0.123l-0.092 0.030c-0.045-0.048-0.097-0.089-0.154-0.124l-0.031-0.123-0.062-0.032-0.031 0.032c-0.020-0.021-0.041-0.042-0.062-0.062h0.093l-0.062-0.061v-0.092c-0.103 0-0.206 0-0.309 0l-0.124-0.093-0.092-0.185c-0.093-0.031-0.186-0.061-0.278-0.092l-0.031-0.062-0.154-0.062-0.093 0.031-0.061-0.061c-0.109-0.052-0.222-0.073-0.34-0.062l-0.093-0.062c-0.041 0.041-0.082 0.082-0.123 0.124l-0.030-0.031-0.062 0.092c-0.070-0.015-0.131-0.045-0.184-0.092h-0.062l-0.031 0.031c-0.016 0.082-0.026 0.163-0.031 0.247l-0.031 0.030h-0.062c-0.054 0.049-0.115 0.080-0.185 0.093-0.046-0.048-0.097-0.089-0.154-0.124h-0.031v0.030l-0.032 0.032-0.061-0.062-0.062 0.062h-0.030l-0.031-0.093-0.063-0.031h-0.030l-0.031 0.031c-0.021 0-0.041 0-0.061 0v-0.061h-0.032c-0.031 0.031-0.062 0.061-0.092 0.092h-0.030v-0.092l-0.031-0.031c-0.021 0-0.041 0-0.062 0-0.023 0.050-0.033 0.101-0.031 0.153-0.031 0-0.061 0-0.092 0l-0.030-0.030 0.030-0.061v-0.124h-0.062l-0.031 0.030h-0.031l-0.061-0.030h-0.030l-0.063-0.061-0.092 0.124-0.093 0.031c-0.011 0.038-0.031 0.069-0.061 0.092-0.020-0.021-0.041-0.041-0.061-0.061 0.027-0.049 0.037-0.101 0.031-0.155-0.166 0.008-0.33-0.002-0.494-0.030-0.105-0.092-0.199-0.196-0.279-0.31-0.061-0.031-0.123-0.061-0.185-0.092-0.024-0.039-0.034-0.080-0.031-0.124 0.075-0.165 0.086-0.35 0.031-0.524l-0.031-0.031c-0.061 0.031-0.123 0.062-0.185 0.092h-0.031c-0.024-0.047-0.054-0.089-0.092-0.124-0.193 0-0.38-0.042-0.556-0.123l-0.062-0.061-0.030-0.155c0.013-0.070 0.044-0.132 0.093-0.185v-0.031l-0.062-0.062-0.030 0.032-0.093 0.031c0.045 0.090 0.045 0.187 0 0.278-0.031 0-0.062 0-0.093 0l-0.031-0.061 0.062-0.155c-0.045-0.050-0.095-0.090-0.154-0.124h-0.063c-0.029 0.069-0.070 0.131-0.123 0.185h-0.031l-0.030-0.061v-0.061l0.061-0.093 0.061-0.031 0.031-0.061c-0.029-0.078-0.071-0.153-0.123-0.216-0.072 0-0.144 0-0.216 0l-0.155 0.092c-0.056-0.058-0.107-0.12-0.154-0.185l-0.062 0.031-0.031 0.093c-0.021 0-0.042 0-0.062 0l-0.061-0.124c-0.051 0.010-0.104 0.021-0.155 0.031v-0.061l0.031-0.061-0.031-0.031-0.030 0.031v-0.031c0.072-0.089 0.113-0.192 0.124-0.309-0.024-0.030-0.055-0.051-0.093-0.061h-0.123l-0.063-0.093c0.091-0.224 0.077-0.458-0.030-0.679l-0.031-0.061h-0.061l-0.124 0.061h-0.247l-0.030 0.031 0.061 0.061c0 0.021 0 0.041 0 0.062h-0.061c-0.127-0.048-0.244-0.122-0.34-0.216 0.099-0.072 0.172-0.165 0.216-0.279v-0.031l-0.061-0.123v-0.033l0.030-0.061-0.062-0.061v-0.063l0.092-0.092 0.031-0.092c-0.020-0.021-0.041-0.042-0.061-0.062-0.128 0.009-0.254-0.012-0.371-0.061-0.044-0.235-0.096-0.48-0.155-0.711l0.031-0.062 0.154-0.032 0.031-0.030-0.031-0.062h-0.185l-0.030-0.031c-0.054-0.13-0.074-0.263-0.062-0.402l0.031-0.031 0.124-0.031 0.031-0.031-0.031-0.061c-0.041 0-0.083 0-0.124 0-0.048-0.078-0.068-0.161-0.061-0.248 0.051-0.051 0.103-0.103 0.154-0.154l0.217-0.063 0.030-0.061c-0.029-0.078-0.072-0.153-0.124-0.216 0.077-0.069 0.159-0.131 0.247-0.185v-0.031l-0.092-0.093c-0.029-0.068-0.050-0.145-0.061-0.216l0.092 0.031c-0.019-0.234-0.141-0.433-0.34-0.555h-0.061l-0.061-0.031v-0.093h0.061l0.031-0.092-0.031-0.093c0.048-0.136 0.037-0.273-0.031-0.402-0.058-0.030-0.12-0.040-0.185-0.031l-0.031-0.031v-0.031c-0.021-0.021-0.041-0.041-0.061-0.063l0.031-0.031v-0.061l0.062-0.031c0.007-0.102-0.025-0.2-0.092-0.279l0.031-0.123c-0.044-0.032-0.075-0.073-0.093-0.124l0.031-0.092h0.093c0.051-0.044 0.092-0.095 0.123-0.155v-0.155l-0.062-0.123 0.062-0.093 0.062-0.030c0.051-0.082 0.113-0.153 0.185-0.216l0.061-0.185c0.040-0.044 0.072-0.098 0.092-0.155 0-0.021 0-0.041 0-0.061l-0.062-0.124c0.028-0.137 0.029-0.262 0-0.402l-0.061-0.061c-0.007-0.067-0.027-0.129-0.062-0.185l0.062-0.216c-0.007-0.067-0.027-0.129-0.062-0.185-0.010-0.095 0-0.187 0.032-0.278l0.154-0.154 0.032-0.124-0.032-0.061-0.123-0.092c-0.064-0.13-0.115-0.263-0.155-0.402-0.107-0.149-0.249-0.242-0.433-0.279v0.031l0.031 0.031v0.032l-0.031 0.061-0.124 0.061h-0.030l-0.031-0.031v0.031l0.031 0.063-0.093 0.031c0 0.082 0 0.165 0 0.247l-0.062 0.031-0.092-0.061-0.031 0.123h-0.062l-0.031 0.032c0.010 0.051 0.021 0.103 0.031 0.154h-0.031l-0.031-0.031-0.123 0.031v-0.092h-0.032c-0.038 0.011-0.068 0.031-0.092 0.061l-0.031-0.031-0.031-0.124h-0.030l-0.032 0.062v-0.032l-0.031-0.032 0.062-0.061c-0.021 0-0.042 0-0.062 0l-0.061-0.061-0.093 0.092v0.062l-0.092-0.032 0.061-0.092-0.061-0.061v-0.032c0.041 0 0.082 0 0.123 0l0.032-0.031h-0.032v-0.061c-0.038 0.011-0.068 0.031-0.092 0.061-0.041 0-0.083 0-0.124 0l-0.031 0.031v0.062h-0.030c-0.031-0.045-0.072-0.076-0.123-0.093l0.031-0.061v-0.061l-0.062 0.031c-0.003 0.043 0.007 0.084 0.032 0.123-0.032 0.042-0.062 0.082-0.093 0.124l-0.030-0.031v0.031c-0.030-0.024-0.051-0.054-0.062-0.092l0.062-0.032v-0.031h-0.031l-0.030-0.031h-0.031v0.061h-0.062v0.062l-0.030 0.031v0.031c-0.052 0-0.103 0-0.155 0l0.031-0.061v-0.031l0.032-0.032c-0.021-0.020-0.042-0.041-0.062-0.061h-0.062l-0.061 0.031v0.031h-0.062v-0.061h-0.031l-0.031 0.031 0.031 0.031h-0.031l-0.030 0.032v-0.032l-0.031-0.031c-0.042 0.020-0.083 0.041-0.124 0.063l-0.031 0.123 0.062 0.031h-0.031l-0.061-0.031v0.062l-0.030-0.032h-0.031v-0.061l-0.093 0.093h-0.031l-0.061-0.124h-0.155l-0.062 0.031 0.032 0.031h-0.032l-0.030 0.062-0.031-0.032c0-0.031 0-0.061 0-0.092-0.021 0-0.041 0-0.061 0v0.031h-0.062v-0.031l-0.032 0.031-0.031-0.031-0.030 0.031-0.031-0.031-0.092 0.031v0.061h-0.093v0.032l0.031 0.062-0.031-0.031-0.030 0.031h0.030l-0.061 0.031h-0.030c-0.036-0.038-0.077-0.069-0.124-0.092v0.062l-0.031-0.031v0.031l-0.030 0.031h-0.032l-0.061 0.031v-0.061l-0.031 0.031v0.061h-0.031l-0.061-0.031h-0.032l-0.030-0.031-0.031 0.031h-0.123l-0.032 0.031c0 0.031 0 0.062 0 0.093l-0.123 0.031-0.093-0.031v0.031l-0.030 0.031v0.031h-0.031l-0.031 0.031v0.032l-0.031-0.032 0.031-0.092-0.061-0.031-0.032 0.031h-0.062l0.031 0.031h-0.031l-0.061-0.031c-0.031 0-0.062 0-0.093 0v0.061h-0.031v-0.031h-0.061l-0.030 0.031c-0.044 0.003-0.085-0.007-0.124-0.031v0.061l-0.061-0.031h-0.031l0.031 0.031-0.031 0.032-0.032-0.032-0.031 0.032v0.031l-0.031-0.031c-0.353-0.062-0.682-0.196-0.988-0.403v0z"></path>
</svg>
