<?xml version="1.0" encoding="utf-8"?>
<!-- Generated by IcoMoon.io -->
<!DOCTYPE svg PUBLIC "-//W3C//DTD SVG 1.1//EN" "http://www.w3.org/Graphics/SVG/1.1/DTD/svg11.dtd">
<svg version="1.1" xmlns="http://www.w3.org/2000/svg" xmlns:xlink="http://www.w3.org/1999/xlink" width="32" height="32" viewBox="0 0 32 32">
<path d="M2.154 19.896h0.101c0.191-0.347 0.26-0.73 0.206-1.125l0.103-0.208c0.144 0.011 0.281-0.023 0.411-0.102l0.103 0.204c0.102 0 0.203 0 0.306 0l0.204 0.106h0.206l0.103-0.208 0.202 0.102 0.209-0.204c0.067 0.069 0.135 0.137 0.204 0.204 0.128-0.078 0.264-0.112 0.407-0.102l0.105 0.208h0.103l0.204 0.204c0 0.17 0 0.342 0 0.513h0.411c0.894-0.431 1.832-0.813 2.769-1.13-0.141-0.611-0.209-1.227-0.204-1.847l-0.106-0.102v-0.102l-0.103-0.102v-0.102h0.209v-0.106l0.101-0.101v0.101-0.203l0.103-0.204c-0.032-0.519-0.266-1.041-0.618-1.435l0.103-0.102-0.103-0.208 0.308-0.102h-0.103v-0.101l0.103-0.102v-0.102c0.069 0 0.137 0 0.207 0v-0.102l0.103-0.106h0.101c0.156-0.078 0.294-0.18 0.411-0.307h0.306l0.413-0.203-0.106-0.106c0.007-0.699-0.13-1.383-0.409-2.051l-0.204-0.102c0.057-0.266 0.093-0.545 0.103-0.82-0.313-0.365-0.553-0.776-0.719-1.232 0-0.204 0-0.41 0-0.615l-0.101-0.204-0.721-0.411-0.103 0.102c-0.198-0.096-0.4-0.128-0.615-0.102v-0.204h-0.204l-0.204 0.102h-0.101c-0.213-0.184-0.35-0.422-0.411-0.718l-0.204-0.102v-0.103l0.204-0.309v-0.307l0.204-0.204v-0.104l-0.103-0.102c0.069-0.136 0.137-0.271 0.204-0.409l-0.101-0.102c-0.144 0.011-0.28-0.024-0.409-0.106l-0.31-0.306v-0.102h-0.101l-0.204-0.411c0-0.342 0-0.684 0-1.024l0.204-0.106c0.056-0.169 0.158-0.306 0.308-0.408 0.068 0 0.136 0 0.204 0l0.103-0.102c-0.229-0.187-0.468-0.359-0.719-0.514l-0.101-0.203c0-0.137 0-0.275 0-0.412l0.101-0.102 0.103 0.102v-0.102l0.101-0.102v-0.102l-0.101-0.104c0.067-0.068 0.135-0.136 0.202-0.204v-0.102l0.106-0.204 0.204 0.204c0.389 0.055 0.766 0.157 1.13 0.307 0.128-0.079 0.265-0.113 0.409-0.102 0.219 0.228 0.457 0.433 0.716 0.615h0.103v0.204c0.103 0 0.207 0 0.31 0 0.055 0.17 0.157 0.308 0.306 0.411l0.101 0.31h0.106l0.409-0.208c0.444 0.023 0.86 0.164 1.231 0.412 0.069 0.135 0.137 0.272 0.204 0.408v0.106c0.419 0.32 0.863 0.593 1.334 0.82 0.72 0.054 1.446 0.157 2.156 0.306 0.276 0.259 0.648 0.41 1.024 0.412 0.712 0.375 1.291 0.88 1.743 1.537v0.102l0.103 0.106c0.448-0.024 0.89 0.010 1.332 0.101 0.563 0.379 1.083 0.83 1.539 1.334 0.103 0 0.206 0 0.31 0l0.306-0.208c0.068 0 0.136 0 0.204 0l0.411 0.208v0.102l0.103 0.203c0 0.239 0 0.479 0 0.718l0.101 0.102c-0.018 0.18 0.015 0.348 0.101 0.514 0.227 0.195 0.402 0.44 0.514 0.718l0.514 0.102 0.204 0.206h0.207l0.101 0.204c0 0.102 0 0.204 0 0.307 0.169 0.138 0.341 0.276 0.512 0.411 0.322 0.040 0.62 0.105 0.923 0.204v0.102l-0.101 0.104h0.101c0.169 0.058 0.307 0.161 0.413 0.307h0.101l0.205 0.102c0.102 0 0.203 0 0.306 0l0.105-0.102h0.308l0.202-0.204c0.069 0 0.14 0 0.209 0 0.067 0.069 0.135 0.137 0.204 0.204v0.102l0.306 0.208c0.141 0.237 0.278 0.476 0.411 0.718-0.042 0.316-0.007 0.624 0.103 0.922l-0.103 0.411 0.31 0.204 0.101-0.102h0.308v0.102c0.168-0.034 0.344-0.069 0.512-0.102v-0.102l0.308-0.208c0.115 0.13 0.251 0.233 0.411 0.31h0.101c0.133 0.391 0.306 0.768 0.514 1.126 0 0.137 0 0.275 0 0.412l-0.101-0.102c-3.913 0.98-7.219 3.355-9.436 6.769v0.204c-0.786 0.894-1.444 1.899-1.95 2.976l0.101 0.102c-1.231 1.113-2.111 2.517-2.563 4.102l-0.103 0.102v0.208c-0.17 0-0.342 0-0.512 0l-0.103 0.204h-0.101c-0.346 0.413-0.766 0.762-1.233 1.023-0.238 0-0.478 0-0.716 0l-0.204 0.207v0.205c-0.205 0-0.41 0-0.615 0l-0.106-0.102c-0.068 0-0.136 0-0.204 0l0.103 0.102h-0.103l-0.101-0.102 0.101-0.205c-0.068 0-0.136 0-0.204 0l-0.204 0.102c-0.069 0-0.137 0-0.206 0-0.1-0.080-0.168-0.182-0.204-0.309h-0.101l-0.103 0.101-0.106-0.101v0.206c-0.067 0-0.135 0-0.202 0l0.101 0.205-0.204 0.204c0 0.068 0 0.136 0 0.204l-0.204-0.102h-0.206l0.106-0.307h-0.106l-0.204 0.102c-0.068 0-0.136 0-0.204 0v-0.205h-0.31l-0.204-0.207-0.101 0.105-0.101-0.105h-0.209l-0.101-0.101-0.103 0.101-0.202-0.101v-0.204l0.101-0.102-0.101-0.102h-0.103l-0.207-0.106h-0.103l-0.101-0.203h-0.103l-0.101-0.102c0-0.068 0-0.136 0-0.204 0.068 0 0.136 0 0.204 0 0-0.069 0-0.138 0-0.207l-0.306 0.105v-0.105l-0.209-0.102c0.103 0 0.206 0 0.31 0l-0.207-0.102h-0.103l-0.101 0.205v-0.102l-0.103 0.102-0.101-0.102c0-0.102 0-0.203 0-0.305h-0.103l-0.101-0.102h-0.206v0.102h-0.103v0.203h-0.101v-0.101c-0.069-0.068-0.137-0.136-0.204-0.205h0.101v-0.105h-0.101l-0.106 0.105v-0.207h-0.204v-0.102l0.103-0.102v-0.101l-0.103-0.102c-0.078-0.131-0.112-0.267-0.101-0.412l-0.103 0.102-0.101-0.102v-0.102h0.204l-0.204-0.102v-0.101h0.101l-0.204-0.31v-0.205l0.204-0.102v-0.101l0.103-0.106-0.103-0.102 0.103-0.102v-0.102h-0.103v-0.102h0.103l-0.103-0.206h0.103l0.101-0.102c0-0.102 0-0.204 0-0.307l0.103-0.102c-0.068 0-0.136 0-0.204 0l-0.204-0.102-0.103 0.102-0.308-0.309-0.103 0.101c-0.209-0.137-0.407-0.269-0.615-0.408l0.101-0.102-0.101-0.102 0.101-0.206v-0.102h-0.101l-0.204-0.102-0.101-0.204v-0.106h0.101c0.090-0.16 0.125-0.331 0.103-0.51h-0.103v-0.105h-0.101v-0.102h-0.106l-0.103-0.102v-0.102h0.103l-0.103-0.203v-0.102c-0.077-0.103-0.178-0.172-0.306-0.207v0.207h-0.101c-0.102-0.080-0.171-0.184-0.209-0.31l-0.407-0.205c-0.037-0.126-0.107-0.23-0.209-0.309l0.105-0.204v-0.102l-0.31-0.102v-0.206h-0.101l-0.103 0.104v-0.104l-0.206-0.102v-0.307l-0.204-0.309v-0.207c0.037-0.125 0.106-0.227 0.204-0.307l-0.101-0.309h-0.103l0.103-0.204-0.103-0.204 0.103-0.105z"></path>
</svg>
