<?xml version="1.0" encoding="utf-8"?>
<!-- Generated by IcoMoon.io -->
<!DOCTYPE svg PUBLIC "-//W3C//DTD SVG 1.1//EN" "http://www.w3.org/Graphics/SVG/1.1/DTD/svg11.dtd">
<svg version="1.1" xmlns="http://www.w3.org/2000/svg" xmlns:xlink="http://www.w3.org/1999/xlink" width="32" height="32" viewBox="0 0 32 32">
<path d="M0.025 16.267l-0.025-0.024c0-0.016 0-0.033 0-0.049 0.048-0.093 0.115-0.175 0.195-0.243l0.146-0.049c0.030-0.027 0.054-0.059 0.072-0.097l0.146-0.073h0.024l0.024-0.024c0.105-0.011 0.202-0.043 0.291-0.097h0.024c0.053-0.093 0.119-0.173 0.194-0.243 0.274-0.133 0.532-0.286 0.777-0.461 0.102-0.019 0.198-0.051 0.291-0.097l0.024-0.024h0.025c0.069-0.111 0.173-0.205 0.291-0.267l0.024-0.073c0.157-0.253 0.302-0.512 0.437-0.777h0.049v-0.024l0.048-0.024c0.047-0.090 0.119-0.154 0.218-0.194 0.020-0.106 0.047-0.189 0.098-0.291 0.063-0.052 0.136-0.084 0.218-0.097 0.063-0.087 0.115-0.167 0.17-0.267 0-0.033 0-0.065 0-0.098l-0.048-0.097v-0.072c-0.072-0.030-0.12-0.078-0.146-0.146 0.038-0.053 0.071-0.11 0.097-0.17l0.048-0.024c0.079 0.016 0.162 0.024 0.243 0.024 0.101-0.049 0.181-0.122 0.243-0.218 0.029-0.080 0.053-0.161 0.073-0.243 0.060-0.044 0.117-0.093 0.17-0.146 0.004-0.098 0.020-0.197 0.048-0.291l-0.024-0.024c0.006-0.097-0.027-0.18-0.098-0.243l0.025-0.049-0.025-0.122c0.009-0.030 0.025-0.054 0.048-0.073 0.069 0.004 0.131-0.004 0.195-0.024l0.024-0.049 0.072-0.025c0.042-0.059 0.059-0.124 0.050-0.194 0.045-0.116 0.12-0.217 0.218-0.291 0.057 0 0.113 0 0.17 0l0.146-0.097c0.038-0.066 0.055-0.139 0.048-0.219l-0.048-0.048c-0.032-0.119-0.031-0.244 0-0.364l-0.048-0.073c0.015-0.161 0.084-0.319 0.194-0.437v-0.025c0.099-0.069 0.197-0.142 0.291-0.219 0.053-0.182 0.172-0.328 0.34-0.413v-0.024l0.122-0.218 0.048-0.024 0.024-0.097 0.024-0.024h0.024c0.217-0.115 0.457-0.18 0.704-0.194 0.092-0.059 0.18-0.123 0.267-0.194 0.066-0.192 0.147-0.379 0.243-0.559v-0.048l0.121-0.17v-0.026c0.024 0 0.048 0 0.073 0 0.034-0.040 0.075-0.072 0.121-0.096v-0.049c0.049 0 0.097 0 0.146 0 0.032-0.032 0.065-0.065 0.098-0.096 0.065-0.005 0.122-0.029 0.17-0.073v-0.024c0.144-0.023 0.296-0.056 0.437-0.096l0.049-0.024h0.025c0.030-0.087 0.089-0.157 0.17-0.195 0.041-0.043 0.074-0.091 0.098-0.146 0.040 0 0.080 0 0.121 0 0.025-0.035 0.057-0.059 0.097-0.073h0.072c0.033-0.016 0.065-0.032 0.097-0.048 0.062 0.030 0.127 0.054 0.194 0.073l0.146 0.17 0.073 0.024v0.049h0.073l0.048 0.024c0.041 0.002 0.082-0.006 0.121-0.024l0.146 0.048 0.097-0.048c0.058-0.006 0.115 0.002 0.17 0.024l0.024 0.024c0.078-0.024 0.158-0.032 0.242-0.024 0.072 0.048 0.137 0.104 0.195 0.17h0.048l0.048 0.024 0.195-0.024c0.085 0.023 0.165 0.056 0.242 0.097 0.049 0 0.097 0 0.146 0 0.249-0.084 0.532-0.099 0.801-0.048v-0.024c0.077-0.034 0.16-0.051 0.243-0.048l0.024-0.024c0.058 0.012 0.115 0.028 0.17 0.048 0.035 0.088 0.092 0.161 0.17 0.218 0.208 0.057 0.405 0.034 0.583-0.072 0.048 0.018 0.096 0.026 0.146 0.024l0.024 0.024c0 0.032 0 0.065 0 0.097l-0.049 0.024h-0.072l-0.048 0.048c-0.042 0.103-0.058 0.207-0.049 0.316l0.024 0.048v0.195c0.084 0.095 0.138 0.217 0.146 0.34l0.097 0.146c0.068-0.003 0.136 0.014 0.194 0.048h0.024v-0.024c0.201-0.139 0.342-0.345 0.413-0.583h0.097c0.045 0.027 0.093 0.043 0.146 0.048 0.111 0.266 0.135 0.563 0.072 0.85 0.069 0.071 0.15 0.128 0.243 0.17h0.049c0.037-0.031 0.061-0.072 0.073-0.122 0.009-0.078-0.006-0.15-0.048-0.218l0.024-0.122-0.048-0.072c0-0.032 0-0.065 0-0.097 0.024-0.070 0.064-0.126 0.122-0.17v-0.024l-0.025-0.049 0.025-0.073c0.027-0.030 0.059-0.055 0.097-0.073 0.195-0.043 0.372-0.043 0.559 0l0.024 0.025c0.051 0.008 0.1-0 0.146-0.025 0.037-0.057 0.085-0.097 0.146-0.121 0.215 0.035 0.422 0.019 0.631-0.049 0.063 0.023 0.128 0.031 0.194 0.025l0.048-0.025c0.052-0.008 0.1 0 0.146 0.025 0.024 0.025 0.048 0.049 0.073 0.072 0.040 0 0.080 0 0.121 0l0.049-0.024h0.024l0.024-0.048v-0.025l-0.122-0.121c-0.002-0.050 0.006-0.098 0.024-0.146l-0.024-0.024 0.024-0.025h0.073c0.018 0.025 0.043 0.041 0.073 0.049 0.047 0.058 0.079 0.123 0.098 0.194l0.024 0.024c0.016 0 0.032 0 0.048 0l0.025 0.073 0.073 0.024 0.049 0.048c0.046 0.024 0.094 0.032 0.146 0.024l0.098-0.048 0.024-0.073 0.072 0.025c0.039-0.053 0.071-0.11 0.098-0.17v-0.122l0.024-0.024h0.024l0.098 0.073c-0.001 0.075 0.023 0.14 0.072 0.194l0.097 0.049h0.025c0.046-0.031 0.078-0.072 0.097-0.122 0-0.032 0-0.065 0-0.097l0.024-0.048v-0.024l-0.024-0.024h-0.025c0-0.024 0-0.048 0-0.073 0.031-0.027 0.055-0.059 0.073-0.098h0.024l0.049 0.025c0.099-0.061 0.21-0.070 0.316-0.025 0.043-0.028 0.095-0.045 0.145-0.048l0.121 0.098c0 0.016 0 0.032 0 0.048 0.041 0.040 0.082 0.081 0.122 0.122l0.048-0.024h0.049l0.073-0.073v-0.073l0.048-0.024h0.098v-0.025l0.048-0.024h0.097l0.048-0.048h0.049c0.016-0.016 0.032-0.032 0.048-0.048v0.024c0.059 0.047 0.11 0.105 0.146 0.17 0 0.016 0 0.032 0 0.048l-0.049 0.024c0 0.025 0 0.049 0 0.073l0.097 0.048 0.024 0.073c0.041 0 0.081 0 0.122 0l0.048 0.072h0.049l0.048 0.048 0.097 0.025 0.048 0.096c0.030 0.019 0.063 0.027 0.097 0.024l0.025 0.049v0.073h0.024c0.020 0.043 0.044 0.084 0.072 0.121 0.003 0.052-0.013 0.101-0.048 0.146h-0.025l-0.049 0.073h-0.024l-0.024 0.049v0.072h-0.024c0 0.024 0 0.049 0 0.073h-0.025l0.025 0.025-0.048 0.024c0.022 0.047 0.029 0.095 0.024 0.146h0.025l-0.025 0.048 0.025 0.024-0.025 0.024h0.025l-0.025 0.024h0.025l-0.025 0.025v0.024h0.025v0.024l-0.025 0.024v0.025l0.072 0.049h0.049l0.024 0.049 0.072 0.024 0.073 0.072h0.048c0.044 0.027 0.093 0.044 0.146 0.049l0.025 0.049h0.024v0.048l0.025 0.049-0.025 0.024 0.049 0.097h0.025c0 0.024 0 0.049 0 0.073l0.048 0.024c0 0.025 0 0.049 0 0.073l0.048 0.024c0 0.016 0 0.032 0 0.048l-0.024 0.048v0.049c-0.008 0.030-0.025 0.054-0.048 0.073v0.024h-0.121l-0.048-0.024-0.025 0.024v0.024l-0.049 0.050 0.024 0.048h-0.024l-0.024 0.098-0.025 0.024h-0.024l-0.024 0.073-0.049 0.024 0.049 0.097c-0.038 0.070-0.071 0.143-0.097 0.218 0.017 0.060 0.049 0.109 0.097 0.146h0.073v0.049l0.024 0.048h0.049l0.025 0.048c0.030 0.008 0.054 0.024 0.072 0.049-0.021 0.038-0.029 0.079-0.024 0.121l-0.025 0.024c0.018 0.067 0.043 0.132 0.073 0.195l-0.025 0.073h0.025l0.024 0.024 0.073 0.024v0.025h-0.048c0 0.016 0 0.032 0 0.049l-0.049 0.024 0.073 0.073-0.024 0.073 0.024 0.024v0.024c0.029 0.038 0.053 0.078 0.073 0.121v-0.024c0.040 0 0.081 0 0.121 0l-0.024 0.024v0.025l-0.025 0.024v0.049l0.048-0.025 0.025 0.049h0.024v0.024l0.025 0.048c0 0.025 0 0.049 0 0.073l0.048 0.048-0.024 0.024h0.024l0.024 0.048v0.025l0.024 0.048c0.030 0.009 0.054 0.025 0.073 0.048-0.017 0.016-0.034 0.032-0.049 0.049l0.024 0.048-0.024 0.048h-0.024l0.024 0.048v0.025h-0.024l0.024 0.024h0.024l0.025 0.024 0.024-0.024v0.024l0.048-0.024c0.016 0 0.032 0 0.048 0l0.024 0.024 0.025-0.024 0.048 0.024 0.024-0.024 0.024 0.024v-0.024h0.049l0.025-0.024h0.024l0.025-0.025 0.072-0.024v-0.024h0.025v-0.024h0.048l0.024-0.024v-0.024l0.025-0.024c0.050-0.004 0.099 0.004 0.146 0.024 0.016-0.017 0.032-0.033 0.048-0.049 0.024 0 0.049 0 0.073 0l-0.024 0.049c0.027 0.031 0.059 0.055 0.097 0.073h0.049v-0.024c0.024 0.019 0.040 0.043 0.048 0.073 0.025-0.047 0.057-0.087 0.097-0.121h0.024l0.024-0.049c0.024 0 0.048 0 0.072 0 0 0.041 0 0.081 0 0.122 0.025 0.018 0.041 0.043 0.049 0.073h0.024l0.024 0.024v0.024h0.025l-0.025 0.024c0.019 0.024 0.043 0.040 0.073 0.048v-0.024l0.097-0.048v0.024l0.048 0.024h0.049l0.048 0.024c0.016 0 0.032 0 0.049 0 0 0.016 0 0.033 0 0.049l0.024 0.025v0.048l0.025 0.024-0.049 0.049v0.048l-0.024 0.024c0.021 0.049 0.054 0.090 0.097 0.122v0.024h-0.024l-0.025 0.024v0.024l-0.024 0.049v0.024l-0.024 0.024 0.024 0.024v0.024l-0.049 0.024v0.049h-0.048l-0.025 0.024 0.025 0.048h-0.025l-0.048 0.024v0.073l-0.048 0.024-0.146-0.024v0.048l-0.024 0.024v0.024l0.024 0.049-0.024 0.049c0 0.049 0 0.097 0 0.146h-0.049l-0.025 0.024h-0.024l0.024 0.048-0.072 0.073v0.024l-0.048 0.024-0.025 0.049 0.025 0.049c0.016 0 0.032 0 0.048 0l0.048 0.073v0.024l0.024 0.024c-0.008 0.030-0.024 0.055-0.048 0.073h-0.024l-0.024 0.024 0.048 0.048-0.024 0.049 0.048 0.024v0.048c0.018 0.038 0.042 0.070 0.073 0.098h0.024c0.008 0.030 0.024 0.054 0.048 0.073 0 0.024 0 0.049 0 0.073h-0.025l-0.072-0.049-0.025 0.025h-0.024v0.024l-0.024 0.024-0.048-0.024v0.024h-0.024l-0.025 0.048c0.025 0.035 0.058 0.059 0.098 0.073v0.024c-0.038 0.021-0.079 0.029-0.121 0.024l-0.048 0.024-0.025-0.024h-0.023c0 0.016 0 0.032 0 0.048l0.024 0.024c0.041 0 0.081 0 0.122 0l0.048 0.025 0.072-0.025c0.025 0.035 0.058 0.059 0.097 0.073l0.025 0.073h0.048v0.025l-0.048 0.048-0.097 0.024-0.025 0.073c-0.032 0-0.064 0-0.097 0l0.024 0.025-0.048 0.121 0.024 0.024-0.073 0.049 0.024 0.048-0.024-0.024c-0.009 0.029-0.025 0.054-0.048 0.072v0.025l0.024 0.024-0.024 0.024 0.024 0.048-0.048 0.048h-0.024l0.024 0.025h0.025v0.024h0.024v0.024l0.025 0.024c0 0.016 0 0.032 0 0.048h0.024v0.025h0.025l0.024 0.049h0.048l-0.024 0.048 0.024 0.024c-0.019 0.031-0.026 0.063-0.024 0.097l0.072 0.024v0.024h0.025l0.025 0.024 0.072 0.025v-0.025l0.048 0.025c0.024 0 0.049 0 0.073 0l0.024 0.024v0.024l0.024-0.024h0.048l0.025 0.024-0.025 0.024v0.024h0.025l0.048 0.024v0.049l-0.024 0.024 0.121 0.048v0.048l0.048-0.024 0.024 0.024c0.040 0 0.081 0 0.121 0v0.049h0.048v0.024l0.048 0.029h0.025l0.024-0.024v0.048l-0.073 0.073v0.048h0.073l-0.049 0.048 0.073 0.073-0.073 0.024v0.025l0.025 0.024h0.048c0.016 0.016 0.032 0.032 0.048 0.048v0.049l-0.048 0.024h-0.024l0.024-0.024-0.024-0.024-0.024 0.024-0.049-0.024-0.025 0.024-0.072 0.024v0.024l-0.050-0.024-0.024 0.024v0.024l0.024 0.024-0.024 0.025 0.024 0.024h0.050l0.024 0.073h0.048v0.024l0.048 0.024v-0.024l0.073 0.049h0.048l0.024-0.025v0.025h0.024l0.049 0.072 0.024-0.024h0.073v0.024l-0.025 0.024v0.024h-0.024v0.024l-0.048 0.025-0.049 0.097v0.049l0.025 0.025-0.025 0.024 0.025 0.072h-0.049v0.024h0.024v0.025c0.024 0.019 0.040 0.043 0.049 0.072l0.072 0.024 0.025-0.024 0.073-0.024 0.073 0.024 0.049-0.072c0.024 0 0.048 0 0.072 0v0.049h0.048l0.025 0.024 0.024-0.048c0.060-0.007 0.109-0.031 0.146-0.073l0.024 0.024 0.122-0.024 0.024-0.024c0.030 0.064 0.031 0.129 0 0.194l-0.024 0.025 0.048 0.024 0.048-0.049h0.049l0.048-0.048 0.072-0.024 0.098 0.024 0.073-0.048 0.073 0.025c0.019-0.024 0.043-0.040 0.073-0.049v-0.025c0.057-0.020 0.106-0.052 0.146-0.097h0.049l0.048-0.049v-0.025l0.049-0.024h0.024l-0.024 0.049v0.025h0.048c0 0.024 0 0.048 0 0.072h0.025c0 0.025 0 0.049 0 0.073h0.024l0.048-0.025h0.024c0-0.024 0-0.049 0-0.073h0.025l0.024-0.048c0.025 0 0.049 0 0.073 0v-0.025l0.048 0.025v-0.025l0.049 0.025v0.048l0.024 0.024h0.024c0.029-0.008 0.054-0.025 0.073-0.048 0.002-0.050-0.006-0.098-0.024-0.146h0.048l0.025-0.048c0.024 0.019 0.040 0.043 0.048 0.073h0.024l0.025 0.024h0.049v-0.024h-0.025c-0.016-0.016-0.032-0.033-0.048-0.049v-0.024l0.025-0.049h0.024l0.025-0.024v-0.048h-0.025v-0.050l-0.048-0.073h0.025c-0.101-0.004-0.199 0.012-0.292 0.048l-0.048-0.048 0.024-0.097 0.098-0.025 0.024-0.024 0.072-0.024v-0.024h0.025l0.024-0.024v-0.024h0.048l0.048 0.024 0.025-0.024 0.072-0.025h-0.024v-0.024l-0.048-0.024-0.025-0.072h-0.048v-0.024l-0.024-0.025c0.016-0.016 0.032-0.032 0.048-0.048v-0.024l0.024-0.024 0.073 0.024 0.072-0.048 0.049 0.024v0.024l0.024 0.048h-0.024l-0.025 0.049h0.025l-0.049 0.048v0.025l-0.024 0.024 0.048 0.048h0.025c0.052-0.031 0.108-0.047 0.17-0.048l0.048-0.072h0.048l0.024-0.024h-0.024l0.049-0.049v0.049h0.048l0.024 0.048c-0.037 0.019-0.070 0.043-0.097 0.073v0.024l0.025 0.025c0.039-0.019 0.079-0.027 0.121-0.025l0.025-0.024h0.024l0.096-0.073 0.050 0.025 0.048-0.122-0.025-0.024h0.025l0.072 0.048h0.025c0.016 0.017 0.032 0.033 0.048 0.049h0.048c0.016 0.016 0.032 0.032 0.048 0.049l-0.024 0.072c0.024 0 0.049 0 0.073 0l0.072-0.048h0.048l0.025-0.048h0.048l0.024-0.024 0.122-0.024 0.072 0.024 0.025-0.024h0.024v-0.025l0.024-0.048-0.024-0.024 0.121-0.073h0.025l0.048-0.024c0.042 0.002 0.082-0.006 0.121-0.024l0.048-0.048-0.024-0.024v-0.024c0.024-0.025 0.048-0.050 0.072-0.073h0.024c0.030-0.008 0.055-0.024 0.073-0.048h0.025c0.030-0.008 0.054-0.025 0.072-0.049l0.049 0.025c0.061-0.042 0.124-0.073 0.194-0.098v0.024c0.075-0.007 0.147 0.001 0.218 0.024 0.028-0.030 0.060-0.054 0.097-0.073 0.049 0 0.097 0 0.146 0l0.024-0.073c0.030-0.009 0.054-0.025 0.073-0.048h0.025l0.024 0.024c0.024 0 0.048 0 0.072 0 0.033-0.016 0.065-0.032 0.098-0.049v-0.024h0.096l0.050 0.024h0.048c0.032 0.033 0.064 0.065 0.097 0.097 0.018 0.039 0.026 0.079 0.024 0.121l-0.024 0.049 0.024 0.024h0.024c0 0.024 0 0.048 0 0.073h0.048l0.025 0.024h0.024c0.023 0.020 0.039 0.044 0.049 0.073l-0.024 0.024v0.048l0.073-0.024 0.024 0.024 0.025-0.024 0.024 0.024c-0.024 0.054-0.032 0.111-0.024 0.17h0.024l0.025 0.025 0.024-0.025 0.049 0.049 0.024-0.024v-0.025c0.024 0.019 0.040 0.043 0.049 0.073h0.024l0.048-0.097 0.025 0.049 0.049-0.025 0.048 0.049c0.016 0 0.032 0 0.048 0l-0.048 0.049v0.024h0.024l-0.024-0.024c0.024 0 0.049 0 0.073 0l0.024 0.024h0.025l0.072-0.096-0.024-0.025h0.024c0.018 0.025 0.043 0.041 0.073 0.049l0.024-0.024h0.024c0.018-0.024 0.042-0.041 0.072-0.049h0.049l0.025 0.024h0.024v-0.024l-0.024-0.024v-0.024l0.048-0.024v-0.024h0.024l0.049 0.024c0.016 0 0.032 0 0.049 0l-0.024 0.048h0.024v0.073c0.016 0 0.032 0 0.048 0l-0.024-0.049v-0.024l0.024 0.024c0-0.016 0-0.032 0-0.048l0.025 0.024 0.048-0.024 0.024 0.048 0.025-0.024 0.024 0.024c0.016 0 0.032 0 0.049 0l0.025 0.049v-0.025l0.048-0.024 0.072 0.049 0.025-0.025c0.024 0 0.048 0 0.072 0l0.024 0.049 0.024-0.024h0.025v0.048l0.024 0.025h0.024l0.024 0.024-0.024 0.024c0.032 0.033 0.064 0.066 0.097 0.098 0 0.016 0 0.032 0 0.048l-0.025 0.024h-0.024v0.049c-0.019 0.024-0.043 0.040-0.072 0.049h-0.024v0.024h0.024l-0.024 0.024h-0.073l-0.072 0.073 0.024 0.024h-0.049l-0.024 0.048v0.024l0.024 0.024-0.024 0.025h0.049c0 0.016 0 0.032 0 0.048h-0.049l-0.048 0.097-0.048 0.025v-0.025h-0.049l-0.073 0.049v0.024h-0.024l0.024-0.024-0.024-0.024c-0.084 0.059-0.171 0.082-0.267 0.072v-0.024c-0.024 0-0.048 0-0.072 0-0.026 0.032-0.050 0.064-0.073 0.098-0.034-0.003-0.066 0.005-0.097 0.024v-0.024h-0.025v-0.025h-0.024l0.024-0.049-0.024-0.024c-0.024 0-0.048 0-0.072 0-0.060 0.055-0.124 0.104-0.194 0.146l-0.073-0.049-0.073 0.049h-0.025c-0.049 0.012-0.090 0.036-0.121 0.072v0.025l-0.073 0.048-0.048-0.048-0.049 0.072c-0.024 0-0.049 0-0.073 0l-0.024-0.024c-0.052 0.036-0.101 0.077-0.146 0.121l0.024 0.024-0.024 0.024v0.025c-0.049 0-0.098 0-0.146 0 0 0.016 0 0.032 0 0.048l-0.024 0.025 0.024 0.024-0.024 0.048h0.024v0.024l-0.024 0.024v0.049l-0.024 0.024v0.024l-0.024 0.024c0 0.025 0 0.049 0 0.073l-0.024 0.024h0.024v0.024h0.024l-0.024 0.048h0.024l-0.024 0.024 0.024 0.025-0.048 0.025 0.024 0.024-0.049 0.024 0.025 0.049-0.025 0.024h-0.048l-0.024 0.025h-0.024v0.024h-0.024l-0.050 0.025c0 0.016 0 0.032 0 0.048l-0.024 0.024v0.049l-0.025 0.024 0.025 0.024h0.024v0.073c0.051-0.008 0.1 0 0.146 0.025l-0.024 0.024 0.048 0.024v0.025l0.025 0.024-0.025 0.024 0.073-0.024v0.024l0.072 0.024v0.025l0.024 0.048v0.024l0.025 0.048h-0.025l0.073 0.025 0.048 0.049h0.024c0.017 0.016 0.033 0.032 0.049 0.048-0.066-0.004-0.131 0.004-0.195 0.024l-0.024-0.024c-0.016 0-0.032 0-0.048 0v0.024l-0.024 0.024h-0.048l-0.025 0.025c-0.024 0-0.049 0-0.073 0 0.024-0.019 0.040-0.043 0.048-0.073-0.038-0.022-0.078-0.030-0.121-0.025l-0.073 0.049c0-0.024 0-0.048 0-0.072l0.025-0.024-0.025-0.049h-0.072c-0.009 0.030-0.025 0.054-0.049 0.073h-0.073l-0.024 0.024v0.049l-0.024 0.024h-0.025l-0.024 0.025v0.024l-0.024 0.024-0.025-0.024h-0.024c-0.025 0.024-0.049 0.048-0.073 0.072h-0.072l-0.049 0.049v-0.024l-0.025-0.025c-0.016 0.016-0.032 0.033-0.048 0.049v0c0 0.024 0 0.049 0 0.073 0.016 0.016 0.032 0.032 0.048 0.048l0.049-0.048h0.025v0.048h0.048c-0.032 0-0.064 0-0.097 0l-0.025 0.024c-0.016 0-0.032 0-0.048 0-0.019 0.031-0.026 0.064-0.024 0.098h0.024l-0.048 0.049v0.049l-0.024-0.025v-0.073h-0.049l-0.024 0.024 0.024-0.048h-0.024c-0.018 0.024-0.043 0.040-0.072 0.048l0.072 0.024-0.024 0.025h0.024v0.025l-0.024 0.024v-0.025h-0.025v-0.025l-0.048-0.025-0.025 0.025 0.025-0.049h-0.049v-0.024l-0.048 0.024-0.024-0.024h-0.024c0 0.016 0 0.032 0 0.049l0.048 0.025-0.024 0.048h0.024v0.049c-0.032 0-0.065 0-0.098 0 0-0.016 0-0.032 0-0.049l-0.024-0.024-0.072 0.024-0.049 0.049v0.024l0.049 0.024v-0.024c0 0.025 0 0.049 0 0.073v0l0.025 0.024v0.024c-0.032 0-0.065 0-0.098 0l-0.024 0.048h-0.024l-0.024-0.024-0.024 0.049v-0.049c-0.024 0-0.049 0-0.073 0l0.024-0.024-0.024-0.024c-0.117 0.001-0.212 0.063-0.268 0.17v0.025l-0.048 0.024-0.024-0.024-0.048 0.024h-0.025v-0.024h-0.025l-0.048 0.024-0.048 0.073c-0.008 0.093 0.008 0.182 0.048 0.266 0.024 0 0.049 0 0.073 0v0.049l-0.049 0.048 0.049 0.098c0 0.040 0 0.081 0 0.121l-0.025-0.024c0 0.016 0 0.033 0 0.050-0.032 0.016-0.064 0.032-0.096 0.048l-0.024-0.024-0.024 0.024v-0.024l-0.073-0.024-0.048 0.048h-0.024l-0.025 0.024h-0.025v0.024h-0.048v-0.048h-0.073v-0.048l-0.025-0.025h-0.048v-0.048l-0.024-0.024h-0.097l-0.025 0.024c-0.030 0.018-0.062 0.026-0.096 0.024l-0.025-0.024 0.025-0.049c-0.024 0-0.049 0-0.073 0v-0.024h-0.049l-0.024 0.024v-0.024c-0.024 0-0.049 0-0.073 0l-0.024 0.024-0.024-0.049c-0.073 0-0.146 0-0.219 0v-0.025c-0.049-0.002-0.098 0.007-0.145 0.025v-0.025l-0.049-0.024c-0.216-0.008-0.434 0.034-0.631 0.122l-0.025 0.048-0.048-0.024c-0.038 0.018-0.070 0.042-0.097 0.073v0.024l-0.024 0.024h-0.024l0.024-0.024c-0.017-0.016-0.033-0.032-0.048-0.049-0.093 0.032-0.183 0.072-0.267 0.122v0.049h-0.024l-0.024 0.024 0.073-0.024c-0.024 0.018-0.040 0.043-0.048 0.072v0.049l-0.048 0.024v0.025h0.024l-0.023 0.025h-0.025l-0.072 0.048v0.048l0.024 0.024 0.024-0.024v0.024h0.025c-0.026 0.033-0.058 0.058-0.097 0.073 0 0.032 0 0.065 0 0.097h-0.024l-0.025 0.024v0.024l-0.024-0.024 0.024-0.024c-0.057 0-0.113 0-0.17 0-0.024 0.024-0.048 0.048-0.072 0.072l0.024 0.024c-0.016 0-0.032 0-0.048 0l-0.025 0.024v0.049l-0.024 0.048v-0.024l0.024-0.048c-0.016-0.017-0.032-0.034-0.049-0.049-0.017 0.016-0.033 0.032-0.048 0.049v-0.025c-0.016 0-0.032 0-0.048 0v-0.072l0.048-0.024c-0.008-0.030-0.024-0.055-0.048-0.073-0.055-0.024-0.111-0.032-0.17-0.025 0 0.016 0 0.032 0 0.049l-0.025-0.049h-0.024l-0.024 0.025h0.024l0.024 0.049v0.024h-0.048c0 0.016 0 0.032 0 0.048l0.024 0.024h-0.024v0.024l-0.024 0.049h-0.024l0.024-0.049-0.072-0.024c-0.484 0.153-0.965 0.39-1.384 0.68-0.253 0.125-0.496 0.293-0.704 0.486 0 0.032 0 0.064 0 0.097-0.024 0.024-0.049 0.049-0.073 0.073 0.016 0.016 0.032 0.032 0.048 0.048v0.024h0.024l-0.024 0.025 0.024 0.024h-0.024v0.025l-0.024-0.025-0.024 0.025v0.024c-0.21 0.079-0.414 0.207-0.583 0.364v0.048c-0.054 0.023-0.103 0.056-0.146 0.097v0.024c-0.23 0.047-0.432 0.161-0.606 0.34h-0.025v0.024l-0.121 0.073-0.024 0.048c-0.647 0.257-1.233 0.734-1.603 1.311h-0.072c-0.003 0.034 0.005 0.067 0.024 0.097l0.025 0.024c0 0.025 0 0.049 0 0.073l-0.048 0.048c-0.018 0.039-0.026 0.080-0.025 0.122h0.025c0 0.016 0 0.032 0 0.048v-0.024c-0.016 0-0.032 0-0.048 0-0.224 0.16-0.427 0.347-0.608 0.558h-0.024v-0.049c0.084-0.086 0.172-0.167 0.266-0.242l-0.025-0.025 0.025-0.024c-0.016 0-0.032 0-0.048 0l-0.024 0.024-0.048-0.024c0 0.024 0 0.049 0 0.073h-0.049l-0.024 0.024-0.024-0.024c-0.032 0.016-0.065 0.032-0.097 0.048-0.076-0.038-0.135-0.097-0.17-0.17h-0.048l-0.049-0.024-0.025-0.049 0.073-0.024 0.024-0.048v-0.048h0.025l0.024-0.024c-0.032-0.017-0.064-0.033-0.097-0.050v-0.024l-0.049-0.048v-0.024l-0.048-0.073v-0.024l-0.024-0.024 0.024-0.049-0.024-0.073 0.024-0.024v-0.024h-0.024l-0.048-0.024v-0.025l0.024-0.024h-0.024v-0.025c-0.034-0.025-0.058-0.058-0.073-0.097l-0.024 0.025c0 0.016 0 0.032 0 0.048-0.016 0-0.032 0-0.048 0 0 0.016 0 0.032 0 0.049l-0.025 0.024c0 0.025 0 0.049 0 0.073h-0.025l-0.024-0.048h-0.025v0.024c-0.042 0.050-0.079 0.095-0.122 0.146v-0.049h0.024v-0.072h-0.024l-0.024 0.024v-0.024h-0.048c0-0.016 0-0.032 0-0.048l-0.073-0.073h-0.025v-0.024c-0.038-0.022-0.078-0.038-0.121-0.048l-0.025 0.024h-0.048l-0.146 0.097c-0.020 0.047-0.028 0.096-0.024 0.146h-0.048c-0.048 0.051-0.089 0.109-0.122 0.17h-0.024c-0.033-0.032-0.065-0.064-0.098-0.097v-0.049l-0.024-0.025v-0.024h-0.048v-0.048l-0.024-0.024v-0.024h-0.025c0-0.032 0-0.065 0-0.098h0.025v-0.024l0.048-0.024 0.024-0.049c0-0.016 0-0.032 0-0.048l0.024-0.025-0.024-0.024 0.024-0.024-0.024-0.025c0-0.040 0-0.081 0-0.121h0.024v0.024l0.024-0.048h-0.024c0.016-0.017 0.032-0.033 0.048-0.050 0-0.016 0-0.032 0-0.048h-0.073l0.024-0.025-0.024-0.049c0.009-0.029 0.025-0.054 0.048-0.073 0-0.024 0-0.048 0-0.072 0.047-0.037 0.094-0.069 0.146-0.097v-0.048h0.025v-0.049l0.024-0.025v-0.024l-0.024-0.024v0.024c-0.024 0-0.049 0-0.073 0v-0.024l-0.024-0.024h-0.025v-0.024h-0.025v-0.025h-0.048l-0.024-0.048v-0.025c-0.024-0.019-0.040-0.043-0.048-0.073l-0.024 0.025c-0.016-0.016-0.033-0.033-0.049-0.049l-0.025 0.024-0.024-0.024-0.048 0.049h-0.050v0.024l-0.048 0.024-0.024 0.049-0.048-0.024h0.024l-0.024-0.025 0.024-0.024h-0.024l0.024-0.024c-0.018-0.024-0.043-0.041-0.073-0.049 0 0.033 0 0.065 0 0.097-0.016-0.016-0.033-0.032-0.048-0.048-0.052 0.006-0.101 0.022-0.146 0.048h-0.025v-0.048h-0.024l-0.024 0.048-0.049 0.025-0.024-0.073-0.049-0.025h-0.049c-0.009-0.029-0.025-0.054-0.048-0.073l-0.048 0.048-0.048-0.048-0.025 0.025 0.049 0.048h-0.024l-0.049-0.024c-0.048 0.018-0.096 0.026-0.146 0.024v0.025h-0.025l-0.024-0.025c-0.024 0-0.049 0-0.073 0l-0.049 0.049-0.024-0.049h-0.048v-0.024h-0.048v-0.048h-0.025l-0.048 0.025 0.024-0.073h0.025v-0.024h-0.025l-0.048 0.024-0.048-0.024h-0.025l-0.024 0.024 0.025 0.024c0 0.016 0 0.032 0 0.049-0.025 0.018-0.041 0.043-0.049 0.073h-0.024l-0.025 0.024h-0.024l-0.025-0.049h-0.024v0.025h-0.049v-0.025h-0.024l-0.024 0.049c-0.030-0.008-0.055-0.024-0.073-0.049-0.065 0-0.13 0-0.194 0l-0.024 0.025v0.024h-0.049v0.048c-0.040 0-0.081 0-0.121 0l-0.048-0.025c-0.025 0-0.049 0-0.073 0l-0.072-0.073h-0.025v-0.024h-0.024l0.024-0.048v-0.024h-0.024v-0.024h-0.025l0.025-0.073-0.025-0.024v-0.024c0.016-0.016 0.032-0.032 0.048-0.048l-0.048-0.024h0.025v-0.025l-0.025-0.049c0-0.016 0-0.032 0-0.048h0.025l0.024-0.024 0.025 0.024c0.008-0.030 0.024-0.055 0.048-0.073l-0.024-0.024v-0.049l-0.024-0.049c0.034 0.003 0.066-0.005 0.097-0.024v-0.049c0.016-0.016 0.032-0.032 0.049-0.048h0.024c0-0.017 0-0.033 0-0.049h-0.024l0.024-0.048-0.024-0.024c0.035-0.025 0.059-0.058 0.072-0.098v-0.024h-0.024l-0.025 0.049-0.024-0.025v-0.024c0.033-0.049 0.065-0.097 0.097-0.146h0.024l0.073-0.073-0.025-0.024h-0.049l-0.024-0.024h-0.073v-0.049h-0.024l-0.049-0.048h-0.024l-0.024 0.025-0.024-0.025c0-0.016 0-0.032 0-0.048-0.016-0.017-0.032-0.033-0.049-0.049l0.025-0.048-0.025-0.024h-0.024l0.024-0.025-0.024-0.024h-0.048v-0.025c-0.046-0.026-0.087-0.058-0.122-0.097l0.049-0.024c0-0.057 0-0.113 0-0.17l0.048-0.025-0.024-0.024v-0.024h-0.025l-0.073-0.048v-0.024l-0.025-0.025-0.024 0.025-0.024-0.025-0.025 0.025v-0.025l-0.072-0.024 0.024-0.024h-0.024l0.024-0.024c-0.030-0.019-0.062-0.027-0.096-0.024v-0.024l-0.025-0.024 0.025-0.025h-0.025v-0.024c-0.039-0.015-0.071-0.039-0.097-0.072v-0.048h-0.024v-0.025c-0.024 0-0.049 0-0.073 0l0.024-0.024 0.025-0.024h-0.025v-0.024l-0.024-0.024h-0.025v-0.024l0.025-0.025v-0.024l-0.048-0.025h-0.025v-0.024h0.048v-0.025h-0.024v-0.024l-0.025-0.025-0.024 0.025-0.025-0.049c0.024 0 0.049 0 0.073 0l-0.025-0.024v-0.023h-0.024v-0.024l-0.049 0.024v0.024l-0.048-0.024h-0.024v-0.024c-0.025-0.024-0.049-0.049-0.073-0.073v-0.073l-0.048 0.049c-0.009-0.030-0.025-0.054-0.048-0.072v-0.049l-0.025-0.025h0.025l0.024-0.024-0.048-0.024h0.025l0.048 0.024-0.025-0.024v-0.024h0.025c0.032-0.016 0.065-0.032 0.097-0.048 0-0.033 0-0.065 0-0.098l-0.025-0.048v-0.025l0.026-0.024-0.049-0.024 0.024-0.024c0-0.024 0-0.048 0-0.072l0.049 0.024h0.024l-0.024-0.049v-0.024l0.024-0.048-0.024-0.024v-0.024h-0.024v-0.024h-0.025l-0.024-0.025h-0.025c0-0.016 0-0.032 0-0.049h-0.024v-0.024l-0.048-0.024v-0.024l-0.049-0.025 0.024-0.024v-0.024h-0.024c0-0.016 0-0.032 0-0.048l-0.025-0.025c0.013-0.040 0.038-0.073 0.073-0.097v-0.024l-0.025-0.024 0.025-0.049-0.025-0.048 0.025-0.024c-0.038-0.017-0.071-0.042-0.098-0.073l0.024-0.025h0.025l-0.025-0.049 0.025-0.024v-0.048l0.049 0.024c0-0.040 0-0.081 0-0.122 0.016-0.016 0.032-0.033 0.048-0.049h0.024l0.025 0.024h0.024l-0.024-0.024 0.024-0.025h-0.048v-0.049h-0.024l-0.025-0.024h-0.024c0-0.016 0-0.032 0-0.048-0.025 0-0.049 0-0.073 0v-0.024l0.073-0.025 0.024 0.025 0.025-0.025-0.025-0.024v-0.024l-0.073-0.048h-0.073c0-0.025 0-0.049 0-0.073l0.024 0.025 0.024-0.049v-0.049l-0.024-0.048v-0.073c-0.012-0.049-0.037-0.090-0.073-0.122l0.024-0.048h-0.024l-0.025-0.025c0-0.025 0-0.049 0-0.073-0.021-0.057-0.053-0.105-0.096-0.145l0.024-0.025h-0.072l-0.025-0.024v-0.024l-0.024 0.024-0.024-0.049c-0.030-0.008-0.054-0.024-0.072-0.048l0.049-0.073c-0.017-0.016-0.033-0.032-0.049-0.048h-0.050l-0.048 0.024-0.048-0.024h-0.049l-0.024-0.024h-0.024l-0.024-0.024v-0.025h-0.024c-0.016-0.016-0.033-0.032-0.048-0.049-0.039 0.021-0.079 0.030-0.122 0.025-0.016-0.017-0.032-0.033-0.049-0.049l-0.024 0.024-0.048-0.048h-0.048c0-0.032 0-0.065 0-0.097l0.024-0.048v-0.024h0.024v-0.024c-0.037-0.030-0.078-0.054-0.121-0.073h-0.073l-0.073-0.073v-0.025l0.024-0.024 0.025-0.072-0.025-0.048v-0.025l-0.072-0.048-0.024 0.024v0.024l0.024 0.049-0.024 0.025c-0.016 0-0.032 0-0.048 0l-0.025-0.073c-0.042 0.005-0.082-0.003-0.121-0.024v0.024l-0.073 0.073-0.048-0.025h-0.050l-0.048 0.073c-0.051 0.006-0.099-0.002-0.146-0.024l-0.048 0.048c-0.046 0.024-0.094 0.032-0.146 0.024l-0.048-0.024-0.049 0.024h-0.024v-0.025c-0.032-0.036-0.072-0.060-0.122-0.072l-0.049 0.024h-0.048l-0.024 0.048c-0.041 0-0.081 0-0.122 0-0.013-0.040-0.037-0.072-0.072-0.097v-0.024l-0.073-0.049-0.049 0.024h-0.049l-0.024 0.025v0.072h-0.024l-0.024 0.048-0.073-0.024-0.048 0.024-0.072-0.048h-0.024l-0.051 0.048c-0.071-0.086-0.153-0.14-0.266-0.17-0.025 0.035-0.058 0.059-0.098 0.073-0.038-0.022-0.079-0.038-0.121-0.049l-0.025-0.048c-0.024 0-0.048 0-0.072 0-0.067 0.058-0.115 0.131-0.146 0.218-0.039 0.021-0.079 0.029-0.122 0.025-0.016-0.017-0.032-0.033-0.049-0.049-0.049 0-0.097 0-0.146 0l-0.024-0.024c0.018-0.064 0.026-0.128 0.024-0.194l-0.073-0.025-0.024-0.073c-0.036-0.032-0.060-0.072-0.072-0.121-0.065-0.030-0.122-0.071-0.17-0.122-0.040 0-0.081 0-0.122 0l-0.048 0.024h-0.025l-0.048-0.073h-0.073l-0.049 0.025h-0.048l-0.194-0.098c-0.201-0.006-0.383-0.055-0.559-0.145l-0.072-0.049-0.024-0.097h-0.025c-0.025-0.035-0.057-0.059-0.097-0.073-0.11 0.027-0.23 0.018-0.34-0.024l-0.049 0.024h-0.048l-0.098-0.049h-0.072l-0.072 0.098h-0.025l-0.097 0.048h-0.049l-0.025-0.024-0.096 0.024-0.024 0.025c-0.096-0.039-0.183-0.086-0.268-0.146-0.056 0-0.113 0-0.169 0l-0.073 0.048h-0.072c-0.032-0.051-0.048-0.111-0.048-0.17h-0.049l-0.025-0.024h-0.024l-0.048-0.024c-0.121 0.081-0.245 0.098-0.365 0.048-0.075-0.080-0.155-0.152-0.243-0.219h-0.073c-0.099-0.078-0.216-0.111-0.34-0.097-0.054-0.037-0.111-0.069-0.17-0.098h-0.025c-0.15 0.118-0.201 0.294-0.146 0.486-0.086 0.018-0.168 0.050-0.243 0.098h-0.024c0-0.041 0-0.081 0-0.122-0.018-0.037-0.042-0.069-0.072-0.096-0.078 0.005-0.145 0.038-0.194 0.096-0.144-0.004-0.28-0.035-0.413-0.096h-0.024l-0.024-0.025h-0.049v0.025h-0.048l-0.122 0.073h-0.024c-0.037-0.030-0.078-0.054-0.122-0.073h-0.024c-0.060-0.048-0.108-0.105-0.146-0.171h-0.024c-0.135 0.125-0.305 0.204-0.486 0.219-0.059-0.038-0.124-0.062-0.194-0.073l-0.024-0.024c-0.078-0.011-0.151 0.005-0.219 0.049-0.088-0.070-0.187-0.128-0.291-0.171l-0.17 0.025c-0.035 0.031-0.077 0.056-0.122 0.073v0.024c-0.057 0.029-0.106 0.071-0.146 0.122l-0.097 0.024-0.048 0.073c-0.016-0.049-0.032-0.098-0.048-0.146v0zM29.547 19.156v0.024h-0.024v-0.024l0.024-0.024h-0.024v0.024zM28.916 20.419v0c0.016 0 0.032 0 0.048 0l-0.024 0.024h0.024v0.024l-0.024 0.024v-0.024l-0.025-0.024v-0.024h0zM25.347 20.735v0zM28.236 19.642v0zM28.868 19.593h-0.024l0.024-0.025v0.025zM29.353 18.986v0zM27.897 19.836v0zM27.945 21.074v0zM29.329 19.229h0.024v0.024h-0.024v-0.024zM27.848 21.074v0zM28.017 20.832h-0.024v0.024h-0.025v0.025l0.073 0.024-0.025 0.024 0.025 0.024h0.024l0.048 0.049 0.025-0.049 0.024 0.024h0.025l0.025 0.025-0.025 0.025-0.025-0.025c0 0.049 0 0.097 0 0.145h0.025l-0.025 0.025v0.024l-0.048 0.048-0.072-0.024-0.049-0.073 0.024-0.048-0.048-0.072-0.048 0.024v-0.025l-0.024 0.024h-0.025l-0.024-0.024-0.024 0.024h-0.024v0.024l-0.048-0.024-0.025 0.048c-0.084 0.006-0.164 0.022-0.242 0.048l-0.072-0.024-0.049-0.072c0-0.041 0-0.081 0-0.122h0.024l0.049-0.048h0.024v-0.024l0.048-0.024h0.024l-0.024-0.025h0.024c0.043-0.067 0.1-0.116 0.17-0.146v-0.097h0.024v-0.024l0.025-0.025c0.007-0.057 0.015-0.113 0.024-0.17l0.049-0.024c0.030 0.008 0.055 0.025 0.073 0.049h0.072v0.024h0.048l0.025 0.024h0.024l0.024 0.024v0.024l0.024 0.024h0.025l0.024 0.049h0.025l-0.025 0.024v0.049l-0.024 0.048h0.024v0.025l-0.048 0.024 0.025 0.024h0.024l-0.024 0.024c0.016 0 0.032 0 0.048 0l-0.025 0.024c-0.038-0.021-0.078-0.029-0.121-0.024l-0.049 0.048h0.024v0.025h-0.001zM28.892 19.69v0zM28.187 20.686v-0.025l0.025 0.025h-0.025zM21.924 22.725v0zM29.353 19.059v0 0.024l-0.024-0.024h0.024zM29.207 19.108h-0.024v-0.025h0.024v0.025zM26.439 20.589v0zM27.12 20.832v-0.025h0.024v-0.024c0 0.016 0 0.033 0 0.049h-0.024v0zM22.166 22.75h0.025v0.024h-0.025v-0.024zM22.191 22.822v-0.024h0.025v0.024h-0.025zM29.499 19.229v0h0.024v-0.025c0 0.016 0 0.032 0 0.049l-0.024-0.024zM26.416 20.637v-0.024h0.024v0.024h-0.024zM27.945 19.884l0.024-0.024h0.025v0.024h-0.049zM26.197 20.856v-0.024c0.016 0 0.032 0 0.048 0l-0.024 0.024v0.025h-0.024v-0.025h0zM28.43 19.763l0.024-0.024 0.025 0.024v0.024l-0.025-0.024-0.024 0.024v-0.024zM28.43 20.637c0.029-0.008 0.054-0.024 0.072-0.048v0.024l0.098 0.048-0.025 0.025-0.048-0.025-0.049 0.049c-0.009-0.030-0.025-0.054-0.049-0.073v0zM28.795 19.642v-0.024l0.073 0.024v0.024l-0.073 0.024-0.073 0.073c0-0.025 0-0.049 0-0.073l-0.024-0.024 0.024-0.024 0.024 0.024h0.024l0.024-0.024z"></path>
</svg>
