<?xml version="1.0" encoding="utf-8"?>
<!-- Generated by IcoMoon.io -->
<!DOCTYPE svg PUBLIC "-//W3C//DTD SVG 1.1//EN" "http://www.w3.org/Graphics/SVG/1.1/DTD/svg11.dtd">
<svg version="1.1" xmlns="http://www.w3.org/2000/svg" xmlns:xlink="http://www.w3.org/1999/xlink" width="32" height="32" viewBox="0 0 32 32">
<path d="M-0 13.047c0-0.013 0-0.027 0-0.040 0.061-0.019 0.121-0.039 0.181-0.058-0.025-0.012-0.052-0.024-0.090-0.043 0.084-0.076 0.156-0.142 0.228-0.207-0.018-0-0.036-0.001-0.054-0.001-0.015-0.109-0.029-0.217-0.044-0.326 0.016 0.008 0.032 0.016 0.048 0.024 0.031-0.033 0.073-0.101 0.091-0.095 0.253 0.081 0.104-0.092 0.103-0.164 0.050 0 0.126 0.015 0.135-0.003 0.036-0.074 0.051-0.158 0.074-0.238 0.042-0.046 0.068-0.101 0.096-0.154 0.007-0.013 0.018-0.030 0.031-0.033 0.136-0.034 0.159-0.182 0.119-0.238-0.11-0.153 0.027-0.172 0.097-0.231-0.24-0.174-0.326-0.365-0.244-0.538-0.048 0.006-0.094 0.012-0.118 0.015 0.014-0.059 0.051-0.125 0.031-0.163-0.020-0.040-0.137-0.053-0.136-0.076 0.002-0.067 0.046-0.131 0.062-0.199 0.005-0.022-0.027-0.052-0.049-0.090 0.043 0.015 0.070 0.024 0.156 0.054-0.063-0.134-0.106-0.226-0.161-0.343 0.186-0.199 0.074-0.489 0.093-0.763 0.116-0.046 0.244-0.388 0.177-0.523-0.071-0.14-0.055-0.262 0.023-0.39 0.118-0.195 0.23-0.393 0.351-0.6 0.064 0 0.155 0 0.255 0 0.255 0.322 0.673 0.293 0.999 0.059 0.192-0.138 0.36-0.144 0.559-0.078 0.025 0.008 0.058 0.028 0.074 0.019 0.179-0.099 0.199 0.065 0.289 0.149 0.171 0.157 0.375 0.277 0.569 0.409 0.046 0.031 0.117 0.032 0.156 0.069 0.189 0.181 0.303 0.206 0.53 0.092 0.176-0.088 0.338-0.257 0.555-0.089 0.008 0.006 0.026-0.002 0.039-0.003 0.31-0.027 0.62-0.053 0.93-0.082 0.371-0.035 0.705 0.028 0.968 0.324 0.035 0.040 0.125 0.047 0.188 0.043 0.218-0.014 0.433-0.070 0.638 0.076 0.081 0.058 0.198 0.079 0.301 0.090 0.11 0.012 0.224-0.017 0.336-0.012 0.134 0.006 0.296-0.012 0.395 0.055 0.228 0.156 0.437 0.137 0.657 0.033 0.214 0.152 0.476 0.196 0.669 0.417 0.131 0.15 0.352 0.327 0.618 0.321 0.062-0.002 0.127 0.044 0.188 0.040 0.195-0.012 0.351 0.153 0.565 0.092 0.21-0.060 0.436-0.084 0.654-0.084 0.215-0 0.444-0.13 0.651 0.052 0.034 0.030 0.116 0.007 0.176 0.004 0.12-0.007 0.24-0.027 0.359-0.022 0.063 0.003 0.144 0.029 0.181 0.075 0.104 0.129 0.186 0.276 0.285 0.41 0.069 0.093 0.152 0.177 0.229 0.264 0.020-0.012 0.040-0.025 0.060-0.037-0.016-0.067-0.033-0.135-0.051-0.21 0.040-0.018 0.075-0.034 0.111-0.048 0.249-0.094 0.548 0.008 0.768-0.196 0.038-0.035 0.077-0.071 0.105-0.113 0.134-0.206 0.047-0.368-0.108-0.516-0.080-0.076-0.155-0.154-0.039-0.267 0.016-0.016-0.003-0.099-0.030-0.124-0.234-0.221-0.235-0.219 0.001-0.463 0.015-0.016 0.037-0.036 0.037-0.054-0.005-0.29 0.206-0.363 0.424-0.456 0.227-0.097 0.55-0.062 0.592-0.349 0.152-0.013 0.266-0.036 0.379-0.029 0.087 0.006 0.18 0.036 0.254 0.081 0.076 0.046 0.132 0.124 0.197 0.189 0.014-0.011 0.028-0.022 0.042-0.034-0.011-0.076-0.021-0.152-0.032-0.227 0.019-0.008 0.038-0.016 0.056-0.024 0.036 0.069 0.071 0.138 0.108 0.206 0.022 0.040 0.047 0.079 0.071 0.118 0.037-0.032 0.084-0.058 0.11-0.098 0.032-0.051 0.048-0.113 0.077-0.188 0.067 0.084 0.115 0.144 0.163 0.205 0-0.023 0-0.047 0.001-0.070 0.135-0.077 0.268-0.159 0.408-0.226 0.026-0.012 0.081 0.033 0.122 0.055 0.055 0.029 0.108 0.062 0.162 0.093 0.010-0.017 0.019-0.035 0.029-0.052-0.032-0.078-0.064-0.156-0.093-0.226 0.145-0.138 0.282-0.264 0.412-0.397 0.029-0.030 0.049-0.088 0.044-0.131-0.017-0.169 0.112-0.292 0.287-0.281 0.125 0.008 0.276 0.044 0.318-0.145 0 0-0.005 0.005-0.005 0.005 0.051-0.029 0.1-0.064 0.154-0.088 0.151-0.064 0.387 0.007 0.489 0.125 0.035 0.041 0.115 0.041 0.166 0.073 0.098 0.062 0.199 0.125 0.281 0.206 0.058 0.057 0.089 0.142 0.132 0.215 0.024-0.001 0.048-0.002 0.072-0.003-0.085-0.441 0.252-0.48 0.47-0.576 0.143 0.083 0.263 0.152 0.395 0.229 0.047-0.063 0.088-0.118 0.126-0.169-0.049-0.033-0.083-0.055-0.147-0.098 0.095-0.014 0.153-0.022 0.213-0.031 0.008 0.153 0.162 0.232 0.28 0.144 0.174-0.129 0.358-0.113 0.517-0.077 0.048-0.057 0.108-0.142 0.117-0.137 0.068 0.038 0.125 0.094 0.194 0.151 0.015-0.040 0.040-0.103 0.062-0.159 0.231 0.101 0.45 0.196 0.678 0.295-0.030 0.187 0.109 0.242 0.251 0.279 0.19 0.050 0.3 0.17 0.328 0.276 0.129 0.063 0.208 0.096 0.281 0.139 0.031 0.018 0.045 0.068 0.077 0.082 0.223 0.097 0.449 0.187 0.623 0.259 0.124-0.024 0.207-0.030 0.28-0.059 0.050-0.019 0.088-0.070 0.13-0.109 0.091-0.085 0.178-0.24 0.273-0.245 0.242-0.013 0.451-0.058 0.627-0.232 0.041-0.041 0.101-0.062 0.148-0.098 0.061-0.047 0.118-0.1 0.176-0.151 0.050-0.055 0.117-0.087 0.171-0.134 0.085-0.074 0.153-0.168 0.243-0.236 0.123-0.093 0.276-0.070 0.419-0.093 0.173-0.028 0.32-0.067 0.468 0.054 0.018 0.015 0.070-0.012 0.107-0.019 0.034-0.006 0.068-0.012 0.103-0.017 0.064-0.009 0.155 0.006 0.187-0.030 0.12-0.138 0.273-0.135 0.43-0.135 0.393 0 0.786-0.007 1.179 0.003 0.172 0.005 0.313-0.034 0.427-0.163 0.013 0 0.027 0 0.040 0 0.073 0.070 0.146 0.14 0.219 0.211 0.007 0.225 0.011 0.471 0.024 0.716 0.019 0.335 0.065 0.37 0.402 0.33 0.008-0.001 0.019 0.015 0.028 0.023-0.012 0.004-0.024 0.008-0.036 0.012 0.041 0.122 0.083 0.245 0.135 0.4-0.064 0.122-0.163 0.288-0.242 0.464s-0.137 0.361-0.208 0.54c-0.068 0.172-0.131 0.347-0.216 0.51-0.233 0.445-0.437 0.896-0.361 1.417 0.013 0.086 0.044 0.208 0.105 0.241 0.136 0.073 0.297 0.099 0.485 0.156-0.082 0.078-0.171 0.158-0.253 0.244-0.025 0.026-0.027 0.072-0.042 0.108-0.090 0.228-0.006 0.447 0.018 0.673 0.029 0.27 0.015 0.275 0.251 0.214 0.123 0.113 0.056 0.227 0.007 0.344-0.158 0.371-0.153 0.426 0.048 0.576 0.104 0.078 0.195 0.078 0.258-0.055 0.022-0.046 0.050-0.088 0.055-0.097 0.102 0.076 0.18 0.133 0.258 0.191-0.090 0.072-0.202 0.174-0.033 0.328-0.054 0.022-0.089 0.036-0.123 0.051 0.010-0.016 0.021-0.032 0.031-0.048-0.052-0.051-0.097-0.127-0.159-0.146-0.107-0.033-0.444 0.234-0.487 0.34-0.077 0.187 0.022 0.316 0.112 0.451 0.097-0.021 0.184-0.041 0.286-0.063 0.029 0.143 0.057 0.279 0.090 0.44-0.067-0.034-0.107-0.054-0.164-0.083-0.020 0.102-0.023 0.192-0.058 0.266-0.024 0.052-0.105 0.127-0.139 0.118-0.208-0.058-0.245 0.085-0.276 0.222-0.050 0.215 0.112 0.546 0.294 0.664 0.046 0.030 0.088 0.125 0.074 0.173-0.028 0.094-0.093 0.089-0.159 0.009-0.011-0.013-0.113 0.018-0.137 0.053-0.039 0.055-0.047 0.131-0.068 0.198 0.019-0.007 0.038-0.015 0.057-0.022 0.058 0.112 0.149 0.218 0.166 0.336 0.042 0.286 0.051 0.577 0.075 0.891-0.139 0.088-0.138 0.138 0.074 0.263-0.069 0.074-0.134 0.145-0.2 0.215-0.164 0.172-0.144 0.514 0.018 0.61-0.101 0.429-0.416 0.8-0.309 1.292-0.183 0.106-0.294 0.282-0.299 0.522-0.001 0.030 0.009 0.065-0.002 0.090-0.098 0.214-0.206 0.423-0.298 0.639-0.048 0.113-0.1 0.247 0.12 0.296-0.089 0.122-0.169 0.224-0.242 0.331-0.067 0.1-0.125 0.206-0.191 0.306-0.010 0.015-0.047 0.010-0.070 0.019-0.080 0.030-0.162 0.057-0.239 0.094-1.96 0.951-3.562 2.323-4.822 4.098-0.056 0.078-0.152 0.128-0.23 0.191-0.003-0.031-0.005-0.061-0.008-0.092-0.065-0.036-0.129-0.074-0.195-0.109-0.153-0.080-0.361-0.122-0.447-0.248-0.107-0.155-0.223-0.237-0.389-0.288-0.157-0.049-0.315-0.15-0.44 0.054-0.006 0.010-0.023 0.014-0.035 0.017-0.239 0.073-0.477 0.146-0.772 0.236 0.168 0.157 0.318 0.296 0.468 0.436-0.046 0.026-0.065 0.024-0.078 0.014-0.122-0.092-0.24-0.189-0.365-0.275-0.042-0.029-0.146-0.032-0.147-0.050-0.006-0.133-0.099-0.276 0.037-0.4 0.020-0.018-0.004-0.085-0.009-0.14 0.080 0.041 0.153 0.079 0.226 0.117-0.017 0.036-0.032 0.066-0.058 0.12 0.274-0.088-0.043-0.355 0.176-0.461-0.041 0.172-0.041 0.172 0.297 0.145 0.059-0.108 0.097-0.275 0.17-0.293 0.241-0.058 0.167-0.271 0.299-0.413-0.114 0.012-0.176 0.019-0.206 0.022 0.066-0.078 0.217-0.201 0.197-0.246-0.077-0.174 0.059-0.217 0.111-0.292-0.073-0.121-0.197-0.279-0.158-0.359 0.068-0.14 0.056-0.249 0.033-0.385-0.023-0.131-0.017-0.269-0.002-0.402 0.009-0.078 0.060-0.151 0.091-0.226-0.004-0.206 0.013-0.218 0.31-0.173-0.005 0.044-0.010 0.089-0.015 0.133 0.012 0.002 0.024 0.004 0.035 0.006 0.023-0.083 0.046-0.166 0.068-0.249 0.011 0.015 0.021 0.029 0.032 0.044 0.068-0.042 0.198-0.090 0.194-0.125-0.021-0.208 0.135-0.307 0.179-0.394 0.233 0 0.412 0.001 0.59-0.004 0.010-0 0.035-0.066 0.024-0.083-0.093-0.148-0.193-0.291-0.297-0.445 0.091-0.164 0.062-0.235-0.12-0.261 0-0.060 0-0.119 0-0.179-0.012-0.003-0.024-0.007-0.036-0.010-0.027 0.063-0.055 0.126-0.106 0.241-0.063-0.067-0.115-0.123-0.162-0.173-0.267 0.363-0.245-0.159-0.408-0.195-0.029 0.271-0.166 0.080-0.271 0.068-0.003 0.053-0.005 0.097-0.007 0.143-0.091-0.081-0.171-0.152-0.25-0.222-0.239 0.234-0.601 0.303-0.828 0.177 0.004-0.071 0.007-0.135 0.010-0.199-0.033 0.010-0.069 0.015-0.099 0.031-0.149 0.081-0.080 0.192-0.044 0.319-0.060-0.009-0.114-0.029-0.127-0.065-0.086-0.239-0.163-0.268-0.366-0.121-0.025-0.030-0.051-0.058-0.075-0.090-0.024-0.033-0.045-0.069-0.075-0.116-0.071 0.214-0.087 0.22-0.261 0.080-0.133-0.108-0.214-0.063-0.265 0.104-0.024-0.096-0.042-0.167-0.069-0.276-0.068 0.089-0.109 0.142-0.151 0.197-0.161-0.068-0.307-0.167-0.464-0.186-0.154-0.019-0.342-0.131-0.517 0.139-0.089-0.147-0.161-0.267-0.234-0.387-0.017 0.029-0.033 0.058-0.050 0.087-0.066-0.013-0.159-0.004-0.193-0.044-0.066-0.077-0.098-0.182-0.145-0.275-0.054-0.062-0.067-0.15-0.116-0.205-0.094-0.105-0.175-0.224-0.331-0.27-0.061-0.018-0.094-0.131-0.14-0.2-0.042-0.065-0.084-0.129-0.126-0.194-0.018 0.009-0.037 0.018-0.055 0.027 0-0.108 0-0.216 0-0.284-0.114-0.068-0.197-0.118-0.285-0.17-0.062 0.028-0.137 0.063-0.175 0.080-0.067-0.134-0.117-0.233-0.171-0.34 0.165-0.16 0.143-0.269-0.093-0.383-0.036-0.017-0.084-0.061-0.084-0.093-0-0.136-0.093-0.16-0.192-0.197-0.051-0.019-0.086-0.077-0.13-0.115-0.013-0.011-0.030-0.017-0.045-0.025-0.039 0.050-0.072 0.094-0.128 0.166-0.044-0.117-0.063-0.214-0.113-0.29-0.085-0.132-0.261-0.245-0.271-0.377-0.020-0.258-0.178-0.166-0.3-0.172-0.078-0.221-0.446-0.398-0.672-0.324-0.072-0.095-0.146-0.193-0.232-0.306-0.093 0.011-0.192 0.012-0.171-0.166 0.015-0.123-0.041-0.195-0.197-0.145-0.045 0.014-0.137-0.072-0.186-0.131-0.033-0.040-0.029-0.11-0.041-0.167-0.055 0.031-0.113 0.058-0.164 0.095-0.034 0.025-0.059 0.063-0.098 0.105-0.11-0.192-0.207-0.369-0.312-0.541-0.021-0.034-0.076-0.072-0.109-0.067-0.136 0.022-0.27 0.060-0.445 0.102-0.006-0.067-0.017-0.184-0.030-0.317-0.094 0.049-0.174 0.090-0.293 0.152 0.021-0.093 0.036-0.131 0.037-0.169 0.001-0.053-0.009-0.106-0.014-0.158-0.035 0.031-0.068 0.065-0.107 0.091-0.034 0.023-0.079 0.054-0.112 0.048-0.025-0.005-0.042-0.063-0.060-0.098-0.020-0.040-0.038-0.082-0.056-0.123-0.045 0.027-0.096 0.047-0.134 0.082-0.031 0.028-0.048 0.072-0.045 0.067-0.178-0.038-0.326-0.070-0.517-0.111 0.046 0.128 0.069 0.19 0.092 0.253-0.128-0.026-0.238-0.048-0.356-0.072 0.009-0.049 0.023-0.128 0.036-0.203-0.249-0.095-0.186 0.113-0.226 0.216-0.018-0-0.035-0-0.053-0-0.035-0.117-0.071-0.234-0.106-0.351-0.098 0.024-0.19 0.046-0.277 0.067 0.039-0.098 0.112-0.203 0.088-0.235-0.046-0.062-0.147-0.084-0.226-0.12-0.045-0.020-0.092-0.034-0.138-0.051 0.004-0.016 0.007-0.032 0.011-0.048 0.098-0.013 0.196-0.025 0.31-0.040-0.085-0.197-0.503 0.083-0.396-0.289-0.169 0.010-0.335 0.020-0.5 0.030-0.018-0.098-0.032-0.172-0.047-0.257-0.114 0.021-0.209 0.039-0.315 0.059 0-0.081 0-0.148 0-0.214-0.017-0.009-0.034-0.019-0.052-0.028-0.084 0.12-0.169 0.24-0.244 0.347-0.123-0.071-0.233-0.134-0.368-0.212 0.076-0.056 0.146-0.106 0.262-0.191-0.166 0-0.283 0-0.412 0 0.019 0.121 0.035 0.222 0.051 0.322-0.018 0.004-0.036 0.008-0.055 0.011-0.083-0.064-0.166-0.128-0.244-0.189-0.067 0.041-0.12 0.074-0.19 0.117-0.019-0.118-0.033-0.213-0.048-0.307-0.018 0.003-0.035 0.006-0.053 0.009 0 0.066 0 0.133 0 0.216-0.227-0.085-0.296-0.235-0.223-0.464-0.201 0.021-0.291 0.116-0.283 0.319-0.107-0.018-0.228-0.003-0.28-0.055-0.15-0.152-0.286-0.072-0.431-0.016-0.049 0.019-0.108 0.059-0.147 0.045-0.081-0.029-0.151-0.087-0.225-0.133-0.046 0.076-0.092 0.153-0.158 0.261-0.057-0.129-0.095-0.215-0.138-0.311-0.039 0.024-0.060 0.039-0.082 0.050-0.044 0.021-0.088 0.041-0.132 0.061-0.013-0.047-0.019-0.097-0.042-0.139-0.027-0.049-0.062-0.119-0.105-0.128-0.118-0.026-0.242-0.025-0.368-0.035-0.014-0.057-0.030-0.125-0.051-0.212-0.158 0.079-0.297 0.149-0.402 0.202-0.085-0.1-0.137-0.162-0.189-0.223-0.047 0.104-0.093 0.209-0.146 0.327-0.108-0.039-0.209-0.089-0.087-0.239 0.089-0.108 0.076-0.187-0.048-0.247-0.072 0.039-0.138 0.075-0.204 0.111-0.019-0.014-0.038-0.027-0.057-0.041 0.053-0.123 0.106-0.245 0.159-0.37-0.284-0.052-0.35-0-0.313 0.255 0.016 0.11-0.004 0.18-0.122 0.204-0.082 0.016-0.164 0.039-0.23 0.055-0.059-0.085-0.105-0.15-0.186-0.268-0.031 0.123-0.046 0.182-0.061 0.242-0.027 0.105-0.097 0.162-0.188 0.088-0.147-0.12-0.273-0.063-0.4 0.017-0.081 0.050-0.154 0.112-0.231 0.169-0.017-0.009-0.033-0.018-0.050-0.027 0.041-0.092 0.080-0.185 0.123-0.276 0.075-0.158 0.034-0.249-0.116-0.286-0.1-0.025-0.195-0.071-0.325-0.12-0.074 0.080-0.156 0.238-0.282 0.287s-0.294-0.009-0.462-0.021c0.029 0.119 0.057 0.232 0.103 0.419-0.353-0.199-0.654-0.316-0.877 0.055-0.057-0.119-0.087-0.287-0.165-0.314-0.091-0.031-0.225 0.059-0.339 0.1-0.084 0.030-0.153 0.043-0.187-0.069-0.051-0.167-0.146-0.15-0.247-0.046s-0.168 0.065-0.229-0.039z"></path>
<path d="M32 14.807c-0.019 0.002-0.038 0.004-0.058 0.006 0.020 0.191-0.166 0.262-0.238 0.401-0.061 0.118-0.141 0.214-0.075 0.368 0.023 0.053-0.050 0.154-0.092 0.225-0.112 0.187-0.237 0.366-0.346 0.555-0.082 0.142-0.11 0.281 0.112 0.326-0.030 0.064-0.056 0.12-0.088 0.188-0.341-0.229-0.205 0.247-0.377 0.253-0.032-0.113-0.068-0.217-0.090-0.324-0.009-0.043 0.002-0.098 0.022-0.138 0.071-0.141 0.117-0.271 0.015-0.424-0.077-0.116 0.061-0.261 0.3-0.274-0.102-0.12-0.183-0.214-0.258-0.303 0.041-0.133 0.303-0.054 0.252-0.272-0.030-0.128-0.065-0.255-0.126-0.371 0.017-0.077 0.027-0.158 0.055-0.23 0.012-0.031 0.062-0.060 0.099-0.067 0.159-0.031 0.32-0.053 0.469-0.077 0.017-0.097 0.028-0.164 0.039-0.231 0.167 0.342 0.192 0.364 0.385 0.309 0 0.027 0 0.053 0 0.080z"></path>
<path d="M19.197 6.33c-0.069 0.008-0.138 0.016-0.26 0.031 0.041-0.109 0.072-0.192 0.102-0.275 0.023-0 0.045-0.001 0.068-0.001 0.028 0.083 0.057 0.167 0.085 0.25-0 0 0.004-0.005 0.004-0.005z"></path>
</svg>
