<?xml version="1.0" encoding="utf-8"?>
<!-- Generated by IcoMoon.io -->
<!DOCTYPE svg PUBLIC "-//W3C//DTD SVG 1.1//EN" "http://www.w3.org/Graphics/SVG/1.1/DTD/svg11.dtd">
<svg version="1.1" xmlns="http://www.w3.org/2000/svg" xmlns:xlink="http://www.w3.org/1999/xlink" width="32" height="32" viewBox="0 0 32 32">
<path d="M6.563 24.177l0.051-0.101v-0.102c0.048-0.067 0.076-0.148 0.077-0.228 0.029-0.069 0.083-0.123 0.152-0.152 0.010-0.087 0.027-0.171 0.051-0.255-0.021-0.077-0.037-0.148-0.051-0.228 0.022-0.040 0.030-0.083 0.025-0.127l0.051-0.025 0.026-0.076 0.076-0.052v-0.025l0.026-0.050v-0.102l-0.026-0.050c0.011-0.062 0.002-0.122-0.025-0.178l0.025-0.051-0.051-0.127c0.032-0.059 0.074-0.11 0.127-0.153v-0.051l-0.026-0.051-0.051-0.025c0-0.042 0-0.085 0-0.127l0.026-0.051v-0.025l0.025-0.025h0.051c0-0.026 0-0.051 0-0.077l0.077-0.127c-0.022-0.040-0.030-0.082-0.025-0.126l-0.026-0.052v-0.076l-0.076-0.051v-0.051c0.067-0.055 0.119-0.124 0.152-0.203 0.025 0 0.051 0 0.076 0l0.026-0.025c0.011-0.057 0.037-0.109 0.076-0.152l-0.026-0.077c0.025-0.048 0.034-0.098 0.026-0.152 0.032-0.020 0.066-0.029 0.102-0.026l0.026-0.025-0.026-0.076 0.051-0.254 0.101-0.051 0.026-0.051c0.039-0.019 0.072-0.045 0.101-0.077-0.008-0.17 0.042-0.369 0.127-0.533l-0.025-0.178h-0.026c-0.003-0.117 0.042-0.226 0.127-0.305l0.025-0.076c0.068-0.052 0.134-0.102 0.203-0.153 0.028-0.056 0.036-0.115 0.026-0.178l0.051-0.076v-0.050l0.051-0.076v-0.101c0.026-0.094 0.077-0.17 0.152-0.229 0-0.017 0-0.034 0-0.051l0.025-0.025c0.035-0.091 0.061-0.184 0.076-0.28l0.152-0.178v-0.050l0.025-0.026v-0.076l0.052-0.076v-0.102l0.051-0.025c0.017-0.034 0.034-0.068 0.050-0.102v-0.076c0.015-0.042 0.040-0.076 0.077-0.102-0.013-0.057-0.038-0.108-0.077-0.153v-0.026h0.026c-0.008-0.097 0.009-0.188 0.051-0.279l0.101-0.102c0.019-0.127 0.035-0.254 0.051-0.381 0.034-0.034 0.067-0.068 0.101-0.102l0.077-0.025 0.025-0.152h0.101c0.059-0.093 0.136-0.169 0.229-0.228 0-0.026 0-0.051 0-0.077 0.124-0.138 0.202-0.302 0.228-0.483l0.203-0.178c0.038-0.115 0.097-0.216 0.178-0.305 0.157-0.155 0.342-0.239 0.559-0.253 0.175-0.228 0.334-0.484 0.458-0.737l0.050-0.051 0.026-0.076c0.089-0.049 0.156-0.117 0.203-0.204-0.012-0.207 0.048-0.398 0.178-0.558h0.026c0.286-0.262 0.473-0.65 0.533-1.066l-0.026-0.076 0.026-0.051v-0.077l0.025-0.025v-0.025l0.051-0.025 0.026-0.051c0.009-0.103 0-0.205-0.026-0.305l0.052-0.077c0.016-0.163 0.016-0.319 0-0.483 0.024-0.020 0.041-0.045 0.050-0.076v-0.025l-0.025-0.051c-0.338-0.132-0.617-0.387-0.762-0.711l-0.076-0.152c-0.003-0.094 0.005-0.187 0.026-0.279l0.051-0.026c0.086-0.166 0.209-0.313 0.355-0.431v-0.025c0.143-0.18 0.251-0.371 0.33-0.584-0.018-0.305-0.053-0.614-0.101-0.914l-0.026-0.026c0-0.042 0-0.084 0-0.126 0.042-0.059 0.084-0.118 0.127-0.178 0.238-0.075 0.457-0.23 0.61-0.432h0.177c0.238-0.094 0.485-0.153 0.736-0.178 0.057-0.048 0.099-0.107 0.127-0.178 0.107-0.002 0.201-0.036 0.28-0.102 0.017-0.034 0.034-0.067 0.051-0.101-0.040-0.124-0.050-0.255-0.025-0.381l0.050-0.051v-0.076c0.178-0.208 0.351-0.406 0.533-0.61 0.167-0.028 0.31 0.016 0.432 0.127l0.025-0.026 0.026-0.101-0.025-0.076c-0.036-0.033-0.080-0.059-0.126-0.076l-0.026-0.051v-0.025l0.026-0.026c-0.057-0.127-0.083-0.267-0.077-0.406 0.041-0.053 0.094-0.096 0.152-0.127l0.102 0.025c0.109-0.030 0.205-0.091 0.279-0.178 0.022-0.040 0.030-0.083 0.025-0.127l-0.076-0.101-0.102-0.025-0.026-0.025v-0.052c0.084-0.165 0.225-0.256 0.407-0.279 0-0.034 0-0.068 0-0.102l-0.052-0.076v-0.025c-0.067-0.063-0.125-0.129-0.178-0.203-0.020-0.109-0.029-0.22-0.025-0.33 0.017-0.034 0.034-0.068 0.050-0.102l0.052-0.025 0.177 0.025c0.032-0.020 0.066-0.028 0.101-0.025 0.020-0.025 0.046-0.042 0.077-0.051 0.060-0.088 0.111-0.182 0.152-0.28 0-0.042 0-0.084 0-0.126-0.104-0.054-0.198-0.122-0.28-0.204-0.188 0.011-0.338-0.067-0.432-0.228v0.025-0.051c-0.030-0.039-0.056-0.082-0.076-0.127 0-0.025 0-0.051 0-0.076-0.044-0.034-0.078-0.077-0.102-0.127l-0.051-0.025h-0.026l-0.025 0.051-0.077-0.025c-0.032 0.020-0.066 0.028-0.101 0.025l-0.025 0.025h-0.051l-0.026 0.025c-0.187 0.029-0.395 0.019-0.583-0.025l-0.051-0.102c-0.092-0.024-0.182-0.032-0.279-0.025v-0.025h-0.051c-0.031-0.009-0.056-0.026-0.076-0.051 0-0.017 0-0.034 0-0.051l0.051 0.025 0.026-0.025 0.077 0.025 0.025-0.025 0.025-0.102c0.020-0.025 0.045-0.042 0.077-0.051 0.055 0.006 0.105 0.023 0.152 0.051l0.026 0.051 0.076 0.025c0.122-0.114 0.182-0.264 0.178-0.431 0.034-0.069 0.085-0.12 0.152-0.153l0.127 0.025 0.076-0.051 0.381-0.051c0.067 0.030 0.126 0.073 0.178 0.127h0.101c0.072 0.050 0.149 0.092 0.229 0.127h0.025l0.051 0.051c0.156 0.054 0.317 0.088 0.483 0.102l0.128-0.025 0.127-0.127c0.169-0.005 0.332 0.029 0.483 0.102 0.050 0.094 0.067 0.197 0.051 0.304 0.044 0.066 0.094 0.125 0.152 0.178 0.112-0.006 0.218-0.014 0.33-0.025 0.201 0.131 0.401 0.248 0.609 0.356l0.052-0.026h0.025l0.228 0.229c0.097 0.258 0.098 0.529 0 0.786 0.111 0.152 0.189 0.323 0.229 0.509l0.026 0.025c0.027 0.169 0.002 0.33-0.077 0.483 0.084 0.114 0.101 0.247 0.051 0.381 0.082 0.246 0.15 0.493 0.203 0.736l-0.102 0.204c-0.017 0.119-0.042 0.239-0.076 0.355l-0.026 0.025 0.076 0.203-0.026 0.051h-0.025l-0.102 0.153v0.051l-0.026 0.025c0 0.068 0 0.135 0 0.203-0.052 0.071-0.094 0.147-0.127 0.228l0.025 0.076-0.025 0.025c0 0.076 0 0.152 0 0.228-0.068 0.088-0.113 0.196-0.127 0.305h0.026c0.021 0.074 0.047 0.155 0.076 0.229-0.034 0.068-0.068 0.136-0.102 0.203v0.101c-0.029 0.046-0.047 0.1-0.051 0.152-0.089 0.104-0.183 0.205-0.28 0.305-0.006 0.081-0.039 0.148-0.101 0.203l-0.051 0.026c-0.053-0.036-0.115-0.054-0.179-0.051-0.042 0.045-0.092 0.079-0.152 0.102 0 0.051 0 0.102 0 0.152 0.175 0.073 0.296 0.197 0.355 0.381 0.034 0 0.068 0 0.101 0l0.077-0.127 0.051-0.025h0.177c0.051 0.053 0.11 0.095 0.178 0.127 0.026 0.051 0.051 0.101 0.076 0.152l-0.025 0.127-0.102 0.051v0.025c-0.088 0.026-0.173 0.060-0.255 0.102l-0.050 0.101 0.102 0.025c0.070-0.042 0.147-0.060 0.228-0.051-0.003 0.060 0.005 0.12 0.026 0.178l0.051 0.051v0.126l0.025 0.025h0.026l0.025-0.051h0.102c0.017 0.017 0.034 0.034 0.051 0.051v0.026c-0.017 0.017-0.034 0.034-0.051 0.051v0.025c0.017 0 0.034 0 0.051 0l0.051 0.025h0.026l0.026 0.025-0.026 0.052 0.076 0.051v0.076l-0.025 0.051v0.025l0.025 0.051 0.051 0.025 0.051-0.051v-0.025h-0.051l-0.025-0.051v-0.026c0.025 0 0.050 0 0.076 0l0.026 0.051c0.050 0.022 0.093 0.057 0.126 0.101l-0.025 0.026c-0.025 0-0.050 0-0.076 0l0.025 0.025c0 0.017 0 0.034 0 0.051l0.128 0.025v0.051h-0.026l-0.026-0.025v0.025l0.026 0.026-0.026 0.025v0.051h0.026l0.026 0.025 0.025-0.025 0.051 0.025 0.025-0.025c0 0.017 0 0.034 0 0.051h0.052v0.026l-0.026 0.051 0.026-0.025c0.017 0 0.034 0 0.051 0l-0.026 0.025c0.011 0.045 0.028 0.087 0.051 0.127l-0.025 0.025h0.050l-0.050 0.025v0.025c0.017 0 0.034 0 0.050 0v0.025c0.017 0.017 0.035 0.034 0.052 0.051h0.051v0.025h0.025v0.025l0.051-0.025v0.051h0.025c0 0.017 0 0.034 0 0.051 0.026 0.025 0.051 0.051 0.077 0.077v0.025h0.051c0 0.042 0 0.085 0 0.127l0.051-0.025h0.026l0.025 0.076 0.026-0.025-0.026 0.076 0.026 0.025 0.025-0.025c0 0.017 0 0.034 0 0.051h-0.025l0.051 0.051-0.051 0.025h0.102l0.076 0.077v0.076l0.051 0.025-0.025 0.025 0.051 0.025v0.026h0.076v0.025c0.026 0 0.051 0 0.076 0v0.025h0.026l0.025-0.077 0.025 0.026v-0.026l0.076-0.025-0.026-0.025 0.051-0.025c0-0.025 0-0.051 0-0.076h0.026l0.026-0.052c0.025 0 0.050 0 0.076 0 0-0.017 0-0.034 0-0.051h0.025l0.026 0.025h0.026l0.025-0.051h0.026v-0.051l0.050-0.025v0.025l0.026 0.026c0.017-0.017 0.034-0.034 0.051-0.051l0.026 0.051h0.025v-0.026c0.036 0.003 0.070-0.006 0.102-0.025l0.026-0.025 0.025 0.025h0.026v-0.025l0.025 0.025v-0.025c0.017-0.017 0.034-0.034 0.051-0.051v0.025h0.026l0.025-0.076 0.026 0.025 0.025-0.025c0.017 0 0.034 0 0.051 0l0.026-0.026h0.025l0.026-0.025 0.051 0.025c0.025 0 0.051 0 0.076 0l0.026-0.051h0.025l0.051 0.025h0.026l0.051-0.051h0.076l0.052 0.025v0.025h0.051c0.020 0.025 0.045 0.042 0.076 0.051 0 0.025 0 0.051 0 0.076 0.093 0.037 0.178 0.088 0.254 0.153l0.026 0.051v0.026l0.025 0.026c0 0.059 0 0.118 0 0.178l0.051 0.051v0.050l-0.026 0.025h-0.050l-0.026 0.051c-0.028 0.097-0.056 0.204-0.077 0.305 0.042 0.014 0.076 0.039 0.102 0.076-0.026 0.025-0.051 0.051-0.076 0.076l-0.026 0.076 0.026 0.127c-0.048 0.085-0.119 0.157-0.204 0.203h-0.076l-0.052 0.025h-0.052l-0.101-0.051c-0.090 0.050-0.184 0.092-0.28 0.127-0.026 0.044-0.050 0.083-0.076 0.126l-0.025-0.025c-0.062 0.007-0.121-0.001-0.178-0.025 0 0.017 0 0.034 0 0.051h-0.025l0.025 0.052-0.051 0.025-0.025-0.025c0.021 0.041 0.029 0.082 0.025 0.126l-0.025 0.052 0.025 0.025c-0.034 0.034-0.067 0.068-0.102 0.101l-0.025-0.051-0.026 0.025v0.025h-0.051v0.051l0.026 0.051h-0.026l0.026 0.025-0.026 0.025 0.026 0.025-0.026 0.026 0.026 0.025h-0.026v0.025l-0.025 0.025v0.025l-0.026 0.025-0.026-0.025v0.025h-0.025l0.025 0.026h-0.025v0.025l-0.025-0.025v0.025h-0.026v-0.025 0.051l-0.025-0.025c0 0.025 0 0.051 0 0.076h-0.026l-0.026-0.025v0.050l0.026-0.025 0.026 0.025v0.025h-0.026l0.026 0.026h-0.026v0.025h-0.025v0.025l-0.025 0.025 0.025 0.025-0.025 0.025 0.051 0.025h0.026l-0.026 0.026h0.051l-0.025 0.025c0.025 0.020 0.041 0.045 0.051 0.076l-0.026 0.025h-0.025l-0.052 0.051v0.076c-0.026 0-0.050 0-0.076 0l0.025 0.077 0.026 0.025v0.051h0.025v0.025h0.026l0.026 0.077-0.026 0.025v0.076l-0.026 0.025 0.026 0.026-0.026 0.025h-0.025v0.025l0.025 0.025-0.025 0.025h-0.076c-0.026 0.025-0.052 0.051-0.077 0.076l-0.026-0.025c-0.017 0-0.034 0-0.051 0l-0.050 0.025 0.025 0.051v0.025l0.025 0.025h0.026l0.025 0.051-0.051 0.025v0.025l-0.050 0.025v0.025l-0.052 0.025h-0.025l-0.026 0.026 0.026 0.051v0.025l-0.026 0.025v0.025h-0.050l-0.026 0.051v0.025h-0.077l-0.025 0.025 0.051 0.025 0.025-0.026v0.025h0.026v0.025l-0.051 0.025c0 0.017 0 0.034 0 0.051h-0.026l0.026 0.025h-0.051v0.025l0.076 0.051v-0.025h0.052l0.050 0.025 0.051-0.025-0.025 0.052c0.017 0 0.034 0 0.051 0v-0.026h0.051l0.051 0.026c0.062-0.044 0.13-0.061 0.203-0.052l0.025 0.052-0.025 0.025c-0.017 0-0.034 0-0.051 0l0.025 0.025h-0.025l0.025 0.025-0.025 0.025 0.025 0.051h-0.025l0.025 0.052c0.026 0 0.051 0 0.077 0 0.017-0.017 0.034-0.034 0.051-0.052 0 0.026 0 0.051 0 0.077 0.044-0.002 0.086 0.006 0.127 0.025 0.025 0.020 0.042 0.045 0.051 0.076-0.020 0.032-0.028 0.066-0.026 0.102l0.051 0.025 0.051-0.025v0.025l0.026 0.051c-0.018 0.034-0.035 0.067-0.051 0.101l0.051 0.077c-0.017 0.017-0.035 0.033-0.051 0.051v0.025l-0.051 0.025c0 0.017 0 0.034 0 0.051l0.025 0.051c0.032-0.019 0.066-0.028 0.102-0.025v0.050c0.069 0.084 0.136 0.168 0.203 0.254-0.019 0.032-0.028 0.066-0.025 0.101l0.076 0.025v-0.025c0.020-0.025 0.046-0.042 0.077-0.051 0.071 0.004 0.137-0.005 0.203-0.025l0.051 0.051 0.077 0.025c-0.025 0.020-0.042 0.045-0.052 0.077v0.051c0.026 0.025 0.052 0.050 0.077 0.076h0.051l0.051 0.026 0.026 0.051 0.076-0.025 0.051 0.025v0.051l-0.051 0.051v0.026l0.050 0.076v0.025l0.077 0.026v0.026c-0.063 0.051-0.131 0.093-0.203 0.126v0.076l-0.052 0.076v0.102l-0.025 0.051-0.153 0.102c0.021 0.050 0.029 0.1 0.025 0.153l0.026 0.026v0.025c0.059 0 0.119 0 0.178 0l0.076 0.051 0.025 0.051-0.025 0.025c-0.019 0.032-0.028 0.066-0.025 0.101 0.048 0.026 0.099 0.035 0.153 0.026l0.101-0.052c0.015 0.042 0.040 0.076 0.077 0.102l-0.025 0.076h0.025l0.051 0.051-0.051 0.025v0.025l0.076 0.025v0.077l-0.025 0.025v0.075l0.051 0.051-0.051 0.051 0.025 0.101-0.025 0.051 0.077 0.101v0.127l0.025 0.025 0.026 0.077c0.032 0.020 0.066 0.027 0.102 0.025 0.105 0.086 0.164 0.196 0.178 0.33 0.058 0.012 0.108 0.037 0.153 0.076l0.050-0.051 0.051 0.026c0.112 0.002 0.224-0.015 0.33-0.051 0.076 0.038 0.138 0.1 0.178 0.178 0.083-0.035 0.168-0.035 0.255 0 0.069-0.064 0.144-0.114 0.228-0.153h0.026l0.025 0.026 0.026 0.228 0.051 0.077 0.025-0.025 0.077-0.025 0.101 0.051c0.084-0.029 0.168-0.054 0.254-0.077 0.099 0.070 0.209 0.104 0.33 0.102 0.090-0.032 0.167-0.082 0.228-0.153l0.026-0.076c-0.011-0.045-0.028-0.087-0.051-0.128l0.051-0.076 0.025 0.051h0.077v0.051l-0.026 0.025c0.027 0.1 0.035 0.202 0.026 0.305-0.059 0.093-0.112 0.2-0.153 0.305l-0.051 0.025h-0.152c-0.034 0.016-0.068 0.033-0.102 0.051h-0.026c0 0.017 0 0.035 0 0.051l-0.025 0.051 0.051 0.076-0.026 0.102c-0.051 0-0.101 0-0.152 0-0.069 0.032-0.122 0.085-0.153 0.153-0.062 0.051-0.13 0.093-0.203 0.127l-0.026 0.076h-0.051l-0.051 0.025h-0.076l-0.026 0.025-0.025 0.102-0.101 0.025v0.076c-0.020 0.025-0.045 0.042-0.077 0.051l-0.076-0.025-0.077 0.076c-0.054-0.008-0.104 0.001-0.152 0.026l-0.026-0.026-0.076 0.026v0.025c-0.034 0.017-0.068 0.034-0.102 0.051v0.025c0.034 0.042 0.068 0.085 0.102 0.127 0.002 0.044-0.006 0.086-0.025 0.128-0.077 0.050-0.153 0.101-0.229 0.152 0.036-0.003 0.070 0.006 0.102 0.025v0.101l-0.025 0.052c-0.135 0.032-0.216 0.118-0.229 0.253l0.052 0.102v0.026l-0.128 0.076-0.050 0.076c-0.084 0.025-0.146 0.076-0.179 0.152l-0.076 0.051h-0.025v0.077c-0.134 0.14-0.196 0.334-0.178 0.533-0.039 0.070-0.082 0.137-0.127 0.203h-0.051c-0.124 0.090-0.26 0.15-0.407 0.178l0.026 0.051-0.026 0.077h-0.025v0.051l0.025 0.025c-0.007 0.084 0.020 0.165 0.077 0.229 0.032 0.020 0.066 0.028 0.101 0.025l0.051 0.026c0 0.042 0 0.084 0 0.127l0.076 0.051c-0.013 0.078-0.005 0.156 0.025 0.229 0.016 0.017 0.034 0.035 0.051 0.051l0.076 0.025 0.025 0.051c0.070-0.008 0.138 0 0.203 0.026 0.009 0.031 0.026 0.057 0.051 0.077h0.026l0.051-0.026c0.034 0 0.068 0 0.102 0l0.051 0.026 0.127-0.026c0.059 0.040 0.133 0.068 0.203 0.076l0.051 0.025h0.052l0.050 0.051v0.026l0.026 0.051c0.034 0.017 0.068 0.034 0.102 0.050 0.020-0.025 0.045-0.041 0.076-0.050l0.026 0.050h0.077l0.051-0.025 0.025 0.025c0.032 0.020 0.066 0.029 0.102 0.026l0.026 0.026c0 0.025 0 0.051 0 0.076-0.088 0.002-0.173 0.018-0.254 0.051l-0.077-0.026-0.051 0.026c-0.091-0.028-0.176-0.071-0.254-0.126-0.025 0-0.050 0-0.076 0l-0.051 0.025-0.052-0.025-0.051 0.025v0.050c0.009 0.031 0.026 0.057 0.051 0.077 0.022 0.040 0.031 0.082 0.026 0.126l-0.051 0.026-0.076 0.126c-0.061 0.021-0.121 0.047-0.179 0.077l0.026 0.025 0.076-0.025c0.026 0.037 0.059 0.062 0.102 0.076v0.026l-0.051 0.026v0.025l0.026 0.025-0.026 0.051-0.051 0.025c0 0.017 0 0.034 0 0.051l-0.026 0.026-0.051-0.026-0.026 0.026 0.026 0.050-0.026 0.051 0.052 0.077 0.051-0.025c0.025 0.026 0.051 0.051 0.077 0.076h0.050l0.102-0.051c0.062 0.019 0.121 0.044 0.177 0.076l0.101-0.025 0.051-0.051c0.026 0 0.051 0 0.077 0l0.025 0.051v0.051l-0.076 0.077c-0.166 0.034-0.338 0.069-0.508 0.101-0.046 0.071-0.106 0.13-0.179 0.179v0.051h-0.026l-0.051 0.026v0.051l0.051 0.051v0.025l0.026 0.026-0.051 0.025 0.025 0.051v0.026l0.051 0.025 0.026 0.051-0.026 0.051c-0.002 0.052-0.011 0.103-0.026 0.152l-0.051 0.026 0.025 0.026c0 0.017 0 0.033 0 0.050l-0.025 0.026 0.076 0.025v0.051l0.026 0.026-0.026 0.076-0.051 0.026h0.026l0.051 0.077c-0.025 0.019-0.042 0.045-0.051 0.076 0.067 0.022 0.135 0.039 0.204 0.051v0.026l-0.102 0.025c0 0.017 0 0.034 0 0.051l-0.026 0.026 0.026 0.025 0.025-0.025 0.026 0.051 0.051 0.025h0.025l0.076 0.051 0.026 0.051-0.026 0.025v0.052l-0.026 0.025v0.024l0.026 0.025 0.025-0.025c0.025 0 0.050 0 0.076 0 0.037 0.026 0.062 0.059 0.076 0.102v0.025l-0.025 0.051v0.127l0.102 0.025c0.082-0.040 0.167-0.073 0.254-0.102l0.026 0.051-0.026 0.051 0.026 0.051-0.026 0.077c-0.122-0.005-0.241 0.012-0.355 0.051l-0.026 0.025-0.025 0.077c-0.017 0.017-0.034 0.034-0.051 0.051l0.026 0.051-0.051 0.127 0.051 0.026v0.025c0.017 0 0.034 0 0.050 0l0.026 0.052c-0.026 0.037-0.060 0.061-0.101 0.076l-0.051 0.077h0.026v0.025c0.031 0.009 0.056 0.026 0.076 0.051v0.102l-0.051 0.026 0.026 0.051v0.051l-0.026 0.026c0 0.034 0 0.068 0 0.101 0.035 0.027 0.060 0.061 0.076 0.102-0.036 0.042-0.078 0.077-0.127 0.102l0.051 0.076c-0.017 0.035-0.034 0.068-0.051 0.102 0.003 0.060-0.005 0.12-0.026 0.178l0.077-0.026 0.026-0.051c0.068-0.001 0.135 0.007 0.202 0.025l0.076-0.051c0.083 0.007 0.159-0.019 0.229-0.076 0.034 0.017 0.068 0.034 0.102 0.051-0.034 0.037-0.076 0.063-0.127 0.076l-0.051-0.025-0.076 0.025v0.026c-0.017 0.017-0.034 0.034-0.051 0.051-0.063-0.011-0.122-0.002-0.178 0.026v-0.025l-0.127 0.051-0.026-0.025-0.025 0.025c-0.057 0.027-0.116 0.036-0.179 0.025v0.026l-0.101 0.026-0.051-0.026 0.026-0.051-0.026-0.025 0.026-0.026c0-0.026 0-0.051 0-0.077l0.026-0.025c0-0.034 0-0.068 0-0.101l-0.026-0.026 0.026-0.025-0.026-0.026 0.026-0.025h-0.026l0.026-0.051-0.051-0.025v-0.026l-0.026-0.026-0.051 0.026-0.025-0.026h-0.026c0-0.025 0-0.051 0-0.076l-0.025-0.025-0.051 0.431h-0.026c-0.017 0.017-0.034 0.034-0.051 0.051v0.102c-0.373 0.012-0.746 0.004-1.117-0.025l-0.253 0.153h-0.026l0.026 0.025-0.051 0.026v0.050h-0.026l-0.025 0.052v0.025h-0.026c0 0.017 0 0.034 0 0.051l-0.077 0.026c0-0.017 0-0.034 0-0.051l-0.025 0.025c0-0.017 0-0.034 0-0.051h-0.051l-0.025 0.051c-0.042 0.014-0.077 0.039-0.102 0.077v0.025l-0.076 0.026-0.026 0.051h-0.051l-0.051 0.051v0.025h-0.025v-0.025c-0.026 0-0.051 0-0.077 0 0 0.025 0 0.051 0 0.076h-0.051l-0.050 0.026h-0.026c-0.020 0.025-0.046 0.041-0.077 0.051l-0.025-0.026v0.026h-0.051c0 0.017 0 0.034 0 0.051l-0.026 0.025v-0.025l-0.025-0.026-0.026 0.026v0.025h-0.025v-0.051l-0.026 0.026h-0.051l-0.051 0.051h0.026v0.051l-0.051 0.026-0.051-0.026-0.026 0.026-0.051-0.026 0.025-0.026-0.025-0.025-0.051 0.025-0.051-0.025-0.025 0.025c-0.017 0-0.035 0-0.052 0v0.026l-0.076 0.026 0.026 0.076-0.026 0.025h-0.051v0.052h-0.026l-0.025 0.051h-0.051l0.026-0.026h-0.026v-0.025h-0.077l-0.025 0.025c-0.040-0.022-0.083-0.030-0.127-0.025-0.025-0.026-0.050-0.051-0.076-0.077l-0.026 0.051h-0.025l-0.025 0.026v0.051l-0.076 0.025-0.026 0.076h-0.025l-0.026-0.025v-0.051l-0.076-0.076 0.025-0.026 0.077-0.026c-0.020-0.025-0.045-0.041-0.077-0.051l-0.051 0.026-0.102-0.026v-0.050l0.051-0.102h-0.051l-0.051 0.026h-0.025l-0.051-0.026h-0.026l-0.051 0.026-0.076-0.026-0.026-0.127 0.026-0.101-0.026-0.026h-0.076l-0.102-0.051-0.025 0.026-0.026-0.026c-0.009 0.031-0.026 0.057-0.050 0.077v0.025h-0.026l0.026 0.025c0 0.017 0 0.034 0 0.051h-0.026v0.025c-0.019 0.026-0.045 0.043-0.077 0.051l0.077 0.026c-0.008 0.032-0.026 0.057-0.051 0.076h0.026l-0.026 0.026 0.026 0.026h-0.026v0.025l0.051 0.025v0.026l-0.025 0.025 0.051 0.026v0.026l0.025 0.051-0.051 0.050h-0.025c0 0.035 0 0.068 0 0.102l0.025 0.051-0.025 0.025c0.022 0.040 0.030 0.083 0.025 0.128l0.051 0.050h0.051v0.077l-0.026 0.026h-0.025c-0.064 0.087-0.114 0.179-0.152 0.279l-0.457-0.508v-0.026l-0.076-0.050-0.076 0.025-0.076-0.025-0.025 0.025h-0.051l-0.026-0.025v-0.026l-0.025 0.026h-0.026v-0.051l-0.025-0.026h-0.026v0.026-0.026c-0.017 0-0.034 0-0.051 0l-0.026-0.026-0.025 0.077c-0.017 0-0.034 0-0.051 0l-0.025 0.026-0.026-0.026v-0.025l-0.024-0.025-0.025-0.077c-0.045-0.005-0.087 0.004-0.127 0.026l-0.025-0.051-0.026 0.025v-0.025l0.026-0.025-0.026-0.026h-0.076c0-0.026 0-0.051 0-0.077l-0.025 0.026v-0.026l-0.052 0.026v-0.026l-0.025 0.026 0.025 0.102h-0.025c0 0.025 0 0.051 0 0.076h-0.051l-0.025 0.026-0.026-0.026-0.026 0.026-0.025-0.026v0.026l-0.076 0.026-0.026 0.025-0.025-0.025v0.025l-0.025-0.025-0.026 0.025v-0.025l0.051-0.077v-0.126h-0.025l-0.026-0.026v-0.026c0.017-0.016 0.034-0.033 0.051-0.051l-0.025-0.050c0-0.034 0-0.068 0-0.102l0.025-0.025v-0.051l0.025-0.026v-0.025l-0.025 0.025h-0.025l-0.051-0.025-0.026 0.025h-0.025l-0.026 0.026v0.025l-0.051 0.026-0.025-0.026-0.026 0.026-0.025-0.026-0.026 0.051h-0.025v0.026l-0.025 0.025h-0.051v0.026h-0.025l-0.026 0.026v-0.026c-0.017 0-0.034 0-0.051 0 0 0.026 0 0.051 0 0.076l-0.076 0.026h0.025v0.025c-0.017 0-0.034 0-0.051 0v-0.025c-0.034 0-0.068 0-0.102 0l0.025 0.025-0.025 0.026 0.025 0.026h-0.025l-0.025-0.026h-0.026l-0.025 0.026h-0.026v0.025h-0.026l-0.025 0.051v-0.025l-0.025 0.024c-0.017 0-0.034 0-0.050 0l-0.052 0.025-0.025-0.025-0.026 0.025c0 0.017 0 0.034 0 0.051l-0.025 0.026-0.026-0.051h-0.051v-0.076h0.026l-0.026-0.026v-0.025h0.026l-0.051-0.026v-0.026h-0.026c0-0.042 0-0.084 0-0.127l-0.025-0.026 0.025-0.025c0-0.034 0-0.068 0-0.101h0.026c-0.020-0.032-0.028-0.066-0.026-0.102l-0.025-0.026v0.051h-0.026c-0.020-0.025-0.045-0.042-0.076-0.051l-0.051 0.051v0.102l-0.026 0.051v0.026c-0.034 0.017-0.068 0.034-0.102 0.051v0.076l0.026 0.026-0.026 0.025c0.008 0.054-0 0.104-0.025 0.152l0.025 0.026v0.077l-0.051 0.051c-0.017 0-0.034 0-0.051 0l-0.076-0.076c0.029-0.046 0.047-0.1 0.051-0.153-0.026-0.019-0.043-0.044-0.051-0.077h0.025l0.051-0.051c0-0.042 0-0.084 0-0.127h0.026l-0.026-0.026 0.026-0.025-0.051-0.026v-0.051l-0.026-0.025h0.026v-0.026h0.025v-0.051l0.026-0.025-0.026-0.077h-0.051l0.026-0.025-0.026-0.051v-0.025h-0.025c0-0.026 0-0.051 0-0.076h-0.026l-0.025-0.026h-0.051c-0.024-0.049-0.033-0.099-0.026-0.152-0.025 0-0.050 0-0.076 0v-0.025l-0.026-0.026-0.025 0.026-0.026-0.051h-0.026v0.051h-0.025v-0.025h-0.051v0.026l-0.025-0.026-0.026 0.026-0.026-0.051h-0.025c0-0.042 0-0.085 0-0.128l-0.026-0.051 0.026-0.051-0.026-0.051h-0.025l-0.026-0.051h-0.025c-0.033-0.035-0.067-0.069-0.102-0.102v0.025h-0.026v-0.051h-0.025l-0.025-0.025h-0.026v-0.025l-0.026-0.026v-0.026h-0.025l-0.026-0.025v0.025h-0.025l-0.026-0.025 0.026-0.051-0.026-0.025v-0.052c-0.017 0-0.034 0-0.051 0l-0.025-0.025-0.026 0.025 0.026 0.026h-0.026c-0.158 0.161-0.285 0.348-0.38 0.559l-0.026-0.051-0.077-0.051c-0.016-0.041-0.041-0.075-0.076-0.101h-0.025l-0.052 0.026h-0.025v-0.026h-0.102l-0.026-0.051v-0.026h0.026l-0.026-0.025 0.052-0.051c0-0.017 0-0.034 0-0.051l0.025-0.026h-0.077l-0.051-0.051h-0.025l-0.051-0.178-0.077 0.051-0.025 0.077h-0.026c-0.048 0.046-0.099 0.088-0.152 0.126v0.051c-0.031 0.009-0.057 0.026-0.076 0.051l-0.026-0.026c-0.017 0.017-0.034 0.034-0.051 0.051v0.026l-0.051 0.025v0.077l-0.025 0.051v0.025h-0.026c-0.038 0.033-0.063 0.076-0.076 0.127v0.025h0.025v0.052h-0.025c-0.102 0.14-0.194 0.282-0.28 0.431v0.026l0.051 0.025v0.051c-0.018 0.034-0.035 0.068-0.051 0.101l0.051 0.077-0.025 0.050 0.026 0.051-0.026 0.051c0.024 0.048 0.033 0.099 0.026 0.152l-0.102 0.076c-0.685-0.384-1.365-0.783-2.032-1.193-0.049-0.015-0.1-0.023-0.152-0.026l-0.102-0.077-0.025 0.026c-0.026-0.037-0.060-0.062-0.102-0.076-0.032 0.020-0.065 0.028-0.101 0.026l-0.026-0.051h-0.076l-0.026-0.051h-0.102l-0.026 0.026c-0.047-0.028-0.098-0.046-0.152-0.052l-0.025-0.025-0.051 0.025-0.025-0.025h-0.026v0.025l-0.051-0.025v-0.026h-0.026l-0.025-0.051v0.026l-0.051-0.026v-0.050h-0.026v-0.026l-0.025 0.026v-0.026h-0.051v-0.026h-0.025l-0.051-0.025v0.025l-0.025-0.025h-0.026v-0.026l-0.025 0.026v-0.051h-0.026v-0.025h-0.025v-0.052l-0.026-0.025c0.009-0.031 0.026-0.056 0.051-0.076l-0.025-0.051 0.051-0.051-0.026-0.025 0.027-0.025h-0.026l0.051-0.025v-0.077l-0.051-0.025 0.026-0.026v-0.025l-0.026-0.052 0.026-0.025c0 0.017 0 0.034 0 0.051v-0.026h0.025l0.026 0.026v-0.051l0.025 0.025h0.026l-0.026-0.025 0.026-0.051v-0.025l0.025-0.052v-0.025l0.026-0.051 0.025 0.025 0.026-0.025-0.026-0.102 0.026-0.076h0.025v0.025h0.026l0.076-0.051v-0.025h0.051c-0.016-0.018-0.033-0.035-0.051-0.052v0.026l-0.025 0.026v-0.052l-0.051-0.025-0.026-0.051 0.051-0.051v-0.127h0.026l0.025-0.025v-0.051c0.034-0.026 0.068-0.051 0.102-0.076v-0.025h0.050v-0.026h0.026v-0.075l0.051-0.076-0.101 0.051v0.051l-0.025 0.026h-0.026l-0.026-0.026v-0.025h-0.025v0.025l0.051 0.026v0.025h-0.051l-0.051 0.026h-0.026l0.051 0.025h-0.076l-0.026 0.051h-0.076l-0.026 0.077c-0.034 0-0.068 0-0.102 0v0.025c-0.052 0.012-0.094 0.038-0.127 0.076v0.025l0.026 0.026v0.026l-0.051-0.026h-0.025l0.025 0.051-0.025 0.025-0.051-0.025c0 0.017 0 0.034 0 0.051-0.026 0-0.051 0-0.077 0l0.026 0.025-0.026 0.026c0 0.026 0 0.051 0 0.077h-0.051c-0.016 0.034-0.034 0.068-0.051 0.101h0.026c-0.034 0.026-0.068 0.051-0.102 0.077l0.026 0.076-0.026 0.026-0.050-0.026-0.051 0.052h0.025v-0.026h0.026v0.026l-0.026 0.025 0.026 0.026-0.026 0.025 0.026 0.051-0.026 0.026c-0.034 0-0.068 0-0.102 0v0.025l-0.051 0.026v0.025c0.016 0.017 0.034 0.034 0.051 0.051-0.019 0.025-0.044 0.043-0.076 0.051 0 0.017 0 0.034 0 0.051h0.050l-0.025 0.026v0.051h-0.025l-0.026 0.051 0.026 0.101h-0.026l-0.026 0.026 0.026 0.025c-0.021 0.045-0.046 0.088-0.077 0.127v-0.052l-0.025-0.051-0.051 0.026c-0.091 0.016-0.176-0.001-0.254-0.051v-0.025l0.077-0.052v-0.025c-0.034 0-0.068 0-0.102 0l-0.025 0.077h-0.026l-0.025-0.026v-0.051l0.051-0.102h-0.077l0.026-0.051v-0.101l-0.051-0.051 0.025-0.076h-0.051l-0.025-0.102 0.025-0.051v-0.051l-0.025-0.026-0.178 0.026v-0.102l-0.025-0.053c0.008-0.032 0.025-0.057 0.051-0.077 0.032 0.020 0.066 0.028 0.102 0.026v-0.051l-0.077-0.051 0.026-0.077 0.051-0.051c-0.001-0.078 0.024-0.146 0.076-0.203l-0.025-0.102 0.051-0.025 0.051 0.025c-0.002-0.044 0.006-0.086 0.025-0.127l-0.051-0.026 0.026-0.127c-0.012-0.057-0.038-0.107-0.077-0.151l0.026-0.077-0.026-0.025c0-0.034 0-0.068 0-0.102l0.051-0.050v-0.051l-0.051-0.077v-0.101l-0.025-0.026-0.102 0.026-0.026-0.077 0.026-0.051v-0.127l0.025-0.051c0.009-0.102 0.017-0.203 0.026-0.305l-0.077-0.077c0.008-0.041 0.017-0.085 0.026-0.126l-0.026-0.026c0.025-0.064 0.067-0.114 0.127-0.153v-0.077l-0.051-0.076 0.025-0.051 0.076-0.026v-0.075l-0.076-0.077h-0.076l-0.026-0.025v-0.127c-0.042-0.111-0.084-0.219-0.127-0.33v-0.026c0.048-0.064 0.109-0.117 0.178-0.153 0.010-0.030 0.027-0.056 0.051-0.076 0.011-0.062 0.002-0.122-0.025-0.178l0.025-0.051c0-0.034 0-0.068 0-0.102l-0.025-0.025c-0.069 0-0.138-0.008-0.204-0.026l-0.076-0.152 0.026-0.102-0.026-0.051c0-0.076 0-0.153 0-0.229v0z"></path>
</svg>
